M48
; DRILL file {KiCad 9.0.0} date 2025-03-25T20:50:37-0400
; FORMAT={-:-/ absolute / inch / decimal}
; #@! TF.CreationDate,2025-03-25T20:50:37-04:00
; #@! TF.GenerationSoftware,Kicad,Pcbnew,9.0.0
; #@! TF.FileFunction,Plated,1,2,PTH
FMAT,2
INCH
; #@! TA.AperFunction,Plated,PTH,ViaDrill
T1C0.0118
; #@! TA.AperFunction,Plated,PTH,ComponentDrill
T2C0.0236
; #@! TA.AperFunction,Plated,PTH,ComponentDrill
T3C0.0315
; #@! TA.AperFunction,Plated,PTH,ComponentDrill
T4C0.0340
; #@! TA.AperFunction,Plated,PTH,ComponentDrill
T5C0.0354
; #@! TA.AperFunction,Plated,PTH,ComponentDrill
T6C0.0360
; #@! TA.AperFunction,Plated,PTH,ComponentDrill
T7C0.0394
; #@! TA.AperFunction,Plated,PTH,ComponentDrill
T8C0.0402
; #@! TA.AperFunction,Plated,PTH,ComponentDrill
T9C0.0433
; #@! TA.AperFunction,Plated,PTH,ComponentDrill
T10C0.0512
; #@! TA.AperFunction,Plated,PTH,ComponentDrill
T11C0.0550
; #@! TA.AperFunction,Plated,PTH,ComponentDrill
T12C0.0591
; #@! TA.AperFunction,Plated,PTH,ComponentDrill
T13C0.0669
; #@! TA.AperFunction,Plated,PTH,ComponentDrill
T14C0.0709
; #@! TA.AperFunction,Plated,PTH,ComponentDrill
T15C0.0787
; #@! TA.AperFunction,Plated,PTH,ComponentDrill
T16C0.1102
; #@! TA.AperFunction,Plated,PTH,ComponentDrill
T17C0.1693
%
G90
G05
T1
X3.5138Y-3.2087
X3.5236Y-7.2244
X3.5236Y-8.376
X3.5237Y-7.007
X3.5453Y-3.2087
X3.563Y-1.3386
X3.563Y-1.3681
X3.563Y-1.3976
X3.563Y-1.4272
X3.563Y-1.7421
X3.563Y-1.7717
X3.563Y-1.8012
X3.563Y-1.8307
X3.563Y-7.2165
X3.563Y-8.6811
X3.5827Y-3.2087
X3.5827Y-8.1201
X3.5827Y-8.2737
X3.5925Y-1.3386
X3.5925Y-1.3681
X3.5925Y-1.3976
X3.5925Y-1.4272
X3.5925Y-1.7421
X3.5925Y-1.7717
X3.5925Y-1.8012
X3.5925Y-1.8307
X3.6024Y-7.815
X3.6024Y-9.8327
X3.6122Y-8.7303
X3.622Y-1.3386
X3.622Y-1.3681
X3.622Y-1.3976
X3.622Y-1.4272
X3.622Y-1.7421
X3.622Y-1.7717
X3.622Y-1.8012
X3.622Y-1.8307
X3.6319Y-6.7028
X3.6516Y-1.3386
X3.6516Y-1.3681
X3.6516Y-1.3976
X3.6516Y-1.4272
X3.6516Y-1.7421
X3.6516Y-1.7717
X3.6516Y-1.8012
X3.6516Y-1.8307
X3.6614Y-8.1299
X3.6795Y-8.3137
X3.6811Y-1.3386
X3.6811Y-1.3681
X3.6811Y-1.3976
X3.6811Y-1.4272
X3.6811Y-1.7421
X3.6811Y-1.7717
X3.6811Y-1.8012
X3.6811Y-1.8307
X3.6811Y-8.7303
X3.7106Y-1.3386
X3.7106Y-1.3681
X3.7106Y-1.3976
X3.7106Y-1.4272
X3.7106Y-1.4665
X3.7106Y-1.4961
X3.7106Y-1.5256
X3.7106Y-1.5551
X3.7106Y-1.5846
X3.7106Y-1.6142
X3.7106Y-1.6437
X3.7106Y-1.6732
X3.7106Y-1.7028
X3.7106Y-1.7421
X3.7106Y-1.7717
X3.7106Y-1.8012
X3.7106Y-1.8307
X3.7272Y-2.0079
X3.7272Y-2.0343
X3.7402Y-1.3386
X3.7402Y-1.3681
X3.7402Y-1.3976
X3.7402Y-1.4272
X3.7402Y-1.4665
X3.7402Y-1.4961
X3.7402Y-1.5256
X3.7402Y-1.5551
X3.7402Y-1.5846
X3.7402Y-1.6142
X3.7402Y-1.6437
X3.7402Y-1.6732
X3.7402Y-1.7028
X3.7402Y-1.7421
X3.7402Y-1.7717
X3.7402Y-1.8012
X3.7402Y-1.8307
X3.7697Y-1.3386
X3.7697Y-1.3681
X3.7697Y-1.3976
X3.7697Y-1.4272
X3.7697Y-1.4665
X3.7697Y-1.4961
X3.7697Y-1.5256
X3.7697Y-1.5551
X3.7697Y-1.5846
X3.7697Y-1.6142
X3.7697Y-1.6437
X3.7697Y-1.6732
X3.7697Y-1.7028
X3.7697Y-1.7421
X3.7697Y-1.7717
X3.7697Y-1.8012
X3.7697Y-1.8307
X3.7795Y-7.7264
X3.7795Y-7.7559
X3.7795Y-7.7854
X3.7795Y-7.815
X3.7992Y-1.3386
X3.7992Y-1.3681
X3.7992Y-1.3976
X3.7992Y-1.4272
X3.7992Y-1.4665
X3.7992Y-1.4961
X3.7992Y-1.5256
X3.7992Y-1.5551
X3.7992Y-1.5846
X3.7992Y-1.6142
X3.7992Y-1.6437
X3.7992Y-1.6732
X3.7992Y-1.7028
X3.7992Y-1.7421
X3.7992Y-1.7717
X3.7992Y-1.8012
X3.7992Y-1.8307
X3.7992Y-8.9075
X3.7992Y-9.8327
X3.8091Y-7.7264
X3.8091Y-7.7559
X3.8091Y-7.7854
X3.8091Y-7.815
X3.8287Y-1.3386
X3.8287Y-1.3681
X3.8287Y-1.3976
X3.8287Y-1.4272
X3.8287Y-1.4665
X3.8287Y-1.4961
X3.8287Y-1.5256
X3.8287Y-1.5551
X3.8287Y-1.5846
X3.8287Y-1.6142
X3.8287Y-1.6437
X3.8287Y-1.6732
X3.8287Y-1.7028
X3.8287Y-1.7421
X3.8287Y-1.7717
X3.8287Y-1.8012
X3.8287Y-1.8307
X3.837Y-8.1614
X3.8386Y-7.4193
X3.8386Y-7.7264
X3.8386Y-7.7559
X3.8386Y-7.7854
X3.8386Y-7.815
X3.8386Y-7.8445
X3.8386Y-7.8891
X3.8386Y-7.9915
X3.8469Y-8.2841
X3.8484Y-7.4606
X3.8541Y-8.7163
X3.8583Y-1.3386
X3.8583Y-1.3681
X3.8583Y-1.3976
X3.8583Y-1.4272
X3.8583Y-1.4665
X3.8583Y-1.4961
X3.8583Y-1.5256
X3.8583Y-1.5551
X3.8583Y-1.5846
X3.8583Y-1.6142
X3.8583Y-1.6437
X3.8583Y-1.6732
X3.8583Y-1.7028
X3.8583Y-1.7421
X3.8583Y-1.7717
X3.8583Y-1.8012
X3.8583Y-1.8307
X3.8681Y-7.7264
X3.8681Y-7.7559
X3.8681Y-7.7854
X3.8681Y-7.815
X3.8681Y-7.8445
X3.8681Y-7.8891
X3.878Y-9.0846
X3.8878Y-1.3386
X3.8878Y-1.3681
X3.8878Y-1.3976
X3.8878Y-1.4272
X3.8878Y-1.4665
X3.8878Y-1.4961
X3.8878Y-1.5256
X3.8878Y-1.5551
X3.8878Y-1.5846
X3.8878Y-1.6142
X3.8878Y-1.6437
X3.8878Y-1.6732
X3.8878Y-1.7028
X3.8878Y-1.7421
X3.8878Y-1.7717
X3.8878Y-1.8012
X3.8878Y-1.8307
X3.8898Y-9.311
X3.8903Y-8.7525
X3.8976Y-7.7264
X3.8976Y-7.7559
X3.8976Y-7.7854
X3.8976Y-7.815
X3.8976Y-7.8445
X3.8976Y-7.8891
X3.9173Y-1.3386
X3.9173Y-1.3681
X3.9173Y-1.3976
X3.9173Y-1.4272
X3.9173Y-1.4665
X3.9173Y-1.4961
X3.9173Y-1.5256
X3.9173Y-1.5551
X3.9173Y-1.5846
X3.9173Y-1.6142
X3.9173Y-1.6437
X3.9173Y-1.6732
X3.9173Y-1.7028
X3.9173Y-1.7421
X3.9173Y-1.7717
X3.9173Y-1.8012
X3.9173Y-1.8307
X3.9256Y-8.2743
X3.9272Y-2.0079
X3.9272Y-2.0374
X3.9272Y-7.372
X3.9272Y-7.7264
X3.9272Y-7.7559
X3.9272Y-7.7854
X3.9272Y-7.815
X3.9272Y-8.5728
X3.9272Y-8.75
X3.9272Y-8.8976
X3.9862Y-7.6969
X3.9862Y-7.7264
X3.9862Y-7.7559
X3.9862Y-7.7854
X3.9862Y-7.815
X4.0683Y-8.8943
X4.0748Y-7.7067
X4.0846Y-7.5098
X4.0945Y-8.7598
X4.1043Y-8.7205
X4.1535Y-1.4469
X4.1535Y-1.4764
X4.1535Y-1.5059
X4.1535Y-1.5354
X4.1535Y-1.565
X4.1535Y-1.5945
X4.1535Y-1.624
X4.1535Y-1.6535
X4.1831Y-1.4469
X4.1831Y-1.4764
X4.1831Y-1.5059
X4.1831Y-1.5354
X4.1831Y-1.565
X4.1831Y-1.5945
X4.1831Y-1.624
X4.1831Y-1.6535
X4.2045Y-8.5532
X4.2126Y-1.4469
X4.2126Y-1.4764
X4.2126Y-1.5059
X4.2126Y-1.5354
X4.2126Y-1.565
X4.2126Y-1.5945
X4.2126Y-1.624
X4.2126Y-1.6535
X4.2421Y-1.4469
X4.2421Y-1.4764
X4.2421Y-1.5059
X4.2421Y-1.5354
X4.2421Y-1.565
X4.2421Y-1.5945
X4.2421Y-1.624
X4.2421Y-1.6535
X4.2421Y-7.5492
X4.2717Y-1.4469
X4.2717Y-1.4764
X4.2717Y-1.5059
X4.2717Y-1.5354
X4.2717Y-1.565
X4.2717Y-1.5945
X4.2717Y-1.624
X4.2717Y-1.6535
X4.2717Y-6.4764
X4.3012Y-1.4469
X4.3012Y-1.4764
X4.3012Y-1.5059
X4.3012Y-1.5354
X4.3012Y-1.565
X4.3012Y-1.5945
X4.3012Y-1.624
X4.3012Y-1.6535
X4.3307Y-1.4469
X4.3307Y-1.4764
X4.3307Y-1.5059
X4.3307Y-1.5354
X4.3307Y-1.565
X4.3307Y-1.5945
X4.3307Y-1.624
X4.3307Y-1.6535
X4.3504Y-6.4764
X4.3504Y-6.5059
X4.3602Y-1.4469
X4.3602Y-1.4764
X4.3602Y-1.5059
X4.3602Y-1.5354
X4.3602Y-1.565
X4.3602Y-1.5945
X4.3602Y-1.624
X4.3602Y-1.6535
X4.3701Y-8.5925
X4.439Y-6.4665
X4.4488Y-3.435
X4.4488Y-3.4646
X4.4488Y-3.4941
X4.4488Y-3.5236
X4.4488Y-3.5531
X4.4488Y-3.5827
X4.4488Y-3.6122
X4.4685Y-8.7205
X4.4783Y-3.435
X4.4783Y-3.4646
X4.4783Y-3.4941
X4.4783Y-3.5236
X4.4783Y-3.5531
X4.4783Y-3.5827
X4.4783Y-3.6122
X4.4783Y-6.439
X4.5079Y-3.435
X4.5079Y-3.4646
X4.5079Y-3.4941
X4.5079Y-3.5236
X4.5079Y-3.5531
X4.5079Y-3.5827
X4.5079Y-3.6122
X4.5276Y-8.5236
X4.5374Y-3.435
X4.5374Y-3.4646
X4.5374Y-3.4941
X4.5374Y-3.5236
X4.5374Y-3.5531
X4.5374Y-3.5827
X4.5374Y-3.6122
X4.5669Y-3.435
X4.5669Y-3.4646
X4.5669Y-3.4941
X4.5669Y-3.5236
X4.5669Y-3.5531
X4.5669Y-3.5827
X4.5669Y-3.6122
X5.0197Y-7.0374
X5.3445Y-3.0118
X5.3445Y-3.0413
X5.3445Y-3.0709
X5.3445Y-3.1004
X5.3445Y-3.1299
X5.3445Y-3.1594
X5.3445Y-3.189
X5.374Y-3.0118
X5.374Y-3.0413
X5.374Y-3.0709
X5.374Y-3.1004
X5.374Y-3.1299
X5.374Y-3.1594
X5.374Y-3.189
X5.4035Y-3.0118
X5.4035Y-3.0413
X5.4035Y-3.0709
X5.4035Y-3.1004
X5.4035Y-3.1299
X5.4035Y-3.1594
X5.4035Y-3.189
X5.4331Y-3.0118
X5.4331Y-3.0413
X5.4331Y-3.0709
X5.4331Y-3.1004
X5.4331Y-3.1299
X5.4331Y-3.1594
X5.4331Y-3.189
X5.4626Y-3.0118
X5.4626Y-3.0413
X5.4626Y-3.0709
X5.4626Y-3.1004
X5.4626Y-3.1299
X5.4626Y-3.1594
X5.4626Y-3.189
X6.1204Y-1.4073
X6.1319Y-2.9429
X6.1811Y-2.9429
X6.2343Y-1.2756
X6.2402Y-1.0138
X6.2856Y-2.874
X6.3484Y-8.2972
X6.3707Y-8.3195
X6.3897Y-8.3446
T2
X6.1624Y-8.9567
X6.1996Y-8.8669
X6.1996Y-9.0465
X6.2008Y-5.1476
X6.2008Y-5.2657
X6.2894Y-8.8297
X6.2894Y-9.0837
X6.3792Y-8.8669
X6.3792Y-9.0465
X6.4163Y-8.9567
T3
X4.1011Y-9.7539
X4.1761Y-9.7539
X4.2511Y-9.7539
X4.3148Y-6.8031
X4.3148Y-6.8819
X6.2008Y-4.5736
X6.2008Y-4.9736
T4
X4.6555Y-7.4705
X4.6752Y-6.3681
X4.6752Y-6.7618
X4.6752Y-6.8406
X4.6752Y-7.2343
X5.0295Y-7.6575
X5.0295Y-8.0512
X5.0492Y-7.4705
T5
X4.2717Y-7.1161
X4.2717Y-7.313
T6
X5.7283Y-8.9469
X5.9252Y-8.9469
T7
X3.7439Y-7.187
X3.9407Y-7.187
X4.3307Y-7.5899
X4.3307Y-7.6899
X4.3307Y-7.7899
X4.3307Y-7.8899
X4.3307Y-7.9899
X4.3307Y-8.0899
T8
X5.9035Y-1.011
X5.9035Y-1.111
X5.9035Y-1.211
X5.9035Y-1.311
T9
X5.2953Y-6.3681
X5.2953Y-7.2539
X5.9449Y-6.3681
X5.9449Y-7.2539
T10
X5.3789Y-8.3535
X5.3789Y-8.6535
X5.7789Y-8.6535
X6.0789Y-8.6535
T11
X3.5516Y-3.8091
X3.5516Y-4.1437
X3.7287Y-1.0433
X3.7516Y-3.8091
X3.7516Y-4.1437
X3.9287Y-1.0433
X5.9236Y-1.8799
X6.1236Y-1.8799
T12
X4.1142Y-2.1988
X4.1142Y-2.4134
X4.1142Y-2.628
X4.1142Y-3.0925
X4.1142Y-3.3071
X4.1142Y-3.5217
X4.1142Y-4.4286
X4.1142Y-4.8577
X4.1142Y-5.3931
X4.1142Y-5.8223
X5.7972Y-2.2047
X5.7972Y-2.4193
X5.7972Y-2.6339
X5.7972Y-3.1004
X5.7972Y-3.315
X5.7972Y-3.5295
T13
X5.5906Y-7.5394
X5.5906Y-8.0118
X5.9843Y-7.5394
X5.9843Y-8.0118
T14
X5.2165Y-9.2643
X5.4921Y-9.2643
X5.7677Y-9.2643
T15
X5.6201Y-4.4488
X5.6201Y-4.8425
X5.6201Y-5.5709
X5.6201Y-5.9646
T16
X4.2717Y-1.8037
X4.2717Y-3.9272
X4.2717Y-4.1043
X4.2717Y-6.2278
X5.6378Y-1.8037
X5.6378Y-3.9272
T17
X6.2894Y-8.9567
M30
