%TF.GenerationSoftware,KiCad,Pcbnew,9.0.0*%
%TF.CreationDate,2025-03-25T20:50:40-04:00*%
%TF.ProjectId,RampedFetCoil,52616d70-6564-4466-9574-436f696c2e6b,rev?*%
%TF.SameCoordinates,Original*%
%TF.FileFunction,Copper,L2,Bot*%
%TF.FilePolarity,Positive*%
%FSLAX46Y46*%
G04 Gerber Fmt 4.6, Leading zero omitted, Abs format (unit mm)*
G04 Created by KiCad (PCBNEW 9.0.0) date 2025-03-25 20:50:40*
%MOMM*%
%LPD*%
G01*
G04 APERTURE LIST*
%TA.AperFunction,ComponentPad*%
%ADD10R,1.371600X1.371600*%
%TD*%
%TA.AperFunction,ComponentPad*%
%ADD11C,1.371600*%
%TD*%
%TA.AperFunction,ComponentPad*%
%ADD12R,1.422400X1.422400*%
%TD*%
%TA.AperFunction,ComponentPad*%
%ADD13C,1.422400*%
%TD*%
%TA.AperFunction,ComponentPad*%
%ADD14C,1.905000*%
%TD*%
%TA.AperFunction,ComponentPad*%
%ADD15C,4.000000*%
%TD*%
%TA.AperFunction,ComponentPad*%
%ADD16R,2.300000X2.300000*%
%TD*%
%TA.AperFunction,ComponentPad*%
%ADD17C,2.300000*%
%TD*%
%TA.AperFunction,ComponentPad*%
%ADD18C,1.000000*%
%TD*%
%TA.AperFunction,ComponentPad*%
%ADD19R,4.500000X2.500000*%
%TD*%
%TA.AperFunction,ComponentPad*%
%ADD20O,4.500000X2.500000*%
%TD*%
%TA.AperFunction,ComponentPad*%
%ADD21R,3.000000X3.000000*%
%TD*%
%TA.AperFunction,ComponentPad*%
%ADD22C,3.000000*%
%TD*%
%TA.AperFunction,ComponentPad*%
%ADD23C,1.650000*%
%TD*%
%TA.AperFunction,ComponentPad*%
%ADD24R,1.700000X1.700000*%
%TD*%
%TA.AperFunction,ComponentPad*%
%ADD25O,1.700000X1.700000*%
%TD*%
%TA.AperFunction,ComponentPad*%
%ADD26R,2.700000X2.700000*%
%TD*%
%TA.AperFunction,ComponentPad*%
%ADD27C,2.700000*%
%TD*%
%TA.AperFunction,ComponentPad*%
%ADD28C,1.400000*%
%TD*%
%TA.AperFunction,ComponentPad*%
%ADD29R,2.030000X1.730000*%
%TD*%
%TA.AperFunction,ComponentPad*%
%ADD30O,2.030000X1.730000*%
%TD*%
%TA.AperFunction,ComponentPad*%
%ADD31C,1.600000*%
%TD*%
%TA.AperFunction,ComponentPad*%
%ADD32O,1.600000X1.600000*%
%TD*%
%TA.AperFunction,ComponentPad*%
%ADD33C,1.308000*%
%TD*%
%TA.AperFunction,ComponentPad*%
%ADD34C,2.500000*%
%TD*%
%TA.AperFunction,ComponentPad*%
%ADD35C,1.500000*%
%TD*%
%TA.AperFunction,ComponentPad*%
%ADD36C,1.408000*%
%TD*%
%TA.AperFunction,ComponentPad*%
%ADD37C,0.900000*%
%TD*%
%TA.AperFunction,ComponentPad*%
%ADD38C,8.600000*%
%TD*%
%TA.AperFunction,ViaPad*%
%ADD39C,0.600000*%
%TD*%
%TA.AperFunction,Conductor*%
%ADD40C,0.500000*%
%TD*%
%TA.AperFunction,Conductor*%
%ADD41C,1.000000*%
%TD*%
%TA.AperFunction,Conductor*%
%ADD42C,0.300000*%
%TD*%
G04 APERTURE END LIST*
D10*
%TO.P,C30,1*%
%TO.N,VBUS*%
X118750000Y-183750000D03*
D11*
%TO.P,C30,2*%
%TO.N,Earth_Protective*%
X118750000Y-173750000D03*
%TD*%
D12*
%TO.P,TH1,1*%
%TO.N,ACI1*%
X150500000Y-227250000D03*
D13*
%TO.P,TH1,2*%
%TO.N,ACI2*%
X145500000Y-227250000D03*
%TD*%
D14*
%TO.P,J4,1,Pin_1*%
%TO.N,SW2*%
X150460000Y-47750000D03*
X155540000Y-47750000D03*
%TD*%
D15*
%TO.P,HS2,1*%
%TO.N,unconnected-(HS2-Pad1)_1*%
X108500000Y-158186000D03*
%TO.N,unconnected-(HS2-Pad1)*%
X108500000Y-104250000D03*
%TD*%
D16*
%TO.P,K1,1*%
%TO.N,Net-(D6-A)*%
X136625000Y-219800000D03*
D17*
%TO.P,K1,2*%
%TO.N,ACI2*%
X146785000Y-219800000D03*
%TO.P,K1,3*%
%TO.N,ACI1*%
X154405000Y-219800000D03*
%TO.P,K1,5*%
%TO.N,+12V*%
X136625000Y-212180000D03*
%TD*%
D18*
%TO.P,NE1,1*%
%TO.N,Net-(NE1-Pad1)*%
X157500000Y-130750000D03*
%TO.P,NE1,2*%
%TO.N,GND*%
X157500000Y-133750000D03*
%TD*%
D19*
%TO.P,Q9,1,G*%
%TO.N,G_U2*%
X147250000Y-66900000D03*
D20*
%TO.P,Q9,2,D*%
%TO.N,VBUS*%
X147250000Y-61450000D03*
%TO.P,Q9,3,S*%
%TO.N,SW2*%
X147250000Y-56000000D03*
%TD*%
D14*
%TO.P,J7,1,Pin_1*%
%TO.N,GND*%
X90210000Y-96750000D03*
X95290000Y-96750000D03*
%TD*%
D21*
%TO.P,C17,1*%
%TO.N,VBUS*%
X142750000Y-113000000D03*
D22*
%TO.P,C17,2*%
%TO.N,AC2*%
X142750000Y-123000000D03*
%TD*%
D10*
%TO.P,C28,1*%
%TO.N,AC2*%
X127750000Y-194500000D03*
D11*
%TO.P,C28,2*%
%TO.N,Earth_Protective*%
X127750000Y-204500000D03*
%TD*%
D10*
%TO.P,C27,1*%
%TO.N,Earth_Protective*%
X118250000Y-189750000D03*
D11*
%TO.P,C27,2*%
%TO.N,AC1*%
X128250000Y-189750000D03*
%TD*%
D23*
%TO.P,C22,1*%
%TO.N,AC1*%
X151000000Y-184250000D03*
%TO.P,C22,2*%
%TO.N,AC2*%
X151000000Y-161750000D03*
%TD*%
D14*
%TO.P,J5,1,Pin_1*%
%TO.N,Net-(J5-Pin_1)*%
X94710000Y-26500000D03*
X99790000Y-26500000D03*
%TD*%
D24*
%TO.P,J2,1,Pin_1*%
%TO.N,+3V3*%
X110000000Y-192783240D03*
D25*
%TO.P,J2,2,Pin_2*%
%TO.N,EXP4*%
X110000000Y-195323240D03*
%TO.P,J2,3,Pin_3*%
%TO.N,EXP3*%
X110000000Y-197863240D03*
%TO.P,J2,4,Pin_4*%
%TO.N,EXP2*%
X110000000Y-200403240D03*
%TO.P,J2,5,Pin_5*%
%TO.N,EXP1*%
X110000000Y-202943240D03*
%TO.P,J2,6,Pin_6*%
%TO.N,GND*%
X110000000Y-205483240D03*
%TD*%
D26*
%TO.P,J3,1,L*%
%TO.N,Net-(J3-L)*%
X132500000Y-235312500D03*
D27*
%TO.P,J3,2,E*%
%TO.N,Earth_Protective*%
X139500000Y-235312500D03*
%TO.P,J3,3,N*%
%TO.N,ACI1*%
X146500000Y-235312500D03*
%TD*%
D28*
%TO.P,U9,1,GND*%
%TO.N,GND*%
X104167500Y-247750000D03*
%TO.P,U9,2,OUT*%
%TO.N,Net-(Q6-G)*%
X106072500Y-247750000D03*
%TO.P,U9,3,VCC*%
%TO.N,+12V*%
X107977500Y-247750000D03*
%TD*%
D29*
%TO.P,M1,1,-*%
%TO.N,GND*%
X149950000Y-33300000D03*
D30*
%TO.P,M1,2,+*%
%TO.N,+12V*%
X149950000Y-30760000D03*
%TO.P,M1,3,Tacho*%
%TO.N,unconnected-(M1-Tacho-Pad3)*%
X149950000Y-28220000D03*
%TO.P,M1,4,PWM*%
%TO.N,Net-(M1-PWM)*%
X149950000Y-25680000D03*
%TD*%
D23*
%TO.P,C25,1*%
%TO.N,VBUS*%
X134500000Y-161750000D03*
%TO.P,C25,2*%
%TO.N,GND*%
X134500000Y-184250000D03*
%TD*%
D31*
%TO.P,R21,1*%
%TO.N,Net-(NE1-Pad1)*%
X157500000Y-126330000D03*
D32*
%TO.P,R21,2*%
%TO.N,VBUS*%
X157500000Y-116170000D03*
%TD*%
D33*
%TO.P,C12,1*%
%TO.N,Net-(D8-K)*%
X109595000Y-172800000D03*
%TO.P,C12,2*%
%TO.N,Net-(D7-K)*%
X109595000Y-174800000D03*
%TD*%
D10*
%TO.P,C29,1*%
%TO.N,GND*%
X118750000Y-161750000D03*
D11*
%TO.P,C29,2*%
%TO.N,Earth_Protective*%
X118750000Y-171750000D03*
%TD*%
D19*
%TO.P,Q7,1,G*%
%TO.N,G_U1*%
X104500000Y-55850000D03*
D20*
%TO.P,Q7,2,D*%
%TO.N,VBUS*%
X104500000Y-61300000D03*
%TO.P,Q7,3,S*%
%TO.N,SW1*%
X104500000Y-66750000D03*
%TD*%
D19*
%TO.P,Q8,1,G*%
%TO.N,G_L1*%
X104500000Y-78550000D03*
D20*
%TO.P,Q8,2,D*%
%TO.N,SW1*%
X104500000Y-84000000D03*
%TO.P,Q8,3,S*%
%TO.N,GND*%
X104500000Y-89450000D03*
%TD*%
D15*
%TO.P,HS1,1*%
%TO.N,unconnected-(HS1-Pad1)*%
X108500000Y-45814000D03*
%TO.N,unconnected-(HS1-Pad1)_2*%
X108500000Y-99750000D03*
%TO.N,unconnected-(HS1-Pad1)_3*%
X143200000Y-45814000D03*
%TO.N,unconnected-(HS1-Pad1)_1*%
X143200000Y-99750000D03*
%TD*%
D34*
%TO.P,FL1,1,1*%
%TO.N,Net-(J3-L)*%
X142000000Y-203500000D03*
%TO.P,FL1,2,2*%
%TO.N,AC1*%
X142000000Y-191500000D03*
%TO.P,FL1,3,3*%
%TO.N,ACI2*%
X152000000Y-203500000D03*
%TO.P,FL1,4,4*%
%TO.N,AC2*%
X152000000Y-191500000D03*
%TD*%
D14*
%TO.P,J6,1,Pin_1*%
%TO.N,VBUS*%
X90210000Y-105250000D03*
X95290000Y-105250000D03*
%TD*%
D35*
%TO.P,L1,1,1*%
%TO.N,Net-(D7-K)*%
X95095000Y-182550000D03*
%TO.P,L1,2,2*%
%TO.N,+15V*%
X100095000Y-182550000D03*
%TD*%
D19*
%TO.P,D9,1,K*%
%TO.N,VBUS*%
X104500000Y-112486000D03*
D20*
%TO.P,D9,2,A*%
%TO.N,AC1*%
X104500000Y-123386000D03*
%TD*%
D19*
%TO.P,Q10,1,G*%
%TO.N,G_L2*%
X147250000Y-89650000D03*
D20*
%TO.P,Q10,2,D*%
%TO.N,SW2*%
X147250000Y-84200000D03*
%TO.P,Q10,3,S*%
%TO.N,GND*%
X147250000Y-78750000D03*
%TD*%
D36*
%TO.P,C13,1*%
%TO.N,+15V*%
X108500000Y-180750000D03*
%TO.P,C13,2*%
%TO.N,GND*%
X108500000Y-185750000D03*
%TD*%
D19*
%TO.P,D10,1,K*%
%TO.N,AC1*%
X104500000Y-136986000D03*
D20*
%TO.P,D10,2,A*%
%TO.N,GND*%
X104500000Y-147886000D03*
%TD*%
D37*
%TO.P,H4,1,1*%
%TO.N,Earth_Protective*%
X156525000Y-227500000D03*
X157469581Y-225219581D03*
X157469581Y-229780419D03*
X159750000Y-224275000D03*
D38*
X159750000Y-227500000D03*
D37*
X159750000Y-230725000D03*
X162030419Y-225219581D03*
X162030419Y-229780419D03*
X162975000Y-227500000D03*
%TD*%
D21*
%TO.P,C16,1*%
%TO.N,AC2*%
X142750000Y-141500000D03*
D22*
%TO.P,C16,2*%
%TO.N,GND*%
X142750000Y-151500000D03*
%TD*%
D39*
%TO.N,GND*%
X114500000Y-90250000D03*
X114500000Y-91000000D03*
X116000000Y-88750000D03*
X113000000Y-88000000D03*
X138750000Y-77250000D03*
X136500000Y-81000000D03*
X137250000Y-80250000D03*
X97460000Y-207300000D03*
X114500000Y-88750000D03*
X113000000Y-91750000D03*
X138000000Y-80250000D03*
X106794620Y-217251380D03*
X158350000Y-32400000D03*
X137250000Y-78000000D03*
X137250000Y-77250000D03*
X138750000Y-79500000D03*
X138000000Y-76500000D03*
X138000000Y-77250000D03*
X115250000Y-91000000D03*
X113750000Y-88750000D03*
X113750000Y-90250000D03*
X103500000Y-195750000D03*
X138750000Y-80250000D03*
X114500000Y-87250000D03*
X98800000Y-236500000D03*
X115250000Y-88000000D03*
X97710000Y-210416760D03*
X114500000Y-88000000D03*
X116000000Y-90250000D03*
X108500000Y-164500000D03*
X91500000Y-198500000D03*
X113000000Y-88750000D03*
X137250000Y-79500000D03*
X104250000Y-221500000D03*
X135750000Y-79500000D03*
X116000000Y-91000000D03*
X135750000Y-80250000D03*
X110500000Y-164500000D03*
X114500000Y-89500000D03*
X135750000Y-76500000D03*
X115250000Y-89500000D03*
X138000000Y-81000000D03*
X115250000Y-91750000D03*
X113750000Y-91750000D03*
X113750000Y-89500000D03*
X115250000Y-90250000D03*
X96500000Y-249750000D03*
X97500000Y-202983240D03*
X136500000Y-76500000D03*
X92250000Y-170250000D03*
X99710000Y-210166760D03*
X93000000Y-206500000D03*
X113750000Y-87250000D03*
X107750000Y-191750000D03*
X138000000Y-78750000D03*
X113000000Y-87250000D03*
X113000000Y-90250000D03*
X115250000Y-88750000D03*
X116000000Y-88000000D03*
X113000000Y-91000000D03*
X135750000Y-81000000D03*
X116000000Y-87250000D03*
X138750000Y-78750000D03*
X96500000Y-226250000D03*
X135750000Y-77250000D03*
X91500000Y-249750000D03*
X113000000Y-89500000D03*
X113750000Y-88000000D03*
X137250000Y-81000000D03*
X136500000Y-78750000D03*
X116000000Y-89500000D03*
X111000000Y-218250000D03*
X138750000Y-81000000D03*
X110500000Y-165250000D03*
X116000000Y-91750000D03*
X113750000Y-91000000D03*
X114500000Y-91750000D03*
X135750000Y-78750000D03*
X136500000Y-80250000D03*
X161815687Y-211315687D03*
X93460000Y-211166760D03*
X135750000Y-78000000D03*
X113500000Y-221500000D03*
X136500000Y-77250000D03*
X99750000Y-226000000D03*
X115250000Y-87250000D03*
X138000000Y-78000000D03*
X136500000Y-79500000D03*
X137250000Y-78750000D03*
X138000000Y-79500000D03*
X138750000Y-76500000D03*
X136500000Y-78000000D03*
X137250000Y-76500000D03*
X138750000Y-78000000D03*
%TO.N,+3V3*%
X103334620Y-225915380D03*
X89500000Y-212750000D03*
X91000000Y-210151000D03*
X90500000Y-220500000D03*
X91750000Y-221750000D03*
X98500000Y-230750000D03*
X93500000Y-221750000D03*
X91000000Y-206250000D03*
X161250000Y-210750000D03*
%TO.N,+12V*%
X96750000Y-198500000D03*
X96000000Y-196250000D03*
X103750000Y-190750000D03*
X97500000Y-198500000D03*
X96000000Y-198500000D03*
X99750000Y-197000000D03*
X99000000Y-198500000D03*
X99000000Y-197750000D03*
X98250000Y-196250000D03*
X99750000Y-196250000D03*
X96000000Y-197750000D03*
X96750000Y-197000000D03*
X98250000Y-197750000D03*
X98250000Y-199250000D03*
X97500000Y-196250000D03*
X99000000Y-196250000D03*
X98250000Y-200383240D03*
X101250000Y-196250000D03*
X97500000Y-199250000D03*
X155457595Y-35744418D03*
X97500000Y-200383240D03*
X97500000Y-197000000D03*
X99000000Y-199250000D03*
X96750000Y-196250000D03*
X99750000Y-198500000D03*
X96750000Y-197750000D03*
X99750000Y-197750000D03*
X101250000Y-198500000D03*
X101250000Y-197000000D03*
X98250000Y-197000000D03*
X99000000Y-200383240D03*
X99000000Y-197000000D03*
X97500000Y-197750000D03*
X96000000Y-197000000D03*
X101250000Y-195500000D03*
X98250000Y-198500000D03*
X101250000Y-197750000D03*
%TO.N,VBUS*%
X127500000Y-178750000D03*
%TO.N,SW1*%
X107000000Y-42000000D03*
X108500000Y-38250000D03*
X105500000Y-36750000D03*
X108500000Y-37500000D03*
X106250000Y-42000000D03*
X105500000Y-38250000D03*
X107750000Y-39750000D03*
X105500000Y-41250000D03*
X110000000Y-39000000D03*
X106250000Y-39750000D03*
X108500000Y-41250000D03*
X107750000Y-38250000D03*
X106250000Y-36750000D03*
X105500000Y-37500000D03*
X109250000Y-39750000D03*
X110000000Y-37500000D03*
X110750000Y-39000000D03*
X108500000Y-36750000D03*
X109250000Y-39000000D03*
X107750000Y-41250000D03*
X107750000Y-37500000D03*
X107000000Y-38250000D03*
X107000000Y-39000000D03*
X110000000Y-41250000D03*
X109250000Y-40500000D03*
X105500000Y-40500000D03*
X110750000Y-41250000D03*
X108500000Y-42000000D03*
X105500000Y-39750000D03*
X107000000Y-36750000D03*
X106250000Y-37500000D03*
X109250000Y-37500000D03*
X105500000Y-42000000D03*
X110000000Y-38250000D03*
X110000000Y-39750000D03*
X108500000Y-40500000D03*
X110750000Y-37500000D03*
X110750000Y-39750000D03*
X106250000Y-39000000D03*
X105500000Y-39000000D03*
X107750000Y-42000000D03*
X106250000Y-41250000D03*
X107000000Y-39750000D03*
X106250000Y-40500000D03*
X107750000Y-36750000D03*
X108500000Y-39000000D03*
X108500000Y-39750000D03*
X107000000Y-40500000D03*
X109250000Y-42000000D03*
X107750000Y-40500000D03*
X110000000Y-42000000D03*
X107750000Y-39000000D03*
X106250000Y-38250000D03*
X109250000Y-36750000D03*
X110750000Y-36750000D03*
X110750000Y-42000000D03*
X109250000Y-38250000D03*
X109250000Y-41250000D03*
X110000000Y-36750000D03*
X107000000Y-41250000D03*
X110000000Y-40500000D03*
X110750000Y-40500000D03*
X110750000Y-38250000D03*
X107000000Y-37500000D03*
%TO.N,NRST*%
X99750000Y-217750000D03*
X99750000Y-222250000D03*
%TO.N,GD_B*%
X155750000Y-74750000D03*
X97750000Y-189500000D03*
%TO.N,TDI*%
X97894380Y-221394380D03*
X98813620Y-222313620D03*
%TO.N,GD_A*%
X90051003Y-81500000D03*
X89500000Y-183500000D03*
%TO.N,GD_DIS*%
X97500000Y-188449997D03*
X157000000Y-74750000D03*
X90500000Y-183300003D03*
X91000000Y-81500000D03*
%TO.N,+15V*%
X159655000Y-73000000D03*
X89501000Y-177978498D03*
X89251000Y-81500000D03*
X99750000Y-187250000D03*
%TO.N,CTI+*%
X94670000Y-51000000D03*
X94670000Y-51670000D03*
X112750000Y-164250000D03*
%TO.N,CTI-*%
X99750000Y-51750000D03*
X99750000Y-51000000D03*
X113750000Y-163551530D03*
%TO.N,FAN*%
X104000000Y-222500000D03*
X158500000Y-25750000D03*
%TO.N,Net-(J5-Pin_1)*%
X97250000Y-34000000D03*
X92000000Y-44250000D03*
X98750000Y-43250000D03*
X93500000Y-34000000D03*
X92750000Y-46500000D03*
X94250000Y-44250000D03*
X94250000Y-38000000D03*
X98000000Y-45750000D03*
X99500000Y-39500000D03*
X92000000Y-46500000D03*
X91250000Y-44250000D03*
X96500000Y-34750000D03*
X98750000Y-35500000D03*
X97250000Y-42500000D03*
X99500000Y-45750000D03*
X96500000Y-41750000D03*
X91250000Y-35500000D03*
X90500000Y-34000000D03*
X95000000Y-38750000D03*
X95750000Y-42500000D03*
X95000000Y-34000000D03*
X99500000Y-34000000D03*
X94250000Y-45000000D03*
X98750000Y-41000000D03*
X98000000Y-37250000D03*
X91250000Y-34000000D03*
X99500000Y-44250000D03*
X95750000Y-44250000D03*
X92000000Y-34750000D03*
X98000000Y-46500000D03*
X99500000Y-37250000D03*
X96500000Y-38000000D03*
X92750000Y-34000000D03*
X98000000Y-35500000D03*
X95750000Y-38000000D03*
X98750000Y-46500000D03*
X96500000Y-42500000D03*
X99500000Y-41000000D03*
X95750000Y-34000000D03*
X90500000Y-46500000D03*
X98750000Y-37250000D03*
X97250000Y-38750000D03*
X94250000Y-41750000D03*
X99500000Y-38750000D03*
X91250000Y-45000000D03*
X92000000Y-34000000D03*
X95000000Y-35500000D03*
X95000000Y-43250000D03*
X94250000Y-45750000D03*
X96500000Y-46500000D03*
X95750000Y-37250000D03*
X98000000Y-42500000D03*
X94250000Y-46500000D03*
X94250000Y-39500000D03*
X90500000Y-44250000D03*
X98750000Y-45000000D03*
X96500000Y-40250000D03*
X96500000Y-38750000D03*
X98000000Y-38000000D03*
X92750000Y-45750000D03*
X97250000Y-45000000D03*
X95000000Y-45750000D03*
X98000000Y-43250000D03*
X98000000Y-39500000D03*
X98750000Y-34750000D03*
X98000000Y-40250000D03*
X97250000Y-41750000D03*
X96500000Y-39500000D03*
X99500000Y-41750000D03*
X90500000Y-35500000D03*
X97250000Y-44250000D03*
X98750000Y-44250000D03*
X95000000Y-37250000D03*
X92000000Y-45000000D03*
X92750000Y-34750000D03*
X95000000Y-45000000D03*
X99500000Y-40250000D03*
X95750000Y-43250000D03*
X97250000Y-46500000D03*
X92750000Y-44250000D03*
X99500000Y-36250000D03*
X99500000Y-43250000D03*
X95750000Y-34750000D03*
X96500000Y-35500000D03*
X92750000Y-36250000D03*
X98000000Y-44250000D03*
X99500000Y-34750000D03*
X99500000Y-42500000D03*
X95750000Y-45000000D03*
X92750000Y-45000000D03*
X98750000Y-36250000D03*
X96500000Y-43250000D03*
X92000000Y-36250000D03*
X98000000Y-41000000D03*
X92750000Y-35500000D03*
X98000000Y-38750000D03*
X94250000Y-34000000D03*
X99500000Y-46500000D03*
X94250000Y-36250000D03*
X98750000Y-40250000D03*
X92000000Y-45750000D03*
X98000000Y-36250000D03*
X94250000Y-38750000D03*
X98750000Y-34000000D03*
X97250000Y-34750000D03*
X97250000Y-41000000D03*
X98750000Y-38000000D03*
X91250000Y-46500000D03*
X97250000Y-38000000D03*
X92000000Y-35500000D03*
X97250000Y-35500000D03*
X97250000Y-43250000D03*
X98750000Y-41750000D03*
X95750000Y-41000000D03*
X93500000Y-36250000D03*
X98000000Y-34000000D03*
X95000000Y-40250000D03*
X98000000Y-41750000D03*
X93500000Y-45750000D03*
X95000000Y-41750000D03*
X95750000Y-46500000D03*
X91250000Y-45750000D03*
X96500000Y-45750000D03*
X98750000Y-39500000D03*
X99500000Y-35500000D03*
X97250000Y-45750000D03*
X94250000Y-34750000D03*
X93500000Y-46500000D03*
X90500000Y-34750000D03*
X95000000Y-41000000D03*
X99500000Y-45000000D03*
X95750000Y-40250000D03*
X93500000Y-34750000D03*
X94250000Y-43250000D03*
X91250000Y-34750000D03*
X94250000Y-37250000D03*
X95750000Y-41750000D03*
X94250000Y-41000000D03*
X94250000Y-42500000D03*
X95000000Y-42500000D03*
X95750000Y-38750000D03*
X95000000Y-36250000D03*
X95000000Y-38000000D03*
X98750000Y-38750000D03*
X97250000Y-40250000D03*
X97250000Y-39500000D03*
X96500000Y-34000000D03*
X97250000Y-36250000D03*
X95000000Y-34750000D03*
X96500000Y-37250000D03*
X91250000Y-36250000D03*
X96500000Y-41000000D03*
X94250000Y-40250000D03*
X98000000Y-34750000D03*
X93500000Y-45000000D03*
X96500000Y-36250000D03*
X90500000Y-45750000D03*
X94250000Y-35500000D03*
X95750000Y-35500000D03*
X95000000Y-46500000D03*
X95000000Y-39500000D03*
X96500000Y-44250000D03*
X90500000Y-45000000D03*
X95750000Y-45750000D03*
X98000000Y-45000000D03*
X95000000Y-44250000D03*
X97250000Y-37250000D03*
X98750000Y-42500000D03*
X90500000Y-36250000D03*
X93500000Y-35500000D03*
X93500000Y-44250000D03*
X95750000Y-39500000D03*
X95750000Y-36250000D03*
X96500000Y-45000000D03*
X98750000Y-45750000D03*
X99500000Y-38000000D03*
%TO.N,Net-(U6-V_{OUT})*%
X115000000Y-216500000D03*
X162298000Y-211953945D03*
%TD*%
D40*
%TO.N,GND*%
X157450000Y-33300000D02*
X149950000Y-33300000D01*
X163004318Y-50254318D02*
X154959636Y-58299000D01*
X115049000Y-223049000D02*
X113500000Y-221500000D01*
X163048000Y-215460636D02*
X155459636Y-223049000D01*
X163000000Y-50250000D02*
X163004318Y-50254318D01*
X161900000Y-32400000D02*
X163000000Y-33500000D01*
X154549000Y-63540364D02*
X154959636Y-63951000D01*
X154549000Y-59290364D02*
X154549000Y-62959636D01*
X161815687Y-211315687D02*
X158649374Y-214482000D01*
X154959636Y-58299000D02*
X154549000Y-58709636D01*
X154549000Y-62959636D02*
X154549000Y-63540364D01*
X163048000Y-72039364D02*
X163048000Y-215460636D01*
X154959636Y-63951000D02*
X163048000Y-72039364D01*
X132749272Y-214482000D02*
X123750512Y-205483240D01*
X158350000Y-32400000D02*
X161900000Y-32400000D01*
D41*
X157500000Y-133750000D02*
X138250000Y-133750000D01*
D40*
X154549000Y-58709636D02*
X154549000Y-59290364D01*
X158649374Y-214482000D02*
X132749272Y-214482000D01*
X118750000Y-161750000D02*
X127500000Y-161750000D01*
X123750512Y-205483240D02*
X110000000Y-205483240D01*
X158350000Y-32400000D02*
X157450000Y-33300000D01*
X163000000Y-33500000D02*
X163000000Y-50250000D01*
X155459636Y-223049000D02*
X115049000Y-223049000D01*
D41*
%TO.N,+3V3*%
X103334620Y-225915380D02*
X101584620Y-225915380D01*
D40*
X158219000Y-213781000D02*
X161250000Y-210750000D01*
D41*
X91000000Y-210151000D02*
X91000000Y-206250000D01*
X91000000Y-211250000D02*
X89500000Y-212750000D01*
D40*
X133039636Y-213781000D02*
X158219000Y-213781000D01*
X110000000Y-192783240D02*
X112041876Y-192783240D01*
X119004318Y-199745682D02*
X133039636Y-213781000D01*
D41*
X90500000Y-220500000D02*
X91750000Y-221750000D01*
D40*
X112041876Y-192783240D02*
X119004318Y-199745682D01*
D41*
X101584620Y-225915380D02*
X98500000Y-229000000D01*
X91750000Y-221750000D02*
X93500000Y-221750000D01*
X98500000Y-229000000D02*
X98500000Y-230750000D01*
X91000000Y-210151000D02*
X91000000Y-211250000D01*
D40*
%TO.N,+12V*%
X156000000Y-36750000D02*
X159250000Y-36750000D01*
X106750000Y-190250000D02*
X106751000Y-190249000D01*
X158320000Y-212180000D02*
X136625000Y-212180000D01*
X106751000Y-190249000D02*
X110499000Y-190249000D01*
X155457595Y-35744418D02*
X155457595Y-36207595D01*
X155500000Y-36250000D02*
X156000000Y-36750000D01*
X153848000Y-58419272D02*
X153848000Y-63830728D01*
X162299000Y-49968272D02*
X153848000Y-58419272D01*
X162347000Y-72329728D02*
X162347000Y-208153000D01*
X159250000Y-36750000D02*
X161250000Y-36750000D01*
X162299000Y-37799000D02*
X162299000Y-38000000D01*
X162347000Y-208153000D02*
X158320000Y-212180000D01*
X162299000Y-38000000D02*
X162299000Y-40250000D01*
X132430000Y-212180000D02*
X136625000Y-212180000D01*
X153848000Y-63830728D02*
X162347000Y-72329728D01*
X104250000Y-190250000D02*
X106750000Y-190250000D01*
X110499000Y-190249000D02*
X132430000Y-212180000D01*
X162299000Y-40250000D02*
X162299000Y-49968272D01*
X161250000Y-36750000D02*
X162299000Y-37799000D01*
X155457595Y-36207595D02*
X155500000Y-36250000D01*
X103750000Y-190750000D02*
X104250000Y-190250000D01*
D41*
%TO.N,VBUS*%
X145920000Y-116170000D02*
X142750000Y-113000000D01*
X157500000Y-116170000D02*
X145920000Y-116170000D01*
D40*
X122500000Y-183750000D02*
X127500000Y-178750000D01*
X118750000Y-183750000D02*
X122500000Y-183750000D01*
D42*
%TO.N,NRST*%
X99750000Y-222250000D02*
X99750000Y-217750000D01*
D40*
%TO.N,GD_B*%
X156146000Y-200500000D02*
X161646000Y-195000000D01*
X161646000Y-74646000D02*
X160999000Y-73999000D01*
X121750000Y-200500000D02*
X156146000Y-200500000D01*
X160999000Y-73999000D02*
X156501000Y-73999000D01*
X161646000Y-195000000D02*
X161646000Y-74646000D01*
X110750000Y-189500000D02*
X121750000Y-200500000D01*
X156501000Y-73999000D02*
X155750000Y-74750000D01*
X97750000Y-189500000D02*
X110750000Y-189500000D01*
D42*
%TO.N,TDI*%
X98813620Y-222313620D02*
X97894380Y-221394380D01*
D40*
%TO.N,GD_A*%
X90245682Y-108995682D02*
X90201000Y-109040364D01*
X90251000Y-178499000D02*
X89625000Y-179125000D01*
X92750000Y-94508636D02*
X92750000Y-101000000D01*
X92750000Y-101000000D02*
X92750000Y-106491364D01*
X90201000Y-113250000D02*
X90201000Y-172500000D01*
X90201000Y-172500000D02*
X90251000Y-172550000D01*
X90051003Y-91809639D02*
X91370682Y-93129318D01*
X90201000Y-109040364D02*
X90201000Y-113250000D01*
X90251000Y-172550000D02*
X90251000Y-178499000D01*
X89500000Y-182250000D02*
X89500000Y-183500000D01*
X89625000Y-179125000D02*
X89500000Y-179250000D01*
X90051003Y-81500000D02*
X90051003Y-91809639D01*
X91370682Y-93129318D02*
X92750000Y-94508636D01*
X92750000Y-106491364D02*
X90245682Y-108995682D01*
X89500000Y-179250000D02*
X89500000Y-182250000D01*
%TO.N,GD_DIS*%
X122040364Y-199799000D02*
X110691361Y-188449997D01*
X91000000Y-91767272D02*
X91000000Y-81500000D01*
X93451000Y-94218272D02*
X91000000Y-91767272D01*
X90952000Y-171300000D02*
X90902000Y-171250000D01*
X90902000Y-171250000D02*
X90902000Y-109330728D01*
X155855636Y-199799000D02*
X122040364Y-199799000D01*
X157000000Y-74750000D02*
X160195000Y-74750000D01*
X93451000Y-106781728D02*
X93451000Y-94218272D01*
X90500000Y-183300003D02*
X90500000Y-179250000D01*
X160945000Y-194709636D02*
X155855636Y-199799000D01*
X110691361Y-188449997D02*
X97500000Y-188449997D01*
X90500000Y-179250000D02*
X90952000Y-178798000D01*
X160945000Y-75500000D02*
X160945000Y-194709636D01*
X90902000Y-109330728D02*
X93451000Y-106781728D01*
X90952000Y-178798000D02*
X90952000Y-171300000D01*
X160195000Y-74750000D02*
X160945000Y-75500000D01*
%TO.N,+15V*%
X155000000Y-74437925D02*
X155000000Y-75250000D01*
X160244000Y-76494000D02*
X160244000Y-194419272D01*
X122348000Y-199098000D02*
X110500000Y-187250000D01*
X155500000Y-75750000D02*
X159500000Y-75750000D01*
X110500000Y-187250000D02*
X99750000Y-187250000D01*
X89251000Y-92001000D02*
X89251000Y-81500000D01*
X156437925Y-73000000D02*
X155000000Y-74437925D01*
X89500000Y-177977498D02*
X89500000Y-108750000D01*
X155000000Y-75250000D02*
X155500000Y-75750000D01*
X92049000Y-106201000D02*
X92049000Y-94799000D01*
X92049000Y-94799000D02*
X89251000Y-92001000D01*
X160244000Y-194419272D02*
X155565272Y-199098000D01*
X89500000Y-108750000D02*
X92049000Y-106201000D01*
X159655000Y-73000000D02*
X156437925Y-73000000D01*
X155565272Y-199098000D02*
X122348000Y-199098000D01*
X89501000Y-177978498D02*
X89500000Y-177977498D01*
X159500000Y-75750000D02*
X160244000Y-76494000D01*
D41*
%TO.N,CTI+*%
X98549000Y-157497470D02*
X104051530Y-163000000D01*
X98549000Y-55549000D02*
X98549000Y-157497470D01*
X94670000Y-51000000D02*
X94670000Y-51670000D01*
X104051530Y-163000000D02*
X111500001Y-163000001D01*
X111500001Y-163000001D02*
X112750000Y-164250000D01*
X94670000Y-51670000D02*
X98549000Y-55549000D01*
%TO.N,CTI-*%
X111997471Y-161799001D02*
X113750000Y-163551530D01*
X99750000Y-51750000D02*
X99750000Y-51000000D01*
X104549000Y-161799000D02*
X111997471Y-161799001D01*
X99750000Y-157000000D02*
X104549000Y-161799000D01*
X99750000Y-51750000D02*
X99750000Y-157000000D01*
D40*
%TO.N,FAN*%
X104000000Y-222500000D02*
X105250000Y-223750000D01*
X155250000Y-63250000D02*
X155250000Y-59000000D01*
X105250000Y-223750000D02*
X155750000Y-223750000D01*
X163749000Y-50501000D02*
X163749000Y-30999000D01*
X163749000Y-215751000D02*
X163749000Y-71749000D01*
X155750000Y-223750000D02*
X163749000Y-215751000D01*
X163749000Y-30999000D02*
X158500000Y-25750000D01*
X155250000Y-59000000D02*
X163749000Y-50501000D01*
X163749000Y-71749000D02*
X155250000Y-63250000D01*
%TO.N,Net-(U6-V_{OUT})*%
X116250000Y-215250000D02*
X159001945Y-215250000D01*
X115000000Y-216500000D02*
X116250000Y-215250000D01*
X159001945Y-215250000D02*
X162298000Y-211953945D01*
D41*
%TO.N,Net-(NE1-Pad1)*%
X157500000Y-130750000D02*
X157500000Y-126330000D01*
%TD*%
%TA.AperFunction,Conductor*%
%TO.N,SW1*%
G36*
X110943039Y-36519685D02*
G01*
X110988794Y-36572489D01*
X111000000Y-36624000D01*
X111000000Y-43075121D01*
X110980315Y-43142160D01*
X110927511Y-43187915D01*
X110858353Y-43197859D01*
X110797335Y-43170974D01*
X110587765Y-42998985D01*
X110587764Y-42998984D01*
X110587760Y-42998981D01*
X110301787Y-42807900D01*
X110301782Y-42807897D01*
X110301775Y-42807893D01*
X109998469Y-42645772D01*
X109998464Y-42645770D01*
X109680706Y-42514150D01*
X109351572Y-42414308D01*
X109014248Y-42347210D01*
X109014249Y-42347210D01*
X108756456Y-42321821D01*
X108671969Y-42313500D01*
X108328031Y-42313500D01*
X108249966Y-42321188D01*
X107985750Y-42347210D01*
X107648427Y-42414308D01*
X107319293Y-42514150D01*
X107001535Y-42645770D01*
X107001530Y-42645772D01*
X106698224Y-42807893D01*
X106698206Y-42807904D01*
X106412248Y-42998975D01*
X106412234Y-42998985D01*
X106146367Y-43217176D01*
X105903176Y-43460367D01*
X105684985Y-43726234D01*
X105684975Y-43726248D01*
X105493904Y-44012206D01*
X105493893Y-44012224D01*
X105331772Y-44315530D01*
X105331770Y-44315535D01*
X105200150Y-44633293D01*
X105100308Y-44962427D01*
X105033210Y-45299750D01*
X104999500Y-45642034D01*
X104999500Y-45985965D01*
X105033210Y-46328249D01*
X105100308Y-46665572D01*
X105200150Y-46994706D01*
X105331770Y-47312464D01*
X105331772Y-47312469D01*
X105493893Y-47615775D01*
X105493904Y-47615793D01*
X105684975Y-47901751D01*
X105684985Y-47901765D01*
X105903176Y-48167632D01*
X106146367Y-48410823D01*
X106146372Y-48410827D01*
X106146373Y-48410828D01*
X106412240Y-48629019D01*
X106698213Y-48820100D01*
X106698222Y-48820105D01*
X106698224Y-48820106D01*
X107001530Y-48982227D01*
X107001532Y-48982227D01*
X107001538Y-48982231D01*
X107319295Y-49113850D01*
X107648422Y-49213690D01*
X107985750Y-49280789D01*
X108328031Y-49314500D01*
X108328034Y-49314500D01*
X108671966Y-49314500D01*
X108671969Y-49314500D01*
X109014250Y-49280789D01*
X109351578Y-49213690D01*
X109680705Y-49113850D01*
X109998462Y-48982231D01*
X110301787Y-48820100D01*
X110587760Y-48629019D01*
X110791835Y-48461538D01*
X110856145Y-48434226D01*
X110925013Y-48446017D01*
X110976573Y-48493169D01*
X110994500Y-48557392D01*
X110994500Y-97006607D01*
X110974815Y-97073646D01*
X110922011Y-97119401D01*
X110852853Y-97129345D01*
X110791836Y-97102461D01*
X110587763Y-96934983D01*
X110587751Y-96934975D01*
X110301793Y-96743904D01*
X110301792Y-96743903D01*
X110301787Y-96743900D01*
X110301782Y-96743897D01*
X110301775Y-96743893D01*
X109998469Y-96581772D01*
X109998464Y-96581770D01*
X109680706Y-96450150D01*
X109351572Y-96350308D01*
X109014248Y-96283210D01*
X109014249Y-96283210D01*
X108756456Y-96257821D01*
X108671969Y-96249500D01*
X108328031Y-96249500D01*
X108249966Y-96257188D01*
X107985750Y-96283210D01*
X107648427Y-96350308D01*
X107319293Y-96450150D01*
X107001535Y-96581770D01*
X107001530Y-96581772D01*
X106698224Y-96743893D01*
X106698206Y-96743904D01*
X106412248Y-96934975D01*
X106412234Y-96934985D01*
X106146367Y-97153176D01*
X105903176Y-97396367D01*
X105684985Y-97662234D01*
X105684975Y-97662248D01*
X105493904Y-97948206D01*
X105493893Y-97948224D01*
X105331772Y-98251530D01*
X105331770Y-98251535D01*
X105200150Y-98569293D01*
X105100308Y-98898427D01*
X105033210Y-99235750D01*
X104999500Y-99578034D01*
X104999500Y-99921965D01*
X105033210Y-100264249D01*
X105100308Y-100601572D01*
X105200150Y-100930706D01*
X105331770Y-101248464D01*
X105331772Y-101248469D01*
X105493893Y-101551775D01*
X105493907Y-101551799D01*
X105497457Y-101557111D01*
X105518334Y-101623789D01*
X105499848Y-101691169D01*
X105447868Y-101737858D01*
X105394354Y-101750000D01*
X101874500Y-101750000D01*
X101807461Y-101730315D01*
X101761706Y-101677511D01*
X101750500Y-101626000D01*
X101750500Y-92166308D01*
X101770185Y-92099269D01*
X101822989Y-92053514D01*
X101874500Y-92042308D01*
X102559513Y-92042308D01*
X102600467Y-92049265D01*
X102737364Y-92097168D01*
X103038548Y-92165911D01*
X103038554Y-92165911D01*
X103038562Y-92165913D01*
X103243206Y-92188970D01*
X103345529Y-92200499D01*
X103345532Y-92200500D01*
X103345535Y-92200500D01*
X105654468Y-92200500D01*
X105654469Y-92200499D01*
X105811356Y-92182822D01*
X105961437Y-92165913D01*
X105961442Y-92165912D01*
X105961452Y-92165911D01*
X106262636Y-92097168D01*
X106554229Y-91995135D01*
X106832565Y-91861095D01*
X107094143Y-91696735D01*
X107335674Y-91504120D01*
X107554120Y-91285674D01*
X107746735Y-91044143D01*
X107911095Y-90782565D01*
X108045135Y-90504229D01*
X108147168Y-90212636D01*
X108215911Y-89911452D01*
X108250500Y-89604465D01*
X108250500Y-89295535D01*
X108215911Y-88988548D01*
X108147168Y-88687364D01*
X108045135Y-88395771D01*
X107911095Y-88117435D01*
X107746735Y-87855857D01*
X107554120Y-87614326D01*
X107335674Y-87395880D01*
X107094143Y-87203265D01*
X106832565Y-87038905D01*
X106832562Y-87038903D01*
X106554236Y-86904868D01*
X106554222Y-86904862D01*
X106262647Y-86802835D01*
X106262635Y-86802831D01*
X105961455Y-86734089D01*
X105961437Y-86734086D01*
X105654471Y-86699500D01*
X105654465Y-86699500D01*
X103345535Y-86699500D01*
X103345528Y-86699500D01*
X103038562Y-86734086D01*
X103038544Y-86734089D01*
X102982458Y-86746891D01*
X102954866Y-86750000D01*
X101874500Y-86750000D01*
X101807461Y-86730315D01*
X101761706Y-86677511D01*
X101750500Y-86626000D01*
X101750500Y-81381092D01*
X101770185Y-81314053D01*
X101822989Y-81268298D01*
X101892147Y-81258354D01*
X101899903Y-81259723D01*
X102063763Y-81294081D01*
X102167158Y-81300500D01*
X102167169Y-81300500D01*
X106832831Y-81300500D01*
X106832842Y-81300500D01*
X106936237Y-81294081D01*
X107179614Y-81243050D01*
X107179621Y-81243046D01*
X107179625Y-81243046D01*
X107258980Y-81212080D01*
X107411273Y-81152656D01*
X107624894Y-81025366D01*
X107624898Y-81025361D01*
X107624902Y-81025360D01*
X107814649Y-80864651D01*
X107814651Y-80864649D01*
X107975360Y-80674902D01*
X107975361Y-80674898D01*
X107975366Y-80674894D01*
X108102656Y-80461273D01*
X108193050Y-80229614D01*
X108244081Y-79986237D01*
X108250500Y-79882842D01*
X108250500Y-77217158D01*
X108244081Y-77113763D01*
X108193050Y-76870386D01*
X108193048Y-76870381D01*
X108193046Y-76870374D01*
X108102657Y-76638730D01*
X108102656Y-76638727D01*
X107975366Y-76425106D01*
X107975363Y-76425103D01*
X107975360Y-76425097D01*
X107814651Y-76235350D01*
X107814649Y-76235348D01*
X107624902Y-76074639D01*
X107624894Y-76074634D01*
X107411273Y-75947344D01*
X107411271Y-75947343D01*
X107411269Y-75947342D01*
X107179625Y-75856953D01*
X107179615Y-75856950D01*
X106936238Y-75805919D01*
X106936235Y-75805918D01*
X106832850Y-75799500D01*
X106832842Y-75799500D01*
X102167158Y-75799500D01*
X102167149Y-75799500D01*
X102063764Y-75805918D01*
X102063760Y-75805919D01*
X101947315Y-75830335D01*
X101899946Y-75840267D01*
X101830295Y-75834760D01*
X101774677Y-75792470D01*
X101750753Y-75726824D01*
X101750500Y-75718907D01*
X101750500Y-63673479D01*
X101770185Y-63606440D01*
X101822989Y-63560685D01*
X101892147Y-63550741D01*
X101940472Y-63568485D01*
X102167435Y-63711095D01*
X102445771Y-63845135D01*
X102445777Y-63845137D01*
X102737352Y-63947164D01*
X102737364Y-63947168D01*
X103038548Y-64015911D01*
X103038554Y-64015911D01*
X103038562Y-64015913D01*
X103243206Y-64038970D01*
X103345529Y-64050499D01*
X103345532Y-64050500D01*
X103345535Y-64050500D01*
X105654468Y-64050500D01*
X105654469Y-64050499D01*
X105811356Y-64032822D01*
X105961437Y-64015913D01*
X105961442Y-64015912D01*
X105961452Y-64015911D01*
X106262636Y-63947168D01*
X106554229Y-63845135D01*
X106832565Y-63711095D01*
X107094143Y-63546735D01*
X107335674Y-63354120D01*
X107554120Y-63135674D01*
X107746735Y-62894143D01*
X107911095Y-62632565D01*
X108045135Y-62354229D01*
X108147168Y-62062636D01*
X108215911Y-61761452D01*
X108250500Y-61454465D01*
X108250500Y-61145535D01*
X108250500Y-61145534D01*
X108250305Y-61142061D01*
X108250444Y-61142053D01*
X108250000Y-61134134D01*
X108250000Y-57194744D01*
X108250238Y-57187061D01*
X108250500Y-57182842D01*
X108250500Y-54517158D01*
X108244081Y-54413763D01*
X108193050Y-54170386D01*
X108193048Y-54170381D01*
X108193046Y-54170374D01*
X108102657Y-53938730D01*
X108102656Y-53938727D01*
X107975366Y-53725106D01*
X107975363Y-53725103D01*
X107975360Y-53725097D01*
X107814651Y-53535350D01*
X107814649Y-53535348D01*
X107624902Y-53374639D01*
X107624894Y-53374634D01*
X107411273Y-53247344D01*
X107411271Y-53247343D01*
X107411269Y-53247342D01*
X107179625Y-53156953D01*
X107179615Y-53156950D01*
X106936238Y-53105919D01*
X106936235Y-53105918D01*
X106832850Y-53099500D01*
X106832842Y-53099500D01*
X102167158Y-53099500D01*
X102167149Y-53099500D01*
X102063764Y-53105918D01*
X102063760Y-53105919D01*
X101947315Y-53130335D01*
X101899946Y-53140267D01*
X101830295Y-53134760D01*
X101774677Y-53092470D01*
X101750753Y-53026824D01*
X101750500Y-53018907D01*
X101750500Y-50868886D01*
X101750265Y-50865301D01*
X101750000Y-50857192D01*
X101750000Y-36624000D01*
X101769685Y-36556961D01*
X101822489Y-36511206D01*
X101874000Y-36500000D01*
X110876000Y-36500000D01*
X110943039Y-36519685D01*
G37*
%TD.AperFunction*%
%TD*%
%TA.AperFunction,Conductor*%
%TO.N,SW2*%
G36*
X153000000Y-56749999D02*
G01*
X152990561Y-56772788D01*
X152990478Y-56772753D01*
X152980315Y-56807367D01*
X152963681Y-56828009D01*
X152529084Y-57262605D01*
X152529078Y-57262612D01*
X152459235Y-57353635D01*
X152427670Y-57394771D01*
X152389385Y-57444664D01*
X152274657Y-57643380D01*
X152274650Y-57643395D01*
X152186842Y-57855384D01*
X152186842Y-57855385D01*
X152134603Y-58050348D01*
X152127453Y-58077031D01*
X152127451Y-58077042D01*
X152097500Y-58304530D01*
X152097500Y-63945455D01*
X152097501Y-63945471D01*
X152113334Y-64065734D01*
X152119991Y-64116297D01*
X152127452Y-64172967D01*
X152133122Y-64194126D01*
X152165845Y-64316251D01*
X152186843Y-64394617D01*
X152186845Y-64394624D01*
X152274652Y-64606609D01*
X152274657Y-64606619D01*
X152389388Y-64805339D01*
X152444568Y-64877252D01*
X152444573Y-64877257D01*
X152529078Y-64987387D01*
X152529084Y-64987394D01*
X152963681Y-65421990D01*
X152997166Y-65483313D01*
X153000000Y-65509671D01*
X153000000Y-101626000D01*
X152980315Y-101693039D01*
X152927511Y-101738794D01*
X152876000Y-101750000D01*
X146305646Y-101750000D01*
X146238607Y-101730315D01*
X146192852Y-101677511D01*
X146182908Y-101608353D01*
X146202543Y-101557111D01*
X146206092Y-101551799D01*
X146206092Y-101551798D01*
X146206100Y-101551787D01*
X146368231Y-101248462D01*
X146499850Y-100930705D01*
X146599690Y-100601578D01*
X146666789Y-100264250D01*
X146700500Y-99921969D01*
X146700500Y-99578031D01*
X146666789Y-99235750D01*
X146599690Y-98898422D01*
X146499850Y-98569295D01*
X146368231Y-98251538D01*
X146206100Y-97948213D01*
X146015019Y-97662240D01*
X145796828Y-97396373D01*
X145796827Y-97396372D01*
X145796823Y-97396367D01*
X145553632Y-97153176D01*
X145287765Y-96934985D01*
X145287762Y-96934983D01*
X145287760Y-96934981D01*
X145001787Y-96743900D01*
X145001782Y-96743897D01*
X145001775Y-96743893D01*
X144698469Y-96581772D01*
X144698464Y-96581770D01*
X144380706Y-96450150D01*
X144051572Y-96350308D01*
X143714248Y-96283210D01*
X143714249Y-96283210D01*
X143456456Y-96257821D01*
X143371969Y-96249500D01*
X143028031Y-96249500D01*
X142949966Y-96257188D01*
X142685750Y-96283210D01*
X142348427Y-96350308D01*
X142019293Y-96450150D01*
X141701535Y-96581770D01*
X141701530Y-96581772D01*
X141398224Y-96743893D01*
X141398206Y-96743904D01*
X141112248Y-96934975D01*
X141112236Y-96934983D01*
X140958164Y-97061427D01*
X140893854Y-97088739D01*
X140824987Y-97076948D01*
X140773427Y-97029795D01*
X140755500Y-96965573D01*
X140755500Y-88317149D01*
X143499500Y-88317149D01*
X143499500Y-90982850D01*
X143505918Y-91086235D01*
X143505919Y-91086238D01*
X143556950Y-91329615D01*
X143556953Y-91329625D01*
X143647342Y-91561269D01*
X143774639Y-91774902D01*
X143935348Y-91964649D01*
X143935350Y-91964651D01*
X144125097Y-92125360D01*
X144125103Y-92125363D01*
X144125106Y-92125366D01*
X144338727Y-92252656D01*
X144338730Y-92252657D01*
X144570374Y-92343046D01*
X144570381Y-92343048D01*
X144570386Y-92343050D01*
X144813763Y-92394081D01*
X144917158Y-92400500D01*
X144917169Y-92400500D01*
X149582831Y-92400500D01*
X149582842Y-92400500D01*
X149686237Y-92394081D01*
X149929614Y-92343050D01*
X149929621Y-92343046D01*
X149929625Y-92343046D01*
X150008980Y-92312080D01*
X150161273Y-92252656D01*
X150374894Y-92125366D01*
X150374898Y-92125361D01*
X150374902Y-92125360D01*
X150564649Y-91964651D01*
X150564651Y-91964649D01*
X150725360Y-91774902D01*
X150725361Y-91774898D01*
X150725366Y-91774894D01*
X150852656Y-91561273D01*
X150943050Y-91329614D01*
X150994081Y-91086237D01*
X151000500Y-90982842D01*
X151000500Y-88317158D01*
X150994081Y-88213763D01*
X150943050Y-87970386D01*
X150943048Y-87970381D01*
X150943046Y-87970374D01*
X150852657Y-87738730D01*
X150852656Y-87738727D01*
X150725366Y-87525106D01*
X150725363Y-87525103D01*
X150725360Y-87525097D01*
X150564651Y-87335350D01*
X150564649Y-87335348D01*
X150374902Y-87174639D01*
X150374894Y-87174634D01*
X150161273Y-87047344D01*
X150161271Y-87047343D01*
X150161269Y-87047342D01*
X149929625Y-86956953D01*
X149929615Y-86956950D01*
X149686238Y-86905919D01*
X149686235Y-86905918D01*
X149582850Y-86899500D01*
X149582842Y-86899500D01*
X144917158Y-86899500D01*
X144917149Y-86899500D01*
X144813764Y-86905918D01*
X144813761Y-86905919D01*
X144570384Y-86956950D01*
X144570374Y-86956953D01*
X144338730Y-87047342D01*
X144125097Y-87174639D01*
X143935350Y-87335348D01*
X143935348Y-87335350D01*
X143774639Y-87525097D01*
X143647342Y-87738730D01*
X143556953Y-87970374D01*
X143556950Y-87970384D01*
X143505919Y-88213761D01*
X143505918Y-88213764D01*
X143499500Y-88317149D01*
X140755500Y-88317149D01*
X140755500Y-78595528D01*
X143499500Y-78595528D01*
X143499500Y-78904471D01*
X143534086Y-79211437D01*
X143534089Y-79211455D01*
X143602831Y-79512635D01*
X143602835Y-79512647D01*
X143704862Y-79804222D01*
X143704868Y-79804236D01*
X143838903Y-80082562D01*
X143838905Y-80082565D01*
X144003265Y-80344143D01*
X144195880Y-80585674D01*
X144414326Y-80804120D01*
X144655857Y-80996735D01*
X144917435Y-81161095D01*
X145195771Y-81295135D01*
X145195777Y-81295137D01*
X145487352Y-81397164D01*
X145487364Y-81397168D01*
X145788548Y-81465911D01*
X145788554Y-81465911D01*
X145788562Y-81465913D01*
X145993206Y-81488970D01*
X146095529Y-81500499D01*
X146095532Y-81500500D01*
X146095535Y-81500500D01*
X148404468Y-81500500D01*
X148404469Y-81500499D01*
X148561356Y-81482822D01*
X148711437Y-81465913D01*
X148711442Y-81465912D01*
X148711452Y-81465911D01*
X149012636Y-81397168D01*
X149304229Y-81295135D01*
X149582565Y-81161095D01*
X149844143Y-80996735D01*
X150085674Y-80804120D01*
X150304120Y-80585674D01*
X150496735Y-80344143D01*
X150661095Y-80082565D01*
X150795135Y-79804229D01*
X150897168Y-79512636D01*
X150965911Y-79211452D01*
X151000500Y-78904465D01*
X151000500Y-78595535D01*
X150965911Y-78288548D01*
X150897168Y-77987364D01*
X150795135Y-77695771D01*
X150661095Y-77417435D01*
X150496735Y-77155857D01*
X150304120Y-76914326D01*
X150085674Y-76695880D01*
X149844143Y-76503265D01*
X149582565Y-76338905D01*
X149582562Y-76338903D01*
X149304236Y-76204868D01*
X149304222Y-76204862D01*
X149012647Y-76102835D01*
X149012635Y-76102831D01*
X148711455Y-76034089D01*
X148711437Y-76034086D01*
X148404471Y-75999500D01*
X148404465Y-75999500D01*
X146095535Y-75999500D01*
X146095528Y-75999500D01*
X145788562Y-76034086D01*
X145788544Y-76034089D01*
X145487364Y-76102831D01*
X145487352Y-76102835D01*
X145195777Y-76204862D01*
X145195763Y-76204868D01*
X144917437Y-76338903D01*
X144655858Y-76503264D01*
X144414326Y-76695879D01*
X144195879Y-76914326D01*
X144003264Y-77155858D01*
X143838903Y-77417437D01*
X143704868Y-77695763D01*
X143704862Y-77695777D01*
X143602835Y-77987352D01*
X143602831Y-77987364D01*
X143534089Y-78288544D01*
X143534086Y-78288562D01*
X143499500Y-78595528D01*
X140755500Y-78595528D01*
X140755500Y-61295535D01*
X143499500Y-61295535D01*
X143499500Y-61295969D01*
X143499500Y-61604470D01*
X143499695Y-61607944D01*
X143499554Y-61607951D01*
X143500000Y-61615868D01*
X143500000Y-65555256D01*
X143499762Y-65562938D01*
X143499500Y-65567147D01*
X143499500Y-68232850D01*
X143505918Y-68336235D01*
X143505919Y-68336238D01*
X143556950Y-68579615D01*
X143556953Y-68579625D01*
X143647342Y-68811269D01*
X143774639Y-69024902D01*
X143935348Y-69214649D01*
X143935350Y-69214651D01*
X144125097Y-69375360D01*
X144125103Y-69375363D01*
X144125106Y-69375366D01*
X144338727Y-69502656D01*
X144338730Y-69502657D01*
X144570374Y-69593046D01*
X144570381Y-69593048D01*
X144570386Y-69593050D01*
X144813763Y-69644081D01*
X144917158Y-69650500D01*
X144917169Y-69650500D01*
X149582831Y-69650500D01*
X149582842Y-69650500D01*
X149686237Y-69644081D01*
X149929614Y-69593050D01*
X149929621Y-69593046D01*
X149929625Y-69593046D01*
X150008980Y-69562080D01*
X150161273Y-69502656D01*
X150374894Y-69375366D01*
X150374898Y-69375361D01*
X150374902Y-69375360D01*
X150564649Y-69214651D01*
X150564651Y-69214649D01*
X150725360Y-69024902D01*
X150725361Y-69024898D01*
X150725366Y-69024894D01*
X150852656Y-68811273D01*
X150943050Y-68579614D01*
X150994081Y-68336237D01*
X151000500Y-68232842D01*
X151000500Y-65567158D01*
X151000238Y-65562937D01*
X151000000Y-65555255D01*
X151000000Y-61615868D01*
X151000445Y-61607951D01*
X151000305Y-61607944D01*
X151000500Y-61604470D01*
X151000500Y-61295532D01*
X151000499Y-61295528D01*
X151000095Y-61291945D01*
X150988970Y-61193206D01*
X150965913Y-60988562D01*
X150965910Y-60988544D01*
X150897168Y-60687364D01*
X150897164Y-60687352D01*
X150795137Y-60395777D01*
X150795135Y-60395771D01*
X150661095Y-60117435D01*
X150496735Y-59855857D01*
X150304120Y-59614326D01*
X150085674Y-59395880D01*
X149844143Y-59203265D01*
X149582565Y-59038905D01*
X149582562Y-59038903D01*
X149304236Y-58904868D01*
X149304222Y-58904862D01*
X149012647Y-58802835D01*
X149012635Y-58802831D01*
X148711455Y-58734089D01*
X148711437Y-58734086D01*
X148404471Y-58699500D01*
X148404465Y-58699500D01*
X146095535Y-58699500D01*
X146095528Y-58699500D01*
X145788562Y-58734086D01*
X145788544Y-58734089D01*
X145487364Y-58802831D01*
X145487352Y-58802835D01*
X145195777Y-58904862D01*
X145195763Y-58904868D01*
X144917437Y-59038903D01*
X144655858Y-59203264D01*
X144414326Y-59395879D01*
X144195879Y-59614326D01*
X144003264Y-59855858D01*
X143838903Y-60117437D01*
X143704868Y-60395763D01*
X143704862Y-60395777D01*
X143602835Y-60687352D01*
X143602831Y-60687364D01*
X143534089Y-60988544D01*
X143534087Y-60988560D01*
X143513746Y-61169093D01*
X143500000Y-61201806D01*
X143500000Y-61284134D01*
X143499640Y-61290529D01*
X143499754Y-61291945D01*
X143499562Y-61294982D01*
X143499500Y-61295535D01*
X140755500Y-61295535D01*
X140755500Y-48598426D01*
X140775185Y-48531387D01*
X140827989Y-48485632D01*
X140897147Y-48475688D01*
X140958164Y-48502572D01*
X141112240Y-48629019D01*
X141398213Y-48820100D01*
X141398222Y-48820105D01*
X141398224Y-48820106D01*
X141701530Y-48982227D01*
X141701532Y-48982227D01*
X141701538Y-48982231D01*
X142019295Y-49113850D01*
X142348422Y-49213690D01*
X142685750Y-49280789D01*
X143028031Y-49314500D01*
X143028034Y-49314500D01*
X143371966Y-49314500D01*
X143371969Y-49314500D01*
X143714250Y-49280789D01*
X144051578Y-49213690D01*
X144380705Y-49113850D01*
X144698462Y-48982231D01*
X145001787Y-48820100D01*
X145287760Y-48629019D01*
X145553627Y-48410828D01*
X145796828Y-48167627D01*
X146015019Y-47901760D01*
X146206100Y-47615787D01*
X146368231Y-47312462D01*
X146499850Y-46994705D01*
X146599690Y-46665578D01*
X146666789Y-46328250D01*
X146700500Y-45985969D01*
X146700500Y-45642031D01*
X146666789Y-45299750D01*
X146599690Y-44962422D01*
X146499850Y-44633295D01*
X146368231Y-44315538D01*
X146206100Y-44012213D01*
X146159779Y-43942889D01*
X146138902Y-43876214D01*
X146157386Y-43808834D01*
X146209365Y-43762143D01*
X146262882Y-43750000D01*
X153000000Y-43750000D01*
X153000000Y-56749999D01*
G37*
%TD.AperFunction*%
%TD*%
%TA.AperFunction,Conductor*%
%TO.N,GND*%
G36*
X116250000Y-150500000D02*
G01*
X102506093Y-150500000D01*
X102493939Y-150499403D01*
X102317065Y-150481982D01*
X102293224Y-150477240D01*
X102129001Y-150427424D01*
X102106543Y-150418121D01*
X101955201Y-150337227D01*
X101934989Y-150323722D01*
X101802334Y-150214855D01*
X101785141Y-150197661D01*
X101778642Y-150189741D01*
X101751333Y-150125430D01*
X101750500Y-150111082D01*
X101750500Y-145388916D01*
X101770185Y-145321877D01*
X101778639Y-145310261D01*
X101785149Y-145302328D01*
X101802328Y-145285149D01*
X101934995Y-145176272D01*
X101955195Y-145162775D01*
X102106549Y-145081875D01*
X102128994Y-145072577D01*
X102293232Y-145022757D01*
X102317056Y-145018018D01*
X102493939Y-145000597D01*
X102506093Y-145000000D01*
X112500000Y-145000000D01*
X116250000Y-145000000D01*
X116250000Y-150500000D01*
G37*
%TD.AperFunction*%
%TD*%
%TA.AperFunction,Conductor*%
%TO.N,GND*%
G36*
X101902286Y-162269685D02*
G01*
X101922928Y-162286319D01*
X103413745Y-163777137D01*
X103413749Y-163777140D01*
X103577609Y-163886628D01*
X103577615Y-163886631D01*
X103577616Y-163886632D01*
X103759695Y-163962052D01*
X103952985Y-164000500D01*
X103952988Y-164000501D01*
X103952990Y-164000501D01*
X104157667Y-164000501D01*
X104157683Y-164000500D01*
X111034218Y-164000500D01*
X111101257Y-164020185D01*
X111121899Y-164036819D01*
X112112215Y-165027137D01*
X112112219Y-165027140D01*
X112276079Y-165136628D01*
X112276085Y-165136631D01*
X112276086Y-165136632D01*
X112458165Y-165212052D01*
X112651455Y-165250500D01*
X112651458Y-165250501D01*
X112651460Y-165250501D01*
X112848543Y-165250501D01*
X112848544Y-165250500D01*
X113041836Y-165212052D01*
X113223915Y-165136632D01*
X113387782Y-165027140D01*
X113527140Y-164887782D01*
X113636632Y-164723915D01*
X113676122Y-164628578D01*
X113687314Y-164614688D01*
X113694144Y-164598208D01*
X113708783Y-164588047D01*
X113719963Y-164574174D01*
X113736887Y-164568540D01*
X113751543Y-164558369D01*
X113782524Y-164553351D01*
X113786257Y-164552109D01*
X113786278Y-164552108D01*
X113788472Y-164552030D01*
X113848540Y-164552030D01*
X113861611Y-164549429D01*
X113871595Y-164549075D01*
X113896151Y-164555347D01*
X113921395Y-164557605D01*
X113929432Y-164563847D01*
X113939291Y-164566366D01*
X113956556Y-164584916D01*
X113976574Y-164600465D01*
X113979960Y-164610062D01*
X113986893Y-164617511D01*
X113991388Y-164642452D01*
X113999822Y-164666354D01*
X114000000Y-164672997D01*
X114000000Y-189389269D01*
X113980315Y-189456308D01*
X113927511Y-189502063D01*
X113858353Y-189512007D01*
X113794797Y-189482982D01*
X113788319Y-189476950D01*
X110978421Y-186667052D01*
X110978414Y-186667046D01*
X110904729Y-186617812D01*
X110904729Y-186617813D01*
X110855491Y-186584913D01*
X110718917Y-186528343D01*
X110718907Y-186528340D01*
X110573920Y-186499500D01*
X110573918Y-186499500D01*
X109671742Y-186499500D01*
X109604703Y-186479815D01*
X109558948Y-186427011D01*
X109549004Y-186357853D01*
X109561257Y-186319205D01*
X109615789Y-186212178D01*
X109674354Y-186031937D01*
X109704000Y-185844762D01*
X109704000Y-185655237D01*
X109674354Y-185468062D01*
X109615789Y-185287821D01*
X109529752Y-185118966D01*
X109510745Y-185092806D01*
X108942137Y-185661413D01*
X108919333Y-185576306D01*
X108860090Y-185473694D01*
X108776306Y-185389910D01*
X108673694Y-185330667D01*
X108588584Y-185307861D01*
X109157193Y-184739253D01*
X109131033Y-184720246D01*
X108962178Y-184634210D01*
X108781937Y-184575645D01*
X108594762Y-184546000D01*
X108405238Y-184546000D01*
X108218062Y-184575645D01*
X108037821Y-184634210D01*
X107868969Y-184720245D01*
X107842806Y-184739253D01*
X108411415Y-185307861D01*
X108326306Y-185330667D01*
X108223694Y-185389910D01*
X108139910Y-185473694D01*
X108080667Y-185576306D01*
X108057861Y-185661414D01*
X107489253Y-185092806D01*
X107470245Y-185118969D01*
X107384210Y-185287821D01*
X107325645Y-185468062D01*
X107296000Y-185655237D01*
X107296000Y-185844762D01*
X107325645Y-186031937D01*
X107384210Y-186212178D01*
X107438743Y-186319205D01*
X107451639Y-186387874D01*
X107425363Y-186452615D01*
X107368256Y-186492872D01*
X107328258Y-186499500D01*
X100054604Y-186499500D01*
X100007155Y-186490062D01*
X99983497Y-186480263D01*
X99983493Y-186480262D01*
X99983488Y-186480260D01*
X99828845Y-186449500D01*
X99828842Y-186449500D01*
X99671158Y-186449500D01*
X99671155Y-186449500D01*
X99516510Y-186480261D01*
X99516498Y-186480264D01*
X99370827Y-186540602D01*
X99370814Y-186540609D01*
X99239711Y-186628210D01*
X99239707Y-186628213D01*
X99128213Y-186739707D01*
X99128210Y-186739711D01*
X99040609Y-186870814D01*
X99040602Y-186870827D01*
X98980264Y-187016498D01*
X98980261Y-187016510D01*
X98949500Y-187171153D01*
X98949500Y-187328846D01*
X98980261Y-187483489D01*
X98980264Y-187483501D01*
X98998715Y-187528045D01*
X99006184Y-187597514D01*
X98974909Y-187659993D01*
X98914820Y-187695645D01*
X98884154Y-187699497D01*
X97804604Y-187699497D01*
X97757155Y-187690059D01*
X97733497Y-187680260D01*
X97733493Y-187680259D01*
X97733488Y-187680257D01*
X97578845Y-187649497D01*
X97578842Y-187649497D01*
X97421158Y-187649497D01*
X97421155Y-187649497D01*
X97266510Y-187680258D01*
X97266498Y-187680261D01*
X97120827Y-187740599D01*
X97120814Y-187740606D01*
X96989711Y-187828207D01*
X96989707Y-187828210D01*
X96878213Y-187939704D01*
X96878210Y-187939708D01*
X96790609Y-188070811D01*
X96790602Y-188070824D01*
X96730264Y-188216495D01*
X96730261Y-188216507D01*
X96699500Y-188371150D01*
X96699500Y-188528843D01*
X96730261Y-188683486D01*
X96730264Y-188683498D01*
X96790602Y-188829169D01*
X96790609Y-188829182D01*
X96878210Y-188960285D01*
X96878213Y-188960289D01*
X96981474Y-189063550D01*
X97014959Y-189124873D01*
X97009975Y-189194565D01*
X97008354Y-189198683D01*
X96980264Y-189266498D01*
X96980261Y-189266510D01*
X96949500Y-189421153D01*
X96949500Y-189578846D01*
X96980261Y-189733489D01*
X96980264Y-189733501D01*
X97040602Y-189879172D01*
X97040609Y-189879185D01*
X97128210Y-190010288D01*
X97128213Y-190010292D01*
X97239707Y-190121786D01*
X97239711Y-190121789D01*
X97370814Y-190209390D01*
X97370827Y-190209397D01*
X97470060Y-190250500D01*
X97516503Y-190269737D01*
X97671153Y-190300499D01*
X97671156Y-190300500D01*
X97671158Y-190300500D01*
X97828844Y-190300500D01*
X97828845Y-190300499D01*
X97905152Y-190285320D01*
X97983488Y-190269739D01*
X97983489Y-190269738D01*
X97983497Y-190269737D01*
X98007155Y-190259937D01*
X98054604Y-190250500D01*
X102904866Y-190250500D01*
X102971905Y-190270185D01*
X103017660Y-190322989D01*
X103027604Y-190392147D01*
X103019427Y-190421953D01*
X102980263Y-190516502D01*
X102980261Y-190516510D01*
X102949500Y-190671153D01*
X102949500Y-190828846D01*
X102980261Y-190983489D01*
X102980264Y-190983501D01*
X103040602Y-191129172D01*
X103040609Y-191129185D01*
X103128210Y-191260288D01*
X103128213Y-191260292D01*
X103239707Y-191371786D01*
X103239711Y-191371789D01*
X103370814Y-191459390D01*
X103370827Y-191459397D01*
X103443373Y-191489446D01*
X103516503Y-191519737D01*
X103671153Y-191550499D01*
X103671156Y-191550500D01*
X103671158Y-191550500D01*
X103828844Y-191550500D01*
X103828845Y-191550499D01*
X103983497Y-191519737D01*
X104129179Y-191459394D01*
X104260289Y-191371789D01*
X104371789Y-191260289D01*
X104459394Y-191129179D01*
X104469189Y-191105528D01*
X104473823Y-191098593D01*
X104474922Y-191093546D01*
X104496074Y-191065293D01*
X104524553Y-191036816D01*
X104585877Y-191003333D01*
X104612231Y-191000500D01*
X106823922Y-191000500D01*
X106828015Y-191000097D01*
X106840166Y-190999500D01*
X110136770Y-190999500D01*
X110203809Y-191019185D01*
X110224451Y-191035819D01*
X110409691Y-191221059D01*
X110443176Y-191282382D01*
X110438192Y-191352074D01*
X110396320Y-191408007D01*
X110330856Y-191432424D01*
X110322010Y-191432740D01*
X109102129Y-191432740D01*
X109102123Y-191432741D01*
X109042516Y-191439148D01*
X108907671Y-191489442D01*
X108907664Y-191489446D01*
X108792455Y-191575692D01*
X108792452Y-191575695D01*
X108706206Y-191690904D01*
X108706202Y-191690911D01*
X108655908Y-191825757D01*
X108649501Y-191885356D01*
X108649500Y-191885375D01*
X108649500Y-193681110D01*
X108649501Y-193681116D01*
X108655908Y-193740723D01*
X108706202Y-193875568D01*
X108706206Y-193875575D01*
X108792452Y-193990784D01*
X108792455Y-193990787D01*
X108907664Y-194077033D01*
X108907671Y-194077037D01*
X109039082Y-194126050D01*
X109095016Y-194167921D01*
X109119433Y-194233385D01*
X109104582Y-194301658D01*
X109083431Y-194329913D01*
X108969889Y-194443455D01*
X108844951Y-194615419D01*
X108748444Y-194804825D01*
X108682753Y-195007000D01*
X108649500Y-195216953D01*
X108649500Y-195429527D01*
X108682754Y-195639483D01*
X108743921Y-195827736D01*
X108748444Y-195841654D01*
X108844951Y-196031060D01*
X108969890Y-196203026D01*
X109120213Y-196353349D01*
X109292182Y-196478290D01*
X109300946Y-196482756D01*
X109351742Y-196530731D01*
X109368536Y-196598552D01*
X109345998Y-196664687D01*
X109300946Y-196703724D01*
X109292182Y-196708189D01*
X109120213Y-196833130D01*
X108969890Y-196983453D01*
X108844951Y-197155419D01*
X108748444Y-197344825D01*
X108682753Y-197547000D01*
X108649500Y-197756953D01*
X108649500Y-197969526D01*
X108682753Y-198179479D01*
X108748444Y-198381654D01*
X108844951Y-198571060D01*
X108969890Y-198743026D01*
X109120213Y-198893349D01*
X109292182Y-199018290D01*
X109300946Y-199022756D01*
X109351742Y-199070731D01*
X109368536Y-199138552D01*
X109345998Y-199204687D01*
X109300946Y-199243724D01*
X109292182Y-199248189D01*
X109120213Y-199373130D01*
X108969890Y-199523453D01*
X108844951Y-199695419D01*
X108748444Y-199884825D01*
X108682753Y-200087000D01*
X108649500Y-200296953D01*
X108649500Y-200509526D01*
X108682753Y-200719479D01*
X108748444Y-200921654D01*
X108844951Y-201111060D01*
X108969890Y-201283026D01*
X109120213Y-201433349D01*
X109292182Y-201558290D01*
X109300946Y-201562756D01*
X109351742Y-201610731D01*
X109368536Y-201678552D01*
X109345998Y-201744687D01*
X109300946Y-201783724D01*
X109292182Y-201788189D01*
X109120213Y-201913130D01*
X108969890Y-202063453D01*
X108844951Y-202235419D01*
X108748444Y-202424825D01*
X108682753Y-202627000D01*
X108649500Y-202836953D01*
X108649500Y-203049526D01*
X108682753Y-203259479D01*
X108748444Y-203461654D01*
X108844951Y-203651060D01*
X108969890Y-203823026D01*
X109120213Y-203973349D01*
X109292179Y-204098288D01*
X109292181Y-204098289D01*
X109292184Y-204098291D01*
X109301493Y-204103034D01*
X109352290Y-204151006D01*
X109369087Y-204218827D01*
X109346552Y-204284962D01*
X109301502Y-204324002D01*
X109292443Y-204328618D01*
X109120540Y-204453512D01*
X109120535Y-204453516D01*
X108970276Y-204603775D01*
X108970272Y-204603780D01*
X108845379Y-204775682D01*
X108748904Y-204965022D01*
X108683242Y-205167110D01*
X108683242Y-205167113D01*
X108672769Y-205233240D01*
X109566988Y-205233240D01*
X109534075Y-205290247D01*
X109500000Y-205417414D01*
X109500000Y-205549066D01*
X109534075Y-205676233D01*
X109566988Y-205733240D01*
X108672769Y-205733240D01*
X108683242Y-205799366D01*
X108683242Y-205799369D01*
X108748904Y-206001457D01*
X108845379Y-206190797D01*
X108970272Y-206362699D01*
X108970276Y-206362704D01*
X109120535Y-206512963D01*
X109120540Y-206512967D01*
X109292442Y-206637860D01*
X109481782Y-206734335D01*
X109683871Y-206799997D01*
X109750000Y-206810471D01*
X109750000Y-205916252D01*
X109807007Y-205949165D01*
X109934174Y-205983240D01*
X110065826Y-205983240D01*
X110192993Y-205949165D01*
X110250000Y-205916252D01*
X110250000Y-206810470D01*
X110316126Y-206799997D01*
X110316129Y-206799997D01*
X110518217Y-206734335D01*
X110707557Y-206637860D01*
X110879459Y-206512967D01*
X110879464Y-206512963D01*
X111029723Y-206362704D01*
X111029727Y-206362699D01*
X111154620Y-206190797D01*
X111251095Y-206001457D01*
X111316757Y-205799369D01*
X111316757Y-205799366D01*
X111327231Y-205733240D01*
X110433012Y-205733240D01*
X110465925Y-205676233D01*
X110500000Y-205549066D01*
X110500000Y-205417414D01*
X110465925Y-205290247D01*
X110433012Y-205233240D01*
X111327231Y-205233240D01*
X111316757Y-205167113D01*
X111316757Y-205167110D01*
X111251095Y-204965022D01*
X111154620Y-204775682D01*
X111029727Y-204603780D01*
X111029723Y-204603775D01*
X110879464Y-204453516D01*
X110879459Y-204453512D01*
X110707555Y-204328617D01*
X110698500Y-204324003D01*
X110647706Y-204276028D01*
X110630912Y-204208206D01*
X110653451Y-204142072D01*
X110698508Y-204103033D01*
X110707816Y-204098291D01*
X110787007Y-204040755D01*
X110879786Y-203973349D01*
X110879788Y-203973346D01*
X110879792Y-203973344D01*
X111030104Y-203823032D01*
X111030106Y-203823028D01*
X111030109Y-203823026D01*
X111155048Y-203651060D01*
X111155047Y-203651060D01*
X111155051Y-203651056D01*
X111251557Y-203461652D01*
X111317246Y-203259483D01*
X111350500Y-203049527D01*
X111350500Y-202836953D01*
X111317246Y-202626997D01*
X111251557Y-202424828D01*
X111155051Y-202235424D01*
X111155049Y-202235421D01*
X111155048Y-202235419D01*
X111030109Y-202063453D01*
X110879786Y-201913130D01*
X110707820Y-201788191D01*
X110701492Y-201784967D01*
X110699054Y-201783725D01*
X110648259Y-201735752D01*
X110631463Y-201667932D01*
X110653999Y-201601796D01*
X110699054Y-201562755D01*
X110707816Y-201558291D01*
X110729789Y-201542326D01*
X110879786Y-201433349D01*
X110879788Y-201433346D01*
X110879792Y-201433344D01*
X111030104Y-201283032D01*
X111030106Y-201283028D01*
X111030109Y-201283026D01*
X111155048Y-201111060D01*
X111155047Y-201111060D01*
X111155051Y-201111056D01*
X111251557Y-200921652D01*
X111317246Y-200719483D01*
X111350500Y-200509527D01*
X111350500Y-200296953D01*
X111317246Y-200086997D01*
X111251557Y-199884828D01*
X111155051Y-199695424D01*
X111155049Y-199695421D01*
X111155048Y-199695419D01*
X111030109Y-199523453D01*
X110879786Y-199373130D01*
X110707820Y-199248191D01*
X110707115Y-199247831D01*
X110699054Y-199243725D01*
X110648259Y-199195752D01*
X110631463Y-199127932D01*
X110653999Y-199061796D01*
X110699054Y-199022755D01*
X110707816Y-199018291D01*
X110729789Y-199002326D01*
X110879786Y-198893349D01*
X110879788Y-198893346D01*
X110879792Y-198893344D01*
X111030104Y-198743032D01*
X111030106Y-198743028D01*
X111030109Y-198743026D01*
X111155048Y-198571060D01*
X111155047Y-198571060D01*
X111155051Y-198571056D01*
X111251557Y-198381652D01*
X111317246Y-198179483D01*
X111350500Y-197969527D01*
X111350500Y-197756953D01*
X111317246Y-197546997D01*
X111251557Y-197344828D01*
X111155051Y-197155424D01*
X111155049Y-197155421D01*
X111155048Y-197155419D01*
X111030109Y-196983453D01*
X110879786Y-196833130D01*
X110707820Y-196708191D01*
X110707115Y-196707831D01*
X110699054Y-196703725D01*
X110648259Y-196655752D01*
X110631463Y-196587932D01*
X110653999Y-196521796D01*
X110699054Y-196482755D01*
X110707816Y-196478291D01*
X110729789Y-196462326D01*
X110879786Y-196353349D01*
X110879788Y-196353346D01*
X110879792Y-196353344D01*
X111030104Y-196203032D01*
X111030106Y-196203028D01*
X111030109Y-196203026D01*
X111155048Y-196031060D01*
X111155047Y-196031060D01*
X111155051Y-196031056D01*
X111251557Y-195841652D01*
X111317246Y-195639483D01*
X111350500Y-195429527D01*
X111350500Y-195216953D01*
X111317246Y-195006997D01*
X111251557Y-194804828D01*
X111155051Y-194615424D01*
X111155049Y-194615421D01*
X111155048Y-194615419D01*
X111030109Y-194443453D01*
X110916569Y-194329913D01*
X110883084Y-194268590D01*
X110888068Y-194198898D01*
X110929940Y-194142965D01*
X110960915Y-194126050D01*
X111092331Y-194077036D01*
X111207546Y-193990786D01*
X111293796Y-193875571D01*
X111344091Y-193740723D01*
X111350500Y-193681113D01*
X111350500Y-193657740D01*
X111353050Y-193649054D01*
X111351762Y-193640093D01*
X111362740Y-193616052D01*
X111370185Y-193590701D01*
X111377025Y-193584773D01*
X111380787Y-193576537D01*
X111403021Y-193562247D01*
X111422989Y-193544946D01*
X111433503Y-193542658D01*
X111439565Y-193538763D01*
X111474500Y-193533740D01*
X111679646Y-193533740D01*
X111746685Y-193553425D01*
X111767327Y-193570059D01*
X113963681Y-195766413D01*
X113997166Y-195827736D01*
X114000000Y-195854094D01*
X114000000Y-222875500D01*
X113980315Y-222942539D01*
X113927511Y-222988294D01*
X113876000Y-222999500D01*
X105612230Y-222999500D01*
X105545191Y-222979815D01*
X105524549Y-222963181D01*
X104746071Y-222184703D01*
X104719191Y-222144475D01*
X104709394Y-222120821D01*
X104656620Y-222041839D01*
X104621789Y-221989710D01*
X104510292Y-221878213D01*
X104510288Y-221878210D01*
X104379185Y-221790609D01*
X104379172Y-221790602D01*
X104233501Y-221730264D01*
X104233489Y-221730261D01*
X104078845Y-221699500D01*
X104078842Y-221699500D01*
X103921158Y-221699500D01*
X103921155Y-221699500D01*
X103766510Y-221730261D01*
X103766498Y-221730264D01*
X103620827Y-221790602D01*
X103620814Y-221790609D01*
X103489711Y-221878210D01*
X103489707Y-221878213D01*
X103378213Y-221989707D01*
X103378210Y-221989711D01*
X103290609Y-222120814D01*
X103290602Y-222120827D01*
X103230264Y-222266498D01*
X103230261Y-222266510D01*
X103199500Y-222421153D01*
X103199500Y-222578846D01*
X103230261Y-222733489D01*
X103230264Y-222733501D01*
X103290602Y-222879172D01*
X103290609Y-222879185D01*
X103378210Y-223010288D01*
X103378213Y-223010292D01*
X103489710Y-223121789D01*
X103557447Y-223167049D01*
X103620821Y-223209394D01*
X103644475Y-223219191D01*
X103684703Y-223246071D01*
X104771586Y-224332954D01*
X104801058Y-224352645D01*
X104845270Y-224382186D01*
X104894505Y-224415084D01*
X104894506Y-224415084D01*
X104894507Y-224415085D01*
X104894509Y-224415086D01*
X105031082Y-224471656D01*
X105031087Y-224471658D01*
X105031091Y-224471658D01*
X105031092Y-224471659D01*
X105176079Y-224500500D01*
X113876000Y-224500500D01*
X113943039Y-224520185D01*
X113988794Y-224572989D01*
X114000000Y-224624500D01*
X114000000Y-250775500D01*
X113980315Y-250842539D01*
X113927511Y-250888294D01*
X113876000Y-250899500D01*
X109780887Y-250899500D01*
X109713848Y-250879815D01*
X109668093Y-250827011D01*
X109658149Y-250757853D01*
X109665380Y-250731493D01*
X109665320Y-250731474D01*
X109665740Y-250730178D01*
X109666324Y-250728053D01*
X109666823Y-250726847D01*
X109666823Y-250726843D01*
X109666826Y-250726840D01*
X109722179Y-250556482D01*
X109734632Y-250477851D01*
X109750200Y-250379568D01*
X109750200Y-250200431D01*
X109731519Y-250082491D01*
X109722179Y-250023518D01*
X109666826Y-249853160D01*
X109585505Y-249693558D01*
X109480218Y-249548643D01*
X109353557Y-249421982D01*
X109208642Y-249316695D01*
X109049040Y-249235374D01*
X108878682Y-249180021D01*
X108878680Y-249180020D01*
X108878678Y-249180020D01*
X108701768Y-249152000D01*
X108701763Y-249152000D01*
X108522637Y-249152000D01*
X108522632Y-249152000D01*
X108345721Y-249180020D01*
X108175357Y-249235375D01*
X108015757Y-249316695D01*
X107933078Y-249376765D01*
X107870843Y-249421982D01*
X107870841Y-249421984D01*
X107870840Y-249421984D01*
X107744184Y-249548640D01*
X107744184Y-249548641D01*
X107744182Y-249548643D01*
X107698965Y-249610878D01*
X107638895Y-249693557D01*
X107557575Y-249853157D01*
X107502220Y-250023521D01*
X107474200Y-250200431D01*
X107474200Y-250379568D01*
X107502220Y-250556478D01*
X107557576Y-250726847D01*
X107558076Y-250728053D01*
X107558129Y-250728547D01*
X107559080Y-250731474D01*
X107558465Y-250731673D01*
X107565542Y-250797523D01*
X107534264Y-250860000D01*
X107474173Y-250895650D01*
X107443513Y-250899500D01*
X104701187Y-250899500D01*
X104634148Y-250879815D01*
X104588393Y-250827011D01*
X104578449Y-250757853D01*
X104585680Y-250731493D01*
X104585620Y-250731474D01*
X104586040Y-250730178D01*
X104586624Y-250728053D01*
X104587123Y-250726847D01*
X104587123Y-250726843D01*
X104587126Y-250726840D01*
X104642479Y-250556482D01*
X104654932Y-250477851D01*
X104670500Y-250379568D01*
X104670500Y-250200431D01*
X104651819Y-250082491D01*
X104642479Y-250023518D01*
X104587126Y-249853160D01*
X104505805Y-249693558D01*
X104400518Y-249548643D01*
X104273857Y-249421982D01*
X104128942Y-249316695D01*
X103969340Y-249235374D01*
X103798982Y-249180021D01*
X103798980Y-249180020D01*
X103798978Y-249180020D01*
X103622068Y-249152000D01*
X103622063Y-249152000D01*
X103442937Y-249152000D01*
X103442932Y-249152000D01*
X103266021Y-249180020D01*
X103095657Y-249235375D01*
X102936057Y-249316695D01*
X102853378Y-249376765D01*
X102791143Y-249421982D01*
X102791141Y-249421984D01*
X102791140Y-249421984D01*
X102664484Y-249548640D01*
X102664484Y-249548641D01*
X102664482Y-249548643D01*
X102619265Y-249610878D01*
X102559195Y-249693557D01*
X102477875Y-249853157D01*
X102422520Y-250023521D01*
X102394500Y-250200431D01*
X102394500Y-250379568D01*
X102422520Y-250556478D01*
X102477876Y-250726847D01*
X102478376Y-250728053D01*
X102478429Y-250728547D01*
X102479380Y-250731474D01*
X102478765Y-250731673D01*
X102485842Y-250797523D01*
X102454564Y-250860000D01*
X102394473Y-250895650D01*
X102363813Y-250899500D01*
X89506960Y-250899500D01*
X89493078Y-250898720D01*
X89445085Y-250893312D01*
X89369356Y-250884780D01*
X89342285Y-250878601D01*
X89231379Y-250839793D01*
X89206363Y-250827746D01*
X89106873Y-250765233D01*
X89085163Y-250747920D01*
X89002079Y-250664836D01*
X88984766Y-250643126D01*
X88930325Y-250556482D01*
X88922251Y-250543632D01*
X88910208Y-250518624D01*
X88871397Y-250407710D01*
X88865220Y-250380646D01*
X88851280Y-250256922D01*
X88850500Y-250243039D01*
X88850500Y-247500000D01*
X102992138Y-247500000D01*
X103851814Y-247500000D01*
X103847420Y-247504394D01*
X103794759Y-247595606D01*
X103767500Y-247697339D01*
X103767500Y-247802661D01*
X103794759Y-247904394D01*
X103847420Y-247995606D01*
X103851814Y-248000000D01*
X102992138Y-248000000D01*
X102997048Y-248031002D01*
X103055414Y-248210637D01*
X103141170Y-248378940D01*
X103252185Y-248531741D01*
X103252189Y-248531746D01*
X103385753Y-248665310D01*
X103385758Y-248665314D01*
X103538559Y-248776329D01*
X103706862Y-248862085D01*
X103886497Y-248920451D01*
X103917500Y-248925362D01*
X103917500Y-248065686D01*
X103921894Y-248070080D01*
X104013106Y-248122741D01*
X104114839Y-248150000D01*
X104220161Y-248150000D01*
X104321894Y-248122741D01*
X104413106Y-248070080D01*
X104417500Y-248065686D01*
X104417500Y-248925361D01*
X104448502Y-248920451D01*
X104628137Y-248862085D01*
X104796440Y-248776329D01*
X104949241Y-248665314D01*
X104949246Y-248665310D01*
X105031966Y-248582591D01*
X105093289Y-248549106D01*
X105162981Y-248554090D01*
X105207328Y-248582591D01*
X105290427Y-248665690D01*
X105443301Y-248776760D01*
X105522847Y-248817290D01*
X105611663Y-248862545D01*
X105611665Y-248862545D01*
X105611668Y-248862547D01*
X105707997Y-248893846D01*
X105791381Y-248920940D01*
X105978014Y-248950500D01*
X105978019Y-248950500D01*
X106166986Y-248950500D01*
X106353618Y-248920940D01*
X106355123Y-248920451D01*
X106533332Y-248862547D01*
X106701699Y-248776760D01*
X106854573Y-248665690D01*
X106937319Y-248582944D01*
X106998642Y-248549459D01*
X107068334Y-248554443D01*
X107112681Y-248582944D01*
X107195427Y-248665690D01*
X107348301Y-248776760D01*
X107427847Y-248817290D01*
X107516663Y-248862545D01*
X107516665Y-248862545D01*
X107516668Y-248862547D01*
X107612997Y-248893846D01*
X107696381Y-248920940D01*
X107883014Y-248950500D01*
X107883019Y-248950500D01*
X108071986Y-248950500D01*
X108258618Y-248920940D01*
X108260123Y-248920451D01*
X108438332Y-248862547D01*
X108606699Y-248776760D01*
X108759573Y-248665690D01*
X108893190Y-248532073D01*
X109004260Y-248379199D01*
X109090047Y-248210832D01*
X109148440Y-248031118D01*
X109153369Y-248000000D01*
X109178000Y-247844486D01*
X109178000Y-247655513D01*
X109148440Y-247468881D01*
X109090045Y-247289163D01*
X109004259Y-247120800D01*
X108893190Y-246967927D01*
X108759573Y-246834310D01*
X108606699Y-246723240D01*
X108438336Y-246637454D01*
X108258618Y-246579059D01*
X108071986Y-246549500D01*
X108071981Y-246549500D01*
X107883019Y-246549500D01*
X107883014Y-246549500D01*
X107696381Y-246579059D01*
X107516663Y-246637454D01*
X107348300Y-246723240D01*
X107261079Y-246786610D01*
X107195427Y-246834310D01*
X107195425Y-246834312D01*
X107195424Y-246834312D01*
X107112681Y-246917056D01*
X107051358Y-246950541D01*
X106981666Y-246945557D01*
X106937319Y-246917056D01*
X106854575Y-246834312D01*
X106854573Y-246834310D01*
X106701699Y-246723240D01*
X106533336Y-246637454D01*
X106353618Y-246579059D01*
X106166986Y-246549500D01*
X106166981Y-246549500D01*
X105978019Y-246549500D01*
X105978014Y-246549500D01*
X105791381Y-246579059D01*
X105611663Y-246637454D01*
X105443300Y-246723240D01*
X105356079Y-246786610D01*
X105290427Y-246834310D01*
X105290425Y-246834312D01*
X105290424Y-246834312D01*
X105207328Y-246917409D01*
X105146005Y-246950894D01*
X105076313Y-246945910D01*
X105031966Y-246917409D01*
X104949246Y-246834689D01*
X104949241Y-246834685D01*
X104796440Y-246723670D01*
X104628135Y-246637913D01*
X104448504Y-246579549D01*
X104448495Y-246579547D01*
X104417500Y-246574637D01*
X104417500Y-247434314D01*
X104413106Y-247429920D01*
X104321894Y-247377259D01*
X104220161Y-247350000D01*
X104114839Y-247350000D01*
X104013106Y-247377259D01*
X103921894Y-247429920D01*
X103917500Y-247434314D01*
X103917500Y-246574637D01*
X103917499Y-246574637D01*
X103886504Y-246579547D01*
X103886495Y-246579549D01*
X103706864Y-246637913D01*
X103538559Y-246723670D01*
X103385758Y-246834685D01*
X103385753Y-246834689D01*
X103252189Y-246968253D01*
X103252185Y-246968258D01*
X103141170Y-247121059D01*
X103055414Y-247289362D01*
X102997048Y-247468997D01*
X102992138Y-247500000D01*
X88850500Y-247500000D01*
X88850500Y-242542969D01*
X104134500Y-242542969D01*
X104134500Y-242797030D01*
X104167659Y-243048893D01*
X104233413Y-243294288D01*
X104233417Y-243294301D01*
X104330626Y-243528985D01*
X104330631Y-243528995D01*
X104457655Y-243749005D01*
X104457660Y-243749011D01*
X104457661Y-243749013D01*
X104612306Y-243950552D01*
X104612312Y-243950559D01*
X104791940Y-244130187D01*
X104791946Y-244130192D01*
X104993495Y-244284845D01*
X105213505Y-244411869D01*
X105213510Y-244411871D01*
X105213514Y-244411873D01*
X105448198Y-244509082D01*
X105448203Y-244509083D01*
X105448214Y-244509088D01*
X105693604Y-244574840D01*
X105945477Y-244608000D01*
X105945484Y-244608000D01*
X106199516Y-244608000D01*
X106199523Y-244608000D01*
X106451396Y-244574840D01*
X106696786Y-244509088D01*
X106696798Y-244509082D01*
X106696801Y-244509082D01*
X106931485Y-244411873D01*
X106931483Y-244411873D01*
X106931495Y-244411869D01*
X107151505Y-244284845D01*
X107353054Y-244130192D01*
X107532692Y-243950554D01*
X107687345Y-243749005D01*
X107814369Y-243528995D01*
X107911588Y-243294286D01*
X107977340Y-243048896D01*
X108010500Y-242797023D01*
X108010500Y-242542977D01*
X107977340Y-242291104D01*
X107911588Y-242045714D01*
X107911583Y-242045703D01*
X107911582Y-242045698D01*
X107814373Y-241811014D01*
X107814368Y-241811004D01*
X107767241Y-241729378D01*
X107687345Y-241590995D01*
X107638364Y-241527161D01*
X107532693Y-241389447D01*
X107532687Y-241389440D01*
X107353059Y-241209812D01*
X107353052Y-241209806D01*
X107151513Y-241055161D01*
X107151511Y-241055160D01*
X107151505Y-241055155D01*
X106931495Y-240928131D01*
X106931485Y-240928126D01*
X106696801Y-240830917D01*
X106696788Y-240830913D01*
X106696789Y-240830913D01*
X106696786Y-240830912D01*
X106524296Y-240784693D01*
X106451393Y-240765159D01*
X106199530Y-240732000D01*
X106199523Y-240732000D01*
X105945477Y-240732000D01*
X105945469Y-240732000D01*
X105693606Y-240765159D01*
X105521114Y-240811378D01*
X105448214Y-240830912D01*
X105448212Y-240830912D01*
X105448211Y-240830913D01*
X105448198Y-240830917D01*
X105213514Y-240928126D01*
X105213504Y-240928131D01*
X104993495Y-241055155D01*
X104993486Y-241055161D01*
X104791947Y-241209806D01*
X104791940Y-241209812D01*
X104612312Y-241389440D01*
X104612306Y-241389447D01*
X104457661Y-241590986D01*
X104457655Y-241590995D01*
X104330631Y-241811004D01*
X104330626Y-241811014D01*
X104233417Y-242045698D01*
X104233413Y-242045711D01*
X104167659Y-242291106D01*
X104134500Y-242542969D01*
X88850500Y-242542969D01*
X88850500Y-232749999D01*
X101500000Y-232749999D01*
X101500000Y-232750000D01*
X101500000Y-236000000D01*
X103500000Y-239000000D01*
X108249999Y-239000000D01*
X108250000Y-239000000D01*
X110500000Y-236250000D01*
X110500000Y-232500000D01*
X108000000Y-230000000D01*
X103750000Y-230000000D01*
X101500000Y-232749999D01*
X88850500Y-232749999D01*
X88850500Y-230848543D01*
X97499499Y-230848543D01*
X97537947Y-231041829D01*
X97537950Y-231041839D01*
X97613364Y-231223907D01*
X97613371Y-231223920D01*
X97722860Y-231387781D01*
X97722863Y-231387785D01*
X97862214Y-231527136D01*
X97862218Y-231527139D01*
X98026079Y-231636628D01*
X98026092Y-231636635D01*
X98208160Y-231712049D01*
X98208165Y-231712051D01*
X98208169Y-231712051D01*
X98208170Y-231712052D01*
X98401456Y-231750500D01*
X98401459Y-231750500D01*
X98598543Y-231750500D01*
X98728582Y-231724632D01*
X98791835Y-231712051D01*
X98973914Y-231636632D01*
X99137782Y-231527139D01*
X99277139Y-231387782D01*
X99386632Y-231223914D01*
X99462051Y-231041835D01*
X99500500Y-230848541D01*
X99500500Y-229465782D01*
X99520185Y-229398743D01*
X99536819Y-229378101D01*
X101962722Y-226952199D01*
X102024045Y-226918714D01*
X102050403Y-226915880D01*
X103433163Y-226915880D01*
X103563202Y-226890012D01*
X103626455Y-226877431D01*
X103808534Y-226802012D01*
X103972402Y-226692519D01*
X104111759Y-226553162D01*
X104221252Y-226389294D01*
X104296671Y-226207215D01*
X104335120Y-226013921D01*
X104335120Y-225816839D01*
X104335120Y-225816836D01*
X104296672Y-225623550D01*
X104296671Y-225623549D01*
X104296671Y-225623545D01*
X104296669Y-225623540D01*
X104221255Y-225441472D01*
X104221248Y-225441459D01*
X104111759Y-225277598D01*
X104111756Y-225277594D01*
X103972405Y-225138243D01*
X103972401Y-225138240D01*
X103808536Y-225028749D01*
X103808527Y-225028744D01*
X103626459Y-224953330D01*
X103626449Y-224953327D01*
X103433163Y-224914880D01*
X103433161Y-224914880D01*
X101683160Y-224914880D01*
X101486079Y-224914880D01*
X101486076Y-224914880D01*
X101292791Y-224953326D01*
X101292787Y-224953328D01*
X101292785Y-224953328D01*
X101292784Y-224953329D01*
X101292782Y-224953330D01*
X101217363Y-224984569D01*
X101110705Y-225028748D01*
X101110705Y-225028749D01*
X101110704Y-225028749D01*
X100946842Y-225138237D01*
X100946834Y-225138243D01*
X97862220Y-228222859D01*
X97862218Y-228222861D01*
X97792538Y-228292540D01*
X97722859Y-228362219D01*
X97613371Y-228526079D01*
X97613364Y-228526092D01*
X97537950Y-228708160D01*
X97537947Y-228708170D01*
X97499500Y-228901456D01*
X97499500Y-228901459D01*
X97499500Y-230848541D01*
X97499500Y-230848543D01*
X97499499Y-230848543D01*
X88850500Y-230848543D01*
X88850500Y-220401455D01*
X89499500Y-220401455D01*
X89499500Y-220598544D01*
X89537947Y-220791828D01*
X89537949Y-220791836D01*
X89613367Y-220973910D01*
X89613372Y-220973920D01*
X89722860Y-221137780D01*
X89722863Y-221137784D01*
X90969735Y-222384655D01*
X90969764Y-222384686D01*
X91112217Y-222527139D01*
X91189597Y-222578842D01*
X91276086Y-222636632D01*
X91276088Y-222636633D01*
X91276092Y-222636635D01*
X91315119Y-222652800D01*
X91404311Y-222689744D01*
X91458164Y-222712051D01*
X91492657Y-222718912D01*
X91499811Y-222720335D01*
X91651456Y-222750500D01*
X91651459Y-222750500D01*
X93598543Y-222750500D01*
X93750189Y-222720335D01*
X93791835Y-222712051D01*
X93973914Y-222636632D01*
X94137782Y-222527139D01*
X94277139Y-222387782D01*
X94386632Y-222223914D01*
X94391818Y-222211395D01*
X94410098Y-222167262D01*
X94462051Y-222041835D01*
X94489335Y-221904672D01*
X94500500Y-221848543D01*
X94500500Y-221651456D01*
X94462052Y-221458170D01*
X94462051Y-221458169D01*
X94462051Y-221458165D01*
X94452170Y-221434309D01*
X94420106Y-221356898D01*
X94402972Y-221315533D01*
X97093880Y-221315533D01*
X97093880Y-221473226D01*
X97124641Y-221627869D01*
X97124644Y-221627881D01*
X97184982Y-221773552D01*
X97184989Y-221773565D01*
X97272590Y-221904668D01*
X97272593Y-221904672D01*
X97384087Y-222016166D01*
X97384091Y-222016169D01*
X97515194Y-222103770D01*
X97515207Y-222103777D01*
X97602610Y-222139979D01*
X97660883Y-222164117D01*
X97727960Y-222177459D01*
X97789870Y-222209843D01*
X97791449Y-222211395D01*
X97996604Y-222416550D01*
X98030089Y-222477873D01*
X98030540Y-222480040D01*
X98043881Y-222547109D01*
X98043884Y-222547121D01*
X98104222Y-222692792D01*
X98104229Y-222692805D01*
X98191830Y-222823908D01*
X98191833Y-222823912D01*
X98303327Y-222935406D01*
X98303331Y-222935409D01*
X98434434Y-223023010D01*
X98434447Y-223023017D01*
X98580118Y-223083355D01*
X98580123Y-223083357D01*
X98734773Y-223114119D01*
X98734776Y-223114120D01*
X98734778Y-223114120D01*
X98892464Y-223114120D01*
X98892465Y-223114119D01*
X99047117Y-223083357D01*
X99192799Y-223023014D01*
X99264593Y-222975042D01*
X99331268Y-222954165D01*
X99380935Y-222963584D01*
X99516498Y-223019735D01*
X99516503Y-223019737D01*
X99671153Y-223050499D01*
X99671156Y-223050500D01*
X99671158Y-223050500D01*
X99828844Y-223050500D01*
X99828845Y-223050499D01*
X99983497Y-223019737D01*
X100096166Y-222973067D01*
X100129172Y-222959397D01*
X100129172Y-222959396D01*
X100129179Y-222959394D01*
X100260289Y-222871789D01*
X100371789Y-222760289D01*
X100459394Y-222629179D01*
X100519737Y-222483497D01*
X100550500Y-222328842D01*
X100550500Y-222171158D01*
X100550500Y-222171155D01*
X100550499Y-222171153D01*
X100537096Y-222103774D01*
X100519737Y-222016503D01*
X100519597Y-222016166D01*
X100459397Y-221870828D01*
X100459396Y-221870827D01*
X100459394Y-221870821D01*
X100421396Y-221813953D01*
X100400520Y-221747276D01*
X100400500Y-221745064D01*
X100400500Y-219416760D01*
X106960000Y-219416760D01*
X109710000Y-219416760D01*
X109710000Y-214916760D01*
X106960000Y-214916760D01*
X106960000Y-219416760D01*
X100400500Y-219416760D01*
X100400500Y-218254935D01*
X100420185Y-218187896D01*
X100421366Y-218186090D01*
X100459394Y-218129179D01*
X100519737Y-217983497D01*
X100550500Y-217828842D01*
X100550500Y-217671158D01*
X100550500Y-217671155D01*
X100550499Y-217671153D01*
X100519738Y-217516510D01*
X100519737Y-217516503D01*
X100519735Y-217516498D01*
X100459397Y-217370827D01*
X100459390Y-217370814D01*
X100371789Y-217239711D01*
X100371786Y-217239707D01*
X100260292Y-217128213D01*
X100260288Y-217128210D01*
X100129185Y-217040609D01*
X100129172Y-217040602D01*
X99983501Y-216980264D01*
X99983489Y-216980261D01*
X99828845Y-216949500D01*
X99828842Y-216949500D01*
X99671158Y-216949500D01*
X99671155Y-216949500D01*
X99516510Y-216980261D01*
X99516498Y-216980264D01*
X99370827Y-217040602D01*
X99370814Y-217040609D01*
X99239711Y-217128210D01*
X99239707Y-217128213D01*
X99128213Y-217239707D01*
X99128210Y-217239711D01*
X99040609Y-217370814D01*
X99040602Y-217370827D01*
X98980264Y-217516498D01*
X98980261Y-217516510D01*
X98949500Y-217671153D01*
X98949500Y-217828846D01*
X98980261Y-217983489D01*
X98980264Y-217983501D01*
X99040602Y-218129172D01*
X99040606Y-218129179D01*
X99078602Y-218186044D01*
X99099480Y-218252721D01*
X99099500Y-218254935D01*
X99099500Y-221380192D01*
X99093261Y-221401437D01*
X99091682Y-221423526D01*
X99083609Y-221434309D01*
X99079815Y-221447231D01*
X99063081Y-221461730D01*
X99049810Y-221479459D01*
X99037189Y-221484166D01*
X99027011Y-221492986D01*
X99005093Y-221496137D01*
X98984346Y-221503876D01*
X98971185Y-221501013D01*
X98957853Y-221502930D01*
X98937709Y-221493730D01*
X98916073Y-221489024D01*
X98898347Y-221475755D01*
X98894297Y-221473905D01*
X98887819Y-221467873D01*
X98711395Y-221291449D01*
X98677910Y-221230126D01*
X98677473Y-221228032D01*
X98664117Y-221160883D01*
X98639979Y-221102610D01*
X98603777Y-221015207D01*
X98603770Y-221015194D01*
X98516169Y-220884091D01*
X98516166Y-220884087D01*
X98404672Y-220772593D01*
X98404668Y-220772590D01*
X98273565Y-220684989D01*
X98273552Y-220684982D01*
X98127881Y-220624644D01*
X98127869Y-220624641D01*
X97973225Y-220593880D01*
X97973222Y-220593880D01*
X97815538Y-220593880D01*
X97815535Y-220593880D01*
X97660890Y-220624641D01*
X97660878Y-220624644D01*
X97515207Y-220684982D01*
X97515194Y-220684989D01*
X97384091Y-220772590D01*
X97384087Y-220772593D01*
X97272593Y-220884087D01*
X97272590Y-220884091D01*
X97184989Y-221015194D01*
X97184982Y-221015207D01*
X97124644Y-221160878D01*
X97124641Y-221160890D01*
X97093880Y-221315533D01*
X94402972Y-221315533D01*
X94386633Y-221276088D01*
X94386628Y-221276079D01*
X94277139Y-221112218D01*
X94277136Y-221112214D01*
X94137785Y-220972863D01*
X94137781Y-220972860D01*
X93973920Y-220863371D01*
X93973907Y-220863364D01*
X93791839Y-220787950D01*
X93791829Y-220787947D01*
X93598543Y-220749500D01*
X93598541Y-220749500D01*
X92215782Y-220749500D01*
X92148743Y-220729815D01*
X92128101Y-220713181D01*
X91137784Y-219722863D01*
X91137780Y-219722860D01*
X90973920Y-219613372D01*
X90973910Y-219613367D01*
X90791836Y-219537949D01*
X90791828Y-219537947D01*
X90598543Y-219499500D01*
X90598540Y-219499500D01*
X90401460Y-219499500D01*
X90401457Y-219499500D01*
X90208171Y-219537947D01*
X90208163Y-219537949D01*
X90026089Y-219613367D01*
X90026079Y-219613372D01*
X89862219Y-219722860D01*
X89862215Y-219722863D01*
X89722863Y-219862215D01*
X89722860Y-219862219D01*
X89613372Y-220026079D01*
X89613367Y-220026089D01*
X89537949Y-220208163D01*
X89537947Y-220208171D01*
X89499500Y-220401455D01*
X88850500Y-220401455D01*
X88850500Y-213749480D01*
X88870185Y-213682441D01*
X88922989Y-213636686D01*
X88992147Y-213626742D01*
X89021953Y-213634919D01*
X89026085Y-213636630D01*
X89026086Y-213636631D01*
X89208164Y-213712051D01*
X89396332Y-213749480D01*
X89401455Y-213750499D01*
X89401458Y-213750500D01*
X89401460Y-213750500D01*
X89598542Y-213750500D01*
X89598543Y-213750499D01*
X89791836Y-213712051D01*
X89973914Y-213636631D01*
X90137781Y-213527139D01*
X91777139Y-211887782D01*
X91862836Y-211759527D01*
X91886631Y-211723916D01*
X91886636Y-211723906D01*
X91962049Y-211541839D01*
X91962051Y-211541835D01*
X92000500Y-211348541D01*
X92000500Y-210052459D01*
X92000500Y-206151459D01*
X92000500Y-206151456D01*
X91962052Y-205958170D01*
X91962051Y-205958169D01*
X91962051Y-205958165D01*
X91958323Y-205949165D01*
X91886635Y-205776092D01*
X91886628Y-205776079D01*
X91879270Y-205765067D01*
X91777139Y-205612218D01*
X91777136Y-205612214D01*
X91637785Y-205472863D01*
X91637781Y-205472860D01*
X91473920Y-205363371D01*
X91473907Y-205363364D01*
X91291839Y-205287950D01*
X91291829Y-205287947D01*
X91098543Y-205249500D01*
X91098541Y-205249500D01*
X90901459Y-205249500D01*
X90901457Y-205249500D01*
X90708170Y-205287947D01*
X90708160Y-205287950D01*
X90526092Y-205363364D01*
X90526079Y-205363371D01*
X90362218Y-205472860D01*
X90362214Y-205472863D01*
X90222863Y-205612214D01*
X90222860Y-205612218D01*
X90113371Y-205776079D01*
X90113364Y-205776092D01*
X90037950Y-205958160D01*
X90037947Y-205958170D01*
X89999500Y-206151456D01*
X89999500Y-210784217D01*
X89979815Y-210851256D01*
X89963181Y-210871898D01*
X89062181Y-211772898D01*
X89000858Y-211806383D01*
X88931166Y-211801399D01*
X88875233Y-211759527D01*
X88850816Y-211694063D01*
X88850500Y-211685217D01*
X88850500Y-192874000D01*
X94244500Y-192874000D01*
X94244500Y-201626000D01*
X94244501Y-201626009D01*
X94256052Y-201733450D01*
X94256054Y-201733462D01*
X94267260Y-201784972D01*
X94301383Y-201887497D01*
X94301386Y-201887503D01*
X94379171Y-202008537D01*
X94379179Y-202008548D01*
X94424923Y-202061340D01*
X94424926Y-202061343D01*
X94424930Y-202061347D01*
X94533664Y-202155567D01*
X94533667Y-202155568D01*
X94533668Y-202155569D01*
X94627925Y-202198616D01*
X94664541Y-202215338D01*
X94731580Y-202235023D01*
X94731584Y-202235024D01*
X94874000Y-202255500D01*
X94874003Y-202255500D01*
X102375990Y-202255500D01*
X102376000Y-202255500D01*
X102483456Y-202243947D01*
X102534967Y-202232741D01*
X102569197Y-202221347D01*
X102637497Y-202198616D01*
X102637501Y-202198613D01*
X102637504Y-202198613D01*
X102758543Y-202120825D01*
X102811347Y-202075070D01*
X102905567Y-201966336D01*
X102965338Y-201835459D01*
X102985023Y-201768420D01*
X102985024Y-201768416D01*
X103005500Y-201626000D01*
X103005500Y-192874000D01*
X102993947Y-192766544D01*
X102982741Y-192715033D01*
X102982637Y-192714722D01*
X102948616Y-192612502D01*
X102948613Y-192612496D01*
X102870828Y-192491462D01*
X102870825Y-192491457D01*
X102870820Y-192491451D01*
X102825076Y-192438659D01*
X102825072Y-192438656D01*
X102825070Y-192438653D01*
X102716336Y-192344433D01*
X102716333Y-192344431D01*
X102716331Y-192344430D01*
X102585465Y-192284664D01*
X102585460Y-192284662D01*
X102585459Y-192284662D01*
X102518420Y-192264977D01*
X102518422Y-192264977D01*
X102518417Y-192264976D01*
X102456347Y-192256052D01*
X102376000Y-192244500D01*
X94874000Y-192244500D01*
X94873991Y-192244500D01*
X94873990Y-192244501D01*
X94766549Y-192256052D01*
X94766537Y-192256054D01*
X94715027Y-192267260D01*
X94612502Y-192301383D01*
X94612496Y-192301386D01*
X94491462Y-192379171D01*
X94491451Y-192379179D01*
X94438659Y-192424923D01*
X94344433Y-192533664D01*
X94344430Y-192533668D01*
X94284664Y-192664534D01*
X94264976Y-192731582D01*
X94259949Y-192766549D01*
X94244500Y-192874000D01*
X88850500Y-192874000D01*
X88850500Y-184260759D01*
X88870185Y-184193720D01*
X88922989Y-184147965D01*
X88992147Y-184138021D01*
X89043391Y-184157657D01*
X89120821Y-184209394D01*
X89120823Y-184209395D01*
X89120827Y-184209397D01*
X89244828Y-184260759D01*
X89266503Y-184269737D01*
X89421153Y-184300499D01*
X89421156Y-184300500D01*
X89421158Y-184300500D01*
X89578844Y-184300500D01*
X89578845Y-184300499D01*
X89733497Y-184269737D01*
X89879179Y-184209394D01*
X90010289Y-184121789D01*
X90063549Y-184068529D01*
X90124872Y-184035043D01*
X90194564Y-184040027D01*
X90198651Y-184041635D01*
X90266503Y-184069740D01*
X90421153Y-184100502D01*
X90421156Y-184100503D01*
X90421158Y-184100503D01*
X90578844Y-184100503D01*
X90578845Y-184100502D01*
X90733497Y-184069740D01*
X90879179Y-184009397D01*
X91010289Y-183921792D01*
X91121789Y-183810292D01*
X91209394Y-183679182D01*
X91269737Y-183533500D01*
X91300500Y-183378845D01*
X91300500Y-183221161D01*
X91300500Y-183221158D01*
X91300499Y-183221156D01*
X91269739Y-183066514D01*
X91269738Y-183066511D01*
X91269737Y-183066506D01*
X91259937Y-183042847D01*
X91250500Y-182995399D01*
X91250500Y-182451577D01*
X93844500Y-182451577D01*
X93844500Y-182648422D01*
X93875290Y-182842826D01*
X93936117Y-183030029D01*
X94025476Y-183205405D01*
X94141172Y-183364646D01*
X94280354Y-183503828D01*
X94439595Y-183619524D01*
X94522455Y-183661743D01*
X94614970Y-183708882D01*
X94614972Y-183708882D01*
X94614975Y-183708884D01*
X94715317Y-183741487D01*
X94802173Y-183769709D01*
X94996578Y-183800500D01*
X94996583Y-183800500D01*
X95193422Y-183800500D01*
X95387826Y-183769709D01*
X95575025Y-183708884D01*
X95750405Y-183619524D01*
X95909646Y-183503828D01*
X96048828Y-183364646D01*
X96164524Y-183205405D01*
X96253884Y-183030025D01*
X96314709Y-182842826D01*
X96345500Y-182648422D01*
X96345500Y-182451577D01*
X98844500Y-182451577D01*
X98844500Y-182648422D01*
X98875290Y-182842826D01*
X98936117Y-183030029D01*
X99025476Y-183205405D01*
X99141172Y-183364646D01*
X99280354Y-183503828D01*
X99439595Y-183619524D01*
X99522455Y-183661743D01*
X99614970Y-183708882D01*
X99614972Y-183708882D01*
X99614975Y-183708884D01*
X99715317Y-183741487D01*
X99802173Y-183769709D01*
X99996578Y-183800500D01*
X99996583Y-183800500D01*
X100193422Y-183800500D01*
X100387826Y-183769709D01*
X100575025Y-183708884D01*
X100750405Y-183619524D01*
X100909646Y-183503828D01*
X101048828Y-183364646D01*
X101164524Y-183205405D01*
X101253884Y-183030025D01*
X101314709Y-182842826D01*
X101345500Y-182648422D01*
X101345500Y-182451577D01*
X101314709Y-182257173D01*
X101253882Y-182069970D01*
X101195047Y-181954500D01*
X101164524Y-181894595D01*
X101048828Y-181735354D01*
X100909646Y-181596172D01*
X100750405Y-181480476D01*
X100575029Y-181391117D01*
X100387826Y-181330290D01*
X100193422Y-181299500D01*
X100193417Y-181299500D01*
X99996583Y-181299500D01*
X99996578Y-181299500D01*
X99802173Y-181330290D01*
X99614970Y-181391117D01*
X99439594Y-181480476D01*
X99364991Y-181534679D01*
X99280354Y-181596172D01*
X99280352Y-181596174D01*
X99280351Y-181596174D01*
X99141174Y-181735351D01*
X99141174Y-181735352D01*
X99141172Y-181735354D01*
X99108604Y-181780180D01*
X99025476Y-181894594D01*
X98936117Y-182069970D01*
X98875290Y-182257173D01*
X98844500Y-182451577D01*
X96345500Y-182451577D01*
X96314709Y-182257173D01*
X96253882Y-182069970D01*
X96195047Y-181954500D01*
X96164524Y-181894595D01*
X96048828Y-181735354D01*
X95909646Y-181596172D01*
X95750405Y-181480476D01*
X95575029Y-181391117D01*
X95387826Y-181330290D01*
X95193422Y-181299500D01*
X95193417Y-181299500D01*
X94996583Y-181299500D01*
X94996578Y-181299500D01*
X94802173Y-181330290D01*
X94614970Y-181391117D01*
X94439594Y-181480476D01*
X94364991Y-181534679D01*
X94280354Y-181596172D01*
X94280352Y-181596174D01*
X94280351Y-181596174D01*
X94141174Y-181735351D01*
X94141174Y-181735352D01*
X94141172Y-181735354D01*
X94108604Y-181780180D01*
X94025476Y-181894594D01*
X93936117Y-182069970D01*
X93875290Y-182257173D01*
X93844500Y-182451577D01*
X91250500Y-182451577D01*
X91250500Y-180655199D01*
X107295500Y-180655199D01*
X107295500Y-180844800D01*
X107325157Y-181032050D01*
X107325158Y-181032055D01*
X107364750Y-181153905D01*
X107383747Y-181212372D01*
X107469819Y-181381296D01*
X107581259Y-181534679D01*
X107715321Y-181668741D01*
X107868704Y-181780181D01*
X107948515Y-181820846D01*
X108037627Y-181866252D01*
X108037629Y-181866252D01*
X108037632Y-181866254D01*
X108217945Y-181924842D01*
X108311574Y-181939671D01*
X108405200Y-181954500D01*
X108405204Y-181954500D01*
X108594800Y-181954500D01*
X108678022Y-181941318D01*
X108782055Y-181924842D01*
X108962368Y-181866254D01*
X109131296Y-181780181D01*
X109284679Y-181668741D01*
X109418741Y-181534679D01*
X109530181Y-181381296D01*
X109616254Y-181212368D01*
X109674842Y-181032055D01*
X109691318Y-180928022D01*
X109704500Y-180844800D01*
X109704500Y-180655199D01*
X109688023Y-180551171D01*
X109674842Y-180467945D01*
X109616254Y-180287632D01*
X109616252Y-180287629D01*
X109616252Y-180287627D01*
X109530180Y-180118703D01*
X109418741Y-179965321D01*
X109284679Y-179831259D01*
X109131296Y-179719819D01*
X108962372Y-179633747D01*
X108896146Y-179612229D01*
X108782055Y-179575158D01*
X108782051Y-179575157D01*
X108782050Y-179575157D01*
X108594800Y-179545500D01*
X108594796Y-179545500D01*
X108405204Y-179545500D01*
X108405200Y-179545500D01*
X108217949Y-179575157D01*
X108217946Y-179575157D01*
X108217945Y-179575158D01*
X108159482Y-179594153D01*
X108037627Y-179633747D01*
X107868703Y-179719819D01*
X107715319Y-179831260D01*
X107581260Y-179965319D01*
X107469819Y-180118703D01*
X107383747Y-180287627D01*
X107325157Y-180467949D01*
X107295500Y-180655199D01*
X91250500Y-180655199D01*
X91250500Y-179612229D01*
X91270185Y-179545190D01*
X91286819Y-179524548D01*
X91534950Y-179276417D01*
X91534952Y-179276415D01*
X91601991Y-179176083D01*
X91617084Y-179153495D01*
X91640518Y-179096920D01*
X91673659Y-179016912D01*
X91702500Y-178871917D01*
X91702500Y-178724082D01*
X91702500Y-172709139D01*
X108440500Y-172709139D01*
X108440500Y-172890860D01*
X108468928Y-173070347D01*
X108468928Y-173070350D01*
X108525081Y-173243171D01*
X108525083Y-173243174D01*
X108607583Y-173405090D01*
X108714397Y-173552106D01*
X108714399Y-173552108D01*
X108842894Y-173680603D01*
X108869155Y-173699683D01*
X108911820Y-173755014D01*
X108917798Y-173824627D01*
X108885191Y-173886422D01*
X108869155Y-173900317D01*
X108842894Y-173919396D01*
X108714399Y-174047891D01*
X108714399Y-174047892D01*
X108714397Y-174047894D01*
X108668525Y-174111030D01*
X108607583Y-174194909D01*
X108525083Y-174356825D01*
X108525081Y-174356828D01*
X108468928Y-174529649D01*
X108468928Y-174529652D01*
X108440500Y-174709139D01*
X108440500Y-174890860D01*
X108468928Y-175070347D01*
X108468928Y-175070350D01*
X108525081Y-175243171D01*
X108525083Y-175243174D01*
X108607583Y-175405090D01*
X108714397Y-175552106D01*
X108842894Y-175680603D01*
X108989910Y-175787417D01*
X109151826Y-175869917D01*
X109151828Y-175869918D01*
X109313029Y-175922294D01*
X109324654Y-175926072D01*
X109504139Y-175954500D01*
X109504140Y-175954500D01*
X109685860Y-175954500D01*
X109685861Y-175954500D01*
X109865346Y-175926072D01*
X109865349Y-175926071D01*
X109865350Y-175926071D01*
X110038171Y-175869918D01*
X110038171Y-175869917D01*
X110038174Y-175869917D01*
X110200090Y-175787417D01*
X110347106Y-175680603D01*
X110475603Y-175552106D01*
X110582417Y-175405090D01*
X110664917Y-175243174D01*
X110721072Y-175070346D01*
X110749500Y-174890861D01*
X110749500Y-174709139D01*
X110721072Y-174529654D01*
X110721071Y-174529650D01*
X110721071Y-174529649D01*
X110664918Y-174356828D01*
X110664916Y-174356825D01*
X110582416Y-174194909D01*
X110475603Y-174047894D01*
X110347106Y-173919397D01*
X110320845Y-173900317D01*
X110278180Y-173844988D01*
X110272201Y-173775375D01*
X110304807Y-173713580D01*
X110320846Y-173699682D01*
X110347106Y-173680603D01*
X110475603Y-173552106D01*
X110582417Y-173405090D01*
X110664917Y-173243174D01*
X110721072Y-173070346D01*
X110749500Y-172890861D01*
X110749500Y-172709139D01*
X110721072Y-172529654D01*
X110721071Y-172529650D01*
X110721071Y-172529649D01*
X110664918Y-172356828D01*
X110664916Y-172356825D01*
X110582416Y-172194909D01*
X110475603Y-172047894D01*
X110347106Y-171919397D01*
X110200090Y-171812583D01*
X110038174Y-171730083D01*
X110038171Y-171730081D01*
X109865348Y-171673928D01*
X109745689Y-171654976D01*
X109685861Y-171645500D01*
X109504139Y-171645500D01*
X109444310Y-171654976D01*
X109324652Y-171673928D01*
X109324649Y-171673928D01*
X109151828Y-171730081D01*
X109151825Y-171730083D01*
X108989909Y-171812583D01*
X108906030Y-171873525D01*
X108842894Y-171919397D01*
X108842892Y-171919399D01*
X108842891Y-171919399D01*
X108714399Y-172047891D01*
X108714399Y-172047892D01*
X108714397Y-172047894D01*
X108668525Y-172111030D01*
X108607583Y-172194909D01*
X108525083Y-172356825D01*
X108525081Y-172356828D01*
X108468928Y-172529649D01*
X108468928Y-172529652D01*
X108440500Y-172709139D01*
X91702500Y-172709139D01*
X91702500Y-171226082D01*
X91692554Y-171176083D01*
X91673659Y-171081088D01*
X91658585Y-171044697D01*
X91656404Y-171036211D01*
X91656730Y-171026608D01*
X91652500Y-171005340D01*
X91652500Y-162374000D01*
X91672185Y-162306961D01*
X91724989Y-162261206D01*
X91776500Y-162250000D01*
X101835247Y-162250000D01*
X101902286Y-162269685D01*
G37*
%TD.AperFunction*%
%TD*%
%TA.AperFunction,Conductor*%
%TO.N,GND*%
G36*
X139250000Y-148750000D02*
G01*
X130750000Y-148750000D01*
X130750000Y-149500000D01*
X127000000Y-149500000D01*
X127000000Y-157000000D01*
X112624000Y-157000000D01*
X112556961Y-156980315D01*
X112511206Y-156927511D01*
X112500000Y-156876000D01*
X112500000Y-150500000D01*
X116250000Y-150500000D01*
X116250000Y-145000000D01*
X112500000Y-145000000D01*
X112500000Y-101750000D01*
X139250000Y-101750000D01*
X139250000Y-148750000D01*
G37*
%TD.AperFunction*%
%TD*%
%TA.AperFunction,Conductor*%
%TO.N,Net-(J5-Pin_1)*%
G36*
X104443039Y-24019685D02*
G01*
X104488794Y-24072489D01*
X104500000Y-24124000D01*
X104500000Y-34870500D01*
X104480315Y-34937539D01*
X104427511Y-34983294D01*
X104376000Y-34994500D01*
X101873989Y-34994500D01*
X101794094Y-34996621D01*
X101794089Y-34996622D01*
X101553968Y-35028908D01*
X101531556Y-35033784D01*
X101502459Y-35040114D01*
X101478276Y-35045584D01*
X101478268Y-35045586D01*
X101386298Y-35075172D01*
X101247631Y-35119779D01*
X101165153Y-35161918D01*
X101031873Y-35230012D01*
X100836605Y-35373417D01*
X100783792Y-35419179D01*
X100687751Y-35510085D01*
X100687747Y-35510090D01*
X100533825Y-35697203D01*
X100411920Y-35906573D01*
X100411914Y-35906586D01*
X100325174Y-36132795D01*
X100305488Y-36199834D01*
X100263995Y-36382503D01*
X100244500Y-36623989D01*
X100244500Y-47126000D01*
X100224815Y-47193039D01*
X100172011Y-47238794D01*
X100120500Y-47250000D01*
X89874000Y-47250000D01*
X89806961Y-47230315D01*
X89761206Y-47177511D01*
X89750000Y-47126000D01*
X89750000Y-24124000D01*
X89769685Y-24056961D01*
X89822489Y-24011206D01*
X89874000Y-24000000D01*
X104376000Y-24000000D01*
X104443039Y-24019685D01*
G37*
%TD.AperFunction*%
%TD*%
%TA.AperFunction,Conductor*%
%TO.N,GND*%
G36*
X145134640Y-148751526D02*
G01*
X145221482Y-148765281D01*
X145258376Y-148777268D01*
X145327922Y-148812703D01*
X145359307Y-148835507D01*
X145414492Y-148890692D01*
X145437296Y-148922078D01*
X145472730Y-148991621D01*
X145484718Y-149028517D01*
X145498473Y-149115358D01*
X145500000Y-149134757D01*
X145500000Y-149500000D01*
X130750000Y-149500000D01*
X130750000Y-148750000D01*
X139250000Y-148750000D01*
X145115243Y-148750000D01*
X145134640Y-148751526D01*
G37*
%TD.AperFunction*%
%TD*%
%TA.AperFunction,Conductor*%
%TO.N,GND*%
G36*
X145500000Y-185230245D02*
G01*
X145499393Y-185242504D01*
X145481671Y-185420886D01*
X145476847Y-185444923D01*
X145426187Y-185610417D01*
X145416729Y-185633035D01*
X145334495Y-185785335D01*
X145320771Y-185805649D01*
X145292098Y-185840170D01*
X145210184Y-185938787D01*
X145192733Y-185956003D01*
X145146736Y-185993171D01*
X145058109Y-186064785D01*
X145037610Y-186078232D01*
X144884221Y-186158398D01*
X144861477Y-186167551D01*
X144695307Y-186215973D01*
X144671205Y-186220471D01*
X144492614Y-186235778D01*
X144480349Y-186236220D01*
X127992520Y-186013411D01*
X127980480Y-186012661D01*
X127805359Y-185993171D01*
X127781779Y-185988190D01*
X127619519Y-185937017D01*
X127597348Y-185927569D01*
X127448053Y-185845977D01*
X127428129Y-185832419D01*
X127297433Y-185723486D01*
X127280508Y-185706331D01*
X127173350Y-185574174D01*
X127160064Y-185554072D01*
X127080490Y-185403674D01*
X127071351Y-185381400D01*
X127022368Y-185218437D01*
X127017711Y-185194814D01*
X127000587Y-185019433D01*
X127000000Y-185007383D01*
X127000000Y-181776942D01*
X127019685Y-181709903D01*
X127036319Y-181689261D01*
X128426689Y-180298890D01*
X128452368Y-180279187D01*
X128502448Y-180250274D01*
X128502447Y-180250274D01*
X128502450Y-180250273D01*
X128689699Y-180106592D01*
X128856592Y-179939699D01*
X129000273Y-179752450D01*
X129118284Y-179548049D01*
X129208606Y-179329993D01*
X129269693Y-179102014D01*
X129300500Y-178868011D01*
X129300500Y-178631989D01*
X129269693Y-178397986D01*
X129208606Y-178170007D01*
X129118284Y-177951951D01*
X129118282Y-177951948D01*
X129118280Y-177951943D01*
X129037349Y-177811768D01*
X129000273Y-177747550D01*
X128856592Y-177560301D01*
X128856587Y-177560295D01*
X128689704Y-177393412D01*
X128689697Y-177393406D01*
X128502454Y-177249730D01*
X128502453Y-177249729D01*
X128502450Y-177249727D01*
X128420957Y-177202677D01*
X128298056Y-177131719D01*
X128298045Y-177131714D01*
X128079993Y-177041394D01*
X127852010Y-176980306D01*
X127618020Y-176949501D01*
X127618017Y-176949500D01*
X127618011Y-176949500D01*
X127381989Y-176949500D01*
X127381983Y-176949500D01*
X127381979Y-176949501D01*
X127201132Y-176973310D01*
X127147986Y-176980307D01*
X127147985Y-176980307D01*
X127143961Y-176980837D01*
X127143835Y-176979884D01*
X127078567Y-176974025D01*
X127023402Y-176931147D01*
X127000176Y-176865251D01*
X127000000Y-176858648D01*
X127000000Y-161597585D01*
X132174500Y-161597585D01*
X132174500Y-161902414D01*
X132174501Y-161902430D01*
X132214289Y-162204654D01*
X132293189Y-162499113D01*
X132409844Y-162780742D01*
X132409848Y-162780752D01*
X132562267Y-163044750D01*
X132747843Y-163286597D01*
X132747849Y-163286604D01*
X132963395Y-163502150D01*
X132963402Y-163502156D01*
X133205249Y-163687732D01*
X133469247Y-163840151D01*
X133469248Y-163840151D01*
X133469251Y-163840153D01*
X133657009Y-163917925D01*
X133750886Y-163956810D01*
X133750887Y-163956810D01*
X133750889Y-163956811D01*
X134045344Y-164035710D01*
X134347579Y-164075500D01*
X134347586Y-164075500D01*
X134652414Y-164075500D01*
X134652421Y-164075500D01*
X134954656Y-164035710D01*
X135249111Y-163956811D01*
X135530749Y-163840153D01*
X135794751Y-163687732D01*
X136036599Y-163502155D01*
X136252155Y-163286599D01*
X136437732Y-163044751D01*
X136590153Y-162780749D01*
X136706811Y-162499111D01*
X136785710Y-162204656D01*
X136825500Y-161902421D01*
X136825500Y-161597579D01*
X136785710Y-161295344D01*
X136706811Y-161000889D01*
X136590153Y-160719251D01*
X136437732Y-160455249D01*
X136252155Y-160213401D01*
X136252150Y-160213395D01*
X136036604Y-159997849D01*
X136036597Y-159997843D01*
X135794750Y-159812267D01*
X135530752Y-159659848D01*
X135530742Y-159659844D01*
X135249113Y-159543189D01*
X134954654Y-159464289D01*
X134652430Y-159424501D01*
X134652427Y-159424500D01*
X134652421Y-159424500D01*
X134347579Y-159424500D01*
X134347573Y-159424500D01*
X134347569Y-159424501D01*
X134045345Y-159464289D01*
X133750886Y-159543189D01*
X133469257Y-159659844D01*
X133469247Y-159659848D01*
X133205249Y-159812267D01*
X132963402Y-159997843D01*
X132963395Y-159997849D01*
X132747849Y-160213395D01*
X132747843Y-160213402D01*
X132562267Y-160455249D01*
X132409848Y-160719247D01*
X132409844Y-160719257D01*
X132293189Y-161000886D01*
X132214289Y-161295345D01*
X132174501Y-161597569D01*
X132174500Y-161597585D01*
X127000000Y-161597585D01*
X127000000Y-157000000D01*
X127000000Y-149500000D01*
X145500000Y-149500000D01*
X145500000Y-185230245D01*
G37*
%TD.AperFunction*%
%TD*%
%TA.AperFunction,Conductor*%
%TO.N,+12V*%
G36*
X102443039Y-192769685D02*
G01*
X102488794Y-192822489D01*
X102500000Y-192874000D01*
X102500000Y-201626000D01*
X102480315Y-201693039D01*
X102427511Y-201738794D01*
X102376000Y-201750000D01*
X94874000Y-201750000D01*
X94806961Y-201730315D01*
X94761206Y-201677511D01*
X94750000Y-201626000D01*
X94750000Y-192874000D01*
X94769685Y-192806961D01*
X94822489Y-192761206D01*
X94874000Y-192750000D01*
X102376000Y-192750000D01*
X102443039Y-192769685D01*
G37*
%TD.AperFunction*%
%TD*%
%TA.AperFunction,Conductor*%
%TO.N,SW2*%
G36*
X158943039Y-43769685D02*
G01*
X158988794Y-43822489D01*
X159000000Y-43874000D01*
X159000000Y-50698638D01*
X158980315Y-50765677D01*
X158963681Y-50786319D01*
X153000000Y-56749999D01*
X153000000Y-43750000D01*
X158876000Y-43750000D01*
X158943039Y-43769685D01*
G37*
%TD.AperFunction*%
%TD*%
%TA.AperFunction,Conductor*%
%TO.N,GND*%
G36*
X139193039Y-43769685D02*
G01*
X139238794Y-43822489D01*
X139250000Y-43874000D01*
X139250000Y-101750000D01*
X112500000Y-101750000D01*
X112500000Y-43874000D01*
X112519685Y-43806961D01*
X112572489Y-43761206D01*
X112624000Y-43750000D01*
X139126000Y-43750000D01*
X139193039Y-43769685D01*
G37*
%TD.AperFunction*%
%TD*%
M02*
