%TF.GenerationSoftware,KiCad,Pcbnew,9.0.0*%
%TF.CreationDate,2025-06-29T21:09:51-04:00*%
%TF.ProjectId,RampedFetCoil,52616d70-6564-4466-9574-436f696c2e6b,rev?*%
%TF.SameCoordinates,Original*%
%TF.FileFunction,Paste,Top*%
%TF.FilePolarity,Positive*%
%FSLAX46Y46*%
G04 Gerber Fmt 4.6, Leading zero omitted, Abs format (unit mm)*
G04 Created by KiCad (PCBNEW 9.0.0) date 2025-06-29 21:09:51*
%MOMM*%
%LPD*%
G01*
G04 APERTURE LIST*
G04 Aperture macros list*
%AMRoundRect*
0 Rectangle with rounded corners*
0 $1 Rounding radius*
0 $2 $3 $4 $5 $6 $7 $8 $9 X,Y pos of 4 corners*
0 Add a 4 corners polygon primitive as box body*
4,1,4,$2,$3,$4,$5,$6,$7,$8,$9,$2,$3,0*
0 Add four circle primitives for the rounded corners*
1,1,$1+$1,$2,$3*
1,1,$1+$1,$4,$5*
1,1,$1+$1,$6,$7*
1,1,$1+$1,$8,$9*
0 Add four rect primitives between the rounded corners*
20,1,$1+$1,$2,$3,$4,$5,0*
20,1,$1+$1,$4,$5,$6,$7,0*
20,1,$1+$1,$6,$7,$8,$9,0*
20,1,$1+$1,$8,$9,$2,$3,0*%
%AMRotRect*
0 Rectangle, with rotation*
0 The origin of the aperture is its center*
0 $1 length*
0 $2 width*
0 $3 Rotation angle, in degrees counterclockwise*
0 Add horizontal line*
21,1,$1,$2,0,0,$3*%
G04 Aperture macros list end*
%ADD10RoundRect,0.250000X0.450000X-0.262500X0.450000X0.262500X-0.450000X0.262500X-0.450000X-0.262500X0*%
%ADD11RoundRect,0.250000X-0.400000X-0.600000X0.400000X-0.600000X0.400000X0.600000X-0.400000X0.600000X0*%
%ADD12RoundRect,0.250000X-0.450000X0.262500X-0.450000X-0.262500X0.450000X-0.262500X0.450000X0.262500X0*%
%ADD13RoundRect,0.250000X-0.362500X-1.425000X0.362500X-1.425000X0.362500X1.425000X-0.362500X1.425000X0*%
%ADD14RoundRect,0.250000X0.475000X-0.250000X0.475000X0.250000X-0.475000X0.250000X-0.475000X-0.250000X0*%
%ADD15RoundRect,0.250000X0.262500X0.450000X-0.262500X0.450000X-0.262500X-0.450000X0.262500X-0.450000X0*%
%ADD16RoundRect,0.250000X-1.100000X0.325000X-1.100000X-0.325000X1.100000X-0.325000X1.100000X0.325000X0*%
%ADD17RoundRect,0.150000X-0.875000X-0.150000X0.875000X-0.150000X0.875000X0.150000X-0.875000X0.150000X0*%
%ADD18RoundRect,0.250000X-1.000000X-0.650000X1.000000X-0.650000X1.000000X0.650000X-1.000000X0.650000X0*%
%ADD19RoundRect,0.150000X0.875000X0.150000X-0.875000X0.150000X-0.875000X-0.150000X0.875000X-0.150000X0*%
%ADD20RotRect,0.400000X1.900000X315.000000*%
%ADD21R,0.740000X2.400000*%
%ADD22RoundRect,0.243750X0.456250X-0.243750X0.456250X0.243750X-0.456250X0.243750X-0.456250X-0.243750X0*%
%ADD23RoundRect,0.375000X-0.375000X0.625000X-0.375000X-0.625000X0.375000X-0.625000X0.375000X0.625000X0*%
%ADD24RoundRect,0.500000X-1.400000X0.500000X-1.400000X-0.500000X1.400000X-0.500000X1.400000X0.500000X0*%
%ADD25RoundRect,0.250000X0.362500X1.425000X-0.362500X1.425000X-0.362500X-1.425000X0.362500X-1.425000X0*%
%ADD26RoundRect,0.218750X0.381250X-0.218750X0.381250X0.218750X-0.381250X0.218750X-0.381250X-0.218750X0*%
%ADD27RoundRect,0.150000X0.150000X-0.725000X0.150000X0.725000X-0.150000X0.725000X-0.150000X-0.725000X0*%
%ADD28RoundRect,0.250000X-0.262500X-0.450000X0.262500X-0.450000X0.262500X0.450000X-0.262500X0.450000X0*%
%ADD29RoundRect,0.150000X-0.350000X-1.000000X0.350000X-1.000000X0.350000X1.000000X-0.350000X1.000000X0*%
%ADD30RoundRect,0.150000X0.350000X1.000000X-0.350000X1.000000X-0.350000X-1.000000X0.350000X-1.000000X0*%
%ADD31RoundRect,0.250000X1.100000X-0.325000X1.100000X0.325000X-1.100000X0.325000X-1.100000X-0.325000X0*%
%ADD32R,1.210000X2.710000*%
%ADD33R,4.100000X6.740000*%
%ADD34RoundRect,0.250000X-0.475000X0.250000X-0.475000X-0.250000X0.475000X-0.250000X0.475000X0.250000X0*%
%ADD35RoundRect,0.150000X-0.150000X0.512500X-0.150000X-0.512500X0.150000X-0.512500X0.150000X0.512500X0*%
%ADD36RoundRect,0.150000X-0.587500X-0.150000X0.587500X-0.150000X0.587500X0.150000X-0.587500X0.150000X0*%
%ADD37RoundRect,0.250000X-0.325000X-1.100000X0.325000X-1.100000X0.325000X1.100000X-0.325000X1.100000X0*%
%ADD38RoundRect,0.250000X-0.250000X-0.475000X0.250000X-0.475000X0.250000X0.475000X-0.250000X0.475000X0*%
%ADD39RoundRect,0.250000X0.325000X1.100000X-0.325000X1.100000X-0.325000X-1.100000X0.325000X-1.100000X0*%
%ADD40R,1.200000X1.200000*%
%ADD41RoundRect,0.150000X0.587500X0.150000X-0.587500X0.150000X-0.587500X-0.150000X0.587500X-0.150000X0*%
%ADD42R,5.300000X2.800000*%
%ADD43RoundRect,0.250000X-0.650000X1.000000X-0.650000X-1.000000X0.650000X-1.000000X0.650000X1.000000X0*%
%ADD44RoundRect,0.125000X0.353553X0.530330X-0.530330X-0.353553X-0.353553X-0.530330X0.530330X0.353553X0*%
%ADD45RoundRect,0.125000X-0.353553X0.530330X-0.530330X0.353553X0.353553X-0.530330X0.530330X-0.353553X0*%
%ADD46RoundRect,0.150000X0.150000X-0.587500X0.150000X0.587500X-0.150000X0.587500X-0.150000X-0.587500X0*%
%ADD47RoundRect,0.150000X0.150000X-0.512500X0.150000X0.512500X-0.150000X0.512500X-0.150000X-0.512500X0*%
%ADD48RoundRect,0.225000X-0.375000X0.225000X-0.375000X-0.225000X0.375000X-0.225000X0.375000X0.225000X0*%
G04 APERTURE END LIST*
D10*
%TO.C,R36*%
X99250000Y-68587500D03*
X99250000Y-70412500D03*
%TD*%
D11*
%TO.C,D14*%
X111650000Y-193100000D03*
X115150000Y-193100000D03*
%TD*%
D12*
%TO.C,R19*%
X102300000Y-202087500D03*
X102300000Y-203912500D03*
%TD*%
D13*
%TO.C,R28*%
X86637500Y-160340000D03*
X92562500Y-160340000D03*
%TD*%
D14*
%TO.C,C6*%
X86612500Y-212912500D03*
X86612500Y-211012500D03*
%TD*%
D15*
%TO.C,R43*%
X109212500Y-221250000D03*
X107387500Y-221250000D03*
%TD*%
D10*
%TO.C,R46*%
X93700000Y-203912500D03*
X93700000Y-202087500D03*
%TD*%
D15*
%TO.C,R9*%
X107662500Y-187750000D03*
X105837500Y-187750000D03*
%TD*%
D16*
%TO.C,C36*%
X96750000Y-78725000D03*
X96750000Y-81675000D03*
%TD*%
D10*
%TO.C,R33*%
X94000000Y-227700000D03*
X94000000Y-225875000D03*
%TD*%
%TO.C,R32*%
X89800000Y-227712500D03*
X89800000Y-225887500D03*
%TD*%
D17*
%TO.C,U11*%
X84100000Y-72555000D03*
X84100000Y-73825000D03*
X84100000Y-75095000D03*
X84100000Y-76365000D03*
X84100000Y-77635000D03*
X84100000Y-78905000D03*
X84100000Y-80175000D03*
X84100000Y-81445000D03*
X93400000Y-81445000D03*
X93400000Y-80175000D03*
X93400000Y-78905000D03*
X93400000Y-77635000D03*
X93400000Y-76365000D03*
X93400000Y-75095000D03*
X93400000Y-73825000D03*
X93400000Y-72555000D03*
%TD*%
D18*
%TO.C,D7*%
X102250000Y-170250000D03*
X106250000Y-170250000D03*
%TD*%
D19*
%TO.C,U14*%
X168650000Y-76245000D03*
X168650000Y-74975000D03*
X168650000Y-73705000D03*
X168650000Y-72435000D03*
X168650000Y-71165000D03*
X168650000Y-69895000D03*
X168650000Y-68625000D03*
X168650000Y-67355000D03*
X159350000Y-67355000D03*
X159350000Y-68625000D03*
X159350000Y-69895000D03*
X159350000Y-71165000D03*
X159350000Y-72435000D03*
X159350000Y-73705000D03*
X159350000Y-74975000D03*
X159350000Y-76245000D03*
%TD*%
D14*
%TO.C,C7*%
X84500000Y-212912500D03*
X84500000Y-211012500D03*
%TD*%
D20*
%TO.C,U4*%
X101398350Y-208707538D03*
X102246878Y-209556066D03*
X103095406Y-210404594D03*
%TD*%
D21*
%TO.C,J1*%
X91560000Y-239200000D03*
X91560000Y-235300000D03*
X92830000Y-239200000D03*
X92830000Y-235300000D03*
X94100000Y-239200000D03*
X94100000Y-235300000D03*
X95370000Y-239200000D03*
X95370000Y-235300000D03*
X96640000Y-239200000D03*
X96640000Y-235300000D03*
%TD*%
D10*
%TO.C,R10*%
X88000000Y-179412500D03*
X88000000Y-177587500D03*
%TD*%
D22*
%TO.C,D5*%
X97750000Y-249750000D03*
X97750000Y-247875000D03*
%TD*%
D12*
%TO.C,R6*%
X87700000Y-225887500D03*
X87700000Y-227712500D03*
%TD*%
D23*
%TO.C,U5*%
X88800000Y-202550000D03*
X86500000Y-202550000D03*
D24*
X86500000Y-208850000D03*
D23*
X84200000Y-202550000D03*
%TD*%
D13*
%TO.C,R29*%
X86637500Y-165230000D03*
X92562500Y-165230000D03*
%TD*%
D25*
%TO.C,R17*%
X115025000Y-196300000D03*
X109100000Y-196300000D03*
%TD*%
D26*
%TO.C,FB1*%
X84500000Y-216962500D03*
X84500000Y-214837500D03*
%TD*%
D12*
%TO.C,R13*%
X159000000Y-28687500D03*
X159000000Y-30512500D03*
%TD*%
D13*
%TO.C,R23*%
X86637500Y-124200000D03*
X92562500Y-124200000D03*
%TD*%
D12*
%TO.C,R18*%
X106700000Y-202087500D03*
X106700000Y-203912500D03*
%TD*%
D22*
%TO.C,D2*%
X90250000Y-249750000D03*
X90250000Y-247875000D03*
%TD*%
D12*
%TO.C,R16*%
X108900000Y-202087500D03*
X108900000Y-203912500D03*
%TD*%
D27*
%TO.C,U3*%
X88940000Y-174900000D03*
X90210000Y-174900000D03*
X91480000Y-174900000D03*
X92750000Y-174900000D03*
X92750000Y-169750000D03*
X91480000Y-169750000D03*
X90210000Y-169750000D03*
X88940000Y-169750000D03*
%TD*%
D12*
%TO.C,R5*%
X85600000Y-225887500D03*
X85600000Y-227712500D03*
%TD*%
D28*
%TO.C,R3*%
X102837500Y-163500000D03*
X104662500Y-163500000D03*
%TD*%
D16*
%TO.C,C35*%
X96750000Y-72300000D03*
X96750000Y-75250000D03*
%TD*%
D13*
%TO.C,R25*%
X86637500Y-145510000D03*
X92562500Y-145510000D03*
%TD*%
D29*
%TO.C,U13*%
X82250000Y-89250000D03*
X83500000Y-89250000D03*
X82250000Y-100250000D03*
X83500000Y-100250000D03*
X92250000Y-100250000D03*
X93500000Y-100250000D03*
X94750000Y-89250000D03*
X94750000Y-100250000D03*
X96000000Y-89250000D03*
X96000000Y-100250000D03*
X92250000Y-89250000D03*
X93500000Y-89250000D03*
%TD*%
D30*
%TO.C,U15*%
X170350000Y-59400000D03*
X169100000Y-59400000D03*
X170350000Y-48400000D03*
X169100000Y-48400000D03*
X160350000Y-48400000D03*
X159100000Y-48400000D03*
X157850000Y-59400000D03*
X157850000Y-48400000D03*
X156600000Y-59400000D03*
X156600000Y-48400000D03*
X160350000Y-59400000D03*
X159100000Y-59400000D03*
%TD*%
D31*
%TO.C,C46*%
X156000000Y-76310000D03*
X156000000Y-73360000D03*
%TD*%
D28*
%TO.C,R35*%
X98787500Y-87700000D03*
X100612500Y-87700000D03*
%TD*%
D32*
%TO.C,T1*%
X92130000Y-49000000D03*
X94670000Y-49000000D03*
X97210000Y-49000000D03*
X99750000Y-49000000D03*
X102290000Y-49000000D03*
X102290000Y-31450000D03*
X99750000Y-31450000D03*
X97210000Y-31450000D03*
X94670000Y-31450000D03*
X92130000Y-31450000D03*
D33*
X91590000Y-40225000D03*
X102830000Y-40225000D03*
%TD*%
D34*
%TO.C,C47*%
X84400000Y-106400000D03*
X84400000Y-108300000D03*
%TD*%
D28*
%TO.C,R4*%
X106587500Y-163500000D03*
X108412500Y-163500000D03*
%TD*%
D12*
%TO.C,R8*%
X102400000Y-225875000D03*
X102400000Y-227700000D03*
%TD*%
D35*
%TO.C,U7*%
X169950000Y-99462500D03*
X169000000Y-99462500D03*
X168050000Y-99462500D03*
X168050000Y-101737500D03*
X169950000Y-101737500D03*
%TD*%
D28*
%TO.C,R2*%
X102887500Y-165800000D03*
X104712500Y-165800000D03*
%TD*%
D14*
%TO.C,C1*%
X100100000Y-203950000D03*
X100100000Y-202050000D03*
%TD*%
D36*
%TO.C,Q5*%
X116225000Y-226850000D03*
X116225000Y-228750000D03*
X118100000Y-227800000D03*
%TD*%
D10*
%TO.C,R41*%
X104500000Y-227712500D03*
X104500000Y-225887500D03*
%TD*%
D15*
%TO.C,R44*%
X109212500Y-219250000D03*
X107387500Y-219250000D03*
%TD*%
D28*
%TO.C,R48*%
X107387500Y-209400000D03*
X109212500Y-209400000D03*
%TD*%
D37*
%TO.C,C41*%
X167325000Y-64000000D03*
X170275000Y-64000000D03*
%TD*%
D38*
%TO.C,C2*%
X98300000Y-187750000D03*
X100200000Y-187750000D03*
%TD*%
D39*
%TO.C,C38*%
X85275000Y-69400000D03*
X82325000Y-69400000D03*
%TD*%
D10*
%TO.C,R31*%
X91900000Y-227712500D03*
X91900000Y-225887500D03*
%TD*%
D28*
%TO.C,R14*%
X155187500Y-28700000D03*
X157012500Y-28700000D03*
%TD*%
D40*
%TO.C,D1*%
X107190625Y-196640625D03*
X104390625Y-196640625D03*
%TD*%
D41*
%TO.C,U6*%
X138687500Y-95250000D03*
X138687500Y-93350000D03*
X136812500Y-94300000D03*
%TD*%
D39*
%TO.C,C45*%
X159275000Y-79400000D03*
X156325000Y-79400000D03*
%TD*%
D34*
%TO.C,C40*%
X172000000Y-74050000D03*
X172000000Y-75950000D03*
%TD*%
D37*
%TO.C,C44*%
X156325000Y-64000000D03*
X159275000Y-64000000D03*
%TD*%
D34*
%TO.C,C10*%
X141000000Y-93350000D03*
X141000000Y-95250000D03*
%TD*%
D37*
%TO.C,C34*%
X93525000Y-69500000D03*
X96475000Y-69500000D03*
%TD*%
D29*
%TO.C,U8*%
X82250000Y-54500000D03*
X83500000Y-54500000D03*
X82250000Y-65500000D03*
X83500000Y-65500000D03*
X92250000Y-65500000D03*
X93500000Y-65500000D03*
X94750000Y-54500000D03*
X94750000Y-65500000D03*
X96000000Y-54500000D03*
X96000000Y-65500000D03*
X92250000Y-54500000D03*
X93500000Y-54500000D03*
%TD*%
D38*
%TO.C,C26*%
X107350000Y-213800000D03*
X109250000Y-213800000D03*
%TD*%
D37*
%TO.C,C42*%
X167800000Y-79400000D03*
X170750000Y-79400000D03*
%TD*%
D42*
%TO.C,L2*%
X103000000Y-174200000D03*
X103000000Y-184300000D03*
%TD*%
D22*
%TO.C,D4*%
X95250000Y-249750000D03*
X95250000Y-247875000D03*
%TD*%
D38*
%TO.C,C49*%
X164250000Y-101600000D03*
X166150000Y-101600000D03*
%TD*%
D34*
%TO.C,C4*%
X102000000Y-213550000D03*
X102000000Y-215450000D03*
%TD*%
D40*
%TO.C,D12*%
X102040625Y-194100000D03*
X99240625Y-194100000D03*
%TD*%
%TO.C,D13*%
X107190625Y-194100000D03*
X104390625Y-194100000D03*
%TD*%
D43*
%TO.C,D8*%
X84500000Y-178250000D03*
X84500000Y-182250000D03*
%TD*%
D44*
%TO.C,U1*%
X99432070Y-214027728D03*
X98866384Y-213462043D03*
X98300699Y-212896357D03*
X97735014Y-212330672D03*
X97169328Y-211764986D03*
X96603643Y-211199301D03*
X96037957Y-210633616D03*
X95472272Y-210067930D03*
D45*
X93527728Y-210067930D03*
X92962043Y-210633616D03*
X92396357Y-211199301D03*
X91830672Y-211764986D03*
X91264986Y-212330672D03*
X90699301Y-212896357D03*
X90133616Y-213462043D03*
X89567930Y-214027728D03*
D44*
X89567930Y-215972272D03*
X90133616Y-216537957D03*
X90699301Y-217103643D03*
X91264986Y-217669328D03*
X91830672Y-218235014D03*
X92396357Y-218800699D03*
X92962043Y-219366384D03*
X93527728Y-219932070D03*
D45*
X95472272Y-219932070D03*
X96037957Y-219366384D03*
X96603643Y-218800699D03*
X97169328Y-218235014D03*
X97735014Y-217669328D03*
X98300699Y-217103643D03*
X98866384Y-216537957D03*
X99432070Y-215972272D03*
%TD*%
D39*
%TO.C,C39*%
X85275000Y-84600000D03*
X82325000Y-84600000D03*
%TD*%
D14*
%TO.C,C3*%
X86500000Y-216850000D03*
X86500000Y-214950000D03*
%TD*%
D46*
%TO.C,Q6*%
X105800000Y-234400000D03*
X107700000Y-234400000D03*
X106750000Y-232525000D03*
%TD*%
D12*
%TO.C,R39*%
X152800000Y-75487500D03*
X152800000Y-77312500D03*
%TD*%
D40*
%TO.C,D11*%
X102040625Y-196640625D03*
X99240625Y-196640625D03*
%TD*%
D14*
%TO.C,C14*%
X109700000Y-234650000D03*
X109700000Y-232750000D03*
%TD*%
D13*
%TO.C,R26*%
X86637500Y-150400000D03*
X92562500Y-150400000D03*
%TD*%
D10*
%TO.C,R42*%
X106600000Y-227712500D03*
X106600000Y-225887500D03*
%TD*%
D34*
%TO.C,C21*%
X104500000Y-202050000D03*
X104500000Y-203950000D03*
%TD*%
D15*
%TO.C,R30*%
X103912500Y-187750000D03*
X102087500Y-187750000D03*
%TD*%
D22*
%TO.C,D3*%
X92750000Y-249750000D03*
X92750000Y-247875000D03*
%TD*%
D13*
%TO.C,R24*%
X86637500Y-140620000D03*
X92562500Y-140620000D03*
%TD*%
D12*
%TO.C,R11*%
X88000000Y-181337500D03*
X88000000Y-183162500D03*
%TD*%
D14*
%TO.C,C33*%
X81000000Y-74700000D03*
X81000000Y-72800000D03*
%TD*%
D47*
%TO.C,U2*%
X86950000Y-108037500D03*
X87900000Y-108037500D03*
X88850000Y-108037500D03*
X88850000Y-105762500D03*
X86950000Y-105762500D03*
%TD*%
D34*
%TO.C,C5*%
X108700000Y-225850000D03*
X108700000Y-227750000D03*
%TD*%
D10*
%TO.C,R45*%
X91600000Y-203925000D03*
X91600000Y-202100000D03*
%TD*%
D12*
%TO.C,R34*%
X81000000Y-76837500D03*
X81000000Y-78662500D03*
%TD*%
D34*
%TO.C,C9*%
X83400000Y-225800000D03*
X83400000Y-227700000D03*
%TD*%
D28*
%TO.C,R47*%
X107387500Y-211600000D03*
X109212500Y-211600000D03*
%TD*%
D10*
%TO.C,R40*%
X153200000Y-59512500D03*
X153200000Y-57687500D03*
%TD*%
D39*
%TO.C,C37*%
X96475000Y-84750000D03*
X93525000Y-84750000D03*
%TD*%
D34*
%TO.C,C8*%
X83800000Y-218550000D03*
X83800000Y-220450000D03*
%TD*%
D10*
%TO.C,R37*%
X96100000Y-227700000D03*
X96100000Y-225875000D03*
%TD*%
%TO.C,R15*%
X98200000Y-227700000D03*
X98200000Y-225875000D03*
%TD*%
%TO.C,R12*%
X81500000Y-178912500D03*
X81500000Y-177087500D03*
%TD*%
%TO.C,R49*%
X95800000Y-203925000D03*
X95800000Y-202100000D03*
%TD*%
D13*
%TO.C,R22*%
X86637500Y-119200000D03*
X92562500Y-119200000D03*
%TD*%
D31*
%TO.C,C48*%
X156000000Y-33875000D03*
X156000000Y-30925000D03*
%TD*%
D41*
%TO.C,Q7*%
X156975000Y-26650000D03*
X156975000Y-24750000D03*
X155100000Y-25700000D03*
%TD*%
D12*
%TO.C,R50*%
X97900000Y-202087500D03*
X97900000Y-203912500D03*
%TD*%
D28*
%TO.C,R1*%
X99087500Y-165800000D03*
X100912500Y-165800000D03*
%TD*%
D13*
%TO.C,R27*%
X86637500Y-155290000D03*
X92562500Y-155290000D03*
%TD*%
D48*
%TO.C,D6*%
X117200000Y-220850000D03*
X117200000Y-224150000D03*
%TD*%
D30*
%TO.C,U16*%
X170350000Y-95300000D03*
X169100000Y-95300000D03*
X170350000Y-84300000D03*
X169100000Y-84300000D03*
X160350000Y-84300000D03*
X159100000Y-84300000D03*
X157850000Y-95300000D03*
X157850000Y-84300000D03*
X156600000Y-95300000D03*
X156600000Y-84300000D03*
X160350000Y-95300000D03*
X159100000Y-95300000D03*
%TD*%
D10*
%TO.C,R38*%
X172000000Y-72112500D03*
X172000000Y-70287500D03*
%TD*%
D15*
%TO.C,R20*%
X109212500Y-216000000D03*
X107387500Y-216000000D03*
%TD*%
D38*
%TO.C,C20*%
X107350000Y-207200000D03*
X109250000Y-207200000D03*
%TD*%
D12*
%TO.C,R7*%
X100300000Y-225875000D03*
X100300000Y-227700000D03*
%TD*%
D34*
%TO.C,C11*%
X86250000Y-173300000D03*
X86250000Y-175200000D03*
%TD*%
D31*
%TO.C,C43*%
X156000000Y-70075000D03*
X156000000Y-67125000D03*
%TD*%
M02*
