%TF.GenerationSoftware,KiCad,Pcbnew,9.0.0*%
%TF.CreationDate,2025-06-29T21:09:51-04:00*%
%TF.ProjectId,RampedFetCoil,52616d70-6564-4466-9574-436f696c2e6b,rev?*%
%TF.SameCoordinates,Original*%
%TF.FileFunction,Copper,L2,Bot*%
%TF.FilePolarity,Positive*%
%FSLAX46Y46*%
G04 Gerber Fmt 4.6, Leading zero omitted, Abs format (unit mm)*
G04 Created by KiCad (PCBNEW 9.0.0) date 2025-06-29 21:09:51*
%MOMM*%
%LPD*%
G01*
G04 APERTURE LIST*
%TA.AperFunction,ComponentPad*%
%ADD10C,1.650000*%
%TD*%
%TA.AperFunction,ComponentPad*%
%ADD11C,0.900000*%
%TD*%
%TA.AperFunction,ComponentPad*%
%ADD12C,8.600000*%
%TD*%
%TA.AperFunction,ComponentPad*%
%ADD13R,1.422400X1.422400*%
%TD*%
%TA.AperFunction,ComponentPad*%
%ADD14C,1.422400*%
%TD*%
%TA.AperFunction,ComponentPad*%
%ADD15C,1.700000*%
%TD*%
%TA.AperFunction,ComponentPad*%
%ADD16C,1.905000*%
%TD*%
%TA.AperFunction,ComponentPad*%
%ADD17C,4.000000*%
%TD*%
%TA.AperFunction,ComponentPad*%
%ADD18C,1.408000*%
%TD*%
%TA.AperFunction,ComponentPad*%
%ADD19C,1.000000*%
%TD*%
%TA.AperFunction,ComponentPad*%
%ADD20C,2.500000*%
%TD*%
%TA.AperFunction,ComponentPad*%
%ADD21R,3.000000X3.000000*%
%TD*%
%TA.AperFunction,ComponentPad*%
%ADD22C,3.000000*%
%TD*%
%TA.AperFunction,ComponentPad*%
%ADD23R,4.500000X1.905000*%
%TD*%
%TA.AperFunction,ComponentPad*%
%ADD24O,4.500000X1.905000*%
%TD*%
%TA.AperFunction,ComponentPad*%
%ADD25R,1.371600X1.371600*%
%TD*%
%TA.AperFunction,ComponentPad*%
%ADD26C,1.371600*%
%TD*%
%TA.AperFunction,ComponentPad*%
%ADD27R,2.700000X2.700000*%
%TD*%
%TA.AperFunction,ComponentPad*%
%ADD28C,2.700000*%
%TD*%
%TA.AperFunction,ComponentPad*%
%ADD29C,1.400000*%
%TD*%
%TA.AperFunction,ComponentPad*%
%ADD30R,2.030000X1.730000*%
%TD*%
%TA.AperFunction,ComponentPad*%
%ADD31O,2.030000X1.730000*%
%TD*%
%TA.AperFunction,ComponentPad*%
%ADD32C,1.600000*%
%TD*%
%TA.AperFunction,ComponentPad*%
%ADD33O,1.600000X1.600000*%
%TD*%
%TA.AperFunction,ComponentPad*%
%ADD34R,4.500000X2.500000*%
%TD*%
%TA.AperFunction,ComponentPad*%
%ADD35O,4.500000X2.500000*%
%TD*%
%TA.AperFunction,ComponentPad*%
%ADD36C,1.800000*%
%TD*%
%TA.AperFunction,ComponentPad*%
%ADD37R,2.300000X2.300000*%
%TD*%
%TA.AperFunction,ComponentPad*%
%ADD38C,2.300000*%
%TD*%
%TA.AperFunction,ComponentPad*%
%ADD39C,1.308000*%
%TD*%
%TA.AperFunction,SMDPad,CuDef*%
%ADD40R,1.500000X1.500000*%
%TD*%
%TA.AperFunction,ViaPad*%
%ADD41C,0.600000*%
%TD*%
%TA.AperFunction,Conductor*%
%ADD42C,0.500000*%
%TD*%
%TA.AperFunction,Conductor*%
%ADD43C,1.000000*%
%TD*%
G04 APERTURE END LIST*
D10*
%TO.P,C29,1*%
%TO.N,VBUS*%
X141600000Y-163550000D03*
%TO.P,C29,2*%
%TO.N,GND*%
X141600000Y-186050000D03*
%TD*%
D11*
%TO.P,H6,1,1*%
%TO.N,unconnected-(H6-Pad1)_7*%
X80525000Y-132500000D03*
%TO.N,unconnected-(H6-Pad1)*%
X81469581Y-130219581D03*
%TO.N,unconnected-(H6-Pad1)_1*%
X81469581Y-134780419D03*
%TO.N,unconnected-(H6-Pad1)_2*%
X83750000Y-129275000D03*
D12*
%TO.N,unconnected-(H6-Pad1)_4*%
X83750000Y-132500000D03*
D11*
%TO.N,unconnected-(H6-Pad1)_6*%
X83750000Y-135725000D03*
%TO.N,unconnected-(H6-Pad1)_5*%
X86030419Y-130219581D03*
%TO.N,unconnected-(H6-Pad1)_3*%
X86030419Y-134780419D03*
%TO.N,unconnected-(H6-Pad1)_8*%
X86975000Y-132500000D03*
%TD*%
D13*
%TO.P,TH1,1*%
%TO.N,ACI1*%
X147200000Y-227200000D03*
D14*
%TO.P,TH1,2*%
%TO.N,ACI2*%
X147200000Y-222200000D03*
%TD*%
D15*
%TO.P,J2,1,Shield*%
%TO.N,GND*%
X81195406Y-202454594D03*
X81195406Y-207534594D03*
X81195406Y-212614594D03*
X81195406Y-217694594D03*
X81195406Y-222774594D03*
X81195406Y-227854594D03*
X83745406Y-199904594D03*
X83745406Y-230404594D03*
X88825406Y-199904594D03*
X88825406Y-230404594D03*
X93905406Y-199904594D03*
X93905406Y-230404594D03*
X98985406Y-199904594D03*
X98985406Y-230404594D03*
X104065406Y-199904594D03*
X104065406Y-230404594D03*
X109145406Y-199904594D03*
X109145406Y-230404594D03*
X111695406Y-202454594D03*
X111695406Y-207534594D03*
X111695406Y-212614594D03*
X111695406Y-217694594D03*
X111695406Y-222774594D03*
X111695406Y-227854594D03*
%TD*%
D16*
%TO.P,J4,1,Pin_1*%
%TO.N,SW2*%
X159940000Y-41200000D03*
X154860000Y-41200000D03*
%TD*%
D17*
%TO.P,HS2,1*%
%TO.N,unconnected-(HS2-Pad1)_1*%
X108500000Y-158186000D03*
%TO.N,unconnected-(HS2-Pad1)*%
X108500000Y-104250000D03*
%TD*%
D18*
%TO.P,C13,1*%
%TO.N,+12V*%
X88250000Y-188500000D03*
%TO.P,C13,2*%
%TO.N,GND*%
X88250000Y-193500000D03*
%TD*%
D19*
%TO.P,NE1,1*%
%TO.N,Net-(NE1-Pad1)*%
X111000000Y-245800000D03*
%TO.P,NE1,2*%
%TO.N,GND*%
X111000000Y-248800000D03*
%TD*%
D11*
%TO.P,H5,1,1*%
%TO.N,unconnected-(H5-Pad1)_1*%
X166025000Y-27750000D03*
%TO.N,unconnected-(H5-Pad1)*%
X166969581Y-25469581D03*
%TO.N,unconnected-(H5-Pad1)_8*%
X166969581Y-30030419D03*
%TO.N,unconnected-(H5-Pad1)_4*%
X169250000Y-24525000D03*
D12*
%TO.N,unconnected-(H5-Pad1)_2*%
X169250000Y-27750000D03*
D11*
%TO.N,unconnected-(H5-Pad1)_6*%
X169250000Y-30975000D03*
%TO.N,unconnected-(H5-Pad1)_3*%
X171530419Y-25469581D03*
%TO.N,unconnected-(H5-Pad1)_7*%
X171530419Y-30030419D03*
%TO.N,unconnected-(H5-Pad1)_5*%
X172475000Y-27750000D03*
%TD*%
D20*
%TO.P,FL2,1,1*%
%TO.N,Net-(C27-Pad2)*%
X154500000Y-198500000D03*
%TO.P,FL2,2,2*%
%TO.N,AC1*%
X166500000Y-198500000D03*
%TO.P,FL2,3,3*%
%TO.N,Net-(C28-Pad1)*%
X154500000Y-208500000D03*
%TO.P,FL2,4,4*%
%TO.N,AC2*%
X166500000Y-208500000D03*
%TD*%
D16*
%TO.P,J7,1,Pin_1*%
%TO.N,GND*%
X161000000Y-148750000D03*
X161000000Y-143670000D03*
%TD*%
D11*
%TO.P,H7,1,1*%
%TO.N,unconnected-(H7-Pad1)_8*%
X166025000Y-132500000D03*
%TO.N,unconnected-(H7-Pad1)_4*%
X166969581Y-130219581D03*
%TO.N,unconnected-(H7-Pad1)_1*%
X166969581Y-134780419D03*
%TO.N,unconnected-(H7-Pad1)_6*%
X169250000Y-129275000D03*
D12*
%TO.N,unconnected-(H7-Pad1)_2*%
X169250000Y-132500000D03*
D11*
%TO.N,unconnected-(H7-Pad1)_5*%
X169250000Y-135725000D03*
%TO.N,unconnected-(H7-Pad1)*%
X171530419Y-130219581D03*
%TO.N,unconnected-(H7-Pad1)_3*%
X171530419Y-134780419D03*
%TO.N,unconnected-(H7-Pad1)_7*%
X172475000Y-132500000D03*
%TD*%
D21*
%TO.P,C17,1*%
%TO.N,VBUS*%
X142750000Y-113000000D03*
D22*
%TO.P,C17,2*%
%TO.N,AC2*%
X142750000Y-123000000D03*
%TD*%
D23*
%TO.P,Q4,1,D*%
%TO.N,SW2*%
X147400000Y-88400000D03*
D24*
%TO.P,Q4,2,S*%
%TO.N,GND*%
X147400000Y-83320000D03*
%TO.P,Q4,3,DS*%
%TO.N,K_L2*%
X147400000Y-80780000D03*
%TO.P,Q4,4,G*%
%TO.N,G_L2*%
X147400000Y-78240000D03*
%TD*%
D23*
%TO.P,Q3,1,D*%
%TO.N,VBUS*%
X147400000Y-66960000D03*
D24*
%TO.P,Q3,2,S*%
%TO.N,SW2*%
X147400000Y-61880000D03*
%TO.P,Q3,3,DS*%
%TO.N,K_U2*%
X147400000Y-59340000D03*
%TO.P,Q3,4,G*%
%TO.N,G_U2*%
X147400000Y-56800000D03*
%TD*%
D25*
%TO.P,C28,1*%
%TO.N,Net-(C28-Pad1)*%
X144500000Y-214600000D03*
D26*
%TO.P,C28,2*%
%TO.N,Earth_Protective*%
X144500000Y-204600000D03*
%TD*%
D23*
%TO.P,Q2,1,D*%
%TO.N,SW1*%
X104500000Y-78590000D03*
D24*
%TO.P,Q2,2,S*%
%TO.N,GND*%
X104500000Y-83670000D03*
%TO.P,Q2,3,DS*%
%TO.N,K_L1*%
X104500000Y-86210000D03*
%TO.P,Q2,4,G*%
%TO.N,G_L1*%
X104500000Y-88750000D03*
%TD*%
D25*
%TO.P,C27,1*%
%TO.N,Earth_Protective*%
X144500000Y-202100000D03*
D26*
%TO.P,C27,2*%
%TO.N,Net-(C27-Pad2)*%
X144500000Y-192100000D03*
%TD*%
D10*
%TO.P,C22,1*%
%TO.N,AC1*%
X157800000Y-185950000D03*
%TO.P,C22,2*%
%TO.N,AC2*%
X157800000Y-163450000D03*
%TD*%
D16*
%TO.P,J5,1,Pin_1*%
%TO.N,Net-(J5-Pin_1)*%
X84500000Y-42790000D03*
X84500000Y-37710000D03*
%TD*%
D23*
%TO.P,Q1,1,D*%
%TO.N,VBUS*%
X104500000Y-56750000D03*
D24*
%TO.P,Q1,2,S*%
%TO.N,SW1*%
X104500000Y-61830000D03*
%TO.P,Q1,3,DS*%
%TO.N,K_U1*%
X104500000Y-64370000D03*
%TO.P,Q1,4,G*%
%TO.N,G_U1*%
X104500000Y-66910000D03*
%TD*%
D27*
%TO.P,J3,1,L*%
%TO.N,ACI1*%
X132500000Y-235312500D03*
D28*
%TO.P,J3,2,E*%
%TO.N,Earth_Protective*%
X139500000Y-235312500D03*
%TO.P,J3,3,N*%
%TO.N,Net-(J3-N)*%
X146500000Y-235312500D03*
%TD*%
D29*
%TO.P,U9,1,GND*%
%TO.N,GND*%
X101695000Y-247682500D03*
%TO.P,U9,2,OUT*%
%TO.N,Net-(Q6-G)*%
X103600000Y-247682500D03*
%TO.P,U9,3,VCC*%
%TO.N,+12V*%
X105505000Y-247682500D03*
%TD*%
D30*
%TO.P,M1,1,-*%
%TO.N,GND*%
X149950000Y-33300000D03*
D31*
%TO.P,M1,2,+*%
%TO.N,+12V*%
X149950000Y-30760000D03*
%TO.P,M1,3,Tacho*%
%TO.N,unconnected-(M1-Tacho-Pad3)*%
X149950000Y-28220000D03*
%TO.P,M1,4,PWM*%
%TO.N,Net-(M1-PWM)*%
X149950000Y-25680000D03*
%TD*%
D10*
%TO.P,C25,1*%
%TO.N,VBUS*%
X125400000Y-163550000D03*
%TO.P,C25,2*%
%TO.N,GND*%
X125400000Y-186050000D03*
%TD*%
D11*
%TO.P,H9,1,1*%
%TO.N,unconnected-(H9-Pad1)_4*%
X80525000Y-246750000D03*
%TO.N,unconnected-(H9-Pad1)_6*%
X81469581Y-244469581D03*
%TO.N,unconnected-(H9-Pad1)_1*%
X81469581Y-249030419D03*
%TO.N,unconnected-(H9-Pad1)*%
X83750000Y-243525000D03*
D12*
%TO.N,unconnected-(H9-Pad1)_8*%
X83750000Y-246750000D03*
D11*
%TO.N,unconnected-(H9-Pad1)_3*%
X83750000Y-249975000D03*
%TO.N,unconnected-(H9-Pad1)_2*%
X86030419Y-244469581D03*
%TO.N,unconnected-(H9-Pad1)_7*%
X86030419Y-249030419D03*
%TO.N,unconnected-(H9-Pad1)_5*%
X86975000Y-246750000D03*
%TD*%
D17*
%TO.P,HS1,1*%
%TO.N,unconnected-(HS1-Pad1)*%
X108500000Y-45814000D03*
%TO.N,unconnected-(HS1-Pad1)_2*%
X108500000Y-99750000D03*
%TO.N,unconnected-(HS1-Pad1)_3*%
X143200000Y-45814000D03*
%TO.N,unconnected-(HS1-Pad1)_1*%
X143200000Y-99750000D03*
%TD*%
D11*
%TO.P,H8,1,1*%
%TO.N,unconnected-(H8-Pad1)_4*%
X80525000Y-27750000D03*
%TO.N,unconnected-(H8-Pad1)_8*%
X81469581Y-25469581D03*
%TO.N,unconnected-(H8-Pad1)*%
X81469581Y-30030419D03*
%TO.N,unconnected-(H8-Pad1)_6*%
X83750000Y-24525000D03*
D12*
%TO.N,unconnected-(H8-Pad1)_2*%
X83750000Y-27750000D03*
D11*
%TO.N,unconnected-(H8-Pad1)_5*%
X83750000Y-30975000D03*
%TO.N,unconnected-(H8-Pad1)_7*%
X86030419Y-25469581D03*
%TO.N,unconnected-(H8-Pad1)_1*%
X86030419Y-30030419D03*
%TO.N,unconnected-(H8-Pad1)_3*%
X86975000Y-27750000D03*
%TD*%
D20*
%TO.P,FL1,1,1*%
%TO.N,Net-(J3-N)*%
X122700000Y-198600000D03*
%TO.P,FL1,2,2*%
%TO.N,Net-(C27-Pad2)*%
X134700000Y-198600000D03*
%TO.P,FL1,3,3*%
%TO.N,ACI2*%
X122700000Y-208600000D03*
%TO.P,FL1,4,4*%
%TO.N,Net-(C28-Pad1)*%
X134700000Y-208600000D03*
%TD*%
D32*
%TO.P,R51,1*%
%TO.N,VBUS*%
X111000000Y-238655000D03*
D33*
%TO.P,R51,2*%
%TO.N,Net-(NE1-Pad1)*%
X111000000Y-241195000D03*
%TD*%
D16*
%TO.P,J6,1,Pin_1*%
%TO.N,VBUS*%
X161000000Y-120500000D03*
X161000000Y-115420000D03*
%TD*%
D34*
%TO.P,D9,1,K*%
%TO.N,VBUS*%
X104500000Y-112486000D03*
D35*
%TO.P,D9,2,A*%
%TO.N,AC1*%
X104500000Y-123386000D03*
%TD*%
D34*
%TO.P,D10,1,K*%
%TO.N,AC1*%
X104500000Y-136986000D03*
D35*
%TO.P,D10,2,A*%
%TO.N,GND*%
X104500000Y-147886000D03*
%TD*%
D36*
%TO.P,RV1,1*%
%TO.N,AC1*%
X157650000Y-224500000D03*
%TO.P,RV1,2*%
%TO.N,AC2*%
X165150000Y-225900000D03*
%TD*%
D37*
%TO.P,K2,1*%
%TO.N,Net-(D6-A)*%
X121500000Y-228820000D03*
D38*
%TO.P,K2,2*%
%TO.N,ACI2*%
X131660000Y-228820000D03*
%TO.P,K2,3*%
%TO.N,ACI1*%
X139280000Y-228820000D03*
%TO.P,K2,4*%
%TO.N,unconnected-(K2-Pad4)*%
X136740000Y-221200000D03*
%TO.P,K2,5*%
%TO.N,+12V*%
X121500000Y-221200000D03*
%TD*%
D11*
%TO.P,H4,1,1*%
%TO.N,Earth_Protective*%
X166025000Y-246750000D03*
X166969581Y-244469581D03*
X166969581Y-249030419D03*
X169250000Y-243525000D03*
D12*
X169250000Y-246750000D03*
D11*
X169250000Y-249975000D03*
X171530419Y-244469581D03*
X171530419Y-249030419D03*
X172475000Y-246750000D03*
%TD*%
D39*
%TO.P,C12,1*%
%TO.N,Net-(D8-K)*%
X92750000Y-181000000D03*
%TO.P,C12,2*%
%TO.N,Net-(D7-K)*%
X92750000Y-179000000D03*
%TD*%
D21*
%TO.P,C16,1*%
%TO.N,AC2*%
X142750000Y-141500000D03*
D22*
%TO.P,C16,2*%
%TO.N,GND*%
X142750000Y-151500000D03*
%TD*%
D40*
%TO.P,TP4,1,1*%
%TO.N,+3V3*%
X85800000Y-202750000D03*
%TD*%
%TO.P,TP1,1,1*%
%TO.N,Net-(U1-PB0)*%
X85800000Y-205600000D03*
%TD*%
%TO.P,TP3,1,1*%
%TO.N,Net-(U1-PA6)*%
X88700000Y-202700000D03*
%TD*%
%TO.P,TP2,1,1*%
%TO.N,Net-(U1-PA7)*%
X88700000Y-205550000D03*
%TD*%
D41*
%TO.N,GND*%
X114500000Y-84600000D03*
X114500000Y-85350000D03*
X116000000Y-83100000D03*
X113000000Y-82350000D03*
X138750000Y-82950000D03*
X136500000Y-86700000D03*
X95390000Y-241300000D03*
X89751000Y-102200000D03*
X84600000Y-221800000D03*
X137250000Y-85950000D03*
X167400000Y-62000000D03*
X82400000Y-163400000D03*
X114500000Y-83100000D03*
X108500000Y-169250000D03*
X113000000Y-86100000D03*
X168050000Y-98350000D03*
X138000000Y-85950000D03*
X101281415Y-210495197D03*
X137250000Y-83700000D03*
X137250000Y-82950000D03*
X84637500Y-71237500D03*
X138750000Y-85200000D03*
X138000000Y-82200000D03*
X138000000Y-82950000D03*
X106400000Y-224200000D03*
X115250000Y-85350000D03*
X113750000Y-83100000D03*
X113750000Y-84600000D03*
X138750000Y-85950000D03*
X114500000Y-81600000D03*
X85400000Y-86600000D03*
X89300000Y-211400000D03*
X167800000Y-82400000D03*
X115250000Y-82350000D03*
X170400000Y-72435000D03*
X114500000Y-82350000D03*
X116000000Y-84600000D03*
X103300000Y-221100000D03*
X113000000Y-83100000D03*
X137250000Y-85200000D03*
X135750000Y-85200000D03*
X108500000Y-171250000D03*
X116000000Y-85350000D03*
X108500000Y-170250000D03*
X101000000Y-216750000D03*
X82400000Y-76365000D03*
X135750000Y-85950000D03*
X110500000Y-164500000D03*
X114500000Y-83850000D03*
X135750000Y-82200000D03*
X115250000Y-83850000D03*
X138000000Y-86700000D03*
X115250000Y-86100000D03*
X113750000Y-86100000D03*
X113750000Y-83850000D03*
X115250000Y-84600000D03*
X96500000Y-249750000D03*
X136500000Y-82200000D03*
X88721575Y-207778819D03*
X87400000Y-221500000D03*
X113750000Y-81600000D03*
X101250000Y-187750000D03*
X84600000Y-105200000D03*
X138000000Y-84450000D03*
X85500000Y-211012500D03*
X113000000Y-81600000D03*
X113000000Y-84600000D03*
X115250000Y-83100000D03*
X116000000Y-82350000D03*
X113000000Y-85350000D03*
X135750000Y-86700000D03*
X87400000Y-214000000D03*
X116000000Y-81600000D03*
X138750000Y-84450000D03*
X135750000Y-82950000D03*
X91500000Y-249750000D03*
X113000000Y-83850000D03*
X113750000Y-82350000D03*
X137250000Y-86700000D03*
X136500000Y-84450000D03*
X166400000Y-98300000D03*
X116000000Y-83850000D03*
X119200000Y-192300000D03*
X138750000Y-86700000D03*
X110500000Y-165250000D03*
X116000000Y-86100000D03*
X113750000Y-85350000D03*
X114500000Y-86100000D03*
X135750000Y-84450000D03*
X136500000Y-85950000D03*
X135750000Y-83700000D03*
X99200000Y-195400000D03*
X136500000Y-82950000D03*
X82700000Y-175900000D03*
X115250000Y-81600000D03*
X138000000Y-83700000D03*
X136500000Y-85200000D03*
X113562500Y-196300000D03*
X137250000Y-84450000D03*
X138000000Y-85200000D03*
X138750000Y-82200000D03*
X136500000Y-83700000D03*
X137250000Y-82200000D03*
X138750000Y-83700000D03*
%TO.N,+3V3*%
X106100000Y-221900000D03*
X106100000Y-217300000D03*
X170125000Y-74075000D03*
X84400000Y-204150000D03*
X85800000Y-109400000D03*
X88400000Y-240900000D03*
X171300000Y-99300000D03*
X85500000Y-223100000D03*
X83000000Y-195725000D03*
X91600000Y-241000000D03*
X105400000Y-224600000D03*
X113500000Y-216500000D03*
%TO.N,+12V*%
X155187500Y-29900000D03*
X170275000Y-61800000D03*
X116700000Y-207300000D03*
X82400000Y-71600000D03*
X115400000Y-186000000D03*
X169947000Y-104400000D03*
X82200000Y-82600000D03*
X108600000Y-186000000D03*
X171600000Y-80400000D03*
%TO.N,VBUS*%
X118100000Y-192300000D03*
X123201592Y-183992890D03*
%TO.N,SW1*%
X107000000Y-42000000D03*
X108500000Y-38250000D03*
X105500000Y-36750000D03*
X108500000Y-37500000D03*
X106250000Y-42000000D03*
X105500000Y-38250000D03*
X107750000Y-39750000D03*
X105500000Y-41250000D03*
X110000000Y-39000000D03*
X106250000Y-39750000D03*
X108500000Y-41250000D03*
X107750000Y-38250000D03*
X106250000Y-36750000D03*
X105500000Y-37500000D03*
X109250000Y-39750000D03*
X110000000Y-37500000D03*
X110750000Y-39000000D03*
X108500000Y-36750000D03*
X109250000Y-39000000D03*
X107750000Y-41250000D03*
X107750000Y-37500000D03*
X107000000Y-38250000D03*
X107000000Y-39000000D03*
X110000000Y-41250000D03*
X109250000Y-40500000D03*
X105500000Y-40500000D03*
X110750000Y-41250000D03*
X108500000Y-42000000D03*
X105500000Y-39750000D03*
X107000000Y-36750000D03*
X106250000Y-37500000D03*
X109250000Y-37500000D03*
X105500000Y-42000000D03*
X110000000Y-38250000D03*
X110000000Y-39750000D03*
X108500000Y-40500000D03*
X110750000Y-37500000D03*
X110750000Y-39750000D03*
X106250000Y-39000000D03*
X105500000Y-39000000D03*
X107750000Y-42000000D03*
X106250000Y-41250000D03*
X107000000Y-39750000D03*
X106250000Y-40500000D03*
X107750000Y-36750000D03*
X108500000Y-39000000D03*
X108500000Y-39750000D03*
X107000000Y-40500000D03*
X109250000Y-42000000D03*
X107750000Y-40500000D03*
X110000000Y-42000000D03*
X107750000Y-39000000D03*
X106250000Y-38250000D03*
X109250000Y-36750000D03*
X110750000Y-36750000D03*
X110750000Y-42000000D03*
X109250000Y-38250000D03*
X109250000Y-41250000D03*
X110000000Y-36750000D03*
X107000000Y-41250000D03*
X110000000Y-40500000D03*
X110750000Y-40500000D03*
X110750000Y-38250000D03*
X107000000Y-37500000D03*
%TO.N,NRST*%
X94500000Y-215565686D03*
X97200000Y-223700000D03*
%TO.N,GD_B*%
X86500000Y-219000000D03*
X106200000Y-209400000D03*
%TO.N,GD_A*%
X85050000Y-220750000D03*
X91600000Y-205000000D03*
%TO.N,TDO*%
X95000000Y-224500000D03*
X98000000Y-221328427D03*
%TO.N,GD_DIS*%
X106400000Y-211600000D03*
X85400000Y-219750000D03*
X93500000Y-204900000D03*
%TO.N,CTI+*%
X94670000Y-51000000D03*
X94670000Y-51670000D03*
X112750000Y-164250000D03*
%TO.N,CTI-*%
X99750000Y-51750000D03*
X99750000Y-51000000D03*
X113951000Y-163752530D03*
%TO.N,FAN*%
X158800000Y-26700000D03*
X114630331Y-218030331D03*
%TO.N,Net-(U6-V_{OUT})*%
X165557832Y-98942168D03*
X114695682Y-214295682D03*
%TO.N,K_L1*%
X95000000Y-87000000D03*
X97250000Y-87000000D03*
%TO.N,K_U2*%
X155600000Y-62200000D03*
X157800000Y-61400000D03*
%TO.N,GD_U1_+*%
X93500000Y-67250000D03*
X93500000Y-63750000D03*
%TO.N,GD_L1_-*%
X92999641Y-87009420D03*
X90971737Y-86984384D03*
%TO.N,GD_U2_-*%
X162600000Y-65000000D03*
X159400000Y-66200000D03*
%TO.N,GD_L2_+*%
X159100000Y-82300000D03*
X159100000Y-86500000D03*
%TO.N,Net-(U1-PB0)*%
X89250985Y-206850000D03*
%TO.N,Net-(U11-INB)*%
X85800000Y-197400000D03*
X87900000Y-104800000D03*
%TO.N,Net-(U11-DIS)*%
X85800000Y-77750000D03*
X85700000Y-196600000D03*
X89000000Y-102750000D03*
X89000000Y-77750000D03*
%TO.N,Net-(U14-DIS)*%
X170400000Y-71200000D03*
X115584123Y-207376539D03*
%TO.N,Net-(U14-INA)*%
X166234649Y-88565351D03*
X114800000Y-207100000D03*
%TO.N,Net-(U1-PA7)*%
X90085556Y-206762819D03*
%TO.N,Net-(U1-PA6)*%
X90820485Y-205179888D03*
%TD*%
D42*
%TO.N,GND*%
X171349000Y-201216456D02*
X168662456Y-203903000D01*
X167800000Y-75035000D02*
X167800000Y-82400000D01*
X168050000Y-98350000D02*
X171398000Y-101698000D01*
X115008636Y-215600000D02*
X112587919Y-215600000D01*
X82400000Y-76365000D02*
X82400000Y-73475000D01*
X136284728Y-204598000D02*
X121419272Y-204598000D01*
X155762456Y-203903000D02*
X155761456Y-203904000D01*
X170400000Y-72435000D02*
X171151000Y-71684000D01*
X88825000Y-101275000D02*
X86550000Y-99000000D01*
X171399000Y-103798561D02*
X171399000Y-105001439D01*
X118399000Y-212209636D02*
X115008636Y-215600000D01*
X89750000Y-102200000D02*
X88825000Y-101275000D01*
X171151000Y-71684000D02*
X171151000Y-65751000D01*
X163097000Y-135479728D02*
X171349000Y-143731728D01*
X155761456Y-203904000D02*
X153438544Y-203904000D01*
X171398000Y-101698000D02*
X171398000Y-103797561D01*
X111695406Y-216492513D02*
X111695406Y-217694594D01*
X86550000Y-86600000D02*
X85400000Y-86600000D01*
X153437544Y-203903000D02*
X152337544Y-203903000D01*
X163097000Y-129720272D02*
X163097000Y-135479728D01*
X119200000Y-192300000D02*
X119200000Y-189600000D01*
X86550000Y-99000000D02*
X86550000Y-80515000D01*
X86550000Y-80515000D02*
X82400000Y-76365000D01*
X167800000Y-98100000D02*
X168050000Y-98350000D01*
X152337544Y-203903000D02*
X146538544Y-198104000D01*
X168662456Y-203903000D02*
X155762456Y-203903000D01*
X119200000Y-189600000D02*
X122750000Y-186050000D01*
X142778728Y-198104000D02*
X136284728Y-204598000D01*
X171349000Y-121468272D02*
X163097000Y-129720272D01*
X112587919Y-215600000D02*
X111695406Y-216492513D01*
X171399000Y-105001439D02*
X171349000Y-105051439D01*
X167800000Y-82400000D02*
X167800000Y-98100000D01*
X171151000Y-65751000D02*
X167400000Y-62000000D01*
X171349000Y-105051439D02*
X171349000Y-121468272D01*
X166400000Y-98300000D02*
X166450000Y-98350000D01*
X122750000Y-186050000D02*
X125400000Y-186050000D01*
X146538544Y-198104000D02*
X142778728Y-198104000D01*
X88525000Y-101275000D02*
X84600000Y-105200000D01*
X118399000Y-207618272D02*
X118399000Y-212209636D01*
X82400000Y-73475000D02*
X84637500Y-71237500D01*
X171349000Y-143731728D02*
X171349000Y-201216456D01*
X121419272Y-204598000D02*
X118399000Y-207618272D01*
X171398000Y-103797561D02*
X171399000Y-103798561D01*
X170400000Y-72435000D02*
X167800000Y-75035000D01*
X89751000Y-102200000D02*
X89750000Y-102200000D01*
X153438544Y-203904000D02*
X153437544Y-203903000D01*
X88825000Y-101275000D02*
X88525000Y-101275000D01*
X166450000Y-98350000D02*
X168050000Y-98350000D01*
%TO.N,+3V3*%
X121709636Y-205299000D02*
X119100000Y-207908636D01*
X81253000Y-113947000D02*
X81253000Y-121270272D01*
X172099000Y-103507197D02*
X172100000Y-103508197D01*
X89900000Y-227500000D02*
X95700000Y-227500000D01*
X106100000Y-222891364D02*
X105454982Y-223536382D01*
X106100000Y-221900000D02*
X106100000Y-217300000D01*
X81253000Y-121270272D02*
X89903000Y-129920272D01*
X143069092Y-198805000D02*
X136575092Y-205299000D01*
X168800000Y-96800000D02*
X168800000Y-75400000D01*
X95700000Y-227500000D02*
X102500000Y-227500000D01*
X172099000Y-121709636D02*
X163798000Y-130010636D01*
X136575092Y-205299000D02*
X121709636Y-205299000D01*
X172099000Y-143490364D02*
X172099000Y-201457820D01*
X171300000Y-99300000D02*
X168800000Y-96800000D01*
X172099000Y-201457820D02*
X168952820Y-204604000D01*
X82975000Y-195725000D02*
X83000000Y-195725000D01*
X153147180Y-204604000D02*
X152047180Y-204604000D01*
X89903000Y-135079728D02*
X81253000Y-143729728D01*
X168952820Y-204604000D02*
X156052820Y-204604000D01*
X146248180Y-198805000D02*
X143069092Y-198805000D01*
X85500000Y-223100000D02*
X89900000Y-227500000D01*
X119100000Y-207908636D02*
X119100000Y-212500000D01*
X105454982Y-224545018D02*
X105400000Y-224600000D01*
X156052820Y-204604000D02*
X156051820Y-204605000D01*
X84400000Y-204150000D02*
X85800000Y-202750000D01*
X91600000Y-241000000D02*
X88500000Y-241000000D01*
X153148180Y-204605000D02*
X153147180Y-204604000D01*
X171300000Y-99300000D02*
X172099000Y-100099000D01*
X85800000Y-109400000D02*
X81253000Y-113947000D01*
X172099000Y-100099000D02*
X172099000Y-103507197D01*
X115100000Y-216500000D02*
X113500000Y-216500000D01*
X81253000Y-194003000D02*
X82975000Y-195725000D01*
X163798000Y-135189364D02*
X172099000Y-143490364D01*
X89903000Y-129920272D02*
X89903000Y-135079728D01*
X168800000Y-75400000D02*
X170125000Y-74075000D01*
X163798000Y-130010636D02*
X163798000Y-135189364D01*
X172099000Y-105292803D02*
X172099000Y-121709636D01*
X152047180Y-204604000D02*
X146248180Y-198805000D01*
X119100000Y-212500000D02*
X115100000Y-216500000D01*
X172100000Y-103508197D02*
X172100000Y-105291803D01*
X156051820Y-204605000D02*
X153148180Y-204605000D01*
X88500000Y-241000000D02*
X88400000Y-240900000D01*
X172100000Y-105291803D02*
X172099000Y-105292803D01*
X105454982Y-223536382D02*
X105454982Y-224545018D01*
X106100000Y-221900000D02*
X106100000Y-222891364D01*
X102500000Y-227500000D02*
X105400000Y-224600000D01*
X81253000Y-143729728D02*
X81253000Y-194003000D01*
%TO.N,+12V*%
X155187500Y-29900000D02*
X160500000Y-29900000D01*
X116700000Y-207300000D02*
X116734544Y-207300000D01*
X115400000Y-186000000D02*
X108600000Y-186000000D01*
X169947000Y-144312456D02*
X161695000Y-136060456D01*
X160500000Y-29900000D02*
X171852000Y-41252000D01*
X81400000Y-72600000D02*
X81400000Y-81800000D01*
X161695000Y-136060456D02*
X161695000Y-129139544D01*
X168081728Y-202501000D02*
X169947000Y-200635728D01*
X171600000Y-80400000D02*
X171852000Y-80148000D01*
X169947000Y-120887544D02*
X169947000Y-104400000D01*
X161695000Y-129139544D02*
X169947000Y-120887544D01*
X171852000Y-41252000D02*
X171852000Y-61800000D01*
X135704000Y-203196000D02*
X142198000Y-196702000D01*
X155180728Y-202502000D02*
X155181728Y-202501000D01*
X169947000Y-200635728D02*
X169947000Y-144312456D01*
X120838544Y-203196000D02*
X135704000Y-203196000D01*
X82400000Y-71600000D02*
X81400000Y-72600000D01*
X170275000Y-61800000D02*
X171852000Y-61800000D01*
X147119272Y-196702000D02*
X152918272Y-202501000D01*
X155181728Y-202501000D02*
X168081728Y-202501000D01*
X116734544Y-207300000D02*
X120838544Y-203196000D01*
X171852000Y-80148000D02*
X171852000Y-61800000D01*
X142198000Y-196702000D02*
X147119272Y-196702000D01*
X81400000Y-81800000D02*
X82200000Y-82600000D01*
X154019272Y-202502000D02*
X155180728Y-202502000D01*
X154018272Y-202501000D02*
X154019272Y-202502000D01*
X152918272Y-202501000D02*
X154018272Y-202501000D01*
%TO.N,VBUS*%
X118100000Y-192300000D02*
X118100000Y-189094482D01*
X123201592Y-183992890D02*
X118100000Y-189094482D01*
%TO.N,NRST*%
X94500000Y-221000000D02*
X94500000Y-215565686D01*
X94500000Y-221000000D02*
X97200000Y-223700000D01*
%TO.N,GD_B*%
X86500000Y-219000000D02*
X86500000Y-222000000D01*
X90599000Y-226099000D02*
X100901000Y-226099000D01*
X104400000Y-211200000D02*
X106200000Y-209400000D01*
X104400000Y-222600000D02*
X104400000Y-211200000D01*
X86500000Y-222000000D02*
X90599000Y-226099000D01*
X100901000Y-226099000D02*
X104400000Y-222600000D01*
%TO.N,GD_A*%
X91600000Y-206400000D02*
X84649000Y-213351000D01*
X91600000Y-205000000D02*
X91600000Y-206400000D01*
X84649000Y-213351000D02*
X84649000Y-220349000D01*
X84649000Y-220349000D02*
X85050000Y-220750000D01*
%TO.N,TDO*%
X98000000Y-221328427D02*
X98000000Y-223962075D01*
X98000000Y-223962075D02*
X97462075Y-224500000D01*
X97462075Y-224500000D02*
X95000000Y-224500000D01*
%TO.N,GD_DIS*%
X85400000Y-213700000D02*
X85400000Y-219750000D01*
X85800000Y-220150000D02*
X85800000Y-222300000D01*
X105100000Y-222900000D02*
X105100000Y-212900000D01*
X90300000Y-226800000D02*
X101200000Y-226800000D01*
X105100000Y-212900000D02*
X106400000Y-211600000D01*
X101200000Y-226800000D02*
X105100000Y-222900000D01*
X93500000Y-205600000D02*
X85400000Y-213700000D01*
X85800000Y-222300000D02*
X90300000Y-226800000D01*
X85400000Y-219750000D02*
X85800000Y-220150000D01*
X93500000Y-204900000D02*
X93500000Y-205600000D01*
D43*
%TO.N,CTI+*%
X111500001Y-163000001D02*
X112750000Y-164250000D01*
X94670000Y-51000000D02*
X94670000Y-51670000D01*
X98549000Y-55549000D02*
X98549000Y-157497470D01*
X98549000Y-157497470D02*
X104051530Y-163000000D01*
X94670000Y-51670000D02*
X98549000Y-55549000D01*
X104051530Y-163000000D02*
X111500001Y-163000001D01*
%TO.N,CTI-*%
X113951000Y-163752530D02*
X111997471Y-161799001D01*
X99750000Y-157000000D02*
X99750000Y-51750000D01*
X99750000Y-51750000D02*
X99750000Y-51000000D01*
X104549000Y-161799000D02*
X99750000Y-157000000D01*
X111997471Y-161799001D02*
X104549000Y-161799000D01*
D42*
%TO.N,FAN*%
X152857816Y-205306000D02*
X152856816Y-205305000D01*
X172800000Y-103216833D02*
X172801000Y-103217833D01*
X136865456Y-206000000D02*
X122000000Y-206000000D01*
X143359456Y-199506000D02*
X136865456Y-206000000D01*
X114630331Y-218030331D02*
X114600000Y-218000000D01*
X151756816Y-205305000D02*
X145957816Y-199506000D01*
X114600000Y-218000000D02*
X114600000Y-217991364D01*
X172800000Y-122000000D02*
X164499000Y-130301000D01*
X156342184Y-205306000D02*
X152857816Y-205306000D01*
X156343184Y-205305000D02*
X156342184Y-205306000D01*
X152856816Y-205305000D02*
X151756816Y-205305000D01*
X172801000Y-103217833D02*
X172801000Y-105582167D01*
X119800000Y-208200000D02*
X119800000Y-212860662D01*
X172800000Y-105583167D02*
X172800000Y-122000000D01*
X145957816Y-199506000D02*
X143359456Y-199506000D01*
X122000000Y-206000000D02*
X119800000Y-208200000D01*
X119800000Y-212860662D02*
X114630331Y-218030331D01*
X172800000Y-143200000D02*
X172800000Y-201748184D01*
X172800000Y-40700000D02*
X172800000Y-103216833D01*
X172801000Y-105582167D02*
X172800000Y-105583167D01*
X158800000Y-26700000D02*
X172800000Y-40700000D01*
X172800000Y-201748184D02*
X169243184Y-205305000D01*
X169243184Y-205305000D02*
X156343184Y-205305000D01*
X164499000Y-134899000D02*
X172800000Y-143200000D01*
X164499000Y-130301000D02*
X164499000Y-134899000D01*
D43*
%TO.N,Earth_Protective*%
X144500000Y-204400000D02*
X142100000Y-206800000D01*
X150937500Y-246750000D02*
X169250000Y-246750000D01*
X171250000Y-244750000D02*
X169250000Y-246750000D01*
X142100000Y-232712500D02*
X139500000Y-235312500D01*
X142100000Y-206800000D02*
X142100000Y-232712500D01*
X144500000Y-202100000D02*
X144500000Y-204400000D01*
X139500000Y-235312500D02*
X150937500Y-246750000D01*
D42*
%TO.N,Net-(U6-V_{OUT})*%
X117698000Y-207327908D02*
X117698000Y-211919272D01*
X162396000Y-135770092D02*
X170648000Y-144022092D01*
X168372092Y-203202000D02*
X155472092Y-203202000D01*
X170697000Y-102488364D02*
X170697000Y-104087925D01*
X152627908Y-203202000D02*
X146828908Y-197403000D01*
X170648000Y-144022092D02*
X170648000Y-200926092D01*
X153727908Y-203202000D02*
X152627908Y-203202000D01*
X170698000Y-104088925D02*
X170698000Y-104711075D01*
X117698000Y-211919272D02*
X115321590Y-214295682D01*
X162396000Y-129429908D02*
X162396000Y-135770092D01*
X170648000Y-104761075D02*
X170648000Y-121177908D01*
X170648000Y-200926092D02*
X168372092Y-203202000D01*
X165557832Y-98942168D02*
X166116663Y-99501000D01*
X121128908Y-203897000D02*
X117698000Y-207327908D01*
X155471092Y-203203000D02*
X153728908Y-203203000D01*
X170697000Y-104087925D02*
X170698000Y-104088925D01*
X142488364Y-197403000D02*
X135994364Y-203897000D01*
X155472092Y-203202000D02*
X155471092Y-203203000D01*
X170648000Y-121177908D02*
X162396000Y-129429908D01*
X146828908Y-197403000D02*
X142488364Y-197403000D01*
X115321590Y-214295682D02*
X114695682Y-214295682D01*
X166116663Y-99501000D02*
X167709636Y-99501000D01*
X170698000Y-104711075D02*
X170648000Y-104761075D01*
X135994364Y-203897000D02*
X121128908Y-203897000D01*
X153728908Y-203203000D02*
X153727908Y-203202000D01*
X167709636Y-99501000D02*
X170697000Y-102488364D01*
%TO.N,K_L1*%
X97250000Y-87000000D02*
X95000000Y-87000000D01*
%TO.N,K_U2*%
X157800000Y-61400000D02*
X157000000Y-62200000D01*
X157000000Y-62200000D02*
X155600000Y-62200000D01*
%TO.N,GD_U1_+*%
X93500000Y-63750000D02*
X93500000Y-67250000D01*
%TO.N,GD_L1_-*%
X92999641Y-87009420D02*
X91009420Y-87009420D01*
X91009420Y-87009420D02*
X91000000Y-87000000D01*
%TO.N,GD_U2_-*%
X161400000Y-66200000D02*
X159400000Y-66200000D01*
X162600000Y-65000000D02*
X161400000Y-66200000D01*
%TO.N,GD_L2_+*%
X159100000Y-86500000D02*
X159100000Y-82300000D01*
%TO.N,Net-(U1-PB0)*%
X87050000Y-206850000D02*
X85800000Y-205600000D01*
X89250985Y-206850000D02*
X87050000Y-206850000D01*
%TO.N,Net-(U11-INB)*%
X88501000Y-134499000D02*
X79851000Y-143149000D01*
X88501000Y-130501000D02*
X88501000Y-134499000D01*
X79851000Y-121851000D02*
X88501000Y-130501000D01*
X82308636Y-197400000D02*
X85800000Y-197400000D01*
X79851000Y-112899000D02*
X79851000Y-121851000D01*
X79851000Y-194942364D02*
X82308636Y-197400000D01*
X87850000Y-104900000D02*
X79851000Y-112899000D01*
X79851000Y-143149000D02*
X79851000Y-194942364D01*
%TO.N,Net-(U11-DIS)*%
X80552000Y-194652000D02*
X80552000Y-143439364D01*
X80552000Y-121560636D02*
X80552000Y-113448000D01*
X82500000Y-196600000D02*
X80552000Y-194652000D01*
X80552000Y-143439364D02*
X89202000Y-134789364D01*
X80552000Y-113448000D02*
X89251000Y-104749000D01*
X89000000Y-77750000D02*
X85800000Y-77750000D01*
X89202000Y-130210636D02*
X80552000Y-121560636D01*
X89202000Y-134789364D02*
X89202000Y-130210636D01*
X89251000Y-104749000D02*
X89251000Y-103001000D01*
X89251000Y-103001000D02*
X89000000Y-102750000D01*
X85800000Y-77750000D02*
X85750000Y-77750000D01*
X85700000Y-196600000D02*
X82500000Y-196600000D01*
%TO.N,Net-(U14-DIS)*%
X167791364Y-201800000D02*
X169246000Y-200345364D01*
X169246000Y-105246000D02*
X164800000Y-100800000D01*
X154890364Y-201801000D02*
X154891364Y-201800000D01*
X160994000Y-136350820D02*
X160994000Y-128849180D01*
X164800000Y-96937925D02*
X167000000Y-94737925D01*
X135405000Y-202495000D02*
X136190364Y-201709636D01*
X154309636Y-201801000D02*
X154890364Y-201801000D01*
X136190364Y-201709636D02*
X136190364Y-201701000D01*
X167000000Y-74600000D02*
X170400000Y-71200000D01*
X136190364Y-201701000D02*
X141890364Y-196001000D01*
X169246000Y-144602820D02*
X160994000Y-136350820D01*
X141890364Y-196001000D02*
X147409636Y-196001000D01*
X147409636Y-196001000D02*
X153208636Y-201800000D01*
X169246000Y-120597180D02*
X169246000Y-105246000D01*
X120405000Y-202495000D02*
X135405000Y-202495000D01*
X154891364Y-201800000D02*
X167791364Y-201800000D01*
X153208636Y-201800000D02*
X154308636Y-201800000D01*
X164800000Y-100800000D02*
X164800000Y-96937925D01*
X169246000Y-200345364D02*
X169246000Y-144602820D01*
X115584123Y-207376539D02*
X115584123Y-207315877D01*
X167000000Y-94737925D02*
X167000000Y-74600000D01*
X160994000Y-128849180D02*
X169246000Y-120597180D01*
X115584123Y-207315877D02*
X120405000Y-202495000D01*
X154308636Y-201800000D02*
X154309636Y-201801000D01*
%TO.N,Net-(U14-INA)*%
X120106000Y-201794000D02*
X135106000Y-201794000D01*
X162199000Y-201099000D02*
X154601000Y-201099000D01*
X114800000Y-207100000D02*
X120106000Y-201794000D01*
X164099000Y-97228289D02*
X164099000Y-100509636D01*
X153499000Y-201099000D02*
X154601000Y-201099000D01*
X164099000Y-101154000D02*
X168545000Y-105600000D01*
X160293000Y-128558816D02*
X160293000Y-129139544D01*
X160293000Y-136641184D02*
X160293000Y-136748000D01*
X141600000Y-195300000D02*
X147700000Y-195300000D01*
X166234649Y-88565351D02*
X166234649Y-94064351D01*
X168545000Y-105600000D02*
X168545000Y-120306816D01*
X168545000Y-120306816D02*
X160703636Y-128148180D01*
X168545000Y-200055000D02*
X167501000Y-201099000D01*
X160703636Y-128148180D02*
X160293000Y-128558816D01*
X164099000Y-96200000D02*
X164099000Y-96647561D01*
X135106000Y-201794000D02*
X141600000Y-195300000D01*
X147700000Y-195300000D02*
X153499000Y-201099000D01*
X160293000Y-129139544D02*
X160293000Y-136060456D01*
X167501000Y-201099000D02*
X162199000Y-201099000D01*
X168545000Y-145000000D02*
X168545000Y-200055000D01*
X164099000Y-100509636D02*
X164099000Y-101090364D01*
X160293000Y-136060456D02*
X160293000Y-136641184D01*
X164099000Y-96647561D02*
X164099000Y-97228289D01*
X166234649Y-94064351D02*
X164099000Y-96200000D01*
X164099000Y-101090364D02*
X164099000Y-101154000D01*
X160293000Y-136748000D02*
X168545000Y-145000000D01*
%TO.N,Net-(U1-PA7)*%
X90085556Y-206762819D02*
X90085556Y-206622496D01*
X90085556Y-206622496D02*
X89013060Y-205550000D01*
X89013060Y-205550000D02*
X88700000Y-205550000D01*
%TO.N,Net-(U1-PA6)*%
X90820485Y-205179888D02*
X90820485Y-204820485D01*
X90820485Y-204820485D02*
X88700000Y-202700000D01*
%TD*%
%TA.AperFunction,Conductor*%
%TO.N,SW1*%
G36*
X110943039Y-36519685D02*
G01*
X110988794Y-36572489D01*
X111000000Y-36624000D01*
X111000000Y-43782100D01*
X110980315Y-43849139D01*
X110927511Y-43894894D01*
X110858353Y-43904838D01*
X110794797Y-43875813D01*
X110779053Y-43859413D01*
X110740825Y-43811477D01*
X110502522Y-43573174D01*
X110347865Y-43449840D01*
X110239039Y-43363054D01*
X109953686Y-43183754D01*
X109953683Y-43183752D01*
X109650054Y-43037532D01*
X109331965Y-42926227D01*
X109331953Y-42926223D01*
X109003397Y-42851233D01*
X109003381Y-42851231D01*
X108668508Y-42813500D01*
X108668504Y-42813500D01*
X108331496Y-42813500D01*
X108331491Y-42813500D01*
X107996618Y-42851231D01*
X107996602Y-42851233D01*
X107668046Y-42926223D01*
X107668034Y-42926227D01*
X107349945Y-43037532D01*
X107046316Y-43183752D01*
X106760962Y-43363053D01*
X106497477Y-43573174D01*
X106259174Y-43811477D01*
X106049053Y-44074962D01*
X105869752Y-44360316D01*
X105723532Y-44663945D01*
X105612227Y-44982034D01*
X105612223Y-44982046D01*
X105537233Y-45310602D01*
X105537231Y-45310618D01*
X105499500Y-45645491D01*
X105499500Y-45982508D01*
X105537231Y-46317381D01*
X105537233Y-46317397D01*
X105612223Y-46645953D01*
X105612227Y-46645965D01*
X105723532Y-46964054D01*
X105869752Y-47267683D01*
X105869754Y-47267686D01*
X106049054Y-47553039D01*
X106194436Y-47735343D01*
X106251234Y-47806566D01*
X106259175Y-47816523D01*
X106497477Y-48054825D01*
X106760961Y-48264946D01*
X107046314Y-48444246D01*
X107349949Y-48590469D01*
X107588848Y-48674063D01*
X107668034Y-48701772D01*
X107668046Y-48701776D01*
X107996606Y-48776767D01*
X108331492Y-48814499D01*
X108331493Y-48814500D01*
X108331496Y-48814500D01*
X108668507Y-48814500D01*
X108668507Y-48814499D01*
X109003394Y-48776767D01*
X109331954Y-48701776D01*
X109650051Y-48590469D01*
X109953686Y-48444246D01*
X110239039Y-48264946D01*
X110502523Y-48054825D01*
X110740825Y-47816523D01*
X110773552Y-47775483D01*
X110830741Y-47735343D01*
X110900552Y-47732493D01*
X110960822Y-47767838D01*
X110992416Y-47830157D01*
X110994500Y-47852796D01*
X110994500Y-97711203D01*
X110974815Y-97778242D01*
X110922011Y-97823997D01*
X110852853Y-97833941D01*
X110789297Y-97804916D01*
X110773553Y-97788516D01*
X110740825Y-97747477D01*
X110502522Y-97509174D01*
X110435606Y-97455811D01*
X110239039Y-97299054D01*
X109953686Y-97119754D01*
X109953683Y-97119752D01*
X109650054Y-96973532D01*
X109331965Y-96862227D01*
X109331953Y-96862223D01*
X109003397Y-96787233D01*
X109003381Y-96787231D01*
X108668508Y-96749500D01*
X108668504Y-96749500D01*
X108331496Y-96749500D01*
X108331491Y-96749500D01*
X107996618Y-96787231D01*
X107996602Y-96787233D01*
X107668046Y-96862223D01*
X107668034Y-96862227D01*
X107349945Y-96973532D01*
X107046316Y-97119752D01*
X106760962Y-97299053D01*
X106497477Y-97509174D01*
X106259174Y-97747477D01*
X106049053Y-98010962D01*
X105869752Y-98296316D01*
X105723532Y-98599945D01*
X105612227Y-98918034D01*
X105612223Y-98918046D01*
X105537233Y-99246602D01*
X105537231Y-99246618D01*
X105499500Y-99581491D01*
X105499500Y-99918508D01*
X105537231Y-100253381D01*
X105537233Y-100253397D01*
X105612223Y-100581953D01*
X105612227Y-100581965D01*
X105723532Y-100900054D01*
X105869752Y-101203683D01*
X105869754Y-101203686D01*
X106049054Y-101489039D01*
X106096622Y-101548687D01*
X106123030Y-101613374D01*
X106110275Y-101682069D01*
X106062404Y-101732963D01*
X105999675Y-101750000D01*
X101374500Y-101750000D01*
X101307461Y-101730315D01*
X101261706Y-101677511D01*
X101250500Y-101626000D01*
X101250500Y-89737809D01*
X101270185Y-89670770D01*
X101322989Y-89625015D01*
X101392147Y-89615071D01*
X101455703Y-89644096D01*
X101481887Y-89675810D01*
X101575150Y-89837349D01*
X101731011Y-90040470D01*
X101912029Y-90221488D01*
X101912033Y-90221491D01*
X101912035Y-90221493D01*
X102115143Y-90377344D01*
X102115147Y-90377347D01*
X102336853Y-90505348D01*
X102336868Y-90505355D01*
X102459182Y-90556018D01*
X102573382Y-90603322D01*
X102820671Y-90669583D01*
X103074494Y-90703000D01*
X103074501Y-90703000D01*
X105925499Y-90703000D01*
X105925506Y-90703000D01*
X106179329Y-90669583D01*
X106426618Y-90603322D01*
X106663143Y-90505350D01*
X106884857Y-90377344D01*
X107087965Y-90221493D01*
X107268993Y-90040465D01*
X107424844Y-89837357D01*
X107552850Y-89615643D01*
X107650822Y-89379118D01*
X107717083Y-89131829D01*
X107750500Y-88878006D01*
X107750500Y-88621994D01*
X107717083Y-88368171D01*
X107650822Y-88120882D01*
X107552850Y-87884357D01*
X107505733Y-87802747D01*
X107424844Y-87662642D01*
X107342620Y-87555487D01*
X107317425Y-87490318D01*
X107331463Y-87421873D01*
X107342620Y-87404513D01*
X107424844Y-87297357D01*
X107518113Y-87135810D01*
X107552850Y-87075643D01*
X107650822Y-86839118D01*
X107717083Y-86591829D01*
X107750500Y-86338006D01*
X107750500Y-86081994D01*
X107717083Y-85828171D01*
X107650822Y-85580882D01*
X107552850Y-85344357D01*
X107505733Y-85262747D01*
X107424844Y-85122642D01*
X107342620Y-85015487D01*
X107317425Y-84950318D01*
X107331463Y-84881873D01*
X107342620Y-84864513D01*
X107424844Y-84757357D01*
X107518113Y-84595810D01*
X107552850Y-84535643D01*
X107650822Y-84299118D01*
X107717083Y-84051829D01*
X107750500Y-83798006D01*
X107750500Y-83541994D01*
X107717083Y-83288171D01*
X107650822Y-83040882D01*
X107552850Y-82804357D01*
X107505733Y-82722747D01*
X107424847Y-82582647D01*
X107268988Y-82379529D01*
X107087970Y-82198511D01*
X106884852Y-82042652D01*
X106663146Y-81914651D01*
X106663131Y-81914644D01*
X106426616Y-81816677D01*
X106311849Y-81785925D01*
X106179329Y-81750417D01*
X106122923Y-81742991D01*
X105925513Y-81717000D01*
X105925506Y-81717000D01*
X103074494Y-81717000D01*
X103074486Y-81717000D01*
X102848873Y-81746704D01*
X102820671Y-81750417D01*
X102754411Y-81768171D01*
X102573383Y-81816677D01*
X102336868Y-81914644D01*
X102336853Y-81914651D01*
X102115147Y-82042652D01*
X101912029Y-82198511D01*
X101731011Y-82379529D01*
X101575152Y-82582647D01*
X101481887Y-82744190D01*
X101431320Y-82792405D01*
X101362713Y-82805629D01*
X101297849Y-82779661D01*
X101257320Y-82722747D01*
X101250500Y-82682190D01*
X101250500Y-67897809D01*
X101270185Y-67830770D01*
X101322989Y-67785015D01*
X101392147Y-67775071D01*
X101455703Y-67804096D01*
X101481887Y-67835810D01*
X101575150Y-67997349D01*
X101731011Y-68200470D01*
X101912029Y-68381488D01*
X101912033Y-68381491D01*
X101912035Y-68381493D01*
X102115143Y-68537344D01*
X102115147Y-68537347D01*
X102336853Y-68665348D01*
X102336868Y-68665355D01*
X102459182Y-68716018D01*
X102573382Y-68763322D01*
X102820671Y-68829583D01*
X103074494Y-68863000D01*
X103074501Y-68863000D01*
X105925499Y-68863000D01*
X105925506Y-68863000D01*
X106179329Y-68829583D01*
X106426618Y-68763322D01*
X106663143Y-68665350D01*
X106884857Y-68537344D01*
X107087965Y-68381493D01*
X107268993Y-68200465D01*
X107424844Y-67997357D01*
X107552850Y-67775643D01*
X107650822Y-67539118D01*
X107717083Y-67291829D01*
X107750500Y-67038006D01*
X107750500Y-66781994D01*
X107717083Y-66528171D01*
X107650822Y-66280882D01*
X107552850Y-66044357D01*
X107505733Y-65962747D01*
X107424844Y-65822642D01*
X107342620Y-65715487D01*
X107317425Y-65650318D01*
X107331463Y-65581873D01*
X107342620Y-65564513D01*
X107424844Y-65457357D01*
X107518113Y-65295810D01*
X107552850Y-65235643D01*
X107650822Y-64999118D01*
X107717083Y-64751829D01*
X107750500Y-64498006D01*
X107750500Y-64241994D01*
X107717083Y-63988171D01*
X107650822Y-63740882D01*
X107552850Y-63504357D01*
X107505733Y-63422747D01*
X107424847Y-63282647D01*
X107268988Y-63079529D01*
X107087970Y-62898511D01*
X106884852Y-62742652D01*
X106663146Y-62614651D01*
X106663131Y-62614644D01*
X106426616Y-62516677D01*
X106311849Y-62485925D01*
X106179329Y-62450417D01*
X106122923Y-62442991D01*
X105925513Y-62417000D01*
X105925506Y-62417000D01*
X103074494Y-62417000D01*
X103074486Y-62417000D01*
X102848873Y-62446704D01*
X102820671Y-62450417D01*
X102754411Y-62468171D01*
X102573383Y-62516677D01*
X102336868Y-62614644D01*
X102336853Y-62614651D01*
X102115147Y-62742652D01*
X101912029Y-62898511D01*
X101731011Y-63079529D01*
X101575152Y-63282647D01*
X101481887Y-63444190D01*
X101431320Y-63492405D01*
X101362713Y-63505629D01*
X101297849Y-63479661D01*
X101257320Y-63422747D01*
X101250500Y-63382190D01*
X101250500Y-58408220D01*
X101270185Y-58341181D01*
X101322989Y-58295426D01*
X101392147Y-58285482D01*
X101455703Y-58314507D01*
X101470602Y-58329859D01*
X101538890Y-58413609D01*
X101632803Y-58490184D01*
X101696593Y-58542198D01*
X101876951Y-58636409D01*
X102072582Y-58692386D01*
X102191963Y-58703000D01*
X106808036Y-58702999D01*
X106927418Y-58692386D01*
X107123049Y-58636409D01*
X107303407Y-58542198D01*
X107461109Y-58413609D01*
X107589698Y-58255907D01*
X107683909Y-58075549D01*
X107739886Y-57879918D01*
X107750500Y-57760537D01*
X107750499Y-55739464D01*
X107739886Y-55620082D01*
X107683909Y-55424451D01*
X107589698Y-55244093D01*
X107482881Y-55113092D01*
X107461109Y-55086390D01*
X107303409Y-54957804D01*
X107303410Y-54957804D01*
X107303407Y-54957802D01*
X107123049Y-54863591D01*
X107123048Y-54863590D01*
X107123045Y-54863589D01*
X107005829Y-54830050D01*
X106927418Y-54807614D01*
X106927415Y-54807613D01*
X106927413Y-54807613D01*
X106861102Y-54801717D01*
X106808037Y-54797000D01*
X106808032Y-54797000D01*
X102191971Y-54797000D01*
X102191965Y-54797000D01*
X102191964Y-54797001D01*
X102180316Y-54798036D01*
X102072584Y-54807613D01*
X101876954Y-54863589D01*
X101786772Y-54910696D01*
X101696593Y-54957802D01*
X101696591Y-54957803D01*
X101696590Y-54957804D01*
X101538890Y-55086390D01*
X101470602Y-55170140D01*
X101412981Y-55209657D01*
X101343142Y-55211749D01*
X101283260Y-55175751D01*
X101252345Y-55113092D01*
X101250500Y-55091779D01*
X101250500Y-51164521D01*
X101252706Y-51157005D01*
X101251441Y-51149276D01*
X101262411Y-51123955D01*
X101270185Y-51097482D01*
X101276103Y-51092353D01*
X101279218Y-51085165D01*
X101302139Y-51069792D01*
X101322989Y-51051727D01*
X101330740Y-51050612D01*
X101337247Y-51046249D01*
X101364836Y-51045709D01*
X101392147Y-51041783D01*
X101401043Y-51045002D01*
X101407103Y-51044884D01*
X101439484Y-51058913D01*
X101650243Y-51188611D01*
X101697020Y-51240510D01*
X101707130Y-51271364D01*
X101750000Y-51499999D01*
X101750000Y-36624000D01*
X101769685Y-36556961D01*
X101822489Y-36511206D01*
X101874000Y-36500000D01*
X110876000Y-36500000D01*
X110943039Y-36519685D01*
G37*
%TD.AperFunction*%
%TD*%
%TA.AperFunction,Conductor*%
%TO.N,SW2*%
G36*
X153000000Y-56749999D02*
G01*
X153000000Y-101626000D01*
X152980315Y-101693039D01*
X152927511Y-101738794D01*
X152876000Y-101750000D01*
X145700325Y-101750000D01*
X145633286Y-101730315D01*
X145587531Y-101677511D01*
X145577587Y-101608353D01*
X145603378Y-101548687D01*
X145650946Y-101489039D01*
X145830246Y-101203686D01*
X145976469Y-100900051D01*
X146087776Y-100581954D01*
X146162767Y-100253394D01*
X146200500Y-99918504D01*
X146200500Y-99581496D01*
X146162767Y-99246606D01*
X146087776Y-98918046D01*
X145976469Y-98599949D01*
X145830246Y-98296314D01*
X145650946Y-98010961D01*
X145440825Y-97747477D01*
X145202523Y-97509175D01*
X144939039Y-97299054D01*
X144653686Y-97119754D01*
X144653683Y-97119752D01*
X144350054Y-96973532D01*
X144031965Y-96862227D01*
X144031953Y-96862223D01*
X143703397Y-96787233D01*
X143703381Y-96787231D01*
X143368508Y-96749500D01*
X143368504Y-96749500D01*
X143031496Y-96749500D01*
X143031491Y-96749500D01*
X142696618Y-96787231D01*
X142696602Y-96787233D01*
X142368046Y-96862223D01*
X142368034Y-96862227D01*
X142049945Y-96973532D01*
X141746316Y-97119752D01*
X141460962Y-97299053D01*
X141197477Y-97509174D01*
X140967181Y-97739471D01*
X140905858Y-97772956D01*
X140836166Y-97767972D01*
X140780233Y-97726100D01*
X140755816Y-97660636D01*
X140755500Y-97651790D01*
X140755500Y-78111986D01*
X144149500Y-78111986D01*
X144149500Y-78368013D01*
X144175491Y-78565423D01*
X144182917Y-78621829D01*
X144218425Y-78754349D01*
X144249177Y-78869116D01*
X144347144Y-79105631D01*
X144347151Y-79105646D01*
X144475155Y-79327356D01*
X144557380Y-79434514D01*
X144582574Y-79499683D01*
X144568536Y-79568128D01*
X144557380Y-79585486D01*
X144475155Y-79692643D01*
X144347151Y-79914353D01*
X144347144Y-79914368D01*
X144249177Y-80150883D01*
X144182917Y-80398172D01*
X144149500Y-80651986D01*
X144149500Y-80908013D01*
X144175491Y-81105423D01*
X144182917Y-81161829D01*
X144218425Y-81294349D01*
X144249177Y-81409116D01*
X144347144Y-81645631D01*
X144347151Y-81645646D01*
X144475155Y-81867356D01*
X144557380Y-81974514D01*
X144582574Y-82039683D01*
X144568536Y-82108128D01*
X144557380Y-82125486D01*
X144475155Y-82232643D01*
X144347151Y-82454353D01*
X144347144Y-82454368D01*
X144249177Y-82690883D01*
X144182917Y-82938172D01*
X144149500Y-83191986D01*
X144149500Y-83448013D01*
X144175491Y-83645423D01*
X144182917Y-83701829D01*
X144218425Y-83834349D01*
X144249177Y-83949116D01*
X144347144Y-84185631D01*
X144347151Y-84185646D01*
X144475152Y-84407352D01*
X144631011Y-84610470D01*
X144812029Y-84791488D01*
X144812033Y-84791491D01*
X144812035Y-84791493D01*
X145015143Y-84947344D01*
X145015147Y-84947347D01*
X145236853Y-85075348D01*
X145236868Y-85075355D01*
X145359182Y-85126018D01*
X145473382Y-85173322D01*
X145720671Y-85239583D01*
X145974494Y-85273000D01*
X145974501Y-85273000D01*
X148825499Y-85273000D01*
X148825506Y-85273000D01*
X149079329Y-85239583D01*
X149326618Y-85173322D01*
X149563143Y-85075350D01*
X149784857Y-84947344D01*
X149987965Y-84791493D01*
X150168993Y-84610465D01*
X150324844Y-84407357D01*
X150452850Y-84185643D01*
X150550822Y-83949118D01*
X150617083Y-83701829D01*
X150650500Y-83448006D01*
X150650500Y-83191994D01*
X150617083Y-82938171D01*
X150550822Y-82690882D01*
X150452850Y-82454357D01*
X150452848Y-82454353D01*
X150324844Y-82232642D01*
X150242620Y-82125487D01*
X150217425Y-82060318D01*
X150231463Y-81991873D01*
X150242620Y-81974513D01*
X150324844Y-81867357D01*
X150452848Y-81645646D01*
X150452850Y-81645643D01*
X150550822Y-81409118D01*
X150617083Y-81161829D01*
X150650500Y-80908006D01*
X150650500Y-80651994D01*
X150617083Y-80398171D01*
X150550822Y-80150882D01*
X150452850Y-79914357D01*
X150452848Y-79914353D01*
X150324844Y-79692642D01*
X150242620Y-79585487D01*
X150217425Y-79520318D01*
X150231463Y-79451873D01*
X150242620Y-79434513D01*
X150324844Y-79327357D01*
X150452848Y-79105646D01*
X150452850Y-79105643D01*
X150550822Y-78869118D01*
X150617083Y-78621829D01*
X150650500Y-78368006D01*
X150650500Y-78111994D01*
X150617083Y-77858171D01*
X150550822Y-77610882D01*
X150452850Y-77374357D01*
X150452848Y-77374353D01*
X150324847Y-77152647D01*
X150168988Y-76949529D01*
X149987970Y-76768511D01*
X149784852Y-76612652D01*
X149563146Y-76484651D01*
X149563131Y-76484644D01*
X149326616Y-76386677D01*
X149211849Y-76355925D01*
X149079329Y-76320417D01*
X149022923Y-76312991D01*
X148825513Y-76287000D01*
X148825506Y-76287000D01*
X145974494Y-76287000D01*
X145974486Y-76287000D01*
X145748873Y-76316704D01*
X145720671Y-76320417D01*
X145654411Y-76338171D01*
X145473383Y-76386677D01*
X145236868Y-76484644D01*
X145236853Y-76484651D01*
X145015147Y-76612652D01*
X144812029Y-76768511D01*
X144631011Y-76949529D01*
X144475152Y-77152647D01*
X144347151Y-77374353D01*
X144347144Y-77374368D01*
X144249177Y-77610883D01*
X144182917Y-77858172D01*
X144149500Y-78111986D01*
X140755500Y-78111986D01*
X140755500Y-65949466D01*
X144149500Y-65949466D01*
X144149500Y-67970528D01*
X144149501Y-67970534D01*
X144160113Y-68089915D01*
X144216089Y-68285545D01*
X144216090Y-68285548D01*
X144216091Y-68285549D01*
X144310302Y-68465907D01*
X144310304Y-68465909D01*
X144438890Y-68623609D01*
X144532803Y-68700184D01*
X144596593Y-68752198D01*
X144776951Y-68846409D01*
X144972582Y-68902386D01*
X145091963Y-68913000D01*
X149708036Y-68912999D01*
X149827418Y-68902386D01*
X150023049Y-68846409D01*
X150203407Y-68752198D01*
X150361109Y-68623609D01*
X150489698Y-68465907D01*
X150583909Y-68285549D01*
X150639886Y-68089918D01*
X150650500Y-67970537D01*
X150650499Y-65949464D01*
X150639886Y-65830082D01*
X150583909Y-65634451D01*
X150489698Y-65454093D01*
X150437684Y-65390303D01*
X150361109Y-65296390D01*
X150203409Y-65167804D01*
X150203410Y-65167804D01*
X150203407Y-65167802D01*
X150023049Y-65073591D01*
X150023048Y-65073590D01*
X150023045Y-65073589D01*
X149905829Y-65040050D01*
X149827418Y-65017614D01*
X149827415Y-65017613D01*
X149827413Y-65017613D01*
X149761102Y-65011717D01*
X149708037Y-65007000D01*
X149708032Y-65007000D01*
X145091971Y-65007000D01*
X145091965Y-65007000D01*
X145091964Y-65007001D01*
X145080316Y-65008036D01*
X144972584Y-65017613D01*
X144776954Y-65073589D01*
X144686772Y-65120696D01*
X144596593Y-65167802D01*
X144596591Y-65167803D01*
X144596590Y-65167804D01*
X144438890Y-65296390D01*
X144310304Y-65454090D01*
X144216089Y-65634454D01*
X144160114Y-65830083D01*
X144160113Y-65830086D01*
X144149500Y-65949466D01*
X140755500Y-65949466D01*
X140755500Y-56671986D01*
X144149500Y-56671986D01*
X144149500Y-56928013D01*
X144175491Y-57125423D01*
X144182917Y-57181829D01*
X144218425Y-57314349D01*
X144249177Y-57429116D01*
X144347144Y-57665631D01*
X144347151Y-57665646D01*
X144475155Y-57887356D01*
X144557380Y-57994514D01*
X144582574Y-58059683D01*
X144568536Y-58128128D01*
X144557380Y-58145486D01*
X144475155Y-58252643D01*
X144347151Y-58474353D01*
X144347144Y-58474368D01*
X144249177Y-58710883D01*
X144182917Y-58958172D01*
X144149500Y-59211986D01*
X144149500Y-59468013D01*
X144175491Y-59665423D01*
X144182917Y-59721829D01*
X144218425Y-59854349D01*
X144249177Y-59969116D01*
X144347144Y-60205631D01*
X144347151Y-60205646D01*
X144475152Y-60427352D01*
X144631011Y-60630470D01*
X144812029Y-60811488D01*
X144812033Y-60811491D01*
X144812035Y-60811493D01*
X145015143Y-60967344D01*
X145015147Y-60967347D01*
X145236853Y-61095348D01*
X145236868Y-61095355D01*
X145359182Y-61146018D01*
X145473382Y-61193322D01*
X145720671Y-61259583D01*
X145974494Y-61293000D01*
X145974501Y-61293000D01*
X148825499Y-61293000D01*
X148825506Y-61293000D01*
X149079329Y-61259583D01*
X149326618Y-61193322D01*
X149563143Y-61095350D01*
X149784857Y-60967344D01*
X149987965Y-60811493D01*
X150168993Y-60630465D01*
X150324844Y-60427357D01*
X150452850Y-60205643D01*
X150550822Y-59969118D01*
X150617083Y-59721829D01*
X150650500Y-59468006D01*
X150650500Y-59211994D01*
X150617083Y-58958171D01*
X150550822Y-58710882D01*
X150452850Y-58474357D01*
X150452848Y-58474353D01*
X150324844Y-58252642D01*
X150242620Y-58145487D01*
X150217425Y-58080318D01*
X150231463Y-58011873D01*
X150242620Y-57994513D01*
X150324844Y-57887357D01*
X150452848Y-57665646D01*
X150452850Y-57665643D01*
X150550822Y-57429118D01*
X150617083Y-57181829D01*
X150650500Y-56928006D01*
X150650500Y-56671994D01*
X150617083Y-56418171D01*
X150550822Y-56170882D01*
X150452850Y-55934357D01*
X150452848Y-55934353D01*
X150324847Y-55712647D01*
X150168988Y-55509529D01*
X149987970Y-55328511D01*
X149784852Y-55172652D01*
X149563146Y-55044651D01*
X149563131Y-55044644D01*
X149326616Y-54946677D01*
X149211849Y-54915925D01*
X149079329Y-54880417D01*
X149022923Y-54872991D01*
X148825513Y-54847000D01*
X148825506Y-54847000D01*
X145974494Y-54847000D01*
X145974486Y-54847000D01*
X145748873Y-54876704D01*
X145720671Y-54880417D01*
X145654411Y-54898171D01*
X145473383Y-54946677D01*
X145236868Y-55044644D01*
X145236853Y-55044651D01*
X145015147Y-55172652D01*
X144812029Y-55328511D01*
X144631011Y-55509529D01*
X144475152Y-55712647D01*
X144347151Y-55934353D01*
X144347144Y-55934368D01*
X144249177Y-56170883D01*
X144182917Y-56418172D01*
X144149500Y-56671986D01*
X140755500Y-56671986D01*
X140755500Y-47912210D01*
X140775185Y-47845171D01*
X140827989Y-47799416D01*
X140897147Y-47789472D01*
X140960703Y-47818497D01*
X140967181Y-47824529D01*
X141197477Y-48054825D01*
X141460961Y-48264946D01*
X141746314Y-48444246D01*
X142049949Y-48590469D01*
X142288848Y-48674063D01*
X142368034Y-48701772D01*
X142368046Y-48701776D01*
X142696606Y-48776767D01*
X143031492Y-48814499D01*
X143031493Y-48814500D01*
X143031496Y-48814500D01*
X143368507Y-48814500D01*
X143368507Y-48814499D01*
X143703394Y-48776767D01*
X144031954Y-48701776D01*
X144350051Y-48590469D01*
X144653686Y-48444246D01*
X144939039Y-48264946D01*
X145202523Y-48054825D01*
X145440825Y-47816523D01*
X145650946Y-47553039D01*
X145830246Y-47267686D01*
X145976469Y-46964051D01*
X146087776Y-46645954D01*
X146162767Y-46317394D01*
X146200500Y-45982504D01*
X146200500Y-45645496D01*
X146162767Y-45310606D01*
X146087776Y-44982046D01*
X145976469Y-44663949D01*
X145830246Y-44360314D01*
X145650946Y-44074961D01*
X145440825Y-43811477D01*
X145202523Y-43573175D01*
X144939039Y-43363054D01*
X144653686Y-43183754D01*
X144653683Y-43183752D01*
X144350054Y-43037532D01*
X144031965Y-42926227D01*
X144031953Y-42926223D01*
X143703397Y-42851233D01*
X143703381Y-42851231D01*
X143368508Y-42813500D01*
X143368504Y-42813500D01*
X143031496Y-42813500D01*
X143031491Y-42813500D01*
X142696618Y-42851231D01*
X142696602Y-42851233D01*
X142368046Y-42926223D01*
X142368034Y-42926227D01*
X142049945Y-43037532D01*
X141746316Y-43183752D01*
X141460962Y-43363053D01*
X141197477Y-43573174D01*
X140961681Y-43808971D01*
X140900358Y-43842456D01*
X140830666Y-43837472D01*
X140774733Y-43795600D01*
X140750316Y-43730136D01*
X140750000Y-43721290D01*
X140750000Y-39674000D01*
X140769685Y-39606961D01*
X140822489Y-39561206D01*
X140874000Y-39550000D01*
X153000000Y-39550000D01*
X153000000Y-56749999D01*
G37*
%TD.AperFunction*%
%TD*%
%TA.AperFunction,Conductor*%
%TO.N,GND*%
G36*
X116250000Y-150500000D02*
G01*
X102506093Y-150500000D01*
X102493939Y-150499403D01*
X102317065Y-150481982D01*
X102293224Y-150477240D01*
X102129001Y-150427424D01*
X102106543Y-150418121D01*
X101955201Y-150337227D01*
X101934989Y-150323722D01*
X101802334Y-150214855D01*
X101785141Y-150197661D01*
X101778642Y-150189741D01*
X101751333Y-150125430D01*
X101750500Y-150111082D01*
X101750500Y-145388916D01*
X101770185Y-145321877D01*
X101778639Y-145310261D01*
X101785149Y-145302328D01*
X101802328Y-145285149D01*
X101934995Y-145176272D01*
X101955195Y-145162775D01*
X102106549Y-145081875D01*
X102128994Y-145072577D01*
X102293232Y-145022757D01*
X102317056Y-145018018D01*
X102493939Y-145000597D01*
X102506093Y-145000000D01*
X112500000Y-145000000D01*
X116250000Y-145000000D01*
X116250000Y-150500000D01*
G37*
%TD.AperFunction*%
%TD*%
%TA.AperFunction,Conductor*%
%TO.N,GND*%
G36*
X101902286Y-162269685D02*
G01*
X101922928Y-162286319D01*
X103413745Y-163777137D01*
X103413749Y-163777140D01*
X103577609Y-163886628D01*
X103577615Y-163886631D01*
X103577616Y-163886632D01*
X103759695Y-163962052D01*
X103952985Y-164000500D01*
X103952988Y-164000501D01*
X103952990Y-164000501D01*
X104157667Y-164000501D01*
X104157683Y-164000500D01*
X111034218Y-164000500D01*
X111101257Y-164020185D01*
X111121899Y-164036819D01*
X112112215Y-165027137D01*
X112112219Y-165027140D01*
X112276079Y-165136628D01*
X112276085Y-165136631D01*
X112276086Y-165136632D01*
X112458165Y-165212052D01*
X112651455Y-165250500D01*
X112651458Y-165250501D01*
X112651460Y-165250501D01*
X112848543Y-165250501D01*
X112848544Y-165250500D01*
X113041836Y-165212052D01*
X113223915Y-165136632D01*
X113387782Y-165027140D01*
X113527140Y-164887782D01*
X113598750Y-164780608D01*
X113612247Y-164769328D01*
X113621966Y-164754662D01*
X113638501Y-164747388D01*
X113652360Y-164735806D01*
X113669924Y-164733565D01*
X113685922Y-164726528D01*
X113716882Y-164727574D01*
X113721212Y-164727022D01*
X113723633Y-164727404D01*
X113852460Y-164753030D01*
X113885739Y-164753030D01*
X113895361Y-164754551D01*
X113918489Y-164765506D01*
X113943039Y-164772715D01*
X113949535Y-164780212D01*
X113958505Y-164784461D01*
X113972039Y-164806183D01*
X113988794Y-164825519D01*
X113991318Y-164837125D01*
X113995454Y-164843762D01*
X113995291Y-164855386D01*
X114000000Y-164877030D01*
X114000000Y-185125500D01*
X113980315Y-185192539D01*
X113927511Y-185238294D01*
X113876000Y-185249500D01*
X108904604Y-185249500D01*
X108857155Y-185240062D01*
X108833497Y-185230263D01*
X108833493Y-185230262D01*
X108833488Y-185230260D01*
X108678845Y-185199500D01*
X108678842Y-185199500D01*
X108521158Y-185199500D01*
X108521155Y-185199500D01*
X108366510Y-185230261D01*
X108366498Y-185230264D01*
X108220827Y-185290602D01*
X108220814Y-185290609D01*
X108089711Y-185378210D01*
X108089707Y-185378213D01*
X107978213Y-185489707D01*
X107978210Y-185489711D01*
X107890609Y-185620814D01*
X107890602Y-185620827D01*
X107830264Y-185766498D01*
X107830261Y-185766510D01*
X107799500Y-185921153D01*
X107799500Y-186078846D01*
X107830261Y-186233489D01*
X107830264Y-186233501D01*
X107890602Y-186379172D01*
X107890609Y-186379185D01*
X107978210Y-186510288D01*
X107978213Y-186510292D01*
X108089707Y-186621786D01*
X108089711Y-186621789D01*
X108220814Y-186709390D01*
X108220827Y-186709397D01*
X108320060Y-186750500D01*
X108366503Y-186769737D01*
X108521153Y-186800499D01*
X108521156Y-186800500D01*
X108521158Y-186800500D01*
X108678844Y-186800500D01*
X108678845Y-186800499D01*
X108755152Y-186785320D01*
X108833488Y-186769739D01*
X108833489Y-186769738D01*
X108833497Y-186769737D01*
X108857155Y-186759937D01*
X108904604Y-186750500D01*
X113876000Y-186750500D01*
X113943039Y-186770185D01*
X113988794Y-186822989D01*
X114000000Y-186874500D01*
X114000000Y-207018644D01*
X113999500Y-207021158D01*
X113999500Y-207178842D01*
X114000000Y-207181355D01*
X114000000Y-213859789D01*
X113987338Y-213910344D01*
X113988619Y-213910875D01*
X113925946Y-214062180D01*
X113925943Y-214062192D01*
X113895182Y-214216835D01*
X113895182Y-214374528D01*
X113925943Y-214529171D01*
X113925946Y-214529183D01*
X113988619Y-214680490D01*
X113987333Y-214681022D01*
X114000000Y-214731574D01*
X114000000Y-215625500D01*
X113997449Y-215634185D01*
X113998738Y-215643147D01*
X113987759Y-215667187D01*
X113980315Y-215692539D01*
X113973474Y-215698466D01*
X113969713Y-215706703D01*
X113947478Y-215720992D01*
X113927511Y-215738294D01*
X113916996Y-215740581D01*
X113910935Y-215744477D01*
X113876000Y-215749500D01*
X113804604Y-215749500D01*
X113757155Y-215740062D01*
X113733497Y-215730263D01*
X113733493Y-215730262D01*
X113733488Y-215730260D01*
X113578845Y-215699500D01*
X113578842Y-215699500D01*
X113421158Y-215699500D01*
X113421155Y-215699500D01*
X113266510Y-215730261D01*
X113266498Y-215730264D01*
X113120827Y-215790602D01*
X113120814Y-215790609D01*
X112989711Y-215878210D01*
X112989707Y-215878213D01*
X112878213Y-215989707D01*
X112878210Y-215989711D01*
X112790609Y-216120814D01*
X112790602Y-216120827D01*
X112730264Y-216266498D01*
X112730261Y-216266510D01*
X112699500Y-216421153D01*
X112699500Y-216512055D01*
X112679815Y-216579094D01*
X112627011Y-216624849D01*
X112557853Y-216634793D01*
X112502615Y-216612374D01*
X112402959Y-216539970D01*
X112213623Y-216443498D01*
X112011535Y-216377836D01*
X111801652Y-216344594D01*
X111589160Y-216344594D01*
X111379278Y-216377836D01*
X111379275Y-216377836D01*
X111177188Y-216443498D01*
X110987845Y-216539974D01*
X110933688Y-216579321D01*
X110933688Y-216579322D01*
X111525172Y-217170806D01*
X111483114Y-217182076D01*
X111357698Y-217254484D01*
X111255296Y-217356886D01*
X111182888Y-217482302D01*
X111171618Y-217524360D01*
X110580134Y-216932876D01*
X110580133Y-216932876D01*
X110540786Y-216987033D01*
X110444310Y-217176376D01*
X110378648Y-217378463D01*
X110378648Y-217378466D01*
X110345406Y-217588347D01*
X110345406Y-217800840D01*
X110378648Y-218010721D01*
X110378648Y-218010724D01*
X110444310Y-218212811D01*
X110540781Y-218402144D01*
X110580134Y-218456310D01*
X111171618Y-217864827D01*
X111182888Y-217906886D01*
X111255296Y-218032302D01*
X111357698Y-218134704D01*
X111483114Y-218207112D01*
X111525171Y-218218381D01*
X110933688Y-218809863D01*
X110933688Y-218809864D01*
X110987855Y-218849218D01*
X111177188Y-218945689D01*
X111379276Y-219011351D01*
X111589160Y-219044594D01*
X111801652Y-219044594D01*
X112011533Y-219011351D01*
X112011536Y-219011351D01*
X112213623Y-218945689D01*
X112402960Y-218849216D01*
X112457122Y-218809864D01*
X112457123Y-218809864D01*
X111865639Y-218218381D01*
X111907698Y-218207112D01*
X112033114Y-218134704D01*
X112135516Y-218032302D01*
X112207924Y-217906886D01*
X112219193Y-217864827D01*
X112810676Y-218456311D01*
X112810676Y-218456310D01*
X112850028Y-218402148D01*
X112946501Y-218212811D01*
X113012163Y-218010724D01*
X113012163Y-218010721D01*
X113045406Y-217800840D01*
X113045406Y-217588347D01*
X113012164Y-217378472D01*
X113011904Y-217377386D01*
X113011925Y-217376960D01*
X113011402Y-217373656D01*
X113012096Y-217373546D01*
X113015395Y-217307603D01*
X113056059Y-217250786D01*
X113120985Y-217224973D01*
X113179930Y-217233878D01*
X113232187Y-217255523D01*
X113266503Y-217269737D01*
X113421153Y-217300499D01*
X113421156Y-217300500D01*
X113421158Y-217300500D01*
X113578844Y-217300500D01*
X113578845Y-217300499D01*
X113655152Y-217285320D01*
X113733488Y-217269739D01*
X113733489Y-217269738D01*
X113733497Y-217269737D01*
X113757155Y-217259937D01*
X113765329Y-217258311D01*
X113769669Y-217255523D01*
X113804604Y-217250500D01*
X113876000Y-217250500D01*
X113943039Y-217270185D01*
X113988794Y-217322989D01*
X114000000Y-217374500D01*
X114000000Y-217495211D01*
X113980315Y-217562250D01*
X113979102Y-217564102D01*
X113920940Y-217651146D01*
X113920933Y-217651159D01*
X113860595Y-217796829D01*
X113860592Y-217796841D01*
X113829831Y-217951484D01*
X113829831Y-218109177D01*
X113860592Y-218263820D01*
X113860595Y-218263832D01*
X113920933Y-218409503D01*
X113920940Y-218409515D01*
X113979102Y-218496560D01*
X113999980Y-218563237D01*
X114000000Y-218565451D01*
X114000000Y-243776000D01*
X113980315Y-243843039D01*
X113927511Y-243888794D01*
X113876000Y-243900000D01*
X107800000Y-243900000D01*
X107800000Y-250925500D01*
X107780315Y-250992539D01*
X107727511Y-251038294D01*
X107676000Y-251049500D01*
X107007363Y-251049500D01*
X106940324Y-251029815D01*
X106894569Y-250977011D01*
X106884625Y-250907853D01*
X106904261Y-250856609D01*
X107015251Y-250690500D01*
X107015251Y-250690499D01*
X107015255Y-250690494D01*
X107089732Y-250510689D01*
X107127700Y-250319810D01*
X107127700Y-250125190D01*
X107102055Y-249996262D01*
X107089734Y-249934318D01*
X107089731Y-249934309D01*
X107015258Y-249754512D01*
X107015251Y-249754499D01*
X106907130Y-249592686D01*
X106907127Y-249592682D01*
X106769517Y-249455072D01*
X106769513Y-249455069D01*
X106607700Y-249346948D01*
X106607687Y-249346941D01*
X106427890Y-249272468D01*
X106427881Y-249272465D01*
X106237014Y-249234500D01*
X106237010Y-249234500D01*
X106042390Y-249234500D01*
X106042385Y-249234500D01*
X105851518Y-249272465D01*
X105851509Y-249272468D01*
X105671712Y-249346941D01*
X105671699Y-249346948D01*
X105509886Y-249455069D01*
X105509882Y-249455072D01*
X105372272Y-249592682D01*
X105372269Y-249592686D01*
X105264148Y-249754499D01*
X105264141Y-249754512D01*
X105189668Y-249934309D01*
X105189665Y-249934318D01*
X105151700Y-250125185D01*
X105151700Y-250319814D01*
X105189665Y-250510681D01*
X105189668Y-250510690D01*
X105264141Y-250690487D01*
X105264148Y-250690500D01*
X105375139Y-250856609D01*
X105396017Y-250923287D01*
X105377532Y-250990667D01*
X105325554Y-251037357D01*
X105272037Y-251049500D01*
X101927663Y-251049500D01*
X101860624Y-251029815D01*
X101814869Y-250977011D01*
X101804925Y-250907853D01*
X101824561Y-250856609D01*
X101935551Y-250690500D01*
X101935551Y-250690499D01*
X101935555Y-250690494D01*
X102010032Y-250510689D01*
X102048000Y-250319810D01*
X102048000Y-250125190D01*
X102022355Y-249996262D01*
X102010034Y-249934318D01*
X102010031Y-249934309D01*
X101935558Y-249754512D01*
X101935551Y-249754499D01*
X101827430Y-249592686D01*
X101827427Y-249592682D01*
X101689817Y-249455072D01*
X101689813Y-249455069D01*
X101528000Y-249346948D01*
X101527987Y-249346941D01*
X101348190Y-249272468D01*
X101348181Y-249272465D01*
X101157314Y-249234500D01*
X101157310Y-249234500D01*
X100962690Y-249234500D01*
X100962685Y-249234500D01*
X100771818Y-249272465D01*
X100771809Y-249272468D01*
X100592012Y-249346941D01*
X100591999Y-249346948D01*
X100430186Y-249455069D01*
X100430182Y-249455072D01*
X100292572Y-249592682D01*
X100292569Y-249592686D01*
X100184448Y-249754499D01*
X100184441Y-249754512D01*
X100109968Y-249934309D01*
X100109965Y-249934318D01*
X100072000Y-250125185D01*
X100072000Y-250319814D01*
X100109965Y-250510681D01*
X100109968Y-250510690D01*
X100184441Y-250690487D01*
X100184448Y-250690500D01*
X100295439Y-250856609D01*
X100316317Y-250923287D01*
X100297832Y-250990667D01*
X100245854Y-251037357D01*
X100192337Y-251049500D01*
X86366820Y-251049500D01*
X86299781Y-251029815D01*
X86254026Y-250977011D01*
X86244082Y-250907853D01*
X86273107Y-250844297D01*
X86304820Y-250818113D01*
X86309637Y-250815332D01*
X86331764Y-250802557D01*
X86675143Y-250562121D01*
X86996260Y-250292671D01*
X87292671Y-249996260D01*
X87562121Y-249675143D01*
X87802557Y-249331764D01*
X88012152Y-248968736D01*
X88189309Y-248588822D01*
X88332680Y-248194913D01*
X88441174Y-247790008D01*
X88503438Y-247436894D01*
X88504213Y-247432500D01*
X100519638Y-247432500D01*
X101379314Y-247432500D01*
X101374920Y-247436894D01*
X101322259Y-247528106D01*
X101295000Y-247629839D01*
X101295000Y-247735161D01*
X101322259Y-247836894D01*
X101374920Y-247928106D01*
X101379314Y-247932500D01*
X100519638Y-247932500D01*
X100524548Y-247963502D01*
X100582914Y-248143137D01*
X100668670Y-248311440D01*
X100779685Y-248464241D01*
X100779689Y-248464246D01*
X100913253Y-248597810D01*
X100913258Y-248597814D01*
X101066059Y-248708829D01*
X101234362Y-248794585D01*
X101413997Y-248852951D01*
X101445000Y-248857862D01*
X101445000Y-247998186D01*
X101449394Y-248002580D01*
X101540606Y-248055241D01*
X101642339Y-248082500D01*
X101747661Y-248082500D01*
X101849394Y-248055241D01*
X101940606Y-248002580D01*
X101945000Y-247998186D01*
X101945000Y-248857861D01*
X101976002Y-248852951D01*
X102155637Y-248794585D01*
X102323940Y-248708829D01*
X102476741Y-248597814D01*
X102476746Y-248597810D01*
X102559466Y-248515091D01*
X102620789Y-248481606D01*
X102690481Y-248486590D01*
X102734828Y-248515091D01*
X102817927Y-248598190D01*
X102970801Y-248709260D01*
X103050347Y-248749790D01*
X103139163Y-248795045D01*
X103139165Y-248795045D01*
X103139168Y-248795047D01*
X103235497Y-248826346D01*
X103318881Y-248853440D01*
X103505514Y-248883000D01*
X103505519Y-248883000D01*
X103694486Y-248883000D01*
X103881118Y-248853440D01*
X103882623Y-248852951D01*
X104060832Y-248795047D01*
X104229199Y-248709260D01*
X104382073Y-248598190D01*
X104464819Y-248515444D01*
X104526142Y-248481959D01*
X104595834Y-248486943D01*
X104640181Y-248515444D01*
X104722927Y-248598190D01*
X104875801Y-248709260D01*
X104955347Y-248749790D01*
X105044163Y-248795045D01*
X105044165Y-248795045D01*
X105044168Y-248795047D01*
X105140497Y-248826346D01*
X105223881Y-248853440D01*
X105410514Y-248883000D01*
X105410519Y-248883000D01*
X105599486Y-248883000D01*
X105786118Y-248853440D01*
X105787623Y-248852951D01*
X105965832Y-248795047D01*
X106134199Y-248709260D01*
X106287073Y-248598190D01*
X106420690Y-248464573D01*
X106531760Y-248311699D01*
X106617547Y-248143332D01*
X106675940Y-247963618D01*
X106680869Y-247932500D01*
X106705500Y-247776986D01*
X106705500Y-247588013D01*
X106675940Y-247401381D01*
X106617545Y-247221663D01*
X106531759Y-247053300D01*
X106420690Y-246900427D01*
X106287073Y-246766810D01*
X106134199Y-246655740D01*
X105965836Y-246569954D01*
X105786118Y-246511559D01*
X105599486Y-246482000D01*
X105599481Y-246482000D01*
X105410519Y-246482000D01*
X105410514Y-246482000D01*
X105223881Y-246511559D01*
X105044163Y-246569954D01*
X104875800Y-246655740D01*
X104788579Y-246719110D01*
X104722927Y-246766810D01*
X104722925Y-246766812D01*
X104722924Y-246766812D01*
X104640181Y-246849556D01*
X104578858Y-246883041D01*
X104509166Y-246878057D01*
X104464819Y-246849556D01*
X104382075Y-246766812D01*
X104382073Y-246766810D01*
X104229199Y-246655740D01*
X104060836Y-246569954D01*
X103881118Y-246511559D01*
X103694486Y-246482000D01*
X103694481Y-246482000D01*
X103505519Y-246482000D01*
X103505514Y-246482000D01*
X103318881Y-246511559D01*
X103139163Y-246569954D01*
X102970800Y-246655740D01*
X102883579Y-246719110D01*
X102817927Y-246766810D01*
X102817925Y-246766812D01*
X102817924Y-246766812D01*
X102734828Y-246849909D01*
X102673505Y-246883394D01*
X102603813Y-246878410D01*
X102559466Y-246849909D01*
X102476746Y-246767189D01*
X102476741Y-246767185D01*
X102323940Y-246656170D01*
X102155635Y-246570413D01*
X101976004Y-246512049D01*
X101975995Y-246512047D01*
X101945000Y-246507137D01*
X101945000Y-247366814D01*
X101940606Y-247362420D01*
X101849394Y-247309759D01*
X101747661Y-247282500D01*
X101642339Y-247282500D01*
X101540606Y-247309759D01*
X101449394Y-247362420D01*
X101445000Y-247366814D01*
X101445000Y-246507137D01*
X101444999Y-246507137D01*
X101414004Y-246512047D01*
X101413995Y-246512049D01*
X101234364Y-246570413D01*
X101066059Y-246656170D01*
X100913258Y-246767185D01*
X100913253Y-246767189D01*
X100779689Y-246900753D01*
X100779685Y-246900758D01*
X100668670Y-247053559D01*
X100582914Y-247221862D01*
X100524548Y-247401497D01*
X100519638Y-247432500D01*
X88504213Y-247432500D01*
X88513964Y-247377194D01*
X88513964Y-247377193D01*
X88513965Y-247377188D01*
X88550500Y-246959594D01*
X88550500Y-246540406D01*
X88513965Y-246122812D01*
X88441174Y-245709992D01*
X88332680Y-245305087D01*
X88189309Y-244911178D01*
X88012152Y-244531264D01*
X87802557Y-244168236D01*
X87802549Y-244168225D01*
X87802545Y-244168218D01*
X87562120Y-243824855D01*
X87371757Y-243597991D01*
X87292671Y-243503740D01*
X86996260Y-243207329D01*
X86907249Y-243132640D01*
X86675144Y-242937879D01*
X86331781Y-242697454D01*
X86331770Y-242697447D01*
X86331764Y-242697443D01*
X85981990Y-242495500D01*
X85968742Y-242487851D01*
X85968726Y-242487843D01*
X85963273Y-242485300D01*
X101812000Y-242485300D01*
X101812000Y-242719699D01*
X101835795Y-242900430D01*
X101842594Y-242952070D01*
X101879720Y-243090628D01*
X101903258Y-243178472D01*
X101992946Y-243394999D01*
X101992954Y-243395016D01*
X102110138Y-243597983D01*
X102110149Y-243597999D01*
X102252824Y-243783938D01*
X102252830Y-243783945D01*
X102418554Y-243949669D01*
X102418561Y-243949675D01*
X102464890Y-243985224D01*
X102604509Y-244092357D01*
X102604516Y-244092361D01*
X102807483Y-244209545D01*
X102807488Y-244209547D01*
X102807491Y-244209549D01*
X102807495Y-244209550D01*
X102807500Y-244209553D01*
X103024028Y-244299241D01*
X103024026Y-244299241D01*
X103024032Y-244299242D01*
X103024033Y-244299243D01*
X103250430Y-244359906D01*
X103482808Y-244390500D01*
X103482815Y-244390500D01*
X103717185Y-244390500D01*
X103717192Y-244390500D01*
X103949570Y-244359906D01*
X104175967Y-244299243D01*
X104392509Y-244209549D01*
X104595491Y-244092357D01*
X104781440Y-243949674D01*
X104947174Y-243783940D01*
X105089857Y-243597991D01*
X105207049Y-243395009D01*
X105296743Y-243178467D01*
X105357406Y-242952070D01*
X105388000Y-242719692D01*
X105388000Y-242485308D01*
X105357406Y-242252930D01*
X105296743Y-242026533D01*
X105279968Y-241986035D01*
X105207053Y-241810000D01*
X105207045Y-241809983D01*
X105089861Y-241607016D01*
X105089857Y-241607009D01*
X105015644Y-241510292D01*
X104947175Y-241421061D01*
X104947169Y-241421054D01*
X104781445Y-241255330D01*
X104781438Y-241255324D01*
X104595499Y-241112649D01*
X104595497Y-241112647D01*
X104595491Y-241112643D01*
X104595486Y-241112640D01*
X104595483Y-241112638D01*
X104392516Y-240995454D01*
X104392499Y-240995446D01*
X104175971Y-240905758D01*
X104175973Y-240905758D01*
X104055663Y-240873521D01*
X103949570Y-240845094D01*
X103897930Y-240838295D01*
X103717199Y-240814500D01*
X103717192Y-240814500D01*
X103482808Y-240814500D01*
X103482800Y-240814500D01*
X103276249Y-240841694D01*
X103250430Y-240845094D01*
X103181150Y-240863657D01*
X103024027Y-240905758D01*
X102807500Y-240995446D01*
X102807483Y-240995454D01*
X102604516Y-241112638D01*
X102604500Y-241112649D01*
X102418561Y-241255324D01*
X102418554Y-241255330D01*
X102252830Y-241421054D01*
X102252824Y-241421061D01*
X102110149Y-241607000D01*
X102110138Y-241607016D01*
X101992954Y-241809983D01*
X101992946Y-241810000D01*
X101903258Y-242026527D01*
X101842594Y-242252931D01*
X101812000Y-242485300D01*
X85963273Y-242485300D01*
X85588839Y-242310698D01*
X85588831Y-242310695D01*
X85588829Y-242310694D01*
X85588822Y-242310691D01*
X85194913Y-242167320D01*
X85194912Y-242167319D01*
X85194902Y-242167316D01*
X84790015Y-242058828D01*
X84790018Y-242058828D01*
X84790008Y-242058826D01*
X84790002Y-242058824D01*
X84789998Y-242058824D01*
X84377192Y-241986035D01*
X83959597Y-241949500D01*
X83959594Y-241949500D01*
X83540406Y-241949500D01*
X83540402Y-241949500D01*
X83122809Y-241986035D01*
X83122805Y-241986035D01*
X82710001Y-242058824D01*
X82709984Y-242058828D01*
X82305097Y-242167316D01*
X82251096Y-242186971D01*
X81911178Y-242310691D01*
X81911174Y-242310692D01*
X81911168Y-242310695D01*
X81911160Y-242310698D01*
X81531273Y-242487843D01*
X81531257Y-242487851D01*
X81168244Y-242697438D01*
X81168218Y-242697454D01*
X80824855Y-242937879D01*
X80503737Y-243207331D01*
X80207331Y-243503737D01*
X79937879Y-243824855D01*
X79697454Y-244168218D01*
X79697438Y-244168244D01*
X79681887Y-244195180D01*
X79631320Y-244243396D01*
X79562713Y-244256618D01*
X79497848Y-244230650D01*
X79457320Y-244173736D01*
X79450500Y-244133180D01*
X79450500Y-240821153D01*
X87599500Y-240821153D01*
X87599500Y-240978846D01*
X87630261Y-241133489D01*
X87630264Y-241133501D01*
X87690602Y-241279172D01*
X87690609Y-241279185D01*
X87778210Y-241410288D01*
X87778213Y-241410292D01*
X87889707Y-241521786D01*
X87889711Y-241521789D01*
X88020814Y-241609390D01*
X88020827Y-241609397D01*
X88115664Y-241648679D01*
X88137097Y-241660134D01*
X88144505Y-241665084D01*
X88281087Y-241721658D01*
X88281091Y-241721658D01*
X88281092Y-241721659D01*
X88426079Y-241750500D01*
X88426082Y-241750500D01*
X88573917Y-241750500D01*
X91295396Y-241750500D01*
X91342844Y-241759937D01*
X91366503Y-241769737D01*
X91366508Y-241769738D01*
X91366511Y-241769739D01*
X91521153Y-241800499D01*
X91521156Y-241800500D01*
X91521158Y-241800500D01*
X91678844Y-241800500D01*
X91678845Y-241800499D01*
X91833497Y-241769737D01*
X91979179Y-241709394D01*
X92110289Y-241621789D01*
X92221789Y-241510289D01*
X92309394Y-241379179D01*
X92369737Y-241233497D01*
X92400500Y-241078842D01*
X92400500Y-240921158D01*
X92400500Y-240921155D01*
X92400499Y-240921153D01*
X92397437Y-240905758D01*
X92369737Y-240766503D01*
X92328314Y-240666498D01*
X92309397Y-240620827D01*
X92309390Y-240620814D01*
X92221789Y-240489711D01*
X92221786Y-240489707D01*
X92110292Y-240378213D01*
X92110288Y-240378210D01*
X91979185Y-240290609D01*
X91979172Y-240290602D01*
X91833501Y-240230264D01*
X91833489Y-240230261D01*
X91678845Y-240199500D01*
X91678842Y-240199500D01*
X91521158Y-240199500D01*
X91521155Y-240199500D01*
X91366511Y-240230260D01*
X91366506Y-240230262D01*
X91366504Y-240230262D01*
X91366503Y-240230263D01*
X91342844Y-240240062D01*
X91295396Y-240249500D01*
X88904935Y-240249500D01*
X88837896Y-240229815D01*
X88836090Y-240228633D01*
X88779179Y-240190606D01*
X88779172Y-240190602D01*
X88633501Y-240130264D01*
X88633489Y-240130261D01*
X88478845Y-240099500D01*
X88478842Y-240099500D01*
X88321158Y-240099500D01*
X88321155Y-240099500D01*
X88166510Y-240130261D01*
X88166498Y-240130264D01*
X88020827Y-240190602D01*
X88020814Y-240190609D01*
X87889711Y-240278210D01*
X87889707Y-240278213D01*
X87778213Y-240389707D01*
X87778210Y-240389711D01*
X87690609Y-240520814D01*
X87690602Y-240520827D01*
X87630264Y-240666498D01*
X87630261Y-240666510D01*
X87599500Y-240821153D01*
X79450500Y-240821153D01*
X79450500Y-238552648D01*
X109699500Y-238552648D01*
X109699500Y-238757351D01*
X109731522Y-238959534D01*
X109794781Y-239154223D01*
X109887715Y-239336613D01*
X110008028Y-239502213D01*
X110152786Y-239646971D01*
X110307749Y-239759556D01*
X110318390Y-239767287D01*
X110409840Y-239813883D01*
X110411080Y-239814515D01*
X110461876Y-239862490D01*
X110478671Y-239930311D01*
X110456134Y-239996446D01*
X110411080Y-240035485D01*
X110318386Y-240082715D01*
X110152786Y-240203028D01*
X110008028Y-240347786D01*
X109887715Y-240513386D01*
X109794781Y-240695776D01*
X109731522Y-240890465D01*
X109699500Y-241092648D01*
X109699500Y-241297351D01*
X109731522Y-241499534D01*
X109794781Y-241694223D01*
X109887715Y-241876613D01*
X110008028Y-242042213D01*
X110152786Y-242186971D01*
X110279058Y-242278711D01*
X110318390Y-242307287D01*
X110434607Y-242366503D01*
X110500776Y-242400218D01*
X110500778Y-242400218D01*
X110500781Y-242400220D01*
X110605137Y-242434127D01*
X110695465Y-242463477D01*
X110796557Y-242479488D01*
X110897648Y-242495500D01*
X110897649Y-242495500D01*
X111102351Y-242495500D01*
X111102352Y-242495500D01*
X111304534Y-242463477D01*
X111499219Y-242400220D01*
X111681610Y-242307287D01*
X111774590Y-242239732D01*
X111847213Y-242186971D01*
X111847215Y-242186968D01*
X111847219Y-242186966D01*
X111991966Y-242042219D01*
X111991968Y-242042215D01*
X111991971Y-242042213D01*
X112059330Y-241949500D01*
X112112287Y-241876610D01*
X112205220Y-241694219D01*
X112268477Y-241499534D01*
X112300500Y-241297352D01*
X112300500Y-241092648D01*
X112285105Y-240995451D01*
X112268477Y-240890465D01*
X112205218Y-240695776D01*
X112167022Y-240620814D01*
X112112287Y-240513390D01*
X112095083Y-240489711D01*
X111991971Y-240347786D01*
X111847213Y-240203028D01*
X111681614Y-240082715D01*
X111675006Y-240079348D01*
X111588917Y-240035483D01*
X111538123Y-239987511D01*
X111521328Y-239919690D01*
X111543865Y-239853555D01*
X111588917Y-239814516D01*
X111681610Y-239767287D01*
X111702770Y-239751913D01*
X111847213Y-239646971D01*
X111847215Y-239646968D01*
X111847219Y-239646966D01*
X111991966Y-239502219D01*
X111991968Y-239502215D01*
X111991971Y-239502213D01*
X112044732Y-239429590D01*
X112112287Y-239336610D01*
X112205220Y-239154219D01*
X112268477Y-238959534D01*
X112300500Y-238757352D01*
X112300500Y-238552648D01*
X112268477Y-238350466D01*
X112205220Y-238155781D01*
X112205218Y-238155778D01*
X112205218Y-238155776D01*
X112171503Y-238089607D01*
X112112287Y-237973390D01*
X112104556Y-237962749D01*
X111991971Y-237807786D01*
X111847213Y-237663028D01*
X111681613Y-237542715D01*
X111681612Y-237542714D01*
X111681610Y-237542713D01*
X111624653Y-237513691D01*
X111499223Y-237449781D01*
X111304534Y-237386522D01*
X111129995Y-237358878D01*
X111102352Y-237354500D01*
X110897648Y-237354500D01*
X110873329Y-237358351D01*
X110695465Y-237386522D01*
X110500776Y-237449781D01*
X110318386Y-237542715D01*
X110152786Y-237663028D01*
X110008028Y-237807786D01*
X109887715Y-237973386D01*
X109794781Y-238155776D01*
X109731522Y-238350465D01*
X109699500Y-238552648D01*
X79450500Y-238552648D01*
X79450500Y-230298347D01*
X82395406Y-230298347D01*
X82395406Y-230510840D01*
X82428648Y-230720721D01*
X82428648Y-230720724D01*
X82494310Y-230922811D01*
X82590781Y-231112144D01*
X82630134Y-231166310D01*
X83221618Y-230574827D01*
X83232888Y-230616886D01*
X83305296Y-230742302D01*
X83407698Y-230844704D01*
X83533114Y-230917112D01*
X83575171Y-230928381D01*
X82983688Y-231519863D01*
X82983688Y-231519864D01*
X83037855Y-231559218D01*
X83227188Y-231655689D01*
X83429276Y-231721351D01*
X83639160Y-231754594D01*
X83851652Y-231754594D01*
X84061533Y-231721351D01*
X84061536Y-231721351D01*
X84263623Y-231655689D01*
X84452960Y-231559216D01*
X84507122Y-231519864D01*
X84507123Y-231519864D01*
X83915639Y-230928381D01*
X83957698Y-230917112D01*
X84083114Y-230844704D01*
X84185516Y-230742302D01*
X84257924Y-230616886D01*
X84269193Y-230574827D01*
X84860676Y-231166311D01*
X84860676Y-231166310D01*
X84900028Y-231112148D01*
X84996501Y-230922811D01*
X85062163Y-230720724D01*
X85062163Y-230720721D01*
X85095406Y-230510840D01*
X85095406Y-230298347D01*
X87475406Y-230298347D01*
X87475406Y-230510840D01*
X87508648Y-230720721D01*
X87508648Y-230720724D01*
X87574310Y-230922811D01*
X87670781Y-231112144D01*
X87710134Y-231166310D01*
X88301618Y-230574827D01*
X88312888Y-230616886D01*
X88385296Y-230742302D01*
X88487698Y-230844704D01*
X88613114Y-230917112D01*
X88655171Y-230928381D01*
X88063688Y-231519863D01*
X88063688Y-231519864D01*
X88117855Y-231559218D01*
X88307188Y-231655689D01*
X88509276Y-231721351D01*
X88719160Y-231754594D01*
X88931652Y-231754594D01*
X89141533Y-231721351D01*
X89141536Y-231721351D01*
X89343623Y-231655689D01*
X89532960Y-231559216D01*
X89587122Y-231519864D01*
X89587123Y-231519864D01*
X88995639Y-230928381D01*
X89037698Y-230917112D01*
X89163114Y-230844704D01*
X89265516Y-230742302D01*
X89337924Y-230616886D01*
X89349193Y-230574827D01*
X89940676Y-231166311D01*
X89940676Y-231166310D01*
X89980028Y-231112148D01*
X90076501Y-230922811D01*
X90142163Y-230720724D01*
X90142163Y-230720721D01*
X90175406Y-230510840D01*
X90175406Y-230298347D01*
X92555406Y-230298347D01*
X92555406Y-230510840D01*
X92588648Y-230720721D01*
X92588648Y-230720724D01*
X92654310Y-230922811D01*
X92750781Y-231112144D01*
X92790134Y-231166310D01*
X93381618Y-230574827D01*
X93392888Y-230616886D01*
X93465296Y-230742302D01*
X93567698Y-230844704D01*
X93693114Y-230917112D01*
X93735171Y-230928381D01*
X93143688Y-231519863D01*
X93143688Y-231519864D01*
X93197855Y-231559218D01*
X93387188Y-231655689D01*
X93589276Y-231721351D01*
X93799160Y-231754594D01*
X94011652Y-231754594D01*
X94221533Y-231721351D01*
X94221536Y-231721351D01*
X94423623Y-231655689D01*
X94612960Y-231559216D01*
X94667122Y-231519864D01*
X94667123Y-231519864D01*
X94075639Y-230928381D01*
X94117698Y-230917112D01*
X94243114Y-230844704D01*
X94345516Y-230742302D01*
X94417924Y-230616886D01*
X94429193Y-230574828D01*
X95020676Y-231166311D01*
X95020676Y-231166310D01*
X95060028Y-231112148D01*
X95156501Y-230922811D01*
X95222163Y-230720724D01*
X95222163Y-230720721D01*
X95255406Y-230510840D01*
X95255406Y-230298347D01*
X97635406Y-230298347D01*
X97635406Y-230510840D01*
X97668648Y-230720721D01*
X97668648Y-230720724D01*
X97734310Y-230922811D01*
X97830781Y-231112144D01*
X97870134Y-231166310D01*
X98461618Y-230574827D01*
X98472888Y-230616886D01*
X98545296Y-230742302D01*
X98647698Y-230844704D01*
X98773114Y-230917112D01*
X98815171Y-230928381D01*
X98223688Y-231519863D01*
X98223688Y-231519864D01*
X98277855Y-231559218D01*
X98467188Y-231655689D01*
X98669276Y-231721351D01*
X98879160Y-231754594D01*
X99091652Y-231754594D01*
X99301533Y-231721351D01*
X99301536Y-231721351D01*
X99503623Y-231655689D01*
X99692960Y-231559216D01*
X99747122Y-231519864D01*
X99747123Y-231519864D01*
X99155639Y-230928381D01*
X99197698Y-230917112D01*
X99323114Y-230844704D01*
X99425516Y-230742302D01*
X99497924Y-230616886D01*
X99509193Y-230574828D01*
X100100676Y-231166311D01*
X100100676Y-231166310D01*
X100140028Y-231112148D01*
X100236501Y-230922811D01*
X100302163Y-230720724D01*
X100302163Y-230720721D01*
X100335406Y-230510840D01*
X100335406Y-230298347D01*
X102715406Y-230298347D01*
X102715406Y-230510840D01*
X102748648Y-230720721D01*
X102748648Y-230720724D01*
X102814310Y-230922811D01*
X102910781Y-231112144D01*
X102950134Y-231166310D01*
X103541618Y-230574827D01*
X103552888Y-230616886D01*
X103625296Y-230742302D01*
X103727698Y-230844704D01*
X103853114Y-230917112D01*
X103895171Y-230928381D01*
X103303688Y-231519863D01*
X103303688Y-231519864D01*
X103357855Y-231559218D01*
X103547188Y-231655689D01*
X103749276Y-231721351D01*
X103959160Y-231754594D01*
X104171652Y-231754594D01*
X104381533Y-231721351D01*
X104381536Y-231721351D01*
X104583623Y-231655689D01*
X104772960Y-231559216D01*
X104827122Y-231519864D01*
X104827123Y-231519864D01*
X104235639Y-230928381D01*
X104277698Y-230917112D01*
X104403114Y-230844704D01*
X104505516Y-230742302D01*
X104577924Y-230616886D01*
X104589193Y-230574827D01*
X105180676Y-231166311D01*
X105180676Y-231166310D01*
X105220028Y-231112148D01*
X105316501Y-230922811D01*
X105382163Y-230720724D01*
X105382163Y-230720721D01*
X105415406Y-230510840D01*
X105415406Y-230298347D01*
X107795406Y-230298347D01*
X107795406Y-230510840D01*
X107828648Y-230720721D01*
X107828648Y-230720724D01*
X107894310Y-230922811D01*
X107990781Y-231112144D01*
X108030134Y-231166310D01*
X108621618Y-230574827D01*
X108632888Y-230616886D01*
X108705296Y-230742302D01*
X108807698Y-230844704D01*
X108933114Y-230917112D01*
X108975171Y-230928381D01*
X108383688Y-231519863D01*
X108383688Y-231519864D01*
X108437855Y-231559218D01*
X108627188Y-231655689D01*
X108829276Y-231721351D01*
X109039160Y-231754594D01*
X109251652Y-231754594D01*
X109461533Y-231721351D01*
X109461536Y-231721351D01*
X109663623Y-231655689D01*
X109852960Y-231559216D01*
X109907122Y-231519864D01*
X109907123Y-231519864D01*
X109315639Y-230928381D01*
X109357698Y-230917112D01*
X109483114Y-230844704D01*
X109585516Y-230742302D01*
X109657924Y-230616886D01*
X109669193Y-230574828D01*
X110260676Y-231166311D01*
X110260676Y-231166310D01*
X110300028Y-231112148D01*
X110396501Y-230922811D01*
X110462163Y-230720724D01*
X110462163Y-230720721D01*
X110495406Y-230510840D01*
X110495406Y-230298347D01*
X110462163Y-230088466D01*
X110462163Y-230088463D01*
X110396501Y-229886376D01*
X110300030Y-229697043D01*
X110260676Y-229642876D01*
X109669193Y-230234359D01*
X109657924Y-230192302D01*
X109585516Y-230066886D01*
X109483114Y-229964484D01*
X109357698Y-229892076D01*
X109315639Y-229880806D01*
X109907122Y-229289322D01*
X109852956Y-229249969D01*
X109663623Y-229153498D01*
X109461535Y-229087836D01*
X109251652Y-229054594D01*
X109039160Y-229054594D01*
X108829278Y-229087836D01*
X108829275Y-229087836D01*
X108627188Y-229153498D01*
X108437845Y-229249974D01*
X108383688Y-229289321D01*
X108383688Y-229289322D01*
X108975172Y-229880806D01*
X108933114Y-229892076D01*
X108807698Y-229964484D01*
X108705296Y-230066886D01*
X108632888Y-230192302D01*
X108621618Y-230234360D01*
X108030134Y-229642876D01*
X108030133Y-229642876D01*
X107990786Y-229697033D01*
X107894310Y-229886376D01*
X107828648Y-230088463D01*
X107828648Y-230088466D01*
X107795406Y-230298347D01*
X105415406Y-230298347D01*
X105382163Y-230088466D01*
X105382163Y-230088463D01*
X105316501Y-229886376D01*
X105220030Y-229697043D01*
X105180676Y-229642876D01*
X104589193Y-230234359D01*
X104577924Y-230192302D01*
X104505516Y-230066886D01*
X104403114Y-229964484D01*
X104277698Y-229892076D01*
X104235639Y-229880806D01*
X104827122Y-229289322D01*
X104772956Y-229249969D01*
X104583623Y-229153498D01*
X104381535Y-229087836D01*
X104171652Y-229054594D01*
X103959160Y-229054594D01*
X103749278Y-229087836D01*
X103749275Y-229087836D01*
X103547188Y-229153498D01*
X103357845Y-229249974D01*
X103303688Y-229289321D01*
X103303688Y-229289322D01*
X103895172Y-229880806D01*
X103853114Y-229892076D01*
X103727698Y-229964484D01*
X103625296Y-230066886D01*
X103552888Y-230192302D01*
X103541618Y-230234360D01*
X102950134Y-229642876D01*
X102950133Y-229642876D01*
X102910786Y-229697033D01*
X102814310Y-229886376D01*
X102748648Y-230088463D01*
X102748648Y-230088466D01*
X102715406Y-230298347D01*
X100335406Y-230298347D01*
X100302163Y-230088466D01*
X100302163Y-230088463D01*
X100236501Y-229886376D01*
X100140030Y-229697043D01*
X100100676Y-229642876D01*
X100100675Y-229642876D01*
X99509193Y-230234359D01*
X99497924Y-230192302D01*
X99425516Y-230066886D01*
X99323114Y-229964484D01*
X99197698Y-229892076D01*
X99155639Y-229880806D01*
X99747122Y-229289322D01*
X99692956Y-229249969D01*
X99503623Y-229153498D01*
X99301535Y-229087836D01*
X99091652Y-229054594D01*
X98879160Y-229054594D01*
X98669278Y-229087836D01*
X98669275Y-229087836D01*
X98467188Y-229153498D01*
X98277845Y-229249974D01*
X98223688Y-229289321D01*
X98223688Y-229289322D01*
X98815172Y-229880806D01*
X98773114Y-229892076D01*
X98647698Y-229964484D01*
X98545296Y-230066886D01*
X98472888Y-230192302D01*
X98461618Y-230234360D01*
X97870134Y-229642876D01*
X97870133Y-229642876D01*
X97830786Y-229697033D01*
X97734310Y-229886376D01*
X97668648Y-230088463D01*
X97668648Y-230088466D01*
X97635406Y-230298347D01*
X95255406Y-230298347D01*
X95222163Y-230088466D01*
X95222163Y-230088463D01*
X95156501Y-229886376D01*
X95060030Y-229697043D01*
X95020676Y-229642876D01*
X95020675Y-229642876D01*
X94429193Y-230234359D01*
X94417924Y-230192302D01*
X94345516Y-230066886D01*
X94243114Y-229964484D01*
X94117698Y-229892076D01*
X94075639Y-229880806D01*
X94667122Y-229289322D01*
X94612956Y-229249969D01*
X94423623Y-229153498D01*
X94221535Y-229087836D01*
X94011652Y-229054594D01*
X93799160Y-229054594D01*
X93589278Y-229087836D01*
X93589275Y-229087836D01*
X93387188Y-229153498D01*
X93197845Y-229249974D01*
X93143688Y-229289321D01*
X93143688Y-229289322D01*
X93735172Y-229880806D01*
X93693114Y-229892076D01*
X93567698Y-229964484D01*
X93465296Y-230066886D01*
X93392888Y-230192302D01*
X93381618Y-230234360D01*
X92790134Y-229642876D01*
X92790133Y-229642876D01*
X92750786Y-229697033D01*
X92654310Y-229886376D01*
X92588648Y-230088463D01*
X92588648Y-230088466D01*
X92555406Y-230298347D01*
X90175406Y-230298347D01*
X90142163Y-230088466D01*
X90142163Y-230088463D01*
X90076501Y-229886376D01*
X89980030Y-229697043D01*
X89940676Y-229642876D01*
X89940675Y-229642876D01*
X89349193Y-230234359D01*
X89337924Y-230192302D01*
X89265516Y-230066886D01*
X89163114Y-229964484D01*
X89037698Y-229892076D01*
X88995639Y-229880806D01*
X89587122Y-229289322D01*
X89532956Y-229249969D01*
X89343623Y-229153498D01*
X89141535Y-229087836D01*
X88931652Y-229054594D01*
X88719160Y-229054594D01*
X88509278Y-229087836D01*
X88509275Y-229087836D01*
X88307188Y-229153498D01*
X88117845Y-229249974D01*
X88063688Y-229289321D01*
X88063688Y-229289322D01*
X88655172Y-229880806D01*
X88613114Y-229892076D01*
X88487698Y-229964484D01*
X88385296Y-230066886D01*
X88312888Y-230192302D01*
X88301618Y-230234360D01*
X87710134Y-229642876D01*
X87710133Y-229642876D01*
X87670786Y-229697033D01*
X87574310Y-229886376D01*
X87508648Y-230088463D01*
X87508648Y-230088466D01*
X87475406Y-230298347D01*
X85095406Y-230298347D01*
X85062163Y-230088466D01*
X85062163Y-230088463D01*
X84996501Y-229886376D01*
X84900030Y-229697043D01*
X84860676Y-229642876D01*
X84860675Y-229642876D01*
X84269193Y-230234359D01*
X84257924Y-230192302D01*
X84185516Y-230066886D01*
X84083114Y-229964484D01*
X83957698Y-229892076D01*
X83915639Y-229880806D01*
X84507122Y-229289322D01*
X84452956Y-229249969D01*
X84263623Y-229153498D01*
X84061535Y-229087836D01*
X83851652Y-229054594D01*
X83639160Y-229054594D01*
X83429278Y-229087836D01*
X83429275Y-229087836D01*
X83227188Y-229153498D01*
X83037845Y-229249974D01*
X82983688Y-229289321D01*
X82983688Y-229289322D01*
X83575172Y-229880806D01*
X83533114Y-229892076D01*
X83407698Y-229964484D01*
X83305296Y-230066886D01*
X83232888Y-230192302D01*
X83221618Y-230234360D01*
X82630134Y-229642876D01*
X82630133Y-229642876D01*
X82590786Y-229697033D01*
X82494310Y-229886376D01*
X82428648Y-230088463D01*
X82428648Y-230088466D01*
X82395406Y-230298347D01*
X79450500Y-230298347D01*
X79450500Y-227748347D01*
X79845406Y-227748347D01*
X79845406Y-227960840D01*
X79878648Y-228170721D01*
X79878648Y-228170724D01*
X79944310Y-228372811D01*
X80040781Y-228562144D01*
X80080134Y-228616310D01*
X80671618Y-228024827D01*
X80682888Y-228066886D01*
X80755296Y-228192302D01*
X80857698Y-228294704D01*
X80983114Y-228367112D01*
X81025171Y-228378381D01*
X80433688Y-228969863D01*
X80433688Y-228969864D01*
X80487855Y-229009218D01*
X80677188Y-229105689D01*
X80879276Y-229171351D01*
X81089160Y-229204594D01*
X81301652Y-229204594D01*
X81511533Y-229171351D01*
X81511536Y-229171351D01*
X81713623Y-229105689D01*
X81902960Y-229009216D01*
X81957122Y-228969864D01*
X81957123Y-228969864D01*
X81365639Y-228378381D01*
X81407698Y-228367112D01*
X81533114Y-228294704D01*
X81635516Y-228192302D01*
X81707924Y-228066886D01*
X81719193Y-228024827D01*
X82310676Y-228616311D01*
X82310676Y-228616310D01*
X82350028Y-228562148D01*
X82446501Y-228372811D01*
X82512163Y-228170724D01*
X82512163Y-228170721D01*
X82545406Y-227960840D01*
X82545406Y-227748347D01*
X82512163Y-227538466D01*
X82512163Y-227538463D01*
X82446501Y-227336376D01*
X82350030Y-227147043D01*
X82310676Y-227092876D01*
X82310675Y-227092876D01*
X81719193Y-227684359D01*
X81707924Y-227642302D01*
X81635516Y-227516886D01*
X81533114Y-227414484D01*
X81407698Y-227342076D01*
X81365639Y-227330806D01*
X81957122Y-226739322D01*
X81902956Y-226699969D01*
X81713623Y-226603498D01*
X81511535Y-226537836D01*
X81301652Y-226504594D01*
X81089160Y-226504594D01*
X80879278Y-226537836D01*
X80879275Y-226537836D01*
X80677188Y-226603498D01*
X80487845Y-226699974D01*
X80433688Y-226739321D01*
X80433688Y-226739322D01*
X81025172Y-227330806D01*
X80983114Y-227342076D01*
X80857698Y-227414484D01*
X80755296Y-227516886D01*
X80682888Y-227642302D01*
X80671618Y-227684360D01*
X80080134Y-227092876D01*
X80080133Y-227092876D01*
X80040786Y-227147033D01*
X79944310Y-227336376D01*
X79878648Y-227538463D01*
X79878648Y-227538466D01*
X79845406Y-227748347D01*
X79450500Y-227748347D01*
X79450500Y-222668347D01*
X79845406Y-222668347D01*
X79845406Y-222880840D01*
X79878648Y-223090721D01*
X79878648Y-223090724D01*
X79944310Y-223292811D01*
X80040781Y-223482144D01*
X80080134Y-223536310D01*
X80671618Y-222944827D01*
X80682888Y-222986886D01*
X80755296Y-223112302D01*
X80857698Y-223214704D01*
X80983114Y-223287112D01*
X81025171Y-223298381D01*
X80433688Y-223889863D01*
X80433688Y-223889864D01*
X80487855Y-223929218D01*
X80677188Y-224025689D01*
X80879276Y-224091351D01*
X81089160Y-224124594D01*
X81301652Y-224124594D01*
X81511533Y-224091351D01*
X81511536Y-224091351D01*
X81713623Y-224025689D01*
X81902960Y-223929216D01*
X81957122Y-223889864D01*
X81957123Y-223889864D01*
X81365639Y-223298381D01*
X81407698Y-223287112D01*
X81533114Y-223214704D01*
X81635516Y-223112302D01*
X81707924Y-222986886D01*
X81719193Y-222944827D01*
X82310676Y-223536311D01*
X82310676Y-223536310D01*
X82350028Y-223482148D01*
X82446501Y-223292811D01*
X82512163Y-223090724D01*
X82512163Y-223090721D01*
X82545406Y-222880840D01*
X82545406Y-222668347D01*
X82512163Y-222458466D01*
X82512163Y-222458463D01*
X82446501Y-222256376D01*
X82350030Y-222067043D01*
X82310676Y-222012876D01*
X82310675Y-222012876D01*
X81719193Y-222604359D01*
X81707924Y-222562302D01*
X81635516Y-222436886D01*
X81533114Y-222334484D01*
X81407698Y-222262076D01*
X81365639Y-222250806D01*
X81957122Y-221659322D01*
X81902956Y-221619969D01*
X81713623Y-221523498D01*
X81511535Y-221457836D01*
X81301652Y-221424594D01*
X81089160Y-221424594D01*
X80879278Y-221457836D01*
X80879275Y-221457836D01*
X80677188Y-221523498D01*
X80487845Y-221619974D01*
X80433688Y-221659321D01*
X80433688Y-221659322D01*
X81025172Y-222250806D01*
X80983114Y-222262076D01*
X80857698Y-222334484D01*
X80755296Y-222436886D01*
X80682888Y-222562302D01*
X80671618Y-222604360D01*
X80080134Y-222012876D01*
X80080133Y-222012876D01*
X80040786Y-222067033D01*
X79944310Y-222256376D01*
X79878648Y-222458463D01*
X79878648Y-222458466D01*
X79845406Y-222668347D01*
X79450500Y-222668347D01*
X79450500Y-217588347D01*
X79845406Y-217588347D01*
X79845406Y-217800840D01*
X79878648Y-218010721D01*
X79878648Y-218010724D01*
X79944310Y-218212811D01*
X80040781Y-218402144D01*
X80080134Y-218456310D01*
X80671618Y-217864827D01*
X80682888Y-217906886D01*
X80755296Y-218032302D01*
X80857698Y-218134704D01*
X80983114Y-218207112D01*
X81025171Y-218218381D01*
X80433688Y-218809863D01*
X80433688Y-218809864D01*
X80487855Y-218849218D01*
X80677188Y-218945689D01*
X80879276Y-219011351D01*
X81089160Y-219044594D01*
X81301652Y-219044594D01*
X81511533Y-219011351D01*
X81511536Y-219011351D01*
X81713623Y-218945689D01*
X81902960Y-218849216D01*
X81957122Y-218809864D01*
X81957123Y-218809864D01*
X81365639Y-218218381D01*
X81407698Y-218207112D01*
X81533114Y-218134704D01*
X81635516Y-218032302D01*
X81707924Y-217906886D01*
X81719193Y-217864827D01*
X82310676Y-218456311D01*
X82310676Y-218456310D01*
X82350028Y-218402148D01*
X82446501Y-218212811D01*
X82512163Y-218010724D01*
X82512163Y-218010721D01*
X82545406Y-217800840D01*
X82545406Y-217588347D01*
X82512163Y-217378466D01*
X82512163Y-217378463D01*
X82446501Y-217176376D01*
X82350030Y-216987043D01*
X82310676Y-216932876D01*
X82310675Y-216932876D01*
X81719193Y-217524359D01*
X81707924Y-217482302D01*
X81635516Y-217356886D01*
X81533114Y-217254484D01*
X81407698Y-217182076D01*
X81365639Y-217170806D01*
X81957122Y-216579322D01*
X81902956Y-216539969D01*
X81713623Y-216443498D01*
X81511535Y-216377836D01*
X81301652Y-216344594D01*
X81089160Y-216344594D01*
X80879278Y-216377836D01*
X80879275Y-216377836D01*
X80677188Y-216443498D01*
X80487845Y-216539974D01*
X80433688Y-216579321D01*
X80433688Y-216579322D01*
X81025172Y-217170806D01*
X80983114Y-217182076D01*
X80857698Y-217254484D01*
X80755296Y-217356886D01*
X80682888Y-217482302D01*
X80671618Y-217524360D01*
X80080134Y-216932876D01*
X80080133Y-216932876D01*
X80040786Y-216987033D01*
X79944310Y-217176376D01*
X79878648Y-217378463D01*
X79878648Y-217378466D01*
X79845406Y-217588347D01*
X79450500Y-217588347D01*
X79450500Y-212508347D01*
X79845406Y-212508347D01*
X79845406Y-212720840D01*
X79878648Y-212930721D01*
X79878648Y-212930724D01*
X79944310Y-213132811D01*
X80040781Y-213322144D01*
X80080134Y-213376310D01*
X80671618Y-212784827D01*
X80682888Y-212826886D01*
X80755296Y-212952302D01*
X80857698Y-213054704D01*
X80983114Y-213127112D01*
X81025171Y-213138381D01*
X80433688Y-213729863D01*
X80433688Y-213729864D01*
X80487855Y-213769218D01*
X80677188Y-213865689D01*
X80879276Y-213931351D01*
X81089160Y-213964594D01*
X81301652Y-213964594D01*
X81511533Y-213931351D01*
X81511536Y-213931351D01*
X81713623Y-213865689D01*
X81902960Y-213769216D01*
X81957122Y-213729864D01*
X81957123Y-213729864D01*
X81365639Y-213138381D01*
X81407698Y-213127112D01*
X81533114Y-213054704D01*
X81635516Y-212952302D01*
X81707924Y-212826886D01*
X81719193Y-212784827D01*
X82310676Y-213376311D01*
X82310676Y-213376310D01*
X82350028Y-213322148D01*
X82446501Y-213132811D01*
X82512163Y-212930724D01*
X82512163Y-212930721D01*
X82545406Y-212720840D01*
X82545406Y-212508347D01*
X82512163Y-212298466D01*
X82512163Y-212298463D01*
X82446501Y-212096376D01*
X82350030Y-211907043D01*
X82310676Y-211852876D01*
X82310675Y-211852876D01*
X81719193Y-212444359D01*
X81707924Y-212402302D01*
X81635516Y-212276886D01*
X81533114Y-212174484D01*
X81407698Y-212102076D01*
X81365639Y-212090806D01*
X81957122Y-211499322D01*
X81902956Y-211459969D01*
X81713623Y-211363498D01*
X81511535Y-211297836D01*
X81301652Y-211264594D01*
X81089160Y-211264594D01*
X80879278Y-211297836D01*
X80879275Y-211297836D01*
X80677188Y-211363498D01*
X80487845Y-211459974D01*
X80433688Y-211499321D01*
X80433688Y-211499322D01*
X81025172Y-212090806D01*
X80983114Y-212102076D01*
X80857698Y-212174484D01*
X80755296Y-212276886D01*
X80682888Y-212402302D01*
X80671618Y-212444360D01*
X80080134Y-211852876D01*
X80080133Y-211852876D01*
X80040786Y-211907033D01*
X79944310Y-212096376D01*
X79878648Y-212298463D01*
X79878648Y-212298466D01*
X79845406Y-212508347D01*
X79450500Y-212508347D01*
X79450500Y-207428347D01*
X79845406Y-207428347D01*
X79845406Y-207640840D01*
X79878648Y-207850721D01*
X79878648Y-207850724D01*
X79944310Y-208052811D01*
X80040781Y-208242144D01*
X80080134Y-208296310D01*
X80671618Y-207704827D01*
X80682888Y-207746886D01*
X80755296Y-207872302D01*
X80857698Y-207974704D01*
X80983114Y-208047112D01*
X81025171Y-208058381D01*
X80433688Y-208649863D01*
X80433688Y-208649864D01*
X80487855Y-208689218D01*
X80677188Y-208785689D01*
X80879276Y-208851351D01*
X81089160Y-208884594D01*
X81301652Y-208884594D01*
X81511533Y-208851351D01*
X81511536Y-208851351D01*
X81713623Y-208785689D01*
X81902960Y-208689216D01*
X81957122Y-208649864D01*
X81957123Y-208649864D01*
X81365639Y-208058381D01*
X81407698Y-208047112D01*
X81533114Y-207974704D01*
X81635516Y-207872302D01*
X81707924Y-207746886D01*
X81719193Y-207704827D01*
X82310676Y-208296311D01*
X82310676Y-208296310D01*
X82350028Y-208242148D01*
X82446501Y-208052811D01*
X82512163Y-207850724D01*
X82512163Y-207850721D01*
X82545406Y-207640840D01*
X82545406Y-207428347D01*
X82512163Y-207218466D01*
X82512163Y-207218463D01*
X82446501Y-207016376D01*
X82350030Y-206827043D01*
X82310676Y-206772876D01*
X82310675Y-206772876D01*
X81719193Y-207364359D01*
X81707924Y-207322302D01*
X81635516Y-207196886D01*
X81533114Y-207094484D01*
X81407698Y-207022076D01*
X81365639Y-207010806D01*
X81957122Y-206419322D01*
X81902956Y-206379969D01*
X81713623Y-206283498D01*
X81511535Y-206217836D01*
X81301652Y-206184594D01*
X81089160Y-206184594D01*
X80879278Y-206217836D01*
X80879275Y-206217836D01*
X80677188Y-206283498D01*
X80487845Y-206379974D01*
X80433688Y-206419321D01*
X80433688Y-206419322D01*
X81025172Y-207010806D01*
X80983114Y-207022076D01*
X80857698Y-207094484D01*
X80755296Y-207196886D01*
X80682888Y-207322302D01*
X80671618Y-207364360D01*
X80080134Y-206772876D01*
X80080133Y-206772876D01*
X80040786Y-206827033D01*
X79944310Y-207016376D01*
X79878648Y-207218463D01*
X79878648Y-207218466D01*
X79845406Y-207428347D01*
X79450500Y-207428347D01*
X79450500Y-204071153D01*
X83599500Y-204071153D01*
X83599500Y-204228846D01*
X83630261Y-204383489D01*
X83630264Y-204383501D01*
X83690602Y-204529172D01*
X83690609Y-204529185D01*
X83778210Y-204660288D01*
X83778213Y-204660292D01*
X83889707Y-204771786D01*
X83889711Y-204771789D01*
X84020814Y-204859390D01*
X84020827Y-204859397D01*
X84166498Y-204919735D01*
X84166503Y-204919737D01*
X84321153Y-204950499D01*
X84321156Y-204950500D01*
X84425500Y-204950500D01*
X84492539Y-204970185D01*
X84538294Y-205022989D01*
X84549500Y-205074500D01*
X84549500Y-206397870D01*
X84549501Y-206397876D01*
X84555908Y-206457483D01*
X84606202Y-206592328D01*
X84606206Y-206592335D01*
X84692452Y-206707544D01*
X84692455Y-206707547D01*
X84807664Y-206793793D01*
X84807671Y-206793797D01*
X84942517Y-206844091D01*
X84942516Y-206844091D01*
X84949444Y-206844835D01*
X85002127Y-206850500D01*
X85937768Y-206850499D01*
X86004807Y-206870183D01*
X86025449Y-206886818D01*
X86571578Y-207432947D01*
X86571585Y-207432953D01*
X86629704Y-207471786D01*
X86629706Y-207471787D01*
X86629709Y-207471789D01*
X86694505Y-207515084D01*
X86831087Y-207571658D01*
X86831091Y-207571658D01*
X86831092Y-207571659D01*
X86976079Y-207600500D01*
X86976082Y-207600500D01*
X86976083Y-207600500D01*
X87123917Y-207600500D01*
X88946381Y-207600500D01*
X88947256Y-207600630D01*
X88947694Y-207600507D01*
X88951115Y-207601206D01*
X88982574Y-207605900D01*
X88988302Y-207607648D01*
X89017488Y-207619737D01*
X89047437Y-207625694D01*
X89053361Y-207627502D01*
X89077582Y-207643432D01*
X89103268Y-207656868D01*
X89106417Y-207662397D01*
X89111736Y-207665896D01*
X89123500Y-207692395D01*
X89137844Y-207717583D01*
X89137503Y-207723938D01*
X89140086Y-207729756D01*
X89135657Y-207758400D01*
X89134106Y-207787352D01*
X89130229Y-207793503D01*
X89129410Y-207798805D01*
X89120662Y-207808687D01*
X89104849Y-207833783D01*
X84066052Y-212872578D01*
X84066049Y-212872581D01*
X84024624Y-212934578D01*
X84024625Y-212934579D01*
X83983914Y-212995508D01*
X83927343Y-213132082D01*
X83927340Y-213132092D01*
X83898500Y-213277079D01*
X83898500Y-213277082D01*
X83898500Y-220422918D01*
X83898500Y-220422920D01*
X83898499Y-220422920D01*
X83927340Y-220567907D01*
X83927343Y-220567917D01*
X83983913Y-220704490D01*
X83983914Y-220704491D01*
X83983916Y-220704495D01*
X83997919Y-220725451D01*
X84002929Y-220732949D01*
X84002930Y-220732951D01*
X84066051Y-220827420D01*
X84066052Y-220827421D01*
X84303927Y-221065295D01*
X84330806Y-221105521D01*
X84340606Y-221129180D01*
X84340607Y-221129182D01*
X84428210Y-221260288D01*
X84428213Y-221260292D01*
X84539707Y-221371786D01*
X84539711Y-221371789D01*
X84670814Y-221459390D01*
X84670827Y-221459397D01*
X84816498Y-221519735D01*
X84816503Y-221519737D01*
X84926987Y-221541713D01*
X84949691Y-221546230D01*
X85011602Y-221578615D01*
X85046176Y-221639330D01*
X85049500Y-221667847D01*
X85049500Y-222371982D01*
X85029815Y-222439021D01*
X84994395Y-222475081D01*
X84989712Y-222478210D01*
X84989704Y-222478217D01*
X84878213Y-222589707D01*
X84878210Y-222589711D01*
X84790609Y-222720814D01*
X84790602Y-222720827D01*
X84730264Y-222866498D01*
X84730261Y-222866510D01*
X84699500Y-223021153D01*
X84699500Y-223178846D01*
X84730261Y-223333489D01*
X84730264Y-223333501D01*
X84790602Y-223479172D01*
X84790609Y-223479185D01*
X84878210Y-223610288D01*
X84878213Y-223610292D01*
X84989710Y-223721789D01*
X85017058Y-223740062D01*
X85120821Y-223809394D01*
X85144475Y-223819191D01*
X85184703Y-223846071D01*
X89317049Y-227978416D01*
X89421584Y-228082951D01*
X89421587Y-228082953D01*
X89421588Y-228082954D01*
X89544503Y-228165083D01*
X89544506Y-228165085D01*
X89594665Y-228185861D01*
X89601080Y-228188518D01*
X89681088Y-228221659D01*
X89797241Y-228244763D01*
X89820380Y-228249365D01*
X89826081Y-228250500D01*
X89826082Y-228250500D01*
X102573920Y-228250500D01*
X102671462Y-228231096D01*
X102718913Y-228221658D01*
X102855495Y-228165084D01*
X102904729Y-228132186D01*
X102978416Y-228082952D01*
X103313021Y-227748347D01*
X110345406Y-227748347D01*
X110345406Y-227960840D01*
X110378648Y-228170721D01*
X110378648Y-228170724D01*
X110444310Y-228372811D01*
X110540781Y-228562144D01*
X110580134Y-228616310D01*
X111171618Y-228024827D01*
X111182888Y-228066886D01*
X111255296Y-228192302D01*
X111357698Y-228294704D01*
X111483114Y-228367112D01*
X111525171Y-228378381D01*
X110933688Y-228969863D01*
X110933688Y-228969864D01*
X110987855Y-229009218D01*
X111177188Y-229105689D01*
X111379276Y-229171351D01*
X111589160Y-229204594D01*
X111801652Y-229204594D01*
X112011533Y-229171351D01*
X112011536Y-229171351D01*
X112213623Y-229105689D01*
X112402960Y-229009216D01*
X112457122Y-228969864D01*
X112457123Y-228969864D01*
X111865639Y-228378381D01*
X111907698Y-228367112D01*
X112033114Y-228294704D01*
X112135516Y-228192302D01*
X112207924Y-228066886D01*
X112219193Y-228024827D01*
X112810676Y-228616311D01*
X112810676Y-228616310D01*
X112850028Y-228562148D01*
X112946501Y-228372811D01*
X113012163Y-228170724D01*
X113012163Y-228170721D01*
X113045406Y-227960840D01*
X113045406Y-227748347D01*
X113012163Y-227538466D01*
X113012163Y-227538463D01*
X112946501Y-227336376D01*
X112850030Y-227147043D01*
X112810676Y-227092876D01*
X112810675Y-227092876D01*
X112219193Y-227684359D01*
X112207924Y-227642302D01*
X112135516Y-227516886D01*
X112033114Y-227414484D01*
X111907698Y-227342076D01*
X111865639Y-227330806D01*
X112457122Y-226739322D01*
X112402956Y-226699969D01*
X112213623Y-226603498D01*
X112011535Y-226537836D01*
X111801652Y-226504594D01*
X111589160Y-226504594D01*
X111379278Y-226537836D01*
X111379275Y-226537836D01*
X111177188Y-226603498D01*
X110987845Y-226699974D01*
X110933688Y-226739321D01*
X110933688Y-226739322D01*
X111525172Y-227330806D01*
X111483114Y-227342076D01*
X111357698Y-227414484D01*
X111255296Y-227516886D01*
X111182888Y-227642302D01*
X111171618Y-227684360D01*
X110580134Y-227092876D01*
X110580133Y-227092876D01*
X110540786Y-227147033D01*
X110444310Y-227336376D01*
X110378648Y-227538463D01*
X110378648Y-227538466D01*
X110345406Y-227748347D01*
X103313021Y-227748347D01*
X103719292Y-227342076D01*
X104362467Y-226698900D01*
X104556773Y-226504594D01*
X105715295Y-225346070D01*
X105755519Y-225319193D01*
X105779179Y-225309394D01*
X105910289Y-225221789D01*
X106021789Y-225110289D01*
X106109394Y-224979179D01*
X106169737Y-224833497D01*
X106200500Y-224678842D01*
X106200500Y-224656194D01*
X106202883Y-224632000D01*
X106205482Y-224618935D01*
X106205482Y-223898611D01*
X106214126Y-223869170D01*
X106220650Y-223839184D01*
X106224404Y-223834168D01*
X106225167Y-223831572D01*
X106241801Y-223810930D01*
X106682948Y-223369783D01*
X106682951Y-223369780D01*
X106765084Y-223246859D01*
X106821658Y-223110277D01*
X106850500Y-222965282D01*
X106850500Y-222817447D01*
X106850500Y-222668347D01*
X110345406Y-222668347D01*
X110345406Y-222880840D01*
X110378648Y-223090721D01*
X110378648Y-223090724D01*
X110444310Y-223292811D01*
X110540781Y-223482144D01*
X110580134Y-223536310D01*
X111171618Y-222944827D01*
X111182888Y-222986886D01*
X111255296Y-223112302D01*
X111357698Y-223214704D01*
X111483114Y-223287112D01*
X111525171Y-223298381D01*
X110933688Y-223889863D01*
X110933688Y-223889864D01*
X110987855Y-223929218D01*
X111177188Y-224025689D01*
X111379276Y-224091351D01*
X111589160Y-224124594D01*
X111801652Y-224124594D01*
X112011533Y-224091351D01*
X112011536Y-224091351D01*
X112213623Y-224025689D01*
X112402960Y-223929216D01*
X112457122Y-223889864D01*
X112457123Y-223889864D01*
X111865639Y-223298381D01*
X111907698Y-223287112D01*
X112033114Y-223214704D01*
X112135516Y-223112302D01*
X112207924Y-222986886D01*
X112219193Y-222944827D01*
X112810676Y-223536311D01*
X112810676Y-223536310D01*
X112850028Y-223482148D01*
X112946501Y-223292811D01*
X113012163Y-223090724D01*
X113012163Y-223090721D01*
X113045406Y-222880840D01*
X113045406Y-222668347D01*
X113012163Y-222458466D01*
X113012163Y-222458463D01*
X112946501Y-222256376D01*
X112850030Y-222067043D01*
X112810676Y-222012876D01*
X112810675Y-222012876D01*
X112219193Y-222604359D01*
X112207924Y-222562302D01*
X112135516Y-222436886D01*
X112033114Y-222334484D01*
X111907698Y-222262076D01*
X111865639Y-222250806D01*
X112457122Y-221659322D01*
X112402956Y-221619969D01*
X112213623Y-221523498D01*
X112011535Y-221457836D01*
X111801652Y-221424594D01*
X111589160Y-221424594D01*
X111379278Y-221457836D01*
X111379275Y-221457836D01*
X111177188Y-221523498D01*
X110987845Y-221619974D01*
X110933688Y-221659321D01*
X110933688Y-221659322D01*
X111525172Y-222250806D01*
X111483114Y-222262076D01*
X111357698Y-222334484D01*
X111255296Y-222436886D01*
X111182888Y-222562302D01*
X111171618Y-222604360D01*
X110580134Y-222012876D01*
X110580133Y-222012876D01*
X110540786Y-222067033D01*
X110444310Y-222256376D01*
X110378648Y-222458463D01*
X110378648Y-222458466D01*
X110345406Y-222668347D01*
X106850500Y-222668347D01*
X106850500Y-222204604D01*
X106859939Y-222157151D01*
X106869737Y-222133497D01*
X106900500Y-221978842D01*
X106900500Y-221821158D01*
X106900500Y-221821155D01*
X106900499Y-221821153D01*
X106883300Y-221734683D01*
X106883295Y-221734667D01*
X106869737Y-221666503D01*
X106856797Y-221635262D01*
X106854684Y-221627336D01*
X106854927Y-221617653D01*
X106850500Y-221595396D01*
X106850500Y-217604604D01*
X106852126Y-217596425D01*
X106851211Y-217591349D01*
X106859939Y-217557151D01*
X106868691Y-217536022D01*
X106869737Y-217533497D01*
X106900500Y-217378842D01*
X106900500Y-217221158D01*
X106900500Y-217221155D01*
X106900499Y-217221153D01*
X106869738Y-217066510D01*
X106869737Y-217066503D01*
X106836820Y-216987033D01*
X106809397Y-216920827D01*
X106809390Y-216920814D01*
X106721789Y-216789711D01*
X106721786Y-216789707D01*
X106610292Y-216678213D01*
X106610288Y-216678210D01*
X106479185Y-216590609D01*
X106479172Y-216590602D01*
X106333501Y-216530264D01*
X106333489Y-216530261D01*
X106178845Y-216499500D01*
X106178842Y-216499500D01*
X106021158Y-216499500D01*
X105998690Y-216503969D01*
X105929099Y-216497740D01*
X105873922Y-216454877D01*
X105850678Y-216388987D01*
X105850500Y-216382351D01*
X105850500Y-213262229D01*
X105870185Y-213195190D01*
X105886819Y-213174548D01*
X106234481Y-212826886D01*
X106553019Y-212508347D01*
X110345406Y-212508347D01*
X110345406Y-212720840D01*
X110378648Y-212930721D01*
X110378648Y-212930724D01*
X110444310Y-213132811D01*
X110540781Y-213322144D01*
X110580134Y-213376310D01*
X111171618Y-212784827D01*
X111182888Y-212826886D01*
X111255296Y-212952302D01*
X111357698Y-213054704D01*
X111483114Y-213127112D01*
X111525171Y-213138381D01*
X110933688Y-213729863D01*
X110933688Y-213729864D01*
X110987855Y-213769218D01*
X111177188Y-213865689D01*
X111379276Y-213931351D01*
X111589160Y-213964594D01*
X111801652Y-213964594D01*
X112011533Y-213931351D01*
X112011536Y-213931351D01*
X112213623Y-213865689D01*
X112402960Y-213769216D01*
X112457122Y-213729864D01*
X112457123Y-213729864D01*
X111865639Y-213138381D01*
X111907698Y-213127112D01*
X112033114Y-213054704D01*
X112135516Y-212952302D01*
X112207924Y-212826886D01*
X112219193Y-212784827D01*
X112810676Y-213376311D01*
X112810676Y-213376310D01*
X112850028Y-213322148D01*
X112946501Y-213132811D01*
X113012163Y-212930724D01*
X113012163Y-212930721D01*
X113045406Y-212720840D01*
X113045406Y-212508347D01*
X113012163Y-212298466D01*
X113012163Y-212298463D01*
X112946501Y-212096376D01*
X112850030Y-211907043D01*
X112810676Y-211852876D01*
X112810675Y-211852876D01*
X112219193Y-212444359D01*
X112207924Y-212402302D01*
X112135516Y-212276886D01*
X112033114Y-212174484D01*
X111907698Y-212102076D01*
X111865639Y-212090806D01*
X112457122Y-211499322D01*
X112402956Y-211459969D01*
X112213623Y-211363498D01*
X112011535Y-211297836D01*
X111801652Y-211264594D01*
X111589160Y-211264594D01*
X111379278Y-211297836D01*
X111379275Y-211297836D01*
X111177188Y-211363498D01*
X110987845Y-211459974D01*
X110933688Y-211499321D01*
X110933688Y-211499322D01*
X111525172Y-212090806D01*
X111483114Y-212102076D01*
X111357698Y-212174484D01*
X111255296Y-212276886D01*
X111182888Y-212402302D01*
X111171618Y-212444360D01*
X110580134Y-211852876D01*
X110580133Y-211852876D01*
X110540786Y-211907033D01*
X110444310Y-212096376D01*
X110378648Y-212298463D01*
X110378648Y-212298466D01*
X110345406Y-212508347D01*
X106553019Y-212508347D01*
X106715297Y-212346069D01*
X106755522Y-212319192D01*
X106779179Y-212309394D01*
X106910289Y-212221789D01*
X107021789Y-212110289D01*
X107109394Y-211979179D01*
X107169737Y-211833497D01*
X107200500Y-211678842D01*
X107200500Y-211521158D01*
X107200500Y-211521155D01*
X107200499Y-211521153D01*
X107198453Y-211510867D01*
X107169737Y-211366503D01*
X107157235Y-211336321D01*
X107109397Y-211220827D01*
X107109390Y-211220814D01*
X107021789Y-211089711D01*
X107021786Y-211089707D01*
X106910292Y-210978213D01*
X106910288Y-210978210D01*
X106779185Y-210890609D01*
X106779172Y-210890602D01*
X106633501Y-210830264D01*
X106633489Y-210830261D01*
X106478845Y-210799500D01*
X106478842Y-210799500D01*
X106321158Y-210799500D01*
X106321155Y-210799500D01*
X106166510Y-210830261D01*
X106160676Y-210832031D01*
X106160039Y-210829932D01*
X106100358Y-210836325D01*
X106037891Y-210805025D01*
X106002263Y-210744922D01*
X106004784Y-210675098D01*
X106034739Y-210626626D01*
X106515295Y-210146070D01*
X106555519Y-210119193D01*
X106579179Y-210109394D01*
X106710289Y-210021789D01*
X106821789Y-209910289D01*
X106909394Y-209779179D01*
X106969737Y-209633497D01*
X107000500Y-209478842D01*
X107000500Y-209321158D01*
X107000500Y-209321155D01*
X107000499Y-209321153D01*
X106969738Y-209166510D01*
X106969737Y-209166503D01*
X106935855Y-209084704D01*
X106909397Y-209020827D01*
X106909390Y-209020814D01*
X106821789Y-208889711D01*
X106821786Y-208889707D01*
X106710292Y-208778213D01*
X106710288Y-208778210D01*
X106601780Y-208705707D01*
X106579185Y-208690609D01*
X106579172Y-208690602D01*
X106433501Y-208630264D01*
X106433489Y-208630261D01*
X106278845Y-208599500D01*
X106278842Y-208599500D01*
X106121158Y-208599500D01*
X106121155Y-208599500D01*
X105966510Y-208630261D01*
X105966498Y-208630264D01*
X105820827Y-208690602D01*
X105820814Y-208690609D01*
X105689711Y-208778210D01*
X105689707Y-208778213D01*
X105578213Y-208889707D01*
X105578207Y-208889715D01*
X105490607Y-209020818D01*
X105490605Y-209020822D01*
X105480805Y-209044480D01*
X105453927Y-209084704D01*
X104656996Y-209881635D01*
X104595673Y-209915120D01*
X104525981Y-209910136D01*
X104481634Y-209881635D01*
X102111156Y-207511156D01*
X102028347Y-207428347D01*
X110345406Y-207428347D01*
X110345406Y-207640840D01*
X110378648Y-207850721D01*
X110378648Y-207850724D01*
X110444310Y-208052811D01*
X110540781Y-208242144D01*
X110580134Y-208296310D01*
X111171618Y-207704827D01*
X111182888Y-207746886D01*
X111255296Y-207872302D01*
X111357698Y-207974704D01*
X111483114Y-208047112D01*
X111525171Y-208058381D01*
X110933688Y-208649863D01*
X110933688Y-208649864D01*
X110987855Y-208689218D01*
X111177188Y-208785689D01*
X111379276Y-208851351D01*
X111589160Y-208884594D01*
X111801652Y-208884594D01*
X112011533Y-208851351D01*
X112011536Y-208851351D01*
X112213623Y-208785689D01*
X112402960Y-208689216D01*
X112457122Y-208649864D01*
X112457123Y-208649864D01*
X111865639Y-208058381D01*
X111907698Y-208047112D01*
X112033114Y-207974704D01*
X112135516Y-207872302D01*
X112207924Y-207746886D01*
X112219193Y-207704827D01*
X112810676Y-208296311D01*
X112810676Y-208296310D01*
X112850028Y-208242148D01*
X112946501Y-208052811D01*
X113012163Y-207850724D01*
X113012163Y-207850721D01*
X113045406Y-207640840D01*
X113045406Y-207428347D01*
X113012163Y-207218466D01*
X113012163Y-207218463D01*
X112946501Y-207016376D01*
X112850030Y-206827043D01*
X112810676Y-206772876D01*
X112810675Y-206772876D01*
X112219193Y-207364359D01*
X112207924Y-207322302D01*
X112135516Y-207196886D01*
X112033114Y-207094484D01*
X111907698Y-207022076D01*
X111865639Y-207010806D01*
X112457122Y-206419322D01*
X112402956Y-206379969D01*
X112213623Y-206283498D01*
X112011535Y-206217836D01*
X111801652Y-206184594D01*
X111589160Y-206184594D01*
X111379278Y-206217836D01*
X111379275Y-206217836D01*
X111177188Y-206283498D01*
X110987845Y-206379974D01*
X110933688Y-206419321D01*
X110933688Y-206419322D01*
X111525172Y-207010806D01*
X111483114Y-207022076D01*
X111357698Y-207094484D01*
X111255296Y-207196886D01*
X111182888Y-207322302D01*
X111171618Y-207364360D01*
X110580134Y-206772876D01*
X110580133Y-206772876D01*
X110540786Y-206827033D01*
X110444310Y-207016376D01*
X110378648Y-207218463D01*
X110378648Y-207218466D01*
X110345406Y-207428347D01*
X102028347Y-207428347D01*
X101537480Y-206937480D01*
X99592936Y-208882024D01*
X102774916Y-212064004D01*
X102774916Y-212064003D01*
X102774917Y-212064004D01*
X103437819Y-211401102D01*
X103499142Y-211367617D01*
X103568834Y-211372601D01*
X103624767Y-211414473D01*
X103649184Y-211479937D01*
X103649500Y-211488783D01*
X103649500Y-222237770D01*
X103629815Y-222304809D01*
X103613181Y-222325451D01*
X100626451Y-225312181D01*
X100565128Y-225345666D01*
X100538770Y-225348500D01*
X97951841Y-225348500D01*
X97919342Y-225338957D01*
X97886672Y-225329994D01*
X97885903Y-225329138D01*
X97884802Y-225328815D01*
X97862636Y-225303234D01*
X97839983Y-225278014D01*
X97839799Y-225276878D01*
X97839047Y-225276011D01*
X97834226Y-225242488D01*
X97828808Y-225209044D01*
X97829266Y-225207990D01*
X97829103Y-225206853D01*
X97843175Y-225176038D01*
X97856695Y-225144981D01*
X97857820Y-225143969D01*
X97858128Y-225143297D01*
X97882945Y-225121401D01*
X97899577Y-225110289D01*
X97940491Y-225082952D01*
X98582952Y-224440491D01*
X98659380Y-224326106D01*
X98665084Y-224317570D01*
X98721658Y-224180988D01*
X98733628Y-224120814D01*
X98750500Y-224035995D01*
X98750500Y-221633031D01*
X98759939Y-221585578D01*
X98762823Y-221578615D01*
X98769737Y-221561924D01*
X98800500Y-221407269D01*
X98800500Y-221249585D01*
X98800500Y-221249582D01*
X98800499Y-221249580D01*
X98776550Y-221129182D01*
X98769737Y-221094930D01*
X98764686Y-221082736D01*
X98709397Y-220949254D01*
X98709390Y-220949241D01*
X98621789Y-220818138D01*
X98621786Y-220818134D01*
X98510292Y-220706640D01*
X98510288Y-220706637D01*
X98379185Y-220619036D01*
X98379172Y-220619029D01*
X98233501Y-220558691D01*
X98233489Y-220558688D01*
X98078845Y-220527927D01*
X98078842Y-220527927D01*
X97921158Y-220527927D01*
X97921155Y-220527927D01*
X97766510Y-220558688D01*
X97766498Y-220558691D01*
X97620827Y-220619029D01*
X97620814Y-220619036D01*
X97489711Y-220706637D01*
X97489707Y-220706640D01*
X97378213Y-220818134D01*
X97378210Y-220818138D01*
X97290609Y-220949241D01*
X97290602Y-220949254D01*
X97230264Y-221094925D01*
X97230261Y-221094937D01*
X97199500Y-221249580D01*
X97199500Y-221407273D01*
X97230261Y-221561916D01*
X97230263Y-221561924D01*
X97240061Y-221585578D01*
X97249500Y-221633031D01*
X97249500Y-222388770D01*
X97229815Y-222455809D01*
X97177011Y-222501564D01*
X97107853Y-222511508D01*
X97044297Y-222482483D01*
X97037819Y-222476451D01*
X95286819Y-220725451D01*
X95253334Y-220664128D01*
X95250500Y-220637770D01*
X95250500Y-215870290D01*
X95259939Y-215822837D01*
X95269737Y-215799183D01*
X95300500Y-215644528D01*
X95300500Y-215486844D01*
X95300500Y-215486841D01*
X95300499Y-215486839D01*
X95269738Y-215332196D01*
X95269737Y-215332189D01*
X95269735Y-215332184D01*
X95209397Y-215186513D01*
X95209390Y-215186500D01*
X95121789Y-215055397D01*
X95121786Y-215055393D01*
X95010292Y-214943899D01*
X95010288Y-214943896D01*
X94879185Y-214856295D01*
X94879172Y-214856288D01*
X94733501Y-214795950D01*
X94733489Y-214795947D01*
X94578845Y-214765186D01*
X94578842Y-214765186D01*
X94421158Y-214765186D01*
X94421155Y-214765186D01*
X94266510Y-214795947D01*
X94266498Y-214795950D01*
X94120827Y-214856288D01*
X94120814Y-214856295D01*
X93989711Y-214943896D01*
X93989707Y-214943899D01*
X93878213Y-215055393D01*
X93878210Y-215055397D01*
X93790609Y-215186500D01*
X93790602Y-215186513D01*
X93730264Y-215332184D01*
X93730261Y-215332196D01*
X93699500Y-215486839D01*
X93699500Y-215644532D01*
X93730261Y-215799175D01*
X93730263Y-215799183D01*
X93740061Y-215822837D01*
X93749500Y-215870290D01*
X93749500Y-221073918D01*
X93749500Y-221073920D01*
X93749499Y-221073920D01*
X93778340Y-221218907D01*
X93778343Y-221218917D01*
X93834914Y-221355491D01*
X93834916Y-221355495D01*
X93845801Y-221371786D01*
X93859638Y-221392495D01*
X93917049Y-221478418D01*
X93917052Y-221478421D01*
X95976452Y-223537819D01*
X96009937Y-223599142D01*
X96004953Y-223668834D01*
X95963081Y-223724767D01*
X95897617Y-223749184D01*
X95888771Y-223749500D01*
X95304604Y-223749500D01*
X95257155Y-223740062D01*
X95233497Y-223730263D01*
X95233493Y-223730262D01*
X95233488Y-223730260D01*
X95078845Y-223699500D01*
X95078842Y-223699500D01*
X94921158Y-223699500D01*
X94921155Y-223699500D01*
X94766510Y-223730261D01*
X94766498Y-223730264D01*
X94620827Y-223790602D01*
X94620814Y-223790609D01*
X94489711Y-223878210D01*
X94489707Y-223878213D01*
X94378213Y-223989707D01*
X94378210Y-223989711D01*
X94290609Y-224120814D01*
X94290602Y-224120827D01*
X94230264Y-224266498D01*
X94230261Y-224266510D01*
X94199500Y-224421153D01*
X94199500Y-224578846D01*
X94230261Y-224733489D01*
X94230264Y-224733501D01*
X94290602Y-224879172D01*
X94290609Y-224879185D01*
X94378210Y-225010288D01*
X94378213Y-225010292D01*
X94489707Y-225121786D01*
X94494419Y-225125653D01*
X94493558Y-225126701D01*
X94533932Y-225175014D01*
X94542637Y-225244339D01*
X94512480Y-225307366D01*
X94453035Y-225344083D01*
X94420234Y-225348500D01*
X90961229Y-225348500D01*
X90894190Y-225328815D01*
X90873548Y-225312181D01*
X87286819Y-221725451D01*
X87253334Y-221664128D01*
X87250500Y-221637770D01*
X87250500Y-219304604D01*
X87259939Y-219257151D01*
X87269737Y-219233497D01*
X87300500Y-219078842D01*
X87300500Y-218921158D01*
X87300500Y-218921155D01*
X87300499Y-218921153D01*
X87286190Y-218849216D01*
X87269737Y-218766503D01*
X87258645Y-218739725D01*
X87209397Y-218620827D01*
X87209390Y-218620814D01*
X87121789Y-218489711D01*
X87121786Y-218489707D01*
X87010292Y-218378213D01*
X87010288Y-218378210D01*
X86879185Y-218290609D01*
X86879172Y-218290602D01*
X86733501Y-218230264D01*
X86733489Y-218230261D01*
X86578845Y-218199500D01*
X86578842Y-218199500D01*
X86421158Y-218199500D01*
X86421153Y-218199500D01*
X86298691Y-218223859D01*
X86229099Y-218217632D01*
X86173922Y-218174768D01*
X86150678Y-218108879D01*
X86150500Y-218102242D01*
X86150500Y-214062230D01*
X86170185Y-213995191D01*
X86186819Y-213974549D01*
X93782469Y-206378900D01*
X94082947Y-206078421D01*
X94082948Y-206078420D01*
X94082952Y-206078416D01*
X94160524Y-205962319D01*
X94165084Y-205955495D01*
X94221658Y-205818913D01*
X94250500Y-205673918D01*
X94250500Y-205204604D01*
X94259939Y-205157151D01*
X94269737Y-205133497D01*
X94300500Y-204978842D01*
X94300500Y-204821158D01*
X94300500Y-204821155D01*
X94300499Y-204821153D01*
X94286769Y-204752127D01*
X94269737Y-204666503D01*
X94245368Y-204607671D01*
X94209397Y-204520827D01*
X94209390Y-204520814D01*
X94121789Y-204389711D01*
X94121786Y-204389707D01*
X94010292Y-204278213D01*
X94010288Y-204278210D01*
X93879185Y-204190609D01*
X93879172Y-204190602D01*
X93733501Y-204130264D01*
X93733489Y-204130261D01*
X93578845Y-204099500D01*
X93578842Y-204099500D01*
X93421158Y-204099500D01*
X93421155Y-204099500D01*
X93266510Y-204130261D01*
X93266498Y-204130264D01*
X93120827Y-204190602D01*
X93120814Y-204190609D01*
X92989711Y-204278210D01*
X92989707Y-204278213D01*
X92878213Y-204389707D01*
X92878210Y-204389711D01*
X92790609Y-204520814D01*
X92790602Y-204520827D01*
X92730264Y-204666498D01*
X92730261Y-204666510D01*
X92699500Y-204821153D01*
X92699500Y-204978846D01*
X92730261Y-205133489D01*
X92730263Y-205133497D01*
X92740061Y-205157151D01*
X92741687Y-205165328D01*
X92744477Y-205169669D01*
X92749500Y-205204604D01*
X92749500Y-205237770D01*
X92729815Y-205304809D01*
X92713181Y-205325451D01*
X92562181Y-205476451D01*
X92500858Y-205509936D01*
X92431166Y-205504952D01*
X92375233Y-205463080D01*
X92350816Y-205397616D01*
X92350500Y-205388770D01*
X92350500Y-205304604D01*
X92359939Y-205257151D01*
X92369737Y-205233497D01*
X92400500Y-205078842D01*
X92400500Y-204921158D01*
X92400500Y-204921155D01*
X92400499Y-204921153D01*
X92388213Y-204859390D01*
X92369737Y-204766503D01*
X92359801Y-204742516D01*
X92309397Y-204620827D01*
X92309390Y-204620814D01*
X92221789Y-204489711D01*
X92221786Y-204489707D01*
X92110292Y-204378213D01*
X92110288Y-204378210D01*
X91979185Y-204290609D01*
X91979172Y-204290602D01*
X91833501Y-204230264D01*
X91833489Y-204230261D01*
X91678845Y-204199500D01*
X91678842Y-204199500D01*
X91521158Y-204199500D01*
X91521153Y-204199500D01*
X91369057Y-204229754D01*
X91299466Y-204223527D01*
X91257185Y-204195818D01*
X90671653Y-203610286D01*
X90618850Y-203557483D01*
X89986818Y-202925450D01*
X89953333Y-202864127D01*
X89950499Y-202837769D01*
X89950499Y-202348347D01*
X110345406Y-202348347D01*
X110345406Y-202560840D01*
X110378648Y-202770721D01*
X110378648Y-202770724D01*
X110444310Y-202972811D01*
X110540781Y-203162144D01*
X110580134Y-203216310D01*
X111171618Y-202624827D01*
X111182888Y-202666886D01*
X111255296Y-202792302D01*
X111357698Y-202894704D01*
X111483114Y-202967112D01*
X111525171Y-202978381D01*
X110933688Y-203569863D01*
X110933688Y-203569864D01*
X110987855Y-203609218D01*
X111177188Y-203705689D01*
X111379276Y-203771351D01*
X111589160Y-203804594D01*
X111801652Y-203804594D01*
X112011533Y-203771351D01*
X112011536Y-203771351D01*
X112213623Y-203705689D01*
X112402960Y-203609216D01*
X112457122Y-203569864D01*
X112457123Y-203569864D01*
X111865639Y-202978381D01*
X111907698Y-202967112D01*
X112033114Y-202894704D01*
X112135516Y-202792302D01*
X112207924Y-202666886D01*
X112219193Y-202624827D01*
X112810676Y-203216311D01*
X112810676Y-203216310D01*
X112850028Y-203162148D01*
X112946501Y-202972811D01*
X113012163Y-202770724D01*
X113012163Y-202770721D01*
X113045406Y-202560840D01*
X113045406Y-202348347D01*
X113012163Y-202138466D01*
X113012163Y-202138463D01*
X112946501Y-201936376D01*
X112850030Y-201747043D01*
X112810676Y-201692876D01*
X112810675Y-201692876D01*
X112219193Y-202284359D01*
X112207924Y-202242302D01*
X112135516Y-202116886D01*
X112033114Y-202014484D01*
X111907698Y-201942076D01*
X111865639Y-201930806D01*
X112457122Y-201339322D01*
X112402956Y-201299969D01*
X112213623Y-201203498D01*
X112011535Y-201137836D01*
X111801652Y-201104594D01*
X111589160Y-201104594D01*
X111379278Y-201137836D01*
X111379275Y-201137836D01*
X111177188Y-201203498D01*
X110987845Y-201299974D01*
X110933688Y-201339321D01*
X110933688Y-201339322D01*
X111525172Y-201930806D01*
X111483114Y-201942076D01*
X111357698Y-202014484D01*
X111255296Y-202116886D01*
X111182888Y-202242302D01*
X111171618Y-202284360D01*
X110580134Y-201692876D01*
X110580133Y-201692876D01*
X110540786Y-201747033D01*
X110444310Y-201936376D01*
X110378648Y-202138463D01*
X110378648Y-202138466D01*
X110345406Y-202348347D01*
X89950499Y-202348347D01*
X89950499Y-201902129D01*
X89950498Y-201902123D01*
X89950497Y-201902116D01*
X89944091Y-201842517D01*
X89893796Y-201707669D01*
X89893795Y-201707668D01*
X89893793Y-201707664D01*
X89807547Y-201592455D01*
X89807544Y-201592452D01*
X89692335Y-201506206D01*
X89692326Y-201506201D01*
X89683107Y-201502763D01*
X89683106Y-201502763D01*
X89557482Y-201455908D01*
X89557483Y-201455908D01*
X89497883Y-201449501D01*
X89497881Y-201449500D01*
X89497873Y-201449500D01*
X89497865Y-201449500D01*
X89222271Y-201449500D01*
X89155232Y-201429815D01*
X89109477Y-201377011D01*
X89099533Y-201307853D01*
X89128558Y-201244297D01*
X89183953Y-201207569D01*
X89343623Y-201155689D01*
X89532960Y-201059216D01*
X89587122Y-201019864D01*
X89587123Y-201019864D01*
X88995639Y-200428381D01*
X89037698Y-200417112D01*
X89163114Y-200344704D01*
X89265516Y-200242302D01*
X89337924Y-200116886D01*
X89349193Y-200074827D01*
X89940676Y-200666311D01*
X89940676Y-200666310D01*
X89980028Y-200612148D01*
X90076501Y-200422811D01*
X90142163Y-200220724D01*
X90142163Y-200220721D01*
X90175406Y-200010840D01*
X90175406Y-199798347D01*
X92555406Y-199798347D01*
X92555406Y-200010840D01*
X92588648Y-200220721D01*
X92588648Y-200220724D01*
X92654310Y-200422811D01*
X92750781Y-200612144D01*
X92790134Y-200666310D01*
X93381618Y-200074827D01*
X93392888Y-200116886D01*
X93465296Y-200242302D01*
X93567698Y-200344704D01*
X93693114Y-200417112D01*
X93735171Y-200428381D01*
X93143688Y-201019863D01*
X93143688Y-201019864D01*
X93197855Y-201059218D01*
X93387188Y-201155689D01*
X93589276Y-201221351D01*
X93799160Y-201254594D01*
X94011652Y-201254594D01*
X94221533Y-201221351D01*
X94221536Y-201221351D01*
X94423623Y-201155689D01*
X94612960Y-201059216D01*
X94667122Y-201019864D01*
X94667123Y-201019864D01*
X94075639Y-200428381D01*
X94117698Y-200417112D01*
X94243114Y-200344704D01*
X94345516Y-200242302D01*
X94417924Y-200116886D01*
X94429193Y-200074828D01*
X95020676Y-200666311D01*
X95020676Y-200666310D01*
X95060028Y-200612148D01*
X95156501Y-200422811D01*
X95222163Y-200220724D01*
X95222163Y-200220721D01*
X95255406Y-200010840D01*
X95255406Y-199798347D01*
X97635406Y-199798347D01*
X97635406Y-200010840D01*
X97668648Y-200220721D01*
X97668648Y-200220724D01*
X97734310Y-200422811D01*
X97830781Y-200612144D01*
X97870134Y-200666310D01*
X98461618Y-200074827D01*
X98472888Y-200116886D01*
X98545296Y-200242302D01*
X98647698Y-200344704D01*
X98773114Y-200417112D01*
X98815171Y-200428381D01*
X98223688Y-201019863D01*
X98223688Y-201019864D01*
X98277855Y-201059218D01*
X98467188Y-201155689D01*
X98669276Y-201221351D01*
X98879160Y-201254594D01*
X99091652Y-201254594D01*
X99301533Y-201221351D01*
X99301536Y-201221351D01*
X99503623Y-201155689D01*
X99692960Y-201059216D01*
X99747122Y-201019864D01*
X99747123Y-201019864D01*
X99155639Y-200428381D01*
X99197698Y-200417112D01*
X99323114Y-200344704D01*
X99425516Y-200242302D01*
X99497924Y-200116886D01*
X99509193Y-200074828D01*
X100100676Y-200666311D01*
X100100676Y-200666310D01*
X100140028Y-200612148D01*
X100236501Y-200422811D01*
X100302163Y-200220724D01*
X100302163Y-200220721D01*
X100335406Y-200010840D01*
X100335406Y-199798347D01*
X102715406Y-199798347D01*
X102715406Y-200010840D01*
X102748648Y-200220721D01*
X102748648Y-200220724D01*
X102814310Y-200422811D01*
X102910781Y-200612144D01*
X102950134Y-200666310D01*
X103541618Y-200074827D01*
X103552888Y-200116886D01*
X103625296Y-200242302D01*
X103727698Y-200344704D01*
X103853114Y-200417112D01*
X103895171Y-200428381D01*
X103303688Y-201019863D01*
X103303688Y-201019864D01*
X103357855Y-201059218D01*
X103547188Y-201155689D01*
X103749276Y-201221351D01*
X103959160Y-201254594D01*
X104171652Y-201254594D01*
X104381533Y-201221351D01*
X104381536Y-201221351D01*
X104583623Y-201155689D01*
X104772960Y-201059216D01*
X104827122Y-201019864D01*
X104827123Y-201019864D01*
X104235639Y-200428381D01*
X104277698Y-200417112D01*
X104403114Y-200344704D01*
X104505516Y-200242302D01*
X104577924Y-200116886D01*
X104589193Y-200074827D01*
X105180676Y-200666311D01*
X105180676Y-200666310D01*
X105220028Y-200612148D01*
X105316501Y-200422811D01*
X105382163Y-200220724D01*
X105382163Y-200220721D01*
X105415406Y-200010840D01*
X105415406Y-199798347D01*
X107795406Y-199798347D01*
X107795406Y-200010840D01*
X107828648Y-200220721D01*
X107828648Y-200220724D01*
X107894310Y-200422811D01*
X107990781Y-200612144D01*
X108030134Y-200666310D01*
X108621618Y-200074827D01*
X108632888Y-200116886D01*
X108705296Y-200242302D01*
X108807698Y-200344704D01*
X108933114Y-200417112D01*
X108975171Y-200428381D01*
X108383688Y-201019863D01*
X108383688Y-201019864D01*
X108437855Y-201059218D01*
X108627188Y-201155689D01*
X108829276Y-201221351D01*
X109039160Y-201254594D01*
X109251652Y-201254594D01*
X109461533Y-201221351D01*
X109461536Y-201221351D01*
X109663623Y-201155689D01*
X109852960Y-201059216D01*
X109907122Y-201019864D01*
X109907123Y-201019864D01*
X109315639Y-200428381D01*
X109357698Y-200417112D01*
X109483114Y-200344704D01*
X109585516Y-200242302D01*
X109657924Y-200116886D01*
X109669193Y-200074828D01*
X110260676Y-200666311D01*
X110260676Y-200666310D01*
X110300028Y-200612148D01*
X110396501Y-200422811D01*
X110462163Y-200220724D01*
X110462163Y-200220721D01*
X110495406Y-200010840D01*
X110495406Y-199798347D01*
X110462163Y-199588466D01*
X110462163Y-199588463D01*
X110396501Y-199386376D01*
X110300030Y-199197043D01*
X110260676Y-199142876D01*
X109669193Y-199734359D01*
X109657924Y-199692302D01*
X109585516Y-199566886D01*
X109483114Y-199464484D01*
X109357698Y-199392076D01*
X109315639Y-199380806D01*
X109907122Y-198789322D01*
X109852956Y-198749969D01*
X109663623Y-198653498D01*
X109461535Y-198587836D01*
X109251652Y-198554594D01*
X109039160Y-198554594D01*
X108829278Y-198587836D01*
X108829275Y-198587836D01*
X108627188Y-198653498D01*
X108437845Y-198749974D01*
X108383688Y-198789321D01*
X108383688Y-198789322D01*
X108975172Y-199380806D01*
X108933114Y-199392076D01*
X108807698Y-199464484D01*
X108705296Y-199566886D01*
X108632888Y-199692302D01*
X108621618Y-199734360D01*
X108030134Y-199142876D01*
X108030133Y-199142876D01*
X107990786Y-199197033D01*
X107894310Y-199386376D01*
X107828648Y-199588463D01*
X107828648Y-199588466D01*
X107795406Y-199798347D01*
X105415406Y-199798347D01*
X105382163Y-199588466D01*
X105382163Y-199588463D01*
X105316501Y-199386376D01*
X105220030Y-199197043D01*
X105180676Y-199142876D01*
X104589193Y-199734359D01*
X104577924Y-199692302D01*
X104505516Y-199566886D01*
X104403114Y-199464484D01*
X104277698Y-199392076D01*
X104235639Y-199380806D01*
X104827122Y-198789322D01*
X104772956Y-198749969D01*
X104583623Y-198653498D01*
X104381535Y-198587836D01*
X104171652Y-198554594D01*
X103959160Y-198554594D01*
X103749278Y-198587836D01*
X103749275Y-198587836D01*
X103547188Y-198653498D01*
X103357845Y-198749974D01*
X103303688Y-198789321D01*
X103303688Y-198789322D01*
X103895172Y-199380806D01*
X103853114Y-199392076D01*
X103727698Y-199464484D01*
X103625296Y-199566886D01*
X103552888Y-199692302D01*
X103541618Y-199734360D01*
X102950134Y-199142876D01*
X102950133Y-199142876D01*
X102910786Y-199197033D01*
X102814310Y-199386376D01*
X102748648Y-199588463D01*
X102748648Y-199588466D01*
X102715406Y-199798347D01*
X100335406Y-199798347D01*
X100302163Y-199588466D01*
X100302163Y-199588463D01*
X100236501Y-199386376D01*
X100140030Y-199197043D01*
X100100676Y-199142876D01*
X100100675Y-199142876D01*
X99509193Y-199734359D01*
X99497924Y-199692302D01*
X99425516Y-199566886D01*
X99323114Y-199464484D01*
X99197698Y-199392076D01*
X99155639Y-199380806D01*
X99747122Y-198789322D01*
X99692956Y-198749969D01*
X99503623Y-198653498D01*
X99301535Y-198587836D01*
X99091652Y-198554594D01*
X98879160Y-198554594D01*
X98669278Y-198587836D01*
X98669275Y-198587836D01*
X98467188Y-198653498D01*
X98277845Y-198749974D01*
X98223688Y-198789321D01*
X98223688Y-198789322D01*
X98815172Y-199380806D01*
X98773114Y-199392076D01*
X98647698Y-199464484D01*
X98545296Y-199566886D01*
X98472888Y-199692302D01*
X98461618Y-199734360D01*
X97870134Y-199142876D01*
X97870133Y-199142876D01*
X97830786Y-199197033D01*
X97734310Y-199386376D01*
X97668648Y-199588463D01*
X97668648Y-199588466D01*
X97635406Y-199798347D01*
X95255406Y-199798347D01*
X95222163Y-199588466D01*
X95222163Y-199588463D01*
X95156501Y-199386376D01*
X95060030Y-199197043D01*
X95020676Y-199142876D01*
X95020675Y-199142876D01*
X94429193Y-199734359D01*
X94417924Y-199692302D01*
X94345516Y-199566886D01*
X94243114Y-199464484D01*
X94117698Y-199392076D01*
X94075639Y-199380806D01*
X94667122Y-198789322D01*
X94612956Y-198749969D01*
X94423623Y-198653498D01*
X94221535Y-198587836D01*
X94011652Y-198554594D01*
X93799160Y-198554594D01*
X93589278Y-198587836D01*
X93589275Y-198587836D01*
X93387188Y-198653498D01*
X93197845Y-198749974D01*
X93143688Y-198789321D01*
X93143688Y-198789322D01*
X93735172Y-199380806D01*
X93693114Y-199392076D01*
X93567698Y-199464484D01*
X93465296Y-199566886D01*
X93392888Y-199692302D01*
X93381618Y-199734360D01*
X92790134Y-199142876D01*
X92790133Y-199142876D01*
X92750786Y-199197033D01*
X92654310Y-199386376D01*
X92588648Y-199588463D01*
X92588648Y-199588466D01*
X92555406Y-199798347D01*
X90175406Y-199798347D01*
X90142163Y-199588466D01*
X90142163Y-199588463D01*
X90076501Y-199386376D01*
X89980030Y-199197043D01*
X89940676Y-199142876D01*
X89940675Y-199142876D01*
X89349193Y-199734359D01*
X89337924Y-199692302D01*
X89265516Y-199566886D01*
X89163114Y-199464484D01*
X89037698Y-199392076D01*
X88995639Y-199380806D01*
X89587122Y-198789322D01*
X89532956Y-198749969D01*
X89343623Y-198653498D01*
X89141535Y-198587836D01*
X88931652Y-198554594D01*
X88719160Y-198554594D01*
X88509278Y-198587836D01*
X88509275Y-198587836D01*
X88307188Y-198653498D01*
X88117845Y-198749974D01*
X88063688Y-198789321D01*
X88063688Y-198789322D01*
X88655172Y-199380806D01*
X88613114Y-199392076D01*
X88487698Y-199464484D01*
X88385296Y-199566886D01*
X88312888Y-199692302D01*
X88301618Y-199734360D01*
X87710134Y-199142876D01*
X87710133Y-199142876D01*
X87670786Y-199197033D01*
X87574310Y-199386376D01*
X87508648Y-199588463D01*
X87508648Y-199588466D01*
X87475406Y-199798347D01*
X87475406Y-200010840D01*
X87508648Y-200220721D01*
X87508648Y-200220724D01*
X87574310Y-200422811D01*
X87670781Y-200612144D01*
X87710134Y-200666310D01*
X88301618Y-200074827D01*
X88312888Y-200116886D01*
X88385296Y-200242302D01*
X88487698Y-200344704D01*
X88613114Y-200417112D01*
X88655171Y-200428381D01*
X88063688Y-201019863D01*
X88063688Y-201019864D01*
X88117855Y-201059218D01*
X88307188Y-201155689D01*
X88466860Y-201207569D01*
X88524535Y-201247006D01*
X88551734Y-201311364D01*
X88539820Y-201380211D01*
X88492576Y-201431687D01*
X88428542Y-201449500D01*
X87902129Y-201449500D01*
X87902123Y-201449501D01*
X87842516Y-201455908D01*
X87707671Y-201506202D01*
X87707664Y-201506206D01*
X87592455Y-201592452D01*
X87592452Y-201592455D01*
X87506206Y-201707664D01*
X87506202Y-201707671D01*
X87455908Y-201842517D01*
X87450533Y-201892516D01*
X87449501Y-201902123D01*
X87449500Y-201902135D01*
X87449500Y-203497870D01*
X87449501Y-203497876D01*
X87455908Y-203557483D01*
X87506202Y-203692328D01*
X87506206Y-203692335D01*
X87592452Y-203807544D01*
X87592455Y-203807547D01*
X87707664Y-203893793D01*
X87707671Y-203893797D01*
X87842517Y-203944091D01*
X87842516Y-203944091D01*
X87849444Y-203944835D01*
X87902127Y-203950500D01*
X88837769Y-203950499D01*
X88867215Y-203959145D01*
X88897196Y-203965667D01*
X88902209Y-203969419D01*
X88904808Y-203970183D01*
X88925450Y-203986818D01*
X89026451Y-204087819D01*
X89059936Y-204149142D01*
X89054952Y-204218834D01*
X89013080Y-204274767D01*
X88947616Y-204299184D01*
X88938770Y-204299500D01*
X87902129Y-204299500D01*
X87902123Y-204299501D01*
X87842516Y-204305908D01*
X87707671Y-204356202D01*
X87707664Y-204356206D01*
X87592455Y-204442452D01*
X87592452Y-204442455D01*
X87506206Y-204557664D01*
X87506202Y-204557671D01*
X87455908Y-204692517D01*
X87449501Y-204752116D01*
X87449500Y-204752135D01*
X87449500Y-205888770D01*
X87443261Y-205910015D01*
X87441682Y-205932104D01*
X87433609Y-205942887D01*
X87429815Y-205955809D01*
X87413081Y-205970308D01*
X87399810Y-205988037D01*
X87387189Y-205992744D01*
X87377011Y-206001564D01*
X87355093Y-206004715D01*
X87334346Y-206012454D01*
X87321185Y-206009591D01*
X87307853Y-206011508D01*
X87287709Y-206002308D01*
X87266073Y-205997602D01*
X87248347Y-205984333D01*
X87244297Y-205982483D01*
X87237819Y-205976451D01*
X87086818Y-205825450D01*
X87053333Y-205764127D01*
X87050499Y-205737769D01*
X87050499Y-204802129D01*
X87050498Y-204802123D01*
X87047237Y-204771789D01*
X87044091Y-204742517D01*
X87025442Y-204692517D01*
X86993797Y-204607671D01*
X86993793Y-204607664D01*
X86907547Y-204492455D01*
X86907544Y-204492452D01*
X86792335Y-204406206D01*
X86792328Y-204406202D01*
X86657482Y-204355908D01*
X86657483Y-204355908D01*
X86597883Y-204349501D01*
X86597881Y-204349500D01*
X86597873Y-204349500D01*
X86597865Y-204349500D01*
X85561229Y-204349500D01*
X85539983Y-204343261D01*
X85517895Y-204341682D01*
X85507111Y-204333609D01*
X85494190Y-204329815D01*
X85479690Y-204313081D01*
X85461962Y-204299810D01*
X85457254Y-204287189D01*
X85448435Y-204277011D01*
X85445283Y-204255093D01*
X85437545Y-204234346D01*
X85440407Y-204221185D01*
X85438491Y-204207853D01*
X85447690Y-204187709D01*
X85452397Y-204166073D01*
X85465665Y-204148347D01*
X85467516Y-204144297D01*
X85473548Y-204137819D01*
X85574549Y-204036818D01*
X85635872Y-204003333D01*
X85662230Y-204000499D01*
X86597871Y-204000499D01*
X86597872Y-204000499D01*
X86657483Y-203994091D01*
X86792331Y-203943796D01*
X86907546Y-203857546D01*
X86993796Y-203742331D01*
X87044091Y-203607483D01*
X87050500Y-203547873D01*
X87050499Y-201952128D01*
X87044091Y-201892517D01*
X87034916Y-201867918D01*
X86993797Y-201757671D01*
X86993793Y-201757664D01*
X86907547Y-201642455D01*
X86907544Y-201642452D01*
X86792335Y-201556206D01*
X86792328Y-201556202D01*
X86657482Y-201505908D01*
X86657483Y-201505908D01*
X86597883Y-201499501D01*
X86597881Y-201499500D01*
X86597873Y-201499500D01*
X86597864Y-201499500D01*
X85002129Y-201499500D01*
X85002123Y-201499501D01*
X84942516Y-201505908D01*
X84807671Y-201556202D01*
X84807664Y-201556206D01*
X84692455Y-201642452D01*
X84692452Y-201642455D01*
X84606206Y-201757664D01*
X84606202Y-201757671D01*
X84555908Y-201892517D01*
X84549501Y-201952116D01*
X84549501Y-201952123D01*
X84549500Y-201952135D01*
X84549500Y-202887769D01*
X84529815Y-202954808D01*
X84513181Y-202975450D01*
X84084703Y-203403927D01*
X84044480Y-203430805D01*
X84020819Y-203440606D01*
X84020818Y-203440607D01*
X83889715Y-203528207D01*
X83889707Y-203528213D01*
X83778213Y-203639707D01*
X83778210Y-203639711D01*
X83690609Y-203770814D01*
X83690602Y-203770827D01*
X83630264Y-203916498D01*
X83630261Y-203916510D01*
X83599500Y-204071153D01*
X79450500Y-204071153D01*
X79450500Y-202348347D01*
X79845406Y-202348347D01*
X79845406Y-202560840D01*
X79878648Y-202770721D01*
X79878648Y-202770724D01*
X79944310Y-202972811D01*
X80040781Y-203162144D01*
X80080134Y-203216310D01*
X80671618Y-202624827D01*
X80682888Y-202666886D01*
X80755296Y-202792302D01*
X80857698Y-202894704D01*
X80983114Y-202967112D01*
X81025171Y-202978381D01*
X80433688Y-203569863D01*
X80433688Y-203569864D01*
X80487855Y-203609218D01*
X80677188Y-203705689D01*
X80879276Y-203771351D01*
X81089160Y-203804594D01*
X81301652Y-203804594D01*
X81511533Y-203771351D01*
X81511536Y-203771351D01*
X81713623Y-203705689D01*
X81902960Y-203609216D01*
X81957122Y-203569864D01*
X81957123Y-203569864D01*
X81365639Y-202978381D01*
X81407698Y-202967112D01*
X81533114Y-202894704D01*
X81635516Y-202792302D01*
X81707924Y-202666886D01*
X81719193Y-202624827D01*
X82310676Y-203216311D01*
X82310676Y-203216310D01*
X82350028Y-203162148D01*
X82446501Y-202972811D01*
X82512163Y-202770724D01*
X82512163Y-202770721D01*
X82545406Y-202560840D01*
X82545406Y-202348347D01*
X82512163Y-202138466D01*
X82512163Y-202138463D01*
X82446501Y-201936376D01*
X82350030Y-201747043D01*
X82310676Y-201692876D01*
X82310675Y-201692876D01*
X81719193Y-202284359D01*
X81707924Y-202242302D01*
X81635516Y-202116886D01*
X81533114Y-202014484D01*
X81407698Y-201942076D01*
X81365639Y-201930806D01*
X81957122Y-201339322D01*
X81902956Y-201299969D01*
X81713623Y-201203498D01*
X81511535Y-201137836D01*
X81301652Y-201104594D01*
X81089160Y-201104594D01*
X80879278Y-201137836D01*
X80879275Y-201137836D01*
X80677188Y-201203498D01*
X80487845Y-201299974D01*
X80433688Y-201339321D01*
X80433688Y-201339322D01*
X81025172Y-201930806D01*
X80983114Y-201942076D01*
X80857698Y-202014484D01*
X80755296Y-202116886D01*
X80682888Y-202242302D01*
X80671618Y-202284360D01*
X80080134Y-201692876D01*
X80080133Y-201692876D01*
X80040786Y-201747033D01*
X79944310Y-201936376D01*
X79878648Y-202138463D01*
X79878648Y-202138466D01*
X79845406Y-202348347D01*
X79450500Y-202348347D01*
X79450500Y-199798347D01*
X82395406Y-199798347D01*
X82395406Y-200010840D01*
X82428648Y-200220721D01*
X82428648Y-200220724D01*
X82494310Y-200422811D01*
X82590781Y-200612144D01*
X82630134Y-200666310D01*
X83221618Y-200074827D01*
X83232888Y-200116886D01*
X83305296Y-200242302D01*
X83407698Y-200344704D01*
X83533114Y-200417112D01*
X83575171Y-200428381D01*
X82983688Y-201019863D01*
X82983688Y-201019864D01*
X83037855Y-201059218D01*
X83227188Y-201155689D01*
X83429276Y-201221351D01*
X83639160Y-201254594D01*
X83851652Y-201254594D01*
X84061533Y-201221351D01*
X84061536Y-201221351D01*
X84263623Y-201155689D01*
X84452960Y-201059216D01*
X84507122Y-201019864D01*
X84507123Y-201019864D01*
X83915639Y-200428381D01*
X83957698Y-200417112D01*
X84083114Y-200344704D01*
X84185516Y-200242302D01*
X84257924Y-200116886D01*
X84269193Y-200074827D01*
X84860676Y-200666311D01*
X84860676Y-200666310D01*
X84900028Y-200612148D01*
X84996501Y-200422811D01*
X85062163Y-200220724D01*
X85062163Y-200220721D01*
X85095406Y-200010840D01*
X85095406Y-199798347D01*
X85062163Y-199588466D01*
X85062163Y-199588463D01*
X84996501Y-199386376D01*
X84900030Y-199197043D01*
X84860676Y-199142876D01*
X84860675Y-199142876D01*
X84269193Y-199734359D01*
X84257924Y-199692302D01*
X84185516Y-199566886D01*
X84083114Y-199464484D01*
X83957698Y-199392076D01*
X83915639Y-199380806D01*
X84507122Y-198789322D01*
X84452956Y-198749969D01*
X84263623Y-198653498D01*
X84061535Y-198587836D01*
X83851652Y-198554594D01*
X83639160Y-198554594D01*
X83429278Y-198587836D01*
X83429275Y-198587836D01*
X83227188Y-198653498D01*
X83037845Y-198749974D01*
X82983688Y-198789321D01*
X82983688Y-198789322D01*
X83575172Y-199380806D01*
X83533114Y-199392076D01*
X83407698Y-199464484D01*
X83305296Y-199566886D01*
X83232888Y-199692302D01*
X83221618Y-199734360D01*
X82630134Y-199142876D01*
X82630133Y-199142876D01*
X82590786Y-199197033D01*
X82494310Y-199386376D01*
X82428648Y-199588463D01*
X82428648Y-199588466D01*
X82395406Y-199798347D01*
X79450500Y-199798347D01*
X79450500Y-195902593D01*
X79470185Y-195835554D01*
X79522989Y-195789799D01*
X79592147Y-195779855D01*
X79655703Y-195808880D01*
X79662181Y-195814912D01*
X81830216Y-197982948D01*
X81830220Y-197982951D01*
X81953134Y-198065080D01*
X81953147Y-198065087D01*
X82060105Y-198109390D01*
X82089723Y-198121658D01*
X82089727Y-198121658D01*
X82089728Y-198121659D01*
X82234715Y-198150500D01*
X82234718Y-198150500D01*
X82382553Y-198150500D01*
X85495396Y-198150500D01*
X85542844Y-198159937D01*
X85566503Y-198169737D01*
X85566508Y-198169738D01*
X85566511Y-198169739D01*
X85721153Y-198200499D01*
X85721156Y-198200500D01*
X85721158Y-198200500D01*
X85878844Y-198200500D01*
X85878845Y-198200499D01*
X86033497Y-198169737D01*
X86179179Y-198109394D01*
X86310289Y-198021789D01*
X86421789Y-197910289D01*
X86509394Y-197779179D01*
X86569737Y-197633497D01*
X86600500Y-197478842D01*
X86600500Y-197321158D01*
X86600500Y-197321155D01*
X86600499Y-197321153D01*
X86569738Y-197166510D01*
X86569737Y-197166503D01*
X86569735Y-197166498D01*
X86509397Y-197020827D01*
X86509395Y-197020823D01*
X86509394Y-197020821D01*
X86473837Y-196967606D01*
X86452959Y-196900929D01*
X86462377Y-196851264D01*
X86469737Y-196833497D01*
X86500500Y-196678842D01*
X86500500Y-196521158D01*
X86500500Y-196521155D01*
X86500499Y-196521153D01*
X86469738Y-196366510D01*
X86469737Y-196366503D01*
X86469735Y-196366498D01*
X86409397Y-196220827D01*
X86409390Y-196220814D01*
X86321789Y-196089711D01*
X86321786Y-196089707D01*
X86210292Y-195978213D01*
X86210288Y-195978210D01*
X86079185Y-195890609D01*
X86079172Y-195890602D01*
X85933501Y-195830264D01*
X85933489Y-195830261D01*
X85778845Y-195799500D01*
X85778842Y-195799500D01*
X85621158Y-195799500D01*
X85621155Y-195799500D01*
X85466511Y-195830260D01*
X85466506Y-195830262D01*
X85466504Y-195830262D01*
X85466503Y-195830263D01*
X85442844Y-195840062D01*
X85395396Y-195849500D01*
X83924500Y-195849500D01*
X83857461Y-195829815D01*
X83811706Y-195777011D01*
X83800500Y-195725500D01*
X83800500Y-195646155D01*
X83800499Y-195646153D01*
X83769738Y-195491510D01*
X83769737Y-195491503D01*
X83769735Y-195491498D01*
X83709397Y-195345827D01*
X83709390Y-195345814D01*
X83621789Y-195214711D01*
X83621786Y-195214707D01*
X83510292Y-195103213D01*
X83510288Y-195103210D01*
X83379185Y-195015609D01*
X83379175Y-195015604D01*
X83312845Y-194988129D01*
X83272617Y-194961249D01*
X82039819Y-193728451D01*
X82025115Y-193701523D01*
X82008523Y-193675705D01*
X82007631Y-193669504D01*
X82006334Y-193667128D01*
X82003500Y-193640770D01*
X82003500Y-193405237D01*
X87046000Y-193405237D01*
X87046000Y-193594762D01*
X87075645Y-193781937D01*
X87134210Y-193962178D01*
X87220246Y-194131033D01*
X87239253Y-194157192D01*
X87239253Y-194157193D01*
X87807861Y-193588584D01*
X87830667Y-193673694D01*
X87889910Y-193776306D01*
X87973694Y-193860090D01*
X88076306Y-193919333D01*
X88161414Y-193942137D01*
X87592806Y-194510745D01*
X87592806Y-194510746D01*
X87618966Y-194529752D01*
X87787821Y-194615789D01*
X87968062Y-194674354D01*
X88155238Y-194704000D01*
X88344762Y-194704000D01*
X88531937Y-194674354D01*
X88712182Y-194615788D01*
X88712184Y-194615787D01*
X88881027Y-194529756D01*
X88881043Y-194529746D01*
X88907192Y-194510746D01*
X88907193Y-194510745D01*
X88338585Y-193942137D01*
X88423694Y-193919333D01*
X88526306Y-193860090D01*
X88610090Y-193776306D01*
X88669333Y-193673694D01*
X88692137Y-193588585D01*
X89260745Y-194157193D01*
X89260746Y-194157192D01*
X89279746Y-194131043D01*
X89279756Y-194131027D01*
X89365787Y-193962184D01*
X89365788Y-193962182D01*
X89424354Y-193781937D01*
X89454000Y-193594762D01*
X89454000Y-193405237D01*
X89424354Y-193218062D01*
X89365789Y-193037821D01*
X89279752Y-192868966D01*
X89260745Y-192842806D01*
X88692137Y-193411414D01*
X88669333Y-193326306D01*
X88610090Y-193223694D01*
X88526306Y-193139910D01*
X88423694Y-193080667D01*
X88338584Y-193057861D01*
X88907193Y-192489253D01*
X88881033Y-192470246D01*
X88712178Y-192384210D01*
X88531937Y-192325645D01*
X88344762Y-192296000D01*
X88155238Y-192296000D01*
X87968062Y-192325645D01*
X87787821Y-192384210D01*
X87618969Y-192470245D01*
X87592806Y-192489253D01*
X88161415Y-193057861D01*
X88076306Y-193080667D01*
X87973694Y-193139910D01*
X87889910Y-193223694D01*
X87830667Y-193326306D01*
X87807861Y-193411414D01*
X87239253Y-192842806D01*
X87220245Y-192868969D01*
X87134210Y-193037821D01*
X87075645Y-193218062D01*
X87046000Y-193405237D01*
X82003500Y-193405237D01*
X82003500Y-188405199D01*
X87045500Y-188405199D01*
X87045500Y-188594800D01*
X87075157Y-188782050D01*
X87075158Y-188782055D01*
X87114750Y-188903905D01*
X87133747Y-188962372D01*
X87219819Y-189131296D01*
X87331259Y-189284679D01*
X87465321Y-189418741D01*
X87618704Y-189530181D01*
X87698515Y-189570846D01*
X87787627Y-189616252D01*
X87787629Y-189616252D01*
X87787632Y-189616254D01*
X87967945Y-189674842D01*
X88061574Y-189689671D01*
X88155200Y-189704500D01*
X88155204Y-189704500D01*
X88344800Y-189704500D01*
X88428022Y-189691318D01*
X88532055Y-189674842D01*
X88712368Y-189616254D01*
X88881296Y-189530181D01*
X89034679Y-189418741D01*
X89168741Y-189284679D01*
X89280181Y-189131296D01*
X89366254Y-188962368D01*
X89424842Y-188782055D01*
X89441318Y-188678022D01*
X89454500Y-188594800D01*
X89454500Y-188405199D01*
X89438023Y-188301171D01*
X89424842Y-188217945D01*
X89366254Y-188037632D01*
X89366252Y-188037629D01*
X89366252Y-188037627D01*
X89280180Y-187868703D01*
X89168741Y-187715321D01*
X89034679Y-187581259D01*
X88881296Y-187469819D01*
X88712372Y-187383747D01*
X88653905Y-187364750D01*
X88532055Y-187325158D01*
X88532051Y-187325157D01*
X88532050Y-187325157D01*
X88344800Y-187295500D01*
X88344796Y-187295500D01*
X88155204Y-187295500D01*
X88155200Y-187295500D01*
X87967949Y-187325157D01*
X87967946Y-187325157D01*
X87967945Y-187325158D01*
X87909482Y-187344153D01*
X87787627Y-187383747D01*
X87618703Y-187469819D01*
X87465319Y-187581260D01*
X87331260Y-187715319D01*
X87219819Y-187868703D01*
X87133747Y-188037627D01*
X87075157Y-188217949D01*
X87045500Y-188405199D01*
X82003500Y-188405199D01*
X82003500Y-178909139D01*
X91595500Y-178909139D01*
X91595500Y-179090860D01*
X91623928Y-179270347D01*
X91623928Y-179270350D01*
X91680081Y-179443171D01*
X91680083Y-179443174D01*
X91762583Y-179605090D01*
X91869397Y-179752106D01*
X91869399Y-179752108D01*
X91997894Y-179880603D01*
X92024155Y-179899683D01*
X92066820Y-179955014D01*
X92072798Y-180024627D01*
X92040191Y-180086422D01*
X92024155Y-180100317D01*
X91997894Y-180119396D01*
X91869399Y-180247891D01*
X91869399Y-180247892D01*
X91869397Y-180247894D01*
X91823525Y-180311030D01*
X91762583Y-180394909D01*
X91680083Y-180556825D01*
X91680081Y-180556828D01*
X91623928Y-180729649D01*
X91623928Y-180729652D01*
X91595500Y-180909139D01*
X91595500Y-181090860D01*
X91623928Y-181270347D01*
X91623928Y-181270350D01*
X91680081Y-181443171D01*
X91680083Y-181443174D01*
X91762583Y-181605090D01*
X91869397Y-181752106D01*
X91997894Y-181880603D01*
X92144910Y-181987417D01*
X92306826Y-182069917D01*
X92306828Y-182069918D01*
X92468029Y-182122294D01*
X92479654Y-182126072D01*
X92659139Y-182154500D01*
X92659140Y-182154500D01*
X92840860Y-182154500D01*
X92840861Y-182154500D01*
X93020346Y-182126072D01*
X93020349Y-182126071D01*
X93020350Y-182126071D01*
X93193171Y-182069918D01*
X93193171Y-182069917D01*
X93193174Y-182069917D01*
X93355090Y-181987417D01*
X93502106Y-181880603D01*
X93630603Y-181752106D01*
X93737417Y-181605090D01*
X93819917Y-181443174D01*
X93876072Y-181270346D01*
X93904500Y-181090861D01*
X93904500Y-180909139D01*
X93876072Y-180729654D01*
X93876071Y-180729650D01*
X93876071Y-180729649D01*
X93819918Y-180556828D01*
X93819916Y-180556825D01*
X93737416Y-180394909D01*
X93630603Y-180247894D01*
X93502106Y-180119397D01*
X93475845Y-180100317D01*
X93433180Y-180044988D01*
X93427201Y-179975375D01*
X93459807Y-179913580D01*
X93475846Y-179899682D01*
X93502106Y-179880603D01*
X93630603Y-179752106D01*
X93737417Y-179605090D01*
X93819917Y-179443174D01*
X93876072Y-179270346D01*
X93904500Y-179090861D01*
X93904500Y-178909139D01*
X93876072Y-178729654D01*
X93876071Y-178729650D01*
X93876071Y-178729649D01*
X93819918Y-178556828D01*
X93819916Y-178556825D01*
X93737416Y-178394909D01*
X93630603Y-178247894D01*
X93502106Y-178119397D01*
X93355090Y-178012583D01*
X93193174Y-177930083D01*
X93193171Y-177930081D01*
X93020348Y-177873928D01*
X92900689Y-177854976D01*
X92840861Y-177845500D01*
X92659139Y-177845500D01*
X92599310Y-177854976D01*
X92479652Y-177873928D01*
X92479649Y-177873928D01*
X92306828Y-177930081D01*
X92306825Y-177930083D01*
X92144909Y-178012583D01*
X92061030Y-178073525D01*
X91997894Y-178119397D01*
X91997892Y-178119399D01*
X91997891Y-178119399D01*
X91869399Y-178247891D01*
X91869399Y-178247892D01*
X91869397Y-178247894D01*
X91823525Y-178311030D01*
X91762583Y-178394909D01*
X91680083Y-178556825D01*
X91680081Y-178556828D01*
X91623928Y-178729649D01*
X91623928Y-178729652D01*
X91595500Y-178909139D01*
X82003500Y-178909139D01*
X82003500Y-162374000D01*
X82023185Y-162306961D01*
X82075989Y-162261206D01*
X82127500Y-162250000D01*
X101835247Y-162250000D01*
X101902286Y-162269685D01*
G37*
%TD.AperFunction*%
%TD*%
%TA.AperFunction,Conductor*%
%TO.N,GND*%
G36*
X161406061Y-142000597D02*
G01*
X161582941Y-142018018D01*
X161606769Y-142022757D01*
X161771001Y-142072576D01*
X161793453Y-142081877D01*
X161921788Y-142150473D01*
X161944798Y-142162772D01*
X161965010Y-142176277D01*
X162097666Y-142285145D01*
X162114854Y-142302333D01*
X162223722Y-142434989D01*
X162237227Y-142455201D01*
X162318121Y-142606543D01*
X162327424Y-142629001D01*
X162377240Y-142793224D01*
X162381982Y-142817065D01*
X162399403Y-142993938D01*
X162400000Y-143006092D01*
X162400000Y-158593907D01*
X162399403Y-158606061D01*
X162381982Y-158782934D01*
X162377240Y-158806775D01*
X162327424Y-158970998D01*
X162318121Y-158993456D01*
X162237227Y-159144798D01*
X162223722Y-159165010D01*
X162114854Y-159297666D01*
X162097666Y-159314854D01*
X161965010Y-159423722D01*
X161944798Y-159437227D01*
X161793456Y-159518121D01*
X161770998Y-159527424D01*
X161606775Y-159577240D01*
X161582934Y-159581982D01*
X161406061Y-159599403D01*
X161393907Y-159600000D01*
X145400000Y-159600000D01*
X145500000Y-148750000D01*
X150097101Y-142417258D01*
X150104379Y-142408166D01*
X150217252Y-142280042D01*
X150234254Y-142264066D01*
X150364496Y-142162982D01*
X150384178Y-142150484D01*
X150531070Y-142075602D01*
X150552755Y-142067012D01*
X150711070Y-142020997D01*
X150733982Y-142016624D01*
X150897271Y-142001182D01*
X150903954Y-142000551D01*
X150915628Y-142000000D01*
X161393907Y-142000000D01*
X161406061Y-142000597D01*
G37*
%TD.AperFunction*%
%TD*%
%TA.AperFunction,Conductor*%
%TO.N,GND*%
G36*
X139250000Y-148750000D02*
G01*
X130750000Y-148750000D01*
X130750000Y-149500000D01*
X120527712Y-149500000D01*
X120547501Y-157000000D01*
X112624000Y-157000000D01*
X112556961Y-156980315D01*
X112511206Y-156927511D01*
X112500000Y-156876000D01*
X112500000Y-150500000D01*
X116250000Y-150500000D01*
X116250000Y-145000000D01*
X112500000Y-145000000D01*
X112500000Y-101750000D01*
X139250000Y-101750000D01*
X139250000Y-148750000D01*
G37*
%TD.AperFunction*%
%TD*%
%TA.AperFunction,Conductor*%
%TO.N,GND*%
G36*
X145493088Y-149500000D02*
G01*
X130750000Y-149500000D01*
X130750000Y-148750000D01*
X145500000Y-148750000D01*
X145493088Y-149500000D01*
G37*
%TD.AperFunction*%
%TD*%
%TA.AperFunction,Conductor*%
%TO.N,GND*%
G36*
X145400000Y-159600000D02*
G01*
X145500000Y-159600000D01*
X145500000Y-186353017D01*
X145499405Y-186365153D01*
X145482036Y-186541772D01*
X145477307Y-186565580D01*
X145427639Y-186729571D01*
X145418364Y-186751999D01*
X145337699Y-186903181D01*
X145324235Y-186923371D01*
X145245096Y-187020004D01*
X145215662Y-187055945D01*
X145198519Y-187073127D01*
X145066210Y-187182003D01*
X145046049Y-187195517D01*
X144895056Y-187276539D01*
X144872648Y-187285868D01*
X144708768Y-187335923D01*
X144684971Y-187340707D01*
X144508406Y-187358489D01*
X144496272Y-187359113D01*
X135998332Y-187379086D01*
X122559042Y-187410672D01*
X122491957Y-187391145D01*
X122446078Y-187338448D01*
X122435972Y-187269313D01*
X122464847Y-187205690D01*
X122471052Y-187199009D01*
X124128281Y-185541780D01*
X124153960Y-185522077D01*
X124204040Y-185493164D01*
X124204039Y-185493164D01*
X124204042Y-185493163D01*
X124391291Y-185349482D01*
X124558184Y-185182589D01*
X124701865Y-184995340D01*
X124819876Y-184790939D01*
X124910198Y-184572883D01*
X124971285Y-184344904D01*
X125002092Y-184110901D01*
X125002092Y-183874879D01*
X124971285Y-183640876D01*
X124910198Y-183412897D01*
X124819876Y-183194841D01*
X124819874Y-183194838D01*
X124819872Y-183194833D01*
X124738941Y-183054658D01*
X124701865Y-182990440D01*
X124558184Y-182803191D01*
X124558179Y-182803185D01*
X124391296Y-182636302D01*
X124391289Y-182636296D01*
X124204046Y-182492620D01*
X124204045Y-182492619D01*
X124204042Y-182492617D01*
X124122549Y-182445567D01*
X123999648Y-182374609D01*
X123999637Y-182374604D01*
X123781585Y-182284284D01*
X123553602Y-182223196D01*
X123319612Y-182192391D01*
X123319609Y-182192390D01*
X123319603Y-182192390D01*
X123083581Y-182192390D01*
X123083575Y-182192390D01*
X123083571Y-182192391D01*
X122849581Y-182223196D01*
X122621598Y-182284284D01*
X122403546Y-182374604D01*
X122403535Y-182374609D01*
X122199137Y-182492620D01*
X122011894Y-182636296D01*
X122011887Y-182636302D01*
X121845004Y-182803185D01*
X121844998Y-182803192D01*
X121701325Y-182990431D01*
X121701319Y-182990440D01*
X121672402Y-183040524D01*
X121652697Y-183066202D01*
X120829898Y-183889001D01*
X120768575Y-183922486D01*
X120698883Y-183917502D01*
X120642950Y-183875630D01*
X120618533Y-183810166D01*
X120618217Y-183801647D01*
X120617793Y-183640879D01*
X120564381Y-163397585D01*
X123074500Y-163397585D01*
X123074500Y-163702414D01*
X123074501Y-163702430D01*
X123114289Y-164004654D01*
X123193189Y-164299113D01*
X123309844Y-164580742D01*
X123309848Y-164580752D01*
X123462267Y-164844750D01*
X123647843Y-165086597D01*
X123647849Y-165086604D01*
X123863395Y-165302150D01*
X123863402Y-165302156D01*
X124105249Y-165487732D01*
X124369247Y-165640151D01*
X124369248Y-165640151D01*
X124369251Y-165640153D01*
X124557009Y-165717925D01*
X124650886Y-165756810D01*
X124650887Y-165756810D01*
X124650889Y-165756811D01*
X124945344Y-165835710D01*
X125247579Y-165875500D01*
X125247586Y-165875500D01*
X125552414Y-165875500D01*
X125552421Y-165875500D01*
X125854656Y-165835710D01*
X126149111Y-165756811D01*
X126430749Y-165640153D01*
X126694751Y-165487732D01*
X126936599Y-165302155D01*
X127152155Y-165086599D01*
X127337732Y-164844751D01*
X127490153Y-164580749D01*
X127606811Y-164299111D01*
X127685710Y-164004656D01*
X127725500Y-163702421D01*
X127725500Y-163397585D01*
X139274500Y-163397585D01*
X139274500Y-163702414D01*
X139274501Y-163702430D01*
X139314289Y-164004654D01*
X139393189Y-164299113D01*
X139509844Y-164580742D01*
X139509848Y-164580752D01*
X139662267Y-164844750D01*
X139847843Y-165086597D01*
X139847849Y-165086604D01*
X140063395Y-165302150D01*
X140063402Y-165302156D01*
X140305249Y-165487732D01*
X140569247Y-165640151D01*
X140569248Y-165640151D01*
X140569251Y-165640153D01*
X140757009Y-165717925D01*
X140850886Y-165756810D01*
X140850887Y-165756810D01*
X140850889Y-165756811D01*
X141145344Y-165835710D01*
X141447579Y-165875500D01*
X141447586Y-165875500D01*
X141752414Y-165875500D01*
X141752421Y-165875500D01*
X142054656Y-165835710D01*
X142349111Y-165756811D01*
X142630749Y-165640153D01*
X142894751Y-165487732D01*
X143136599Y-165302155D01*
X143352155Y-165086599D01*
X143537732Y-164844751D01*
X143690153Y-164580749D01*
X143806811Y-164299111D01*
X143885710Y-164004656D01*
X143925500Y-163702421D01*
X143925500Y-163397579D01*
X143885710Y-163095344D01*
X143806811Y-162800889D01*
X143690153Y-162519251D01*
X143537732Y-162255249D01*
X143352155Y-162013401D01*
X143352150Y-162013395D01*
X143136604Y-161797849D01*
X143136597Y-161797843D01*
X142894750Y-161612267D01*
X142630752Y-161459848D01*
X142630742Y-161459844D01*
X142349113Y-161343189D01*
X142054654Y-161264289D01*
X141752430Y-161224501D01*
X141752427Y-161224500D01*
X141752421Y-161224500D01*
X141447579Y-161224500D01*
X141447573Y-161224500D01*
X141447569Y-161224501D01*
X141145345Y-161264289D01*
X140850886Y-161343189D01*
X140569257Y-161459844D01*
X140569247Y-161459848D01*
X140305249Y-161612267D01*
X140063402Y-161797843D01*
X140063395Y-161797849D01*
X139847849Y-162013395D01*
X139847843Y-162013402D01*
X139662267Y-162255249D01*
X139509848Y-162519247D01*
X139509844Y-162519257D01*
X139393189Y-162800886D01*
X139314289Y-163095345D01*
X139274501Y-163397569D01*
X139274500Y-163397585D01*
X127725500Y-163397585D01*
X127725500Y-163397579D01*
X127685710Y-163095344D01*
X127606811Y-162800889D01*
X127490153Y-162519251D01*
X127337732Y-162255249D01*
X127152155Y-162013401D01*
X127152150Y-162013395D01*
X126936604Y-161797849D01*
X126936597Y-161797843D01*
X126694750Y-161612267D01*
X126430752Y-161459848D01*
X126430742Y-161459844D01*
X126149113Y-161343189D01*
X125854654Y-161264289D01*
X125552430Y-161224501D01*
X125552427Y-161224500D01*
X125552421Y-161224500D01*
X125247579Y-161224500D01*
X125247573Y-161224500D01*
X125247569Y-161224501D01*
X124945345Y-161264289D01*
X124650886Y-161343189D01*
X124369257Y-161459844D01*
X124369247Y-161459848D01*
X124105249Y-161612267D01*
X123863402Y-161797843D01*
X123863395Y-161797849D01*
X123647849Y-162013395D01*
X123647843Y-162013402D01*
X123462267Y-162255249D01*
X123309848Y-162519247D01*
X123309844Y-162519257D01*
X123193189Y-162800886D01*
X123114289Y-163095345D01*
X123074501Y-163397569D01*
X123074500Y-163397585D01*
X120564381Y-163397585D01*
X120550133Y-157997361D01*
X120550132Y-157997360D01*
X120550117Y-157991319D01*
X120550116Y-157991309D01*
X120527712Y-149500000D01*
X145493088Y-149500000D01*
X145400000Y-159600000D01*
G37*
%TD.AperFunction*%
%TD*%
%TA.AperFunction,Conductor*%
%TO.N,SW2*%
G36*
X161943039Y-39569685D02*
G01*
X161988794Y-39622489D01*
X162000000Y-39674000D01*
X162000000Y-47698638D01*
X161980315Y-47765677D01*
X161963681Y-47786319D01*
X153000000Y-56749999D01*
X153000000Y-39550000D01*
X161876000Y-39550000D01*
X161943039Y-39569685D01*
G37*
%TD.AperFunction*%
%TD*%
%TA.AperFunction,Conductor*%
%TO.N,GND*%
G36*
X139193039Y-43769685D02*
G01*
X139238794Y-43822489D01*
X139250000Y-43874000D01*
X139250000Y-101750000D01*
X112500000Y-101750000D01*
X112500000Y-43874000D01*
X112519685Y-43806961D01*
X112572489Y-43761206D01*
X112624000Y-43750000D01*
X139126000Y-43750000D01*
X139193039Y-43769685D01*
G37*
%TD.AperFunction*%
%TD*%
M02*
