%TF.GenerationSoftware,KiCad,Pcbnew,9.0.0*%
%TF.CreationDate,2025-03-25T20:50:40-04:00*%
%TF.ProjectId,RampedFetCoil,52616d70-6564-4466-9574-436f696c2e6b,rev?*%
%TF.SameCoordinates,Original*%
%TF.FileFunction,Legend,Top*%
%TF.FilePolarity,Positive*%
%FSLAX46Y46*%
G04 Gerber Fmt 4.6, Leading zero omitted, Abs format (unit mm)*
G04 Created by KiCad (PCBNEW 9.0.0) date 2025-03-25 20:50:40*
%MOMM*%
%LPD*%
G01*
G04 APERTURE LIST*
%ADD10C,0.100000*%
%ADD11C,0.150000*%
%ADD12C,0.254000*%
%ADD13C,0.300000*%
%ADD14C,0.120000*%
%ADD15C,0.152400*%
%ADD16C,0.200000*%
%ADD17C,0.600000*%
%ADD18C,0.127000*%
G04 APERTURE END LIST*
D10*
X94000000Y-237500000D02*
X94000000Y-240000000D01*
X89000000Y-240000000D02*
X99000000Y-240000000D01*
X99000000Y-250750000D01*
X89000000Y-250750000D01*
X89000000Y-240000000D01*
X90750000Y-232500000D02*
X97250000Y-232500000D01*
X97250000Y-237500000D01*
X90750000Y-237500000D01*
X90750000Y-232500000D01*
X93372419Y-246124687D02*
X92896228Y-246458020D01*
X93372419Y-246696115D02*
X92372419Y-246696115D01*
X92372419Y-246696115D02*
X92372419Y-246315163D01*
X92372419Y-246315163D02*
X92420038Y-246219925D01*
X92420038Y-246219925D02*
X92467657Y-246172306D01*
X92467657Y-246172306D02*
X92562895Y-246124687D01*
X92562895Y-246124687D02*
X92705752Y-246124687D01*
X92705752Y-246124687D02*
X92800990Y-246172306D01*
X92800990Y-246172306D02*
X92848609Y-246219925D01*
X92848609Y-246219925D02*
X92896228Y-246315163D01*
X92896228Y-246315163D02*
X92896228Y-246696115D01*
X93372419Y-245696115D02*
X92372419Y-245696115D01*
X92372419Y-245696115D02*
X92372419Y-245458020D01*
X92372419Y-245458020D02*
X92420038Y-245315163D01*
X92420038Y-245315163D02*
X92515276Y-245219925D01*
X92515276Y-245219925D02*
X92610514Y-245172306D01*
X92610514Y-245172306D02*
X92800990Y-245124687D01*
X92800990Y-245124687D02*
X92943847Y-245124687D01*
X92943847Y-245124687D02*
X93134323Y-245172306D01*
X93134323Y-245172306D02*
X93229561Y-245219925D01*
X93229561Y-245219925D02*
X93324800Y-245315163D01*
X93324800Y-245315163D02*
X93372419Y-245458020D01*
X93372419Y-245458020D02*
X93372419Y-245696115D01*
X92896228Y-244505639D02*
X93372419Y-244505639D01*
X92372419Y-244838972D02*
X92896228Y-244505639D01*
X92896228Y-244505639D02*
X92372419Y-244172306D01*
X95872419Y-246696115D02*
X94872419Y-246696115D01*
X94872419Y-246696115D02*
X94872419Y-246315163D01*
X94872419Y-246315163D02*
X94920038Y-246219925D01*
X94920038Y-246219925D02*
X94967657Y-246172306D01*
X94967657Y-246172306D02*
X95062895Y-246124687D01*
X95062895Y-246124687D02*
X95205752Y-246124687D01*
X95205752Y-246124687D02*
X95300990Y-246172306D01*
X95300990Y-246172306D02*
X95348609Y-246219925D01*
X95348609Y-246219925D02*
X95396228Y-246315163D01*
X95396228Y-246315163D02*
X95396228Y-246696115D01*
X95872419Y-245219925D02*
X95872419Y-245696115D01*
X95872419Y-245696115D02*
X94872419Y-245696115D01*
X95824800Y-244934210D02*
X95872419Y-244791353D01*
X95872419Y-244791353D02*
X95872419Y-244553258D01*
X95872419Y-244553258D02*
X95824800Y-244458020D01*
X95824800Y-244458020D02*
X95777180Y-244410401D01*
X95777180Y-244410401D02*
X95681942Y-244362782D01*
X95681942Y-244362782D02*
X95586704Y-244362782D01*
X95586704Y-244362782D02*
X95491466Y-244410401D01*
X95491466Y-244410401D02*
X95443847Y-244458020D01*
X95443847Y-244458020D02*
X95396228Y-244553258D01*
X95396228Y-244553258D02*
X95348609Y-244743734D01*
X95348609Y-244743734D02*
X95300990Y-244838972D01*
X95300990Y-244838972D02*
X95253371Y-244886591D01*
X95253371Y-244886591D02*
X95158133Y-244934210D01*
X95158133Y-244934210D02*
X95062895Y-244934210D01*
X95062895Y-244934210D02*
X94967657Y-244886591D01*
X94967657Y-244886591D02*
X94920038Y-244838972D01*
X94920038Y-244838972D02*
X94872419Y-244743734D01*
X94872419Y-244743734D02*
X94872419Y-244505639D01*
X94872419Y-244505639D02*
X94920038Y-244362782D01*
X97372419Y-246505639D02*
X97372419Y-246315163D01*
X97372419Y-246315163D02*
X97420038Y-246219925D01*
X97420038Y-246219925D02*
X97515276Y-246124687D01*
X97515276Y-246124687D02*
X97705752Y-246077068D01*
X97705752Y-246077068D02*
X98039085Y-246077068D01*
X98039085Y-246077068D02*
X98229561Y-246124687D01*
X98229561Y-246124687D02*
X98324800Y-246219925D01*
X98324800Y-246219925D02*
X98372419Y-246315163D01*
X98372419Y-246315163D02*
X98372419Y-246505639D01*
X98372419Y-246505639D02*
X98324800Y-246600877D01*
X98324800Y-246600877D02*
X98229561Y-246696115D01*
X98229561Y-246696115D02*
X98039085Y-246743734D01*
X98039085Y-246743734D02*
X97705752Y-246743734D01*
X97705752Y-246743734D02*
X97515276Y-246696115D01*
X97515276Y-246696115D02*
X97420038Y-246600877D01*
X97420038Y-246600877D02*
X97372419Y-246505639D01*
X98277180Y-245077068D02*
X98324800Y-245124687D01*
X98324800Y-245124687D02*
X98372419Y-245267544D01*
X98372419Y-245267544D02*
X98372419Y-245362782D01*
X98372419Y-245362782D02*
X98324800Y-245505639D01*
X98324800Y-245505639D02*
X98229561Y-245600877D01*
X98229561Y-245600877D02*
X98134323Y-245648496D01*
X98134323Y-245648496D02*
X97943847Y-245696115D01*
X97943847Y-245696115D02*
X97800990Y-245696115D01*
X97800990Y-245696115D02*
X97610514Y-245648496D01*
X97610514Y-245648496D02*
X97515276Y-245600877D01*
X97515276Y-245600877D02*
X97420038Y-245505639D01*
X97420038Y-245505639D02*
X97372419Y-245362782D01*
X97372419Y-245362782D02*
X97372419Y-245267544D01*
X97372419Y-245267544D02*
X97420038Y-245124687D01*
X97420038Y-245124687D02*
X97467657Y-245077068D01*
X98372419Y-244648496D02*
X97372419Y-244648496D01*
X97372419Y-244648496D02*
X97372419Y-244410401D01*
X97372419Y-244410401D02*
X97420038Y-244267544D01*
X97420038Y-244267544D02*
X97515276Y-244172306D01*
X97515276Y-244172306D02*
X97610514Y-244124687D01*
X97610514Y-244124687D02*
X97800990Y-244077068D01*
X97800990Y-244077068D02*
X97943847Y-244077068D01*
X97943847Y-244077068D02*
X98134323Y-244124687D01*
X98134323Y-244124687D02*
X98229561Y-244172306D01*
X98229561Y-244172306D02*
X98324800Y-244267544D01*
X98324800Y-244267544D02*
X98372419Y-244410401D01*
X98372419Y-244410401D02*
X98372419Y-244648496D01*
X90872419Y-246696115D02*
X89872419Y-246696115D01*
X89872419Y-246696115D02*
X89872419Y-246315163D01*
X89872419Y-246315163D02*
X89920038Y-246219925D01*
X89920038Y-246219925D02*
X89967657Y-246172306D01*
X89967657Y-246172306D02*
X90062895Y-246124687D01*
X90062895Y-246124687D02*
X90205752Y-246124687D01*
X90205752Y-246124687D02*
X90300990Y-246172306D01*
X90300990Y-246172306D02*
X90348609Y-246219925D01*
X90348609Y-246219925D02*
X90396228Y-246315163D01*
X90396228Y-246315163D02*
X90396228Y-246696115D01*
X89872419Y-245791353D02*
X90872419Y-245553258D01*
X90872419Y-245553258D02*
X90158133Y-245362782D01*
X90158133Y-245362782D02*
X90872419Y-245172306D01*
X90872419Y-245172306D02*
X89872419Y-244934211D01*
X90872419Y-243981830D02*
X90396228Y-244315163D01*
X90872419Y-244553258D02*
X89872419Y-244553258D01*
X89872419Y-244553258D02*
X89872419Y-244172306D01*
X89872419Y-244172306D02*
X89920038Y-244077068D01*
X89920038Y-244077068D02*
X89967657Y-244029449D01*
X89967657Y-244029449D02*
X90062895Y-243981830D01*
X90062895Y-243981830D02*
X90205752Y-243981830D01*
X90205752Y-243981830D02*
X90300990Y-244029449D01*
X90300990Y-244029449D02*
X90348609Y-244077068D01*
X90348609Y-244077068D02*
X90396228Y-244172306D01*
X90396228Y-244172306D02*
X90396228Y-244553258D01*
D11*
X92857142Y-79554819D02*
X92523809Y-79078628D01*
X92285714Y-79554819D02*
X92285714Y-78554819D01*
X92285714Y-78554819D02*
X92666666Y-78554819D01*
X92666666Y-78554819D02*
X92761904Y-78602438D01*
X92761904Y-78602438D02*
X92809523Y-78650057D01*
X92809523Y-78650057D02*
X92857142Y-78745295D01*
X92857142Y-78745295D02*
X92857142Y-78888152D01*
X92857142Y-78888152D02*
X92809523Y-78983390D01*
X92809523Y-78983390D02*
X92761904Y-79031009D01*
X92761904Y-79031009D02*
X92666666Y-79078628D01*
X92666666Y-79078628D02*
X92285714Y-79078628D01*
X93190476Y-78554819D02*
X93809523Y-78554819D01*
X93809523Y-78554819D02*
X93476190Y-78935771D01*
X93476190Y-78935771D02*
X93619047Y-78935771D01*
X93619047Y-78935771D02*
X93714285Y-78983390D01*
X93714285Y-78983390D02*
X93761904Y-79031009D01*
X93761904Y-79031009D02*
X93809523Y-79126247D01*
X93809523Y-79126247D02*
X93809523Y-79364342D01*
X93809523Y-79364342D02*
X93761904Y-79459580D01*
X93761904Y-79459580D02*
X93714285Y-79507200D01*
X93714285Y-79507200D02*
X93619047Y-79554819D01*
X93619047Y-79554819D02*
X93333333Y-79554819D01*
X93333333Y-79554819D02*
X93238095Y-79507200D01*
X93238095Y-79507200D02*
X93190476Y-79459580D01*
X94761904Y-79554819D02*
X94190476Y-79554819D01*
X94476190Y-79554819D02*
X94476190Y-78554819D01*
X94476190Y-78554819D02*
X94380952Y-78697676D01*
X94380952Y-78697676D02*
X94285714Y-78792914D01*
X94285714Y-78792914D02*
X94190476Y-78840533D01*
X151704819Y-76892857D02*
X151228628Y-77226190D01*
X151704819Y-77464285D02*
X150704819Y-77464285D01*
X150704819Y-77464285D02*
X150704819Y-77083333D01*
X150704819Y-77083333D02*
X150752438Y-76988095D01*
X150752438Y-76988095D02*
X150800057Y-76940476D01*
X150800057Y-76940476D02*
X150895295Y-76892857D01*
X150895295Y-76892857D02*
X151038152Y-76892857D01*
X151038152Y-76892857D02*
X151133390Y-76940476D01*
X151133390Y-76940476D02*
X151181009Y-76988095D01*
X151181009Y-76988095D02*
X151228628Y-77083333D01*
X151228628Y-77083333D02*
X151228628Y-77464285D01*
X150704819Y-76559523D02*
X150704819Y-75940476D01*
X150704819Y-75940476D02*
X151085771Y-76273809D01*
X151085771Y-76273809D02*
X151085771Y-76130952D01*
X151085771Y-76130952D02*
X151133390Y-76035714D01*
X151133390Y-76035714D02*
X151181009Y-75988095D01*
X151181009Y-75988095D02*
X151276247Y-75940476D01*
X151276247Y-75940476D02*
X151514342Y-75940476D01*
X151514342Y-75940476D02*
X151609580Y-75988095D01*
X151609580Y-75988095D02*
X151657200Y-76035714D01*
X151657200Y-76035714D02*
X151704819Y-76130952D01*
X151704819Y-76130952D02*
X151704819Y-76416666D01*
X151704819Y-76416666D02*
X151657200Y-76511904D01*
X151657200Y-76511904D02*
X151609580Y-76559523D01*
X150704819Y-75321428D02*
X150704819Y-75226190D01*
X150704819Y-75226190D02*
X150752438Y-75130952D01*
X150752438Y-75130952D02*
X150800057Y-75083333D01*
X150800057Y-75083333D02*
X150895295Y-75035714D01*
X150895295Y-75035714D02*
X151085771Y-74988095D01*
X151085771Y-74988095D02*
X151323866Y-74988095D01*
X151323866Y-74988095D02*
X151514342Y-75035714D01*
X151514342Y-75035714D02*
X151609580Y-75083333D01*
X151609580Y-75083333D02*
X151657200Y-75130952D01*
X151657200Y-75130952D02*
X151704819Y-75226190D01*
X151704819Y-75226190D02*
X151704819Y-75321428D01*
X151704819Y-75321428D02*
X151657200Y-75416666D01*
X151657200Y-75416666D02*
X151609580Y-75464285D01*
X151609580Y-75464285D02*
X151514342Y-75511904D01*
X151514342Y-75511904D02*
X151323866Y-75559523D01*
X151323866Y-75559523D02*
X151085771Y-75559523D01*
X151085771Y-75559523D02*
X150895295Y-75511904D01*
X150895295Y-75511904D02*
X150800057Y-75464285D01*
X150800057Y-75464285D02*
X150752438Y-75416666D01*
X150752438Y-75416666D02*
X150704819Y-75321428D01*
X111357142Y-214104819D02*
X111023809Y-213628628D01*
X110785714Y-214104819D02*
X110785714Y-213104819D01*
X110785714Y-213104819D02*
X111166666Y-213104819D01*
X111166666Y-213104819D02*
X111261904Y-213152438D01*
X111261904Y-213152438D02*
X111309523Y-213200057D01*
X111309523Y-213200057D02*
X111357142Y-213295295D01*
X111357142Y-213295295D02*
X111357142Y-213438152D01*
X111357142Y-213438152D02*
X111309523Y-213533390D01*
X111309523Y-213533390D02*
X111261904Y-213581009D01*
X111261904Y-213581009D02*
X111166666Y-213628628D01*
X111166666Y-213628628D02*
X110785714Y-213628628D01*
X112309523Y-214104819D02*
X111738095Y-214104819D01*
X112023809Y-214104819D02*
X112023809Y-213104819D01*
X112023809Y-213104819D02*
X111928571Y-213247676D01*
X111928571Y-213247676D02*
X111833333Y-213342914D01*
X111833333Y-213342914D02*
X111738095Y-213390533D01*
X112880952Y-213533390D02*
X112785714Y-213485771D01*
X112785714Y-213485771D02*
X112738095Y-213438152D01*
X112738095Y-213438152D02*
X112690476Y-213342914D01*
X112690476Y-213342914D02*
X112690476Y-213295295D01*
X112690476Y-213295295D02*
X112738095Y-213200057D01*
X112738095Y-213200057D02*
X112785714Y-213152438D01*
X112785714Y-213152438D02*
X112880952Y-213104819D01*
X112880952Y-213104819D02*
X113071428Y-213104819D01*
X113071428Y-213104819D02*
X113166666Y-213152438D01*
X113166666Y-213152438D02*
X113214285Y-213200057D01*
X113214285Y-213200057D02*
X113261904Y-213295295D01*
X113261904Y-213295295D02*
X113261904Y-213342914D01*
X113261904Y-213342914D02*
X113214285Y-213438152D01*
X113214285Y-213438152D02*
X113166666Y-213485771D01*
X113166666Y-213485771D02*
X113071428Y-213533390D01*
X113071428Y-213533390D02*
X112880952Y-213533390D01*
X112880952Y-213533390D02*
X112785714Y-213581009D01*
X112785714Y-213581009D02*
X112738095Y-213628628D01*
X112738095Y-213628628D02*
X112690476Y-213723866D01*
X112690476Y-213723866D02*
X112690476Y-213914342D01*
X112690476Y-213914342D02*
X112738095Y-214009580D01*
X112738095Y-214009580D02*
X112785714Y-214057200D01*
X112785714Y-214057200D02*
X112880952Y-214104819D01*
X112880952Y-214104819D02*
X113071428Y-214104819D01*
X113071428Y-214104819D02*
X113166666Y-214057200D01*
X113166666Y-214057200D02*
X113214285Y-214009580D01*
X113214285Y-214009580D02*
X113261904Y-213914342D01*
X113261904Y-213914342D02*
X113261904Y-213723866D01*
X113261904Y-213723866D02*
X113214285Y-213628628D01*
X113214285Y-213628628D02*
X113166666Y-213581009D01*
X113166666Y-213581009D02*
X113071428Y-213533390D01*
X127954819Y-220464285D02*
X126954819Y-220464285D01*
X126954819Y-220464285D02*
X126954819Y-220226190D01*
X126954819Y-220226190D02*
X127002438Y-220083333D01*
X127002438Y-220083333D02*
X127097676Y-219988095D01*
X127097676Y-219988095D02*
X127192914Y-219940476D01*
X127192914Y-219940476D02*
X127383390Y-219892857D01*
X127383390Y-219892857D02*
X127526247Y-219892857D01*
X127526247Y-219892857D02*
X127716723Y-219940476D01*
X127716723Y-219940476D02*
X127811961Y-219988095D01*
X127811961Y-219988095D02*
X127907200Y-220083333D01*
X127907200Y-220083333D02*
X127954819Y-220226190D01*
X127954819Y-220226190D02*
X127954819Y-220464285D01*
X127954819Y-218940476D02*
X127954819Y-219511904D01*
X127954819Y-219226190D02*
X126954819Y-219226190D01*
X126954819Y-219226190D02*
X127097676Y-219321428D01*
X127097676Y-219321428D02*
X127192914Y-219416666D01*
X127192914Y-219416666D02*
X127240533Y-219511904D01*
X127288152Y-218083333D02*
X127954819Y-218083333D01*
X126907200Y-218321428D02*
X127621485Y-218559523D01*
X127621485Y-218559523D02*
X127621485Y-217940476D01*
X91054819Y-74511904D02*
X91864342Y-74511904D01*
X91864342Y-74511904D02*
X91959580Y-74464285D01*
X91959580Y-74464285D02*
X92007200Y-74416666D01*
X92007200Y-74416666D02*
X92054819Y-74321428D01*
X92054819Y-74321428D02*
X92054819Y-74130952D01*
X92054819Y-74130952D02*
X92007200Y-74035714D01*
X92007200Y-74035714D02*
X91959580Y-73988095D01*
X91959580Y-73988095D02*
X91864342Y-73940476D01*
X91864342Y-73940476D02*
X91054819Y-73940476D01*
X91054819Y-73559523D02*
X91054819Y-72940476D01*
X91054819Y-72940476D02*
X91435771Y-73273809D01*
X91435771Y-73273809D02*
X91435771Y-73130952D01*
X91435771Y-73130952D02*
X91483390Y-73035714D01*
X91483390Y-73035714D02*
X91531009Y-72988095D01*
X91531009Y-72988095D02*
X91626247Y-72940476D01*
X91626247Y-72940476D02*
X91864342Y-72940476D01*
X91864342Y-72940476D02*
X91959580Y-72988095D01*
X91959580Y-72988095D02*
X92007200Y-73035714D01*
X92007200Y-73035714D02*
X92054819Y-73130952D01*
X92054819Y-73130952D02*
X92054819Y-73416666D01*
X92054819Y-73416666D02*
X92007200Y-73511904D01*
X92007200Y-73511904D02*
X91959580Y-73559523D01*
X94857142Y-149944819D02*
X94523809Y-149468628D01*
X94285714Y-149944819D02*
X94285714Y-148944819D01*
X94285714Y-148944819D02*
X94666666Y-148944819D01*
X94666666Y-148944819D02*
X94761904Y-148992438D01*
X94761904Y-148992438D02*
X94809523Y-149040057D01*
X94809523Y-149040057D02*
X94857142Y-149135295D01*
X94857142Y-149135295D02*
X94857142Y-149278152D01*
X94857142Y-149278152D02*
X94809523Y-149373390D01*
X94809523Y-149373390D02*
X94761904Y-149421009D01*
X94761904Y-149421009D02*
X94666666Y-149468628D01*
X94666666Y-149468628D02*
X94285714Y-149468628D01*
X95238095Y-149040057D02*
X95285714Y-148992438D01*
X95285714Y-148992438D02*
X95380952Y-148944819D01*
X95380952Y-148944819D02*
X95619047Y-148944819D01*
X95619047Y-148944819D02*
X95714285Y-148992438D01*
X95714285Y-148992438D02*
X95761904Y-149040057D01*
X95761904Y-149040057D02*
X95809523Y-149135295D01*
X95809523Y-149135295D02*
X95809523Y-149230533D01*
X95809523Y-149230533D02*
X95761904Y-149373390D01*
X95761904Y-149373390D02*
X95190476Y-149944819D01*
X95190476Y-149944819D02*
X95809523Y-149944819D01*
X96380952Y-149373390D02*
X96285714Y-149325771D01*
X96285714Y-149325771D02*
X96238095Y-149278152D01*
X96238095Y-149278152D02*
X96190476Y-149182914D01*
X96190476Y-149182914D02*
X96190476Y-149135295D01*
X96190476Y-149135295D02*
X96238095Y-149040057D01*
X96238095Y-149040057D02*
X96285714Y-148992438D01*
X96285714Y-148992438D02*
X96380952Y-148944819D01*
X96380952Y-148944819D02*
X96571428Y-148944819D01*
X96571428Y-148944819D02*
X96666666Y-148992438D01*
X96666666Y-148992438D02*
X96714285Y-149040057D01*
X96714285Y-149040057D02*
X96761904Y-149135295D01*
X96761904Y-149135295D02*
X96761904Y-149182914D01*
X96761904Y-149182914D02*
X96714285Y-149278152D01*
X96714285Y-149278152D02*
X96666666Y-149325771D01*
X96666666Y-149325771D02*
X96571428Y-149373390D01*
X96571428Y-149373390D02*
X96380952Y-149373390D01*
X96380952Y-149373390D02*
X96285714Y-149421009D01*
X96285714Y-149421009D02*
X96238095Y-149468628D01*
X96238095Y-149468628D02*
X96190476Y-149563866D01*
X96190476Y-149563866D02*
X96190476Y-149754342D01*
X96190476Y-149754342D02*
X96238095Y-149849580D01*
X96238095Y-149849580D02*
X96285714Y-149897200D01*
X96285714Y-149897200D02*
X96380952Y-149944819D01*
X96380952Y-149944819D02*
X96571428Y-149944819D01*
X96571428Y-149944819D02*
X96666666Y-149897200D01*
X96666666Y-149897200D02*
X96714285Y-149849580D01*
X96714285Y-149849580D02*
X96761904Y-149754342D01*
X96761904Y-149754342D02*
X96761904Y-149563866D01*
X96761904Y-149563866D02*
X96714285Y-149468628D01*
X96714285Y-149468628D02*
X96666666Y-149421009D01*
X96666666Y-149421009D02*
X96571428Y-149373390D01*
X95204819Y-233916666D02*
X94728628Y-234249999D01*
X95204819Y-234488094D02*
X94204819Y-234488094D01*
X94204819Y-234488094D02*
X94204819Y-234107142D01*
X94204819Y-234107142D02*
X94252438Y-234011904D01*
X94252438Y-234011904D02*
X94300057Y-233964285D01*
X94300057Y-233964285D02*
X94395295Y-233916666D01*
X94395295Y-233916666D02*
X94538152Y-233916666D01*
X94538152Y-233916666D02*
X94633390Y-233964285D01*
X94633390Y-233964285D02*
X94681009Y-234011904D01*
X94681009Y-234011904D02*
X94728628Y-234107142D01*
X94728628Y-234107142D02*
X94728628Y-234488094D01*
X94204819Y-233583332D02*
X94204819Y-232916666D01*
X94204819Y-232916666D02*
X95204819Y-233345237D01*
X107789580Y-221666666D02*
X107837200Y-221714285D01*
X107837200Y-221714285D02*
X107884819Y-221857142D01*
X107884819Y-221857142D02*
X107884819Y-221952380D01*
X107884819Y-221952380D02*
X107837200Y-222095237D01*
X107837200Y-222095237D02*
X107741961Y-222190475D01*
X107741961Y-222190475D02*
X107646723Y-222238094D01*
X107646723Y-222238094D02*
X107456247Y-222285713D01*
X107456247Y-222285713D02*
X107313390Y-222285713D01*
X107313390Y-222285713D02*
X107122914Y-222238094D01*
X107122914Y-222238094D02*
X107027676Y-222190475D01*
X107027676Y-222190475D02*
X106932438Y-222095237D01*
X106932438Y-222095237D02*
X106884819Y-221952380D01*
X106884819Y-221952380D02*
X106884819Y-221857142D01*
X106884819Y-221857142D02*
X106932438Y-221714285D01*
X106932438Y-221714285D02*
X106980057Y-221666666D01*
X106884819Y-221333332D02*
X106884819Y-220714285D01*
X106884819Y-220714285D02*
X107265771Y-221047618D01*
X107265771Y-221047618D02*
X107265771Y-220904761D01*
X107265771Y-220904761D02*
X107313390Y-220809523D01*
X107313390Y-220809523D02*
X107361009Y-220761904D01*
X107361009Y-220761904D02*
X107456247Y-220714285D01*
X107456247Y-220714285D02*
X107694342Y-220714285D01*
X107694342Y-220714285D02*
X107789580Y-220761904D01*
X107789580Y-220761904D02*
X107837200Y-220809523D01*
X107837200Y-220809523D02*
X107884819Y-220904761D01*
X107884819Y-220904761D02*
X107884819Y-221190475D01*
X107884819Y-221190475D02*
X107837200Y-221285713D01*
X107837200Y-221285713D02*
X107789580Y-221333332D01*
X91261905Y-179454819D02*
X91261905Y-178454819D01*
X91261905Y-178454819D02*
X91500000Y-178454819D01*
X91500000Y-178454819D02*
X91642857Y-178502438D01*
X91642857Y-178502438D02*
X91738095Y-178597676D01*
X91738095Y-178597676D02*
X91785714Y-178692914D01*
X91785714Y-178692914D02*
X91833333Y-178883390D01*
X91833333Y-178883390D02*
X91833333Y-179026247D01*
X91833333Y-179026247D02*
X91785714Y-179216723D01*
X91785714Y-179216723D02*
X91738095Y-179311961D01*
X91738095Y-179311961D02*
X91642857Y-179407200D01*
X91642857Y-179407200D02*
X91500000Y-179454819D01*
X91500000Y-179454819D02*
X91261905Y-179454819D01*
X92166667Y-178454819D02*
X92833333Y-178454819D01*
X92833333Y-178454819D02*
X92404762Y-179454819D01*
X114609580Y-177642857D02*
X114657200Y-177690476D01*
X114657200Y-177690476D02*
X114704819Y-177833333D01*
X114704819Y-177833333D02*
X114704819Y-177928571D01*
X114704819Y-177928571D02*
X114657200Y-178071428D01*
X114657200Y-178071428D02*
X114561961Y-178166666D01*
X114561961Y-178166666D02*
X114466723Y-178214285D01*
X114466723Y-178214285D02*
X114276247Y-178261904D01*
X114276247Y-178261904D02*
X114133390Y-178261904D01*
X114133390Y-178261904D02*
X113942914Y-178214285D01*
X113942914Y-178214285D02*
X113847676Y-178166666D01*
X113847676Y-178166666D02*
X113752438Y-178071428D01*
X113752438Y-178071428D02*
X113704819Y-177928571D01*
X113704819Y-177928571D02*
X113704819Y-177833333D01*
X113704819Y-177833333D02*
X113752438Y-177690476D01*
X113752438Y-177690476D02*
X113800057Y-177642857D01*
X113704819Y-177309523D02*
X113704819Y-176690476D01*
X113704819Y-176690476D02*
X114085771Y-177023809D01*
X114085771Y-177023809D02*
X114085771Y-176880952D01*
X114085771Y-176880952D02*
X114133390Y-176785714D01*
X114133390Y-176785714D02*
X114181009Y-176738095D01*
X114181009Y-176738095D02*
X114276247Y-176690476D01*
X114276247Y-176690476D02*
X114514342Y-176690476D01*
X114514342Y-176690476D02*
X114609580Y-176738095D01*
X114609580Y-176738095D02*
X114657200Y-176785714D01*
X114657200Y-176785714D02*
X114704819Y-176880952D01*
X114704819Y-176880952D02*
X114704819Y-177166666D01*
X114704819Y-177166666D02*
X114657200Y-177261904D01*
X114657200Y-177261904D02*
X114609580Y-177309523D01*
X113704819Y-176071428D02*
X113704819Y-175976190D01*
X113704819Y-175976190D02*
X113752438Y-175880952D01*
X113752438Y-175880952D02*
X113800057Y-175833333D01*
X113800057Y-175833333D02*
X113895295Y-175785714D01*
X113895295Y-175785714D02*
X114085771Y-175738095D01*
X114085771Y-175738095D02*
X114323866Y-175738095D01*
X114323866Y-175738095D02*
X114514342Y-175785714D01*
X114514342Y-175785714D02*
X114609580Y-175833333D01*
X114609580Y-175833333D02*
X114657200Y-175880952D01*
X114657200Y-175880952D02*
X114704819Y-175976190D01*
X114704819Y-175976190D02*
X114704819Y-176071428D01*
X114704819Y-176071428D02*
X114657200Y-176166666D01*
X114657200Y-176166666D02*
X114609580Y-176214285D01*
X114609580Y-176214285D02*
X114514342Y-176261904D01*
X114514342Y-176261904D02*
X114323866Y-176309523D01*
X114323866Y-176309523D02*
X114085771Y-176309523D01*
X114085771Y-176309523D02*
X113895295Y-176261904D01*
X113895295Y-176261904D02*
X113800057Y-176214285D01*
X113800057Y-176214285D02*
X113752438Y-176166666D01*
X113752438Y-176166666D02*
X113704819Y-176071428D01*
X88704819Y-197995144D02*
X89514342Y-197995144D01*
X89514342Y-197995144D02*
X89609580Y-197947525D01*
X89609580Y-197947525D02*
X89657200Y-197899906D01*
X89657200Y-197899906D02*
X89704819Y-197804668D01*
X89704819Y-197804668D02*
X89704819Y-197614192D01*
X89704819Y-197614192D02*
X89657200Y-197518954D01*
X89657200Y-197518954D02*
X89609580Y-197471335D01*
X89609580Y-197471335D02*
X89514342Y-197423716D01*
X89514342Y-197423716D02*
X88704819Y-197423716D01*
X88704819Y-196471335D02*
X88704819Y-196947525D01*
X88704819Y-196947525D02*
X89181009Y-196995144D01*
X89181009Y-196995144D02*
X89133390Y-196947525D01*
X89133390Y-196947525D02*
X89085771Y-196852287D01*
X89085771Y-196852287D02*
X89085771Y-196614192D01*
X89085771Y-196614192D02*
X89133390Y-196518954D01*
X89133390Y-196518954D02*
X89181009Y-196471335D01*
X89181009Y-196471335D02*
X89276247Y-196423716D01*
X89276247Y-196423716D02*
X89514342Y-196423716D01*
X89514342Y-196423716D02*
X89609580Y-196471335D01*
X89609580Y-196471335D02*
X89657200Y-196518954D01*
X89657200Y-196518954D02*
X89704819Y-196614192D01*
X89704819Y-196614192D02*
X89704819Y-196852287D01*
X89704819Y-196852287D02*
X89657200Y-196947525D01*
X89657200Y-196947525D02*
X89609580Y-196995144D01*
X107842080Y-211642857D02*
X107889700Y-211690476D01*
X107889700Y-211690476D02*
X107937319Y-211833333D01*
X107937319Y-211833333D02*
X107937319Y-211928571D01*
X107937319Y-211928571D02*
X107889700Y-212071428D01*
X107889700Y-212071428D02*
X107794461Y-212166666D01*
X107794461Y-212166666D02*
X107699223Y-212214285D01*
X107699223Y-212214285D02*
X107508747Y-212261904D01*
X107508747Y-212261904D02*
X107365890Y-212261904D01*
X107365890Y-212261904D02*
X107175414Y-212214285D01*
X107175414Y-212214285D02*
X107080176Y-212166666D01*
X107080176Y-212166666D02*
X106984938Y-212071428D01*
X106984938Y-212071428D02*
X106937319Y-211928571D01*
X106937319Y-211928571D02*
X106937319Y-211833333D01*
X106937319Y-211833333D02*
X106984938Y-211690476D01*
X106984938Y-211690476D02*
X107032557Y-211642857D01*
X107032557Y-211261904D02*
X106984938Y-211214285D01*
X106984938Y-211214285D02*
X106937319Y-211119047D01*
X106937319Y-211119047D02*
X106937319Y-210880952D01*
X106937319Y-210880952D02*
X106984938Y-210785714D01*
X106984938Y-210785714D02*
X107032557Y-210738095D01*
X107032557Y-210738095D02*
X107127795Y-210690476D01*
X107127795Y-210690476D02*
X107223033Y-210690476D01*
X107223033Y-210690476D02*
X107365890Y-210738095D01*
X107365890Y-210738095D02*
X107937319Y-211309523D01*
X107937319Y-211309523D02*
X107937319Y-210690476D01*
X107937319Y-209738095D02*
X107937319Y-210309523D01*
X107937319Y-210023809D02*
X106937319Y-210023809D01*
X106937319Y-210023809D02*
X107080176Y-210119047D01*
X107080176Y-210119047D02*
X107175414Y-210214285D01*
X107175414Y-210214285D02*
X107223033Y-210309523D01*
X139204819Y-228535713D02*
X139204819Y-227964285D01*
X140204819Y-228249999D02*
X139204819Y-228249999D01*
X140204819Y-227630951D02*
X139204819Y-227630951D01*
X139681009Y-227630951D02*
X139681009Y-227059523D01*
X140204819Y-227059523D02*
X139204819Y-227059523D01*
X140204819Y-226059523D02*
X140204819Y-226630951D01*
X140204819Y-226345237D02*
X139204819Y-226345237D01*
X139204819Y-226345237D02*
X139347676Y-226440475D01*
X139347676Y-226440475D02*
X139442914Y-226535713D01*
X139442914Y-226535713D02*
X139490533Y-226630951D01*
X151609580Y-72842857D02*
X151657200Y-72890476D01*
X151657200Y-72890476D02*
X151704819Y-73033333D01*
X151704819Y-73033333D02*
X151704819Y-73128571D01*
X151704819Y-73128571D02*
X151657200Y-73271428D01*
X151657200Y-73271428D02*
X151561961Y-73366666D01*
X151561961Y-73366666D02*
X151466723Y-73414285D01*
X151466723Y-73414285D02*
X151276247Y-73461904D01*
X151276247Y-73461904D02*
X151133390Y-73461904D01*
X151133390Y-73461904D02*
X150942914Y-73414285D01*
X150942914Y-73414285D02*
X150847676Y-73366666D01*
X150847676Y-73366666D02*
X150752438Y-73271428D01*
X150752438Y-73271428D02*
X150704819Y-73128571D01*
X150704819Y-73128571D02*
X150704819Y-73033333D01*
X150704819Y-73033333D02*
X150752438Y-72890476D01*
X150752438Y-72890476D02*
X150800057Y-72842857D01*
X151704819Y-71890476D02*
X151704819Y-72461904D01*
X151704819Y-72176190D02*
X150704819Y-72176190D01*
X150704819Y-72176190D02*
X150847676Y-72271428D01*
X150847676Y-72271428D02*
X150942914Y-72366666D01*
X150942914Y-72366666D02*
X150990533Y-72461904D01*
X151704819Y-71414285D02*
X151704819Y-71223809D01*
X151704819Y-71223809D02*
X151657200Y-71128571D01*
X151657200Y-71128571D02*
X151609580Y-71080952D01*
X151609580Y-71080952D02*
X151466723Y-70985714D01*
X151466723Y-70985714D02*
X151276247Y-70938095D01*
X151276247Y-70938095D02*
X150895295Y-70938095D01*
X150895295Y-70938095D02*
X150800057Y-70985714D01*
X150800057Y-70985714D02*
X150752438Y-71033333D01*
X150752438Y-71033333D02*
X150704819Y-71128571D01*
X150704819Y-71128571D02*
X150704819Y-71319047D01*
X150704819Y-71319047D02*
X150752438Y-71414285D01*
X150752438Y-71414285D02*
X150800057Y-71461904D01*
X150800057Y-71461904D02*
X150895295Y-71509523D01*
X150895295Y-71509523D02*
X151133390Y-71509523D01*
X151133390Y-71509523D02*
X151228628Y-71461904D01*
X151228628Y-71461904D02*
X151276247Y-71414285D01*
X151276247Y-71414285D02*
X151323866Y-71319047D01*
X151323866Y-71319047D02*
X151323866Y-71128571D01*
X151323866Y-71128571D02*
X151276247Y-71033333D01*
X151276247Y-71033333D02*
X151228628Y-70985714D01*
X151228628Y-70985714D02*
X151133390Y-70938095D01*
X92429819Y-226283333D02*
X93144104Y-226283333D01*
X93144104Y-226283333D02*
X93286961Y-226330952D01*
X93286961Y-226330952D02*
X93382200Y-226426190D01*
X93382200Y-226426190D02*
X93429819Y-226569047D01*
X93429819Y-226569047D02*
X93429819Y-226664285D01*
X93429819Y-225283333D02*
X93429819Y-225854761D01*
X93429819Y-225569047D02*
X92429819Y-225569047D01*
X92429819Y-225569047D02*
X92572676Y-225664285D01*
X92572676Y-225664285D02*
X92667914Y-225759523D01*
X92667914Y-225759523D02*
X92715533Y-225854761D01*
X107738095Y-219454819D02*
X107738095Y-220264342D01*
X107738095Y-220264342D02*
X107785714Y-220359580D01*
X107785714Y-220359580D02*
X107833333Y-220407200D01*
X107833333Y-220407200D02*
X107928571Y-220454819D01*
X107928571Y-220454819D02*
X108119047Y-220454819D01*
X108119047Y-220454819D02*
X108214285Y-220407200D01*
X108214285Y-220407200D02*
X108261904Y-220359580D01*
X108261904Y-220359580D02*
X108309523Y-220264342D01*
X108309523Y-220264342D02*
X108309523Y-219454819D01*
X109214285Y-219788152D02*
X109214285Y-220454819D01*
X108976190Y-219407200D02*
X108738095Y-220121485D01*
X108738095Y-220121485D02*
X109357142Y-220121485D01*
X152607142Y-91604819D02*
X152273809Y-91128628D01*
X152035714Y-91604819D02*
X152035714Y-90604819D01*
X152035714Y-90604819D02*
X152416666Y-90604819D01*
X152416666Y-90604819D02*
X152511904Y-90652438D01*
X152511904Y-90652438D02*
X152559523Y-90700057D01*
X152559523Y-90700057D02*
X152607142Y-90795295D01*
X152607142Y-90795295D02*
X152607142Y-90938152D01*
X152607142Y-90938152D02*
X152559523Y-91033390D01*
X152559523Y-91033390D02*
X152511904Y-91081009D01*
X152511904Y-91081009D02*
X152416666Y-91128628D01*
X152416666Y-91128628D02*
X152035714Y-91128628D01*
X153559523Y-91604819D02*
X152988095Y-91604819D01*
X153273809Y-91604819D02*
X153273809Y-90604819D01*
X153273809Y-90604819D02*
X153178571Y-90747676D01*
X153178571Y-90747676D02*
X153083333Y-90842914D01*
X153083333Y-90842914D02*
X152988095Y-90890533D01*
X154464285Y-90604819D02*
X153988095Y-90604819D01*
X153988095Y-90604819D02*
X153940476Y-91081009D01*
X153940476Y-91081009D02*
X153988095Y-91033390D01*
X153988095Y-91033390D02*
X154083333Y-90985771D01*
X154083333Y-90985771D02*
X154321428Y-90985771D01*
X154321428Y-90985771D02*
X154416666Y-91033390D01*
X154416666Y-91033390D02*
X154464285Y-91081009D01*
X154464285Y-91081009D02*
X154511904Y-91176247D01*
X154511904Y-91176247D02*
X154511904Y-91414342D01*
X154511904Y-91414342D02*
X154464285Y-91509580D01*
X154464285Y-91509580D02*
X154416666Y-91557200D01*
X154416666Y-91557200D02*
X154321428Y-91604819D01*
X154321428Y-91604819D02*
X154083333Y-91604819D01*
X154083333Y-91604819D02*
X153988095Y-91557200D01*
X153988095Y-91557200D02*
X153940476Y-91509580D01*
X98357142Y-54804819D02*
X98023809Y-54328628D01*
X97785714Y-54804819D02*
X97785714Y-53804819D01*
X97785714Y-53804819D02*
X98166666Y-53804819D01*
X98166666Y-53804819D02*
X98261904Y-53852438D01*
X98261904Y-53852438D02*
X98309523Y-53900057D01*
X98309523Y-53900057D02*
X98357142Y-53995295D01*
X98357142Y-53995295D02*
X98357142Y-54138152D01*
X98357142Y-54138152D02*
X98309523Y-54233390D01*
X98309523Y-54233390D02*
X98261904Y-54281009D01*
X98261904Y-54281009D02*
X98166666Y-54328628D01*
X98166666Y-54328628D02*
X97785714Y-54328628D01*
X99309523Y-54804819D02*
X98738095Y-54804819D01*
X99023809Y-54804819D02*
X99023809Y-53804819D01*
X99023809Y-53804819D02*
X98928571Y-53947676D01*
X98928571Y-53947676D02*
X98833333Y-54042914D01*
X98833333Y-54042914D02*
X98738095Y-54090533D01*
X99642857Y-53804819D02*
X100261904Y-53804819D01*
X100261904Y-53804819D02*
X99928571Y-54185771D01*
X99928571Y-54185771D02*
X100071428Y-54185771D01*
X100071428Y-54185771D02*
X100166666Y-54233390D01*
X100166666Y-54233390D02*
X100214285Y-54281009D01*
X100214285Y-54281009D02*
X100261904Y-54376247D01*
X100261904Y-54376247D02*
X100261904Y-54614342D01*
X100261904Y-54614342D02*
X100214285Y-54709580D01*
X100214285Y-54709580D02*
X100166666Y-54757200D01*
X100166666Y-54757200D02*
X100071428Y-54804819D01*
X100071428Y-54804819D02*
X99785714Y-54804819D01*
X99785714Y-54804819D02*
X99690476Y-54757200D01*
X99690476Y-54757200D02*
X99642857Y-54709580D01*
X96704819Y-236988094D02*
X95704819Y-236988094D01*
X95704819Y-236988094D02*
X95704819Y-236749999D01*
X95704819Y-236749999D02*
X95752438Y-236607142D01*
X95752438Y-236607142D02*
X95847676Y-236511904D01*
X95847676Y-236511904D02*
X95942914Y-236464285D01*
X95942914Y-236464285D02*
X96133390Y-236416666D01*
X96133390Y-236416666D02*
X96276247Y-236416666D01*
X96276247Y-236416666D02*
X96466723Y-236464285D01*
X96466723Y-236464285D02*
X96561961Y-236511904D01*
X96561961Y-236511904D02*
X96657200Y-236607142D01*
X96657200Y-236607142D02*
X96704819Y-236749999D01*
X96704819Y-236749999D02*
X96704819Y-236988094D01*
X95704819Y-235511904D02*
X95704819Y-235988094D01*
X95704819Y-235988094D02*
X96181009Y-236035713D01*
X96181009Y-236035713D02*
X96133390Y-235988094D01*
X96133390Y-235988094D02*
X96085771Y-235892856D01*
X96085771Y-235892856D02*
X96085771Y-235654761D01*
X96085771Y-235654761D02*
X96133390Y-235559523D01*
X96133390Y-235559523D02*
X96181009Y-235511904D01*
X96181009Y-235511904D02*
X96276247Y-235464285D01*
X96276247Y-235464285D02*
X96514342Y-235464285D01*
X96514342Y-235464285D02*
X96609580Y-235511904D01*
X96609580Y-235511904D02*
X96657200Y-235559523D01*
X96657200Y-235559523D02*
X96704819Y-235654761D01*
X96704819Y-235654761D02*
X96704819Y-235892856D01*
X96704819Y-235892856D02*
X96657200Y-235988094D01*
X96657200Y-235988094D02*
X96609580Y-236035713D01*
X90109580Y-69666666D02*
X90157200Y-69714285D01*
X90157200Y-69714285D02*
X90204819Y-69857142D01*
X90204819Y-69857142D02*
X90204819Y-69952380D01*
X90204819Y-69952380D02*
X90157200Y-70095237D01*
X90157200Y-70095237D02*
X90061961Y-70190475D01*
X90061961Y-70190475D02*
X89966723Y-70238094D01*
X89966723Y-70238094D02*
X89776247Y-70285713D01*
X89776247Y-70285713D02*
X89633390Y-70285713D01*
X89633390Y-70285713D02*
X89442914Y-70238094D01*
X89442914Y-70238094D02*
X89347676Y-70190475D01*
X89347676Y-70190475D02*
X89252438Y-70095237D01*
X89252438Y-70095237D02*
X89204819Y-69952380D01*
X89204819Y-69952380D02*
X89204819Y-69857142D01*
X89204819Y-69857142D02*
X89252438Y-69714285D01*
X89252438Y-69714285D02*
X89300057Y-69666666D01*
X89300057Y-69285713D02*
X89252438Y-69238094D01*
X89252438Y-69238094D02*
X89204819Y-69142856D01*
X89204819Y-69142856D02*
X89204819Y-68904761D01*
X89204819Y-68904761D02*
X89252438Y-68809523D01*
X89252438Y-68809523D02*
X89300057Y-68761904D01*
X89300057Y-68761904D02*
X89395295Y-68714285D01*
X89395295Y-68714285D02*
X89490533Y-68714285D01*
X89490533Y-68714285D02*
X89633390Y-68761904D01*
X89633390Y-68761904D02*
X90204819Y-69333332D01*
X90204819Y-69333332D02*
X90204819Y-68714285D01*
X94857142Y-154834819D02*
X94523809Y-154358628D01*
X94285714Y-154834819D02*
X94285714Y-153834819D01*
X94285714Y-153834819D02*
X94666666Y-153834819D01*
X94666666Y-153834819D02*
X94761904Y-153882438D01*
X94761904Y-153882438D02*
X94809523Y-153930057D01*
X94809523Y-153930057D02*
X94857142Y-154025295D01*
X94857142Y-154025295D02*
X94857142Y-154168152D01*
X94857142Y-154168152D02*
X94809523Y-154263390D01*
X94809523Y-154263390D02*
X94761904Y-154311009D01*
X94761904Y-154311009D02*
X94666666Y-154358628D01*
X94666666Y-154358628D02*
X94285714Y-154358628D01*
X95238095Y-153930057D02*
X95285714Y-153882438D01*
X95285714Y-153882438D02*
X95380952Y-153834819D01*
X95380952Y-153834819D02*
X95619047Y-153834819D01*
X95619047Y-153834819D02*
X95714285Y-153882438D01*
X95714285Y-153882438D02*
X95761904Y-153930057D01*
X95761904Y-153930057D02*
X95809523Y-154025295D01*
X95809523Y-154025295D02*
X95809523Y-154120533D01*
X95809523Y-154120533D02*
X95761904Y-154263390D01*
X95761904Y-154263390D02*
X95190476Y-154834819D01*
X95190476Y-154834819D02*
X95809523Y-154834819D01*
X96285714Y-154834819D02*
X96476190Y-154834819D01*
X96476190Y-154834819D02*
X96571428Y-154787200D01*
X96571428Y-154787200D02*
X96619047Y-154739580D01*
X96619047Y-154739580D02*
X96714285Y-154596723D01*
X96714285Y-154596723D02*
X96761904Y-154406247D01*
X96761904Y-154406247D02*
X96761904Y-154025295D01*
X96761904Y-154025295D02*
X96714285Y-153930057D01*
X96714285Y-153930057D02*
X96666666Y-153882438D01*
X96666666Y-153882438D02*
X96571428Y-153834819D01*
X96571428Y-153834819D02*
X96380952Y-153834819D01*
X96380952Y-153834819D02*
X96285714Y-153882438D01*
X96285714Y-153882438D02*
X96238095Y-153930057D01*
X96238095Y-153930057D02*
X96190476Y-154025295D01*
X96190476Y-154025295D02*
X96190476Y-154263390D01*
X96190476Y-154263390D02*
X96238095Y-154358628D01*
X96238095Y-154358628D02*
X96285714Y-154406247D01*
X96285714Y-154406247D02*
X96380952Y-154453866D01*
X96380952Y-154453866D02*
X96571428Y-154453866D01*
X96571428Y-154453866D02*
X96666666Y-154406247D01*
X96666666Y-154406247D02*
X96714285Y-154358628D01*
X96714285Y-154358628D02*
X96761904Y-154263390D01*
X127704819Y-215892857D02*
X127228628Y-216226190D01*
X127704819Y-216464285D02*
X126704819Y-216464285D01*
X126704819Y-216464285D02*
X126704819Y-216083333D01*
X126704819Y-216083333D02*
X126752438Y-215988095D01*
X126752438Y-215988095D02*
X126800057Y-215940476D01*
X126800057Y-215940476D02*
X126895295Y-215892857D01*
X126895295Y-215892857D02*
X127038152Y-215892857D01*
X127038152Y-215892857D02*
X127133390Y-215940476D01*
X127133390Y-215940476D02*
X127181009Y-215988095D01*
X127181009Y-215988095D02*
X127228628Y-216083333D01*
X127228628Y-216083333D02*
X127228628Y-216464285D01*
X127704819Y-214940476D02*
X127704819Y-215511904D01*
X127704819Y-215226190D02*
X126704819Y-215226190D01*
X126704819Y-215226190D02*
X126847676Y-215321428D01*
X126847676Y-215321428D02*
X126942914Y-215416666D01*
X126942914Y-215416666D02*
X126990533Y-215511904D01*
X126704819Y-214607142D02*
X126704819Y-213940476D01*
X126704819Y-213940476D02*
X127704819Y-214369047D01*
X94857142Y-125334819D02*
X94523809Y-124858628D01*
X94285714Y-125334819D02*
X94285714Y-124334819D01*
X94285714Y-124334819D02*
X94666666Y-124334819D01*
X94666666Y-124334819D02*
X94761904Y-124382438D01*
X94761904Y-124382438D02*
X94809523Y-124430057D01*
X94809523Y-124430057D02*
X94857142Y-124525295D01*
X94857142Y-124525295D02*
X94857142Y-124668152D01*
X94857142Y-124668152D02*
X94809523Y-124763390D01*
X94809523Y-124763390D02*
X94761904Y-124811009D01*
X94761904Y-124811009D02*
X94666666Y-124858628D01*
X94666666Y-124858628D02*
X94285714Y-124858628D01*
X95238095Y-124430057D02*
X95285714Y-124382438D01*
X95285714Y-124382438D02*
X95380952Y-124334819D01*
X95380952Y-124334819D02*
X95619047Y-124334819D01*
X95619047Y-124334819D02*
X95714285Y-124382438D01*
X95714285Y-124382438D02*
X95761904Y-124430057D01*
X95761904Y-124430057D02*
X95809523Y-124525295D01*
X95809523Y-124525295D02*
X95809523Y-124620533D01*
X95809523Y-124620533D02*
X95761904Y-124763390D01*
X95761904Y-124763390D02*
X95190476Y-125334819D01*
X95190476Y-125334819D02*
X95809523Y-125334819D01*
X96142857Y-124334819D02*
X96761904Y-124334819D01*
X96761904Y-124334819D02*
X96428571Y-124715771D01*
X96428571Y-124715771D02*
X96571428Y-124715771D01*
X96571428Y-124715771D02*
X96666666Y-124763390D01*
X96666666Y-124763390D02*
X96714285Y-124811009D01*
X96714285Y-124811009D02*
X96761904Y-124906247D01*
X96761904Y-124906247D02*
X96761904Y-125144342D01*
X96761904Y-125144342D02*
X96714285Y-125239580D01*
X96714285Y-125239580D02*
X96666666Y-125287200D01*
X96666666Y-125287200D02*
X96571428Y-125334819D01*
X96571428Y-125334819D02*
X96285714Y-125334819D01*
X96285714Y-125334819D02*
X96190476Y-125287200D01*
X96190476Y-125287200D02*
X96142857Y-125239580D01*
X158857142Y-29109580D02*
X158809523Y-29157200D01*
X158809523Y-29157200D02*
X158666666Y-29204819D01*
X158666666Y-29204819D02*
X158571428Y-29204819D01*
X158571428Y-29204819D02*
X158428571Y-29157200D01*
X158428571Y-29157200D02*
X158333333Y-29061961D01*
X158333333Y-29061961D02*
X158285714Y-28966723D01*
X158285714Y-28966723D02*
X158238095Y-28776247D01*
X158238095Y-28776247D02*
X158238095Y-28633390D01*
X158238095Y-28633390D02*
X158285714Y-28442914D01*
X158285714Y-28442914D02*
X158333333Y-28347676D01*
X158333333Y-28347676D02*
X158428571Y-28252438D01*
X158428571Y-28252438D02*
X158571428Y-28204819D01*
X158571428Y-28204819D02*
X158666666Y-28204819D01*
X158666666Y-28204819D02*
X158809523Y-28252438D01*
X158809523Y-28252438D02*
X158857142Y-28300057D01*
X159238095Y-28300057D02*
X159285714Y-28252438D01*
X159285714Y-28252438D02*
X159380952Y-28204819D01*
X159380952Y-28204819D02*
X159619047Y-28204819D01*
X159619047Y-28204819D02*
X159714285Y-28252438D01*
X159714285Y-28252438D02*
X159761904Y-28300057D01*
X159761904Y-28300057D02*
X159809523Y-28395295D01*
X159809523Y-28395295D02*
X159809523Y-28490533D01*
X159809523Y-28490533D02*
X159761904Y-28633390D01*
X159761904Y-28633390D02*
X159190476Y-29204819D01*
X159190476Y-29204819D02*
X159809523Y-29204819D01*
X160666666Y-28538152D02*
X160666666Y-29204819D01*
X160428571Y-28157200D02*
X160190476Y-28871485D01*
X160190476Y-28871485D02*
X160809523Y-28871485D01*
X92204819Y-236988094D02*
X91204819Y-236988094D01*
X91204819Y-236988094D02*
X91204819Y-236749999D01*
X91204819Y-236749999D02*
X91252438Y-236607142D01*
X91252438Y-236607142D02*
X91347676Y-236511904D01*
X91347676Y-236511904D02*
X91442914Y-236464285D01*
X91442914Y-236464285D02*
X91633390Y-236416666D01*
X91633390Y-236416666D02*
X91776247Y-236416666D01*
X91776247Y-236416666D02*
X91966723Y-236464285D01*
X91966723Y-236464285D02*
X92061961Y-236511904D01*
X92061961Y-236511904D02*
X92157200Y-236607142D01*
X92157200Y-236607142D02*
X92204819Y-236749999D01*
X92204819Y-236749999D02*
X92204819Y-236988094D01*
X91300057Y-236035713D02*
X91252438Y-235988094D01*
X91252438Y-235988094D02*
X91204819Y-235892856D01*
X91204819Y-235892856D02*
X91204819Y-235654761D01*
X91204819Y-235654761D02*
X91252438Y-235559523D01*
X91252438Y-235559523D02*
X91300057Y-235511904D01*
X91300057Y-235511904D02*
X91395295Y-235464285D01*
X91395295Y-235464285D02*
X91490533Y-235464285D01*
X91490533Y-235464285D02*
X91633390Y-235511904D01*
X91633390Y-235511904D02*
X92204819Y-236083332D01*
X92204819Y-236083332D02*
X92204819Y-235464285D01*
X116204819Y-215884543D02*
X115728628Y-216217876D01*
X116204819Y-216455971D02*
X115204819Y-216455971D01*
X115204819Y-216455971D02*
X115204819Y-216075019D01*
X115204819Y-216075019D02*
X115252438Y-215979781D01*
X115252438Y-215979781D02*
X115300057Y-215932162D01*
X115300057Y-215932162D02*
X115395295Y-215884543D01*
X115395295Y-215884543D02*
X115538152Y-215884543D01*
X115538152Y-215884543D02*
X115633390Y-215932162D01*
X115633390Y-215932162D02*
X115681009Y-215979781D01*
X115681009Y-215979781D02*
X115728628Y-216075019D01*
X115728628Y-216075019D02*
X115728628Y-216455971D01*
X116204819Y-214932162D02*
X116204819Y-215503590D01*
X116204819Y-215217876D02*
X115204819Y-215217876D01*
X115204819Y-215217876D02*
X115347676Y-215313114D01*
X115347676Y-215313114D02*
X115442914Y-215408352D01*
X115442914Y-215408352D02*
X115490533Y-215503590D01*
X115204819Y-214075019D02*
X115204819Y-214265495D01*
X115204819Y-214265495D02*
X115252438Y-214360733D01*
X115252438Y-214360733D02*
X115300057Y-214408352D01*
X115300057Y-214408352D02*
X115442914Y-214503590D01*
X115442914Y-214503590D02*
X115633390Y-214551209D01*
X115633390Y-214551209D02*
X116014342Y-214551209D01*
X116014342Y-214551209D02*
X116109580Y-214503590D01*
X116109580Y-214503590D02*
X116157200Y-214455971D01*
X116157200Y-214455971D02*
X116204819Y-214360733D01*
X116204819Y-214360733D02*
X116204819Y-214170257D01*
X116204819Y-214170257D02*
X116157200Y-214075019D01*
X116157200Y-214075019D02*
X116109580Y-214027400D01*
X116109580Y-214027400D02*
X116014342Y-213979781D01*
X116014342Y-213979781D02*
X115776247Y-213979781D01*
X115776247Y-213979781D02*
X115681009Y-214027400D01*
X115681009Y-214027400D02*
X115633390Y-214075019D01*
X115633390Y-214075019D02*
X115585771Y-214170257D01*
X115585771Y-214170257D02*
X115585771Y-214360733D01*
X115585771Y-214360733D02*
X115633390Y-214455971D01*
X115633390Y-214455971D02*
X115681009Y-214503590D01*
X115681009Y-214503590D02*
X115776247Y-214551209D01*
X158857142Y-31359580D02*
X158809523Y-31407200D01*
X158809523Y-31407200D02*
X158666666Y-31454819D01*
X158666666Y-31454819D02*
X158571428Y-31454819D01*
X158571428Y-31454819D02*
X158428571Y-31407200D01*
X158428571Y-31407200D02*
X158333333Y-31311961D01*
X158333333Y-31311961D02*
X158285714Y-31216723D01*
X158285714Y-31216723D02*
X158238095Y-31026247D01*
X158238095Y-31026247D02*
X158238095Y-30883390D01*
X158238095Y-30883390D02*
X158285714Y-30692914D01*
X158285714Y-30692914D02*
X158333333Y-30597676D01*
X158333333Y-30597676D02*
X158428571Y-30502438D01*
X158428571Y-30502438D02*
X158571428Y-30454819D01*
X158571428Y-30454819D02*
X158666666Y-30454819D01*
X158666666Y-30454819D02*
X158809523Y-30502438D01*
X158809523Y-30502438D02*
X158857142Y-30550057D01*
X159238095Y-30550057D02*
X159285714Y-30502438D01*
X159285714Y-30502438D02*
X159380952Y-30454819D01*
X159380952Y-30454819D02*
X159619047Y-30454819D01*
X159619047Y-30454819D02*
X159714285Y-30502438D01*
X159714285Y-30502438D02*
X159761904Y-30550057D01*
X159761904Y-30550057D02*
X159809523Y-30645295D01*
X159809523Y-30645295D02*
X159809523Y-30740533D01*
X159809523Y-30740533D02*
X159761904Y-30883390D01*
X159761904Y-30883390D02*
X159190476Y-31454819D01*
X159190476Y-31454819D02*
X159809523Y-31454819D01*
X160142857Y-30454819D02*
X160761904Y-30454819D01*
X160761904Y-30454819D02*
X160428571Y-30835771D01*
X160428571Y-30835771D02*
X160571428Y-30835771D01*
X160571428Y-30835771D02*
X160666666Y-30883390D01*
X160666666Y-30883390D02*
X160714285Y-30931009D01*
X160714285Y-30931009D02*
X160761904Y-31026247D01*
X160761904Y-31026247D02*
X160761904Y-31264342D01*
X160761904Y-31264342D02*
X160714285Y-31359580D01*
X160714285Y-31359580D02*
X160666666Y-31407200D01*
X160666666Y-31407200D02*
X160571428Y-31454819D01*
X160571428Y-31454819D02*
X160285714Y-31454819D01*
X160285714Y-31454819D02*
X160190476Y-31407200D01*
X160190476Y-31407200D02*
X160142857Y-31359580D01*
X111357142Y-208704819D02*
X111023809Y-208228628D01*
X110785714Y-208704819D02*
X110785714Y-207704819D01*
X110785714Y-207704819D02*
X111166666Y-207704819D01*
X111166666Y-207704819D02*
X111261904Y-207752438D01*
X111261904Y-207752438D02*
X111309523Y-207800057D01*
X111309523Y-207800057D02*
X111357142Y-207895295D01*
X111357142Y-207895295D02*
X111357142Y-208038152D01*
X111357142Y-208038152D02*
X111309523Y-208133390D01*
X111309523Y-208133390D02*
X111261904Y-208181009D01*
X111261904Y-208181009D02*
X111166666Y-208228628D01*
X111166666Y-208228628D02*
X110785714Y-208228628D01*
X112309523Y-208704819D02*
X111738095Y-208704819D01*
X112023809Y-208704819D02*
X112023809Y-207704819D01*
X112023809Y-207704819D02*
X111928571Y-207847676D01*
X111928571Y-207847676D02*
X111833333Y-207942914D01*
X111833333Y-207942914D02*
X111738095Y-207990533D01*
X112785714Y-208704819D02*
X112976190Y-208704819D01*
X112976190Y-208704819D02*
X113071428Y-208657200D01*
X113071428Y-208657200D02*
X113119047Y-208609580D01*
X113119047Y-208609580D02*
X113214285Y-208466723D01*
X113214285Y-208466723D02*
X113261904Y-208276247D01*
X113261904Y-208276247D02*
X113261904Y-207895295D01*
X113261904Y-207895295D02*
X113214285Y-207800057D01*
X113214285Y-207800057D02*
X113166666Y-207752438D01*
X113166666Y-207752438D02*
X113071428Y-207704819D01*
X113071428Y-207704819D02*
X112880952Y-207704819D01*
X112880952Y-207704819D02*
X112785714Y-207752438D01*
X112785714Y-207752438D02*
X112738095Y-207800057D01*
X112738095Y-207800057D02*
X112690476Y-207895295D01*
X112690476Y-207895295D02*
X112690476Y-208133390D01*
X112690476Y-208133390D02*
X112738095Y-208228628D01*
X112738095Y-208228628D02*
X112785714Y-208276247D01*
X112785714Y-208276247D02*
X112880952Y-208323866D01*
X112880952Y-208323866D02*
X113071428Y-208323866D01*
X113071428Y-208323866D02*
X113166666Y-208276247D01*
X113166666Y-208276247D02*
X113214285Y-208228628D01*
X113214285Y-208228628D02*
X113261904Y-208133390D01*
X158261905Y-25204819D02*
X158261905Y-26014342D01*
X158261905Y-26014342D02*
X158309524Y-26109580D01*
X158309524Y-26109580D02*
X158357143Y-26157200D01*
X158357143Y-26157200D02*
X158452381Y-26204819D01*
X158452381Y-26204819D02*
X158642857Y-26204819D01*
X158642857Y-26204819D02*
X158738095Y-26157200D01*
X158738095Y-26157200D02*
X158785714Y-26109580D01*
X158785714Y-26109580D02*
X158833333Y-26014342D01*
X158833333Y-26014342D02*
X158833333Y-25204819D01*
X159833333Y-26204819D02*
X159261905Y-26204819D01*
X159547619Y-26204819D02*
X159547619Y-25204819D01*
X159547619Y-25204819D02*
X159452381Y-25347676D01*
X159452381Y-25347676D02*
X159357143Y-25442914D01*
X159357143Y-25442914D02*
X159261905Y-25490533D01*
X160452381Y-25204819D02*
X160547619Y-25204819D01*
X160547619Y-25204819D02*
X160642857Y-25252438D01*
X160642857Y-25252438D02*
X160690476Y-25300057D01*
X160690476Y-25300057D02*
X160738095Y-25395295D01*
X160738095Y-25395295D02*
X160785714Y-25585771D01*
X160785714Y-25585771D02*
X160785714Y-25823866D01*
X160785714Y-25823866D02*
X160738095Y-26014342D01*
X160738095Y-26014342D02*
X160690476Y-26109580D01*
X160690476Y-26109580D02*
X160642857Y-26157200D01*
X160642857Y-26157200D02*
X160547619Y-26204819D01*
X160547619Y-26204819D02*
X160452381Y-26204819D01*
X160452381Y-26204819D02*
X160357143Y-26157200D01*
X160357143Y-26157200D02*
X160309524Y-26109580D01*
X160309524Y-26109580D02*
X160261905Y-26014342D01*
X160261905Y-26014342D02*
X160214286Y-25823866D01*
X160214286Y-25823866D02*
X160214286Y-25585771D01*
X160214286Y-25585771D02*
X160261905Y-25395295D01*
X160261905Y-25395295D02*
X160309524Y-25300057D01*
X160309524Y-25300057D02*
X160357143Y-25252438D01*
X160357143Y-25252438D02*
X160452381Y-25204819D01*
X103583333Y-162304819D02*
X103250000Y-161828628D01*
X103011905Y-162304819D02*
X103011905Y-161304819D01*
X103011905Y-161304819D02*
X103392857Y-161304819D01*
X103392857Y-161304819D02*
X103488095Y-161352438D01*
X103488095Y-161352438D02*
X103535714Y-161400057D01*
X103535714Y-161400057D02*
X103583333Y-161495295D01*
X103583333Y-161495295D02*
X103583333Y-161638152D01*
X103583333Y-161638152D02*
X103535714Y-161733390D01*
X103535714Y-161733390D02*
X103488095Y-161781009D01*
X103488095Y-161781009D02*
X103392857Y-161828628D01*
X103392857Y-161828628D02*
X103011905Y-161828628D01*
X103916667Y-161304819D02*
X104535714Y-161304819D01*
X104535714Y-161304819D02*
X104202381Y-161685771D01*
X104202381Y-161685771D02*
X104345238Y-161685771D01*
X104345238Y-161685771D02*
X104440476Y-161733390D01*
X104440476Y-161733390D02*
X104488095Y-161781009D01*
X104488095Y-161781009D02*
X104535714Y-161876247D01*
X104535714Y-161876247D02*
X104535714Y-162114342D01*
X104535714Y-162114342D02*
X104488095Y-162209580D01*
X104488095Y-162209580D02*
X104440476Y-162257200D01*
X104440476Y-162257200D02*
X104345238Y-162304819D01*
X104345238Y-162304819D02*
X104059524Y-162304819D01*
X104059524Y-162304819D02*
X103964286Y-162257200D01*
X103964286Y-162257200D02*
X103916667Y-162209580D01*
X94857142Y-135114819D02*
X94523809Y-134638628D01*
X94285714Y-135114819D02*
X94285714Y-134114819D01*
X94285714Y-134114819D02*
X94666666Y-134114819D01*
X94666666Y-134114819D02*
X94761904Y-134162438D01*
X94761904Y-134162438D02*
X94809523Y-134210057D01*
X94809523Y-134210057D02*
X94857142Y-134305295D01*
X94857142Y-134305295D02*
X94857142Y-134448152D01*
X94857142Y-134448152D02*
X94809523Y-134543390D01*
X94809523Y-134543390D02*
X94761904Y-134591009D01*
X94761904Y-134591009D02*
X94666666Y-134638628D01*
X94666666Y-134638628D02*
X94285714Y-134638628D01*
X95238095Y-134210057D02*
X95285714Y-134162438D01*
X95285714Y-134162438D02*
X95380952Y-134114819D01*
X95380952Y-134114819D02*
X95619047Y-134114819D01*
X95619047Y-134114819D02*
X95714285Y-134162438D01*
X95714285Y-134162438D02*
X95761904Y-134210057D01*
X95761904Y-134210057D02*
X95809523Y-134305295D01*
X95809523Y-134305295D02*
X95809523Y-134400533D01*
X95809523Y-134400533D02*
X95761904Y-134543390D01*
X95761904Y-134543390D02*
X95190476Y-135114819D01*
X95190476Y-135114819D02*
X95809523Y-135114819D01*
X96714285Y-134114819D02*
X96238095Y-134114819D01*
X96238095Y-134114819D02*
X96190476Y-134591009D01*
X96190476Y-134591009D02*
X96238095Y-134543390D01*
X96238095Y-134543390D02*
X96333333Y-134495771D01*
X96333333Y-134495771D02*
X96571428Y-134495771D01*
X96571428Y-134495771D02*
X96666666Y-134543390D01*
X96666666Y-134543390D02*
X96714285Y-134591009D01*
X96714285Y-134591009D02*
X96761904Y-134686247D01*
X96761904Y-134686247D02*
X96761904Y-134924342D01*
X96761904Y-134924342D02*
X96714285Y-135019580D01*
X96714285Y-135019580D02*
X96666666Y-135067200D01*
X96666666Y-135067200D02*
X96571428Y-135114819D01*
X96571428Y-135114819D02*
X96333333Y-135114819D01*
X96333333Y-135114819D02*
X96238095Y-135067200D01*
X96238095Y-135067200D02*
X96190476Y-135019580D01*
X92359580Y-205916666D02*
X92407200Y-205964285D01*
X92407200Y-205964285D02*
X92454819Y-206107142D01*
X92454819Y-206107142D02*
X92454819Y-206202380D01*
X92454819Y-206202380D02*
X92407200Y-206345237D01*
X92407200Y-206345237D02*
X92311961Y-206440475D01*
X92311961Y-206440475D02*
X92216723Y-206488094D01*
X92216723Y-206488094D02*
X92026247Y-206535713D01*
X92026247Y-206535713D02*
X91883390Y-206535713D01*
X91883390Y-206535713D02*
X91692914Y-206488094D01*
X91692914Y-206488094D02*
X91597676Y-206440475D01*
X91597676Y-206440475D02*
X91502438Y-206345237D01*
X91502438Y-206345237D02*
X91454819Y-206202380D01*
X91454819Y-206202380D02*
X91454819Y-206107142D01*
X91454819Y-206107142D02*
X91502438Y-205964285D01*
X91502438Y-205964285D02*
X91550057Y-205916666D01*
X91454819Y-205011904D02*
X91454819Y-205488094D01*
X91454819Y-205488094D02*
X91931009Y-205535713D01*
X91931009Y-205535713D02*
X91883390Y-205488094D01*
X91883390Y-205488094D02*
X91835771Y-205392856D01*
X91835771Y-205392856D02*
X91835771Y-205154761D01*
X91835771Y-205154761D02*
X91883390Y-205059523D01*
X91883390Y-205059523D02*
X91931009Y-205011904D01*
X91931009Y-205011904D02*
X92026247Y-204964285D01*
X92026247Y-204964285D02*
X92264342Y-204964285D01*
X92264342Y-204964285D02*
X92359580Y-205011904D01*
X92359580Y-205011904D02*
X92407200Y-205059523D01*
X92407200Y-205059523D02*
X92454819Y-205154761D01*
X92454819Y-205154761D02*
X92454819Y-205392856D01*
X92454819Y-205392856D02*
X92407200Y-205488094D01*
X92407200Y-205488094D02*
X92359580Y-205535713D01*
X145386905Y-209754819D02*
X145386905Y-208754819D01*
X145958333Y-209754819D02*
X145529762Y-209183390D01*
X145958333Y-208754819D02*
X145386905Y-209326247D01*
X146910714Y-209754819D02*
X146339286Y-209754819D01*
X146625000Y-209754819D02*
X146625000Y-208754819D01*
X146625000Y-208754819D02*
X146529762Y-208897676D01*
X146529762Y-208897676D02*
X146434524Y-208992914D01*
X146434524Y-208992914D02*
X146339286Y-209040533D01*
D10*
X161957419Y-133464285D02*
X160957419Y-133464285D01*
X160957419Y-133464285D02*
X161957419Y-132892857D01*
X161957419Y-132892857D02*
X160957419Y-132892857D01*
X161433609Y-132416666D02*
X161433609Y-132083333D01*
X161957419Y-131940476D02*
X161957419Y-132416666D01*
X161957419Y-132416666D02*
X160957419Y-132416666D01*
X160957419Y-132416666D02*
X160957419Y-131940476D01*
X161957419Y-130988095D02*
X161957419Y-131559523D01*
X161957419Y-131273809D02*
X160957419Y-131273809D01*
X160957419Y-131273809D02*
X161100276Y-131369047D01*
X161100276Y-131369047D02*
X161195514Y-131464285D01*
X161195514Y-131464285D02*
X161243133Y-131559523D01*
D11*
X98859580Y-205916666D02*
X98907200Y-205964285D01*
X98907200Y-205964285D02*
X98954819Y-206107142D01*
X98954819Y-206107142D02*
X98954819Y-206202380D01*
X98954819Y-206202380D02*
X98907200Y-206345237D01*
X98907200Y-206345237D02*
X98811961Y-206440475D01*
X98811961Y-206440475D02*
X98716723Y-206488094D01*
X98716723Y-206488094D02*
X98526247Y-206535713D01*
X98526247Y-206535713D02*
X98383390Y-206535713D01*
X98383390Y-206535713D02*
X98192914Y-206488094D01*
X98192914Y-206488094D02*
X98097676Y-206440475D01*
X98097676Y-206440475D02*
X98002438Y-206345237D01*
X98002438Y-206345237D02*
X97954819Y-206202380D01*
X97954819Y-206202380D02*
X97954819Y-206107142D01*
X97954819Y-206107142D02*
X98002438Y-205964285D01*
X98002438Y-205964285D02*
X98050057Y-205916666D01*
X97954819Y-205059523D02*
X97954819Y-205249999D01*
X97954819Y-205249999D02*
X98002438Y-205345237D01*
X98002438Y-205345237D02*
X98050057Y-205392856D01*
X98050057Y-205392856D02*
X98192914Y-205488094D01*
X98192914Y-205488094D02*
X98383390Y-205535713D01*
X98383390Y-205535713D02*
X98764342Y-205535713D01*
X98764342Y-205535713D02*
X98859580Y-205488094D01*
X98859580Y-205488094D02*
X98907200Y-205440475D01*
X98907200Y-205440475D02*
X98954819Y-205345237D01*
X98954819Y-205345237D02*
X98954819Y-205154761D01*
X98954819Y-205154761D02*
X98907200Y-205059523D01*
X98907200Y-205059523D02*
X98859580Y-205011904D01*
X98859580Y-205011904D02*
X98764342Y-204964285D01*
X98764342Y-204964285D02*
X98526247Y-204964285D01*
X98526247Y-204964285D02*
X98431009Y-205011904D01*
X98431009Y-205011904D02*
X98383390Y-205059523D01*
X98383390Y-205059523D02*
X98335771Y-205154761D01*
X98335771Y-205154761D02*
X98335771Y-205345237D01*
X98335771Y-205345237D02*
X98383390Y-205440475D01*
X98383390Y-205440475D02*
X98431009Y-205488094D01*
X98431009Y-205488094D02*
X98526247Y-205535713D01*
X93931009Y-206083333D02*
X93931009Y-206416666D01*
X94454819Y-206416666D02*
X93454819Y-206416666D01*
X93454819Y-206416666D02*
X93454819Y-205940476D01*
X93931009Y-205226190D02*
X93978628Y-205083333D01*
X93978628Y-205083333D02*
X94026247Y-205035714D01*
X94026247Y-205035714D02*
X94121485Y-204988095D01*
X94121485Y-204988095D02*
X94264342Y-204988095D01*
X94264342Y-204988095D02*
X94359580Y-205035714D01*
X94359580Y-205035714D02*
X94407200Y-205083333D01*
X94407200Y-205083333D02*
X94454819Y-205178571D01*
X94454819Y-205178571D02*
X94454819Y-205559523D01*
X94454819Y-205559523D02*
X93454819Y-205559523D01*
X93454819Y-205559523D02*
X93454819Y-205226190D01*
X93454819Y-205226190D02*
X93502438Y-205130952D01*
X93502438Y-205130952D02*
X93550057Y-205083333D01*
X93550057Y-205083333D02*
X93645295Y-205035714D01*
X93645295Y-205035714D02*
X93740533Y-205035714D01*
X93740533Y-205035714D02*
X93835771Y-205083333D01*
X93835771Y-205083333D02*
X93883390Y-205130952D01*
X93883390Y-205130952D02*
X93931009Y-205226190D01*
X93931009Y-205226190D02*
X93931009Y-205559523D01*
X94454819Y-204035714D02*
X94454819Y-204607142D01*
X94454819Y-204321428D02*
X93454819Y-204321428D01*
X93454819Y-204321428D02*
X93597676Y-204416666D01*
X93597676Y-204416666D02*
X93692914Y-204511904D01*
X93692914Y-204511904D02*
X93740533Y-204607142D01*
X151550057Y-61545238D02*
X151502438Y-61640476D01*
X151502438Y-61640476D02*
X151407200Y-61735714D01*
X151407200Y-61735714D02*
X151264342Y-61878571D01*
X151264342Y-61878571D02*
X151216723Y-61973809D01*
X151216723Y-61973809D02*
X151216723Y-62069047D01*
X151454819Y-62021428D02*
X151407200Y-62116666D01*
X151407200Y-62116666D02*
X151311961Y-62211904D01*
X151311961Y-62211904D02*
X151121485Y-62259523D01*
X151121485Y-62259523D02*
X150788152Y-62259523D01*
X150788152Y-62259523D02*
X150597676Y-62211904D01*
X150597676Y-62211904D02*
X150502438Y-62116666D01*
X150502438Y-62116666D02*
X150454819Y-62021428D01*
X150454819Y-62021428D02*
X150454819Y-61830952D01*
X150454819Y-61830952D02*
X150502438Y-61735714D01*
X150502438Y-61735714D02*
X150597676Y-61640476D01*
X150597676Y-61640476D02*
X150788152Y-61592857D01*
X150788152Y-61592857D02*
X151121485Y-61592857D01*
X151121485Y-61592857D02*
X151311961Y-61640476D01*
X151311961Y-61640476D02*
X151407200Y-61735714D01*
X151407200Y-61735714D02*
X151454819Y-61830952D01*
X151454819Y-61830952D02*
X151454819Y-62021428D01*
X151454819Y-61116666D02*
X151454819Y-60926190D01*
X151454819Y-60926190D02*
X151407200Y-60830952D01*
X151407200Y-60830952D02*
X151359580Y-60783333D01*
X151359580Y-60783333D02*
X151216723Y-60688095D01*
X151216723Y-60688095D02*
X151026247Y-60640476D01*
X151026247Y-60640476D02*
X150645295Y-60640476D01*
X150645295Y-60640476D02*
X150550057Y-60688095D01*
X150550057Y-60688095D02*
X150502438Y-60735714D01*
X150502438Y-60735714D02*
X150454819Y-60830952D01*
X150454819Y-60830952D02*
X150454819Y-61021428D01*
X150454819Y-61021428D02*
X150502438Y-61116666D01*
X150502438Y-61116666D02*
X150550057Y-61164285D01*
X150550057Y-61164285D02*
X150645295Y-61211904D01*
X150645295Y-61211904D02*
X150883390Y-61211904D01*
X150883390Y-61211904D02*
X150978628Y-61164285D01*
X150978628Y-61164285D02*
X151026247Y-61116666D01*
X151026247Y-61116666D02*
X151073866Y-61021428D01*
X151073866Y-61021428D02*
X151073866Y-60830952D01*
X151073866Y-60830952D02*
X151026247Y-60735714D01*
X151026247Y-60735714D02*
X150978628Y-60688095D01*
X150978628Y-60688095D02*
X150883390Y-60640476D01*
X103954819Y-49511904D02*
X103954819Y-48940476D01*
X104954819Y-49226190D02*
X103954819Y-49226190D01*
X104954819Y-48083333D02*
X104954819Y-48654761D01*
X104954819Y-48369047D02*
X103954819Y-48369047D01*
X103954819Y-48369047D02*
X104097676Y-48464285D01*
X104097676Y-48464285D02*
X104192914Y-48559523D01*
X104192914Y-48559523D02*
X104240533Y-48654761D01*
X92204819Y-233916666D02*
X91728628Y-234249999D01*
X92204819Y-234488094D02*
X91204819Y-234488094D01*
X91204819Y-234488094D02*
X91204819Y-234107142D01*
X91204819Y-234107142D02*
X91252438Y-234011904D01*
X91252438Y-234011904D02*
X91300057Y-233964285D01*
X91300057Y-233964285D02*
X91395295Y-233916666D01*
X91395295Y-233916666D02*
X91538152Y-233916666D01*
X91538152Y-233916666D02*
X91633390Y-233964285D01*
X91633390Y-233964285D02*
X91681009Y-234011904D01*
X91681009Y-234011904D02*
X91728628Y-234107142D01*
X91728628Y-234107142D02*
X91728628Y-234488094D01*
X91204819Y-233011904D02*
X91204819Y-233488094D01*
X91204819Y-233488094D02*
X91681009Y-233535713D01*
X91681009Y-233535713D02*
X91633390Y-233488094D01*
X91633390Y-233488094D02*
X91585771Y-233392856D01*
X91585771Y-233392856D02*
X91585771Y-233154761D01*
X91585771Y-233154761D02*
X91633390Y-233059523D01*
X91633390Y-233059523D02*
X91681009Y-233011904D01*
X91681009Y-233011904D02*
X91776247Y-232964285D01*
X91776247Y-232964285D02*
X92014342Y-232964285D01*
X92014342Y-232964285D02*
X92109580Y-233011904D01*
X92109580Y-233011904D02*
X92157200Y-233059523D01*
X92157200Y-233059523D02*
X92204819Y-233154761D01*
X92204819Y-233154761D02*
X92204819Y-233392856D01*
X92204819Y-233392856D02*
X92157200Y-233488094D01*
X92157200Y-233488094D02*
X92109580Y-233535713D01*
X107333333Y-162304819D02*
X107000000Y-161828628D01*
X106761905Y-162304819D02*
X106761905Y-161304819D01*
X106761905Y-161304819D02*
X107142857Y-161304819D01*
X107142857Y-161304819D02*
X107238095Y-161352438D01*
X107238095Y-161352438D02*
X107285714Y-161400057D01*
X107285714Y-161400057D02*
X107333333Y-161495295D01*
X107333333Y-161495295D02*
X107333333Y-161638152D01*
X107333333Y-161638152D02*
X107285714Y-161733390D01*
X107285714Y-161733390D02*
X107238095Y-161781009D01*
X107238095Y-161781009D02*
X107142857Y-161828628D01*
X107142857Y-161828628D02*
X106761905Y-161828628D01*
X108190476Y-161638152D02*
X108190476Y-162304819D01*
X107952381Y-161257200D02*
X107714286Y-161971485D01*
X107714286Y-161971485D02*
X108333333Y-161971485D01*
X161704819Y-38488094D02*
X162514342Y-38488094D01*
X162514342Y-38488094D02*
X162609580Y-38440475D01*
X162609580Y-38440475D02*
X162657200Y-38392856D01*
X162657200Y-38392856D02*
X162704819Y-38297618D01*
X162704819Y-38297618D02*
X162704819Y-38107142D01*
X162704819Y-38107142D02*
X162657200Y-38011904D01*
X162657200Y-38011904D02*
X162609580Y-37964285D01*
X162609580Y-37964285D02*
X162514342Y-37916666D01*
X162514342Y-37916666D02*
X161704819Y-37916666D01*
X162704819Y-36916666D02*
X162704819Y-37488094D01*
X162704819Y-37202380D02*
X161704819Y-37202380D01*
X161704819Y-37202380D02*
X161847676Y-37297618D01*
X161847676Y-37297618D02*
X161942914Y-37392856D01*
X161942914Y-37392856D02*
X161990533Y-37488094D01*
X161800057Y-36535713D02*
X161752438Y-36488094D01*
X161752438Y-36488094D02*
X161704819Y-36392856D01*
X161704819Y-36392856D02*
X161704819Y-36154761D01*
X161704819Y-36154761D02*
X161752438Y-36059523D01*
X161752438Y-36059523D02*
X161800057Y-36011904D01*
X161800057Y-36011904D02*
X161895295Y-35964285D01*
X161895295Y-35964285D02*
X161990533Y-35964285D01*
X161990533Y-35964285D02*
X162133390Y-36011904D01*
X162133390Y-36011904D02*
X162704819Y-36583332D01*
X162704819Y-36583332D02*
X162704819Y-35964285D01*
X96609580Y-205916666D02*
X96657200Y-205964285D01*
X96657200Y-205964285D02*
X96704819Y-206107142D01*
X96704819Y-206107142D02*
X96704819Y-206202380D01*
X96704819Y-206202380D02*
X96657200Y-206345237D01*
X96657200Y-206345237D02*
X96561961Y-206440475D01*
X96561961Y-206440475D02*
X96466723Y-206488094D01*
X96466723Y-206488094D02*
X96276247Y-206535713D01*
X96276247Y-206535713D02*
X96133390Y-206535713D01*
X96133390Y-206535713D02*
X95942914Y-206488094D01*
X95942914Y-206488094D02*
X95847676Y-206440475D01*
X95847676Y-206440475D02*
X95752438Y-206345237D01*
X95752438Y-206345237D02*
X95704819Y-206202380D01*
X95704819Y-206202380D02*
X95704819Y-206107142D01*
X95704819Y-206107142D02*
X95752438Y-205964285D01*
X95752438Y-205964285D02*
X95800057Y-205916666D01*
X95704819Y-205583332D02*
X95704819Y-204916666D01*
X95704819Y-204916666D02*
X96704819Y-205345237D01*
X99833333Y-162304819D02*
X99500000Y-161828628D01*
X99261905Y-162304819D02*
X99261905Y-161304819D01*
X99261905Y-161304819D02*
X99642857Y-161304819D01*
X99642857Y-161304819D02*
X99738095Y-161352438D01*
X99738095Y-161352438D02*
X99785714Y-161400057D01*
X99785714Y-161400057D02*
X99833333Y-161495295D01*
X99833333Y-161495295D02*
X99833333Y-161638152D01*
X99833333Y-161638152D02*
X99785714Y-161733390D01*
X99785714Y-161733390D02*
X99738095Y-161781009D01*
X99738095Y-161781009D02*
X99642857Y-161828628D01*
X99642857Y-161828628D02*
X99261905Y-161828628D01*
X100214286Y-161400057D02*
X100261905Y-161352438D01*
X100261905Y-161352438D02*
X100357143Y-161304819D01*
X100357143Y-161304819D02*
X100595238Y-161304819D01*
X100595238Y-161304819D02*
X100690476Y-161352438D01*
X100690476Y-161352438D02*
X100738095Y-161400057D01*
X100738095Y-161400057D02*
X100785714Y-161495295D01*
X100785714Y-161495295D02*
X100785714Y-161590533D01*
X100785714Y-161590533D02*
X100738095Y-161733390D01*
X100738095Y-161733390D02*
X100166667Y-162304819D01*
X100166667Y-162304819D02*
X100785714Y-162304819D01*
X98929580Y-74142857D02*
X98977200Y-74190476D01*
X98977200Y-74190476D02*
X99024819Y-74333333D01*
X99024819Y-74333333D02*
X99024819Y-74428571D01*
X99024819Y-74428571D02*
X98977200Y-74571428D01*
X98977200Y-74571428D02*
X98881961Y-74666666D01*
X98881961Y-74666666D02*
X98786723Y-74714285D01*
X98786723Y-74714285D02*
X98596247Y-74761904D01*
X98596247Y-74761904D02*
X98453390Y-74761904D01*
X98453390Y-74761904D02*
X98262914Y-74714285D01*
X98262914Y-74714285D02*
X98167676Y-74666666D01*
X98167676Y-74666666D02*
X98072438Y-74571428D01*
X98072438Y-74571428D02*
X98024819Y-74428571D01*
X98024819Y-74428571D02*
X98024819Y-74333333D01*
X98024819Y-74333333D02*
X98072438Y-74190476D01*
X98072438Y-74190476D02*
X98120057Y-74142857D01*
X99024819Y-73190476D02*
X99024819Y-73761904D01*
X99024819Y-73476190D02*
X98024819Y-73476190D01*
X98024819Y-73476190D02*
X98167676Y-73571428D01*
X98167676Y-73571428D02*
X98262914Y-73666666D01*
X98262914Y-73666666D02*
X98310533Y-73761904D01*
X98024819Y-72285714D02*
X98024819Y-72761904D01*
X98024819Y-72761904D02*
X98501009Y-72809523D01*
X98501009Y-72809523D02*
X98453390Y-72761904D01*
X98453390Y-72761904D02*
X98405771Y-72666666D01*
X98405771Y-72666666D02*
X98405771Y-72428571D01*
X98405771Y-72428571D02*
X98453390Y-72333333D01*
X98453390Y-72333333D02*
X98501009Y-72285714D01*
X98501009Y-72285714D02*
X98596247Y-72238095D01*
X98596247Y-72238095D02*
X98834342Y-72238095D01*
X98834342Y-72238095D02*
X98929580Y-72285714D01*
X98929580Y-72285714D02*
X98977200Y-72333333D01*
X98977200Y-72333333D02*
X99024819Y-72428571D01*
X99024819Y-72428571D02*
X99024819Y-72666666D01*
X99024819Y-72666666D02*
X98977200Y-72761904D01*
X98977200Y-72761904D02*
X98929580Y-72809523D01*
X104783333Y-165859580D02*
X104735714Y-165907200D01*
X104735714Y-165907200D02*
X104592857Y-165954819D01*
X104592857Y-165954819D02*
X104497619Y-165954819D01*
X104497619Y-165954819D02*
X104354762Y-165907200D01*
X104354762Y-165907200D02*
X104259524Y-165811961D01*
X104259524Y-165811961D02*
X104211905Y-165716723D01*
X104211905Y-165716723D02*
X104164286Y-165526247D01*
X104164286Y-165526247D02*
X104164286Y-165383390D01*
X104164286Y-165383390D02*
X104211905Y-165192914D01*
X104211905Y-165192914D02*
X104259524Y-165097676D01*
X104259524Y-165097676D02*
X104354762Y-165002438D01*
X104354762Y-165002438D02*
X104497619Y-164954819D01*
X104497619Y-164954819D02*
X104592857Y-164954819D01*
X104592857Y-164954819D02*
X104735714Y-165002438D01*
X104735714Y-165002438D02*
X104783333Y-165050057D01*
X105735714Y-165954819D02*
X105164286Y-165954819D01*
X105450000Y-165954819D02*
X105450000Y-164954819D01*
X105450000Y-164954819D02*
X105354762Y-165097676D01*
X105354762Y-165097676D02*
X105259524Y-165192914D01*
X105259524Y-165192914D02*
X105164286Y-165240533D01*
X131217261Y-223762557D02*
X131122023Y-223714938D01*
X131122023Y-223714938D02*
X131026785Y-223619700D01*
X131026785Y-223619700D02*
X130883928Y-223476842D01*
X130883928Y-223476842D02*
X130788690Y-223429223D01*
X130788690Y-223429223D02*
X130693452Y-223429223D01*
X130741071Y-223667319D02*
X130645833Y-223619700D01*
X130645833Y-223619700D02*
X130550595Y-223524461D01*
X130550595Y-223524461D02*
X130502976Y-223333985D01*
X130502976Y-223333985D02*
X130502976Y-223000652D01*
X130502976Y-223000652D02*
X130550595Y-222810176D01*
X130550595Y-222810176D02*
X130645833Y-222714938D01*
X130645833Y-222714938D02*
X130741071Y-222667319D01*
X130741071Y-222667319D02*
X130931547Y-222667319D01*
X130931547Y-222667319D02*
X131026785Y-222714938D01*
X131026785Y-222714938D02*
X131122023Y-222810176D01*
X131122023Y-222810176D02*
X131169642Y-223000652D01*
X131169642Y-223000652D02*
X131169642Y-223333985D01*
X131169642Y-223333985D02*
X131122023Y-223524461D01*
X131122023Y-223524461D02*
X131026785Y-223619700D01*
X131026785Y-223619700D02*
X130931547Y-223667319D01*
X130931547Y-223667319D02*
X130741071Y-223667319D01*
X132074404Y-222667319D02*
X131598214Y-222667319D01*
X131598214Y-222667319D02*
X131550595Y-223143509D01*
X131550595Y-223143509D02*
X131598214Y-223095890D01*
X131598214Y-223095890D02*
X131693452Y-223048271D01*
X131693452Y-223048271D02*
X131931547Y-223048271D01*
X131931547Y-223048271D02*
X132026785Y-223095890D01*
X132026785Y-223095890D02*
X132074404Y-223143509D01*
X132074404Y-223143509D02*
X132122023Y-223238747D01*
X132122023Y-223238747D02*
X132122023Y-223476842D01*
X132122023Y-223476842D02*
X132074404Y-223572080D01*
X132074404Y-223572080D02*
X132026785Y-223619700D01*
X132026785Y-223619700D02*
X131931547Y-223667319D01*
X131931547Y-223667319D02*
X131693452Y-223667319D01*
X131693452Y-223667319D02*
X131598214Y-223619700D01*
X131598214Y-223619700D02*
X131550595Y-223572080D01*
D12*
X145953365Y-113816428D02*
X146013842Y-113876904D01*
X146013842Y-113876904D02*
X146074318Y-114058333D01*
X146074318Y-114058333D02*
X146074318Y-114179285D01*
X146074318Y-114179285D02*
X146013842Y-114360714D01*
X146013842Y-114360714D02*
X145892889Y-114481666D01*
X145892889Y-114481666D02*
X145771937Y-114542143D01*
X145771937Y-114542143D02*
X145530032Y-114602619D01*
X145530032Y-114602619D02*
X145348603Y-114602619D01*
X145348603Y-114602619D02*
X145106699Y-114542143D01*
X145106699Y-114542143D02*
X144985746Y-114481666D01*
X144985746Y-114481666D02*
X144864794Y-114360714D01*
X144864794Y-114360714D02*
X144804318Y-114179285D01*
X144804318Y-114179285D02*
X144804318Y-114058333D01*
X144804318Y-114058333D02*
X144864794Y-113876904D01*
X144864794Y-113876904D02*
X144925270Y-113816428D01*
X146074318Y-112606904D02*
X146074318Y-113332619D01*
X146074318Y-112969762D02*
X144804318Y-112969762D01*
X144804318Y-112969762D02*
X144985746Y-113090714D01*
X144985746Y-113090714D02*
X145106699Y-113211666D01*
X145106699Y-113211666D02*
X145167175Y-113332619D01*
X144804318Y-112183571D02*
X144804318Y-111336904D01*
X144804318Y-111336904D02*
X146074318Y-111881190D01*
D13*
X139025600Y-111911653D02*
X139025600Y-114197368D01*
X137882742Y-113054510D02*
X140168457Y-113054510D01*
D11*
X101011905Y-179204819D02*
X101011905Y-178204819D01*
X101011905Y-178204819D02*
X101250000Y-178204819D01*
X101250000Y-178204819D02*
X101392857Y-178252438D01*
X101392857Y-178252438D02*
X101488095Y-178347676D01*
X101488095Y-178347676D02*
X101535714Y-178442914D01*
X101535714Y-178442914D02*
X101583333Y-178633390D01*
X101583333Y-178633390D02*
X101583333Y-178776247D01*
X101583333Y-178776247D02*
X101535714Y-178966723D01*
X101535714Y-178966723D02*
X101488095Y-179061961D01*
X101488095Y-179061961D02*
X101392857Y-179157200D01*
X101392857Y-179157200D02*
X101250000Y-179204819D01*
X101250000Y-179204819D02*
X101011905Y-179204819D01*
X102154762Y-178633390D02*
X102059524Y-178585771D01*
X102059524Y-178585771D02*
X102011905Y-178538152D01*
X102011905Y-178538152D02*
X101964286Y-178442914D01*
X101964286Y-178442914D02*
X101964286Y-178395295D01*
X101964286Y-178395295D02*
X102011905Y-178300057D01*
X102011905Y-178300057D02*
X102059524Y-178252438D01*
X102059524Y-178252438D02*
X102154762Y-178204819D01*
X102154762Y-178204819D02*
X102345238Y-178204819D01*
X102345238Y-178204819D02*
X102440476Y-178252438D01*
X102440476Y-178252438D02*
X102488095Y-178300057D01*
X102488095Y-178300057D02*
X102535714Y-178395295D01*
X102535714Y-178395295D02*
X102535714Y-178442914D01*
X102535714Y-178442914D02*
X102488095Y-178538152D01*
X102488095Y-178538152D02*
X102440476Y-178585771D01*
X102440476Y-178585771D02*
X102345238Y-178633390D01*
X102345238Y-178633390D02*
X102154762Y-178633390D01*
X102154762Y-178633390D02*
X102059524Y-178681009D01*
X102059524Y-178681009D02*
X102011905Y-178728628D01*
X102011905Y-178728628D02*
X101964286Y-178823866D01*
X101964286Y-178823866D02*
X101964286Y-179014342D01*
X101964286Y-179014342D02*
X102011905Y-179109580D01*
X102011905Y-179109580D02*
X102059524Y-179157200D01*
X102059524Y-179157200D02*
X102154762Y-179204819D01*
X102154762Y-179204819D02*
X102345238Y-179204819D01*
X102345238Y-179204819D02*
X102440476Y-179157200D01*
X102440476Y-179157200D02*
X102488095Y-179109580D01*
X102488095Y-179109580D02*
X102535714Y-179014342D01*
X102535714Y-179014342D02*
X102535714Y-178823866D01*
X102535714Y-178823866D02*
X102488095Y-178728628D01*
X102488095Y-178728628D02*
X102440476Y-178681009D01*
X102440476Y-178681009D02*
X102345238Y-178633390D01*
X99857142Y-167679580D02*
X99809523Y-167727200D01*
X99809523Y-167727200D02*
X99666666Y-167774819D01*
X99666666Y-167774819D02*
X99571428Y-167774819D01*
X99571428Y-167774819D02*
X99428571Y-167727200D01*
X99428571Y-167727200D02*
X99333333Y-167631961D01*
X99333333Y-167631961D02*
X99285714Y-167536723D01*
X99285714Y-167536723D02*
X99238095Y-167346247D01*
X99238095Y-167346247D02*
X99238095Y-167203390D01*
X99238095Y-167203390D02*
X99285714Y-167012914D01*
X99285714Y-167012914D02*
X99333333Y-166917676D01*
X99333333Y-166917676D02*
X99428571Y-166822438D01*
X99428571Y-166822438D02*
X99571428Y-166774819D01*
X99571428Y-166774819D02*
X99666666Y-166774819D01*
X99666666Y-166774819D02*
X99809523Y-166822438D01*
X99809523Y-166822438D02*
X99857142Y-166870057D01*
X100809523Y-167774819D02*
X100238095Y-167774819D01*
X100523809Y-167774819D02*
X100523809Y-166774819D01*
X100523809Y-166774819D02*
X100428571Y-166917676D01*
X100428571Y-166917676D02*
X100333333Y-167012914D01*
X100333333Y-167012914D02*
X100238095Y-167060533D01*
X101761904Y-167774819D02*
X101190476Y-167774819D01*
X101476190Y-167774819D02*
X101476190Y-166774819D01*
X101476190Y-166774819D02*
X101380952Y-166917676D01*
X101380952Y-166917676D02*
X101285714Y-167012914D01*
X101285714Y-167012914D02*
X101190476Y-167060533D01*
X122890419Y-199107142D02*
X122842800Y-199059523D01*
X122842800Y-199059523D02*
X122795180Y-198916666D01*
X122795180Y-198916666D02*
X122795180Y-198821428D01*
X122795180Y-198821428D02*
X122842800Y-198678571D01*
X122842800Y-198678571D02*
X122938038Y-198583333D01*
X122938038Y-198583333D02*
X123033276Y-198535714D01*
X123033276Y-198535714D02*
X123223752Y-198488095D01*
X123223752Y-198488095D02*
X123366609Y-198488095D01*
X123366609Y-198488095D02*
X123557085Y-198535714D01*
X123557085Y-198535714D02*
X123652323Y-198583333D01*
X123652323Y-198583333D02*
X123747561Y-198678571D01*
X123747561Y-198678571D02*
X123795180Y-198821428D01*
X123795180Y-198821428D02*
X123795180Y-198916666D01*
X123795180Y-198916666D02*
X123747561Y-199059523D01*
X123747561Y-199059523D02*
X123699942Y-199107142D01*
X123699942Y-199488095D02*
X123747561Y-199535714D01*
X123747561Y-199535714D02*
X123795180Y-199630952D01*
X123795180Y-199630952D02*
X123795180Y-199869047D01*
X123795180Y-199869047D02*
X123747561Y-199964285D01*
X123747561Y-199964285D02*
X123699942Y-200011904D01*
X123699942Y-200011904D02*
X123604704Y-200059523D01*
X123604704Y-200059523D02*
X123509466Y-200059523D01*
X123509466Y-200059523D02*
X123366609Y-200011904D01*
X123366609Y-200011904D02*
X122795180Y-199440476D01*
X122795180Y-199440476D02*
X122795180Y-200059523D01*
X123366609Y-200630952D02*
X123414228Y-200535714D01*
X123414228Y-200535714D02*
X123461847Y-200488095D01*
X123461847Y-200488095D02*
X123557085Y-200440476D01*
X123557085Y-200440476D02*
X123604704Y-200440476D01*
X123604704Y-200440476D02*
X123699942Y-200488095D01*
X123699942Y-200488095D02*
X123747561Y-200535714D01*
X123747561Y-200535714D02*
X123795180Y-200630952D01*
X123795180Y-200630952D02*
X123795180Y-200821428D01*
X123795180Y-200821428D02*
X123747561Y-200916666D01*
X123747561Y-200916666D02*
X123699942Y-200964285D01*
X123699942Y-200964285D02*
X123604704Y-201011904D01*
X123604704Y-201011904D02*
X123557085Y-201011904D01*
X123557085Y-201011904D02*
X123461847Y-200964285D01*
X123461847Y-200964285D02*
X123414228Y-200916666D01*
X123414228Y-200916666D02*
X123366609Y-200821428D01*
X123366609Y-200821428D02*
X123366609Y-200630952D01*
X123366609Y-200630952D02*
X123318990Y-200535714D01*
X123318990Y-200535714D02*
X123271371Y-200488095D01*
X123271371Y-200488095D02*
X123176133Y-200440476D01*
X123176133Y-200440476D02*
X122985657Y-200440476D01*
X122985657Y-200440476D02*
X122890419Y-200488095D01*
X122890419Y-200488095D02*
X122842800Y-200535714D01*
X122842800Y-200535714D02*
X122795180Y-200630952D01*
X122795180Y-200630952D02*
X122795180Y-200821428D01*
X122795180Y-200821428D02*
X122842800Y-200916666D01*
X122842800Y-200916666D02*
X122890419Y-200964285D01*
X122890419Y-200964285D02*
X122985657Y-201011904D01*
X122985657Y-201011904D02*
X123176133Y-201011904D01*
X123176133Y-201011904D02*
X123271371Y-200964285D01*
X123271371Y-200964285D02*
X123318990Y-200916666D01*
X123318990Y-200916666D02*
X123366609Y-200821428D01*
X117861905Y-205923569D02*
X117861905Y-204923569D01*
X117861905Y-204923569D02*
X118100000Y-204923569D01*
X118100000Y-204923569D02*
X118242857Y-204971188D01*
X118242857Y-204971188D02*
X118338095Y-205066426D01*
X118338095Y-205066426D02*
X118385714Y-205161664D01*
X118385714Y-205161664D02*
X118433333Y-205352140D01*
X118433333Y-205352140D02*
X118433333Y-205494997D01*
X118433333Y-205494997D02*
X118385714Y-205685473D01*
X118385714Y-205685473D02*
X118338095Y-205780711D01*
X118338095Y-205780711D02*
X118242857Y-205875950D01*
X118242857Y-205875950D02*
X118100000Y-205923569D01*
X118100000Y-205923569D02*
X117861905Y-205923569D01*
X119385714Y-205923569D02*
X118814286Y-205923569D01*
X119100000Y-205923569D02*
X119100000Y-204923569D01*
X119100000Y-204923569D02*
X119004762Y-205066426D01*
X119004762Y-205066426D02*
X118909524Y-205161664D01*
X118909524Y-205161664D02*
X118814286Y-205209283D01*
X136988095Y-96154819D02*
X136988095Y-96964342D01*
X136988095Y-96964342D02*
X137035714Y-97059580D01*
X137035714Y-97059580D02*
X137083333Y-97107200D01*
X137083333Y-97107200D02*
X137178571Y-97154819D01*
X137178571Y-97154819D02*
X137369047Y-97154819D01*
X137369047Y-97154819D02*
X137464285Y-97107200D01*
X137464285Y-97107200D02*
X137511904Y-97059580D01*
X137511904Y-97059580D02*
X137559523Y-96964342D01*
X137559523Y-96964342D02*
X137559523Y-96154819D01*
X138464285Y-96154819D02*
X138273809Y-96154819D01*
X138273809Y-96154819D02*
X138178571Y-96202438D01*
X138178571Y-96202438D02*
X138130952Y-96250057D01*
X138130952Y-96250057D02*
X138035714Y-96392914D01*
X138035714Y-96392914D02*
X137988095Y-96583390D01*
X137988095Y-96583390D02*
X137988095Y-96964342D01*
X137988095Y-96964342D02*
X138035714Y-97059580D01*
X138035714Y-97059580D02*
X138083333Y-97107200D01*
X138083333Y-97107200D02*
X138178571Y-97154819D01*
X138178571Y-97154819D02*
X138369047Y-97154819D01*
X138369047Y-97154819D02*
X138464285Y-97107200D01*
X138464285Y-97107200D02*
X138511904Y-97059580D01*
X138511904Y-97059580D02*
X138559523Y-96964342D01*
X138559523Y-96964342D02*
X138559523Y-96726247D01*
X138559523Y-96726247D02*
X138511904Y-96631009D01*
X138511904Y-96631009D02*
X138464285Y-96583390D01*
X138464285Y-96583390D02*
X138369047Y-96535771D01*
X138369047Y-96535771D02*
X138178571Y-96535771D01*
X138178571Y-96535771D02*
X138083333Y-96583390D01*
X138083333Y-96583390D02*
X138035714Y-96631009D01*
X138035714Y-96631009D02*
X137988095Y-96726247D01*
X121616538Y-194609580D02*
X121568919Y-194657200D01*
X121568919Y-194657200D02*
X121426062Y-194704819D01*
X121426062Y-194704819D02*
X121330824Y-194704819D01*
X121330824Y-194704819D02*
X121187967Y-194657200D01*
X121187967Y-194657200D02*
X121092729Y-194561961D01*
X121092729Y-194561961D02*
X121045110Y-194466723D01*
X121045110Y-194466723D02*
X120997491Y-194276247D01*
X120997491Y-194276247D02*
X120997491Y-194133390D01*
X120997491Y-194133390D02*
X121045110Y-193942914D01*
X121045110Y-193942914D02*
X121092729Y-193847676D01*
X121092729Y-193847676D02*
X121187967Y-193752438D01*
X121187967Y-193752438D02*
X121330824Y-193704819D01*
X121330824Y-193704819D02*
X121426062Y-193704819D01*
X121426062Y-193704819D02*
X121568919Y-193752438D01*
X121568919Y-193752438D02*
X121616538Y-193800057D01*
X121997491Y-193800057D02*
X122045110Y-193752438D01*
X122045110Y-193752438D02*
X122140348Y-193704819D01*
X122140348Y-193704819D02*
X122378443Y-193704819D01*
X122378443Y-193704819D02*
X122473681Y-193752438D01*
X122473681Y-193752438D02*
X122521300Y-193800057D01*
X122521300Y-193800057D02*
X122568919Y-193895295D01*
X122568919Y-193895295D02*
X122568919Y-193990533D01*
X122568919Y-193990533D02*
X122521300Y-194133390D01*
X122521300Y-194133390D02*
X121949872Y-194704819D01*
X121949872Y-194704819D02*
X122568919Y-194704819D01*
X122902253Y-193704819D02*
X123568919Y-193704819D01*
X123568919Y-193704819D02*
X123140348Y-194704819D01*
X140357142Y-97109580D02*
X140309523Y-97157200D01*
X140309523Y-97157200D02*
X140166666Y-97204819D01*
X140166666Y-97204819D02*
X140071428Y-97204819D01*
X140071428Y-97204819D02*
X139928571Y-97157200D01*
X139928571Y-97157200D02*
X139833333Y-97061961D01*
X139833333Y-97061961D02*
X139785714Y-96966723D01*
X139785714Y-96966723D02*
X139738095Y-96776247D01*
X139738095Y-96776247D02*
X139738095Y-96633390D01*
X139738095Y-96633390D02*
X139785714Y-96442914D01*
X139785714Y-96442914D02*
X139833333Y-96347676D01*
X139833333Y-96347676D02*
X139928571Y-96252438D01*
X139928571Y-96252438D02*
X140071428Y-96204819D01*
X140071428Y-96204819D02*
X140166666Y-96204819D01*
X140166666Y-96204819D02*
X140309523Y-96252438D01*
X140309523Y-96252438D02*
X140357142Y-96300057D01*
X141309523Y-97204819D02*
X140738095Y-97204819D01*
X141023809Y-97204819D02*
X141023809Y-96204819D01*
X141023809Y-96204819D02*
X140928571Y-96347676D01*
X140928571Y-96347676D02*
X140833333Y-96442914D01*
X140833333Y-96442914D02*
X140738095Y-96490533D01*
X141928571Y-96204819D02*
X142023809Y-96204819D01*
X142023809Y-96204819D02*
X142119047Y-96252438D01*
X142119047Y-96252438D02*
X142166666Y-96300057D01*
X142166666Y-96300057D02*
X142214285Y-96395295D01*
X142214285Y-96395295D02*
X142261904Y-96585771D01*
X142261904Y-96585771D02*
X142261904Y-96823866D01*
X142261904Y-96823866D02*
X142214285Y-97014342D01*
X142214285Y-97014342D02*
X142166666Y-97109580D01*
X142166666Y-97109580D02*
X142119047Y-97157200D01*
X142119047Y-97157200D02*
X142023809Y-97204819D01*
X142023809Y-97204819D02*
X141928571Y-97204819D01*
X141928571Y-97204819D02*
X141833333Y-97157200D01*
X141833333Y-97157200D02*
X141785714Y-97109580D01*
X141785714Y-97109580D02*
X141738095Y-97014342D01*
X141738095Y-97014342D02*
X141690476Y-96823866D01*
X141690476Y-96823866D02*
X141690476Y-96585771D01*
X141690476Y-96585771D02*
X141738095Y-96395295D01*
X141738095Y-96395295D02*
X141785714Y-96300057D01*
X141785714Y-96300057D02*
X141833333Y-96252438D01*
X141833333Y-96252438D02*
X141928571Y-96204819D01*
X96704819Y-233916666D02*
X96228628Y-234249999D01*
X96704819Y-234488094D02*
X95704819Y-234488094D01*
X95704819Y-234488094D02*
X95704819Y-234107142D01*
X95704819Y-234107142D02*
X95752438Y-234011904D01*
X95752438Y-234011904D02*
X95800057Y-233964285D01*
X95800057Y-233964285D02*
X95895295Y-233916666D01*
X95895295Y-233916666D02*
X96038152Y-233916666D01*
X96038152Y-233916666D02*
X96133390Y-233964285D01*
X96133390Y-233964285D02*
X96181009Y-234011904D01*
X96181009Y-234011904D02*
X96228628Y-234107142D01*
X96228628Y-234107142D02*
X96228628Y-234488094D01*
X96133390Y-233345237D02*
X96085771Y-233440475D01*
X96085771Y-233440475D02*
X96038152Y-233488094D01*
X96038152Y-233488094D02*
X95942914Y-233535713D01*
X95942914Y-233535713D02*
X95895295Y-233535713D01*
X95895295Y-233535713D02*
X95800057Y-233488094D01*
X95800057Y-233488094D02*
X95752438Y-233440475D01*
X95752438Y-233440475D02*
X95704819Y-233345237D01*
X95704819Y-233345237D02*
X95704819Y-233154761D01*
X95704819Y-233154761D02*
X95752438Y-233059523D01*
X95752438Y-233059523D02*
X95800057Y-233011904D01*
X95800057Y-233011904D02*
X95895295Y-232964285D01*
X95895295Y-232964285D02*
X95942914Y-232964285D01*
X95942914Y-232964285D02*
X96038152Y-233011904D01*
X96038152Y-233011904D02*
X96085771Y-233059523D01*
X96085771Y-233059523D02*
X96133390Y-233154761D01*
X96133390Y-233154761D02*
X96133390Y-233345237D01*
X96133390Y-233345237D02*
X96181009Y-233440475D01*
X96181009Y-233440475D02*
X96228628Y-233488094D01*
X96228628Y-233488094D02*
X96323866Y-233535713D01*
X96323866Y-233535713D02*
X96514342Y-233535713D01*
X96514342Y-233535713D02*
X96609580Y-233488094D01*
X96609580Y-233488094D02*
X96657200Y-233440475D01*
X96657200Y-233440475D02*
X96704819Y-233345237D01*
X96704819Y-233345237D02*
X96704819Y-233154761D01*
X96704819Y-233154761D02*
X96657200Y-233059523D01*
X96657200Y-233059523D02*
X96609580Y-233011904D01*
X96609580Y-233011904D02*
X96514342Y-232964285D01*
X96514342Y-232964285D02*
X96323866Y-232964285D01*
X96323866Y-232964285D02*
X96228628Y-233011904D01*
X96228628Y-233011904D02*
X96181009Y-233059523D01*
X96181009Y-233059523D02*
X96133390Y-233154761D01*
X151357142Y-159359580D02*
X151309523Y-159407200D01*
X151309523Y-159407200D02*
X151166666Y-159454819D01*
X151166666Y-159454819D02*
X151071428Y-159454819D01*
X151071428Y-159454819D02*
X150928571Y-159407200D01*
X150928571Y-159407200D02*
X150833333Y-159311961D01*
X150833333Y-159311961D02*
X150785714Y-159216723D01*
X150785714Y-159216723D02*
X150738095Y-159026247D01*
X150738095Y-159026247D02*
X150738095Y-158883390D01*
X150738095Y-158883390D02*
X150785714Y-158692914D01*
X150785714Y-158692914D02*
X150833333Y-158597676D01*
X150833333Y-158597676D02*
X150928571Y-158502438D01*
X150928571Y-158502438D02*
X151071428Y-158454819D01*
X151071428Y-158454819D02*
X151166666Y-158454819D01*
X151166666Y-158454819D02*
X151309523Y-158502438D01*
X151309523Y-158502438D02*
X151357142Y-158550057D01*
X151738095Y-158550057D02*
X151785714Y-158502438D01*
X151785714Y-158502438D02*
X151880952Y-158454819D01*
X151880952Y-158454819D02*
X152119047Y-158454819D01*
X152119047Y-158454819D02*
X152214285Y-158502438D01*
X152214285Y-158502438D02*
X152261904Y-158550057D01*
X152261904Y-158550057D02*
X152309523Y-158645295D01*
X152309523Y-158645295D02*
X152309523Y-158740533D01*
X152309523Y-158740533D02*
X152261904Y-158883390D01*
X152261904Y-158883390D02*
X151690476Y-159454819D01*
X151690476Y-159454819D02*
X152309523Y-159454819D01*
X152690476Y-158550057D02*
X152738095Y-158502438D01*
X152738095Y-158502438D02*
X152833333Y-158454819D01*
X152833333Y-158454819D02*
X153071428Y-158454819D01*
X153071428Y-158454819D02*
X153166666Y-158502438D01*
X153166666Y-158502438D02*
X153214285Y-158550057D01*
X153214285Y-158550057D02*
X153261904Y-158645295D01*
X153261904Y-158645295D02*
X153261904Y-158740533D01*
X153261904Y-158740533D02*
X153214285Y-158883390D01*
X153214285Y-158883390D02*
X152642857Y-159454819D01*
X152642857Y-159454819D02*
X153261904Y-159454819D01*
X107769642Y-167804819D02*
X107436309Y-167328628D01*
X107198214Y-167804819D02*
X107198214Y-166804819D01*
X107198214Y-166804819D02*
X107579166Y-166804819D01*
X107579166Y-166804819D02*
X107674404Y-166852438D01*
X107674404Y-166852438D02*
X107722023Y-166900057D01*
X107722023Y-166900057D02*
X107769642Y-166995295D01*
X107769642Y-166995295D02*
X107769642Y-167138152D01*
X107769642Y-167138152D02*
X107722023Y-167233390D01*
X107722023Y-167233390D02*
X107674404Y-167281009D01*
X107674404Y-167281009D02*
X107579166Y-167328628D01*
X107579166Y-167328628D02*
X107198214Y-167328628D01*
X108722023Y-167804819D02*
X108150595Y-167804819D01*
X108436309Y-167804819D02*
X108436309Y-166804819D01*
X108436309Y-166804819D02*
X108341071Y-166947676D01*
X108341071Y-166947676D02*
X108245833Y-167042914D01*
X108245833Y-167042914D02*
X108150595Y-167090533D01*
X109674404Y-167804819D02*
X109102976Y-167804819D01*
X109388690Y-167804819D02*
X109388690Y-166804819D01*
X109388690Y-166804819D02*
X109293452Y-166947676D01*
X109293452Y-166947676D02*
X109198214Y-167042914D01*
X109198214Y-167042914D02*
X109102976Y-167090533D01*
X95204819Y-236988094D02*
X94204819Y-236988094D01*
X94204819Y-236988094D02*
X94204819Y-236749999D01*
X94204819Y-236749999D02*
X94252438Y-236607142D01*
X94252438Y-236607142D02*
X94347676Y-236511904D01*
X94347676Y-236511904D02*
X94442914Y-236464285D01*
X94442914Y-236464285D02*
X94633390Y-236416666D01*
X94633390Y-236416666D02*
X94776247Y-236416666D01*
X94776247Y-236416666D02*
X94966723Y-236464285D01*
X94966723Y-236464285D02*
X95061961Y-236511904D01*
X95061961Y-236511904D02*
X95157200Y-236607142D01*
X95157200Y-236607142D02*
X95204819Y-236749999D01*
X95204819Y-236749999D02*
X95204819Y-236988094D01*
X94538152Y-235559523D02*
X95204819Y-235559523D01*
X94157200Y-235797618D02*
X94871485Y-236035713D01*
X94871485Y-236035713D02*
X94871485Y-235416666D01*
X107416666Y-192204819D02*
X107416666Y-192919104D01*
X107416666Y-192919104D02*
X107369047Y-193061961D01*
X107369047Y-193061961D02*
X107273809Y-193157200D01*
X107273809Y-193157200D02*
X107130952Y-193204819D01*
X107130952Y-193204819D02*
X107035714Y-193204819D01*
X107845238Y-192300057D02*
X107892857Y-192252438D01*
X107892857Y-192252438D02*
X107988095Y-192204819D01*
X107988095Y-192204819D02*
X108226190Y-192204819D01*
X108226190Y-192204819D02*
X108321428Y-192252438D01*
X108321428Y-192252438D02*
X108369047Y-192300057D01*
X108369047Y-192300057D02*
X108416666Y-192395295D01*
X108416666Y-192395295D02*
X108416666Y-192490533D01*
X108416666Y-192490533D02*
X108369047Y-192633390D01*
X108369047Y-192633390D02*
X107797619Y-193204819D01*
X107797619Y-193204819D02*
X108416666Y-193204819D01*
X92609580Y-203166666D02*
X92657200Y-203214285D01*
X92657200Y-203214285D02*
X92704819Y-203357142D01*
X92704819Y-203357142D02*
X92704819Y-203452380D01*
X92704819Y-203452380D02*
X92657200Y-203595237D01*
X92657200Y-203595237D02*
X92561961Y-203690475D01*
X92561961Y-203690475D02*
X92466723Y-203738094D01*
X92466723Y-203738094D02*
X92276247Y-203785713D01*
X92276247Y-203785713D02*
X92133390Y-203785713D01*
X92133390Y-203785713D02*
X91942914Y-203738094D01*
X91942914Y-203738094D02*
X91847676Y-203690475D01*
X91847676Y-203690475D02*
X91752438Y-203595237D01*
X91752438Y-203595237D02*
X91704819Y-203452380D01*
X91704819Y-203452380D02*
X91704819Y-203357142D01*
X91704819Y-203357142D02*
X91752438Y-203214285D01*
X91752438Y-203214285D02*
X91800057Y-203166666D01*
X92133390Y-202595237D02*
X92085771Y-202690475D01*
X92085771Y-202690475D02*
X92038152Y-202738094D01*
X92038152Y-202738094D02*
X91942914Y-202785713D01*
X91942914Y-202785713D02*
X91895295Y-202785713D01*
X91895295Y-202785713D02*
X91800057Y-202738094D01*
X91800057Y-202738094D02*
X91752438Y-202690475D01*
X91752438Y-202690475D02*
X91704819Y-202595237D01*
X91704819Y-202595237D02*
X91704819Y-202404761D01*
X91704819Y-202404761D02*
X91752438Y-202309523D01*
X91752438Y-202309523D02*
X91800057Y-202261904D01*
X91800057Y-202261904D02*
X91895295Y-202214285D01*
X91895295Y-202214285D02*
X91942914Y-202214285D01*
X91942914Y-202214285D02*
X92038152Y-202261904D01*
X92038152Y-202261904D02*
X92085771Y-202309523D01*
X92085771Y-202309523D02*
X92133390Y-202404761D01*
X92133390Y-202404761D02*
X92133390Y-202595237D01*
X92133390Y-202595237D02*
X92181009Y-202690475D01*
X92181009Y-202690475D02*
X92228628Y-202738094D01*
X92228628Y-202738094D02*
X92323866Y-202785713D01*
X92323866Y-202785713D02*
X92514342Y-202785713D01*
X92514342Y-202785713D02*
X92609580Y-202738094D01*
X92609580Y-202738094D02*
X92657200Y-202690475D01*
X92657200Y-202690475D02*
X92704819Y-202595237D01*
X92704819Y-202595237D02*
X92704819Y-202404761D01*
X92704819Y-202404761D02*
X92657200Y-202309523D01*
X92657200Y-202309523D02*
X92609580Y-202261904D01*
X92609580Y-202261904D02*
X92514342Y-202214285D01*
X92514342Y-202214285D02*
X92323866Y-202214285D01*
X92323866Y-202214285D02*
X92228628Y-202261904D01*
X92228628Y-202261904D02*
X92181009Y-202309523D01*
X92181009Y-202309523D02*
X92133390Y-202404761D01*
X103857142Y-167704819D02*
X103523809Y-167228628D01*
X103285714Y-167704819D02*
X103285714Y-166704819D01*
X103285714Y-166704819D02*
X103666666Y-166704819D01*
X103666666Y-166704819D02*
X103761904Y-166752438D01*
X103761904Y-166752438D02*
X103809523Y-166800057D01*
X103809523Y-166800057D02*
X103857142Y-166895295D01*
X103857142Y-166895295D02*
X103857142Y-167038152D01*
X103857142Y-167038152D02*
X103809523Y-167133390D01*
X103809523Y-167133390D02*
X103761904Y-167181009D01*
X103761904Y-167181009D02*
X103666666Y-167228628D01*
X103666666Y-167228628D02*
X103285714Y-167228628D01*
X104809523Y-167704819D02*
X104238095Y-167704819D01*
X104523809Y-167704819D02*
X104523809Y-166704819D01*
X104523809Y-166704819D02*
X104428571Y-166847676D01*
X104428571Y-166847676D02*
X104333333Y-166942914D01*
X104333333Y-166942914D02*
X104238095Y-166990533D01*
X105428571Y-166704819D02*
X105523809Y-166704819D01*
X105523809Y-166704819D02*
X105619047Y-166752438D01*
X105619047Y-166752438D02*
X105666666Y-166800057D01*
X105666666Y-166800057D02*
X105714285Y-166895295D01*
X105714285Y-166895295D02*
X105761904Y-167085771D01*
X105761904Y-167085771D02*
X105761904Y-167323866D01*
X105761904Y-167323866D02*
X105714285Y-167514342D01*
X105714285Y-167514342D02*
X105666666Y-167609580D01*
X105666666Y-167609580D02*
X105619047Y-167657200D01*
X105619047Y-167657200D02*
X105523809Y-167704819D01*
X105523809Y-167704819D02*
X105428571Y-167704819D01*
X105428571Y-167704819D02*
X105333333Y-167657200D01*
X105333333Y-167657200D02*
X105285714Y-167609580D01*
X105285714Y-167609580D02*
X105238095Y-167514342D01*
X105238095Y-167514342D02*
X105190476Y-167323866D01*
X105190476Y-167323866D02*
X105190476Y-167085771D01*
X105190476Y-167085771D02*
X105238095Y-166895295D01*
X105238095Y-166895295D02*
X105285714Y-166800057D01*
X105285714Y-166800057D02*
X105333333Y-166752438D01*
X105333333Y-166752438D02*
X105428571Y-166704819D01*
X153804819Y-74511904D02*
X154614342Y-74511904D01*
X154614342Y-74511904D02*
X154709580Y-74464285D01*
X154709580Y-74464285D02*
X154757200Y-74416666D01*
X154757200Y-74416666D02*
X154804819Y-74321428D01*
X154804819Y-74321428D02*
X154804819Y-74130952D01*
X154804819Y-74130952D02*
X154757200Y-74035714D01*
X154757200Y-74035714D02*
X154709580Y-73988095D01*
X154709580Y-73988095D02*
X154614342Y-73940476D01*
X154614342Y-73940476D02*
X153804819Y-73940476D01*
X154233390Y-73321428D02*
X154185771Y-73416666D01*
X154185771Y-73416666D02*
X154138152Y-73464285D01*
X154138152Y-73464285D02*
X154042914Y-73511904D01*
X154042914Y-73511904D02*
X153995295Y-73511904D01*
X153995295Y-73511904D02*
X153900057Y-73464285D01*
X153900057Y-73464285D02*
X153852438Y-73416666D01*
X153852438Y-73416666D02*
X153804819Y-73321428D01*
X153804819Y-73321428D02*
X153804819Y-73130952D01*
X153804819Y-73130952D02*
X153852438Y-73035714D01*
X153852438Y-73035714D02*
X153900057Y-72988095D01*
X153900057Y-72988095D02*
X153995295Y-72940476D01*
X153995295Y-72940476D02*
X154042914Y-72940476D01*
X154042914Y-72940476D02*
X154138152Y-72988095D01*
X154138152Y-72988095D02*
X154185771Y-73035714D01*
X154185771Y-73035714D02*
X154233390Y-73130952D01*
X154233390Y-73130952D02*
X154233390Y-73321428D01*
X154233390Y-73321428D02*
X154281009Y-73416666D01*
X154281009Y-73416666D02*
X154328628Y-73464285D01*
X154328628Y-73464285D02*
X154423866Y-73511904D01*
X154423866Y-73511904D02*
X154614342Y-73511904D01*
X154614342Y-73511904D02*
X154709580Y-73464285D01*
X154709580Y-73464285D02*
X154757200Y-73416666D01*
X154757200Y-73416666D02*
X154804819Y-73321428D01*
X154804819Y-73321428D02*
X154804819Y-73130952D01*
X154804819Y-73130952D02*
X154757200Y-73035714D01*
X154757200Y-73035714D02*
X154709580Y-72988095D01*
X154709580Y-72988095D02*
X154614342Y-72940476D01*
X154614342Y-72940476D02*
X154423866Y-72940476D01*
X154423866Y-72940476D02*
X154328628Y-72988095D01*
X154328628Y-72988095D02*
X154281009Y-73035714D01*
X154281009Y-73035714D02*
X154233390Y-73130952D01*
X125347260Y-229930011D02*
X125347260Y-230645703D01*
X125347260Y-230645703D02*
X125299548Y-230788842D01*
X125299548Y-230788842D02*
X125204122Y-230884268D01*
X125204122Y-230884268D02*
X125060984Y-230931980D01*
X125060984Y-230931980D02*
X124965558Y-230931980D01*
X125728963Y-229930011D02*
X126349229Y-229930011D01*
X126349229Y-229930011D02*
X126015240Y-230311714D01*
X126015240Y-230311714D02*
X126158378Y-230311714D01*
X126158378Y-230311714D02*
X126253804Y-230359427D01*
X126253804Y-230359427D02*
X126301517Y-230407139D01*
X126301517Y-230407139D02*
X126349229Y-230502565D01*
X126349229Y-230502565D02*
X126349229Y-230741129D01*
X126349229Y-230741129D02*
X126301517Y-230836555D01*
X126301517Y-230836555D02*
X126253804Y-230884268D01*
X126253804Y-230884268D02*
X126158378Y-230931980D01*
X126158378Y-230931980D02*
X125872101Y-230931980D01*
X125872101Y-230931980D02*
X125776676Y-230884268D01*
X125776676Y-230884268D02*
X125728963Y-230836555D01*
X111359580Y-220142857D02*
X111407200Y-220190476D01*
X111407200Y-220190476D02*
X111454819Y-220333333D01*
X111454819Y-220333333D02*
X111454819Y-220428571D01*
X111454819Y-220428571D02*
X111407200Y-220571428D01*
X111407200Y-220571428D02*
X111311961Y-220666666D01*
X111311961Y-220666666D02*
X111216723Y-220714285D01*
X111216723Y-220714285D02*
X111026247Y-220761904D01*
X111026247Y-220761904D02*
X110883390Y-220761904D01*
X110883390Y-220761904D02*
X110692914Y-220714285D01*
X110692914Y-220714285D02*
X110597676Y-220666666D01*
X110597676Y-220666666D02*
X110502438Y-220571428D01*
X110502438Y-220571428D02*
X110454819Y-220428571D01*
X110454819Y-220428571D02*
X110454819Y-220333333D01*
X110454819Y-220333333D02*
X110502438Y-220190476D01*
X110502438Y-220190476D02*
X110550057Y-220142857D01*
X110550057Y-219761904D02*
X110502438Y-219714285D01*
X110502438Y-219714285D02*
X110454819Y-219619047D01*
X110454819Y-219619047D02*
X110454819Y-219380952D01*
X110454819Y-219380952D02*
X110502438Y-219285714D01*
X110502438Y-219285714D02*
X110550057Y-219238095D01*
X110550057Y-219238095D02*
X110645295Y-219190476D01*
X110645295Y-219190476D02*
X110740533Y-219190476D01*
X110740533Y-219190476D02*
X110883390Y-219238095D01*
X110883390Y-219238095D02*
X111454819Y-219809523D01*
X111454819Y-219809523D02*
X111454819Y-219190476D01*
X110454819Y-218333333D02*
X110454819Y-218523809D01*
X110454819Y-218523809D02*
X110502438Y-218619047D01*
X110502438Y-218619047D02*
X110550057Y-218666666D01*
X110550057Y-218666666D02*
X110692914Y-218761904D01*
X110692914Y-218761904D02*
X110883390Y-218809523D01*
X110883390Y-218809523D02*
X111264342Y-218809523D01*
X111264342Y-218809523D02*
X111359580Y-218761904D01*
X111359580Y-218761904D02*
X111407200Y-218714285D01*
X111407200Y-218714285D02*
X111454819Y-218619047D01*
X111454819Y-218619047D02*
X111454819Y-218428571D01*
X111454819Y-218428571D02*
X111407200Y-218333333D01*
X111407200Y-218333333D02*
X111359580Y-218285714D01*
X111359580Y-218285714D02*
X111264342Y-218238095D01*
X111264342Y-218238095D02*
X111026247Y-218238095D01*
X111026247Y-218238095D02*
X110931009Y-218285714D01*
X110931009Y-218285714D02*
X110883390Y-218333333D01*
X110883390Y-218333333D02*
X110835771Y-218428571D01*
X110835771Y-218428571D02*
X110835771Y-218619047D01*
X110835771Y-218619047D02*
X110883390Y-218714285D01*
X110883390Y-218714285D02*
X110931009Y-218761904D01*
X110931009Y-218761904D02*
X111026247Y-218809523D01*
X92488095Y-56404819D02*
X92488095Y-55404819D01*
X92488095Y-55881009D02*
X93059523Y-55881009D01*
X93059523Y-56404819D02*
X93059523Y-55404819D01*
X93488095Y-55500057D02*
X93535714Y-55452438D01*
X93535714Y-55452438D02*
X93630952Y-55404819D01*
X93630952Y-55404819D02*
X93869047Y-55404819D01*
X93869047Y-55404819D02*
X93964285Y-55452438D01*
X93964285Y-55452438D02*
X94011904Y-55500057D01*
X94011904Y-55500057D02*
X94059523Y-55595295D01*
X94059523Y-55595295D02*
X94059523Y-55690533D01*
X94059523Y-55690533D02*
X94011904Y-55833390D01*
X94011904Y-55833390D02*
X93440476Y-56404819D01*
X93440476Y-56404819D02*
X94059523Y-56404819D01*
X102859580Y-203166666D02*
X102907200Y-203214285D01*
X102907200Y-203214285D02*
X102954819Y-203357142D01*
X102954819Y-203357142D02*
X102954819Y-203452380D01*
X102954819Y-203452380D02*
X102907200Y-203595237D01*
X102907200Y-203595237D02*
X102811961Y-203690475D01*
X102811961Y-203690475D02*
X102716723Y-203738094D01*
X102716723Y-203738094D02*
X102526247Y-203785713D01*
X102526247Y-203785713D02*
X102383390Y-203785713D01*
X102383390Y-203785713D02*
X102192914Y-203738094D01*
X102192914Y-203738094D02*
X102097676Y-203690475D01*
X102097676Y-203690475D02*
X102002438Y-203595237D01*
X102002438Y-203595237D02*
X101954819Y-203452380D01*
X101954819Y-203452380D02*
X101954819Y-203357142D01*
X101954819Y-203357142D02*
X102002438Y-203214285D01*
X102002438Y-203214285D02*
X102050057Y-203166666D01*
X102954819Y-202690475D02*
X102954819Y-202499999D01*
X102954819Y-202499999D02*
X102907200Y-202404761D01*
X102907200Y-202404761D02*
X102859580Y-202357142D01*
X102859580Y-202357142D02*
X102716723Y-202261904D01*
X102716723Y-202261904D02*
X102526247Y-202214285D01*
X102526247Y-202214285D02*
X102145295Y-202214285D01*
X102145295Y-202214285D02*
X102050057Y-202261904D01*
X102050057Y-202261904D02*
X102002438Y-202309523D01*
X102002438Y-202309523D02*
X101954819Y-202404761D01*
X101954819Y-202404761D02*
X101954819Y-202595237D01*
X101954819Y-202595237D02*
X102002438Y-202690475D01*
X102002438Y-202690475D02*
X102050057Y-202738094D01*
X102050057Y-202738094D02*
X102145295Y-202785713D01*
X102145295Y-202785713D02*
X102383390Y-202785713D01*
X102383390Y-202785713D02*
X102478628Y-202738094D01*
X102478628Y-202738094D02*
X102526247Y-202690475D01*
X102526247Y-202690475D02*
X102573866Y-202595237D01*
X102573866Y-202595237D02*
X102573866Y-202404761D01*
X102573866Y-202404761D02*
X102526247Y-202309523D01*
X102526247Y-202309523D02*
X102478628Y-202261904D01*
X102478628Y-202261904D02*
X102383390Y-202214285D01*
X100738095Y-241454819D02*
X100738095Y-242264342D01*
X100738095Y-242264342D02*
X100785714Y-242359580D01*
X100785714Y-242359580D02*
X100833333Y-242407200D01*
X100833333Y-242407200D02*
X100928571Y-242454819D01*
X100928571Y-242454819D02*
X101119047Y-242454819D01*
X101119047Y-242454819D02*
X101214285Y-242407200D01*
X101214285Y-242407200D02*
X101261904Y-242359580D01*
X101261904Y-242359580D02*
X101309523Y-242264342D01*
X101309523Y-242264342D02*
X101309523Y-241454819D01*
X101833333Y-242454819D02*
X102023809Y-242454819D01*
X102023809Y-242454819D02*
X102119047Y-242407200D01*
X102119047Y-242407200D02*
X102166666Y-242359580D01*
X102166666Y-242359580D02*
X102261904Y-242216723D01*
X102261904Y-242216723D02*
X102309523Y-242026247D01*
X102309523Y-242026247D02*
X102309523Y-241645295D01*
X102309523Y-241645295D02*
X102261904Y-241550057D01*
X102261904Y-241550057D02*
X102214285Y-241502438D01*
X102214285Y-241502438D02*
X102119047Y-241454819D01*
X102119047Y-241454819D02*
X101928571Y-241454819D01*
X101928571Y-241454819D02*
X101833333Y-241502438D01*
X101833333Y-241502438D02*
X101785714Y-241550057D01*
X101785714Y-241550057D02*
X101738095Y-241645295D01*
X101738095Y-241645295D02*
X101738095Y-241883390D01*
X101738095Y-241883390D02*
X101785714Y-241978628D01*
X101785714Y-241978628D02*
X101833333Y-242026247D01*
X101833333Y-242026247D02*
X101928571Y-242073866D01*
X101928571Y-242073866D02*
X102119047Y-242073866D01*
X102119047Y-242073866D02*
X102214285Y-242026247D01*
X102214285Y-242026247D02*
X102261904Y-241978628D01*
X102261904Y-241978628D02*
X102309523Y-241883390D01*
X100607142Y-187554819D02*
X100273809Y-187078628D01*
X100035714Y-187554819D02*
X100035714Y-186554819D01*
X100035714Y-186554819D02*
X100416666Y-186554819D01*
X100416666Y-186554819D02*
X100511904Y-186602438D01*
X100511904Y-186602438D02*
X100559523Y-186650057D01*
X100559523Y-186650057D02*
X100607142Y-186745295D01*
X100607142Y-186745295D02*
X100607142Y-186888152D01*
X100607142Y-186888152D02*
X100559523Y-186983390D01*
X100559523Y-186983390D02*
X100511904Y-187031009D01*
X100511904Y-187031009D02*
X100416666Y-187078628D01*
X100416666Y-187078628D02*
X100035714Y-187078628D01*
X101559523Y-187554819D02*
X100988095Y-187554819D01*
X101273809Y-187554819D02*
X101273809Y-186554819D01*
X101273809Y-186554819D02*
X101178571Y-186697676D01*
X101178571Y-186697676D02*
X101083333Y-186792914D01*
X101083333Y-186792914D02*
X100988095Y-186840533D01*
X101940476Y-186650057D02*
X101988095Y-186602438D01*
X101988095Y-186602438D02*
X102083333Y-186554819D01*
X102083333Y-186554819D02*
X102321428Y-186554819D01*
X102321428Y-186554819D02*
X102416666Y-186602438D01*
X102416666Y-186602438D02*
X102464285Y-186650057D01*
X102464285Y-186650057D02*
X102511904Y-186745295D01*
X102511904Y-186745295D02*
X102511904Y-186840533D01*
X102511904Y-186840533D02*
X102464285Y-186983390D01*
X102464285Y-186983390D02*
X101892857Y-187554819D01*
X101892857Y-187554819D02*
X102511904Y-187554819D01*
X122535714Y-209673569D02*
X122535714Y-208673569D01*
X122535714Y-208673569D02*
X122773809Y-208673569D01*
X122773809Y-208673569D02*
X122916666Y-208721188D01*
X122916666Y-208721188D02*
X123011904Y-208816426D01*
X123011904Y-208816426D02*
X123059523Y-208911664D01*
X123059523Y-208911664D02*
X123107142Y-209102140D01*
X123107142Y-209102140D02*
X123107142Y-209244997D01*
X123107142Y-209244997D02*
X123059523Y-209435473D01*
X123059523Y-209435473D02*
X123011904Y-209530711D01*
X123011904Y-209530711D02*
X122916666Y-209625950D01*
X122916666Y-209625950D02*
X122773809Y-209673569D01*
X122773809Y-209673569D02*
X122535714Y-209673569D01*
X124059523Y-209673569D02*
X123488095Y-209673569D01*
X123773809Y-209673569D02*
X123773809Y-208673569D01*
X123773809Y-208673569D02*
X123678571Y-208816426D01*
X123678571Y-208816426D02*
X123583333Y-208911664D01*
X123583333Y-208911664D02*
X123488095Y-208959283D01*
X124440476Y-208768807D02*
X124488095Y-208721188D01*
X124488095Y-208721188D02*
X124583333Y-208673569D01*
X124583333Y-208673569D02*
X124821428Y-208673569D01*
X124821428Y-208673569D02*
X124916666Y-208721188D01*
X124916666Y-208721188D02*
X124964285Y-208768807D01*
X124964285Y-208768807D02*
X125011904Y-208864045D01*
X125011904Y-208864045D02*
X125011904Y-208959283D01*
X125011904Y-208959283D02*
X124964285Y-209102140D01*
X124964285Y-209102140D02*
X124392857Y-209673569D01*
X124392857Y-209673569D02*
X125011904Y-209673569D01*
X117385714Y-209673569D02*
X117385714Y-208673569D01*
X117385714Y-208673569D02*
X117623809Y-208673569D01*
X117623809Y-208673569D02*
X117766666Y-208721188D01*
X117766666Y-208721188D02*
X117861904Y-208816426D01*
X117861904Y-208816426D02*
X117909523Y-208911664D01*
X117909523Y-208911664D02*
X117957142Y-209102140D01*
X117957142Y-209102140D02*
X117957142Y-209244997D01*
X117957142Y-209244997D02*
X117909523Y-209435473D01*
X117909523Y-209435473D02*
X117861904Y-209530711D01*
X117861904Y-209530711D02*
X117766666Y-209625950D01*
X117766666Y-209625950D02*
X117623809Y-209673569D01*
X117623809Y-209673569D02*
X117385714Y-209673569D01*
X118909523Y-209673569D02*
X118338095Y-209673569D01*
X118623809Y-209673569D02*
X118623809Y-208673569D01*
X118623809Y-208673569D02*
X118528571Y-208816426D01*
X118528571Y-208816426D02*
X118433333Y-208911664D01*
X118433333Y-208911664D02*
X118338095Y-208959283D01*
X119242857Y-208673569D02*
X119861904Y-208673569D01*
X119861904Y-208673569D02*
X119528571Y-209054521D01*
X119528571Y-209054521D02*
X119671428Y-209054521D01*
X119671428Y-209054521D02*
X119766666Y-209102140D01*
X119766666Y-209102140D02*
X119814285Y-209149759D01*
X119814285Y-209149759D02*
X119861904Y-209244997D01*
X119861904Y-209244997D02*
X119861904Y-209483092D01*
X119861904Y-209483092D02*
X119814285Y-209578330D01*
X119814285Y-209578330D02*
X119766666Y-209625950D01*
X119766666Y-209625950D02*
X119671428Y-209673569D01*
X119671428Y-209673569D02*
X119385714Y-209673569D01*
X119385714Y-209673569D02*
X119290476Y-209625950D01*
X119290476Y-209625950D02*
X119242857Y-209578330D01*
X149190476Y-36204819D02*
X149190476Y-35204819D01*
X149190476Y-35204819D02*
X149523809Y-35919104D01*
X149523809Y-35919104D02*
X149857142Y-35204819D01*
X149857142Y-35204819D02*
X149857142Y-36204819D01*
X150857142Y-36204819D02*
X150285714Y-36204819D01*
X150571428Y-36204819D02*
X150571428Y-35204819D01*
X150571428Y-35204819D02*
X150476190Y-35347676D01*
X150476190Y-35347676D02*
X150380952Y-35442914D01*
X150380952Y-35442914D02*
X150285714Y-35490533D01*
X99654761Y-233300057D02*
X99559523Y-233252438D01*
X99559523Y-233252438D02*
X99464285Y-233157200D01*
X99464285Y-233157200D02*
X99321428Y-233014342D01*
X99321428Y-233014342D02*
X99226190Y-232966723D01*
X99226190Y-232966723D02*
X99130952Y-232966723D01*
X99178571Y-233204819D02*
X99083333Y-233157200D01*
X99083333Y-233157200D02*
X98988095Y-233061961D01*
X98988095Y-233061961D02*
X98940476Y-232871485D01*
X98940476Y-232871485D02*
X98940476Y-232538152D01*
X98940476Y-232538152D02*
X98988095Y-232347676D01*
X98988095Y-232347676D02*
X99083333Y-232252438D01*
X99083333Y-232252438D02*
X99178571Y-232204819D01*
X99178571Y-232204819D02*
X99369047Y-232204819D01*
X99369047Y-232204819D02*
X99464285Y-232252438D01*
X99464285Y-232252438D02*
X99559523Y-232347676D01*
X99559523Y-232347676D02*
X99607142Y-232538152D01*
X99607142Y-232538152D02*
X99607142Y-232871485D01*
X99607142Y-232871485D02*
X99559523Y-233061961D01*
X99559523Y-233061961D02*
X99464285Y-233157200D01*
X99464285Y-233157200D02*
X99369047Y-233204819D01*
X99369047Y-233204819D02*
X99178571Y-233204819D01*
X100464285Y-232204819D02*
X100273809Y-232204819D01*
X100273809Y-232204819D02*
X100178571Y-232252438D01*
X100178571Y-232252438D02*
X100130952Y-232300057D01*
X100130952Y-232300057D02*
X100035714Y-232442914D01*
X100035714Y-232442914D02*
X99988095Y-232633390D01*
X99988095Y-232633390D02*
X99988095Y-233014342D01*
X99988095Y-233014342D02*
X100035714Y-233109580D01*
X100035714Y-233109580D02*
X100083333Y-233157200D01*
X100083333Y-233157200D02*
X100178571Y-233204819D01*
X100178571Y-233204819D02*
X100369047Y-233204819D01*
X100369047Y-233204819D02*
X100464285Y-233157200D01*
X100464285Y-233157200D02*
X100511904Y-233109580D01*
X100511904Y-233109580D02*
X100559523Y-233014342D01*
X100559523Y-233014342D02*
X100559523Y-232776247D01*
X100559523Y-232776247D02*
X100511904Y-232681009D01*
X100511904Y-232681009D02*
X100464285Y-232633390D01*
X100464285Y-232633390D02*
X100369047Y-232585771D01*
X100369047Y-232585771D02*
X100178571Y-232585771D01*
X100178571Y-232585771D02*
X100083333Y-232633390D01*
X100083333Y-232633390D02*
X100035714Y-232681009D01*
X100035714Y-232681009D02*
X99988095Y-232776247D01*
X133107142Y-159109580D02*
X133059523Y-159157200D01*
X133059523Y-159157200D02*
X132916666Y-159204819D01*
X132916666Y-159204819D02*
X132821428Y-159204819D01*
X132821428Y-159204819D02*
X132678571Y-159157200D01*
X132678571Y-159157200D02*
X132583333Y-159061961D01*
X132583333Y-159061961D02*
X132535714Y-158966723D01*
X132535714Y-158966723D02*
X132488095Y-158776247D01*
X132488095Y-158776247D02*
X132488095Y-158633390D01*
X132488095Y-158633390D02*
X132535714Y-158442914D01*
X132535714Y-158442914D02*
X132583333Y-158347676D01*
X132583333Y-158347676D02*
X132678571Y-158252438D01*
X132678571Y-158252438D02*
X132821428Y-158204819D01*
X132821428Y-158204819D02*
X132916666Y-158204819D01*
X132916666Y-158204819D02*
X133059523Y-158252438D01*
X133059523Y-158252438D02*
X133107142Y-158300057D01*
X133488095Y-158300057D02*
X133535714Y-158252438D01*
X133535714Y-158252438D02*
X133630952Y-158204819D01*
X133630952Y-158204819D02*
X133869047Y-158204819D01*
X133869047Y-158204819D02*
X133964285Y-158252438D01*
X133964285Y-158252438D02*
X134011904Y-158300057D01*
X134011904Y-158300057D02*
X134059523Y-158395295D01*
X134059523Y-158395295D02*
X134059523Y-158490533D01*
X134059523Y-158490533D02*
X134011904Y-158633390D01*
X134011904Y-158633390D02*
X133440476Y-159204819D01*
X133440476Y-159204819D02*
X134059523Y-159204819D01*
X134964285Y-158204819D02*
X134488095Y-158204819D01*
X134488095Y-158204819D02*
X134440476Y-158681009D01*
X134440476Y-158681009D02*
X134488095Y-158633390D01*
X134488095Y-158633390D02*
X134583333Y-158585771D01*
X134583333Y-158585771D02*
X134821428Y-158585771D01*
X134821428Y-158585771D02*
X134916666Y-158633390D01*
X134916666Y-158633390D02*
X134964285Y-158681009D01*
X134964285Y-158681009D02*
X135011904Y-158776247D01*
X135011904Y-158776247D02*
X135011904Y-159014342D01*
X135011904Y-159014342D02*
X134964285Y-159109580D01*
X134964285Y-159109580D02*
X134916666Y-159157200D01*
X134916666Y-159157200D02*
X134821428Y-159204819D01*
X134821428Y-159204819D02*
X134583333Y-159204819D01*
X134583333Y-159204819D02*
X134488095Y-159157200D01*
X134488095Y-159157200D02*
X134440476Y-159109580D01*
X160204819Y-121892857D02*
X159728628Y-122226190D01*
X160204819Y-122464285D02*
X159204819Y-122464285D01*
X159204819Y-122464285D02*
X159204819Y-122083333D01*
X159204819Y-122083333D02*
X159252438Y-121988095D01*
X159252438Y-121988095D02*
X159300057Y-121940476D01*
X159300057Y-121940476D02*
X159395295Y-121892857D01*
X159395295Y-121892857D02*
X159538152Y-121892857D01*
X159538152Y-121892857D02*
X159633390Y-121940476D01*
X159633390Y-121940476D02*
X159681009Y-121988095D01*
X159681009Y-121988095D02*
X159728628Y-122083333D01*
X159728628Y-122083333D02*
X159728628Y-122464285D01*
X159300057Y-121511904D02*
X159252438Y-121464285D01*
X159252438Y-121464285D02*
X159204819Y-121369047D01*
X159204819Y-121369047D02*
X159204819Y-121130952D01*
X159204819Y-121130952D02*
X159252438Y-121035714D01*
X159252438Y-121035714D02*
X159300057Y-120988095D01*
X159300057Y-120988095D02*
X159395295Y-120940476D01*
X159395295Y-120940476D02*
X159490533Y-120940476D01*
X159490533Y-120940476D02*
X159633390Y-120988095D01*
X159633390Y-120988095D02*
X160204819Y-121559523D01*
X160204819Y-121559523D02*
X160204819Y-120940476D01*
X160204819Y-119988095D02*
X160204819Y-120559523D01*
X160204819Y-120273809D02*
X159204819Y-120273809D01*
X159204819Y-120273809D02*
X159347676Y-120369047D01*
X159347676Y-120369047D02*
X159442914Y-120464285D01*
X159442914Y-120464285D02*
X159490533Y-120559523D01*
X122535714Y-205923569D02*
X122535714Y-204923569D01*
X122535714Y-204923569D02*
X122773809Y-204923569D01*
X122773809Y-204923569D02*
X122916666Y-204971188D01*
X122916666Y-204971188D02*
X123011904Y-205066426D01*
X123011904Y-205066426D02*
X123059523Y-205161664D01*
X123059523Y-205161664D02*
X123107142Y-205352140D01*
X123107142Y-205352140D02*
X123107142Y-205494997D01*
X123107142Y-205494997D02*
X123059523Y-205685473D01*
X123059523Y-205685473D02*
X123011904Y-205780711D01*
X123011904Y-205780711D02*
X122916666Y-205875950D01*
X122916666Y-205875950D02*
X122773809Y-205923569D01*
X122773809Y-205923569D02*
X122535714Y-205923569D01*
X124059523Y-205923569D02*
X123488095Y-205923569D01*
X123773809Y-205923569D02*
X123773809Y-204923569D01*
X123773809Y-204923569D02*
X123678571Y-205066426D01*
X123678571Y-205066426D02*
X123583333Y-205161664D01*
X123583333Y-205161664D02*
X123488095Y-205209283D01*
X125011904Y-205923569D02*
X124440476Y-205923569D01*
X124726190Y-205923569D02*
X124726190Y-204923569D01*
X124726190Y-204923569D02*
X124630952Y-205066426D01*
X124630952Y-205066426D02*
X124535714Y-205161664D01*
X124535714Y-205161664D02*
X124440476Y-205209283D01*
X106469780Y-174582857D02*
X106517400Y-174630476D01*
X106517400Y-174630476D02*
X106565019Y-174773333D01*
X106565019Y-174773333D02*
X106565019Y-174868571D01*
X106565019Y-174868571D02*
X106517400Y-175011428D01*
X106517400Y-175011428D02*
X106422161Y-175106666D01*
X106422161Y-175106666D02*
X106326923Y-175154285D01*
X106326923Y-175154285D02*
X106136447Y-175201904D01*
X106136447Y-175201904D02*
X105993590Y-175201904D01*
X105993590Y-175201904D02*
X105803114Y-175154285D01*
X105803114Y-175154285D02*
X105707876Y-175106666D01*
X105707876Y-175106666D02*
X105612638Y-175011428D01*
X105612638Y-175011428D02*
X105565019Y-174868571D01*
X105565019Y-174868571D02*
X105565019Y-174773333D01*
X105565019Y-174773333D02*
X105612638Y-174630476D01*
X105612638Y-174630476D02*
X105660257Y-174582857D01*
X106565019Y-173630476D02*
X106565019Y-174201904D01*
X106565019Y-173916190D02*
X105565019Y-173916190D01*
X105565019Y-173916190D02*
X105707876Y-174011428D01*
X105707876Y-174011428D02*
X105803114Y-174106666D01*
X105803114Y-174106666D02*
X105850733Y-174201904D01*
X105660257Y-173249523D02*
X105612638Y-173201904D01*
X105612638Y-173201904D02*
X105565019Y-173106666D01*
X105565019Y-173106666D02*
X105565019Y-172868571D01*
X105565019Y-172868571D02*
X105612638Y-172773333D01*
X105612638Y-172773333D02*
X105660257Y-172725714D01*
X105660257Y-172725714D02*
X105755495Y-172678095D01*
X105755495Y-172678095D02*
X105850733Y-172678095D01*
X105850733Y-172678095D02*
X105993590Y-172725714D01*
X105993590Y-172725714D02*
X106565019Y-173297142D01*
X106565019Y-173297142D02*
X106565019Y-172678095D01*
X108152533Y-173104761D02*
X108152533Y-172495238D01*
X108457295Y-172799999D02*
X107847771Y-172799999D01*
X100107142Y-240859580D02*
X100059523Y-240907200D01*
X100059523Y-240907200D02*
X99916666Y-240954819D01*
X99916666Y-240954819D02*
X99821428Y-240954819D01*
X99821428Y-240954819D02*
X99678571Y-240907200D01*
X99678571Y-240907200D02*
X99583333Y-240811961D01*
X99583333Y-240811961D02*
X99535714Y-240716723D01*
X99535714Y-240716723D02*
X99488095Y-240526247D01*
X99488095Y-240526247D02*
X99488095Y-240383390D01*
X99488095Y-240383390D02*
X99535714Y-240192914D01*
X99535714Y-240192914D02*
X99583333Y-240097676D01*
X99583333Y-240097676D02*
X99678571Y-240002438D01*
X99678571Y-240002438D02*
X99821428Y-239954819D01*
X99821428Y-239954819D02*
X99916666Y-239954819D01*
X99916666Y-239954819D02*
X100059523Y-240002438D01*
X100059523Y-240002438D02*
X100107142Y-240050057D01*
X101059523Y-240954819D02*
X100488095Y-240954819D01*
X100773809Y-240954819D02*
X100773809Y-239954819D01*
X100773809Y-239954819D02*
X100678571Y-240097676D01*
X100678571Y-240097676D02*
X100583333Y-240192914D01*
X100583333Y-240192914D02*
X100488095Y-240240533D01*
X101916666Y-240288152D02*
X101916666Y-240954819D01*
X101678571Y-239907200D02*
X101440476Y-240621485D01*
X101440476Y-240621485D02*
X102059523Y-240621485D01*
X94857142Y-140004819D02*
X94523809Y-139528628D01*
X94285714Y-140004819D02*
X94285714Y-139004819D01*
X94285714Y-139004819D02*
X94666666Y-139004819D01*
X94666666Y-139004819D02*
X94761904Y-139052438D01*
X94761904Y-139052438D02*
X94809523Y-139100057D01*
X94809523Y-139100057D02*
X94857142Y-139195295D01*
X94857142Y-139195295D02*
X94857142Y-139338152D01*
X94857142Y-139338152D02*
X94809523Y-139433390D01*
X94809523Y-139433390D02*
X94761904Y-139481009D01*
X94761904Y-139481009D02*
X94666666Y-139528628D01*
X94666666Y-139528628D02*
X94285714Y-139528628D01*
X95238095Y-139100057D02*
X95285714Y-139052438D01*
X95285714Y-139052438D02*
X95380952Y-139004819D01*
X95380952Y-139004819D02*
X95619047Y-139004819D01*
X95619047Y-139004819D02*
X95714285Y-139052438D01*
X95714285Y-139052438D02*
X95761904Y-139100057D01*
X95761904Y-139100057D02*
X95809523Y-139195295D01*
X95809523Y-139195295D02*
X95809523Y-139290533D01*
X95809523Y-139290533D02*
X95761904Y-139433390D01*
X95761904Y-139433390D02*
X95190476Y-140004819D01*
X95190476Y-140004819D02*
X95809523Y-140004819D01*
X96666666Y-139004819D02*
X96476190Y-139004819D01*
X96476190Y-139004819D02*
X96380952Y-139052438D01*
X96380952Y-139052438D02*
X96333333Y-139100057D01*
X96333333Y-139100057D02*
X96238095Y-139242914D01*
X96238095Y-139242914D02*
X96190476Y-139433390D01*
X96190476Y-139433390D02*
X96190476Y-139814342D01*
X96190476Y-139814342D02*
X96238095Y-139909580D01*
X96238095Y-139909580D02*
X96285714Y-139957200D01*
X96285714Y-139957200D02*
X96380952Y-140004819D01*
X96380952Y-140004819D02*
X96571428Y-140004819D01*
X96571428Y-140004819D02*
X96666666Y-139957200D01*
X96666666Y-139957200D02*
X96714285Y-139909580D01*
X96714285Y-139909580D02*
X96761904Y-139814342D01*
X96761904Y-139814342D02*
X96761904Y-139576247D01*
X96761904Y-139576247D02*
X96714285Y-139481009D01*
X96714285Y-139481009D02*
X96666666Y-139433390D01*
X96666666Y-139433390D02*
X96571428Y-139385771D01*
X96571428Y-139385771D02*
X96380952Y-139385771D01*
X96380952Y-139385771D02*
X96285714Y-139433390D01*
X96285714Y-139433390D02*
X96238095Y-139481009D01*
X96238095Y-139481009D02*
X96190476Y-139576247D01*
X114609580Y-167392857D02*
X114657200Y-167440476D01*
X114657200Y-167440476D02*
X114704819Y-167583333D01*
X114704819Y-167583333D02*
X114704819Y-167678571D01*
X114704819Y-167678571D02*
X114657200Y-167821428D01*
X114657200Y-167821428D02*
X114561961Y-167916666D01*
X114561961Y-167916666D02*
X114466723Y-167964285D01*
X114466723Y-167964285D02*
X114276247Y-168011904D01*
X114276247Y-168011904D02*
X114133390Y-168011904D01*
X114133390Y-168011904D02*
X113942914Y-167964285D01*
X113942914Y-167964285D02*
X113847676Y-167916666D01*
X113847676Y-167916666D02*
X113752438Y-167821428D01*
X113752438Y-167821428D02*
X113704819Y-167678571D01*
X113704819Y-167678571D02*
X113704819Y-167583333D01*
X113704819Y-167583333D02*
X113752438Y-167440476D01*
X113752438Y-167440476D02*
X113800057Y-167392857D01*
X113800057Y-167011904D02*
X113752438Y-166964285D01*
X113752438Y-166964285D02*
X113704819Y-166869047D01*
X113704819Y-166869047D02*
X113704819Y-166630952D01*
X113704819Y-166630952D02*
X113752438Y-166535714D01*
X113752438Y-166535714D02*
X113800057Y-166488095D01*
X113800057Y-166488095D02*
X113895295Y-166440476D01*
X113895295Y-166440476D02*
X113990533Y-166440476D01*
X113990533Y-166440476D02*
X114133390Y-166488095D01*
X114133390Y-166488095D02*
X114704819Y-167059523D01*
X114704819Y-167059523D02*
X114704819Y-166440476D01*
X114704819Y-165964285D02*
X114704819Y-165773809D01*
X114704819Y-165773809D02*
X114657200Y-165678571D01*
X114657200Y-165678571D02*
X114609580Y-165630952D01*
X114609580Y-165630952D02*
X114466723Y-165535714D01*
X114466723Y-165535714D02*
X114276247Y-165488095D01*
X114276247Y-165488095D02*
X113895295Y-165488095D01*
X113895295Y-165488095D02*
X113800057Y-165535714D01*
X113800057Y-165535714D02*
X113752438Y-165583333D01*
X113752438Y-165583333D02*
X113704819Y-165678571D01*
X113704819Y-165678571D02*
X113704819Y-165869047D01*
X113704819Y-165869047D02*
X113752438Y-165964285D01*
X113752438Y-165964285D02*
X113800057Y-166011904D01*
X113800057Y-166011904D02*
X113895295Y-166059523D01*
X113895295Y-166059523D02*
X114133390Y-166059523D01*
X114133390Y-166059523D02*
X114228628Y-166011904D01*
X114228628Y-166011904D02*
X114276247Y-165964285D01*
X114276247Y-165964285D02*
X114323866Y-165869047D01*
X114323866Y-165869047D02*
X114323866Y-165678571D01*
X114323866Y-165678571D02*
X114276247Y-165583333D01*
X114276247Y-165583333D02*
X114228628Y-165535714D01*
X114228628Y-165535714D02*
X114133390Y-165488095D01*
X101300057Y-61395238D02*
X101252438Y-61490476D01*
X101252438Y-61490476D02*
X101157200Y-61585714D01*
X101157200Y-61585714D02*
X101014342Y-61728571D01*
X101014342Y-61728571D02*
X100966723Y-61823809D01*
X100966723Y-61823809D02*
X100966723Y-61919047D01*
X101204819Y-61871428D02*
X101157200Y-61966666D01*
X101157200Y-61966666D02*
X101061961Y-62061904D01*
X101061961Y-62061904D02*
X100871485Y-62109523D01*
X100871485Y-62109523D02*
X100538152Y-62109523D01*
X100538152Y-62109523D02*
X100347676Y-62061904D01*
X100347676Y-62061904D02*
X100252438Y-61966666D01*
X100252438Y-61966666D02*
X100204819Y-61871428D01*
X100204819Y-61871428D02*
X100204819Y-61680952D01*
X100204819Y-61680952D02*
X100252438Y-61585714D01*
X100252438Y-61585714D02*
X100347676Y-61490476D01*
X100347676Y-61490476D02*
X100538152Y-61442857D01*
X100538152Y-61442857D02*
X100871485Y-61442857D01*
X100871485Y-61442857D02*
X101061961Y-61490476D01*
X101061961Y-61490476D02*
X101157200Y-61585714D01*
X101157200Y-61585714D02*
X101204819Y-61680952D01*
X101204819Y-61680952D02*
X101204819Y-61871428D01*
X100204819Y-61109523D02*
X100204819Y-60442857D01*
X100204819Y-60442857D02*
X101204819Y-60871428D01*
X100238095Y-221084819D02*
X100238095Y-221894342D01*
X100238095Y-221894342D02*
X100285714Y-221989580D01*
X100285714Y-221989580D02*
X100333333Y-222037200D01*
X100333333Y-222037200D02*
X100428571Y-222084819D01*
X100428571Y-222084819D02*
X100619047Y-222084819D01*
X100619047Y-222084819D02*
X100714285Y-222037200D01*
X100714285Y-222037200D02*
X100761904Y-221989580D01*
X100761904Y-221989580D02*
X100809523Y-221894342D01*
X100809523Y-221894342D02*
X100809523Y-221084819D01*
X101809523Y-222084819D02*
X101238095Y-222084819D01*
X101523809Y-222084819D02*
X101523809Y-221084819D01*
X101523809Y-221084819D02*
X101428571Y-221227676D01*
X101428571Y-221227676D02*
X101333333Y-221322914D01*
X101333333Y-221322914D02*
X101238095Y-221370533D01*
X93704819Y-236988094D02*
X92704819Y-236988094D01*
X92704819Y-236988094D02*
X92704819Y-236749999D01*
X92704819Y-236749999D02*
X92752438Y-236607142D01*
X92752438Y-236607142D02*
X92847676Y-236511904D01*
X92847676Y-236511904D02*
X92942914Y-236464285D01*
X92942914Y-236464285D02*
X93133390Y-236416666D01*
X93133390Y-236416666D02*
X93276247Y-236416666D01*
X93276247Y-236416666D02*
X93466723Y-236464285D01*
X93466723Y-236464285D02*
X93561961Y-236511904D01*
X93561961Y-236511904D02*
X93657200Y-236607142D01*
X93657200Y-236607142D02*
X93704819Y-236749999D01*
X93704819Y-236749999D02*
X93704819Y-236988094D01*
X92704819Y-236083332D02*
X92704819Y-235464285D01*
X92704819Y-235464285D02*
X93085771Y-235797618D01*
X93085771Y-235797618D02*
X93085771Y-235654761D01*
X93085771Y-235654761D02*
X93133390Y-235559523D01*
X93133390Y-235559523D02*
X93181009Y-235511904D01*
X93181009Y-235511904D02*
X93276247Y-235464285D01*
X93276247Y-235464285D02*
X93514342Y-235464285D01*
X93514342Y-235464285D02*
X93609580Y-235511904D01*
X93609580Y-235511904D02*
X93657200Y-235559523D01*
X93657200Y-235559523D02*
X93704819Y-235654761D01*
X93704819Y-235654761D02*
X93704819Y-235940475D01*
X93704819Y-235940475D02*
X93657200Y-236035713D01*
X93657200Y-236035713D02*
X93609580Y-236083332D01*
X94857142Y-130224819D02*
X94523809Y-129748628D01*
X94285714Y-130224819D02*
X94285714Y-129224819D01*
X94285714Y-129224819D02*
X94666666Y-129224819D01*
X94666666Y-129224819D02*
X94761904Y-129272438D01*
X94761904Y-129272438D02*
X94809523Y-129320057D01*
X94809523Y-129320057D02*
X94857142Y-129415295D01*
X94857142Y-129415295D02*
X94857142Y-129558152D01*
X94857142Y-129558152D02*
X94809523Y-129653390D01*
X94809523Y-129653390D02*
X94761904Y-129701009D01*
X94761904Y-129701009D02*
X94666666Y-129748628D01*
X94666666Y-129748628D02*
X94285714Y-129748628D01*
X95238095Y-129320057D02*
X95285714Y-129272438D01*
X95285714Y-129272438D02*
X95380952Y-129224819D01*
X95380952Y-129224819D02*
X95619047Y-129224819D01*
X95619047Y-129224819D02*
X95714285Y-129272438D01*
X95714285Y-129272438D02*
X95761904Y-129320057D01*
X95761904Y-129320057D02*
X95809523Y-129415295D01*
X95809523Y-129415295D02*
X95809523Y-129510533D01*
X95809523Y-129510533D02*
X95761904Y-129653390D01*
X95761904Y-129653390D02*
X95190476Y-130224819D01*
X95190476Y-130224819D02*
X95809523Y-130224819D01*
X96666666Y-129558152D02*
X96666666Y-130224819D01*
X96428571Y-129177200D02*
X96190476Y-129891485D01*
X96190476Y-129891485D02*
X96809523Y-129891485D01*
X101300057Y-84095238D02*
X101252438Y-84190476D01*
X101252438Y-84190476D02*
X101157200Y-84285714D01*
X101157200Y-84285714D02*
X101014342Y-84428571D01*
X101014342Y-84428571D02*
X100966723Y-84523809D01*
X100966723Y-84523809D02*
X100966723Y-84619047D01*
X101204819Y-84571428D02*
X101157200Y-84666666D01*
X101157200Y-84666666D02*
X101061961Y-84761904D01*
X101061961Y-84761904D02*
X100871485Y-84809523D01*
X100871485Y-84809523D02*
X100538152Y-84809523D01*
X100538152Y-84809523D02*
X100347676Y-84761904D01*
X100347676Y-84761904D02*
X100252438Y-84666666D01*
X100252438Y-84666666D02*
X100204819Y-84571428D01*
X100204819Y-84571428D02*
X100204819Y-84380952D01*
X100204819Y-84380952D02*
X100252438Y-84285714D01*
X100252438Y-84285714D02*
X100347676Y-84190476D01*
X100347676Y-84190476D02*
X100538152Y-84142857D01*
X100538152Y-84142857D02*
X100871485Y-84142857D01*
X100871485Y-84142857D02*
X101061961Y-84190476D01*
X101061961Y-84190476D02*
X101157200Y-84285714D01*
X101157200Y-84285714D02*
X101204819Y-84380952D01*
X101204819Y-84380952D02*
X101204819Y-84571428D01*
X100633390Y-83571428D02*
X100585771Y-83666666D01*
X100585771Y-83666666D02*
X100538152Y-83714285D01*
X100538152Y-83714285D02*
X100442914Y-83761904D01*
X100442914Y-83761904D02*
X100395295Y-83761904D01*
X100395295Y-83761904D02*
X100300057Y-83714285D01*
X100300057Y-83714285D02*
X100252438Y-83666666D01*
X100252438Y-83666666D02*
X100204819Y-83571428D01*
X100204819Y-83571428D02*
X100204819Y-83380952D01*
X100204819Y-83380952D02*
X100252438Y-83285714D01*
X100252438Y-83285714D02*
X100300057Y-83238095D01*
X100300057Y-83238095D02*
X100395295Y-83190476D01*
X100395295Y-83190476D02*
X100442914Y-83190476D01*
X100442914Y-83190476D02*
X100538152Y-83238095D01*
X100538152Y-83238095D02*
X100585771Y-83285714D01*
X100585771Y-83285714D02*
X100633390Y-83380952D01*
X100633390Y-83380952D02*
X100633390Y-83571428D01*
X100633390Y-83571428D02*
X100681009Y-83666666D01*
X100681009Y-83666666D02*
X100728628Y-83714285D01*
X100728628Y-83714285D02*
X100823866Y-83761904D01*
X100823866Y-83761904D02*
X101014342Y-83761904D01*
X101014342Y-83761904D02*
X101109580Y-83714285D01*
X101109580Y-83714285D02*
X101157200Y-83666666D01*
X101157200Y-83666666D02*
X101204819Y-83571428D01*
X101204819Y-83571428D02*
X101204819Y-83380952D01*
X101204819Y-83380952D02*
X101157200Y-83285714D01*
X101157200Y-83285714D02*
X101109580Y-83238095D01*
X101109580Y-83238095D02*
X101014342Y-83190476D01*
X101014342Y-83190476D02*
X100823866Y-83190476D01*
X100823866Y-83190476D02*
X100728628Y-83238095D01*
X100728628Y-83238095D02*
X100681009Y-83285714D01*
X100681009Y-83285714D02*
X100633390Y-83380952D01*
X105204819Y-197995144D02*
X106014342Y-197995144D01*
X106014342Y-197995144D02*
X106109580Y-197947525D01*
X106109580Y-197947525D02*
X106157200Y-197899906D01*
X106157200Y-197899906D02*
X106204819Y-197804668D01*
X106204819Y-197804668D02*
X106204819Y-197614192D01*
X106204819Y-197614192D02*
X106157200Y-197518954D01*
X106157200Y-197518954D02*
X106109580Y-197471335D01*
X106109580Y-197471335D02*
X106014342Y-197423716D01*
X106014342Y-197423716D02*
X105204819Y-197423716D01*
X105300057Y-196995144D02*
X105252438Y-196947525D01*
X105252438Y-196947525D02*
X105204819Y-196852287D01*
X105204819Y-196852287D02*
X105204819Y-196614192D01*
X105204819Y-196614192D02*
X105252438Y-196518954D01*
X105252438Y-196518954D02*
X105300057Y-196471335D01*
X105300057Y-196471335D02*
X105395295Y-196423716D01*
X105395295Y-196423716D02*
X105490533Y-196423716D01*
X105490533Y-196423716D02*
X105633390Y-196471335D01*
X105633390Y-196471335D02*
X106204819Y-197042763D01*
X106204819Y-197042763D02*
X106204819Y-196423716D01*
X96488095Y-169204819D02*
X96488095Y-170014342D01*
X96488095Y-170014342D02*
X96535714Y-170109580D01*
X96535714Y-170109580D02*
X96583333Y-170157200D01*
X96583333Y-170157200D02*
X96678571Y-170204819D01*
X96678571Y-170204819D02*
X96869047Y-170204819D01*
X96869047Y-170204819D02*
X96964285Y-170157200D01*
X96964285Y-170157200D02*
X97011904Y-170109580D01*
X97011904Y-170109580D02*
X97059523Y-170014342D01*
X97059523Y-170014342D02*
X97059523Y-169204819D01*
X97440476Y-169204819D02*
X98107142Y-169204819D01*
X98107142Y-169204819D02*
X97678571Y-170204819D01*
X145261904Y-207931009D02*
X144928571Y-207931009D01*
X144928571Y-208454819D02*
X144928571Y-207454819D01*
X144928571Y-207454819D02*
X145404761Y-207454819D01*
X146261904Y-208454819D02*
X145785714Y-208454819D01*
X145785714Y-208454819D02*
X145785714Y-207454819D01*
X147119047Y-208454819D02*
X146547619Y-208454819D01*
X146833333Y-208454819D02*
X146833333Y-207454819D01*
X146833333Y-207454819D02*
X146738095Y-207597676D01*
X146738095Y-207597676D02*
X146642857Y-207692914D01*
X146642857Y-207692914D02*
X146547619Y-207740533D01*
X97464704Y-187973690D02*
X96988514Y-187973690D01*
X96988514Y-187973690D02*
X96988514Y-186973690D01*
X98321847Y-187973690D02*
X97750419Y-187973690D01*
X98036133Y-187973690D02*
X98036133Y-186973690D01*
X98036133Y-186973690D02*
X97940895Y-187116547D01*
X97940895Y-187116547D02*
X97845657Y-187211785D01*
X97845657Y-187211785D02*
X97750419Y-187259404D01*
X101324819Y-118674094D02*
X100324819Y-118674094D01*
X100324819Y-118674094D02*
X100324819Y-118435999D01*
X100324819Y-118435999D02*
X100372438Y-118293142D01*
X100372438Y-118293142D02*
X100467676Y-118197904D01*
X100467676Y-118197904D02*
X100562914Y-118150285D01*
X100562914Y-118150285D02*
X100753390Y-118102666D01*
X100753390Y-118102666D02*
X100896247Y-118102666D01*
X100896247Y-118102666D02*
X101086723Y-118150285D01*
X101086723Y-118150285D02*
X101181961Y-118197904D01*
X101181961Y-118197904D02*
X101277200Y-118293142D01*
X101277200Y-118293142D02*
X101324819Y-118435999D01*
X101324819Y-118435999D02*
X101324819Y-118674094D01*
X101324819Y-117626475D02*
X101324819Y-117435999D01*
X101324819Y-117435999D02*
X101277200Y-117340761D01*
X101277200Y-117340761D02*
X101229580Y-117293142D01*
X101229580Y-117293142D02*
X101086723Y-117197904D01*
X101086723Y-117197904D02*
X100896247Y-117150285D01*
X100896247Y-117150285D02*
X100515295Y-117150285D01*
X100515295Y-117150285D02*
X100420057Y-117197904D01*
X100420057Y-117197904D02*
X100372438Y-117245523D01*
X100372438Y-117245523D02*
X100324819Y-117340761D01*
X100324819Y-117340761D02*
X100324819Y-117531237D01*
X100324819Y-117531237D02*
X100372438Y-117626475D01*
X100372438Y-117626475D02*
X100420057Y-117674094D01*
X100420057Y-117674094D02*
X100515295Y-117721713D01*
X100515295Y-117721713D02*
X100753390Y-117721713D01*
X100753390Y-117721713D02*
X100848628Y-117674094D01*
X100848628Y-117674094D02*
X100896247Y-117626475D01*
X100896247Y-117626475D02*
X100943866Y-117531237D01*
X100943866Y-117531237D02*
X100943866Y-117340761D01*
X100943866Y-117340761D02*
X100896247Y-117245523D01*
X100896247Y-117245523D02*
X100848628Y-117197904D01*
X100848628Y-117197904D02*
X100753390Y-117150285D01*
X93704819Y-233916666D02*
X93228628Y-234249999D01*
X93704819Y-234488094D02*
X92704819Y-234488094D01*
X92704819Y-234488094D02*
X92704819Y-234107142D01*
X92704819Y-234107142D02*
X92752438Y-234011904D01*
X92752438Y-234011904D02*
X92800057Y-233964285D01*
X92800057Y-233964285D02*
X92895295Y-233916666D01*
X92895295Y-233916666D02*
X93038152Y-233916666D01*
X93038152Y-233916666D02*
X93133390Y-233964285D01*
X93133390Y-233964285D02*
X93181009Y-234011904D01*
X93181009Y-234011904D02*
X93228628Y-234107142D01*
X93228628Y-234107142D02*
X93228628Y-234488094D01*
X92704819Y-233059523D02*
X92704819Y-233249999D01*
X92704819Y-233249999D02*
X92752438Y-233345237D01*
X92752438Y-233345237D02*
X92800057Y-233392856D01*
X92800057Y-233392856D02*
X92942914Y-233488094D01*
X92942914Y-233488094D02*
X93133390Y-233535713D01*
X93133390Y-233535713D02*
X93514342Y-233535713D01*
X93514342Y-233535713D02*
X93609580Y-233488094D01*
X93609580Y-233488094D02*
X93657200Y-233440475D01*
X93657200Y-233440475D02*
X93704819Y-233345237D01*
X93704819Y-233345237D02*
X93704819Y-233154761D01*
X93704819Y-233154761D02*
X93657200Y-233059523D01*
X93657200Y-233059523D02*
X93609580Y-233011904D01*
X93609580Y-233011904D02*
X93514342Y-232964285D01*
X93514342Y-232964285D02*
X93276247Y-232964285D01*
X93276247Y-232964285D02*
X93181009Y-233011904D01*
X93181009Y-233011904D02*
X93133390Y-233059523D01*
X93133390Y-233059523D02*
X93085771Y-233154761D01*
X93085771Y-233154761D02*
X93085771Y-233345237D01*
X93085771Y-233345237D02*
X93133390Y-233440475D01*
X93133390Y-233440475D02*
X93181009Y-233488094D01*
X93181009Y-233488094D02*
X93276247Y-233535713D01*
X113704819Y-220142857D02*
X113228628Y-220476190D01*
X113704819Y-220714285D02*
X112704819Y-220714285D01*
X112704819Y-220714285D02*
X112704819Y-220333333D01*
X112704819Y-220333333D02*
X112752438Y-220238095D01*
X112752438Y-220238095D02*
X112800057Y-220190476D01*
X112800057Y-220190476D02*
X112895295Y-220142857D01*
X112895295Y-220142857D02*
X113038152Y-220142857D01*
X113038152Y-220142857D02*
X113133390Y-220190476D01*
X113133390Y-220190476D02*
X113181009Y-220238095D01*
X113181009Y-220238095D02*
X113228628Y-220333333D01*
X113228628Y-220333333D02*
X113228628Y-220714285D01*
X112800057Y-219761904D02*
X112752438Y-219714285D01*
X112752438Y-219714285D02*
X112704819Y-219619047D01*
X112704819Y-219619047D02*
X112704819Y-219380952D01*
X112704819Y-219380952D02*
X112752438Y-219285714D01*
X112752438Y-219285714D02*
X112800057Y-219238095D01*
X112800057Y-219238095D02*
X112895295Y-219190476D01*
X112895295Y-219190476D02*
X112990533Y-219190476D01*
X112990533Y-219190476D02*
X113133390Y-219238095D01*
X113133390Y-219238095D02*
X113704819Y-219809523D01*
X113704819Y-219809523D02*
X113704819Y-219190476D01*
X112704819Y-218571428D02*
X112704819Y-218476190D01*
X112704819Y-218476190D02*
X112752438Y-218380952D01*
X112752438Y-218380952D02*
X112800057Y-218333333D01*
X112800057Y-218333333D02*
X112895295Y-218285714D01*
X112895295Y-218285714D02*
X113085771Y-218238095D01*
X113085771Y-218238095D02*
X113323866Y-218238095D01*
X113323866Y-218238095D02*
X113514342Y-218285714D01*
X113514342Y-218285714D02*
X113609580Y-218333333D01*
X113609580Y-218333333D02*
X113657200Y-218380952D01*
X113657200Y-218380952D02*
X113704819Y-218476190D01*
X113704819Y-218476190D02*
X113704819Y-218571428D01*
X113704819Y-218571428D02*
X113657200Y-218666666D01*
X113657200Y-218666666D02*
X113609580Y-218714285D01*
X113609580Y-218714285D02*
X113514342Y-218761904D01*
X113514342Y-218761904D02*
X113323866Y-218809523D01*
X113323866Y-218809523D02*
X113085771Y-218809523D01*
X113085771Y-218809523D02*
X112895295Y-218761904D01*
X112895295Y-218761904D02*
X112800057Y-218714285D01*
X112800057Y-218714285D02*
X112752438Y-218666666D01*
X112752438Y-218666666D02*
X112704819Y-218571428D01*
X151550057Y-84771428D02*
X151502438Y-84866666D01*
X151502438Y-84866666D02*
X151407200Y-84961904D01*
X151407200Y-84961904D02*
X151264342Y-85104761D01*
X151264342Y-85104761D02*
X151216723Y-85199999D01*
X151216723Y-85199999D02*
X151216723Y-85295237D01*
X151454819Y-85247618D02*
X151407200Y-85342856D01*
X151407200Y-85342856D02*
X151311961Y-85438094D01*
X151311961Y-85438094D02*
X151121485Y-85485713D01*
X151121485Y-85485713D02*
X150788152Y-85485713D01*
X150788152Y-85485713D02*
X150597676Y-85438094D01*
X150597676Y-85438094D02*
X150502438Y-85342856D01*
X150502438Y-85342856D02*
X150454819Y-85247618D01*
X150454819Y-85247618D02*
X150454819Y-85057142D01*
X150454819Y-85057142D02*
X150502438Y-84961904D01*
X150502438Y-84961904D02*
X150597676Y-84866666D01*
X150597676Y-84866666D02*
X150788152Y-84819047D01*
X150788152Y-84819047D02*
X151121485Y-84819047D01*
X151121485Y-84819047D02*
X151311961Y-84866666D01*
X151311961Y-84866666D02*
X151407200Y-84961904D01*
X151407200Y-84961904D02*
X151454819Y-85057142D01*
X151454819Y-85057142D02*
X151454819Y-85247618D01*
X151454819Y-83866666D02*
X151454819Y-84438094D01*
X151454819Y-84152380D02*
X150454819Y-84152380D01*
X150454819Y-84152380D02*
X150597676Y-84247618D01*
X150597676Y-84247618D02*
X150692914Y-84342856D01*
X150692914Y-84342856D02*
X150740533Y-84438094D01*
X150454819Y-83247618D02*
X150454819Y-83152380D01*
X150454819Y-83152380D02*
X150502438Y-83057142D01*
X150502438Y-83057142D02*
X150550057Y-83009523D01*
X150550057Y-83009523D02*
X150645295Y-82961904D01*
X150645295Y-82961904D02*
X150835771Y-82914285D01*
X150835771Y-82914285D02*
X151073866Y-82914285D01*
X151073866Y-82914285D02*
X151264342Y-82961904D01*
X151264342Y-82961904D02*
X151359580Y-83009523D01*
X151359580Y-83009523D02*
X151407200Y-83057142D01*
X151407200Y-83057142D02*
X151454819Y-83152380D01*
X151454819Y-83152380D02*
X151454819Y-83247618D01*
X151454819Y-83247618D02*
X151407200Y-83342856D01*
X151407200Y-83342856D02*
X151359580Y-83390475D01*
X151359580Y-83390475D02*
X151264342Y-83438094D01*
X151264342Y-83438094D02*
X151073866Y-83485713D01*
X151073866Y-83485713D02*
X150835771Y-83485713D01*
X150835771Y-83485713D02*
X150645295Y-83438094D01*
X150645295Y-83438094D02*
X150550057Y-83390475D01*
X150550057Y-83390475D02*
X150502438Y-83342856D01*
X150502438Y-83342856D02*
X150454819Y-83247618D01*
X94857142Y-120334819D02*
X94523809Y-119858628D01*
X94285714Y-120334819D02*
X94285714Y-119334819D01*
X94285714Y-119334819D02*
X94666666Y-119334819D01*
X94666666Y-119334819D02*
X94761904Y-119382438D01*
X94761904Y-119382438D02*
X94809523Y-119430057D01*
X94809523Y-119430057D02*
X94857142Y-119525295D01*
X94857142Y-119525295D02*
X94857142Y-119668152D01*
X94857142Y-119668152D02*
X94809523Y-119763390D01*
X94809523Y-119763390D02*
X94761904Y-119811009D01*
X94761904Y-119811009D02*
X94666666Y-119858628D01*
X94666666Y-119858628D02*
X94285714Y-119858628D01*
X95238095Y-119430057D02*
X95285714Y-119382438D01*
X95285714Y-119382438D02*
X95380952Y-119334819D01*
X95380952Y-119334819D02*
X95619047Y-119334819D01*
X95619047Y-119334819D02*
X95714285Y-119382438D01*
X95714285Y-119382438D02*
X95761904Y-119430057D01*
X95761904Y-119430057D02*
X95809523Y-119525295D01*
X95809523Y-119525295D02*
X95809523Y-119620533D01*
X95809523Y-119620533D02*
X95761904Y-119763390D01*
X95761904Y-119763390D02*
X95190476Y-120334819D01*
X95190476Y-120334819D02*
X95809523Y-120334819D01*
X96190476Y-119430057D02*
X96238095Y-119382438D01*
X96238095Y-119382438D02*
X96333333Y-119334819D01*
X96333333Y-119334819D02*
X96571428Y-119334819D01*
X96571428Y-119334819D02*
X96666666Y-119382438D01*
X96666666Y-119382438D02*
X96714285Y-119430057D01*
X96714285Y-119430057D02*
X96761904Y-119525295D01*
X96761904Y-119525295D02*
X96761904Y-119620533D01*
X96761904Y-119620533D02*
X96714285Y-119763390D01*
X96714285Y-119763390D02*
X96142857Y-120334819D01*
X96142857Y-120334819D02*
X96761904Y-120334819D01*
X99333333Y-77304819D02*
X99000000Y-76828628D01*
X98761905Y-77304819D02*
X98761905Y-76304819D01*
X98761905Y-76304819D02*
X99142857Y-76304819D01*
X99142857Y-76304819D02*
X99238095Y-76352438D01*
X99238095Y-76352438D02*
X99285714Y-76400057D01*
X99285714Y-76400057D02*
X99333333Y-76495295D01*
X99333333Y-76495295D02*
X99333333Y-76638152D01*
X99333333Y-76638152D02*
X99285714Y-76733390D01*
X99285714Y-76733390D02*
X99238095Y-76781009D01*
X99238095Y-76781009D02*
X99142857Y-76828628D01*
X99142857Y-76828628D02*
X98761905Y-76828628D01*
X99809524Y-77304819D02*
X100000000Y-77304819D01*
X100000000Y-77304819D02*
X100095238Y-77257200D01*
X100095238Y-77257200D02*
X100142857Y-77209580D01*
X100142857Y-77209580D02*
X100238095Y-77066723D01*
X100238095Y-77066723D02*
X100285714Y-76876247D01*
X100285714Y-76876247D02*
X100285714Y-76495295D01*
X100285714Y-76495295D02*
X100238095Y-76400057D01*
X100238095Y-76400057D02*
X100190476Y-76352438D01*
X100190476Y-76352438D02*
X100095238Y-76304819D01*
X100095238Y-76304819D02*
X99904762Y-76304819D01*
X99904762Y-76304819D02*
X99809524Y-76352438D01*
X99809524Y-76352438D02*
X99761905Y-76400057D01*
X99761905Y-76400057D02*
X99714286Y-76495295D01*
X99714286Y-76495295D02*
X99714286Y-76733390D01*
X99714286Y-76733390D02*
X99761905Y-76828628D01*
X99761905Y-76828628D02*
X99809524Y-76876247D01*
X99809524Y-76876247D02*
X99904762Y-76923866D01*
X99904762Y-76923866D02*
X100095238Y-76923866D01*
X100095238Y-76923866D02*
X100190476Y-76876247D01*
X100190476Y-76876247D02*
X100238095Y-76828628D01*
X100238095Y-76828628D02*
X100285714Y-76733390D01*
X105607142Y-191109580D02*
X105559523Y-191157200D01*
X105559523Y-191157200D02*
X105416666Y-191204819D01*
X105416666Y-191204819D02*
X105321428Y-191204819D01*
X105321428Y-191204819D02*
X105178571Y-191157200D01*
X105178571Y-191157200D02*
X105083333Y-191061961D01*
X105083333Y-191061961D02*
X105035714Y-190966723D01*
X105035714Y-190966723D02*
X104988095Y-190776247D01*
X104988095Y-190776247D02*
X104988095Y-190633390D01*
X104988095Y-190633390D02*
X105035714Y-190442914D01*
X105035714Y-190442914D02*
X105083333Y-190347676D01*
X105083333Y-190347676D02*
X105178571Y-190252438D01*
X105178571Y-190252438D02*
X105321428Y-190204819D01*
X105321428Y-190204819D02*
X105416666Y-190204819D01*
X105416666Y-190204819D02*
X105559523Y-190252438D01*
X105559523Y-190252438D02*
X105607142Y-190300057D01*
X106559523Y-191204819D02*
X105988095Y-191204819D01*
X106273809Y-191204819D02*
X106273809Y-190204819D01*
X106273809Y-190204819D02*
X106178571Y-190347676D01*
X106178571Y-190347676D02*
X106083333Y-190442914D01*
X106083333Y-190442914D02*
X105988095Y-190490533D01*
X106892857Y-190204819D02*
X107511904Y-190204819D01*
X107511904Y-190204819D02*
X107178571Y-190585771D01*
X107178571Y-190585771D02*
X107321428Y-190585771D01*
X107321428Y-190585771D02*
X107416666Y-190633390D01*
X107416666Y-190633390D02*
X107464285Y-190681009D01*
X107464285Y-190681009D02*
X107511904Y-190776247D01*
X107511904Y-190776247D02*
X107511904Y-191014342D01*
X107511904Y-191014342D02*
X107464285Y-191109580D01*
X107464285Y-191109580D02*
X107416666Y-191157200D01*
X107416666Y-191157200D02*
X107321428Y-191204819D01*
X107321428Y-191204819D02*
X107035714Y-191204819D01*
X107035714Y-191204819D02*
X106940476Y-191157200D01*
X106940476Y-191157200D02*
X106892857Y-191109580D01*
X106807533Y-181054761D02*
X106807533Y-180445238D01*
X107112295Y-180749999D02*
X106502771Y-180749999D01*
X96170833Y-162304819D02*
X95837500Y-161828628D01*
X95599405Y-162304819D02*
X95599405Y-161304819D01*
X95599405Y-161304819D02*
X95980357Y-161304819D01*
X95980357Y-161304819D02*
X96075595Y-161352438D01*
X96075595Y-161352438D02*
X96123214Y-161400057D01*
X96123214Y-161400057D02*
X96170833Y-161495295D01*
X96170833Y-161495295D02*
X96170833Y-161638152D01*
X96170833Y-161638152D02*
X96123214Y-161733390D01*
X96123214Y-161733390D02*
X96075595Y-161781009D01*
X96075595Y-161781009D02*
X95980357Y-161828628D01*
X95980357Y-161828628D02*
X95599405Y-161828628D01*
X97123214Y-162304819D02*
X96551786Y-162304819D01*
X96837500Y-162304819D02*
X96837500Y-161304819D01*
X96837500Y-161304819D02*
X96742262Y-161447676D01*
X96742262Y-161447676D02*
X96647024Y-161542914D01*
X96647024Y-161542914D02*
X96551786Y-161590533D01*
X101324819Y-143650285D02*
X100324819Y-143650285D01*
X100324819Y-143650285D02*
X100324819Y-143412190D01*
X100324819Y-143412190D02*
X100372438Y-143269333D01*
X100372438Y-143269333D02*
X100467676Y-143174095D01*
X100467676Y-143174095D02*
X100562914Y-143126476D01*
X100562914Y-143126476D02*
X100753390Y-143078857D01*
X100753390Y-143078857D02*
X100896247Y-143078857D01*
X100896247Y-143078857D02*
X101086723Y-143126476D01*
X101086723Y-143126476D02*
X101181961Y-143174095D01*
X101181961Y-143174095D02*
X101277200Y-143269333D01*
X101277200Y-143269333D02*
X101324819Y-143412190D01*
X101324819Y-143412190D02*
X101324819Y-143650285D01*
X101324819Y-142126476D02*
X101324819Y-142697904D01*
X101324819Y-142412190D02*
X100324819Y-142412190D01*
X100324819Y-142412190D02*
X100467676Y-142507428D01*
X100467676Y-142507428D02*
X100562914Y-142602666D01*
X100562914Y-142602666D02*
X100610533Y-142697904D01*
X100324819Y-141507428D02*
X100324819Y-141412190D01*
X100324819Y-141412190D02*
X100372438Y-141316952D01*
X100372438Y-141316952D02*
X100420057Y-141269333D01*
X100420057Y-141269333D02*
X100515295Y-141221714D01*
X100515295Y-141221714D02*
X100705771Y-141174095D01*
X100705771Y-141174095D02*
X100943866Y-141174095D01*
X100943866Y-141174095D02*
X101134342Y-141221714D01*
X101134342Y-141221714D02*
X101229580Y-141269333D01*
X101229580Y-141269333D02*
X101277200Y-141316952D01*
X101277200Y-141316952D02*
X101324819Y-141412190D01*
X101324819Y-141412190D02*
X101324819Y-141507428D01*
X101324819Y-141507428D02*
X101277200Y-141602666D01*
X101277200Y-141602666D02*
X101229580Y-141650285D01*
X101229580Y-141650285D02*
X101134342Y-141697904D01*
X101134342Y-141697904D02*
X100943866Y-141745523D01*
X100943866Y-141745523D02*
X100705771Y-141745523D01*
X100705771Y-141745523D02*
X100515295Y-141697904D01*
X100515295Y-141697904D02*
X100420057Y-141650285D01*
X100420057Y-141650285D02*
X100372438Y-141602666D01*
X100372438Y-141602666D02*
X100324819Y-141507428D01*
X94857142Y-144894819D02*
X94523809Y-144418628D01*
X94285714Y-144894819D02*
X94285714Y-143894819D01*
X94285714Y-143894819D02*
X94666666Y-143894819D01*
X94666666Y-143894819D02*
X94761904Y-143942438D01*
X94761904Y-143942438D02*
X94809523Y-143990057D01*
X94809523Y-143990057D02*
X94857142Y-144085295D01*
X94857142Y-144085295D02*
X94857142Y-144228152D01*
X94857142Y-144228152D02*
X94809523Y-144323390D01*
X94809523Y-144323390D02*
X94761904Y-144371009D01*
X94761904Y-144371009D02*
X94666666Y-144418628D01*
X94666666Y-144418628D02*
X94285714Y-144418628D01*
X95238095Y-143990057D02*
X95285714Y-143942438D01*
X95285714Y-143942438D02*
X95380952Y-143894819D01*
X95380952Y-143894819D02*
X95619047Y-143894819D01*
X95619047Y-143894819D02*
X95714285Y-143942438D01*
X95714285Y-143942438D02*
X95761904Y-143990057D01*
X95761904Y-143990057D02*
X95809523Y-144085295D01*
X95809523Y-144085295D02*
X95809523Y-144180533D01*
X95809523Y-144180533D02*
X95761904Y-144323390D01*
X95761904Y-144323390D02*
X95190476Y-144894819D01*
X95190476Y-144894819D02*
X95809523Y-144894819D01*
X96142857Y-143894819D02*
X96809523Y-143894819D01*
X96809523Y-143894819D02*
X96380952Y-144894819D01*
X131704819Y-216488094D02*
X130704819Y-216488094D01*
X130704819Y-216488094D02*
X130704819Y-216249999D01*
X130704819Y-216249999D02*
X130752438Y-216107142D01*
X130752438Y-216107142D02*
X130847676Y-216011904D01*
X130847676Y-216011904D02*
X130942914Y-215964285D01*
X130942914Y-215964285D02*
X131133390Y-215916666D01*
X131133390Y-215916666D02*
X131276247Y-215916666D01*
X131276247Y-215916666D02*
X131466723Y-215964285D01*
X131466723Y-215964285D02*
X131561961Y-216011904D01*
X131561961Y-216011904D02*
X131657200Y-216107142D01*
X131657200Y-216107142D02*
X131704819Y-216249999D01*
X131704819Y-216249999D02*
X131704819Y-216488094D01*
X130704819Y-215059523D02*
X130704819Y-215249999D01*
X130704819Y-215249999D02*
X130752438Y-215345237D01*
X130752438Y-215345237D02*
X130800057Y-215392856D01*
X130800057Y-215392856D02*
X130942914Y-215488094D01*
X130942914Y-215488094D02*
X131133390Y-215535713D01*
X131133390Y-215535713D02*
X131514342Y-215535713D01*
X131514342Y-215535713D02*
X131609580Y-215488094D01*
X131609580Y-215488094D02*
X131657200Y-215440475D01*
X131657200Y-215440475D02*
X131704819Y-215345237D01*
X131704819Y-215345237D02*
X131704819Y-215154761D01*
X131704819Y-215154761D02*
X131657200Y-215059523D01*
X131657200Y-215059523D02*
X131609580Y-215011904D01*
X131609580Y-215011904D02*
X131514342Y-214964285D01*
X131514342Y-214964285D02*
X131276247Y-214964285D01*
X131276247Y-214964285D02*
X131181009Y-215011904D01*
X131181009Y-215011904D02*
X131133390Y-215059523D01*
X131133390Y-215059523D02*
X131085771Y-215154761D01*
X131085771Y-215154761D02*
X131085771Y-215345237D01*
X131085771Y-215345237D02*
X131133390Y-215440475D01*
X131133390Y-215440475D02*
X131181009Y-215488094D01*
X131181009Y-215488094D02*
X131276247Y-215535713D01*
X116109580Y-219892857D02*
X116157200Y-219940476D01*
X116157200Y-219940476D02*
X116204819Y-220083333D01*
X116204819Y-220083333D02*
X116204819Y-220178571D01*
X116204819Y-220178571D02*
X116157200Y-220321428D01*
X116157200Y-220321428D02*
X116061961Y-220416666D01*
X116061961Y-220416666D02*
X115966723Y-220464285D01*
X115966723Y-220464285D02*
X115776247Y-220511904D01*
X115776247Y-220511904D02*
X115633390Y-220511904D01*
X115633390Y-220511904D02*
X115442914Y-220464285D01*
X115442914Y-220464285D02*
X115347676Y-220416666D01*
X115347676Y-220416666D02*
X115252438Y-220321428D01*
X115252438Y-220321428D02*
X115204819Y-220178571D01*
X115204819Y-220178571D02*
X115204819Y-220083333D01*
X115204819Y-220083333D02*
X115252438Y-219940476D01*
X115252438Y-219940476D02*
X115300057Y-219892857D01*
X115300057Y-219511904D02*
X115252438Y-219464285D01*
X115252438Y-219464285D02*
X115204819Y-219369047D01*
X115204819Y-219369047D02*
X115204819Y-219130952D01*
X115204819Y-219130952D02*
X115252438Y-219035714D01*
X115252438Y-219035714D02*
X115300057Y-218988095D01*
X115300057Y-218988095D02*
X115395295Y-218940476D01*
X115395295Y-218940476D02*
X115490533Y-218940476D01*
X115490533Y-218940476D02*
X115633390Y-218988095D01*
X115633390Y-218988095D02*
X116204819Y-219559523D01*
X116204819Y-219559523D02*
X116204819Y-218940476D01*
X115204819Y-218321428D02*
X115204819Y-218226190D01*
X115204819Y-218226190D02*
X115252438Y-218130952D01*
X115252438Y-218130952D02*
X115300057Y-218083333D01*
X115300057Y-218083333D02*
X115395295Y-218035714D01*
X115395295Y-218035714D02*
X115585771Y-217988095D01*
X115585771Y-217988095D02*
X115823866Y-217988095D01*
X115823866Y-217988095D02*
X116014342Y-218035714D01*
X116014342Y-218035714D02*
X116109580Y-218083333D01*
X116109580Y-218083333D02*
X116157200Y-218130952D01*
X116157200Y-218130952D02*
X116204819Y-218226190D01*
X116204819Y-218226190D02*
X116204819Y-218321428D01*
X116204819Y-218321428D02*
X116157200Y-218416666D01*
X116157200Y-218416666D02*
X116109580Y-218464285D01*
X116109580Y-218464285D02*
X116014342Y-218511904D01*
X116014342Y-218511904D02*
X115823866Y-218559523D01*
X115823866Y-218559523D02*
X115585771Y-218559523D01*
X115585771Y-218559523D02*
X115395295Y-218511904D01*
X115395295Y-218511904D02*
X115300057Y-218464285D01*
X115300057Y-218464285D02*
X115252438Y-218416666D01*
X115252438Y-218416666D02*
X115204819Y-218321428D01*
X94583333Y-213109580D02*
X94535714Y-213157200D01*
X94535714Y-213157200D02*
X94392857Y-213204819D01*
X94392857Y-213204819D02*
X94297619Y-213204819D01*
X94297619Y-213204819D02*
X94154762Y-213157200D01*
X94154762Y-213157200D02*
X94059524Y-213061961D01*
X94059524Y-213061961D02*
X94011905Y-212966723D01*
X94011905Y-212966723D02*
X93964286Y-212776247D01*
X93964286Y-212776247D02*
X93964286Y-212633390D01*
X93964286Y-212633390D02*
X94011905Y-212442914D01*
X94011905Y-212442914D02*
X94059524Y-212347676D01*
X94059524Y-212347676D02*
X94154762Y-212252438D01*
X94154762Y-212252438D02*
X94297619Y-212204819D01*
X94297619Y-212204819D02*
X94392857Y-212204819D01*
X94392857Y-212204819D02*
X94535714Y-212252438D01*
X94535714Y-212252438D02*
X94583333Y-212300057D01*
X95440476Y-212538152D02*
X95440476Y-213204819D01*
X95202381Y-212157200D02*
X94964286Y-212871485D01*
X94964286Y-212871485D02*
X95583333Y-212871485D01*
X161429580Y-74142857D02*
X161477200Y-74190476D01*
X161477200Y-74190476D02*
X161524819Y-74333333D01*
X161524819Y-74333333D02*
X161524819Y-74428571D01*
X161524819Y-74428571D02*
X161477200Y-74571428D01*
X161477200Y-74571428D02*
X161381961Y-74666666D01*
X161381961Y-74666666D02*
X161286723Y-74714285D01*
X161286723Y-74714285D02*
X161096247Y-74761904D01*
X161096247Y-74761904D02*
X160953390Y-74761904D01*
X160953390Y-74761904D02*
X160762914Y-74714285D01*
X160762914Y-74714285D02*
X160667676Y-74666666D01*
X160667676Y-74666666D02*
X160572438Y-74571428D01*
X160572438Y-74571428D02*
X160524819Y-74428571D01*
X160524819Y-74428571D02*
X160524819Y-74333333D01*
X160524819Y-74333333D02*
X160572438Y-74190476D01*
X160572438Y-74190476D02*
X160620057Y-74142857D01*
X161524819Y-73190476D02*
X161524819Y-73761904D01*
X161524819Y-73476190D02*
X160524819Y-73476190D01*
X160524819Y-73476190D02*
X160667676Y-73571428D01*
X160667676Y-73571428D02*
X160762914Y-73666666D01*
X160762914Y-73666666D02*
X160810533Y-73761904D01*
X160953390Y-72619047D02*
X160905771Y-72714285D01*
X160905771Y-72714285D02*
X160858152Y-72761904D01*
X160858152Y-72761904D02*
X160762914Y-72809523D01*
X160762914Y-72809523D02*
X160715295Y-72809523D01*
X160715295Y-72809523D02*
X160620057Y-72761904D01*
X160620057Y-72761904D02*
X160572438Y-72714285D01*
X160572438Y-72714285D02*
X160524819Y-72619047D01*
X160524819Y-72619047D02*
X160524819Y-72428571D01*
X160524819Y-72428571D02*
X160572438Y-72333333D01*
X160572438Y-72333333D02*
X160620057Y-72285714D01*
X160620057Y-72285714D02*
X160715295Y-72238095D01*
X160715295Y-72238095D02*
X160762914Y-72238095D01*
X160762914Y-72238095D02*
X160858152Y-72285714D01*
X160858152Y-72285714D02*
X160905771Y-72333333D01*
X160905771Y-72333333D02*
X160953390Y-72428571D01*
X160953390Y-72428571D02*
X160953390Y-72619047D01*
X160953390Y-72619047D02*
X161001009Y-72714285D01*
X161001009Y-72714285D02*
X161048628Y-72761904D01*
X161048628Y-72761904D02*
X161143866Y-72809523D01*
X161143866Y-72809523D02*
X161334342Y-72809523D01*
X161334342Y-72809523D02*
X161429580Y-72761904D01*
X161429580Y-72761904D02*
X161477200Y-72714285D01*
X161477200Y-72714285D02*
X161524819Y-72619047D01*
X161524819Y-72619047D02*
X161524819Y-72428571D01*
X161524819Y-72428571D02*
X161477200Y-72333333D01*
X161477200Y-72333333D02*
X161429580Y-72285714D01*
X161429580Y-72285714D02*
X161334342Y-72238095D01*
X161334342Y-72238095D02*
X161143866Y-72238095D01*
X161143866Y-72238095D02*
X161048628Y-72285714D01*
X161048628Y-72285714D02*
X161001009Y-72333333D01*
X161001009Y-72333333D02*
X160953390Y-72428571D01*
X152607142Y-69104819D02*
X152273809Y-68628628D01*
X152035714Y-69104819D02*
X152035714Y-68104819D01*
X152035714Y-68104819D02*
X152416666Y-68104819D01*
X152416666Y-68104819D02*
X152511904Y-68152438D01*
X152511904Y-68152438D02*
X152559523Y-68200057D01*
X152559523Y-68200057D02*
X152607142Y-68295295D01*
X152607142Y-68295295D02*
X152607142Y-68438152D01*
X152607142Y-68438152D02*
X152559523Y-68533390D01*
X152559523Y-68533390D02*
X152511904Y-68581009D01*
X152511904Y-68581009D02*
X152416666Y-68628628D01*
X152416666Y-68628628D02*
X152035714Y-68628628D01*
X153559523Y-69104819D02*
X152988095Y-69104819D01*
X153273809Y-69104819D02*
X153273809Y-68104819D01*
X153273809Y-68104819D02*
X153178571Y-68247676D01*
X153178571Y-68247676D02*
X153083333Y-68342914D01*
X153083333Y-68342914D02*
X152988095Y-68390533D01*
X154416666Y-68438152D02*
X154416666Y-69104819D01*
X154178571Y-68057200D02*
X153940476Y-68771485D01*
X153940476Y-68771485D02*
X154559523Y-68771485D01*
D12*
X145953365Y-142316428D02*
X146013842Y-142376904D01*
X146013842Y-142376904D02*
X146074318Y-142558333D01*
X146074318Y-142558333D02*
X146074318Y-142679285D01*
X146074318Y-142679285D02*
X146013842Y-142860714D01*
X146013842Y-142860714D02*
X145892889Y-142981666D01*
X145892889Y-142981666D02*
X145771937Y-143042143D01*
X145771937Y-143042143D02*
X145530032Y-143102619D01*
X145530032Y-143102619D02*
X145348603Y-143102619D01*
X145348603Y-143102619D02*
X145106699Y-143042143D01*
X145106699Y-143042143D02*
X144985746Y-142981666D01*
X144985746Y-142981666D02*
X144864794Y-142860714D01*
X144864794Y-142860714D02*
X144804318Y-142679285D01*
X144804318Y-142679285D02*
X144804318Y-142558333D01*
X144804318Y-142558333D02*
X144864794Y-142376904D01*
X144864794Y-142376904D02*
X144925270Y-142316428D01*
X146074318Y-141106904D02*
X146074318Y-141832619D01*
X146074318Y-141469762D02*
X144804318Y-141469762D01*
X144804318Y-141469762D02*
X144985746Y-141590714D01*
X144985746Y-141590714D02*
X145106699Y-141711666D01*
X145106699Y-141711666D02*
X145167175Y-141832619D01*
X144804318Y-140018333D02*
X144804318Y-140260238D01*
X144804318Y-140260238D02*
X144864794Y-140381190D01*
X144864794Y-140381190D02*
X144925270Y-140441666D01*
X144925270Y-140441666D02*
X145106699Y-140562619D01*
X145106699Y-140562619D02*
X145348603Y-140623095D01*
X145348603Y-140623095D02*
X145832413Y-140623095D01*
X145832413Y-140623095D02*
X145953365Y-140562619D01*
X145953365Y-140562619D02*
X146013842Y-140502142D01*
X146013842Y-140502142D02*
X146074318Y-140381190D01*
X146074318Y-140381190D02*
X146074318Y-140139285D01*
X146074318Y-140139285D02*
X146013842Y-140018333D01*
X146013842Y-140018333D02*
X145953365Y-139957857D01*
X145953365Y-139957857D02*
X145832413Y-139897380D01*
X145832413Y-139897380D02*
X145530032Y-139897380D01*
X145530032Y-139897380D02*
X145409080Y-139957857D01*
X145409080Y-139957857D02*
X145348603Y-140018333D01*
X145348603Y-140018333D02*
X145288127Y-140139285D01*
X145288127Y-140139285D02*
X145288127Y-140381190D01*
X145288127Y-140381190D02*
X145348603Y-140502142D01*
X145348603Y-140502142D02*
X145409080Y-140562619D01*
X145409080Y-140562619D02*
X145530032Y-140623095D01*
D13*
X139025600Y-140411653D02*
X139025600Y-142697368D01*
X137882742Y-141554510D02*
X140168457Y-141554510D01*
D14*
%TO.C,R31*%
X93272936Y-80015000D02*
X93727064Y-80015000D01*
X93272936Y-81485000D02*
X93727064Y-81485000D01*
%TO.C,R30*%
X153485000Y-76022936D02*
X153485000Y-76477064D01*
X152015000Y-76022936D02*
X152015000Y-76477064D01*
%TO.C,R18*%
X112227064Y-211265000D02*
X111772936Y-211265000D01*
X112227064Y-212735000D02*
X111772936Y-212735000D01*
%TO.C,D14*%
X121090000Y-218358750D02*
X121090000Y-220578750D01*
X121090000Y-220578750D02*
X125500000Y-220578750D01*
X125500000Y-218358750D02*
X121090000Y-218358750D01*
%TO.C,U3*%
X92440000Y-73750000D02*
X92440000Y-71800000D01*
X92440000Y-73750000D02*
X92440000Y-75700000D01*
X97560000Y-73750000D02*
X97560000Y-71800000D01*
X97560000Y-73750000D02*
X97560000Y-75700000D01*
X92535000Y-76450000D02*
X92205000Y-76690000D01*
X92205000Y-76210000D01*
X92535000Y-76450000D01*
G36*
X92535000Y-76450000D02*
G01*
X92205000Y-76690000D01*
X92205000Y-76210000D01*
X92535000Y-76450000D01*
G37*
%TO.C,R28*%
X93322936Y-150400000D02*
X97677064Y-150400000D01*
X93322936Y-153820000D02*
X97677064Y-153820000D01*
%TO.C,R7*%
X94515000Y-241772936D02*
X94515000Y-242227064D01*
X95985000Y-241772936D02*
X95985000Y-242227064D01*
%TO.C,C3*%
X105015000Y-220988748D02*
X105015000Y-221511252D01*
X106485000Y-220988748D02*
X106485000Y-221511252D01*
%TO.C,D7*%
X90445000Y-177810000D02*
X90445000Y-172300000D01*
X90445000Y-177810000D02*
X93745000Y-177810000D01*
X93745000Y-177810000D02*
X93745000Y-172300000D01*
D15*
%TO.C,C30*%
X115117800Y-179740600D02*
X115117800Y-177759400D01*
X122382200Y-179740600D02*
X122382200Y-177759400D01*
X115117800Y-177759400D02*
G75*
G02*
X117856430Y-174238831I3632200J0D01*
G01*
X117731460Y-183227067D02*
G75*
G02*
X115117800Y-179740600I1018540J3486467D01*
G01*
X119643570Y-174238831D02*
G75*
G02*
X122382200Y-177759400I-893567J-3520567D01*
G01*
X122382200Y-179740604D02*
G75*
G02*
X119768537Y-183227068I-3632200J4D01*
G01*
D14*
%TO.C,U5*%
X90340000Y-195323240D02*
X91600000Y-195323240D01*
X90340000Y-199083240D02*
X90340000Y-195323240D01*
X97160000Y-195323240D02*
X95900000Y-195323240D01*
X97160000Y-199083240D02*
X97160000Y-195323240D01*
X90440000Y-200363240D02*
X90110000Y-200603240D01*
X90110000Y-200123240D01*
X90440000Y-200363240D01*
G36*
X90440000Y-200363240D02*
G01*
X90110000Y-200603240D01*
X90110000Y-200123240D01*
X90440000Y-200363240D01*
G37*
%TO.C,C21*%
X108427500Y-211261252D02*
X108427500Y-210738748D01*
X109897500Y-211261252D02*
X109897500Y-210738748D01*
D15*
%TO.C,TH1*%
X151251200Y-223617800D02*
X144748800Y-223617800D01*
X151251200Y-230882200D02*
X144748800Y-230882200D01*
X141116600Y-227250000D02*
G75*
G02*
X144748800Y-223617800I3632200J0D01*
G01*
X144748800Y-230882200D02*
G75*
G02*
X141116600Y-227250000I0J3632200D01*
G01*
X151251200Y-223617800D02*
G75*
G02*
X151251200Y-230882200I0J-3632200D01*
G01*
D14*
%TO.C,C19*%
X152015000Y-71938748D02*
X152015000Y-72461252D01*
X153485000Y-71938748D02*
X153485000Y-72461252D01*
%TO.C,J1*%
X93975000Y-224185000D02*
X94040000Y-224185000D01*
X93975000Y-227715000D02*
X93975000Y-224185000D01*
X93975000Y-227715000D02*
X94040000Y-227715000D01*
X94040000Y-229040000D02*
X94040000Y-227715000D01*
X100380000Y-224185000D02*
X100445000Y-224185000D01*
X100380000Y-227715000D02*
X100445000Y-227715000D01*
X100445000Y-227715000D02*
X100445000Y-224185000D01*
%TO.C,U4*%
X107160000Y-216470000D02*
X106760000Y-216470000D01*
X107160000Y-216470000D02*
X107160000Y-215470000D01*
X107160000Y-219070000D02*
X107160000Y-218270000D01*
X107560000Y-215270000D02*
X107160000Y-215270000D01*
X107560000Y-215470000D02*
X107160000Y-215470000D01*
X107560000Y-215470000D02*
X109560000Y-215470000D01*
X107560000Y-219070000D02*
X107160000Y-219070000D01*
X109560000Y-215270000D02*
X107560000Y-215270000D01*
X109560000Y-215470000D02*
X109560000Y-216470000D01*
X109560000Y-218270000D02*
X109560000Y-219070000D01*
X109560000Y-219070000D02*
X107560000Y-219070000D01*
%TO.C,R15*%
X153477064Y-88765000D02*
X153022936Y-88765000D01*
X153477064Y-90235000D02*
X153022936Y-90235000D01*
%TO.C,R13*%
X98772936Y-55265000D02*
X99227064Y-55265000D01*
X98772936Y-56735000D02*
X99227064Y-56735000D01*
%TO.C,D5*%
X96790000Y-247812500D02*
X96790000Y-250497500D01*
X96790000Y-250497500D02*
X98710000Y-250497500D01*
X98710000Y-250497500D02*
X98710000Y-247812500D01*
%TO.C,C2*%
X89015000Y-72038748D02*
X89015000Y-72561252D01*
X90485000Y-72038748D02*
X90485000Y-72561252D01*
%TO.C,R29*%
X93322936Y-155290000D02*
X97677064Y-155290000D01*
X93322936Y-158710000D02*
X97677064Y-158710000D01*
%TO.C,R17*%
X124677064Y-213758750D02*
X120322936Y-213758750D01*
X124677064Y-217178750D02*
X120322936Y-217178750D01*
D15*
%TO.C,J4*%
X148872500Y-47203900D02*
X148872500Y-48296100D01*
X148872500Y-48296100D02*
X149296550Y-48296100D01*
X149296550Y-47203900D02*
X148872500Y-47203900D01*
X151623450Y-48296100D02*
X154376550Y-48296100D01*
X154376550Y-47203900D02*
X151623450Y-47203900D01*
X156703450Y-48296100D02*
X157127500Y-48296100D01*
X157127500Y-47203900D02*
X156703450Y-47203900D01*
X157127500Y-48296100D02*
X157127500Y-47203900D01*
D14*
%TO.C,R23*%
X93322936Y-125790000D02*
X97677064Y-125790000D01*
X93322936Y-129210000D02*
X97677064Y-129210000D01*
%TO.C,C24*%
X155738748Y-28015000D02*
X156261252Y-28015000D01*
X155738748Y-29485000D02*
X156261252Y-29485000D01*
%TO.C,D2*%
X89290000Y-247812500D02*
X89290000Y-250497500D01*
X89290000Y-250497500D02*
X91210000Y-250497500D01*
X91210000Y-250497500D02*
X91210000Y-247812500D01*
%TO.C,R16*%
X116515000Y-215241686D02*
X116515000Y-215695814D01*
X117985000Y-215241686D02*
X117985000Y-215695814D01*
%TO.C,C23*%
X155738748Y-30265000D02*
X156261252Y-30265000D01*
X155738748Y-31735000D02*
X156261252Y-31735000D01*
%TO.C,R19*%
X112227064Y-209265000D02*
X111772936Y-209265000D01*
X112227064Y-210735000D02*
X111772936Y-210735000D01*
D10*
%TO.C,HS2*%
X106468000Y-160218000D02*
X106468000Y-102218000D01*
X125850000Y-102218000D02*
X106468000Y-102218000D01*
X125850000Y-102218000D02*
X125850000Y-160218000D01*
X125850000Y-160218000D02*
X106468000Y-160218000D01*
D14*
%TO.C,U10*%
X156000000Y-24190000D02*
X155200000Y-24190000D01*
X156000000Y-24190000D02*
X156800000Y-24190000D01*
X156000000Y-27310000D02*
X155200000Y-27310000D01*
X156000000Y-27310000D02*
X156800000Y-27310000D01*
X157540000Y-27590000D02*
X157060000Y-27590000D01*
X157300000Y-27260000D01*
X157540000Y-27590000D01*
G36*
X157540000Y-27590000D02*
G01*
X157060000Y-27590000D01*
X157300000Y-27260000D01*
X157540000Y-27590000D01*
G37*
%TO.C,R3*%
X103522936Y-162765000D02*
X103977064Y-162765000D01*
X103522936Y-164235000D02*
X103977064Y-164235000D01*
%TO.C,R25*%
X93322936Y-135570000D02*
X97677064Y-135570000D01*
X93322936Y-138990000D02*
X97677064Y-138990000D01*
%TO.C,C5*%
X91265000Y-208511252D02*
X91265000Y-207988748D01*
X92735000Y-208511252D02*
X92735000Y-207988748D01*
%TO.C,K1*%
X134945000Y-210490000D02*
X156085000Y-210490000D01*
X134945000Y-221490000D02*
X134945000Y-210490000D01*
X134945000Y-221490000D02*
X156085000Y-221490000D01*
X137895000Y-219800000D02*
X139165000Y-219800000D01*
X138655000Y-214970000D02*
X139165000Y-214970000D01*
X138655000Y-216750000D02*
X139675000Y-215740000D01*
X138655000Y-217510000D02*
X138655000Y-214970000D01*
X139165000Y-212180000D02*
X137895000Y-212180000D01*
X139165000Y-214970000D02*
X139165000Y-212180000D01*
X139165000Y-214970000D02*
X139675000Y-214970000D01*
X139165000Y-217510000D02*
X138655000Y-217510000D01*
X139165000Y-219800000D02*
X139165000Y-217510000D01*
X139675000Y-214970000D02*
X139675000Y-217510000D01*
X139675000Y-217510000D02*
X139165000Y-217510000D01*
X146785000Y-215990000D02*
X151865000Y-215990000D01*
X146785000Y-218530000D02*
X146785000Y-215990000D01*
X151865000Y-215990000D02*
X154655000Y-214590000D01*
X154405000Y-218530000D02*
X154405000Y-217260000D01*
X156085000Y-221490000D02*
X156085000Y-210490000D01*
X151995000Y-215990000D02*
G75*
G02*
X151735000Y-215990000I-130000J0D01*
G01*
X151735000Y-215990000D02*
G75*
G02*
X151995000Y-215990000I130000J0D01*
G01*
D10*
%TO.C,NE1*%
X160600000Y-132250000D02*
G75*
G02*
X154400000Y-132250000I-3100000J0D01*
G01*
X154400000Y-132250000D02*
G75*
G02*
X160600000Y-132250000I3100000J0D01*
G01*
D14*
%TO.C,C6*%
X97765000Y-208511252D02*
X97765000Y-207988748D01*
X99235000Y-208511252D02*
X99235000Y-207988748D01*
%TO.C,FB1*%
X93440000Y-208649622D02*
X93440000Y-207850378D01*
X94560000Y-208649622D02*
X94560000Y-207850378D01*
%TO.C,Q9*%
X144799000Y-53380000D02*
X150070000Y-53380000D01*
X144799000Y-59645000D02*
X150070000Y-59645000D01*
X144799000Y-63254000D02*
X150070000Y-63254000D01*
X144799000Y-69520000D02*
X144799000Y-53380000D01*
X144799000Y-69520000D02*
X150070000Y-69520000D01*
X150070000Y-69520000D02*
X150070000Y-53380000D01*
D16*
%TO.C,T1*%
X89870000Y-33475000D02*
X89870000Y-36525000D01*
X89870000Y-43925000D02*
X89870000Y-46975000D01*
X89870000Y-46975000D02*
X104550000Y-46975000D01*
X104550000Y-33475000D02*
X89870000Y-33475000D01*
X104550000Y-36525000D02*
X104550000Y-33475000D01*
X104550000Y-46975000D02*
X104550000Y-43925000D01*
D17*
X90510000Y-49025000D02*
G75*
G02*
X89910000Y-49025000I-300000J0D01*
G01*
X89910000Y-49025000D02*
G75*
G02*
X90510000Y-49025000I300000J0D01*
G01*
D14*
%TO.C,R5*%
X89515000Y-241772936D02*
X89515000Y-242227064D01*
X90985000Y-241772936D02*
X90985000Y-242227064D01*
%TO.C,R4*%
X107272936Y-162765000D02*
X107727064Y-162765000D01*
X107272936Y-164235000D02*
X107727064Y-164235000D01*
%TO.C,U12*%
X154340000Y-35400000D02*
X154340000Y-39160000D01*
X154340000Y-39160000D02*
X155600000Y-39160000D01*
X161160000Y-35400000D02*
X161160000Y-39160000D01*
X161160000Y-39160000D02*
X159900000Y-39160000D01*
X161390000Y-34360000D02*
X161060000Y-34120000D01*
X161390000Y-33880000D01*
X161390000Y-34360000D01*
G36*
X161390000Y-34360000D02*
G01*
X161060000Y-34120000D01*
X161390000Y-33880000D01*
X161390000Y-34360000D01*
G37*
%TO.C,C7*%
X95515000Y-208511252D02*
X95515000Y-207988748D01*
X96985000Y-208511252D02*
X96985000Y-207988748D01*
D15*
%TO.C,J7*%
X88622500Y-96203900D02*
X88622500Y-97296100D01*
X88622500Y-97296100D02*
X89046550Y-97296100D01*
X89046550Y-96203900D02*
X88622500Y-96203900D01*
X91373450Y-97296100D02*
X94126550Y-97296100D01*
X94126550Y-96203900D02*
X91373450Y-96203900D01*
X96453450Y-97296100D02*
X96877500Y-97296100D01*
X96877500Y-96203900D02*
X96453450Y-96203900D01*
X96877500Y-97296100D02*
X96877500Y-96203900D01*
D14*
%TO.C,R2*%
X99772936Y-162765000D02*
X100227064Y-162765000D01*
X99772936Y-164235000D02*
X100227064Y-164235000D01*
%TO.C,C15*%
X99515000Y-73761252D02*
X99515000Y-73238748D01*
X100985000Y-73761252D02*
X100985000Y-73238748D01*
%TO.C,C1*%
X107238748Y-164765000D02*
X107761252Y-164765000D01*
X107238748Y-166235000D02*
X107761252Y-166235000D01*
%TO.C,Q5*%
X131312500Y-219252500D02*
X130662500Y-219252500D01*
X131312500Y-219252500D02*
X131962500Y-219252500D01*
X131312500Y-222372500D02*
X130662500Y-222372500D01*
X131312500Y-222372500D02*
X131962500Y-222372500D01*
X132715000Y-222652500D02*
X132235000Y-222652500D01*
X132475000Y-222322500D01*
X132715000Y-222652500D01*
G36*
X132715000Y-222652500D02*
G01*
X132235000Y-222652500D01*
X132475000Y-222322500D01*
X132715000Y-222652500D01*
G37*
D16*
%TO.C,C17*%
X155700000Y-118000000D02*
G75*
G02*
X129800000Y-118000000I-12950000J0D01*
G01*
X129800000Y-118000000D02*
G75*
G02*
X155700000Y-118000000I12950000J0D01*
G01*
D14*
%TO.C,D8*%
X100945000Y-170790000D02*
X100945000Y-176300000D01*
X104245000Y-170790000D02*
X100945000Y-170790000D01*
X104245000Y-170790000D02*
X104245000Y-176300000D01*
%TO.C,C11*%
X100238748Y-168265000D02*
X100761252Y-168265000D01*
X100238748Y-169735000D02*
X100761252Y-169735000D01*
D15*
%TO.C,C28*%
X124117800Y-198509400D02*
X124117800Y-200490600D01*
X131382200Y-198509400D02*
X131382200Y-200490600D01*
X124117800Y-198509396D02*
G75*
G02*
X126731463Y-195022932I3632200J-4D01*
G01*
X126856430Y-204011169D02*
G75*
G02*
X124117800Y-200490600I893567J3520567D01*
G01*
X128768540Y-195022933D02*
G75*
G02*
X131382200Y-198509400I-1018540J-3486467D01*
G01*
X131382200Y-200490600D02*
G75*
G02*
X128643570Y-204011169I-3632200J0D01*
G01*
D14*
%TO.C,D1*%
X116340000Y-206518750D02*
X116340000Y-208418750D01*
X116340000Y-206518750D02*
X120000000Y-206518750D01*
X116340000Y-208418750D02*
X120000000Y-208418750D01*
%TO.C,U6*%
X137750000Y-92740000D02*
X137100000Y-92740000D01*
X137750000Y-92740000D02*
X138400000Y-92740000D01*
X137750000Y-95860000D02*
X137100000Y-95860000D01*
X137750000Y-95860000D02*
X138400000Y-95860000D01*
X139152500Y-96140000D02*
X138672500Y-96140000D01*
X138912500Y-95810000D01*
X139152500Y-96140000D01*
G36*
X139152500Y-96140000D02*
G01*
X138672500Y-96140000D01*
X138912500Y-95810000D01*
X139152500Y-96140000D01*
G37*
D15*
%TO.C,C27*%
X122259400Y-186117800D02*
X124240600Y-186117800D01*
X122259400Y-193382200D02*
X124240600Y-193382200D01*
X118772933Y-188731460D02*
G75*
G02*
X122259400Y-186117800I3486467J-1018540D01*
G01*
X122259396Y-193382200D02*
G75*
G02*
X118772932Y-190768537I4J3632200D01*
G01*
X124240600Y-186117800D02*
G75*
G02*
X127761169Y-188856430I0J-3632200D01*
G01*
X127761169Y-190643570D02*
G75*
G02*
X124240600Y-193382200I-3520567J893567D01*
G01*
D14*
%TO.C,C10*%
X140265000Y-94038748D02*
X140265000Y-94561252D01*
X141735000Y-94038748D02*
X141735000Y-94561252D01*
%TO.C,R8*%
X97015000Y-241772936D02*
X97015000Y-242227064D01*
X98485000Y-241772936D02*
X98485000Y-242227064D01*
D16*
%TO.C,C22*%
X143400000Y-159900000D02*
X158600000Y-159900000D01*
X143400000Y-186100000D02*
X143400000Y-159900000D01*
X158600000Y-159900000D02*
X158600000Y-186100000D01*
X158600000Y-186100000D02*
X143400000Y-186100000D01*
D15*
%TO.C,J5*%
X93122500Y-25953900D02*
X93122500Y-27046100D01*
X93122500Y-27046100D02*
X93546550Y-27046100D01*
X93546550Y-25953900D02*
X93122500Y-25953900D01*
X95873450Y-27046100D02*
X98626550Y-27046100D01*
X98626550Y-25953900D02*
X95873450Y-25953900D01*
X100953450Y-27046100D02*
X101377500Y-27046100D01*
X101377500Y-25953900D02*
X100953450Y-25953900D01*
X101377500Y-27046100D02*
X101377500Y-25953900D01*
D14*
%TO.C,R11*%
X108185436Y-168265000D02*
X108639564Y-168265000D01*
X108185436Y-169735000D02*
X108639564Y-169735000D01*
%TO.C,D4*%
X94290000Y-247812500D02*
X94290000Y-250497500D01*
X94290000Y-250497500D02*
X96210000Y-250497500D01*
X96210000Y-250497500D02*
X96210000Y-247812500D01*
%TO.C,J2*%
X108670000Y-191453240D02*
X110000000Y-191453240D01*
X108670000Y-192783240D02*
X108670000Y-191453240D01*
X108670000Y-194053240D02*
X108670000Y-206813240D01*
X108670000Y-194053240D02*
X111330000Y-194053240D01*
X108670000Y-206813240D02*
X111330000Y-206813240D01*
X111330000Y-194053240D02*
X111330000Y-206813240D01*
%TO.C,C8*%
X94488748Y-202248240D02*
X95011252Y-202248240D01*
X94488748Y-203718240D02*
X95011252Y-203718240D01*
%TO.C,R10*%
X104727064Y-168265000D02*
X104272936Y-168265000D01*
X104727064Y-169735000D02*
X104272936Y-169735000D01*
%TO.C,U8*%
X155190000Y-73750000D02*
X155190000Y-71800000D01*
X155190000Y-73750000D02*
X155190000Y-75700000D01*
X160310000Y-73750000D02*
X160310000Y-71800000D01*
X160310000Y-73750000D02*
X160310000Y-75700000D01*
X155285000Y-76450000D02*
X154955000Y-76690000D01*
X154955000Y-76210000D01*
X155285000Y-76450000D01*
G36*
X155285000Y-76450000D02*
G01*
X154955000Y-76690000D01*
X154955000Y-76210000D01*
X155285000Y-76450000D01*
G37*
D10*
%TO.C,J3*%
X114500000Y-232312500D02*
X114500000Y-242912500D01*
D18*
X114500000Y-251312500D02*
X114500000Y-242912500D01*
D10*
X122400000Y-232312500D02*
X114500000Y-232312500D01*
D18*
X122400000Y-232312500D02*
X130300000Y-232312500D01*
X124600000Y-251312500D02*
X114500000Y-251312500D01*
X148700000Y-232312500D02*
X130300000Y-232312500D01*
X154400000Y-251312500D02*
X124600000Y-251312500D01*
X156700000Y-232312500D02*
X148700000Y-232312500D01*
D10*
X156700000Y-232312500D02*
X164500000Y-232312500D01*
X164500000Y-232312500D02*
X164500000Y-242912500D01*
D18*
X164500000Y-251312500D02*
X154400000Y-251312500D01*
X164500000Y-251312500D02*
X164500000Y-242912500D01*
D16*
X132450000Y-231612500D02*
G75*
G02*
X132150000Y-231612500I-150000J0D01*
G01*
X132150000Y-231612500D02*
G75*
G02*
X132450000Y-231612500I150000J0D01*
G01*
D14*
%TO.C,C26*%
X110265000Y-215938748D02*
X110265000Y-216461252D01*
X111735000Y-215938748D02*
X111735000Y-216461252D01*
%TO.C,C9*%
X100511252Y-202248240D02*
X99988748Y-202248240D01*
X100511252Y-203718240D02*
X99988748Y-203718240D01*
D10*
%TO.C,U9*%
X102065000Y-251235000D02*
X102065000Y-244985000D01*
X102065000Y-251235000D02*
X110065000Y-251235000D01*
X103565000Y-239900000D02*
X102065000Y-244985000D01*
X103565000Y-239900000D02*
X108565000Y-239900000D01*
X108565000Y-239900000D02*
X110065000Y-244985000D01*
X110065000Y-251235000D02*
X110065000Y-244985000D01*
D14*
%TO.C,R12*%
X101022936Y-188015000D02*
X101477064Y-188015000D01*
X101022936Y-189485000D02*
X101477064Y-189485000D01*
%TO.C,D12*%
X121490000Y-210268750D02*
X121490000Y-212168750D01*
X121490000Y-210268750D02*
X125150000Y-210268750D01*
X121490000Y-212168750D02*
X125150000Y-212168750D01*
%TO.C,D13*%
X116340000Y-210268750D02*
X116340000Y-212168750D01*
X116340000Y-210268750D02*
X120000000Y-210268750D01*
X116340000Y-212168750D02*
X120000000Y-212168750D01*
%TO.C,M1*%
X147350000Y-34650000D02*
X147350000Y-28900000D01*
X147400000Y-24350000D02*
X153350000Y-24350000D01*
X147400000Y-27550000D02*
X147400000Y-24350000D01*
X152240000Y-28220000D02*
X153250000Y-28220000D01*
X152240000Y-33300000D02*
X152240000Y-28220000D01*
X153250000Y-33300000D02*
X152240000Y-33300000D01*
X153350000Y-24350000D02*
X153350000Y-34650000D01*
X153350000Y-34650000D02*
X147350000Y-34650000D01*
%TO.C,Q6*%
X98190000Y-235500000D02*
X98190000Y-234850000D01*
X98190000Y-235500000D02*
X98190000Y-236150000D01*
X101310000Y-235500000D02*
X101310000Y-234850000D01*
X101310000Y-235500000D02*
X101310000Y-236150000D01*
X101590000Y-234577500D02*
X101260000Y-234337500D01*
X101590000Y-234097500D01*
X101590000Y-234577500D01*
G36*
X101590000Y-234577500D02*
G01*
X101260000Y-234337500D01*
X101590000Y-234097500D01*
X101590000Y-234577500D01*
G37*
D16*
%TO.C,C25*%
X126900000Y-159900000D02*
X142100000Y-159900000D01*
X126900000Y-186100000D02*
X126900000Y-159900000D01*
X142100000Y-159900000D02*
X142100000Y-186100000D01*
X142100000Y-186100000D02*
X126900000Y-186100000D01*
D14*
%TO.C,R21*%
X156130000Y-117980000D02*
X156130000Y-124520000D01*
X156130000Y-124520000D02*
X158870000Y-124520000D01*
X157500000Y-117210000D02*
X157500000Y-117980000D01*
X157500000Y-125290000D02*
X157500000Y-124520000D01*
X158870000Y-117980000D02*
X156130000Y-117980000D01*
X158870000Y-124520000D02*
X158870000Y-117980000D01*
%TO.C,D11*%
X121490000Y-206518750D02*
X121490000Y-208418750D01*
X121490000Y-206518750D02*
X125150000Y-206518750D01*
X121490000Y-208418750D02*
X125150000Y-208418750D01*
D16*
%TO.C,C12*%
X112195000Y-173800000D02*
G75*
G02*
X106995000Y-173800000I-2600000J0D01*
G01*
X106995000Y-173800000D02*
G75*
G02*
X112195000Y-173800000I2600000J0D01*
G01*
D14*
%TO.C,C14*%
X100011252Y-238015000D02*
X99488748Y-238015000D01*
X100011252Y-239485000D02*
X99488748Y-239485000D01*
%TO.C,R26*%
X93322936Y-140460000D02*
X97677064Y-140460000D01*
X93322936Y-143880000D02*
X97677064Y-143880000D01*
D15*
%TO.C,C29*%
X115117800Y-165759400D02*
X115117800Y-167740600D01*
X122382200Y-165759400D02*
X122382200Y-167740600D01*
X115117800Y-165759396D02*
G75*
G02*
X117731463Y-162272932I3632200J-4D01*
G01*
X117856430Y-171261169D02*
G75*
G02*
X115117800Y-167740600I893567J3520567D01*
G01*
X119768540Y-162272933D02*
G75*
G02*
X122382200Y-165759400I-1018540J-3486467D01*
G01*
X122382200Y-167740600D02*
G75*
G02*
X119643570Y-171261169I-3632200J0D01*
G01*
D14*
%TO.C,Q7*%
X101680000Y-53230000D02*
X101680000Y-69370000D01*
X106951000Y-53230000D02*
X101680000Y-53230000D01*
X106951000Y-53230000D02*
X106951000Y-69370000D01*
X106951000Y-59496000D02*
X101680000Y-59496000D01*
X106951000Y-63105000D02*
X101680000Y-63105000D01*
X106951000Y-69370000D02*
X101680000Y-69370000D01*
%TO.C,U1*%
X97390000Y-212140000D02*
X97390000Y-212440000D01*
X97390000Y-219360000D02*
X97390000Y-219060000D01*
X97690000Y-212140000D02*
X97390000Y-212140000D01*
X97690000Y-219360000D02*
X97390000Y-219360000D01*
X104310000Y-212140000D02*
X104610000Y-212140000D01*
X104310000Y-219360000D02*
X104610000Y-219360000D01*
X104610000Y-212140000D02*
X104610000Y-212440000D01*
X104610000Y-219360000D02*
X104610000Y-219060000D01*
X105552500Y-219530000D02*
X104872500Y-219530000D01*
X105212500Y-219060000D01*
X105552500Y-219530000D01*
G36*
X105552500Y-219530000D02*
G01*
X104872500Y-219530000D01*
X105212500Y-219060000D01*
X105552500Y-219530000D01*
G37*
%TO.C,D3*%
X91790000Y-247812500D02*
X91790000Y-250497500D01*
X91790000Y-250497500D02*
X93710000Y-250497500D01*
X93710000Y-250497500D02*
X93710000Y-247812500D01*
%TO.C,R24*%
X93322936Y-130680000D02*
X97677064Y-130680000D01*
X93322936Y-134100000D02*
X97677064Y-134100000D01*
%TO.C,Q8*%
X101680000Y-75930000D02*
X101680000Y-92070000D01*
X106951000Y-75930000D02*
X101680000Y-75930000D01*
X106951000Y-75930000D02*
X106951000Y-92070000D01*
X106951000Y-82196000D02*
X101680000Y-82196000D01*
X106951000Y-85805000D02*
X101680000Y-85805000D01*
X106951000Y-92070000D02*
X101680000Y-92070000D01*
%TO.C,U2*%
X97840000Y-195383240D02*
X97840000Y-199143240D01*
X97840000Y-199143240D02*
X99100000Y-199143240D01*
X104660000Y-195383240D02*
X104660000Y-199143240D01*
X104660000Y-199143240D02*
X103400000Y-199143240D01*
X104890000Y-194343240D02*
X104560000Y-194103240D01*
X104890000Y-193863240D01*
X104890000Y-194343240D01*
G36*
X104890000Y-194343240D02*
G01*
X104560000Y-194103240D01*
X104890000Y-193863240D01*
X104890000Y-194343240D01*
G37*
D10*
%TO.C,HS1*%
X106468000Y-43782000D02*
X145232000Y-43782000D01*
X106468000Y-101782000D02*
X106468000Y-43782000D01*
X106468000Y-101782000D02*
X145232000Y-101782000D01*
X145232000Y-43782000D02*
X145232000Y-101782000D01*
X105850000Y-23782000D02*
X145850000Y-23782000D01*
X145850000Y-43782000D01*
X105850000Y-43782000D01*
X105850000Y-23782000D01*
D11*
%TO.C,U7*%
X94770000Y-172225000D02*
X94770000Y-176375000D01*
X99920000Y-172225000D02*
X99920000Y-176375000D01*
D14*
X100175000Y-171790000D02*
X99845000Y-171550000D01*
X100175000Y-171310000D01*
X100175000Y-171790000D01*
G36*
X100175000Y-171790000D02*
G01*
X99845000Y-171550000D01*
X100175000Y-171310000D01*
X100175000Y-171790000D01*
G37*
D10*
%TO.C,FL1*%
X133000000Y-188000000D02*
X161000000Y-188000000D01*
X133000000Y-207000000D02*
X133000000Y-188000000D01*
X161000000Y-188000000D02*
X161000000Y-207000000D01*
X161000000Y-207000000D02*
X133000000Y-207000000D01*
D15*
%TO.C,J6*%
X88622500Y-104703900D02*
X88622500Y-105796100D01*
X88622500Y-105796100D02*
X89046550Y-105796100D01*
X89046550Y-104703900D02*
X88622500Y-104703900D01*
X91373450Y-105796100D02*
X94126550Y-105796100D01*
X94126550Y-104703900D02*
X91373450Y-104703900D01*
X96453450Y-105796100D02*
X96877500Y-105796100D01*
X96877500Y-104703900D02*
X96453450Y-104703900D01*
X96877500Y-105796100D02*
X96877500Y-104703900D01*
D10*
%TO.C,L1*%
X101626129Y-182550000D02*
G75*
G02*
X93563871Y-182550000I-4031129J0D01*
G01*
X93563871Y-182550000D02*
G75*
G02*
X101626129Y-182550000I4031129J0D01*
G01*
D14*
%TO.C,D9*%
X101680000Y-109866000D02*
X101680000Y-126006000D01*
X106951000Y-109866000D02*
X101680000Y-109866000D01*
X106951000Y-109866000D02*
X106951000Y-126006000D01*
X106951000Y-116132000D02*
X101680000Y-116132000D01*
X106951000Y-119741000D02*
X101680000Y-119741000D01*
X106951000Y-126006000D02*
X101680000Y-126006000D01*
%TO.C,R6*%
X92015000Y-241772936D02*
X92015000Y-242227064D01*
X93485000Y-241772936D02*
X93485000Y-242227064D01*
%TO.C,R20*%
X112515000Y-216477064D02*
X112515000Y-216022936D01*
X113985000Y-216477064D02*
X113985000Y-216022936D01*
%TO.C,Q10*%
X144799000Y-76130000D02*
X150070000Y-76130000D01*
X144799000Y-82395000D02*
X150070000Y-82395000D01*
X144799000Y-86004000D02*
X150070000Y-86004000D01*
X144799000Y-92270000D02*
X144799000Y-76130000D01*
X144799000Y-92270000D02*
X150070000Y-92270000D01*
X150070000Y-92270000D02*
X150070000Y-76130000D01*
%TO.C,R22*%
X93322936Y-120790000D02*
X97677064Y-120790000D01*
X93322936Y-124210000D02*
X97677064Y-124210000D01*
%TO.C,R9*%
X99272936Y-77765000D02*
X99727064Y-77765000D01*
X99272936Y-79235000D02*
X99727064Y-79235000D01*
D16*
%TO.C,C13*%
X115100000Y-183250000D02*
G75*
G02*
X101900000Y-183250000I-6600000J0D01*
G01*
X101900000Y-183250000D02*
G75*
G02*
X115100000Y-183250000I6600000J0D01*
G01*
D14*
%TO.C,R1*%
X96110436Y-162765000D02*
X96564564Y-162765000D01*
X96110436Y-164235000D02*
X96564564Y-164235000D01*
%TO.C,D10*%
X101680000Y-134366000D02*
X101680000Y-150506000D01*
X106951000Y-134366000D02*
X101680000Y-134366000D01*
X106951000Y-134366000D02*
X106951000Y-150506000D01*
X106951000Y-140632000D02*
X101680000Y-140632000D01*
X106951000Y-144241000D02*
X101680000Y-144241000D01*
X106951000Y-150506000D02*
X101680000Y-150506000D01*
%TO.C,R27*%
X93322936Y-145350000D02*
X97677064Y-145350000D01*
X93322936Y-148770000D02*
X97677064Y-148770000D01*
%TO.C,D6*%
X132000000Y-213390000D02*
X132000000Y-217400000D01*
X134000000Y-213390000D02*
X132000000Y-213390000D01*
X134000000Y-213390000D02*
X134000000Y-217400000D01*
%TO.C,C20*%
X118288748Y-218733750D02*
X118811252Y-218733750D01*
X118288748Y-220203750D02*
X118811252Y-220203750D01*
%TO.C,C4*%
X95721252Y-210431760D02*
X95198748Y-210431760D01*
X95721252Y-211901760D02*
X95198748Y-211901760D01*
%TO.C,C18*%
X162015000Y-73761252D02*
X162015000Y-73238748D01*
X163485000Y-73761252D02*
X163485000Y-73238748D01*
%TO.C,R14*%
X153477064Y-66265000D02*
X153022936Y-66265000D01*
X153477064Y-67735000D02*
X153022936Y-67735000D01*
D16*
%TO.C,C16*%
X155700000Y-146500000D02*
G75*
G02*
X129800000Y-146500000I-12950000J0D01*
G01*
X129800000Y-146500000D02*
G75*
G02*
X155700000Y-146500000I12950000J0D01*
G01*
%TD*%
M02*
