%TF.GenerationSoftware,KiCad,Pcbnew,9.0.0*%
%TF.CreationDate,2025-06-29T21:09:52-04:00*%
%TF.ProjectId,RampedFetCoil,52616d70-6564-4466-9574-436f696c2e6b,rev?*%
%TF.SameCoordinates,Original*%
%TF.FileFunction,Soldermask,Bot*%
%TF.FilePolarity,Negative*%
%FSLAX46Y46*%
G04 Gerber Fmt 4.6, Leading zero omitted, Abs format (unit mm)*
G04 Created by KiCad (PCBNEW 9.0.0) date 2025-06-29 21:09:52*
%MOMM*%
%LPD*%
G01*
G04 APERTURE LIST*
%ADD10C,0.100000*%
%ADD11C,1.650000*%
%ADD12C,0.900000*%
%ADD13C,8.600000*%
%ADD14R,1.422400X1.422400*%
%ADD15C,1.422400*%
%ADD16C,1.700000*%
%ADD17C,1.905000*%
%ADD18C,4.000000*%
%ADD19C,1.408000*%
%ADD20C,1.000000*%
%ADD21C,2.500000*%
%ADD22R,3.000000X3.000000*%
%ADD23C,3.000000*%
%ADD24R,4.500000X1.905000*%
%ADD25O,4.500000X1.905000*%
%ADD26R,1.371600X1.371600*%
%ADD27C,1.371600*%
%ADD28C,3.500000*%
%ADD29R,2.700000X2.700000*%
%ADD30C,2.700000*%
%ADD31C,1.400000*%
%ADD32C,1.100000*%
%ADD33R,2.030000X1.730000*%
%ADD34O,2.030000X1.730000*%
%ADD35C,1.600000*%
%ADD36O,1.600000X1.600000*%
%ADD37R,4.500000X2.500000*%
%ADD38O,4.500000X2.500000*%
%ADD39C,1.800000*%
%ADD40R,2.300000X2.300000*%
%ADD41C,2.300000*%
%ADD42C,1.308000*%
%ADD43R,1.500000X1.500000*%
G04 APERTURE END LIST*
D10*
X101750000Y-36500000D02*
X105000000Y-36500000D01*
X105000000Y-49250000D01*
X101750000Y-49250000D01*
X101750000Y-36500000D01*
G36*
X101750000Y-36500000D02*
G01*
X105000000Y-36500000D01*
X105000000Y-49250000D01*
X101750000Y-49250000D01*
X101750000Y-36500000D01*
G37*
X101750000Y-49250000D02*
X111000000Y-49250000D01*
X111000000Y-53000000D01*
X101750000Y-53000000D01*
X101750000Y-49250000D01*
G36*
X101750000Y-49250000D02*
G01*
X111000000Y-49250000D01*
X111000000Y-53000000D01*
X101750000Y-53000000D01*
X101750000Y-49250000D01*
G37*
X140750000Y-49500000D02*
X155500000Y-49500000D01*
X155500000Y-53500000D01*
X140750000Y-53500000D01*
X140750000Y-49500000D01*
G36*
X140750000Y-49500000D02*
G01*
X155500000Y-49500000D01*
X155500000Y-53500000D01*
X140750000Y-53500000D01*
X140750000Y-49500000D01*
G37*
X105000000Y-36500000D02*
X111000000Y-36500000D01*
X111000000Y-42250000D01*
X105000000Y-42250000D01*
X105000000Y-36500000D01*
G36*
X105000000Y-36500000D02*
G01*
X111000000Y-36500000D01*
X111000000Y-42250000D01*
X105000000Y-42250000D01*
X105000000Y-36500000D01*
G37*
X140750000Y-53500000D02*
X143500000Y-53500000D01*
X143500000Y-91400000D01*
X140750000Y-91400000D01*
X140750000Y-53500000D01*
G36*
X140750000Y-53500000D02*
G01*
X143500000Y-53500000D01*
X143500000Y-91400000D01*
X140750000Y-91400000D01*
X140750000Y-53500000D01*
G37*
X148625000Y-43000000D02*
X155500000Y-43000000D01*
X155500000Y-49500000D01*
X148625000Y-49500000D01*
X148625000Y-43000000D01*
G36*
X148625000Y-43000000D02*
G01*
X155500000Y-43000000D01*
X155500000Y-49500000D01*
X148625000Y-49500000D01*
X148625000Y-43000000D01*
G37*
X108250000Y-53000000D02*
X111000000Y-53000000D01*
X111000000Y-81550000D01*
X108250000Y-81550000D01*
X108250000Y-53000000D01*
G36*
X108250000Y-53000000D02*
G01*
X111000000Y-53000000D01*
X111000000Y-81550000D01*
X108250000Y-81550000D01*
X108250000Y-53000000D01*
G37*
D11*
%TO.C,C29*%
X141600000Y-163550000D03*
X141600000Y-186050000D03*
%TD*%
D12*
%TO.C,H6*%
X80525000Y-132500000D03*
X81469581Y-130219581D03*
X81469581Y-134780419D03*
X83750000Y-129275000D03*
D13*
X83750000Y-132500000D03*
D12*
X83750000Y-135725000D03*
X86030419Y-130219581D03*
X86030419Y-134780419D03*
X86975000Y-132500000D03*
%TD*%
D14*
%TO.C,TH1*%
X147200000Y-227200000D03*
D15*
X147200000Y-222200000D03*
%TD*%
D16*
%TO.C,J2*%
X81195406Y-202454594D03*
X81195406Y-207534594D03*
X81195406Y-212614594D03*
X81195406Y-217694594D03*
X81195406Y-222774594D03*
X81195406Y-227854594D03*
X83745406Y-199904594D03*
X83745406Y-230404594D03*
X88825406Y-199904594D03*
X88825406Y-230404594D03*
X93905406Y-199904594D03*
X93905406Y-230404594D03*
X98985406Y-199904594D03*
X98985406Y-230404594D03*
X104065406Y-199904594D03*
X104065406Y-230404594D03*
X109145406Y-199904594D03*
X109145406Y-230404594D03*
X111695406Y-202454594D03*
X111695406Y-207534594D03*
X111695406Y-212614594D03*
X111695406Y-217694594D03*
X111695406Y-222774594D03*
X111695406Y-227854594D03*
%TD*%
D17*
%TO.C,J4*%
X159940000Y-41200000D03*
X154860000Y-41200000D03*
%TD*%
D18*
%TO.C,HS2*%
X108500000Y-158186000D03*
X108500000Y-104250000D03*
%TD*%
D19*
%TO.C,C13*%
X88250000Y-188500000D03*
X88250000Y-193500000D03*
%TD*%
D20*
%TO.C,NE1*%
X111000000Y-245800000D03*
X111000000Y-248800000D03*
%TD*%
D12*
%TO.C,H5*%
X166025000Y-27750000D03*
X166969581Y-25469581D03*
X166969581Y-30030419D03*
X169250000Y-24525000D03*
D13*
X169250000Y-27750000D03*
D12*
X169250000Y-30975000D03*
X171530419Y-25469581D03*
X171530419Y-30030419D03*
X172475000Y-27750000D03*
%TD*%
D21*
%TO.C,FL2*%
X154500000Y-198500000D03*
X166500000Y-198500000D03*
X154500000Y-208500000D03*
X166500000Y-208500000D03*
%TD*%
D17*
%TO.C,J7*%
X161000000Y-148750000D03*
X161000000Y-143670000D03*
%TD*%
D12*
%TO.C,H7*%
X166025000Y-132500000D03*
X166969581Y-130219581D03*
X166969581Y-134780419D03*
X169250000Y-129275000D03*
D13*
X169250000Y-132500000D03*
D12*
X169250000Y-135725000D03*
X171530419Y-130219581D03*
X171530419Y-134780419D03*
X172475000Y-132500000D03*
%TD*%
D22*
%TO.C,C17*%
X142750000Y-113000000D03*
D23*
X142750000Y-123000000D03*
%TD*%
D24*
%TO.C,Q4*%
X147400000Y-88400000D03*
D25*
X147400000Y-83320000D03*
X147400000Y-80780000D03*
X147400000Y-78240000D03*
%TD*%
D24*
%TO.C,Q3*%
X147400000Y-66960000D03*
D25*
X147400000Y-61880000D03*
X147400000Y-59340000D03*
X147400000Y-56800000D03*
%TD*%
D26*
%TO.C,C28*%
X144500000Y-214600000D03*
D27*
X144500000Y-204600000D03*
%TD*%
D24*
%TO.C,Q2*%
X104500000Y-78590000D03*
D25*
X104500000Y-83670000D03*
X104500000Y-86210000D03*
X104500000Y-88750000D03*
%TD*%
D26*
%TO.C,C27*%
X144500000Y-202100000D03*
D27*
X144500000Y-192100000D03*
%TD*%
D11*
%TO.C,C22*%
X157800000Y-185950000D03*
X157800000Y-163450000D03*
%TD*%
D17*
%TO.C,J5*%
X84500000Y-42790000D03*
X84500000Y-37710000D03*
%TD*%
D24*
%TO.C,Q1*%
X104500000Y-56750000D03*
D25*
X104500000Y-61830000D03*
X104500000Y-64370000D03*
X104500000Y-66910000D03*
%TD*%
D28*
%TO.C,J3*%
X119750000Y-242612500D03*
X159250000Y-242612500D03*
D29*
X132500000Y-235312500D03*
D30*
X139500000Y-235312500D03*
X146500000Y-235312500D03*
%TD*%
D31*
%TO.C,U9*%
X101695000Y-247682500D03*
X103600000Y-247682500D03*
X105505000Y-247682500D03*
%TD*%
D32*
%TO.C,M1*%
X147790000Y-28220000D03*
D33*
X149950000Y-33300000D03*
D34*
X149950000Y-30760000D03*
X149950000Y-28220000D03*
X149950000Y-25680000D03*
%TD*%
D11*
%TO.C,C25*%
X125400000Y-163550000D03*
X125400000Y-186050000D03*
%TD*%
D12*
%TO.C,H9*%
X80525000Y-246750000D03*
X81469581Y-244469581D03*
X81469581Y-249030419D03*
X83750000Y-243525000D03*
D13*
X83750000Y-246750000D03*
D12*
X83750000Y-249975000D03*
X86030419Y-244469581D03*
X86030419Y-249030419D03*
X86975000Y-246750000D03*
%TD*%
D18*
%TO.C,HS1*%
X108500000Y-45814000D03*
X108500000Y-99750000D03*
X143200000Y-45814000D03*
X143200000Y-99750000D03*
%TD*%
D12*
%TO.C,H8*%
X80525000Y-27750000D03*
X81469581Y-25469581D03*
X81469581Y-30030419D03*
X83750000Y-24525000D03*
D13*
X83750000Y-27750000D03*
D12*
X83750000Y-30975000D03*
X86030419Y-25469581D03*
X86030419Y-30030419D03*
X86975000Y-27750000D03*
%TD*%
D21*
%TO.C,FL1*%
X122700000Y-198600000D03*
X134700000Y-198600000D03*
X122700000Y-208600000D03*
X134700000Y-208600000D03*
%TD*%
D35*
%TO.C,R51*%
X111000000Y-238655000D03*
D36*
X111000000Y-241195000D03*
%TD*%
D17*
%TO.C,J6*%
X161000000Y-120500000D03*
X161000000Y-115420000D03*
%TD*%
D37*
%TO.C,D9*%
X104500000Y-112486000D03*
D38*
X104500000Y-123386000D03*
%TD*%
D37*
%TO.C,D10*%
X104500000Y-136986000D03*
D38*
X104500000Y-147886000D03*
%TD*%
D39*
%TO.C,RV1*%
X157650000Y-224500000D03*
X165150000Y-225900000D03*
%TD*%
D40*
%TO.C,K2*%
X121500000Y-228820000D03*
D41*
X131660000Y-228820000D03*
X139280000Y-228820000D03*
X136740000Y-221200000D03*
X121500000Y-221200000D03*
%TD*%
D12*
%TO.C,H4*%
X166025000Y-246750000D03*
X166969581Y-244469581D03*
X166969581Y-249030419D03*
X169250000Y-243525000D03*
D13*
X169250000Y-246750000D03*
D12*
X169250000Y-249975000D03*
X171530419Y-244469581D03*
X171530419Y-249030419D03*
X172475000Y-246750000D03*
%TD*%
D42*
%TO.C,C12*%
X92750000Y-181000000D03*
X92750000Y-179000000D03*
%TD*%
D22*
%TO.C,C16*%
X142750000Y-141500000D03*
D23*
X142750000Y-151500000D03*
%TD*%
D43*
%TO.C,TP4*%
X85800000Y-202750000D03*
%TD*%
%TO.C,TP1*%
X85800000Y-205600000D03*
%TD*%
%TO.C,TP3*%
X88700000Y-202700000D03*
%TD*%
%TO.C,TP2*%
X88700000Y-205550000D03*
%TD*%
M02*
