%TF.GenerationSoftware,KiCad,Pcbnew,9.0.0*%
%TF.CreationDate,2025-03-25T20:50:40-04:00*%
%TF.ProjectId,RampedFetCoil,52616d70-6564-4466-9574-436f696c2e6b,rev?*%
%TF.SameCoordinates,Original*%
%TF.FileFunction,Soldermask,Bot*%
%TF.FilePolarity,Negative*%
%FSLAX46Y46*%
G04 Gerber Fmt 4.6, Leading zero omitted, Abs format (unit mm)*
G04 Created by KiCad (PCBNEW 9.0.0) date 2025-03-25 20:50:40*
%MOMM*%
%LPD*%
G01*
G04 APERTURE LIST*
%ADD10C,0.100000*%
%ADD11R,1.371600X1.371600*%
%ADD12C,1.371600*%
%ADD13R,1.422400X1.422400*%
%ADD14C,1.422400*%
%ADD15C,1.905000*%
%ADD16C,4.000000*%
%ADD17R,2.300000X2.300000*%
%ADD18C,2.300000*%
%ADD19C,1.000000*%
%ADD20R,4.500000X2.500000*%
%ADD21O,4.500000X2.500000*%
%ADD22R,3.000000X3.000000*%
%ADD23C,3.000000*%
%ADD24C,4.300000*%
%ADD25C,1.650000*%
%ADD26R,1.700000X1.700000*%
%ADD27O,1.700000X1.700000*%
%ADD28C,3.500000*%
%ADD29R,2.700000X2.700000*%
%ADD30C,2.700000*%
%ADD31C,1.400000*%
%ADD32C,1.100000*%
%ADD33R,2.030000X1.730000*%
%ADD34O,2.030000X1.730000*%
%ADD35C,1.600000*%
%ADD36O,1.600000X1.600000*%
%ADD37C,1.308000*%
%ADD38C,2.500000*%
%ADD39C,1.500000*%
%ADD40C,1.408000*%
%ADD41C,0.900000*%
%ADD42C,8.600000*%
G04 APERTURE END LIST*
D10*
X140750000Y-49500000D02*
X155500000Y-49500000D01*
X155500000Y-53500000D01*
X140750000Y-53500000D01*
X140750000Y-49500000D01*
G36*
X140750000Y-49500000D02*
G01*
X155500000Y-49500000D01*
X155500000Y-53500000D01*
X140750000Y-53500000D01*
X140750000Y-49500000D01*
G37*
X101750000Y-36500000D02*
X105000000Y-36500000D01*
X105000000Y-49250000D01*
X101750000Y-49250000D01*
X101750000Y-36500000D01*
G36*
X101750000Y-36500000D02*
G01*
X105000000Y-36500000D01*
X105000000Y-49250000D01*
X101750000Y-49250000D01*
X101750000Y-36500000D01*
G37*
X101750000Y-49250000D02*
X111000000Y-49250000D01*
X111000000Y-53000000D01*
X101750000Y-53000000D01*
X101750000Y-49250000D01*
G36*
X101750000Y-49250000D02*
G01*
X111000000Y-49250000D01*
X111000000Y-53000000D01*
X101750000Y-53000000D01*
X101750000Y-49250000D01*
G37*
X105000000Y-36500000D02*
X111000000Y-36500000D01*
X111000000Y-42250000D01*
X105000000Y-42250000D01*
X105000000Y-36500000D01*
G36*
X105000000Y-36500000D02*
G01*
X111000000Y-36500000D01*
X111000000Y-42250000D01*
X105000000Y-42250000D01*
X105000000Y-36500000D01*
G37*
X140750000Y-53500000D02*
X143500000Y-53500000D01*
X143500000Y-86000000D01*
X140750000Y-86000000D01*
X140750000Y-53500000D01*
G36*
X140750000Y-53500000D02*
G01*
X143500000Y-53500000D01*
X143500000Y-86000000D01*
X140750000Y-86000000D01*
X140750000Y-53500000D01*
G37*
X108250000Y-53000000D02*
X111000000Y-53000000D01*
X111000000Y-85750000D01*
X108250000Y-85750000D01*
X108250000Y-53000000D01*
G36*
X108250000Y-53000000D02*
G01*
X111000000Y-53000000D01*
X111000000Y-85750000D01*
X108250000Y-85750000D01*
X108250000Y-53000000D01*
G37*
D11*
%TO.C,C30*%
X118750000Y-183750000D03*
D12*
X118750000Y-173750000D03*
%TD*%
D13*
%TO.C,TH1*%
X150500000Y-227250000D03*
D14*
X145500000Y-227250000D03*
%TD*%
D15*
%TO.C,J4*%
X150460000Y-47750000D03*
X155540000Y-47750000D03*
%TD*%
D16*
%TO.C,HS2*%
X108500000Y-158186000D03*
X108500000Y-104250000D03*
%TD*%
D17*
%TO.C,K1*%
X136625000Y-219800000D03*
D18*
X146785000Y-219800000D03*
X154405000Y-219800000D03*
X136625000Y-212180000D03*
%TD*%
D19*
%TO.C,NE1*%
X157500000Y-130750000D03*
X157500000Y-133750000D03*
%TD*%
D20*
%TO.C,Q9*%
X147250000Y-66900000D03*
D21*
X147250000Y-61450000D03*
X147250000Y-56000000D03*
%TD*%
D15*
%TO.C,J7*%
X90210000Y-96750000D03*
X95290000Y-96750000D03*
%TD*%
D22*
%TO.C,C17*%
X142750000Y-113000000D03*
D23*
X142750000Y-123000000D03*
%TD*%
D11*
%TO.C,C28*%
X127750000Y-194500000D03*
D12*
X127750000Y-204500000D03*
%TD*%
D11*
%TO.C,C27*%
X118250000Y-189750000D03*
D12*
X128250000Y-189750000D03*
%TD*%
D24*
%TO.C,H1*%
X159750000Y-61250000D03*
%TD*%
D25*
%TO.C,C22*%
X151000000Y-184250000D03*
X151000000Y-161750000D03*
%TD*%
D15*
%TO.C,J5*%
X94710000Y-26500000D03*
X99790000Y-26500000D03*
%TD*%
D26*
%TO.C,J2*%
X110000000Y-192783240D03*
D27*
X110000000Y-195323240D03*
X110000000Y-197863240D03*
X110000000Y-200403240D03*
X110000000Y-202943240D03*
X110000000Y-205483240D03*
%TD*%
D28*
%TO.C,J3*%
X119750000Y-242612500D03*
X159250000Y-242612500D03*
D29*
X132500000Y-235312500D03*
D30*
X139500000Y-235312500D03*
X146500000Y-235312500D03*
%TD*%
D24*
%TO.C,H2*%
X93250000Y-61250000D03*
%TD*%
D31*
%TO.C,U9*%
X104167500Y-247750000D03*
X106072500Y-247750000D03*
X107977500Y-247750000D03*
%TD*%
D32*
%TO.C,M1*%
X147790000Y-28220000D03*
D33*
X149950000Y-33300000D03*
D34*
X149950000Y-30760000D03*
X149950000Y-28220000D03*
X149950000Y-25680000D03*
%TD*%
D25*
%TO.C,C25*%
X134500000Y-161750000D03*
X134500000Y-184250000D03*
%TD*%
D35*
%TO.C,R21*%
X157500000Y-126330000D03*
D36*
X157500000Y-116170000D03*
%TD*%
D37*
%TO.C,C12*%
X109595000Y-172800000D03*
X109595000Y-174800000D03*
%TD*%
D11*
%TO.C,C29*%
X118750000Y-161750000D03*
D12*
X118750000Y-171750000D03*
%TD*%
D20*
%TO.C,Q7*%
X104500000Y-55850000D03*
D21*
X104500000Y-61300000D03*
X104500000Y-66750000D03*
%TD*%
D20*
%TO.C,Q8*%
X104500000Y-78550000D03*
D21*
X104500000Y-84000000D03*
X104500000Y-89450000D03*
%TD*%
D24*
%TO.C,H3*%
X106000000Y-234500000D03*
%TD*%
D16*
%TO.C,HS1*%
X108500000Y-45814000D03*
X108500000Y-99750000D03*
X143200000Y-45814000D03*
X143200000Y-99750000D03*
%TD*%
D38*
%TO.C,FL1*%
X142000000Y-203500000D03*
X142000000Y-191500000D03*
X152000000Y-203500000D03*
X152000000Y-191500000D03*
%TD*%
D15*
%TO.C,J6*%
X90210000Y-105250000D03*
X95290000Y-105250000D03*
%TD*%
D39*
%TO.C,L1*%
X95095000Y-182550000D03*
X100095000Y-182550000D03*
%TD*%
D20*
%TO.C,D9*%
X104500000Y-112486000D03*
D21*
X104500000Y-123386000D03*
%TD*%
D20*
%TO.C,Q10*%
X147250000Y-89650000D03*
D21*
X147250000Y-84200000D03*
X147250000Y-78750000D03*
%TD*%
D40*
%TO.C,C13*%
X108500000Y-180750000D03*
X108500000Y-185750000D03*
%TD*%
D20*
%TO.C,D10*%
X104500000Y-136986000D03*
D21*
X104500000Y-147886000D03*
%TD*%
D41*
%TO.C,H4*%
X156525000Y-227500000D03*
X157469581Y-225219581D03*
X157469581Y-229780419D03*
X159750000Y-224275000D03*
D42*
X159750000Y-227500000D03*
D41*
X159750000Y-230725000D03*
X162030419Y-225219581D03*
X162030419Y-229780419D03*
X162975000Y-227500000D03*
%TD*%
D22*
%TO.C,C16*%
X142750000Y-141500000D03*
D23*
X142750000Y-151500000D03*
%TD*%
M02*
