%TF.GenerationSoftware,KiCad,Pcbnew,9.0.0*%
%TF.CreationDate,2025-06-29T21:09:51-04:00*%
%TF.ProjectId,RampedFetCoil,52616d70-6564-4466-9574-436f696c2e6b,rev?*%
%TF.SameCoordinates,Original*%
%TF.FileFunction,Legend,Bot*%
%TF.FilePolarity,Positive*%
%FSLAX46Y46*%
G04 Gerber Fmt 4.6, Leading zero omitted, Abs format (unit mm)*
G04 Created by KiCad (PCBNEW 9.0.0) date 2025-06-29 21:09:51*
%MOMM*%
%LPD*%
G01*
G04 APERTURE LIST*
%ADD10C,0.100000*%
%ADD11C,0.120000*%
G04 APERTURE END LIST*
D10*
X91122419Y-204403884D02*
X90122419Y-204403884D01*
X90122419Y-204403884D02*
X90122419Y-204784836D01*
X90122419Y-204784836D02*
X90170038Y-204880074D01*
X90170038Y-204880074D02*
X90217657Y-204927693D01*
X90217657Y-204927693D02*
X90312895Y-204975312D01*
X90312895Y-204975312D02*
X90455752Y-204975312D01*
X90455752Y-204975312D02*
X90550990Y-204927693D01*
X90550990Y-204927693D02*
X90598609Y-204880074D01*
X90598609Y-204880074D02*
X90646228Y-204784836D01*
X90646228Y-204784836D02*
X90646228Y-204403884D01*
X90836704Y-205356265D02*
X90836704Y-205832455D01*
X91122419Y-205261027D02*
X90122419Y-205594360D01*
X90122419Y-205594360D02*
X91122419Y-205927693D01*
X90122419Y-206165789D02*
X90122419Y-206832455D01*
X90122419Y-206832455D02*
X91122419Y-206403884D01*
X84422419Y-204353884D02*
X83422419Y-204353884D01*
X83422419Y-204353884D02*
X83422419Y-204734836D01*
X83422419Y-204734836D02*
X83470038Y-204830074D01*
X83470038Y-204830074D02*
X83517657Y-204877693D01*
X83517657Y-204877693D02*
X83612895Y-204925312D01*
X83612895Y-204925312D02*
X83755752Y-204925312D01*
X83755752Y-204925312D02*
X83850990Y-204877693D01*
X83850990Y-204877693D02*
X83898609Y-204830074D01*
X83898609Y-204830074D02*
X83946228Y-204734836D01*
X83946228Y-204734836D02*
X83946228Y-204353884D01*
X83898609Y-205687217D02*
X83946228Y-205830074D01*
X83946228Y-205830074D02*
X83993847Y-205877693D01*
X83993847Y-205877693D02*
X84089085Y-205925312D01*
X84089085Y-205925312D02*
X84231942Y-205925312D01*
X84231942Y-205925312D02*
X84327180Y-205877693D01*
X84327180Y-205877693D02*
X84374800Y-205830074D01*
X84374800Y-205830074D02*
X84422419Y-205734836D01*
X84422419Y-205734836D02*
X84422419Y-205353884D01*
X84422419Y-205353884D02*
X83422419Y-205353884D01*
X83422419Y-205353884D02*
X83422419Y-205687217D01*
X83422419Y-205687217D02*
X83470038Y-205782455D01*
X83470038Y-205782455D02*
X83517657Y-205830074D01*
X83517657Y-205830074D02*
X83612895Y-205877693D01*
X83612895Y-205877693D02*
X83708133Y-205877693D01*
X83708133Y-205877693D02*
X83803371Y-205830074D01*
X83803371Y-205830074D02*
X83850990Y-205782455D01*
X83850990Y-205782455D02*
X83898609Y-205687217D01*
X83898609Y-205687217D02*
X83898609Y-205353884D01*
X83422419Y-206544360D02*
X83422419Y-206639598D01*
X83422419Y-206639598D02*
X83470038Y-206734836D01*
X83470038Y-206734836D02*
X83517657Y-206782455D01*
X83517657Y-206782455D02*
X83612895Y-206830074D01*
X83612895Y-206830074D02*
X83803371Y-206877693D01*
X83803371Y-206877693D02*
X84041466Y-206877693D01*
X84041466Y-206877693D02*
X84231942Y-206830074D01*
X84231942Y-206830074D02*
X84327180Y-206782455D01*
X84327180Y-206782455D02*
X84374800Y-206734836D01*
X84374800Y-206734836D02*
X84422419Y-206639598D01*
X84422419Y-206639598D02*
X84422419Y-206544360D01*
X84422419Y-206544360D02*
X84374800Y-206449122D01*
X84374800Y-206449122D02*
X84327180Y-206401503D01*
X84327180Y-206401503D02*
X84231942Y-206353884D01*
X84231942Y-206353884D02*
X84041466Y-206306265D01*
X84041466Y-206306265D02*
X83803371Y-206306265D01*
X83803371Y-206306265D02*
X83612895Y-206353884D01*
X83612895Y-206353884D02*
X83517657Y-206401503D01*
X83517657Y-206401503D02*
X83470038Y-206449122D01*
X83470038Y-206449122D02*
X83422419Y-206544360D01*
X83472419Y-201558646D02*
X83472419Y-202177693D01*
X83472419Y-202177693D02*
X83853371Y-201844360D01*
X83853371Y-201844360D02*
X83853371Y-201987217D01*
X83853371Y-201987217D02*
X83900990Y-202082455D01*
X83900990Y-202082455D02*
X83948609Y-202130074D01*
X83948609Y-202130074D02*
X84043847Y-202177693D01*
X84043847Y-202177693D02*
X84281942Y-202177693D01*
X84281942Y-202177693D02*
X84377180Y-202130074D01*
X84377180Y-202130074D02*
X84424800Y-202082455D01*
X84424800Y-202082455D02*
X84472419Y-201987217D01*
X84472419Y-201987217D02*
X84472419Y-201701503D01*
X84472419Y-201701503D02*
X84424800Y-201606265D01*
X84424800Y-201606265D02*
X84377180Y-201558646D01*
X83472419Y-202463408D02*
X84472419Y-202796741D01*
X84472419Y-202796741D02*
X83472419Y-203130074D01*
X83472419Y-203368170D02*
X83472419Y-203987217D01*
X83472419Y-203987217D02*
X83853371Y-203653884D01*
X83853371Y-203653884D02*
X83853371Y-203796741D01*
X83853371Y-203796741D02*
X83900990Y-203891979D01*
X83900990Y-203891979D02*
X83948609Y-203939598D01*
X83948609Y-203939598D02*
X84043847Y-203987217D01*
X84043847Y-203987217D02*
X84281942Y-203987217D01*
X84281942Y-203987217D02*
X84377180Y-203939598D01*
X84377180Y-203939598D02*
X84424800Y-203891979D01*
X84424800Y-203891979D02*
X84472419Y-203796741D01*
X84472419Y-203796741D02*
X84472419Y-203511027D01*
X84472419Y-203511027D02*
X84424800Y-203415789D01*
X84424800Y-203415789D02*
X84377180Y-203368170D01*
X91122419Y-201553884D02*
X90122419Y-201553884D01*
X90122419Y-201553884D02*
X90122419Y-201934836D01*
X90122419Y-201934836D02*
X90170038Y-202030074D01*
X90170038Y-202030074D02*
X90217657Y-202077693D01*
X90217657Y-202077693D02*
X90312895Y-202125312D01*
X90312895Y-202125312D02*
X90455752Y-202125312D01*
X90455752Y-202125312D02*
X90550990Y-202077693D01*
X90550990Y-202077693D02*
X90598609Y-202030074D01*
X90598609Y-202030074D02*
X90646228Y-201934836D01*
X90646228Y-201934836D02*
X90646228Y-201553884D01*
X90836704Y-202506265D02*
X90836704Y-202982455D01*
X91122419Y-202411027D02*
X90122419Y-202744360D01*
X90122419Y-202744360D02*
X91122419Y-203077693D01*
X90122419Y-203839598D02*
X90122419Y-203649122D01*
X90122419Y-203649122D02*
X90170038Y-203553884D01*
X90170038Y-203553884D02*
X90217657Y-203506265D01*
X90217657Y-203506265D02*
X90360514Y-203411027D01*
X90360514Y-203411027D02*
X90550990Y-203363408D01*
X90550990Y-203363408D02*
X90931942Y-203363408D01*
X90931942Y-203363408D02*
X91027180Y-203411027D01*
X91027180Y-203411027D02*
X91074800Y-203458646D01*
X91074800Y-203458646D02*
X91122419Y-203553884D01*
X91122419Y-203553884D02*
X91122419Y-203744360D01*
X91122419Y-203744360D02*
X91074800Y-203839598D01*
X91074800Y-203839598D02*
X91027180Y-203887217D01*
X91027180Y-203887217D02*
X90931942Y-203934836D01*
X90931942Y-203934836D02*
X90693847Y-203934836D01*
X90693847Y-203934836D02*
X90598609Y-203887217D01*
X90598609Y-203887217D02*
X90550990Y-203839598D01*
X90550990Y-203839598D02*
X90503371Y-203744360D01*
X90503371Y-203744360D02*
X90503371Y-203553884D01*
X90503371Y-203553884D02*
X90550990Y-203458646D01*
X90550990Y-203458646D02*
X90598609Y-203411027D01*
X90598609Y-203411027D02*
X90693847Y-203363408D01*
D11*
%TO.C,TP4*%
X84850000Y-201800000D02*
X84850000Y-203700000D01*
X84850000Y-203700000D02*
X86750000Y-203700000D01*
X86750000Y-201800000D02*
X84850000Y-201800000D01*
X86750000Y-203700000D02*
X86750000Y-201800000D01*
%TO.C,TP1*%
X84850000Y-204650000D02*
X84850000Y-206550000D01*
X84850000Y-206550000D02*
X86750000Y-206550000D01*
X86750000Y-204650000D02*
X84850000Y-204650000D01*
X86750000Y-206550000D02*
X86750000Y-204650000D01*
%TO.C,TP3*%
X87750000Y-201750000D02*
X87750000Y-203650000D01*
X87750000Y-203650000D02*
X89650000Y-203650000D01*
X89650000Y-201750000D02*
X87750000Y-201750000D01*
X89650000Y-203650000D02*
X89650000Y-201750000D01*
%TO.C,TP2*%
X87750000Y-204600000D02*
X87750000Y-206500000D01*
X87750000Y-206500000D02*
X89650000Y-206500000D01*
X89650000Y-204600000D02*
X87750000Y-204600000D01*
X89650000Y-206500000D02*
X89650000Y-204600000D01*
%TD*%
M02*
