M48
; DRILL file {KiCad 9.0.0} date 2025-06-29T21:09:45-0400
; FORMAT={-:-/ absolute / inch / decimal}
; #@! TF.CreationDate,2025-06-29T21:09:45-04:00
; #@! TF.GenerationSoftware,Kicad,Pcbnew,9.0.0
; #@! TF.FileFunction,Plated,1,2,PTH
FMAT,2
INCH
; #@! TA.AperFunction,Plated,PTH,ViaDrill
T1C0.0118
; #@! TA.AperFunction,Plated,PTH,ComponentDrill
T2C0.0236
; #@! TA.AperFunction,Plated,PTH,ComponentDrill
T3C0.0315
; #@! TA.AperFunction,Plated,PTH,ComponentDrill
T4C0.0340
; #@! TA.AperFunction,Plated,PTH,ComponentDrill
T5C0.0354
; #@! TA.AperFunction,Plated,PTH,ComponentDrill
T6C0.0360
; #@! TA.AperFunction,Plated,PTH,ComponentDrill
T7C0.0402
; #@! TA.AperFunction,Plated,PTH,ComponentDrill
T8C0.0433
; #@! TA.AperFunction,Plated,PTH,ComponentDrill
T9C0.0512
; #@! TA.AperFunction,Plated,PTH,ComponentDrill
T10C0.0550
; #@! TA.AperFunction,Plated,PTH,ComponentDrill
T11C0.0591
; #@! TA.AperFunction,Plated,PTH,ComponentDrill
T12C0.0669
; #@! TA.AperFunction,Plated,PTH,ComponentDrill
T13C0.0709
; #@! TA.AperFunction,Plated,PTH,ComponentDrill
T14C0.0787
; #@! TA.AperFunction,Plated,PTH,ComponentDrill
T15C0.1102
; #@! TA.AperFunction,Plated,PTH,ComponentDrill
T16C0.1693
%
G90
G05
T1
X3.2362Y-3.252
X3.2441Y-2.8189
X3.2441Y-3.0065
X3.2441Y-6.4331
X3.2559Y-6.9252
X3.2677Y-7.7057
X3.3228Y-8.0374
X3.3307Y-4.1417
X3.3307Y-8.7323
X3.3322Y-2.8046
X3.3484Y-8.6909
X3.3622Y-3.4094
X3.3622Y-8.6516
X3.3661Y-8.3076
X3.3661Y-8.7835
X3.374Y-7.7402
X3.378Y-3.061
X3.378Y-4.3071
X3.378Y-7.7717
X3.4055Y-8.622
X3.4409Y-8.4252
X3.4409Y-8.7205
X3.4606Y-4.126
X3.4803Y-9.4843
X3.493Y-8.1803
X3.5039Y-3.061
X3.5039Y-4.0453
X3.5138Y-8.1437
X3.5157Y-8.3228
X3.5335Y-4.0236
X3.5467Y-8.1403
X3.5756Y-8.0779
X3.5816Y-3.4246
X3.6024Y-9.8327
X3.6063Y-8.0709
X3.6063Y-9.4882
X3.6614Y-3.4256
X3.6811Y-2.5098
X3.6811Y-2.6476
X3.6811Y-8.0669
X3.7205Y-8.4868
X3.7272Y-2.0079
X3.7272Y-2.0343
X3.7402Y-3.4252
X3.7402Y-8.8386
X3.7555Y-9.5
X3.7992Y-9.8327
X3.8268Y-8.8071
X3.8287Y-3.4252
X3.8583Y-8.7137
X3.9055Y-7.6929
X3.9272Y-2.0079
X3.9272Y-2.0374
X3.9764Y-8.5335
X3.9862Y-7.3917
X3.9875Y-8.2872
X4.0669Y-8.7047
X4.1496Y-8.8425
X4.1535Y-1.4469
X4.1535Y-1.4764
X4.1535Y-1.5059
X4.1535Y-1.5354
X4.1535Y-1.565
X4.1535Y-1.5945
X4.1535Y-1.624
X4.1535Y-1.6535
X4.1772Y-8.5551
X4.1772Y-8.7362
X4.1811Y-8.2441
X4.1831Y-1.4469
X4.1831Y-1.4764
X4.1831Y-1.5059
X4.1831Y-1.5354
X4.1831Y-1.565
X4.1831Y-1.5945
X4.1831Y-1.624
X4.1831Y-1.6535
X4.189Y-8.3307
X4.189Y-8.8268
X4.2126Y-1.4469
X4.2126Y-1.4764
X4.2126Y-1.5059
X4.2126Y-1.5354
X4.2126Y-1.565
X4.2126Y-1.5945
X4.2126Y-1.624
X4.2126Y-1.6535
X4.2421Y-1.4469
X4.2421Y-1.4764
X4.2421Y-1.5059
X4.2421Y-1.5354
X4.2421Y-1.565
X4.2421Y-1.5945
X4.2421Y-1.624
X4.2421Y-1.6535
X4.2717Y-1.4469
X4.2717Y-1.4764
X4.2717Y-1.5059
X4.2717Y-1.5354
X4.2717Y-1.565
X4.2717Y-1.5945
X4.2717Y-1.624
X4.2717Y-1.6535
X4.2717Y-6.6634
X4.2717Y-6.7028
X4.2717Y-6.7421
X4.2756Y-7.3228
X4.3012Y-1.4469
X4.3012Y-1.4764
X4.3012Y-1.5059
X4.3012Y-1.5354
X4.3012Y-1.565
X4.3012Y-1.5945
X4.3012Y-1.624
X4.3012Y-1.6535
X4.3307Y-1.4469
X4.3307Y-1.4764
X4.3307Y-1.5059
X4.3307Y-1.5354
X4.3307Y-1.565
X4.3307Y-1.5945
X4.3307Y-1.624
X4.3307Y-1.6535
X4.3504Y-6.4764
X4.3504Y-6.5059
X4.3602Y-1.4469
X4.3602Y-1.4764
X4.3602Y-1.5059
X4.3602Y-1.5354
X4.3602Y-1.565
X4.3602Y-1.5945
X4.3602Y-1.624
X4.3602Y-1.6535
X4.439Y-6.4665
X4.4488Y-3.2126
X4.4488Y-3.2421
X4.4488Y-3.2717
X4.4488Y-3.3012
X4.4488Y-3.3307
X4.4488Y-3.3602
X4.4488Y-3.3898
X4.4685Y-8.5236
X4.471Y-7.7283
X4.4783Y-3.2126
X4.4783Y-3.2421
X4.4783Y-3.2717
X4.4783Y-3.3012
X4.4783Y-3.3307
X4.4783Y-3.3602
X4.4783Y-3.3898
X4.4863Y-6.447
X4.5079Y-3.2126
X4.5079Y-3.2421
X4.5079Y-3.2717
X4.5079Y-3.3012
X4.5079Y-3.3307
X4.5079Y-3.3602
X4.5079Y-3.3898
X4.513Y-8.5839
X4.5156Y-8.4368
X4.5197Y-8.1535
X4.5374Y-3.2126
X4.5374Y-3.2421
X4.5374Y-3.2717
X4.5374Y-3.3012
X4.5374Y-3.3307
X4.5374Y-3.3602
X4.5374Y-3.3898
X4.5433Y-7.3228
X4.5506Y-8.1644
X4.5669Y-3.2126
X4.5669Y-3.2421
X4.5669Y-3.2717
X4.5669Y-3.3012
X4.5669Y-3.3307
X4.5669Y-3.3602
X4.5669Y-3.3898
X4.5945Y-8.1614
X4.6496Y-7.5709
X4.6929Y-7.5709
X4.8505Y-7.2438
X5.3445Y-3.2362
X5.3445Y-3.2657
X5.3445Y-3.2953
X5.3445Y-3.3248
X5.3445Y-3.3543
X5.3445Y-3.3839
X5.3445Y-3.4134
X5.374Y-3.2362
X5.374Y-3.2657
X5.374Y-3.2953
X5.374Y-3.3248
X5.374Y-3.3543
X5.374Y-3.3839
X5.374Y-3.4134
X5.4035Y-3.2362
X5.4035Y-3.2657
X5.4035Y-3.2953
X5.4035Y-3.3248
X5.4035Y-3.3543
X5.4035Y-3.3839
X5.4035Y-3.4134
X5.4331Y-3.2362
X5.4331Y-3.2657
X5.4331Y-3.2953
X5.4331Y-3.3248
X5.4331Y-3.3543
X5.4331Y-3.3839
X5.4331Y-3.4134
X5.4626Y-3.2362
X5.4626Y-3.2657
X5.4626Y-3.2953
X5.4626Y-3.3248
X5.4626Y-3.3543
X5.4626Y-3.3839
X5.4626Y-3.4134
X6.1097Y-1.1772
X6.126Y-2.4488
X6.2126Y-2.4173
X6.252Y-1.0512
X6.2638Y-3.2402
X6.2638Y-3.4055
X6.2756Y-2.6063
X6.4016Y-2.5591
X6.518Y-3.8954
X6.5447Y-3.4868
X6.5512Y-3.8701
X6.5906Y-2.4409
X6.6063Y-3.2441
X6.6161Y-3.872
X6.6908Y-4.1102
X6.6978Y-2.9163
X6.7037Y-2.4331
X6.7087Y-2.8031
X6.7087Y-2.8518
X6.7441Y-3.9094
X6.7559Y-3.1654
T2
X3.1703Y-1.0925
X3.1703Y-5.2165
X3.1703Y-9.7146
X3.2075Y-1.0027
X3.2075Y-1.1823
X3.2075Y-5.1268
X3.2075Y-5.3063
X3.2075Y-9.6248
X3.2075Y-9.8043
X3.2972Y-0.9656
X3.2972Y-1.2195
X3.2972Y-5.0896
X3.2972Y-5.3435
X3.2972Y-9.5876
X3.2972Y-9.8415
X3.387Y-1.0027
X3.387Y-1.1823
X3.387Y-5.1268
X3.387Y-5.3063
X3.387Y-9.6248
X3.387Y-9.8043
X3.4242Y-1.0925
X3.4242Y-5.2165
X3.4242Y-9.7146
X4.3701Y-9.6772
X4.3701Y-9.7953
X6.5364Y-1.0925
X6.5364Y-5.2165
X6.5364Y-9.7146
X6.5736Y-1.0027
X6.5736Y-1.1823
X6.5736Y-5.1268
X6.5736Y-5.3063
X6.5736Y-9.6248
X6.5736Y-9.8043
X6.6634Y-0.9656
X6.6634Y-1.2195
X6.6634Y-5.0896
X6.6634Y-5.3435
X6.6634Y-9.5876
X6.6634Y-9.8415
X6.7532Y-1.0027
X6.7532Y-1.1823
X6.7532Y-5.1268
X6.7532Y-5.3063
X6.7532Y-9.6248
X6.7532Y-9.8043
X6.7904Y-1.0925
X6.7904Y-5.2165
X6.7904Y-9.7146
T3
X3.6516Y-7.0472
X3.6516Y-7.126
X4.0037Y-9.7513
X4.0787Y-9.7513
X4.1537Y-9.7513
X4.3701Y-9.3959
X4.3701Y-9.4959
X6.2067Y-8.8386
X6.502Y-8.8937
T4
X5.689Y-7.563
X5.689Y-7.9567
X5.689Y-8.0551
X5.689Y-8.4488
T5
X3.4744Y-7.4213
X3.4744Y-7.6181
T6
X5.7953Y-8.748
X5.7953Y-8.9449
T7
X5.9035Y-1.011
X5.9035Y-1.111
X5.9035Y-1.211
X5.9035Y-1.311
T8
X3.1967Y-7.9707
X3.1967Y-8.1707
X3.1967Y-8.3707
X3.1967Y-8.5707
X3.1967Y-8.7707
X3.1967Y-8.9707
X3.2971Y-7.8703
X3.2971Y-9.071
X3.4971Y-7.8703
X3.4971Y-9.071
X3.6971Y-7.8703
X3.6971Y-9.071
X3.8971Y-7.8703
X3.8971Y-9.071
X4.0971Y-7.8703
X4.0971Y-9.071
X4.2971Y-7.8703
X4.2971Y-9.071
X4.3975Y-7.9707
X4.3975Y-8.1707
X4.3975Y-8.3707
X4.3975Y-8.5707
X4.3975Y-8.7707
X4.3975Y-8.9707
X4.937Y-6.439
X4.937Y-7.3248
X5.5748Y-6.439
X5.5748Y-7.3248
X6.2126Y-6.435
X6.2126Y-7.3209
T9
X4.7835Y-8.7087
X4.7835Y-9.0087
X5.1835Y-9.0087
X5.3835Y-8.7087
X5.4835Y-9.0087
T10
X3.3268Y-1.4846
X3.3268Y-1.6846
X6.0969Y-1.622
X6.2969Y-1.622
X6.3386Y-4.5441
X6.3386Y-4.7441
X6.3386Y-5.6563
X6.3386Y-5.8563
T11
X4.1142Y-2.2343
X4.1142Y-2.4343
X4.1142Y-2.5343
X4.1142Y-2.6343
X4.1142Y-3.0941
X4.1142Y-3.2941
X4.1142Y-3.3941
X4.1142Y-3.4941
X4.1142Y-4.4286
X4.1142Y-4.8577
X4.1142Y-5.3931
X4.1142Y-5.8223
X5.8031Y-2.2362
X5.8031Y-2.3362
X5.8031Y-2.4362
X5.8031Y-2.6362
X5.8031Y-3.0803
X5.8031Y-3.1803
X5.8031Y-3.2803
X5.8031Y-3.4803
T12
X4.8307Y-7.8189
X4.8307Y-8.2126
X5.3031Y-7.8189
X5.3031Y-8.2126
X6.0827Y-7.815
X6.0827Y-8.2087
X6.5551Y-7.815
X6.5551Y-8.2087
T13
X5.2165Y-9.2643
X5.4921Y-9.2643
X5.7677Y-9.2643
T14
X5.6201Y-4.4488
X5.6201Y-4.8425
X5.6201Y-5.5709
X5.6201Y-5.9646
T15
X4.2717Y-1.8037
X4.2717Y-3.9272
X4.2717Y-4.1043
X4.2717Y-6.2278
X5.6378Y-1.8037
X5.6378Y-3.9272
T16
X3.2972Y-1.0925
X3.2972Y-5.2165
X3.2972Y-9.7146
X6.6634Y-1.0925
X6.6634Y-5.2165
X6.6634Y-9.7146
M30
