%TF.GenerationSoftware,KiCad,Pcbnew,9.0.0*%
%TF.CreationDate,2025-03-25T21:18:25-04:00*%
%TF.ProjectId,interrupter,696e7465-7272-4757-9074-65722e6b6963,rev?*%
%TF.SameCoordinates,Original*%
%TF.FileFunction,Paste,Top*%
%TF.FilePolarity,Positive*%
%FSLAX46Y46*%
G04 Gerber Fmt 4.6, Leading zero omitted, Abs format (unit mm)*
G04 Created by KiCad (PCBNEW 9.0.0) date 2025-03-25 21:18:25*
%MOMM*%
%LPD*%
G01*
G04 APERTURE LIST*
G04 Aperture macros list*
%AMRoundRect*
0 Rectangle with rounded corners*
0 $1 Rounding radius*
0 $2 $3 $4 $5 $6 $7 $8 $9 X,Y pos of 4 corners*
0 Add a 4 corners polygon primitive as box body*
4,1,4,$2,$3,$4,$5,$6,$7,$8,$9,$2,$3,0*
0 Add four circle primitives for the rounded corners*
1,1,$1+$1,$2,$3*
1,1,$1+$1,$4,$5*
1,1,$1+$1,$6,$7*
1,1,$1+$1,$8,$9*
0 Add four rect primitives between the rounded corners*
20,1,$1+$1,$2,$3,$4,$5,0*
20,1,$1+$1,$4,$5,$6,$7,0*
20,1,$1+$1,$6,$7,$8,$9,0*
20,1,$1+$1,$8,$9,$2,$3,0*%
G04 Aperture macros list end*
%ADD10R,0.400000X1.900000*%
%ADD11RoundRect,0.250000X0.450000X-0.262500X0.450000X0.262500X-0.450000X0.262500X-0.450000X-0.262500X0*%
%ADD12RoundRect,0.250000X0.475000X-0.250000X0.475000X0.250000X-0.475000X0.250000X-0.475000X-0.250000X0*%
%ADD13RoundRect,0.250000X-0.250000X-0.475000X0.250000X-0.475000X0.250000X0.475000X-0.250000X0.475000X0*%
%ADD14RoundRect,0.250000X-0.450000X0.262500X-0.450000X-0.262500X0.450000X-0.262500X0.450000X0.262500X0*%
%ADD15RoundRect,0.250000X0.262500X0.450000X-0.262500X0.450000X-0.262500X-0.450000X0.262500X-0.450000X0*%
%ADD16RoundRect,0.250000X0.250000X0.475000X-0.250000X0.475000X-0.250000X-0.475000X0.250000X-0.475000X0*%
%ADD17RoundRect,0.250000X-0.262500X-0.450000X0.262500X-0.450000X0.262500X0.450000X-0.262500X0.450000X0*%
%ADD18RoundRect,0.150000X-0.512500X-0.150000X0.512500X-0.150000X0.512500X0.150000X-0.512500X0.150000X0*%
%ADD19RoundRect,0.243750X-0.243750X-0.456250X0.243750X-0.456250X0.243750X0.456250X-0.243750X0.456250X0*%
%ADD20RoundRect,0.100000X0.100000X-0.637500X0.100000X0.637500X-0.100000X0.637500X-0.100000X-0.637500X0*%
%ADD21RoundRect,0.150000X0.587500X0.150000X-0.587500X0.150000X-0.587500X-0.150000X0.587500X-0.150000X0*%
%ADD22RoundRect,0.175000X0.425000X-0.175000X0.425000X0.175000X-0.425000X0.175000X-0.425000X-0.175000X0*%
%ADD23RoundRect,0.190000X-0.410000X0.190000X-0.410000X-0.190000X0.410000X-0.190000X0.410000X0.190000X0*%
%ADD24RoundRect,0.200000X-0.400000X0.200000X-0.400000X-0.200000X0.400000X-0.200000X0.400000X0.200000X0*%
%ADD25RoundRect,0.175000X-0.425000X0.175000X-0.425000X-0.175000X0.425000X-0.175000X0.425000X0.175000X0*%
%ADD26RoundRect,0.190000X0.410000X-0.190000X0.410000X0.190000X-0.410000X0.190000X-0.410000X-0.190000X0*%
%ADD27RoundRect,0.200000X0.400000X-0.200000X0.400000X0.200000X-0.400000X0.200000X-0.400000X-0.200000X0*%
%ADD28O,1.700000X1.100000*%
%ADD29RoundRect,0.375000X-0.625000X-0.375000X0.625000X-0.375000X0.625000X0.375000X-0.625000X0.375000X0*%
%ADD30RoundRect,0.500000X-0.500000X-1.400000X0.500000X-1.400000X0.500000X1.400000X-0.500000X1.400000X0*%
%ADD31RoundRect,0.243750X0.243750X0.456250X-0.243750X0.456250X-0.243750X-0.456250X0.243750X-0.456250X0*%
G04 APERTURE END LIST*
D10*
%TO.C,Y1*%
X201325000Y-112887500D03*
X202525000Y-112887500D03*
X203725000Y-112887500D03*
%TD*%
D11*
%TO.C,R8*%
X253540000Y-89412500D03*
X253540000Y-87587500D03*
%TD*%
D12*
%TO.C,C2*%
X251407500Y-110182500D03*
X251407500Y-108282500D03*
%TD*%
D13*
%TO.C,C4*%
X205575000Y-112887500D03*
X207475000Y-112887500D03*
%TD*%
D14*
%TO.C,R9*%
X250040000Y-87587500D03*
X250040000Y-89412500D03*
%TD*%
D13*
%TO.C,C10*%
X243090000Y-88330000D03*
X244990000Y-88330000D03*
%TD*%
D15*
%TO.C,R12*%
X261690000Y-112795000D03*
X259865000Y-112795000D03*
%TD*%
%TO.C,R3*%
X251320000Y-104982500D03*
X249495000Y-104982500D03*
%TD*%
%TO.C,R4*%
X256570000Y-104570000D03*
X254745000Y-104570000D03*
%TD*%
D16*
%TO.C,C12*%
X194450000Y-94000000D03*
X192550000Y-94000000D03*
%TD*%
D17*
%TO.C,R1*%
X195337500Y-101500000D03*
X197162500Y-101500000D03*
%TD*%
D13*
%TO.C,C9*%
X231880000Y-88250000D03*
X233780000Y-88250000D03*
%TD*%
D14*
%TO.C,R7*%
X230750000Y-107587500D03*
X230750000Y-109412500D03*
%TD*%
D18*
%TO.C,U4*%
X245657500Y-108332500D03*
X245657500Y-109282500D03*
X245657500Y-110232500D03*
X247932500Y-110232500D03*
X247932500Y-108332500D03*
%TD*%
D17*
%TO.C,R13*%
X194510000Y-114537500D03*
X196335000Y-114537500D03*
%TD*%
D15*
%TO.C,R5*%
X256570000Y-107070000D03*
X254745000Y-107070000D03*
%TD*%
D13*
%TO.C,C7*%
X259040000Y-92250000D03*
X260940000Y-92250000D03*
%TD*%
D12*
%TO.C,C3*%
X230750000Y-101950000D03*
X230750000Y-100050000D03*
%TD*%
D14*
%TO.C,R6*%
X230750000Y-111337500D03*
X230750000Y-113162500D03*
%TD*%
%TO.C,R11*%
X258290000Y-87587500D03*
X258290000Y-89412500D03*
%TD*%
D19*
%TO.C,D1*%
X264062500Y-99250000D03*
X265937500Y-99250000D03*
%TD*%
D13*
%TO.C,C6*%
X250840000Y-92250000D03*
X252740000Y-92250000D03*
%TD*%
D20*
%TO.C,U2*%
X203100000Y-108500000D03*
X203750000Y-108500000D03*
X204400000Y-108500000D03*
X205050000Y-108500000D03*
X205700000Y-108500000D03*
X206350000Y-108500000D03*
X207000000Y-108500000D03*
X207650000Y-108500000D03*
X208300000Y-108500000D03*
X208950000Y-108500000D03*
X208950000Y-102775000D03*
X208300000Y-102775000D03*
X207650000Y-102775000D03*
X207000000Y-102775000D03*
X206350000Y-102775000D03*
X205700000Y-102775000D03*
X205050000Y-102775000D03*
X204400000Y-102775000D03*
X203750000Y-102775000D03*
X203100000Y-102775000D03*
%TD*%
D15*
%TO.C,R2*%
X261662500Y-99250000D03*
X259837500Y-99250000D03*
%TD*%
D16*
%TO.C,C11*%
X208700000Y-94000000D03*
X206800000Y-94000000D03*
%TD*%
D21*
%TO.C,Q1*%
X198187500Y-98950000D03*
X198187500Y-97050000D03*
X196312500Y-98000000D03*
%TD*%
D22*
%TO.C,J5*%
X260527500Y-106500000D03*
D23*
X260527500Y-104480000D03*
D24*
X260527500Y-103250000D03*
D25*
X260527500Y-105500000D03*
D26*
X260527500Y-107520000D03*
D27*
X260527500Y-108750000D03*
D28*
X260607500Y-110320000D03*
X264407500Y-110320000D03*
X260607500Y-101680000D03*
X264407500Y-101680000D03*
%TD*%
D12*
%TO.C,C5*%
X230750000Y-105700000D03*
X230750000Y-103800000D03*
%TD*%
D11*
%TO.C,R10*%
X261790000Y-89412500D03*
X261790000Y-87587500D03*
%TD*%
D29*
%TO.C,U1*%
X234100000Y-99950000D03*
X234100000Y-102250000D03*
D30*
X240400000Y-102250000D03*
D29*
X234100000Y-104550000D03*
%TD*%
D19*
%TO.C,D3*%
X190075000Y-114672500D03*
X191950000Y-114672500D03*
%TD*%
D12*
%TO.C,C1*%
X242157500Y-110570000D03*
X242157500Y-108670000D03*
%TD*%
D31*
%TO.C,D2*%
X265937500Y-112750000D03*
X264062500Y-112750000D03*
%TD*%
D13*
%TO.C,C8*%
X221590000Y-88250000D03*
X223490000Y-88250000D03*
%TD*%
M02*
