M48
; DRILL file {KiCad 9.0.0} date 2025-03-25T21:18:22-0400
; FORMAT={-:-/ absolute / inch / decimal}
; #@! TF.CreationDate,2025-03-25T21:18:22-04:00
; #@! TF.GenerationSoftware,Kicad,Pcbnew,9.0.0
; #@! TF.FileFunction,Plated,1,2,PTH
FMAT,2
INCH
; #@! TA.AperFunction,Plated,PTH,ViaDrill
T1C0.0118
; #@! TA.AperFunction,Plated,PTH,ComponentDrill
T2C0.0197
; #@! TA.AperFunction,Plated,PTH,ComponentDrill
T3C0.0236
; #@! TA.AperFunction,Plated,PTH,ComponentDrill
T4C0.0315
; #@! TA.AperFunction,Plated,PTH,ComponentDrill
T5C0.0394
; #@! TA.AperFunction,Plated,PTH,ComponentDrill
T6C0.0469
; #@! TA.AperFunction,Plated,PTH,ComponentDrill
T7C0.0787
; #@! TA.AperFunction,Plated,PTH,ComponentDrill
T8C0.1063
%
G90
G05
T1
X7.4969Y-4.5684
X7.7338Y-3.8209
X7.9724Y-4.5276
X7.9833Y-3.9621
X8.0132Y-3.9523
X8.112Y-4.388
X8.1309Y-4.346
X8.4547Y-4.0945
X9.1142Y-3.939
X9.1437Y-3.939
X9.1437Y-4.2323
X9.1456Y-4.0851
X9.1732Y-3.939
X9.5177Y-4.2421
X9.5472Y-4.2421
X9.5768Y-4.2421
X9.5768Y-4.2717
X9.5768Y-4.3012
X9.6063Y-4.2421
X9.6063Y-4.2717
X9.6063Y-4.3012
X9.7638Y-4.5374
X9.8979Y-4.2028
X9.9213Y-4.5374
X9.9504Y-3.5531
X10.0293Y-4.1634
X10.2067Y-4.065
X10.2067Y-4.2815
X10.2747Y-3.5522
T2
X7.4695Y-3.9075
X7.4928Y-3.8511
X7.4928Y-3.9639
X7.5492Y-3.8278
X7.5492Y-3.9872
X7.6056Y-3.8511
X7.6056Y-3.9639
X7.6289Y-3.9075
X9.6152Y-3.9075
X9.6385Y-3.8511
X9.6385Y-3.9639
X9.6949Y-3.8278
X9.6949Y-3.9872
X9.7513Y-3.8511
X9.7513Y-3.9639
X9.7746Y-3.9075
T4
X7.5558Y-4.1823
X7.5558Y-4.2823
T5
X7.5787Y-3.6004
X7.6772Y-3.6004
X7.7756Y-3.6004
X8.1398Y-3.6024
X8.2382Y-3.6024
X8.3366Y-3.6024
X8.5909Y-3.9421
X8.5909Y-4.0421
X8.5909Y-4.1421
X8.5909Y-4.2421
X8.6909Y-3.9421
X8.6909Y-4.0421
X8.6909Y-4.1421
X8.6909Y-4.2421
T6
X8.5925Y-3.2185
X8.6925Y-3.2185
X8.7925Y-3.2185
X9.0157Y-3.2193
X9.1157Y-3.2193
X9.2157Y-3.2193
X9.2421Y-4.3602
X9.3421Y-4.3602
X9.439Y-3.2217
X9.539Y-3.2217
X9.639Y-3.2217
X9.863Y-3.2193
X9.963Y-3.2193
X10.1886Y-3.2185
X10.2886Y-3.2185
T7
X7.5394Y-5.0098
X10.374Y-5.0098
T8
X7.5492Y-3.9075
X9.6949Y-3.9075
T3
G00X10.2483Y-4.0031
M15
G01X10.2719Y-4.0031
M16
G05
G00X10.2483Y-4.3433
M15
G01X10.2719Y-4.3433
M16
G05
G00X10.3979Y-4.0031
M15
G01X10.4216Y-4.0031
M16
G05
G00X10.3979Y-4.3433
M15
G01X10.4216Y-4.3433
M16
G05
M30
