%TF.GenerationSoftware,KiCad,Pcbnew,9.0.0*%
%TF.CreationDate,2025-03-25T21:18:25-04:00*%
%TF.ProjectId,interrupter,696e7465-7272-4757-9074-65722e6b6963,rev?*%
%TF.SameCoordinates,Original*%
%TF.FileFunction,Copper,L1,Top*%
%TF.FilePolarity,Positive*%
%FSLAX46Y46*%
G04 Gerber Fmt 4.6, Leading zero omitted, Abs format (unit mm)*
G04 Created by KiCad (PCBNEW 9.0.0) date 2025-03-25 21:18:25*
%MOMM*%
%LPD*%
G01*
G04 APERTURE LIST*
G04 Aperture macros list*
%AMRoundRect*
0 Rectangle with rounded corners*
0 $1 Rounding radius*
0 $2 $3 $4 $5 $6 $7 $8 $9 X,Y pos of 4 corners*
0 Add a 4 corners polygon primitive as box body*
4,1,4,$2,$3,$4,$5,$6,$7,$8,$9,$2,$3,0*
0 Add four circle primitives for the rounded corners*
1,1,$1+$1,$2,$3*
1,1,$1+$1,$4,$5*
1,1,$1+$1,$6,$7*
1,1,$1+$1,$8,$9*
0 Add four rect primitives between the rounded corners*
20,1,$1+$1,$2,$3,$4,$5,0*
20,1,$1+$1,$4,$5,$6,$7,0*
20,1,$1+$1,$6,$7,$8,$9,0*
20,1,$1+$1,$8,$9,$2,$3,0*%
G04 Aperture macros list end*
%TA.AperFunction,SMDPad,CuDef*%
%ADD10R,0.400000X1.900000*%
%TD*%
%TA.AperFunction,SMDPad,CuDef*%
%ADD11RoundRect,0.250000X0.450000X-0.262500X0.450000X0.262500X-0.450000X0.262500X-0.450000X-0.262500X0*%
%TD*%
%TA.AperFunction,SMDPad,CuDef*%
%ADD12RoundRect,0.250000X0.475000X-0.250000X0.475000X0.250000X-0.475000X0.250000X-0.475000X-0.250000X0*%
%TD*%
%TA.AperFunction,SMDPad,CuDef*%
%ADD13RoundRect,0.250000X-0.250000X-0.475000X0.250000X-0.475000X0.250000X0.475000X-0.250000X0.475000X0*%
%TD*%
%TA.AperFunction,SMDPad,CuDef*%
%ADD14RoundRect,0.250000X-0.450000X0.262500X-0.450000X-0.262500X0.450000X-0.262500X0.450000X0.262500X0*%
%TD*%
%TA.AperFunction,SMDPad,CuDef*%
%ADD15RoundRect,0.250000X0.262500X0.450000X-0.262500X0.450000X-0.262500X-0.450000X0.262500X-0.450000X0*%
%TD*%
%TA.AperFunction,SMDPad,CuDef*%
%ADD16RoundRect,0.250000X0.250000X0.475000X-0.250000X0.475000X-0.250000X-0.475000X0.250000X-0.475000X0*%
%TD*%
%TA.AperFunction,SMDPad,CuDef*%
%ADD17RoundRect,0.250000X-0.262500X-0.450000X0.262500X-0.450000X0.262500X0.450000X-0.262500X0.450000X0*%
%TD*%
%TA.AperFunction,ComponentPad*%
%ADD18C,0.800000*%
%TD*%
%TA.AperFunction,ComponentPad*%
%ADD19C,5.400000*%
%TD*%
%TA.AperFunction,ComponentPad*%
%ADD20RoundRect,0.250000X-0.620000X-0.845000X0.620000X-0.845000X0.620000X0.845000X-0.620000X0.845000X0*%
%TD*%
%TA.AperFunction,ComponentPad*%
%ADD21O,1.740000X2.190000*%
%TD*%
%TA.AperFunction,SMDPad,CuDef*%
%ADD22RoundRect,0.150000X-0.512500X-0.150000X0.512500X-0.150000X0.512500X0.150000X-0.512500X0.150000X0*%
%TD*%
%TA.AperFunction,ComponentPad*%
%ADD23R,3.500000X3.500000*%
%TD*%
%TA.AperFunction,ComponentPad*%
%ADD24C,3.500000*%
%TD*%
%TA.AperFunction,ComponentPad*%
%ADD25R,1.700000X1.700000*%
%TD*%
%TA.AperFunction,ComponentPad*%
%ADD26O,1.700000X1.700000*%
%TD*%
%TA.AperFunction,SMDPad,CuDef*%
%ADD27RoundRect,0.243750X-0.243750X-0.456250X0.243750X-0.456250X0.243750X0.456250X-0.243750X0.456250X0*%
%TD*%
%TA.AperFunction,WasherPad*%
%ADD28C,4.000000*%
%TD*%
%TA.AperFunction,ComponentPad*%
%ADD29C,1.800000*%
%TD*%
%TA.AperFunction,SMDPad,CuDef*%
%ADD30RoundRect,0.100000X0.100000X-0.637500X0.100000X0.637500X-0.100000X0.637500X-0.100000X-0.637500X0*%
%TD*%
%TA.AperFunction,SMDPad,CuDef*%
%ADD31RoundRect,0.150000X0.587500X0.150000X-0.587500X0.150000X-0.587500X-0.150000X0.587500X-0.150000X0*%
%TD*%
%TA.AperFunction,SMDPad,CuDef*%
%ADD32RoundRect,0.175000X0.425000X-0.175000X0.425000X0.175000X-0.425000X0.175000X-0.425000X-0.175000X0*%
%TD*%
%TA.AperFunction,SMDPad,CuDef*%
%ADD33RoundRect,0.190000X-0.410000X0.190000X-0.410000X-0.190000X0.410000X-0.190000X0.410000X0.190000X0*%
%TD*%
%TA.AperFunction,SMDPad,CuDef*%
%ADD34RoundRect,0.200000X-0.400000X0.200000X-0.400000X-0.200000X0.400000X-0.200000X0.400000X0.200000X0*%
%TD*%
%TA.AperFunction,SMDPad,CuDef*%
%ADD35RoundRect,0.175000X-0.425000X0.175000X-0.425000X-0.175000X0.425000X-0.175000X0.425000X0.175000X0*%
%TD*%
%TA.AperFunction,SMDPad,CuDef*%
%ADD36RoundRect,0.190000X0.410000X-0.190000X0.410000X0.190000X-0.410000X0.190000X-0.410000X-0.190000X0*%
%TD*%
%TA.AperFunction,SMDPad,CuDef*%
%ADD37RoundRect,0.200000X0.400000X-0.200000X0.400000X0.200000X-0.400000X0.200000X-0.400000X-0.200000X0*%
%TD*%
%TA.AperFunction,HeatsinkPad*%
%ADD38O,1.700000X1.100000*%
%TD*%
%TA.AperFunction,SMDPad,CuDef*%
%ADD39RoundRect,0.375000X-0.625000X-0.375000X0.625000X-0.375000X0.625000X0.375000X-0.625000X0.375000X0*%
%TD*%
%TA.AperFunction,SMDPad,CuDef*%
%ADD40RoundRect,0.500000X-0.500000X-1.400000X0.500000X-1.400000X0.500000X1.400000X-0.500000X1.400000X0*%
%TD*%
%TA.AperFunction,SMDPad,CuDef*%
%ADD41RoundRect,0.243750X0.243750X0.456250X-0.243750X0.456250X-0.243750X-0.456250X0.243750X-0.456250X0*%
%TD*%
%TA.AperFunction,ComponentPad*%
%ADD42C,1.400000*%
%TD*%
%TA.AperFunction,ViaPad*%
%ADD43C,0.600000*%
%TD*%
%TA.AperFunction,Conductor*%
%ADD44C,1.000000*%
%TD*%
%TA.AperFunction,Conductor*%
%ADD45C,0.400000*%
%TD*%
G04 APERTURE END LIST*
D10*
%TO.P,Y1,1,1*%
%TO.N,Net-(U2-PC14)*%
X201325000Y-112887500D03*
%TO.P,Y1,2,2*%
%TO.N,GND*%
X202525000Y-112887500D03*
%TO.P,Y1,3,3*%
%TO.N,Net-(U2-PC15)*%
X203725000Y-112887500D03*
%TD*%
D11*
%TO.P,R8,1*%
%TO.N,GND*%
X253540000Y-89412500D03*
%TO.P,R8,2*%
%TO.N,Net-(J2-Pin_1)*%
X253540000Y-87587500D03*
%TD*%
D12*
%TO.P,C2,1*%
%TO.N,Net-(D1-A)*%
X251407500Y-110182500D03*
%TO.P,C2,2*%
%TO.N,GND*%
X251407500Y-108282500D03*
%TD*%
D13*
%TO.P,C4,1*%
%TO.N,+3.3V*%
X205575000Y-112887500D03*
%TO.P,C4,2*%
%TO.N,GND*%
X207475000Y-112887500D03*
%TD*%
D14*
%TO.P,R9,1*%
%TO.N,Net-(J2-Pin_1)*%
X250040000Y-87587500D03*
%TO.P,R9,2*%
%TO.N,BTN_FIRE*%
X250040000Y-89412500D03*
%TD*%
D13*
%TO.P,C10,1*%
%TO.N,E_OT*%
X243090000Y-88330000D03*
%TO.P,C10,2*%
%TO.N,GND*%
X244990000Y-88330000D03*
%TD*%
D15*
%TO.P,R12,1*%
%TO.N,Net-(D2-A)*%
X261690000Y-112795000D03*
%TO.P,R12,2*%
%TO.N,BAT_LED*%
X259865000Y-112795000D03*
%TD*%
%TO.P,R3,1*%
%TO.N,GND*%
X251320000Y-104982500D03*
%TO.P,R3,2*%
%TO.N,Net-(U4-PROG)*%
X249495000Y-104982500D03*
%TD*%
%TO.P,R4,1*%
%TO.N,Net-(J5-CC2)*%
X256570000Y-104570000D03*
%TO.P,R4,2*%
%TO.N,GND*%
X254745000Y-104570000D03*
%TD*%
D16*
%TO.P,C12,1*%
%TO.N,I_DTC*%
X194450000Y-94000000D03*
%TO.P,C12,2*%
%TO.N,GND*%
X192550000Y-94000000D03*
%TD*%
D17*
%TO.P,R1,1*%
%TO.N,Net-(U3-K)*%
X195337500Y-101500000D03*
%TO.P,R1,2*%
%TO.N,Net-(Q1-D)*%
X197162500Y-101500000D03*
%TD*%
D13*
%TO.P,C9,1*%
%TO.N,E_BPS*%
X231880000Y-88250000D03*
%TO.P,C9,2*%
%TO.N,GND*%
X233780000Y-88250000D03*
%TD*%
D18*
%TO.P,H1,1,1*%
%TO.N,unconnected-(H1-Pad1)_4*%
X244225000Y-99250000D03*
%TO.N,unconnected-(H1-Pad1)_1*%
X244818109Y-97818109D03*
%TO.N,unconnected-(H1-Pad1)_7*%
X244818109Y-100681891D03*
%TO.N,unconnected-(H1-Pad1)_2*%
X246250000Y-97225000D03*
D19*
%TO.N,unconnected-(H1-Pad1)_3*%
X246250000Y-99250000D03*
D18*
%TO.N,unconnected-(H1-Pad1)_5*%
X246250000Y-101275000D03*
%TO.N,unconnected-(H1-Pad1)_8*%
X247681891Y-97818109D03*
%TO.N,unconnected-(H1-Pad1)_6*%
X247681891Y-100681891D03*
%TO.N,unconnected-(H1-Pad1)*%
X248275000Y-99250000D03*
%TD*%
D20*
%TO.P,J7,1,Pin_1*%
%TO.N,+3.3V*%
X229000000Y-81770000D03*
D21*
%TO.P,J7,2,Pin_2*%
%TO.N,E_BPS*%
X231540000Y-81770000D03*
%TO.P,J7,3,Pin_3*%
%TO.N,GND*%
X234080000Y-81770000D03*
%TD*%
D14*
%TO.P,R7,1*%
%TO.N,GND*%
X230750000Y-107587500D03*
%TO.P,R7,2*%
%TO.N,BAT_SENSE*%
X230750000Y-109412500D03*
%TD*%
D20*
%TO.P,J2,1,Pin_1*%
%TO.N,Net-(J2-Pin_1)*%
X250520000Y-81770000D03*
D21*
%TO.P,J2,2,Pin_2*%
%TO.N,+3.3V*%
X253060000Y-81770000D03*
%TD*%
D22*
%TO.P,U4,1,STAT*%
%TO.N,Net-(U4-STAT)*%
X245657500Y-108332500D03*
%TO.P,U4,2,V_{SS}*%
%TO.N,GND*%
X245657500Y-109282500D03*
%TO.P,U4,3,V_{BAT}*%
%TO.N,Net-(BT1-+)*%
X245657500Y-110232500D03*
%TO.P,U4,4,V_{DD}*%
%TO.N,Net-(D1-A)*%
X247932500Y-110232500D03*
%TO.P,U4,5,PROG*%
%TO.N,Net-(U4-PROG)*%
X247932500Y-108332500D03*
%TD*%
D17*
%TO.P,R13,1*%
%TO.N,Net-(D3-A)*%
X194510000Y-114537500D03*
%TO.P,R13,2*%
%TO.N,BLED*%
X196335000Y-114537500D03*
%TD*%
D23*
%TO.P,BT1,1,+*%
%TO.N,Net-(BT1-+)*%
X263500000Y-127250000D03*
D24*
%TO.P,BT1,2,-*%
%TO.N,GND*%
X191500000Y-127250000D03*
%TD*%
D25*
%TO.P,J4,1,Pin_1*%
%TO.N,CLK*%
X220750000Y-107750000D03*
D26*
%TO.P,J4,2,Pin_2*%
%TO.N,DIO*%
X218210000Y-107750000D03*
%TO.P,J4,3,Pin_3*%
%TO.N,NRST*%
X220750000Y-105210000D03*
%TO.P,J4,4,Pin_4*%
%TO.N,GND*%
X218210000Y-105210000D03*
%TO.P,J4,5,Pin_5*%
%TO.N,+BATT*%
X220750000Y-102670000D03*
%TO.P,J4,6,Pin_6*%
%TO.N,+3.3V*%
X218210000Y-102670000D03*
%TO.P,J4,7,Pin_7*%
%TO.N,TX2*%
X220750000Y-100130000D03*
%TO.P,J4,8,Pin_8*%
%TO.N,RX2*%
X218210000Y-100130000D03*
%TD*%
D15*
%TO.P,R5,1*%
%TO.N,Net-(J5-CC1)*%
X256570000Y-107070000D03*
%TO.P,R5,2*%
%TO.N,GND*%
X254745000Y-107070000D03*
%TD*%
D13*
%TO.P,C7,1*%
%TO.N,SW_SINGLESHOT*%
X259040000Y-92250000D03*
%TO.P,C7,2*%
%TO.N,GND*%
X260940000Y-92250000D03*
%TD*%
D12*
%TO.P,C3,1*%
%TO.N,+3.3V*%
X230750000Y-101950000D03*
%TO.P,C3,2*%
%TO.N,GND*%
X230750000Y-100050000D03*
%TD*%
D14*
%TO.P,R6,1*%
%TO.N,BAT_SENSE*%
X230750000Y-111337500D03*
%TO.P,R6,2*%
%TO.N,+BATT*%
X230750000Y-113162500D03*
%TD*%
D18*
%TO.P,H2,1,1*%
%TO.N,unconnected-(H2-Pad1)_1*%
X189725000Y-99250000D03*
%TO.N,unconnected-(H2-Pad1)*%
X190318109Y-97818109D03*
%TO.N,unconnected-(H2-Pad1)_5*%
X190318109Y-100681891D03*
%TO.N,unconnected-(H2-Pad1)_4*%
X191750000Y-97225000D03*
D19*
%TO.N,unconnected-(H2-Pad1)_7*%
X191750000Y-99250000D03*
D18*
%TO.N,unconnected-(H2-Pad1)_2*%
X191750000Y-101275000D03*
%TO.N,unconnected-(H2-Pad1)_8*%
X193181891Y-97818109D03*
%TO.N,unconnected-(H2-Pad1)_6*%
X193181891Y-100681891D03*
%TO.N,unconnected-(H2-Pad1)_3*%
X193775000Y-99250000D03*
%TD*%
D14*
%TO.P,R11,1*%
%TO.N,Net-(J3-Pin_1)*%
X258290000Y-87587500D03*
%TO.P,R11,2*%
%TO.N,SW_SINGLESHOT*%
X258290000Y-89412500D03*
%TD*%
D27*
%TO.P,D1,1,K*%
%TO.N,Net-(D1-K)*%
X264062500Y-99250000D03*
%TO.P,D1,2,A*%
%TO.N,Net-(D1-A)*%
X265937500Y-99250000D03*
%TD*%
D13*
%TO.P,C6,1*%
%TO.N,BTN_FIRE*%
X250840000Y-92250000D03*
%TO.P,C6,2*%
%TO.N,GND*%
X252740000Y-92250000D03*
%TD*%
D28*
%TO.P,RV2,*%
%TO.N,*%
X190600000Y-84450000D03*
X199400000Y-84450000D03*
D29*
%TO.P,RV2,1,1*%
%TO.N,+3.3V*%
X197500000Y-91450000D03*
%TO.P,RV2,2,2*%
%TO.N,I_DTC*%
X195000000Y-91450000D03*
%TO.P,RV2,3,3*%
%TO.N,GND*%
X192500000Y-91450000D03*
%TD*%
D30*
%TO.P,U2,1,PB7*%
%TO.N,BLED*%
X203100000Y-108500000D03*
%TO.P,U2,2,PC14*%
%TO.N,Net-(U2-PC14)*%
X203750000Y-108500000D03*
%TO.P,U2,3,PC15*%
%TO.N,Net-(U2-PC15)*%
X204400000Y-108500000D03*
%TO.P,U2,4,VDD*%
%TO.N,+3.3V*%
X205050000Y-108500000D03*
%TO.P,U2,5,VSS*%
%TO.N,GND*%
X205700000Y-108500000D03*
%TO.P,U2,6,PF2*%
%TO.N,NRST*%
X206350000Y-108500000D03*
%TO.P,U2,7,PA0*%
%TO.N,BAT_LED*%
X207000000Y-108500000D03*
%TO.P,U2,8,PA1*%
%TO.N,BAT_SENSE*%
X207650000Y-108500000D03*
%TO.P,U2,9,PA2*%
%TO.N,TX2*%
X208300000Y-108500000D03*
%TO.P,U2,10,PA3*%
%TO.N,RX2*%
X208950000Y-108500000D03*
%TO.P,U2,11,PA4*%
%TO.N,SW_SINGLESHOT*%
X208950000Y-102775000D03*
%TO.P,U2,12,PA5*%
%TO.N,BTN_FIRE*%
X208300000Y-102775000D03*
%TO.P,U2,13,PA6*%
%TO.N,E_OT*%
X207650000Y-102775000D03*
%TO.P,U2,14,PA7*%
%TO.N,E_BPS*%
X207000000Y-102775000D03*
%TO.P,U2,15,PA8*%
%TO.N,E_VMAX*%
X206350000Y-102775000D03*
%TO.P,U2,16,PA9/PA11*%
%TO.N,I_OCD*%
X205700000Y-102775000D03*
%TO.P,U2,17,PA10/PA12*%
%TO.N,I_DTC*%
X205050000Y-102775000D03*
%TO.P,U2,18,PA13*%
%TO.N,DIO*%
X204400000Y-102775000D03*
%TO.P,U2,19,PA14*%
%TO.N,CLK*%
X203750000Y-102775000D03*
%TO.P,U2,20,PB6*%
%TO.N,TX*%
X203100000Y-102775000D03*
%TD*%
D15*
%TO.P,R2,1*%
%TO.N,Net-(D1-K)*%
X261662500Y-99250000D03*
%TO.P,R2,2*%
%TO.N,Net-(U4-STAT)*%
X259837500Y-99250000D03*
%TD*%
D16*
%TO.P,C11,1*%
%TO.N,I_OCD*%
X208700000Y-94000000D03*
%TO.P,C11,2*%
%TO.N,GND*%
X206800000Y-94000000D03*
%TD*%
D31*
%TO.P,Q1,1,G*%
%TO.N,TX*%
X198187500Y-98950000D03*
%TO.P,Q1,2,S*%
%TO.N,GND*%
X198187500Y-97050000D03*
%TO.P,Q1,3,D*%
%TO.N,Net-(Q1-D)*%
X196312500Y-98000000D03*
%TD*%
D20*
%TO.P,J3,1,Pin_1*%
%TO.N,Net-(J3-Pin_1)*%
X258790000Y-81750000D03*
D21*
%TO.P,J3,2,Pin_2*%
%TO.N,+3.3V*%
X261330000Y-81750000D03*
%TD*%
D20*
%TO.P,J8,1,Pin_1*%
%TO.N,+3.3V*%
X239750000Y-81830000D03*
D21*
%TO.P,J8,2,Pin_2*%
%TO.N,E_OT*%
X242290000Y-81830000D03*
%TO.P,J8,3,Pin_3*%
%TO.N,GND*%
X244830000Y-81830000D03*
%TD*%
D20*
%TO.P,J6,1,Pin_1*%
%TO.N,+3.3V*%
X218250000Y-81750000D03*
D21*
%TO.P,J6,2,Pin_2*%
%TO.N,E_VMAX*%
X220790000Y-81750000D03*
%TO.P,J6,3,Pin_3*%
%TO.N,GND*%
X223330000Y-81750000D03*
%TD*%
D32*
%TO.P,J5,A5,CC1*%
%TO.N,Net-(J5-CC1)*%
X260527500Y-106500000D03*
D33*
%TO.P,J5,A9,VBUS*%
%TO.N,Net-(D1-A)*%
X260527500Y-104480000D03*
D34*
%TO.P,J5,A12,GND*%
%TO.N,GND*%
X260527500Y-103250000D03*
D35*
%TO.P,J5,B5,CC2*%
%TO.N,Net-(J5-CC2)*%
X260527500Y-105500000D03*
D36*
%TO.P,J5,B9,VBUS*%
%TO.N,Net-(D1-A)*%
X260527500Y-107520000D03*
D37*
%TO.P,J5,B12,GND*%
%TO.N,GND*%
X260527500Y-108750000D03*
D38*
%TO.P,J5,S1,SHIELD*%
%TO.N,unconnected-(J5-SHIELD-PadS1)_1*%
X260607500Y-110320000D03*
%TO.N,unconnected-(J5-SHIELD-PadS1)*%
X264407500Y-110320000D03*
%TO.N,unconnected-(J5-SHIELD-PadS1)_2*%
X260607500Y-101680000D03*
%TO.N,unconnected-(J5-SHIELD-PadS1)_3*%
X264407500Y-101680000D03*
%TD*%
D28*
%TO.P,RV1,*%
%TO.N,*%
X204850000Y-84500000D03*
X213650000Y-84500000D03*
D29*
%TO.P,RV1,1,1*%
%TO.N,+3.3V*%
X211750000Y-91500000D03*
%TO.P,RV1,2,2*%
%TO.N,I_OCD*%
X209250000Y-91500000D03*
%TO.P,RV1,3,3*%
%TO.N,GND*%
X206750000Y-91500000D03*
%TD*%
D12*
%TO.P,C5,1*%
%TO.N,BAT_SENSE*%
X230750000Y-105700000D03*
%TO.P,C5,2*%
%TO.N,GND*%
X230750000Y-103800000D03*
%TD*%
D11*
%TO.P,R10,1*%
%TO.N,GND*%
X261790000Y-89412500D03*
%TO.P,R10,2*%
%TO.N,Net-(J3-Pin_1)*%
X261790000Y-87587500D03*
%TD*%
D20*
%TO.P,J1,1,Pin_1*%
%TO.N,+BATT*%
X234750000Y-110750000D03*
D21*
%TO.P,J1,2,Pin_2*%
%TO.N,Net-(BT1-+)*%
X237290000Y-110750000D03*
%TD*%
D39*
%TO.P,U1,1,GND*%
%TO.N,GND*%
X234100000Y-99950000D03*
%TO.P,U1,2,VO*%
%TO.N,+3.3V*%
X234100000Y-102250000D03*
D40*
X240400000Y-102250000D03*
D39*
%TO.P,U1,3,VI*%
%TO.N,+BATT*%
X234100000Y-104550000D03*
%TD*%
D27*
%TO.P,D3,1,K*%
%TO.N,GND*%
X190075000Y-114672500D03*
%TO.P,D3,2,A*%
%TO.N,Net-(D3-A)*%
X191950000Y-114672500D03*
%TD*%
D12*
%TO.P,C1,1*%
%TO.N,Net-(BT1-+)*%
X242157500Y-110570000D03*
%TO.P,C1,2*%
%TO.N,GND*%
X242157500Y-108670000D03*
%TD*%
D41*
%TO.P,D2,1,K*%
%TO.N,GND*%
X265937500Y-112750000D03*
%TO.P,D2,2,A*%
%TO.N,Net-(D2-A)*%
X264062500Y-112750000D03*
%TD*%
D13*
%TO.P,C8,1*%
%TO.N,E_VMAX*%
X221590000Y-88250000D03*
%TO.P,C8,2*%
%TO.N,GND*%
X223490000Y-88250000D03*
%TD*%
D42*
%TO.P,U3,1,K*%
%TO.N,Net-(U3-K)*%
X191917500Y-106230000D03*
%TO.P,U3,2,A*%
%TO.N,+3.3V*%
X191917500Y-108770000D03*
%TD*%
D43*
%TO.N,GND*%
X243250000Y-109250000D03*
X243250000Y-108500000D03*
X233000000Y-100050000D03*
X252740000Y-90250000D03*
X260976250Y-90226250D03*
X259250000Y-103250000D03*
X244000000Y-108500000D03*
X259250000Y-108750000D03*
X231500000Y-100050000D03*
X202500000Y-115000000D03*
X196437500Y-97050000D03*
X232250000Y-100050000D03*
X244000000Y-107750000D03*
X242500000Y-107750000D03*
X244000000Y-109250000D03*
X243250000Y-107750000D03*
X232298259Y-103761382D03*
X254745000Y-105750000D03*
X232250000Y-107500000D03*
X241750000Y-107750000D03*
X190422500Y-116037500D03*
X206043750Y-111456250D03*
X251407500Y-106750000D03*
%TO.N,CLK*%
X202775000Y-100637500D03*
%TO.N,NRST*%
X206525000Y-110387500D03*
%TO.N,+3.3V*%
X214750000Y-104000000D03*
%TO.N,BAT_LED*%
X252000000Y-115250000D03*
X248000000Y-115250000D03*
%TO.N,DIO*%
X203534968Y-100387595D03*
%TD*%
D44*
%TO.N,Net-(BT1-+)*%
X242157500Y-110570000D02*
X237470000Y-110570000D01*
X242157500Y-110570000D02*
X245371000Y-110570000D01*
X237470000Y-110570000D02*
X237290000Y-110750000D01*
X245371000Y-110570000D02*
X245657500Y-110283500D01*
X245371000Y-110570000D02*
X262051000Y-127250000D01*
X262051000Y-127250000D02*
X263500000Y-127250000D01*
D45*
%TO.N,Net-(D1-A)*%
X264270000Y-104480000D02*
X265937500Y-102812500D01*
X260527500Y-104480000D02*
X264270000Y-104480000D01*
X251607500Y-110232500D02*
X251657500Y-110182500D01*
X265937500Y-102812500D02*
X265937500Y-99250000D01*
%TO.N,Net-(D1-K)*%
X261662500Y-99250000D02*
X264062500Y-99250000D01*
%TO.N,+BATT*%
X232337500Y-113162500D02*
X234750000Y-110750000D01*
X222879000Y-104799000D02*
X233851000Y-104799000D01*
X220750000Y-102670000D02*
X222879000Y-104799000D01*
D44*
X234750000Y-105200000D02*
X234100000Y-104550000D01*
X234750000Y-110750000D02*
X234750000Y-105200000D01*
D45*
X230750000Y-113162500D02*
X232337500Y-113162500D01*
X233851000Y-104799000D02*
X234100000Y-104550000D01*
%TO.N,TX*%
X200087500Y-98950000D02*
X198187500Y-98950000D01*
X203100000Y-101962500D02*
X200087500Y-98950000D01*
X203100000Y-102775000D02*
X203100000Y-101962500D01*
%TO.N,GND*%
X233780000Y-82070000D02*
X234080000Y-81770000D01*
X205700000Y-108500000D02*
X205700000Y-111112500D01*
X192550000Y-91500000D02*
X192500000Y-91450000D01*
X251407500Y-108282500D02*
X251407500Y-106750000D01*
X223330000Y-88090000D02*
X223490000Y-88250000D01*
X254745000Y-105750000D02*
X254745000Y-104570000D01*
X205700000Y-111112500D02*
X206043750Y-111456250D01*
X202500000Y-115000000D02*
X202500000Y-114500000D01*
X265937500Y-110205083D02*
X264482417Y-108750000D01*
X192550000Y-94000000D02*
X192550000Y-91500000D01*
X254745000Y-107070000D02*
X254745000Y-105750000D01*
D44*
X233000000Y-100050000D02*
X234000000Y-100050000D01*
D45*
X231500000Y-107500000D02*
X231412500Y-107587500D01*
D44*
X259250000Y-108750000D02*
X260527500Y-108750000D01*
D45*
X252740000Y-92250000D02*
X252740000Y-90250000D01*
X190075000Y-115690000D02*
X190422500Y-116037500D01*
X232250000Y-107500000D02*
X231500000Y-107500000D01*
X244990000Y-88330000D02*
X244990000Y-81990000D01*
X252740000Y-90212500D02*
X253540000Y-89412500D01*
D44*
X230750000Y-100050000D02*
X231500000Y-100050000D01*
D45*
X196437500Y-97050000D02*
X198187500Y-97050000D01*
X244990000Y-81990000D02*
X244830000Y-81830000D01*
X260940000Y-92250000D02*
X260940000Y-90262500D01*
D44*
X232250000Y-100050000D02*
X233000000Y-100050000D01*
D45*
X251407500Y-105070000D02*
X251320000Y-104982500D01*
X223330000Y-81750000D02*
X223330000Y-88090000D01*
X202500000Y-114500000D02*
X202525000Y-114475000D01*
X252740000Y-90250000D02*
X252740000Y-90212500D01*
X190075000Y-114672500D02*
X190075000Y-115690000D01*
X206750000Y-93950000D02*
X206800000Y-94000000D01*
X260940000Y-90262500D02*
X260976250Y-90226250D01*
D44*
X259250000Y-103250000D02*
X260527500Y-103250000D01*
D45*
X265937500Y-112750000D02*
X265937500Y-110205083D01*
X206750000Y-91500000D02*
X206750000Y-93950000D01*
D44*
X234000000Y-100050000D02*
X234100000Y-99950000D01*
D45*
X233780000Y-88250000D02*
X233780000Y-82070000D01*
X264482417Y-108750000D02*
X260527500Y-108750000D01*
X202525000Y-114475000D02*
X202525000Y-112887500D01*
D44*
X231500000Y-100050000D02*
X232250000Y-100050000D01*
D45*
X230750000Y-103800000D02*
X232259641Y-103800000D01*
X206340000Y-91850000D02*
X206690000Y-91500000D01*
X231412500Y-107587500D02*
X230750000Y-107587500D01*
X251407500Y-106750000D02*
X251407500Y-105070000D01*
X232259641Y-103800000D02*
X232298259Y-103761382D01*
X260976250Y-90226250D02*
X261790000Y-89412500D01*
X206043750Y-111456250D02*
X207475000Y-112887500D01*
%TO.N,Net-(Q1-D)*%
X196312500Y-100650000D02*
X196312500Y-98000000D01*
X197162500Y-101500000D02*
X196312500Y-100650000D01*
%TO.N,Net-(U3-K)*%
X191917500Y-106230000D02*
X191917500Y-104920000D01*
X191917500Y-104920000D02*
X195337500Y-101500000D01*
%TO.N,Net-(J2-Pin_1)*%
X250040000Y-87587500D02*
X250040000Y-82250000D01*
X253540000Y-87587500D02*
X250040000Y-87587500D01*
X250040000Y-82250000D02*
X250520000Y-81770000D01*
%TO.N,Net-(J3-Pin_1)*%
X258290000Y-86790000D02*
X258790000Y-86290000D01*
X258790000Y-86290000D02*
X258790000Y-81750000D01*
X258290000Y-87587500D02*
X261790000Y-87587500D01*
X258290000Y-87587500D02*
X258290000Y-86790000D01*
%TO.N,E_OT*%
X243090000Y-88330000D02*
X243090000Y-82630000D01*
X207650000Y-100100000D02*
X216048000Y-91702000D01*
X243090000Y-82630000D02*
X242290000Y-81830000D01*
X216048000Y-91702000D02*
X239718000Y-91702000D01*
X239718000Y-91702000D02*
X243090000Y-88330000D01*
X207650000Y-102775000D02*
X207650000Y-100100000D01*
%TO.N,I_OCD*%
X205700000Y-102775000D02*
X205700000Y-97980000D01*
X208700000Y-94000000D02*
X208700000Y-92050000D01*
X208700000Y-94980000D02*
X208700000Y-94000000D01*
X205700000Y-97980000D02*
X208700000Y-94980000D01*
X208700000Y-92050000D02*
X209250000Y-91500000D01*
%TO.N,CLK*%
X203750000Y-101612500D02*
X203750000Y-102775000D01*
X202775000Y-100637500D02*
X203750000Y-101612500D01*
%TO.N,NRST*%
X206350000Y-110212500D02*
X206525000Y-110387500D01*
X206350000Y-108500000D02*
X206350000Y-110212500D01*
D44*
%TO.N,+3.3V*%
X230750000Y-101950000D02*
X233800000Y-101950000D01*
X234100000Y-102250000D02*
X240400000Y-102250000D01*
X233800000Y-101950000D02*
X234100000Y-102250000D01*
D45*
X205050000Y-112362500D02*
X205050000Y-108500000D01*
X205575000Y-112887500D02*
X205050000Y-112362500D01*
%TO.N,RX2*%
X208950000Y-109262674D02*
X208950000Y-108500000D01*
X209210326Y-109523000D02*
X208950000Y-109262674D01*
X217007919Y-100130000D02*
X215750000Y-101387919D01*
X215750000Y-101387919D02*
X215750000Y-108400058D01*
X215750000Y-108400058D02*
X214627058Y-109523000D01*
X218210000Y-100130000D02*
X217007919Y-100130000D01*
X214627058Y-109523000D02*
X209210326Y-109523000D01*
%TO.N,I_DTC*%
X194450000Y-94000000D02*
X194450000Y-92000000D01*
X194450000Y-92000000D02*
X195000000Y-91450000D01*
X205050000Y-102775000D02*
X205050000Y-100911263D01*
X205050000Y-100911263D02*
X198138737Y-94000000D01*
X198138737Y-94000000D02*
X194450000Y-94000000D01*
%TO.N,E_VMAX*%
X206350000Y-102775000D02*
X206350000Y-99650000D01*
X221590000Y-88250000D02*
X221590000Y-82550000D01*
X219340000Y-90500000D02*
X221590000Y-88250000D01*
X221590000Y-82550000D02*
X220790000Y-81750000D01*
X215500000Y-90500000D02*
X219340000Y-90500000D01*
X206350000Y-99650000D02*
X215500000Y-90500000D01*
%TO.N,BAT_LED*%
X207000000Y-109862500D02*
X207000000Y-108500000D01*
X209137500Y-112000000D02*
X207000000Y-109862500D01*
X248000000Y-115250000D02*
X229750000Y-115250000D01*
X252000000Y-115250000D02*
X252500000Y-115250000D01*
X229750000Y-115250000D02*
X226500000Y-112000000D01*
X254955000Y-112795000D02*
X259865000Y-112795000D01*
X252500000Y-115250000D02*
X254955000Y-112795000D01*
X226500000Y-112000000D02*
X209137500Y-112000000D01*
%TO.N,BAT_SENSE*%
X230750000Y-109412500D02*
X229662500Y-109412500D01*
X209324942Y-111337500D02*
X230750000Y-111337500D01*
X229800000Y-105700000D02*
X230750000Y-105700000D01*
X230750000Y-111337500D02*
X230750000Y-109412500D01*
X229662500Y-109412500D02*
X228500000Y-108250000D01*
X207650000Y-108500000D02*
X207650000Y-109662558D01*
X207650000Y-109662558D02*
X209324942Y-111337500D01*
X228500000Y-108250000D02*
X228500000Y-107000000D01*
X228500000Y-107000000D02*
X229800000Y-105700000D01*
%TO.N,Net-(U2-PC14)*%
X203750000Y-108500000D02*
X203750000Y-109710500D01*
X203750000Y-109710500D02*
X201325000Y-112135500D01*
X201325000Y-112135500D02*
X201325000Y-112887500D01*
%TO.N,BLED*%
X201680279Y-110930279D02*
X199942221Y-110930279D01*
X203100000Y-108500000D02*
X203100000Y-109510558D01*
X199942221Y-110930279D02*
X196335000Y-114537500D01*
X203100000Y-109510558D02*
X201680279Y-110930279D01*
%TO.N,E_BPS*%
X207000000Y-102775000D02*
X207000000Y-100000000D01*
X216296942Y-91101000D02*
X229029000Y-91101000D01*
X207049000Y-99851058D02*
X207401058Y-99499000D01*
X215899000Y-91101000D02*
X216296942Y-91101000D01*
X207401058Y-99499000D02*
X215447000Y-91453058D01*
X231880000Y-88250000D02*
X231880000Y-82110000D01*
X215799058Y-91101000D02*
X215899000Y-91101000D01*
X207000000Y-100000000D02*
X207049000Y-99951000D01*
X231880000Y-82110000D02*
X231540000Y-81770000D01*
X215447000Y-91453058D02*
X215799058Y-91101000D01*
X207049000Y-99951000D02*
X207049000Y-99851058D01*
X229029000Y-91101000D02*
X231880000Y-88250000D01*
%TO.N,DIO*%
X204400000Y-102775000D02*
X204400000Y-101252627D01*
X204400000Y-101252627D02*
X203534968Y-100387595D01*
%TO.N,Net-(U2-PC15)*%
X203725000Y-110775000D02*
X204400000Y-110100000D01*
X203725000Y-112887500D02*
X203725000Y-110775000D01*
X204400000Y-110100000D02*
X204400000Y-108500000D01*
%TO.N,TX2*%
X214750000Y-110250000D02*
X216500000Y-108500000D01*
X217331000Y-101419000D02*
X219461000Y-101419000D01*
X208300000Y-108500000D02*
X208300000Y-109462616D01*
X219461000Y-101419000D02*
X220750000Y-100130000D01*
X208300000Y-109462616D02*
X209087384Y-110250000D01*
X209087384Y-110250000D02*
X214750000Y-110250000D01*
X216500000Y-102250000D02*
X217331000Y-101419000D01*
X216500000Y-108500000D02*
X216500000Y-102250000D01*
%TO.N,SW_SINGLESHOT*%
X216000000Y-93750000D02*
X257540000Y-93750000D01*
X208950000Y-100800000D02*
X216000000Y-93750000D01*
X208950000Y-102775000D02*
X208950000Y-100800000D01*
X258290000Y-91500000D02*
X259040000Y-92250000D01*
X258290000Y-89412500D02*
X258290000Y-91500000D01*
X257540000Y-93750000D02*
X259040000Y-92250000D01*
%TO.N,BTN_FIRE*%
X216250000Y-92500000D02*
X250590000Y-92500000D01*
X250840000Y-90212500D02*
X250040000Y-89412500D01*
X208300000Y-102775000D02*
X208300000Y-100450000D01*
X250840000Y-92250000D02*
X250840000Y-90212500D01*
X250590000Y-92500000D02*
X250840000Y-92250000D01*
X208300000Y-100450000D02*
X216250000Y-92500000D01*
%TO.N,Net-(J5-CC2)*%
X260527500Y-105500000D02*
X257500000Y-105500000D01*
X257500000Y-105500000D02*
X256570000Y-104570000D01*
%TO.N,Net-(J5-CC1)*%
X257140000Y-106500000D02*
X256570000Y-107070000D01*
X260527500Y-106500000D02*
X257140000Y-106500000D01*
%TO.N,Net-(U4-STAT)*%
X245657500Y-108332500D02*
X245657500Y-106592500D01*
X245657500Y-106592500D02*
X253000000Y-99250000D01*
X253000000Y-99250000D02*
X259837500Y-99250000D01*
%TO.N,Net-(U4-PROG)*%
X249495000Y-107845000D02*
X249495000Y-104982500D01*
X247932500Y-108332500D02*
X249007500Y-108332500D01*
X249007500Y-108332500D02*
X249495000Y-107845000D01*
%TO.N,Net-(D2-A)*%
X261735000Y-112750000D02*
X261690000Y-112795000D01*
X264062500Y-112750000D02*
X261735000Y-112750000D01*
%TO.N,Net-(D3-A)*%
X194375000Y-114672500D02*
X194510000Y-114537500D01*
X191950000Y-114672500D02*
X194375000Y-114672500D01*
%TD*%
%TA.AperFunction,Conductor*%
%TO.N,Net-(D1-A)*%
G36*
X261536559Y-100506061D02*
G01*
X261641723Y-100519906D01*
X261672991Y-100528284D01*
X261763418Y-100565740D01*
X261791452Y-100581925D01*
X261869102Y-100641509D01*
X261891991Y-100664398D01*
X261951574Y-100742048D01*
X261967759Y-100770081D01*
X262005215Y-100860508D01*
X262013593Y-100891775D01*
X262027439Y-100996939D01*
X262028500Y-101013125D01*
X262028500Y-108175500D01*
X262008815Y-108242539D01*
X261956011Y-108288294D01*
X261904500Y-108299500D01*
X261607274Y-108299500D01*
X261540235Y-108279815D01*
X261494480Y-108227011D01*
X261484536Y-108157853D01*
X261501157Y-108111351D01*
X261571330Y-107995267D01*
X261571333Y-107995261D01*
X261621181Y-107835294D01*
X261621182Y-107835287D01*
X261627116Y-107770000D01*
X259427884Y-107770000D01*
X259433817Y-107835287D01*
X259433818Y-107835295D01*
X259434852Y-107838612D01*
X259434885Y-107840660D01*
X259435098Y-107841728D01*
X259434903Y-107841766D01*
X259436002Y-107908472D01*
X259399200Y-107967864D01*
X259336131Y-107997931D01*
X259316466Y-107999500D01*
X259176080Y-107999500D01*
X259031092Y-108028340D01*
X259031082Y-108028343D01*
X258894511Y-108084912D01*
X258894498Y-108084919D01*
X258771584Y-108167048D01*
X258771580Y-108167051D01*
X258667051Y-108271580D01*
X258667048Y-108271584D01*
X258584919Y-108394498D01*
X258584912Y-108394511D01*
X258528343Y-108531082D01*
X258528340Y-108531092D01*
X258499500Y-108676079D01*
X258499500Y-108676082D01*
X258499500Y-108823918D01*
X258499500Y-108823920D01*
X258499499Y-108823920D01*
X258528340Y-108968907D01*
X258528343Y-108968917D01*
X258584912Y-109105488D01*
X258584919Y-109105501D01*
X258667048Y-109228415D01*
X258667051Y-109228419D01*
X258771580Y-109332948D01*
X258771584Y-109332951D01*
X258894498Y-109415080D01*
X258894511Y-109415087D01*
X259031082Y-109471656D01*
X259031087Y-109471658D01*
X259031091Y-109471658D01*
X259031092Y-109471659D01*
X259176079Y-109500500D01*
X259695559Y-109500500D01*
X259762598Y-109520185D01*
X259808353Y-109572989D01*
X259818297Y-109642147D01*
X259789272Y-109705703D01*
X259783240Y-109712181D01*
X259685713Y-109809707D01*
X259685710Y-109809711D01*
X259598109Y-109940814D01*
X259598102Y-109940827D01*
X259537764Y-110086498D01*
X259537761Y-110086510D01*
X259507000Y-110241153D01*
X259507000Y-110398846D01*
X259537761Y-110553489D01*
X259537764Y-110553501D01*
X259598102Y-110699172D01*
X259598109Y-110699185D01*
X259685710Y-110830288D01*
X259685713Y-110830292D01*
X259797207Y-110941786D01*
X259797211Y-110941789D01*
X259928314Y-111029390D01*
X259928327Y-111029397D01*
X260073998Y-111089735D01*
X260074003Y-111089737D01*
X260212028Y-111117192D01*
X260228653Y-111120499D01*
X260228656Y-111120500D01*
X260228658Y-111120500D01*
X260986344Y-111120500D01*
X260986345Y-111120499D01*
X261140997Y-111089737D01*
X261286679Y-111029394D01*
X261417789Y-110941789D01*
X261529289Y-110830289D01*
X261616894Y-110699179D01*
X261677237Y-110553497D01*
X261708000Y-110398842D01*
X261708000Y-110241158D01*
X261708000Y-110241155D01*
X261707999Y-110241153D01*
X261677237Y-110086503D01*
X261636042Y-109987048D01*
X261616897Y-109940827D01*
X261616890Y-109940814D01*
X261529289Y-109809711D01*
X261529286Y-109809707D01*
X261417792Y-109698213D01*
X261417788Y-109698210D01*
X261286685Y-109610609D01*
X261286672Y-109610602D01*
X261172006Y-109563107D01*
X261169791Y-109561322D01*
X261166978Y-109560893D01*
X261142751Y-109539533D01*
X261117602Y-109519267D01*
X261116703Y-109516566D01*
X261114570Y-109514686D01*
X261105739Y-109483626D01*
X261095537Y-109452972D01*
X261096240Y-109450214D01*
X261095463Y-109447479D01*
X261104827Y-109416572D01*
X261112816Y-109385273D01*
X261115149Y-109382505D01*
X261115723Y-109380612D01*
X261125154Y-109370636D01*
X261139064Y-109354138D01*
X261142343Y-109351345D01*
X261249650Y-109272150D01*
X261273849Y-109239360D01*
X261284734Y-109230092D01*
X261304108Y-109221444D01*
X261321006Y-109208615D01*
X261341157Y-109204908D01*
X261348537Y-109201615D01*
X261354291Y-109202493D01*
X261365128Y-109200500D01*
X261904500Y-109200500D01*
X261971539Y-109220185D01*
X262017294Y-109272989D01*
X262028500Y-109324500D01*
X262028500Y-110995657D01*
X262027436Y-111011867D01*
X262013548Y-111117192D01*
X262005144Y-111148504D01*
X261967578Y-111239042D01*
X261951346Y-111267105D01*
X261891594Y-111344814D01*
X261868642Y-111367711D01*
X261790791Y-111427275D01*
X261762690Y-111443439D01*
X261672062Y-111480788D01*
X261640729Y-111489117D01*
X261535373Y-111502751D01*
X261519161Y-111503776D01*
X257330029Y-111493718D01*
X252658100Y-111482501D01*
X252658054Y-111482500D01*
X252657500Y-111482500D01*
X252619964Y-108288294D01*
X252570419Y-104072135D01*
X253982000Y-104072135D01*
X253982000Y-105067870D01*
X253982001Y-105067876D01*
X253988408Y-105127483D01*
X254038702Y-105262328D01*
X254038706Y-105262335D01*
X254107858Y-105354709D01*
X254124954Y-105377546D01*
X254182645Y-105420734D01*
X254224516Y-105476667D01*
X254229500Y-105546359D01*
X254228109Y-105552093D01*
X254194500Y-105677525D01*
X254194500Y-105822475D01*
X254228805Y-105950500D01*
X254232017Y-105962488D01*
X254265602Y-106020659D01*
X254282075Y-106088559D01*
X254259222Y-106154586D01*
X254232527Y-106181924D01*
X254124954Y-106262454D01*
X254124953Y-106262455D01*
X254124952Y-106262456D01*
X254038706Y-106377664D01*
X254038702Y-106377671D01*
X253988408Y-106512517D01*
X253986186Y-106533191D01*
X253982001Y-106572123D01*
X253982000Y-106572135D01*
X253982000Y-107567870D01*
X253982001Y-107567876D01*
X253988408Y-107627483D01*
X254038702Y-107762328D01*
X254038706Y-107762335D01*
X254124952Y-107877544D01*
X254124955Y-107877547D01*
X254240164Y-107963793D01*
X254240171Y-107963797D01*
X254285118Y-107980561D01*
X254375017Y-108014091D01*
X254434627Y-108020500D01*
X255055372Y-108020499D01*
X255114983Y-108014091D01*
X255249831Y-107963796D01*
X255365046Y-107877546D01*
X255451296Y-107762331D01*
X255501591Y-107627483D01*
X255508000Y-107567873D01*
X255507999Y-106572128D01*
X255501591Y-106512517D01*
X255451296Y-106377669D01*
X255451295Y-106377668D01*
X255451293Y-106377664D01*
X255365048Y-106262456D01*
X255365046Y-106262455D01*
X255365046Y-106262454D01*
X255257470Y-106181923D01*
X255215602Y-106125992D01*
X255210618Y-106056300D01*
X255224397Y-106020659D01*
X255257984Y-105962485D01*
X255295500Y-105822475D01*
X255295500Y-105677525D01*
X255261890Y-105552092D01*
X255263553Y-105482244D01*
X255302715Y-105424381D01*
X255307341Y-105420743D01*
X255365046Y-105377546D01*
X255451296Y-105262331D01*
X255501591Y-105127483D01*
X255508000Y-105067873D01*
X255507999Y-104072135D01*
X255807000Y-104072135D01*
X255807000Y-105067870D01*
X255807001Y-105067876D01*
X255813408Y-105127483D01*
X255863702Y-105262328D01*
X255863706Y-105262335D01*
X255949952Y-105377544D01*
X255949955Y-105377547D01*
X256065164Y-105463793D01*
X256065171Y-105463797D01*
X256093479Y-105474355D01*
X256200017Y-105514091D01*
X256259627Y-105520500D01*
X256832033Y-105520499D01*
X256899072Y-105540183D01*
X256919714Y-105556818D01*
X257200715Y-105837819D01*
X257234200Y-105899142D01*
X257229216Y-105968834D01*
X257187344Y-106024767D01*
X257121880Y-106049184D01*
X257113034Y-106049500D01*
X257080691Y-106049500D01*
X256990325Y-106073713D01*
X256990324Y-106073712D01*
X256966115Y-106080200D01*
X256966110Y-106080202D01*
X256926814Y-106102889D01*
X256864817Y-106119500D01*
X256259629Y-106119500D01*
X256259623Y-106119501D01*
X256200016Y-106125908D01*
X256065171Y-106176202D01*
X256065164Y-106176206D01*
X255949955Y-106262452D01*
X255949952Y-106262455D01*
X255863706Y-106377664D01*
X255863702Y-106377671D01*
X255813408Y-106512517D01*
X255811186Y-106533191D01*
X255807001Y-106572123D01*
X255807000Y-106572135D01*
X255807000Y-107567870D01*
X255807001Y-107567876D01*
X255813408Y-107627483D01*
X255863702Y-107762328D01*
X255863706Y-107762335D01*
X255949952Y-107877544D01*
X255949955Y-107877547D01*
X256065164Y-107963793D01*
X256065171Y-107963797D01*
X256110118Y-107980561D01*
X256200017Y-108014091D01*
X256259627Y-108020500D01*
X256880372Y-108020499D01*
X256939983Y-108014091D01*
X257074831Y-107963796D01*
X257190046Y-107877546D01*
X257276296Y-107762331D01*
X257326591Y-107627483D01*
X257333000Y-107567873D01*
X257332999Y-107074499D01*
X257352683Y-107007461D01*
X257405487Y-106961706D01*
X257456999Y-106950500D01*
X259344512Y-106950500D01*
X259411551Y-106970185D01*
X259457306Y-107022989D01*
X259467250Y-107092147D01*
X259462897Y-107111391D01*
X259433818Y-107204705D01*
X259433817Y-107204712D01*
X259427884Y-107270000D01*
X261627115Y-107270000D01*
X261621182Y-107204712D01*
X261621181Y-107204705D01*
X261571333Y-107044738D01*
X261571331Y-107044732D01*
X261484649Y-106901342D01*
X261484646Y-106901338D01*
X261410888Y-106827580D01*
X261377403Y-106766257D01*
X261376097Y-106720501D01*
X261378000Y-106708488D01*
X261378000Y-106291512D01*
X261378000Y-106291506D01*
X261362220Y-106191878D01*
X261362219Y-106191876D01*
X261362219Y-106191874D01*
X261301028Y-106071780D01*
X261301026Y-106071778D01*
X261296597Y-106063085D01*
X261298066Y-106062336D01*
X261278351Y-106007076D01*
X261294178Y-105939023D01*
X261300671Y-105928917D01*
X261301024Y-105928223D01*
X261301028Y-105928220D01*
X261362219Y-105808126D01*
X261362220Y-105808121D01*
X261378000Y-105708493D01*
X261378000Y-105291512D01*
X261376097Y-105279498D01*
X261385052Y-105210205D01*
X261410889Y-105172418D01*
X261484648Y-105098659D01*
X261571331Y-104955267D01*
X261571333Y-104955261D01*
X261621181Y-104795294D01*
X261621182Y-104795287D01*
X261627116Y-104730000D01*
X259427884Y-104730000D01*
X259433817Y-104795287D01*
X259433818Y-104795294D01*
X259462897Y-104888609D01*
X259464049Y-104958469D01*
X259427248Y-105017862D01*
X259364180Y-105047930D01*
X259344512Y-105049500D01*
X257737966Y-105049500D01*
X257670927Y-105029815D01*
X257650285Y-105013181D01*
X257369318Y-104732214D01*
X257335833Y-104670891D01*
X257332999Y-104644533D01*
X257332999Y-104072129D01*
X257332998Y-104072123D01*
X257332997Y-104072116D01*
X257326591Y-104012517D01*
X257323687Y-104004732D01*
X257276297Y-103877671D01*
X257276293Y-103877664D01*
X257190047Y-103762455D01*
X257190044Y-103762452D01*
X257074835Y-103676206D01*
X257074828Y-103676202D01*
X256939986Y-103625910D01*
X256939985Y-103625909D01*
X256939983Y-103625909D01*
X256880373Y-103619500D01*
X256880363Y-103619500D01*
X256259629Y-103619500D01*
X256259623Y-103619501D01*
X256200016Y-103625908D01*
X256065171Y-103676202D01*
X256065164Y-103676206D01*
X255949955Y-103762452D01*
X255949952Y-103762455D01*
X255863706Y-103877664D01*
X255863702Y-103877671D01*
X255813408Y-104012517D01*
X255807200Y-104070263D01*
X255807001Y-104072123D01*
X255807000Y-104072135D01*
X255507999Y-104072135D01*
X255507999Y-104072128D01*
X255501591Y-104012517D01*
X255498687Y-104004732D01*
X255451297Y-103877671D01*
X255451293Y-103877664D01*
X255365047Y-103762455D01*
X255365044Y-103762452D01*
X255249835Y-103676206D01*
X255249828Y-103676202D01*
X255114986Y-103625910D01*
X255114985Y-103625909D01*
X255114983Y-103625909D01*
X255055373Y-103619500D01*
X255055363Y-103619500D01*
X254434629Y-103619500D01*
X254434623Y-103619501D01*
X254375016Y-103625908D01*
X254240171Y-103676202D01*
X254240164Y-103676206D01*
X254124955Y-103762452D01*
X254124952Y-103762455D01*
X254038706Y-103877664D01*
X254038702Y-103877671D01*
X253988408Y-104012517D01*
X253982200Y-104070263D01*
X253982001Y-104072123D01*
X253982000Y-104072135D01*
X252570419Y-104072135D01*
X252570397Y-104070263D01*
X252561627Y-103323920D01*
X258499499Y-103323920D01*
X258528340Y-103468907D01*
X258528343Y-103468917D01*
X258584912Y-103605488D01*
X258584919Y-103605501D01*
X258667048Y-103728415D01*
X258667051Y-103728419D01*
X258771580Y-103832948D01*
X258771584Y-103832951D01*
X258894498Y-103915080D01*
X258894511Y-103915087D01*
X259031082Y-103971656D01*
X259031087Y-103971658D01*
X259031091Y-103971658D01*
X259031092Y-103971659D01*
X259176079Y-104000500D01*
X259316466Y-104000500D01*
X259383505Y-104020185D01*
X259429260Y-104072989D01*
X259439204Y-104142147D01*
X259434852Y-104161388D01*
X259433818Y-104164704D01*
X259433817Y-104164712D01*
X259427884Y-104230000D01*
X261627115Y-104230000D01*
X261621182Y-104164712D01*
X261621181Y-104164705D01*
X261571333Y-104004738D01*
X261571331Y-104004732D01*
X261484649Y-103861342D01*
X261373954Y-103750646D01*
X261340470Y-103689323D01*
X261344595Y-103622010D01*
X261375146Y-103534701D01*
X261375146Y-103534699D01*
X261378000Y-103504269D01*
X261378000Y-102995730D01*
X261375146Y-102965300D01*
X261375146Y-102965298D01*
X261330293Y-102837119D01*
X261330292Y-102837117D01*
X261249650Y-102727850D01*
X261145824Y-102651223D01*
X261103573Y-102595575D01*
X261098115Y-102525919D01*
X261131183Y-102464370D01*
X261172001Y-102436894D01*
X261286679Y-102389394D01*
X261417789Y-102301789D01*
X261529289Y-102190289D01*
X261616894Y-102059179D01*
X261677237Y-101913497D01*
X261708000Y-101758842D01*
X261708000Y-101601158D01*
X261708000Y-101601155D01*
X261707999Y-101601153D01*
X261677238Y-101446510D01*
X261677237Y-101446503D01*
X261677235Y-101446498D01*
X261616897Y-101300827D01*
X261616890Y-101300814D01*
X261529289Y-101169711D01*
X261529286Y-101169707D01*
X261417792Y-101058213D01*
X261417788Y-101058210D01*
X261286685Y-100970609D01*
X261286672Y-100970602D01*
X261141001Y-100910264D01*
X261140989Y-100910261D01*
X260986345Y-100879500D01*
X260986342Y-100879500D01*
X260228658Y-100879500D01*
X260228655Y-100879500D01*
X260074010Y-100910261D01*
X260073998Y-100910264D01*
X259928327Y-100970602D01*
X259928314Y-100970609D01*
X259797211Y-101058210D01*
X259797207Y-101058213D01*
X259685713Y-101169707D01*
X259685710Y-101169711D01*
X259598109Y-101300814D01*
X259598102Y-101300827D01*
X259537764Y-101446498D01*
X259537761Y-101446510D01*
X259507000Y-101601153D01*
X259507000Y-101758846D01*
X259537761Y-101913489D01*
X259537764Y-101913501D01*
X259598102Y-102059172D01*
X259598109Y-102059185D01*
X259685710Y-102190288D01*
X259685713Y-102190292D01*
X259783240Y-102287819D01*
X259816725Y-102349142D01*
X259811741Y-102418834D01*
X259769869Y-102474767D01*
X259704405Y-102499184D01*
X259695559Y-102499500D01*
X259176080Y-102499500D01*
X259031092Y-102528340D01*
X259031082Y-102528343D01*
X258894511Y-102584912D01*
X258894498Y-102584919D01*
X258771584Y-102667048D01*
X258771580Y-102667051D01*
X258667051Y-102771580D01*
X258667048Y-102771584D01*
X258584919Y-102894498D01*
X258584912Y-102894511D01*
X258528343Y-103031082D01*
X258528340Y-103031092D01*
X258499500Y-103176079D01*
X258499500Y-103176082D01*
X258499500Y-103323918D01*
X258499500Y-103323920D01*
X258499499Y-103323920D01*
X252561627Y-103323920D01*
X252559835Y-103171447D01*
X252537852Y-101300814D01*
X252534541Y-101019058D01*
X252535426Y-101002746D01*
X252546589Y-100910264D01*
X252548232Y-100896653D01*
X252556360Y-100865081D01*
X252593293Y-100773647D01*
X252609375Y-100745283D01*
X252668865Y-100666645D01*
X252691785Y-100643453D01*
X252769717Y-100583045D01*
X252797888Y-100566632D01*
X252888884Y-100528627D01*
X252920359Y-100520128D01*
X253003855Y-100509052D01*
X253026292Y-100506077D01*
X253042596Y-100505000D01*
X261520374Y-100505000D01*
X261536559Y-100506061D01*
G37*
%TD.AperFunction*%
%TD*%
%TA.AperFunction,Conductor*%
%TO.N,+3.3V*%
G36*
X211284075Y-91692993D02*
G01*
X211349901Y-91807007D01*
X211442993Y-91900099D01*
X211557007Y-91965925D01*
X211620590Y-91982962D01*
X210952485Y-92651065D01*
X210952485Y-92651066D01*
X211016243Y-92697388D01*
X211212589Y-92797432D01*
X211422164Y-92865526D01*
X211639819Y-92900000D01*
X211860181Y-92900000D01*
X212077835Y-92865526D01*
X212208076Y-92823209D01*
X212277917Y-92821214D01*
X212337750Y-92857294D01*
X212368578Y-92919995D01*
X212360613Y-92989409D01*
X212334075Y-93028821D01*
X206362181Y-99000716D01*
X206300858Y-99034201D01*
X206231166Y-99029217D01*
X206175233Y-98987345D01*
X206150816Y-98921881D01*
X206150500Y-98913035D01*
X206150500Y-98217965D01*
X206170185Y-98150926D01*
X206186819Y-98130284D01*
X207605121Y-96711982D01*
X209060490Y-95256614D01*
X209119799Y-95153887D01*
X209126286Y-95129673D01*
X209150500Y-95039309D01*
X209150500Y-95000495D01*
X209152682Y-94989019D01*
X209163501Y-94967901D01*
X209170185Y-94945141D01*
X209181256Y-94933249D01*
X209184542Y-94926836D01*
X209190386Y-94923441D01*
X209200187Y-94912914D01*
X209307546Y-94832546D01*
X209393796Y-94717331D01*
X209444091Y-94582483D01*
X209450500Y-94522873D01*
X209450499Y-93477128D01*
X209444091Y-93417517D01*
X209399614Y-93298269D01*
X209393797Y-93282671D01*
X209393793Y-93282664D01*
X209307547Y-93167455D01*
X209200188Y-93087085D01*
X209197451Y-93083429D01*
X209193297Y-93081532D01*
X209176705Y-93055714D01*
X209158318Y-93031151D01*
X209157302Y-93025523D01*
X209155523Y-93022754D01*
X209150500Y-92987819D01*
X209150500Y-92774500D01*
X209170185Y-92707461D01*
X209222989Y-92661706D01*
X209274500Y-92650500D01*
X209340551Y-92650500D01*
X209427259Y-92636765D01*
X209519409Y-92622171D01*
X209691639Y-92566211D01*
X209852994Y-92483996D01*
X209999501Y-92377553D01*
X210127553Y-92249501D01*
X210233996Y-92102994D01*
X210249505Y-92072555D01*
X210297479Y-92021760D01*
X210365300Y-92004964D01*
X210431435Y-92027501D01*
X210470475Y-92072555D01*
X210552611Y-92233756D01*
X210598932Y-92297513D01*
X211267037Y-91629408D01*
X211284075Y-91692993D01*
G37*
%TD.AperFunction*%
%TA.AperFunction,Conductor*%
G36*
X266006922Y-78501280D02*
G01*
X266097266Y-78511459D01*
X266124331Y-78517636D01*
X266203540Y-78545352D01*
X266228553Y-78557398D01*
X266299606Y-78602043D01*
X266321313Y-78619355D01*
X266380644Y-78678686D01*
X266397957Y-78700395D01*
X266442600Y-78771444D01*
X266454648Y-78796462D01*
X266482362Y-78875666D01*
X266488540Y-78902735D01*
X266498720Y-78993076D01*
X266499500Y-79006961D01*
X266499500Y-98206348D01*
X266479815Y-98273387D01*
X266427011Y-98319142D01*
X266357853Y-98329086D01*
X266332167Y-98322530D01*
X266287602Y-98305908D01*
X266287391Y-98305829D01*
X266287390Y-98305828D01*
X266287389Y-98305828D01*
X266228529Y-98299500D01*
X265646482Y-98299500D01*
X265646473Y-98299501D01*
X265587608Y-98305828D01*
X265454445Y-98355497D01*
X265340669Y-98440669D01*
X265255498Y-98554443D01*
X265205828Y-98687612D01*
X265199500Y-98746462D01*
X265199500Y-99753517D01*
X265199501Y-99753526D01*
X265205828Y-99812391D01*
X265244984Y-99917368D01*
X265255497Y-99945554D01*
X265340668Y-100059330D01*
X265340670Y-100059332D01*
X265352384Y-100068101D01*
X265427746Y-100124516D01*
X265437310Y-100131675D01*
X265479182Y-100187608D01*
X265487000Y-100230942D01*
X265487000Y-101028059D01*
X265467315Y-101095098D01*
X265414511Y-101140853D01*
X265345353Y-101150797D01*
X265281797Y-101121772D01*
X265275319Y-101115740D01*
X265217792Y-101058213D01*
X265217788Y-101058210D01*
X265086685Y-100970609D01*
X265086672Y-100970602D01*
X264941001Y-100910264D01*
X264940989Y-100910261D01*
X264786345Y-100879500D01*
X264786342Y-100879500D01*
X264028658Y-100879500D01*
X264028655Y-100879500D01*
X263874010Y-100910261D01*
X263873998Y-100910264D01*
X263728327Y-100970602D01*
X263728314Y-100970609D01*
X263597211Y-101058210D01*
X263597207Y-101058213D01*
X263485715Y-101169706D01*
X263485710Y-101169711D01*
X263398109Y-101300814D01*
X263398102Y-101300827D01*
X263337764Y-101446498D01*
X263337761Y-101446510D01*
X263307000Y-101601153D01*
X263307000Y-101758846D01*
X263337761Y-101913489D01*
X263337764Y-101913501D01*
X263398102Y-102059172D01*
X263398109Y-102059185D01*
X263485710Y-102190288D01*
X263485713Y-102190292D01*
X263597207Y-102301786D01*
X263597211Y-102301789D01*
X263728314Y-102389390D01*
X263728327Y-102389397D01*
X263842294Y-102436603D01*
X263874003Y-102449737D01*
X264011098Y-102477007D01*
X264028653Y-102480499D01*
X264028656Y-102480500D01*
X264028658Y-102480500D01*
X264786344Y-102480500D01*
X264786345Y-102480499D01*
X264940997Y-102449737D01*
X265086679Y-102389394D01*
X265217789Y-102301789D01*
X265243158Y-102276420D01*
X265275319Y-102244260D01*
X265294755Y-102233647D01*
X265311489Y-102219147D01*
X265324820Y-102217230D01*
X265336642Y-102210775D01*
X265358728Y-102212354D01*
X265380647Y-102209203D01*
X265392898Y-102214798D01*
X265406334Y-102215759D01*
X265424060Y-102229029D01*
X265444203Y-102238228D01*
X265451485Y-102249559D01*
X265462267Y-102257631D01*
X265470004Y-102278376D01*
X265481977Y-102297006D01*
X265485128Y-102318924D01*
X265486684Y-102323095D01*
X265487000Y-102331941D01*
X265487000Y-102574535D01*
X265467315Y-102641574D01*
X265450681Y-102662216D01*
X264119716Y-103993181D01*
X264058393Y-104026666D01*
X264032035Y-104029500D01*
X262408000Y-104029500D01*
X262340961Y-104009815D01*
X262295206Y-103957011D01*
X262284000Y-103905500D01*
X262284000Y-101013138D01*
X262284000Y-101013125D01*
X262283453Y-100996413D01*
X262282392Y-100980227D01*
X262280753Y-100963587D01*
X262266907Y-100858423D01*
X262260387Y-100825646D01*
X262252009Y-100794379D01*
X262245531Y-100775298D01*
X262241266Y-100762733D01*
X262241265Y-100762730D01*
X262203817Y-100672323D01*
X262203810Y-100672306D01*
X262189028Y-100642330D01*
X262172843Y-100614297D01*
X262154276Y-100586509D01*
X262094693Y-100508859D01*
X262094681Y-100508846D01*
X262094677Y-100508840D01*
X262072660Y-100483735D01*
X262062585Y-100473660D01*
X262049768Y-100460843D01*
X262024642Y-100438809D01*
X261989854Y-100412114D01*
X261948653Y-100355688D01*
X261944498Y-100285942D01*
X261978711Y-100225022D01*
X262026036Y-100199003D01*
X262025215Y-100196802D01*
X262165438Y-100144502D01*
X262167331Y-100143796D01*
X262282546Y-100057546D01*
X262368796Y-99942331D01*
X262419091Y-99807483D01*
X262419091Y-99807481D01*
X262420874Y-99799938D01*
X262423146Y-99800474D01*
X262445429Y-99746688D01*
X262502823Y-99706843D01*
X262541976Y-99700500D01*
X263207416Y-99700500D01*
X263274455Y-99720185D01*
X263320210Y-99772989D01*
X263328953Y-99804861D01*
X263329044Y-99804840D01*
X263329640Y-99807363D01*
X263330706Y-99811248D01*
X263330828Y-99812391D01*
X263369984Y-99917368D01*
X263380497Y-99945554D01*
X263465669Y-100059331D01*
X263541981Y-100116457D01*
X263578501Y-100143796D01*
X263579446Y-100144503D01*
X263712609Y-100194171D01*
X263771479Y-100200500D01*
X264353520Y-100200499D01*
X264412391Y-100194171D01*
X264545554Y-100144503D01*
X264659331Y-100059331D01*
X264744503Y-99945554D01*
X264794171Y-99812391D01*
X264798781Y-99769511D01*
X264800499Y-99753537D01*
X264800499Y-99753526D01*
X264800500Y-99753521D01*
X264800499Y-98746480D01*
X264794699Y-98692517D01*
X264794171Y-98687608D01*
X264770067Y-98622985D01*
X264744503Y-98554446D01*
X264659331Y-98440669D01*
X264589430Y-98388342D01*
X264545556Y-98355498D01*
X264545554Y-98355497D01*
X264412391Y-98305829D01*
X264412389Y-98305828D01*
X264412387Y-98305828D01*
X264353529Y-98299500D01*
X263771482Y-98299500D01*
X263771473Y-98299501D01*
X263712608Y-98305828D01*
X263579445Y-98355497D01*
X263465669Y-98440669D01*
X263380498Y-98554443D01*
X263380497Y-98554446D01*
X263330829Y-98687609D01*
X263330706Y-98688752D01*
X263330363Y-98689579D01*
X263329045Y-98695159D01*
X263328141Y-98694945D01*
X263303971Y-98753303D01*
X263246581Y-98793153D01*
X263207417Y-98799500D01*
X262541977Y-98799500D01*
X262474938Y-98779815D01*
X262429183Y-98727011D01*
X262421733Y-98699865D01*
X262420876Y-98700068D01*
X262419092Y-98692520D01*
X262417261Y-98687612D01*
X262373463Y-98570182D01*
X262368797Y-98557671D01*
X262368793Y-98557664D01*
X262282547Y-98442455D01*
X262282544Y-98442452D01*
X262167335Y-98356206D01*
X262167328Y-98356202D01*
X262032486Y-98305910D01*
X262032485Y-98305909D01*
X262032483Y-98305909D01*
X261972873Y-98299500D01*
X261972863Y-98299500D01*
X261352129Y-98299500D01*
X261352123Y-98299501D01*
X261292516Y-98305908D01*
X261157671Y-98356202D01*
X261157664Y-98356206D01*
X261042455Y-98442452D01*
X261042452Y-98442455D01*
X260956206Y-98557664D01*
X260956202Y-98557671D01*
X260905908Y-98692517D01*
X260902200Y-98727011D01*
X260899501Y-98752123D01*
X260899500Y-98752135D01*
X260899500Y-99747870D01*
X260899501Y-99747876D01*
X260905908Y-99807483D01*
X260956202Y-99942328D01*
X260956206Y-99942335D01*
X261037695Y-100051189D01*
X261062113Y-100116653D01*
X261047262Y-100184926D01*
X260997857Y-100234332D01*
X260938429Y-100249500D01*
X260561571Y-100249500D01*
X260494532Y-100229815D01*
X260448777Y-100177011D01*
X260438833Y-100107853D01*
X260462305Y-100051189D01*
X260543793Y-99942335D01*
X260543792Y-99942335D01*
X260543796Y-99942331D01*
X260594091Y-99807483D01*
X260600500Y-99747873D01*
X260600499Y-98752128D01*
X260594091Y-98692517D01*
X260592995Y-98689579D01*
X260543797Y-98557671D01*
X260543793Y-98557664D01*
X260457547Y-98442455D01*
X260457544Y-98442452D01*
X260342335Y-98356206D01*
X260342328Y-98356202D01*
X260207486Y-98305910D01*
X260207485Y-98305909D01*
X260207483Y-98305909D01*
X260147873Y-98299500D01*
X260147863Y-98299500D01*
X259527129Y-98299500D01*
X259527123Y-98299501D01*
X259467516Y-98305908D01*
X259332671Y-98356202D01*
X259332664Y-98356206D01*
X259217455Y-98442452D01*
X259217452Y-98442455D01*
X259131206Y-98557664D01*
X259131202Y-98557671D01*
X259080908Y-98692517D01*
X259079126Y-98700062D01*
X259076853Y-98699525D01*
X259054571Y-98753312D01*
X258997177Y-98793157D01*
X258958024Y-98799500D01*
X252940691Y-98799500D01*
X252850325Y-98823713D01*
X252850324Y-98823712D01*
X252826116Y-98830199D01*
X252826113Y-98830200D01*
X252723386Y-98889511D01*
X252723383Y-98889513D01*
X245297013Y-106315883D01*
X245297009Y-106315889D01*
X245237701Y-106418612D01*
X245237700Y-106418617D01*
X245207000Y-106533191D01*
X245207000Y-107661282D01*
X245197396Y-107693986D01*
X245188262Y-107726825D01*
X245187574Y-107727438D01*
X245187315Y-107728321D01*
X245161580Y-107750619D01*
X245136117Y-107773329D01*
X245134960Y-107773686D01*
X245134511Y-107774076D01*
X245102401Y-107783754D01*
X245102398Y-107783755D01*
X245040076Y-107793626D01*
X244970783Y-107784672D01*
X244917331Y-107739675D01*
X244897739Y-107687339D01*
X244895907Y-107673423D01*
X244889387Y-107640646D01*
X244881009Y-107609379D01*
X244870266Y-107577733D01*
X244866022Y-107567488D01*
X244832817Y-107487323D01*
X244832810Y-107487307D01*
X244832810Y-107487306D01*
X244818028Y-107457330D01*
X244801843Y-107429297D01*
X244783276Y-107401509D01*
X244723693Y-107323859D01*
X244723681Y-107323846D01*
X244723677Y-107323840D01*
X244701660Y-107298735D01*
X244690436Y-107287511D01*
X244678768Y-107275843D01*
X244653642Y-107253809D01*
X244576008Y-107194237D01*
X244575990Y-107194223D01*
X244575988Y-107194222D01*
X244548199Y-107175654D01*
X244548193Y-107175650D01*
X244548181Y-107175643D01*
X244520175Y-107159475D01*
X244520165Y-107159469D01*
X244490193Y-107144689D01*
X244490191Y-107144688D01*
X244490181Y-107144683D01*
X244490175Y-107144681D01*
X244399775Y-107107236D01*
X244368112Y-107096487D01*
X244336846Y-107088110D01*
X244336843Y-107088109D01*
X244304077Y-107081593D01*
X244304072Y-107081592D01*
X244247045Y-107074084D01*
X244198895Y-107067745D01*
X244182297Y-107066109D01*
X244166089Y-107065047D01*
X244163858Y-107064974D01*
X244149374Y-107064500D01*
X241415626Y-107064500D01*
X241402046Y-107064944D01*
X241398910Y-107065047D01*
X241382702Y-107066109D01*
X241366099Y-107067745D01*
X241260930Y-107081591D01*
X241228154Y-107088110D01*
X241196876Y-107096490D01*
X241165238Y-107107229D01*
X241074811Y-107144684D01*
X241044820Y-107159474D01*
X241016798Y-107175654D01*
X240989017Y-107194216D01*
X240988989Y-107194237D01*
X240911349Y-107253813D01*
X240886229Y-107275843D01*
X240863343Y-107298729D01*
X240841313Y-107323849D01*
X240781733Y-107401493D01*
X240781730Y-107401498D01*
X240763145Y-107429313D01*
X240746963Y-107457343D01*
X240732187Y-107487307D01*
X240694733Y-107577730D01*
X240694732Y-107577733D01*
X240683991Y-107609373D01*
X240683988Y-107609385D01*
X240675615Y-107640632D01*
X240675609Y-107640657D01*
X240669092Y-107673426D01*
X240655245Y-107778602D01*
X240653609Y-107795201D01*
X240653501Y-107796852D01*
X240652547Y-107811412D01*
X240652075Y-107825851D01*
X240652000Y-107828138D01*
X240652000Y-109311860D01*
X240652547Y-109328589D01*
X240653609Y-109344797D01*
X240655245Y-109361395D01*
X240655284Y-109361688D01*
X240669073Y-109466431D01*
X240669093Y-109466577D01*
X240675609Y-109499343D01*
X240675610Y-109499346D01*
X240675611Y-109499350D01*
X240683989Y-109530618D01*
X240690657Y-109550261D01*
X240694736Y-109562274D01*
X240694736Y-109562276D01*
X240730264Y-109648048D01*
X240737733Y-109717518D01*
X240706457Y-109779997D01*
X240646368Y-109815648D01*
X240615703Y-109819500D01*
X238220489Y-109819500D01*
X238153450Y-109799815D01*
X238132808Y-109783181D01*
X238019959Y-109670332D01*
X238019957Y-109670330D01*
X237877270Y-109566662D01*
X237868642Y-109562266D01*
X237720127Y-109486593D01*
X237552384Y-109432089D01*
X237378190Y-109404500D01*
X237378185Y-109404500D01*
X237201815Y-109404500D01*
X237201810Y-109404500D01*
X237027615Y-109432089D01*
X236859872Y-109486593D01*
X236702729Y-109566662D01*
X236560040Y-109670332D01*
X236435332Y-109795040D01*
X236331662Y-109937729D01*
X236251593Y-110094872D01*
X236197089Y-110262615D01*
X236169500Y-110436809D01*
X236169500Y-111063190D01*
X236197089Y-111237384D01*
X236251593Y-111405127D01*
X236313031Y-111525704D01*
X236331662Y-111562270D01*
X236435330Y-111704957D01*
X236560043Y-111829670D01*
X236702730Y-111933338D01*
X236750241Y-111957546D01*
X236859872Y-112013406D01*
X236859874Y-112013406D01*
X236859877Y-112013408D01*
X236938004Y-112038793D01*
X237027615Y-112067910D01*
X237201810Y-112095500D01*
X237201815Y-112095500D01*
X237378190Y-112095500D01*
X237552384Y-112067910D01*
X237592264Y-112054952D01*
X237720123Y-112013408D01*
X237877270Y-111933338D01*
X238019957Y-111829670D01*
X238144670Y-111704957D01*
X238248338Y-111562270D01*
X238328408Y-111405123D01*
X238328409Y-111405121D01*
X238330269Y-111400630D01*
X238331506Y-111401142D01*
X238367511Y-111348498D01*
X238431873Y-111321307D01*
X238445995Y-111320500D01*
X241634627Y-111320500D01*
X242083582Y-111320500D01*
X245008770Y-111320500D01*
X245075809Y-111340185D01*
X245096451Y-111356819D01*
X248246108Y-114506476D01*
X248279593Y-114567799D01*
X248274609Y-114637491D01*
X248232737Y-114693424D01*
X248167273Y-114717841D01*
X248126336Y-114713932D01*
X248072475Y-114699500D01*
X247927525Y-114699500D01*
X247787515Y-114737016D01*
X247708063Y-114782887D01*
X247646064Y-114799500D01*
X229987965Y-114799500D01*
X229920926Y-114779815D01*
X229900284Y-114763181D01*
X227136784Y-111999681D01*
X227103299Y-111938358D01*
X227108283Y-111868666D01*
X227150155Y-111812733D01*
X227215619Y-111788316D01*
X227224465Y-111788000D01*
X229753462Y-111788000D01*
X229820501Y-111807685D01*
X229852728Y-111837689D01*
X229942452Y-111957544D01*
X229942455Y-111957547D01*
X230057664Y-112043793D01*
X230057671Y-112043797D01*
X230192517Y-112094091D01*
X230192516Y-112094091D01*
X230199444Y-112094835D01*
X230252127Y-112100500D01*
X231247872Y-112100499D01*
X231307483Y-112094091D01*
X231442331Y-112043796D01*
X231557546Y-111957546D01*
X231643796Y-111842331D01*
X231694091Y-111707483D01*
X231700500Y-111647873D01*
X231700499Y-111027128D01*
X231694091Y-110967517D01*
X231691885Y-110961603D01*
X231643797Y-110832671D01*
X231643793Y-110832664D01*
X231557547Y-110717455D01*
X231557544Y-110717452D01*
X231442335Y-110631206D01*
X231442328Y-110631202D01*
X231307482Y-110580908D01*
X231306858Y-110580761D01*
X231306853Y-110580762D01*
X231306843Y-110580757D01*
X231299938Y-110579126D01*
X231300262Y-110577752D01*
X231277003Y-110567130D01*
X231246688Y-110554571D01*
X231245381Y-110552688D01*
X231243297Y-110551737D01*
X231225560Y-110524138D01*
X231206843Y-110497177D01*
X231206374Y-110494283D01*
X231205523Y-110492959D01*
X231200500Y-110458024D01*
X231200500Y-110291976D01*
X231220185Y-110224937D01*
X231272989Y-110179182D01*
X231300135Y-110171736D01*
X231299932Y-110170876D01*
X231307479Y-110169092D01*
X231307481Y-110169091D01*
X231307483Y-110169091D01*
X231442331Y-110118796D01*
X231557546Y-110032546D01*
X231643796Y-109917331D01*
X231694091Y-109782483D01*
X231700500Y-109722873D01*
X231700499Y-109102128D01*
X231694091Y-109042517D01*
X231693998Y-109042268D01*
X231643797Y-108907671D01*
X231643793Y-108907664D01*
X231557547Y-108792455D01*
X231557544Y-108792452D01*
X231442335Y-108706206D01*
X231442328Y-108706202D01*
X231307482Y-108655908D01*
X231307483Y-108655908D01*
X231247883Y-108649501D01*
X231247881Y-108649500D01*
X231247873Y-108649500D01*
X231247864Y-108649500D01*
X230252129Y-108649500D01*
X230252123Y-108649501D01*
X230192516Y-108655908D01*
X230057671Y-108706202D01*
X230057664Y-108706206D01*
X229942455Y-108792452D01*
X229915662Y-108828243D01*
X229859727Y-108870114D01*
X229790036Y-108875097D01*
X229728715Y-108841612D01*
X228986819Y-108099716D01*
X228953334Y-108038393D01*
X228950500Y-108012035D01*
X228950500Y-107277127D01*
X229799500Y-107277127D01*
X229799500Y-107277134D01*
X229799500Y-107277135D01*
X229799500Y-107897870D01*
X229799501Y-107897876D01*
X229805908Y-107957483D01*
X229856202Y-108092328D01*
X229856206Y-108092335D01*
X229942452Y-108207544D01*
X229942455Y-108207547D01*
X230057664Y-108293793D01*
X230057671Y-108293797D01*
X230192517Y-108344091D01*
X230192516Y-108344091D01*
X230199444Y-108344835D01*
X230252127Y-108350500D01*
X231247872Y-108350499D01*
X231307483Y-108344091D01*
X231442331Y-108293796D01*
X231557546Y-108207546D01*
X231643796Y-108092331D01*
X231656900Y-108057197D01*
X231666609Y-108031167D01*
X231679878Y-108013440D01*
X231689078Y-107993297D01*
X231700408Y-107986015D01*
X231708480Y-107975233D01*
X231729228Y-107967494D01*
X231747856Y-107955523D01*
X231769772Y-107952371D01*
X231773944Y-107950816D01*
X231782791Y-107950500D01*
X231896064Y-107950500D01*
X231958063Y-107967112D01*
X232037515Y-108012984D01*
X232177525Y-108050500D01*
X232177528Y-108050500D01*
X232322472Y-108050500D01*
X232322475Y-108050500D01*
X232462485Y-108012984D01*
X232588015Y-107940509D01*
X232690509Y-107838015D01*
X232762984Y-107712485D01*
X232800500Y-107572475D01*
X232800500Y-107427525D01*
X232762984Y-107287515D01*
X232760190Y-107282676D01*
X232690511Y-107161988D01*
X232690506Y-107161982D01*
X232588017Y-107059493D01*
X232588011Y-107059488D01*
X232462488Y-106987017D01*
X232462489Y-106987017D01*
X232451006Y-106983940D01*
X232322475Y-106949500D01*
X232177525Y-106949500D01*
X232037515Y-106987016D01*
X231958063Y-107032887D01*
X231942575Y-107037037D01*
X231930999Y-107044477D01*
X231896064Y-107049500D01*
X231681035Y-107049500D01*
X231613996Y-107029815D01*
X231581768Y-106999810D01*
X231557550Y-106967458D01*
X231557547Y-106967455D01*
X231557546Y-106967454D01*
X231550908Y-106962485D01*
X231442335Y-106881206D01*
X231442328Y-106881202D01*
X231307482Y-106830908D01*
X231307483Y-106830908D01*
X231247883Y-106824501D01*
X231247881Y-106824500D01*
X231247873Y-106824500D01*
X231247864Y-106824500D01*
X230252129Y-106824500D01*
X230252123Y-106824501D01*
X230192516Y-106830908D01*
X230057671Y-106881202D01*
X230057664Y-106881206D01*
X229942455Y-106967452D01*
X229942452Y-106967455D01*
X229856206Y-107082664D01*
X229856202Y-107082671D01*
X229805910Y-107217513D01*
X229805909Y-107217517D01*
X229799500Y-107277127D01*
X228950500Y-107277127D01*
X228950500Y-107237965D01*
X228970185Y-107170926D01*
X228986819Y-107150284D01*
X229373677Y-106763426D01*
X229791212Y-106345890D01*
X229852533Y-106312407D01*
X229922224Y-106317391D01*
X229953199Y-106334305D01*
X229968678Y-106345892D01*
X230032668Y-106393795D01*
X230032671Y-106393797D01*
X230167517Y-106444091D01*
X230167516Y-106444091D01*
X230174444Y-106444835D01*
X230227127Y-106450500D01*
X231272872Y-106450499D01*
X231332483Y-106444091D01*
X231467331Y-106393796D01*
X231582546Y-106307546D01*
X231668796Y-106192331D01*
X231719091Y-106057483D01*
X231725500Y-105997873D01*
X231725499Y-105402128D01*
X231725498Y-105402126D01*
X231725498Y-105402112D01*
X231723847Y-105386756D01*
X231736252Y-105317996D01*
X231783862Y-105266859D01*
X231847136Y-105249500D01*
X232869482Y-105249500D01*
X232936521Y-105269185D01*
X232971608Y-105305599D01*
X232972050Y-105305257D01*
X232975234Y-105309362D01*
X232976213Y-105310378D01*
X232976825Y-105311414D01*
X232976834Y-105311425D01*
X233088574Y-105423165D01*
X233088583Y-105423172D01*
X233104738Y-105432726D01*
X233224610Y-105503618D01*
X233376373Y-105547709D01*
X233411837Y-105550500D01*
X233875500Y-105550499D01*
X233942539Y-105570183D01*
X233988294Y-105622987D01*
X233999500Y-105674499D01*
X233999500Y-109333398D01*
X233979815Y-109400437D01*
X233927011Y-109446192D01*
X233918836Y-109449579D01*
X233887665Y-109461205D01*
X233772455Y-109547452D01*
X233772452Y-109547455D01*
X233686206Y-109662664D01*
X233686202Y-109662671D01*
X233635908Y-109797517D01*
X233630460Y-109848199D01*
X233629501Y-109857123D01*
X233629500Y-109857135D01*
X233629500Y-111182034D01*
X233609815Y-111249073D01*
X233593181Y-111269715D01*
X232187216Y-112675681D01*
X232125893Y-112709166D01*
X232099535Y-112712000D01*
X231746538Y-112712000D01*
X231679499Y-112692315D01*
X231647272Y-112662311D01*
X231557547Y-112542455D01*
X231557544Y-112542452D01*
X231442335Y-112456206D01*
X231442328Y-112456202D01*
X231307482Y-112405908D01*
X231307483Y-112405908D01*
X231247883Y-112399501D01*
X231247881Y-112399500D01*
X231247873Y-112399500D01*
X231247864Y-112399500D01*
X230252129Y-112399500D01*
X230252123Y-112399501D01*
X230192516Y-112405908D01*
X230057671Y-112456202D01*
X230057664Y-112456206D01*
X229942455Y-112542452D01*
X229942452Y-112542455D01*
X229856206Y-112657664D01*
X229856202Y-112657671D01*
X229805910Y-112792513D01*
X229805909Y-112792517D01*
X229799500Y-112852127D01*
X229799500Y-112852134D01*
X229799500Y-112852135D01*
X229799500Y-113472870D01*
X229799501Y-113472876D01*
X229805908Y-113532483D01*
X229856202Y-113667328D01*
X229856206Y-113667335D01*
X229942452Y-113782544D01*
X229942455Y-113782547D01*
X230057664Y-113868793D01*
X230057671Y-113868797D01*
X230192517Y-113919091D01*
X230192516Y-113919091D01*
X230199444Y-113919835D01*
X230252127Y-113925500D01*
X231247872Y-113925499D01*
X231307483Y-113919091D01*
X231442331Y-113868796D01*
X231557546Y-113782546D01*
X231596916Y-113729955D01*
X231647272Y-113662689D01*
X231703206Y-113620818D01*
X231746538Y-113613000D01*
X232396807Y-113613000D01*
X232396809Y-113613000D01*
X232493842Y-113587000D01*
X232511387Y-113582299D01*
X232614114Y-113522989D01*
X234005285Y-112131816D01*
X234066606Y-112098333D01*
X234092954Y-112095499D01*
X235417872Y-112095499D01*
X235477483Y-112089091D01*
X235612331Y-112038796D01*
X235727546Y-111952546D01*
X235813796Y-111837331D01*
X235864091Y-111702483D01*
X235870500Y-111642873D01*
X235870499Y-109857128D01*
X235864091Y-109797517D01*
X235863901Y-109797008D01*
X235813797Y-109662671D01*
X235813793Y-109662664D01*
X235727547Y-109547455D01*
X235727544Y-109547452D01*
X235612334Y-109461205D01*
X235581164Y-109449579D01*
X235525231Y-109407706D01*
X235500816Y-109342241D01*
X235500500Y-109333398D01*
X235500500Y-105126079D01*
X235471659Y-104981092D01*
X235471658Y-104981091D01*
X235471658Y-104981087D01*
X235450704Y-104930499D01*
X235415085Y-104844507D01*
X235415084Y-104844505D01*
X235371396Y-104779122D01*
X235350519Y-104712445D01*
X235350499Y-104710232D01*
X235350499Y-104111849D01*
X235350498Y-104111824D01*
X235349520Y-104099397D01*
X235347709Y-104076373D01*
X235303618Y-103924610D01*
X235223170Y-103788580D01*
X235223168Y-103788578D01*
X235223165Y-103788574D01*
X235142591Y-103708000D01*
X238900000Y-103708000D01*
X238910608Y-103827325D01*
X238910609Y-103827328D01*
X238966557Y-104022861D01*
X239060721Y-104203129D01*
X239189246Y-104360753D01*
X239346870Y-104489278D01*
X239527138Y-104583442D01*
X239722671Y-104639390D01*
X239722674Y-104639391D01*
X239841999Y-104649999D01*
X239842002Y-104650000D01*
X240150000Y-104650000D01*
X240650000Y-104650000D01*
X240957998Y-104650000D01*
X240958000Y-104649999D01*
X241077325Y-104639391D01*
X241077328Y-104639390D01*
X241272861Y-104583442D01*
X241453129Y-104489278D01*
X241610753Y-104360753D01*
X241739278Y-104203129D01*
X241833442Y-104022861D01*
X241889390Y-103827328D01*
X241889391Y-103827325D01*
X241899999Y-103708000D01*
X241900000Y-103707998D01*
X241900000Y-102500000D01*
X240650000Y-102500000D01*
X240650000Y-104650000D01*
X240150000Y-104650000D01*
X240150000Y-102500000D01*
X238900000Y-102500000D01*
X238900000Y-103708000D01*
X235142591Y-103708000D01*
X235111425Y-103676834D01*
X235111417Y-103676828D01*
X235062737Y-103648039D01*
X235015054Y-103596970D01*
X235002550Y-103528229D01*
X235029195Y-103463639D01*
X235070764Y-103430219D01*
X235199022Y-103366609D01*
X235199025Y-103366607D01*
X235347366Y-103247367D01*
X235347367Y-103247366D01*
X235466607Y-103099025D01*
X235466609Y-103099022D01*
X235551168Y-102928523D01*
X235597102Y-102743824D01*
X235600000Y-102701096D01*
X235600000Y-102500000D01*
X232600000Y-102500000D01*
X232600000Y-102701096D01*
X232602897Y-102743824D01*
X232648831Y-102928523D01*
X232733390Y-103099021D01*
X232735266Y-103101355D01*
X232735966Y-103103052D01*
X232737011Y-103104686D01*
X232736718Y-103104873D01*
X232761925Y-103165938D01*
X232749437Y-103234683D01*
X232701764Y-103285762D01*
X232634044Y-103302960D01*
X232576620Y-103286431D01*
X232510747Y-103248399D01*
X232510748Y-103248399D01*
X232499265Y-103245322D01*
X232370734Y-103210882D01*
X232225784Y-103210882D01*
X232097252Y-103245322D01*
X232085770Y-103248399D01*
X231960247Y-103320871D01*
X231956334Y-103323874D01*
X231935010Y-103332118D01*
X231915780Y-103344477D01*
X231895505Y-103347392D01*
X231891166Y-103349070D01*
X231880845Y-103349500D01*
X231762180Y-103349500D01*
X231695141Y-103329815D01*
X231662913Y-103299811D01*
X231652396Y-103285762D01*
X231582546Y-103192454D01*
X231547125Y-103165938D01*
X231475546Y-103112353D01*
X231433675Y-103056420D01*
X231428691Y-102986728D01*
X231462177Y-102925405D01*
X231510855Y-102895380D01*
X231544122Y-102884356D01*
X231544124Y-102884356D01*
X231693345Y-102792315D01*
X231817315Y-102668345D01*
X231909356Y-102519124D01*
X231909358Y-102519119D01*
X231964505Y-102352697D01*
X231964506Y-102352690D01*
X231974999Y-102249986D01*
X231975000Y-102249973D01*
X231975000Y-102200000D01*
X229525001Y-102200000D01*
X229525001Y-102249986D01*
X229535494Y-102352697D01*
X229590641Y-102519119D01*
X229590643Y-102519124D01*
X229682684Y-102668345D01*
X229806654Y-102792315D01*
X229955875Y-102884356D01*
X229955882Y-102884359D01*
X229989145Y-102895381D01*
X230046590Y-102935153D01*
X230073414Y-102999668D01*
X230061100Y-103068444D01*
X230024454Y-103112353D01*
X229917452Y-103192455D01*
X229831206Y-103307664D01*
X229831202Y-103307671D01*
X229780910Y-103442513D01*
X229780909Y-103442517D01*
X229774500Y-103502127D01*
X229774500Y-103502134D01*
X229774500Y-103502135D01*
X229774500Y-104097870D01*
X229774501Y-104097876D01*
X229780909Y-104157485D01*
X229789742Y-104181168D01*
X229794726Y-104250860D01*
X229761240Y-104312182D01*
X229699916Y-104345667D01*
X229673560Y-104348500D01*
X223116966Y-104348500D01*
X223049927Y-104328815D01*
X223029285Y-104312181D01*
X222436373Y-103719269D01*
X221833332Y-103116229D01*
X221799848Y-103054907D01*
X221803083Y-102990231D01*
X221823402Y-102927701D01*
X221850500Y-102756611D01*
X221850500Y-102583389D01*
X221823402Y-102412299D01*
X221769873Y-102247555D01*
X221691232Y-102093212D01*
X221589414Y-101953072D01*
X221466928Y-101830586D01*
X221352131Y-101747181D01*
X221352130Y-101747179D01*
X221326792Y-101728770D01*
X221172447Y-101650128D01*
X221172446Y-101650127D01*
X221172445Y-101650127D01*
X221172094Y-101650013D01*
X229525000Y-101650013D01*
X229525000Y-101700000D01*
X231974999Y-101700000D01*
X231974999Y-101650028D01*
X231974998Y-101650013D01*
X231964505Y-101547302D01*
X231909358Y-101380880D01*
X231909356Y-101380875D01*
X231817315Y-101231654D01*
X231693345Y-101107684D01*
X231567462Y-101030039D01*
X231520738Y-100978091D01*
X231509515Y-100909128D01*
X231537359Y-100845046D01*
X231595427Y-100806190D01*
X231632559Y-100800500D01*
X232176082Y-100800500D01*
X232926082Y-100800500D01*
X233016899Y-100800500D01*
X233032965Y-100804932D01*
X233047919Y-100804443D01*
X233069400Y-100814986D01*
X233080487Y-100818045D01*
X233087857Y-100822447D01*
X233088580Y-100823170D01*
X233137672Y-100852203D01*
X233137729Y-100852237D01*
X233161272Y-100877675D01*
X233184945Y-100903028D01*
X233184995Y-100903307D01*
X233185188Y-100903515D01*
X233191250Y-100937692D01*
X233197449Y-100971770D01*
X233197341Y-100972030D01*
X233197391Y-100972311D01*
X233183963Y-101004458D01*
X233170804Y-101036359D01*
X233170557Y-101036557D01*
X233170463Y-101036783D01*
X233169149Y-101037689D01*
X233129236Y-101069780D01*
X233000974Y-101133392D01*
X232852633Y-101252632D01*
X232852632Y-101252633D01*
X232733392Y-101400974D01*
X232733390Y-101400977D01*
X232648831Y-101571476D01*
X232602897Y-101756175D01*
X232600000Y-101798903D01*
X232600000Y-102000000D01*
X235600000Y-102000000D01*
X235600000Y-101798903D01*
X235597102Y-101756175D01*
X235551168Y-101571476D01*
X235466609Y-101400977D01*
X235466607Y-101400974D01*
X235347367Y-101252633D01*
X235347366Y-101252632D01*
X235199025Y-101133392D01*
X235070763Y-101069780D01*
X235019451Y-101022359D01*
X235001922Y-100954724D01*
X235023741Y-100888348D01*
X235062736Y-100851961D01*
X235111420Y-100823170D01*
X235142591Y-100791999D01*
X238900000Y-100791999D01*
X238900000Y-102000000D01*
X240150000Y-102000000D01*
X240650000Y-102000000D01*
X241900000Y-102000000D01*
X241900000Y-100792002D01*
X241899999Y-100791999D01*
X241889391Y-100672674D01*
X241889390Y-100672671D01*
X241833442Y-100477138D01*
X241739278Y-100296870D01*
X241610753Y-100139246D01*
X241453129Y-100010721D01*
X241272861Y-99916557D01*
X241077328Y-99860609D01*
X241077325Y-99860608D01*
X240958000Y-99850000D01*
X240650000Y-99850000D01*
X240650000Y-102000000D01*
X240150000Y-102000000D01*
X240150000Y-99850000D01*
X239841999Y-99850000D01*
X239722674Y-99860608D01*
X239722671Y-99860609D01*
X239527138Y-99916557D01*
X239346870Y-100010721D01*
X239189246Y-100139246D01*
X239060721Y-100296870D01*
X238966557Y-100477138D01*
X238910609Y-100672671D01*
X238910608Y-100672674D01*
X238900000Y-100791999D01*
X235142591Y-100791999D01*
X235223170Y-100711420D01*
X235303618Y-100575390D01*
X235347709Y-100423627D01*
X235350500Y-100388163D01*
X235350499Y-99511838D01*
X235347709Y-99476373D01*
X235303618Y-99324610D01*
X235223170Y-99188580D01*
X235223168Y-99188578D01*
X235223165Y-99188574D01*
X235118887Y-99084296D01*
X243299500Y-99084296D01*
X243299500Y-99415703D01*
X243336601Y-99744991D01*
X243336603Y-99745003D01*
X243336604Y-99745006D01*
X243338549Y-99753526D01*
X243410346Y-100068093D01*
X243410349Y-100068101D01*
X243519799Y-100380890D01*
X243663582Y-100679458D01*
X243683665Y-100711420D01*
X243839896Y-100960060D01*
X244046516Y-101219153D01*
X244280847Y-101453484D01*
X244539940Y-101660104D01*
X244820539Y-101836416D01*
X245119113Y-101980202D01*
X245293859Y-102041348D01*
X245431898Y-102089650D01*
X245431906Y-102089653D01*
X245431909Y-102089653D01*
X245431910Y-102089654D01*
X245754994Y-102163396D01*
X245755003Y-102163397D01*
X245755008Y-102163398D01*
X245974533Y-102188132D01*
X246084297Y-102200499D01*
X246084300Y-102200500D01*
X246084303Y-102200500D01*
X246415700Y-102200500D01*
X246415701Y-102200499D01*
X246583996Y-102181537D01*
X246744991Y-102163398D01*
X246744994Y-102163397D01*
X246745006Y-102163396D01*
X247068090Y-102089654D01*
X247380887Y-101980202D01*
X247679461Y-101836416D01*
X247960060Y-101660104D01*
X248219153Y-101453484D01*
X248453484Y-101219153D01*
X248660104Y-100960060D01*
X248836416Y-100679461D01*
X248980202Y-100380887D01*
X249089654Y-100068090D01*
X249163396Y-99745006D01*
X249163886Y-99740664D01*
X249189666Y-99511849D01*
X249200500Y-99415697D01*
X249200500Y-99084303D01*
X249178553Y-98889513D01*
X249163398Y-98755008D01*
X249163397Y-98755003D01*
X249163396Y-98754994D01*
X249089654Y-98431910D01*
X248980202Y-98119113D01*
X248836416Y-97820539D01*
X248660104Y-97539940D01*
X248453484Y-97280847D01*
X248219153Y-97046516D01*
X247960060Y-96839896D01*
X247679461Y-96663584D01*
X247679458Y-96663582D01*
X247380890Y-96519799D01*
X247068101Y-96410349D01*
X247068093Y-96410346D01*
X246825777Y-96355039D01*
X246745006Y-96336604D01*
X246745003Y-96336603D01*
X246744991Y-96336601D01*
X246415703Y-96299500D01*
X246415697Y-96299500D01*
X246084303Y-96299500D01*
X246084296Y-96299500D01*
X245755008Y-96336601D01*
X245754994Y-96336604D01*
X245431906Y-96410346D01*
X245431898Y-96410349D01*
X245119109Y-96519799D01*
X244820541Y-96663582D01*
X244539941Y-96839895D01*
X244280847Y-97046515D01*
X244046515Y-97280847D01*
X243839895Y-97539941D01*
X243663582Y-97820541D01*
X243519799Y-98119109D01*
X243410349Y-98431898D01*
X243410346Y-98431906D01*
X243336604Y-98754994D01*
X243336601Y-98755008D01*
X243299500Y-99084296D01*
X235118887Y-99084296D01*
X235111425Y-99076834D01*
X235111416Y-99076827D01*
X234975390Y-98996382D01*
X234975385Y-98996380D01*
X234823633Y-98952292D01*
X234823620Y-98952290D01*
X234788163Y-98949500D01*
X233411849Y-98949500D01*
X233411824Y-98949501D01*
X233376372Y-98952291D01*
X233224614Y-98996380D01*
X233224609Y-98996382D01*
X233088583Y-99076827D01*
X233088574Y-99076834D01*
X232976834Y-99188574D01*
X232976828Y-99188582D01*
X232947236Y-99238621D01*
X232896167Y-99286304D01*
X232840504Y-99299500D01*
X230227129Y-99299500D01*
X230227123Y-99299501D01*
X230167516Y-99305908D01*
X230032671Y-99356202D01*
X230032664Y-99356206D01*
X229917455Y-99442452D01*
X229917452Y-99442455D01*
X229831206Y-99557664D01*
X229831202Y-99557671D01*
X229780910Y-99692513D01*
X229780909Y-99692517D01*
X229774500Y-99752127D01*
X229774500Y-99752134D01*
X229774500Y-99752135D01*
X229774500Y-100347870D01*
X229774501Y-100347876D01*
X229780908Y-100407483D01*
X229831202Y-100542328D01*
X229831206Y-100542335D01*
X229917452Y-100657544D01*
X229917455Y-100657547D01*
X230032664Y-100743793D01*
X230032673Y-100743798D01*
X230052468Y-100751181D01*
X230108402Y-100793051D01*
X230132820Y-100858515D01*
X230117969Y-100926788D01*
X230068565Y-100976194D01*
X230048141Y-100985069D01*
X229955878Y-101015642D01*
X229955875Y-101015643D01*
X229806654Y-101107684D01*
X229682684Y-101231654D01*
X229590643Y-101380875D01*
X229590641Y-101380880D01*
X229535494Y-101547302D01*
X229535493Y-101547309D01*
X229525000Y-101650013D01*
X221172094Y-101650013D01*
X221007701Y-101596598D01*
X221007699Y-101596597D01*
X221007698Y-101596597D01*
X220868394Y-101574534D01*
X220836611Y-101569500D01*
X220663389Y-101569500D01*
X220631606Y-101574534D01*
X220492302Y-101596597D01*
X220327552Y-101650128D01*
X220173207Y-101728770D01*
X220047979Y-101819753D01*
X220047969Y-101819762D01*
X220033072Y-101830586D01*
X219910586Y-101953072D01*
X219904849Y-101960967D01*
X219904844Y-101960973D01*
X219808770Y-102093208D01*
X219730128Y-102247550D01*
X219729099Y-102250720D01*
X219728381Y-102251769D01*
X219728266Y-102252048D01*
X219728207Y-102252023D01*
X219714057Y-102272713D01*
X219702216Y-102296576D01*
X219694640Y-102301106D01*
X219689657Y-102308393D01*
X219665114Y-102318762D01*
X219642250Y-102332436D01*
X219633428Y-102332151D01*
X219625297Y-102335587D01*
X219599044Y-102331042D01*
X219572417Y-102330183D01*
X219565148Y-102325173D01*
X219556451Y-102323668D01*
X219536825Y-102305653D01*
X219514887Y-102290533D01*
X219509441Y-102280516D01*
X219504979Y-102276420D01*
X219496773Y-102260242D01*
X219405218Y-102041348D01*
X219401856Y-102011066D01*
X219396234Y-101981126D01*
X219398039Y-101976677D01*
X219397510Y-101971905D01*
X219411051Y-101944618D01*
X219422510Y-101916385D01*
X219426435Y-101913618D01*
X219428569Y-101909318D01*
X219454713Y-101893683D01*
X219479617Y-101876128D01*
X219485777Y-101875107D01*
X219488535Y-101873458D01*
X219494557Y-101873652D01*
X219512270Y-101870717D01*
X219512250Y-101870561D01*
X219516934Y-101869944D01*
X219519615Y-101869500D01*
X219520308Y-101869500D01*
X219520309Y-101869500D01*
X219610673Y-101845286D01*
X219634887Y-101838799D01*
X219737614Y-101779489D01*
X220303770Y-101213331D01*
X220365091Y-101179848D01*
X220429764Y-101183082D01*
X220492299Y-101203402D01*
X220663389Y-101230500D01*
X220663390Y-101230500D01*
X220836610Y-101230500D01*
X220836611Y-101230500D01*
X221007701Y-101203402D01*
X221172445Y-101149873D01*
X221326788Y-101071232D01*
X221466928Y-100969414D01*
X221589414Y-100846928D01*
X221691232Y-100706788D01*
X221769873Y-100552445D01*
X221823402Y-100387701D01*
X221850500Y-100216611D01*
X221850500Y-100043389D01*
X221823402Y-99872299D01*
X221769873Y-99707555D01*
X221691232Y-99553212D01*
X221589414Y-99413072D01*
X221466928Y-99290586D01*
X221326788Y-99188768D01*
X221172445Y-99110127D01*
X221007701Y-99056598D01*
X221007699Y-99056597D01*
X221007698Y-99056597D01*
X220866292Y-99034201D01*
X220836611Y-99029500D01*
X220663389Y-99029500D01*
X220633708Y-99034201D01*
X220492302Y-99056597D01*
X220327552Y-99110128D01*
X220173211Y-99188768D01*
X220104595Y-99238621D01*
X220033072Y-99290586D01*
X220033070Y-99290588D01*
X220033069Y-99290588D01*
X219910588Y-99413069D01*
X219910588Y-99413070D01*
X219910586Y-99413072D01*
X219899704Y-99428050D01*
X219808768Y-99553211D01*
X219730128Y-99707552D01*
X219676597Y-99872302D01*
X219649500Y-100043389D01*
X219649500Y-100216610D01*
X219676597Y-100387698D01*
X219676598Y-100387702D01*
X219696915Y-100450232D01*
X219698910Y-100520073D01*
X219666665Y-100576230D01*
X219310716Y-100932181D01*
X219283788Y-100946884D01*
X219257970Y-100963477D01*
X219251769Y-100964368D01*
X219249393Y-100965666D01*
X219223035Y-100968500D01*
X219204451Y-100968500D01*
X219137412Y-100948815D01*
X219091657Y-100896011D01*
X219081713Y-100826853D01*
X219104133Y-100771615D01*
X219126230Y-100741199D01*
X219151232Y-100706788D01*
X219229873Y-100552445D01*
X219283402Y-100387701D01*
X219310500Y-100216611D01*
X219310500Y-100043389D01*
X219283402Y-99872299D01*
X219229873Y-99707555D01*
X219151232Y-99553212D01*
X219049414Y-99413072D01*
X218926928Y-99290586D01*
X218786788Y-99188768D01*
X218632445Y-99110127D01*
X218467701Y-99056598D01*
X218467699Y-99056597D01*
X218467698Y-99056597D01*
X218326292Y-99034201D01*
X218296611Y-99029500D01*
X218123389Y-99029500D01*
X218093708Y-99034201D01*
X217952302Y-99056597D01*
X217787552Y-99110128D01*
X217633211Y-99188768D01*
X217564595Y-99238621D01*
X217493072Y-99290586D01*
X217493070Y-99290588D01*
X217493069Y-99290588D01*
X217370588Y-99413069D01*
X217370588Y-99413070D01*
X217370586Y-99413072D01*
X217359704Y-99428050D01*
X217268770Y-99553207D01*
X217268766Y-99553214D01*
X217250000Y-99590046D01*
X217238918Y-99611795D01*
X217190947Y-99662590D01*
X217128435Y-99679500D01*
X216948610Y-99679500D01*
X216858244Y-99703713D01*
X216858243Y-99703712D01*
X216834035Y-99710199D01*
X216834032Y-99710200D01*
X216731305Y-99769511D01*
X216731302Y-99769513D01*
X215389513Y-101111302D01*
X215389509Y-101111308D01*
X215330201Y-101214031D01*
X215330201Y-101214032D01*
X215325789Y-101230500D01*
X215309063Y-101292923D01*
X215299500Y-101328611D01*
X215299500Y-108162092D01*
X215279815Y-108229131D01*
X215263181Y-108249773D01*
X214476774Y-109036181D01*
X214415451Y-109069666D01*
X214389093Y-109072500D01*
X209524500Y-109072500D01*
X209457461Y-109052815D01*
X209411706Y-109000011D01*
X209400500Y-108948500D01*
X209400500Y-107829239D01*
X209393120Y-107778587D01*
X209390573Y-107761107D01*
X209339198Y-107656017D01*
X209339196Y-107656015D01*
X209339196Y-107656014D01*
X209256485Y-107573303D01*
X209151391Y-107521926D01*
X209083261Y-107512000D01*
X209083260Y-107512000D01*
X208816740Y-107512000D01*
X208816739Y-107512000D01*
X208748607Y-107521926D01*
X208748606Y-107521926D01*
X208679459Y-107555730D01*
X208610586Y-107567488D01*
X208570541Y-107555730D01*
X208501393Y-107521926D01*
X208433261Y-107512000D01*
X208433260Y-107512000D01*
X208166740Y-107512000D01*
X208166739Y-107512000D01*
X208098607Y-107521926D01*
X208098606Y-107521926D01*
X208029459Y-107555730D01*
X207960586Y-107567488D01*
X207920541Y-107555730D01*
X207851393Y-107521926D01*
X207783261Y-107512000D01*
X207783260Y-107512000D01*
X207516740Y-107512000D01*
X207516739Y-107512000D01*
X207448607Y-107521926D01*
X207448606Y-107521926D01*
X207379459Y-107555730D01*
X207310586Y-107567488D01*
X207270541Y-107555730D01*
X207201393Y-107521926D01*
X207133261Y-107512000D01*
X207133260Y-107512000D01*
X206866740Y-107512000D01*
X206866739Y-107512000D01*
X206798607Y-107521926D01*
X206798606Y-107521926D01*
X206729459Y-107555730D01*
X206660586Y-107567488D01*
X206620541Y-107555730D01*
X206551393Y-107521926D01*
X206483261Y-107512000D01*
X206483260Y-107512000D01*
X206216740Y-107512000D01*
X206216739Y-107512000D01*
X206148607Y-107521926D01*
X206148606Y-107521926D01*
X206079459Y-107555730D01*
X206010586Y-107567488D01*
X205970541Y-107555730D01*
X205901393Y-107521926D01*
X205833261Y-107512000D01*
X205833260Y-107512000D01*
X205698485Y-107512000D01*
X205631446Y-107492315D01*
X205600109Y-107463487D01*
X205577924Y-107434575D01*
X205452586Y-107338399D01*
X205306631Y-107277944D01*
X205250000Y-107270487D01*
X205250000Y-107817857D01*
X205248798Y-107821950D01*
X205249302Y-107824753D01*
X205249500Y-107824753D01*
X205249500Y-107825851D01*
X205249675Y-107826824D01*
X205249500Y-107829237D01*
X205249500Y-107829240D01*
X205249500Y-108440691D01*
X205249500Y-111171809D01*
X205264668Y-111228416D01*
X205280201Y-111286387D01*
X205339511Y-111389114D01*
X205339513Y-111389116D01*
X205401216Y-111450819D01*
X205434701Y-111512142D01*
X205429717Y-111581834D01*
X205387845Y-111637767D01*
X205322381Y-111662184D01*
X205313538Y-111662500D01*
X205275030Y-111662500D01*
X205275012Y-111662501D01*
X205172302Y-111672994D01*
X205005880Y-111728141D01*
X205005875Y-111728143D01*
X204856654Y-111820184D01*
X204732684Y-111944154D01*
X204729539Y-111949254D01*
X204677591Y-111995978D01*
X204608628Y-112007200D01*
X204544546Y-111979357D01*
X204505690Y-111921288D01*
X204500000Y-111884157D01*
X204500000Y-111500000D01*
X204299500Y-111500000D01*
X204232461Y-111480315D01*
X204186706Y-111427511D01*
X204175500Y-111376000D01*
X204175500Y-111012965D01*
X204195185Y-110945926D01*
X204211819Y-110925284D01*
X204484943Y-110652160D01*
X204760489Y-110376614D01*
X204819799Y-110273887D01*
X204835949Y-110213613D01*
X204850500Y-110159309D01*
X204850500Y-108440691D01*
X204850500Y-107829240D01*
X204850500Y-107829237D01*
X204850325Y-107826824D01*
X204850000Y-107817857D01*
X204850000Y-107270487D01*
X204793368Y-107277944D01*
X204647413Y-107338399D01*
X204522075Y-107434575D01*
X204499891Y-107463487D01*
X204443463Y-107504689D01*
X204401515Y-107512000D01*
X204266739Y-107512000D01*
X204198607Y-107521926D01*
X204198606Y-107521926D01*
X204129459Y-107555730D01*
X204060586Y-107567488D01*
X204020541Y-107555730D01*
X203951393Y-107521926D01*
X203883261Y-107512000D01*
X203883260Y-107512000D01*
X203616740Y-107512000D01*
X203616739Y-107512000D01*
X203548607Y-107521926D01*
X203548606Y-107521926D01*
X203479459Y-107555730D01*
X203410586Y-107567488D01*
X203370541Y-107555730D01*
X203301393Y-107521926D01*
X203233261Y-107512000D01*
X203233260Y-107512000D01*
X202966740Y-107512000D01*
X202966739Y-107512000D01*
X202898608Y-107521926D01*
X202793514Y-107573303D01*
X202710803Y-107656014D01*
X202659426Y-107761108D01*
X202649500Y-107829239D01*
X202649500Y-109272592D01*
X202629815Y-109339631D01*
X202613181Y-109360273D01*
X201529995Y-110443460D01*
X201468672Y-110476945D01*
X201442314Y-110479779D01*
X199882912Y-110479779D01*
X199794843Y-110503377D01*
X199794842Y-110503377D01*
X199768336Y-110510478D01*
X199768335Y-110510479D01*
X199665610Y-110569788D01*
X199665604Y-110569792D01*
X196684714Y-113550681D01*
X196623391Y-113584166D01*
X196597033Y-113587000D01*
X196024629Y-113587000D01*
X196024623Y-113587001D01*
X195965016Y-113593408D01*
X195830171Y-113643702D01*
X195830164Y-113643706D01*
X195714955Y-113729952D01*
X195714952Y-113729955D01*
X195628706Y-113845164D01*
X195628702Y-113845171D01*
X195578408Y-113980017D01*
X195572001Y-114039616D01*
X195572001Y-114039623D01*
X195572000Y-114039635D01*
X195572000Y-115035370D01*
X195572001Y-115035376D01*
X195578408Y-115094983D01*
X195628702Y-115229828D01*
X195628706Y-115229835D01*
X195714952Y-115345044D01*
X195714955Y-115345047D01*
X195830164Y-115431293D01*
X195830171Y-115431297D01*
X195875118Y-115448061D01*
X195965017Y-115481591D01*
X196024627Y-115488000D01*
X196645372Y-115487999D01*
X196704983Y-115481591D01*
X196839831Y-115431296D01*
X196955046Y-115345046D01*
X197041296Y-115229831D01*
X197091591Y-115094983D01*
X197098000Y-115035373D01*
X197097999Y-114462963D01*
X197117683Y-114395925D01*
X197134313Y-114375288D01*
X200092505Y-111417098D01*
X200119432Y-111402394D01*
X200145251Y-111385802D01*
X200151451Y-111384910D01*
X200153828Y-111383613D01*
X200180186Y-111380779D01*
X200376000Y-111380779D01*
X200443039Y-111400464D01*
X200488794Y-111453268D01*
X200500000Y-111504779D01*
X200500000Y-114500000D01*
X201925500Y-114500000D01*
X201934185Y-114502550D01*
X201943147Y-114501262D01*
X201967187Y-114512240D01*
X201992539Y-114519685D01*
X201998466Y-114526525D01*
X202006703Y-114530287D01*
X202020992Y-114552521D01*
X202038294Y-114572489D01*
X202040581Y-114583003D01*
X202044477Y-114589065D01*
X202049500Y-114624000D01*
X202049500Y-114646063D01*
X202032887Y-114708062D01*
X201987019Y-114787508D01*
X201987016Y-114787513D01*
X201981128Y-114809488D01*
X201949500Y-114927525D01*
X201949500Y-115072475D01*
X201977649Y-115177527D01*
X201987017Y-115212488D01*
X202059488Y-115338011D01*
X202059490Y-115338013D01*
X202059491Y-115338015D01*
X202161985Y-115440509D01*
X202161986Y-115440510D01*
X202161988Y-115440511D01*
X202287511Y-115512982D01*
X202287512Y-115512982D01*
X202287515Y-115512984D01*
X202427525Y-115550500D01*
X202427528Y-115550500D01*
X202572472Y-115550500D01*
X202572475Y-115550500D01*
X202712485Y-115512984D01*
X202838015Y-115440509D01*
X202940509Y-115338015D01*
X203012984Y-115212485D01*
X203050500Y-115072475D01*
X203050500Y-114927525D01*
X203012984Y-114787515D01*
X203010312Y-114782887D01*
X202967113Y-114708062D01*
X202962963Y-114692575D01*
X202955523Y-114680998D01*
X202950500Y-114646063D01*
X202950500Y-114643934D01*
X202954725Y-114611842D01*
X202960066Y-114591908D01*
X202996430Y-114532247D01*
X203059276Y-114501717D01*
X203079841Y-114500000D01*
X204500000Y-114500000D01*
X204500000Y-113890842D01*
X204519685Y-113823803D01*
X204572489Y-113778048D01*
X204641647Y-113768104D01*
X204705203Y-113797129D01*
X204729541Y-113825749D01*
X204732683Y-113830844D01*
X204856654Y-113954815D01*
X205005875Y-114046856D01*
X205005880Y-114046858D01*
X205172302Y-114102005D01*
X205172309Y-114102006D01*
X205275019Y-114112499D01*
X205324999Y-114112498D01*
X205325000Y-114112498D01*
X205325000Y-113011500D01*
X205344685Y-112944461D01*
X205397489Y-112898706D01*
X205449000Y-112887500D01*
X205701000Y-112887500D01*
X205768039Y-112907185D01*
X205813794Y-112959989D01*
X205825000Y-113011500D01*
X205825000Y-114112499D01*
X205874972Y-114112499D01*
X205874986Y-114112498D01*
X205977697Y-114102005D01*
X206144119Y-114046858D01*
X206144124Y-114046856D01*
X206293345Y-113954815D01*
X206417315Y-113830845D01*
X206509356Y-113681624D01*
X206509359Y-113681617D01*
X206539930Y-113589360D01*
X206579702Y-113531915D01*
X206644218Y-113505091D01*
X206712994Y-113517406D01*
X206764194Y-113564948D01*
X206773818Y-113585029D01*
X206781203Y-113604829D01*
X206781206Y-113604835D01*
X206867452Y-113720044D01*
X206867455Y-113720047D01*
X206982664Y-113806293D01*
X206982671Y-113806297D01*
X207027618Y-113823061D01*
X207117517Y-113856591D01*
X207177127Y-113863000D01*
X207772872Y-113862999D01*
X207832483Y-113856591D01*
X207967331Y-113806296D01*
X208082546Y-113720046D01*
X208168796Y-113604831D01*
X208219091Y-113469983D01*
X208225500Y-113410373D01*
X208225499Y-112364628D01*
X208219091Y-112305017D01*
X208217033Y-112299500D01*
X208168797Y-112170171D01*
X208168793Y-112170164D01*
X208082547Y-112054955D01*
X208082544Y-112054952D01*
X207967335Y-111968706D01*
X207967328Y-111968702D01*
X207832486Y-111918410D01*
X207832485Y-111918409D01*
X207832483Y-111918409D01*
X207772873Y-111912000D01*
X207772864Y-111912000D01*
X207187965Y-111912000D01*
X207120926Y-111892315D01*
X207100284Y-111875681D01*
X206612572Y-111387969D01*
X206580478Y-111332381D01*
X206570407Y-111294797D01*
X206556734Y-111243765D01*
X206487586Y-111123997D01*
X206471114Y-111056101D01*
X206493966Y-110990074D01*
X206548887Y-110946883D01*
X206589416Y-110939071D01*
X206589415Y-110939061D01*
X206589586Y-110939038D01*
X206594974Y-110938000D01*
X206597472Y-110938000D01*
X206597475Y-110938000D01*
X206737485Y-110900484D01*
X206863015Y-110828009D01*
X206965509Y-110725515D01*
X206980024Y-110700373D01*
X207030588Y-110652160D01*
X207099195Y-110638936D01*
X207164060Y-110664903D01*
X207175091Y-110674694D01*
X208860886Y-112360489D01*
X208860887Y-112360490D01*
X208860889Y-112360491D01*
X208886369Y-112375202D01*
X208886372Y-112375203D01*
X208963608Y-112419796D01*
X208963609Y-112419797D01*
X208963611Y-112419797D01*
X208963614Y-112419799D01*
X209078191Y-112450500D01*
X226262035Y-112450500D01*
X226329074Y-112470185D01*
X226349716Y-112486819D01*
X229473386Y-115610489D01*
X229576113Y-115669799D01*
X229600321Y-115676284D01*
X229600324Y-115676286D01*
X229600325Y-115676286D01*
X229630447Y-115684357D01*
X229690691Y-115700500D01*
X247646064Y-115700500D01*
X247708063Y-115717112D01*
X247787515Y-115762984D01*
X247927525Y-115800500D01*
X247927528Y-115800500D01*
X248072472Y-115800500D01*
X248072475Y-115800500D01*
X248212485Y-115762984D01*
X248338015Y-115690509D01*
X248440509Y-115588015D01*
X248512984Y-115462485D01*
X248550500Y-115322475D01*
X248550500Y-115177525D01*
X248536068Y-115123664D01*
X248537729Y-115053817D01*
X248576891Y-114995954D01*
X248641119Y-114968449D01*
X248710022Y-114980035D01*
X248743523Y-115003891D01*
X261463181Y-127723548D01*
X261496666Y-127784871D01*
X261499500Y-127811229D01*
X261499500Y-129024678D01*
X261514032Y-129097735D01*
X261514033Y-129097739D01*
X261514034Y-129097740D01*
X261569399Y-129180601D01*
X261652260Y-129235966D01*
X261652264Y-129235967D01*
X261725321Y-129250499D01*
X261725324Y-129250500D01*
X261725326Y-129250500D01*
X265274676Y-129250500D01*
X265274677Y-129250499D01*
X265347740Y-129235966D01*
X265430601Y-129180601D01*
X265485966Y-129097740D01*
X265500500Y-129024674D01*
X265500500Y-125475326D01*
X265500500Y-125475323D01*
X265500499Y-125475321D01*
X265485967Y-125402264D01*
X265485966Y-125402260D01*
X265484122Y-125399500D01*
X265430601Y-125319399D01*
X265347740Y-125264034D01*
X265347739Y-125264033D01*
X265347735Y-125264032D01*
X265274677Y-125249500D01*
X265274674Y-125249500D01*
X261725326Y-125249500D01*
X261725323Y-125249500D01*
X261652264Y-125264032D01*
X261652260Y-125264033D01*
X261569399Y-125319399D01*
X261514032Y-125402262D01*
X261512001Y-125407167D01*
X261468158Y-125461569D01*
X261401863Y-125483632D01*
X261334164Y-125466351D01*
X261309760Y-125447392D01*
X251874549Y-116012181D01*
X251841064Y-115950858D01*
X251846048Y-115881166D01*
X251887920Y-115825233D01*
X251953384Y-115800816D01*
X251962230Y-115800500D01*
X252072472Y-115800500D01*
X252072475Y-115800500D01*
X252212485Y-115762984D01*
X252291936Y-115717112D01*
X252353936Y-115700500D01*
X252559308Y-115700500D01*
X252559309Y-115700500D01*
X252649673Y-115676286D01*
X252673887Y-115669799D01*
X252776614Y-115610489D01*
X255105284Y-113281819D01*
X255166607Y-113248334D01*
X255192965Y-113245500D01*
X258985523Y-113245500D01*
X259052562Y-113265185D01*
X259098317Y-113317989D01*
X259105766Y-113345134D01*
X259106624Y-113344932D01*
X259108407Y-113352479D01*
X259158702Y-113487328D01*
X259158706Y-113487335D01*
X259244952Y-113602544D01*
X259244955Y-113602547D01*
X259360164Y-113688793D01*
X259360171Y-113688797D01*
X259374580Y-113694171D01*
X259495017Y-113739091D01*
X259554627Y-113745500D01*
X260175372Y-113745499D01*
X260234983Y-113739091D01*
X260369831Y-113688796D01*
X260485046Y-113602546D01*
X260571296Y-113487331D01*
X260621591Y-113352483D01*
X260628000Y-113292873D01*
X260627999Y-112297128D01*
X260622555Y-112246482D01*
X260621591Y-112237516D01*
X260571297Y-112102671D01*
X260571293Y-112102664D01*
X260485047Y-111987455D01*
X260485045Y-111987453D01*
X260475375Y-111980214D01*
X260433505Y-111924280D01*
X260428522Y-111854588D01*
X260462009Y-111793266D01*
X260523333Y-111759782D01*
X260549981Y-111756949D01*
X260973061Y-111757965D01*
X261004153Y-111758040D01*
X261071145Y-111777886D01*
X261116773Y-111830800D01*
X261126550Y-111899982D01*
X261097373Y-111963468D01*
X261078167Y-111981306D01*
X261069952Y-111987455D01*
X260983706Y-112102664D01*
X260983702Y-112102671D01*
X260933408Y-112237517D01*
X260928861Y-112279815D01*
X260927001Y-112297123D01*
X260927000Y-112297135D01*
X260927000Y-113292870D01*
X260927001Y-113292876D01*
X260933408Y-113352483D01*
X260983702Y-113487328D01*
X260983706Y-113487335D01*
X261069952Y-113602544D01*
X261069955Y-113602547D01*
X261185164Y-113688793D01*
X261185171Y-113688797D01*
X261199580Y-113694171D01*
X261320017Y-113739091D01*
X261379627Y-113745500D01*
X262000372Y-113745499D01*
X262059983Y-113739091D01*
X262194831Y-113688796D01*
X262310046Y-113602546D01*
X262396296Y-113487331D01*
X262446591Y-113352483D01*
X262450902Y-113312387D01*
X262451025Y-113311244D01*
X262477763Y-113246693D01*
X262535155Y-113206845D01*
X262574314Y-113200500D01*
X263207416Y-113200500D01*
X263274455Y-113220185D01*
X263320210Y-113272989D01*
X263328953Y-113304861D01*
X263329044Y-113304840D01*
X263329640Y-113307363D01*
X263330706Y-113311248D01*
X263330828Y-113312391D01*
X263380497Y-113445554D01*
X263465669Y-113559331D01*
X263556997Y-113627698D01*
X263578378Y-113643704D01*
X263579446Y-113644503D01*
X263712609Y-113694171D01*
X263771479Y-113700500D01*
X264353520Y-113700499D01*
X264412391Y-113694171D01*
X264545554Y-113644503D01*
X264659331Y-113559331D01*
X264744503Y-113445554D01*
X264794171Y-113312391D01*
X264798407Y-113272989D01*
X264800499Y-113253537D01*
X264800499Y-113253526D01*
X264800500Y-113253521D01*
X264800499Y-112246480D01*
X264794171Y-112187609D01*
X264744503Y-112054446D01*
X264659331Y-111940669D01*
X264589451Y-111888358D01*
X264545556Y-111855498D01*
X264545554Y-111855497D01*
X264412391Y-111805829D01*
X264412389Y-111805828D01*
X264412387Y-111805828D01*
X264353529Y-111799500D01*
X263771482Y-111799500D01*
X263771473Y-111799501D01*
X263712608Y-111805828D01*
X263579445Y-111855497D01*
X263465669Y-111940669D01*
X263380498Y-112054443D01*
X263380307Y-112054955D01*
X263330829Y-112187609D01*
X263330706Y-112188752D01*
X263330363Y-112189579D01*
X263329045Y-112195159D01*
X263328141Y-112194945D01*
X263303971Y-112253303D01*
X263246581Y-112293153D01*
X263207417Y-112299500D01*
X262555805Y-112299500D01*
X262488766Y-112279815D01*
X262443011Y-112227011D01*
X262439623Y-112218833D01*
X262396297Y-112102671D01*
X262396293Y-112102664D01*
X262310047Y-111987455D01*
X262310044Y-111987452D01*
X262194835Y-111901206D01*
X262194828Y-111901202D01*
X262059983Y-111850908D01*
X262015735Y-111846151D01*
X261951184Y-111819412D01*
X261911337Y-111762019D01*
X261908844Y-111692194D01*
X261944498Y-111632106D01*
X261953631Y-111624390D01*
X262023896Y-111570631D01*
X262049091Y-111548593D01*
X262072043Y-111525696D01*
X262094140Y-111500556D01*
X262153892Y-111422847D01*
X262172514Y-111395031D01*
X262188746Y-111366968D01*
X262203570Y-111336960D01*
X262241136Y-111246422D01*
X262251910Y-111214735D01*
X262260314Y-111183423D01*
X262266855Y-111150593D01*
X262280743Y-111045268D01*
X262282387Y-111028602D01*
X262283451Y-111012392D01*
X262283624Y-111007137D01*
X262284000Y-110995669D01*
X262284000Y-109324500D01*
X262303685Y-109257461D01*
X262356489Y-109211706D01*
X262408000Y-109200500D01*
X264244452Y-109200500D01*
X264273892Y-109209144D01*
X264303879Y-109215668D01*
X264308894Y-109219422D01*
X264311491Y-109220185D01*
X264332133Y-109236819D01*
X264403133Y-109307819D01*
X264436618Y-109369142D01*
X264431634Y-109438834D01*
X264389762Y-109494767D01*
X264324298Y-109519184D01*
X264315452Y-109519500D01*
X264028655Y-109519500D01*
X263874010Y-109550261D01*
X263873998Y-109550264D01*
X263728327Y-109610602D01*
X263728314Y-109610609D01*
X263597211Y-109698210D01*
X263597207Y-109698213D01*
X263485713Y-109809707D01*
X263485710Y-109809711D01*
X263398109Y-109940814D01*
X263398102Y-109940827D01*
X263337764Y-110086498D01*
X263337761Y-110086510D01*
X263307000Y-110241153D01*
X263307000Y-110398846D01*
X263337761Y-110553489D01*
X263337764Y-110553501D01*
X263398102Y-110699172D01*
X263398109Y-110699185D01*
X263485710Y-110830288D01*
X263485713Y-110830292D01*
X263597207Y-110941786D01*
X263597211Y-110941789D01*
X263728314Y-111029390D01*
X263728327Y-111029397D01*
X263809900Y-111063185D01*
X263874003Y-111089737D01*
X264017271Y-111118235D01*
X264028653Y-111120499D01*
X264028656Y-111120500D01*
X264028658Y-111120500D01*
X264786344Y-111120500D01*
X264786345Y-111120499D01*
X264940997Y-111089737D01*
X265086679Y-111029394D01*
X265217789Y-110941789D01*
X265244644Y-110914934D01*
X265275319Y-110884260D01*
X265336642Y-110850775D01*
X265406334Y-110855759D01*
X265462267Y-110897631D01*
X265486684Y-110963095D01*
X265487000Y-110971941D01*
X265487000Y-111769057D01*
X265467315Y-111836096D01*
X265437311Y-111868324D01*
X265340669Y-111940669D01*
X265255498Y-112054443D01*
X265205828Y-112187612D01*
X265199500Y-112246462D01*
X265199500Y-113253517D01*
X265199501Y-113253526D01*
X265205828Y-113312391D01*
X265255497Y-113445554D01*
X265340669Y-113559331D01*
X265431997Y-113627698D01*
X265453378Y-113643704D01*
X265454446Y-113644503D01*
X265587609Y-113694171D01*
X265646479Y-113700500D01*
X266228520Y-113700499D01*
X266287391Y-113694171D01*
X266332165Y-113677471D01*
X266401857Y-113672486D01*
X266463180Y-113705970D01*
X266496666Y-113767293D01*
X266499500Y-113793652D01*
X266499500Y-137993038D01*
X266498720Y-138006922D01*
X266498720Y-138006923D01*
X266488540Y-138097264D01*
X266482362Y-138124333D01*
X266454648Y-138203537D01*
X266442600Y-138228555D01*
X266397957Y-138299604D01*
X266380644Y-138321313D01*
X266321313Y-138380644D01*
X266299604Y-138397957D01*
X266228555Y-138442600D01*
X266203537Y-138454648D01*
X266124333Y-138482362D01*
X266097264Y-138488540D01*
X266017075Y-138497576D01*
X266006921Y-138498720D01*
X265993038Y-138499500D01*
X188756962Y-138499500D01*
X188743078Y-138498720D01*
X188730553Y-138497308D01*
X188652735Y-138488540D01*
X188625666Y-138482362D01*
X188546462Y-138454648D01*
X188521444Y-138442600D01*
X188450395Y-138397957D01*
X188428686Y-138380644D01*
X188369355Y-138321313D01*
X188352042Y-138299604D01*
X188307399Y-138228555D01*
X188295351Y-138203537D01*
X188267637Y-138124333D01*
X188261459Y-138097263D01*
X188251280Y-138006922D01*
X188250500Y-137993038D01*
X188250500Y-127118872D01*
X189499500Y-127118872D01*
X189499500Y-127381127D01*
X189526123Y-127583339D01*
X189533730Y-127641116D01*
X189588655Y-127846100D01*
X189601602Y-127894418D01*
X189601605Y-127894428D01*
X189701953Y-128136690D01*
X189701958Y-128136700D01*
X189833075Y-128363803D01*
X189992718Y-128571851D01*
X189992726Y-128571860D01*
X190178140Y-128757274D01*
X190178148Y-128757281D01*
X190386196Y-128916924D01*
X190613299Y-129048041D01*
X190613309Y-129048046D01*
X190855571Y-129148394D01*
X190855581Y-129148398D01*
X191108884Y-129216270D01*
X191368880Y-129250500D01*
X191368887Y-129250500D01*
X191631113Y-129250500D01*
X191631120Y-129250500D01*
X191891116Y-129216270D01*
X192144419Y-129148398D01*
X192386697Y-129048043D01*
X192613803Y-128916924D01*
X192821851Y-128757282D01*
X192821855Y-128757277D01*
X192821860Y-128757274D01*
X193007274Y-128571860D01*
X193007277Y-128571855D01*
X193007282Y-128571851D01*
X193166924Y-128363803D01*
X193298043Y-128136697D01*
X193398398Y-127894419D01*
X193466270Y-127641116D01*
X193500500Y-127381120D01*
X193500500Y-127128711D01*
X197394500Y-127128711D01*
X197394500Y-127371288D01*
X197426161Y-127611785D01*
X197488947Y-127846104D01*
X197508960Y-127894419D01*
X197581776Y-128070212D01*
X197703064Y-128280289D01*
X197703066Y-128280292D01*
X197703067Y-128280293D01*
X197850733Y-128472736D01*
X197850739Y-128472743D01*
X198022256Y-128644260D01*
X198022262Y-128644265D01*
X198214711Y-128791936D01*
X198424788Y-128913224D01*
X198648900Y-129006054D01*
X198883211Y-129068838D01*
X199063586Y-129092584D01*
X199123711Y-129100500D01*
X199123712Y-129100500D01*
X199366289Y-129100500D01*
X199414388Y-129094167D01*
X199606789Y-129068838D01*
X199841100Y-129006054D01*
X200065212Y-128913224D01*
X200275289Y-128791936D01*
X200467738Y-128644265D01*
X200639265Y-128472738D01*
X200786936Y-128280289D01*
X200908224Y-128070212D01*
X201001054Y-127846100D01*
X201063838Y-127611789D01*
X201095500Y-127371288D01*
X201095500Y-127128712D01*
X201095500Y-127128711D01*
X253004500Y-127128711D01*
X253004500Y-127371288D01*
X253036161Y-127611785D01*
X253098947Y-127846104D01*
X253118960Y-127894419D01*
X253191776Y-128070212D01*
X253313064Y-128280289D01*
X253313066Y-128280292D01*
X253313067Y-128280293D01*
X253460733Y-128472736D01*
X253460739Y-128472743D01*
X253632256Y-128644260D01*
X253632262Y-128644265D01*
X253824711Y-128791936D01*
X254034788Y-128913224D01*
X254258900Y-129006054D01*
X254493211Y-129068838D01*
X254673586Y-129092584D01*
X254733711Y-129100500D01*
X254733712Y-129100500D01*
X254976289Y-129100500D01*
X255024388Y-129094167D01*
X255216789Y-129068838D01*
X255451100Y-129006054D01*
X255675212Y-128913224D01*
X255885289Y-128791936D01*
X256077738Y-128644265D01*
X256249265Y-128472738D01*
X256396936Y-128280289D01*
X256518224Y-128070212D01*
X256611054Y-127846100D01*
X256673838Y-127611789D01*
X256705500Y-127371288D01*
X256705500Y-127128712D01*
X256704206Y-127118886D01*
X256673838Y-126888214D01*
X256673838Y-126888211D01*
X256611054Y-126653900D01*
X256518224Y-126429788D01*
X256396936Y-126219711D01*
X256249265Y-126027262D01*
X256249260Y-126027256D01*
X256077743Y-125855739D01*
X256077736Y-125855733D01*
X255885293Y-125708067D01*
X255885292Y-125708066D01*
X255885289Y-125708064D01*
X255675212Y-125586776D01*
X255675205Y-125586773D01*
X255451104Y-125493947D01*
X255216785Y-125431161D01*
X254976289Y-125399500D01*
X254976288Y-125399500D01*
X254733712Y-125399500D01*
X254733711Y-125399500D01*
X254493214Y-125431161D01*
X254258895Y-125493947D01*
X254034794Y-125586773D01*
X254034785Y-125586777D01*
X253824706Y-125708067D01*
X253632263Y-125855733D01*
X253632256Y-125855739D01*
X253460739Y-126027256D01*
X253460733Y-126027263D01*
X253313067Y-126219706D01*
X253191777Y-126429785D01*
X253191773Y-126429794D01*
X253098947Y-126653895D01*
X253036161Y-126888214D01*
X253004500Y-127128711D01*
X201095500Y-127128711D01*
X201094206Y-127118886D01*
X201063838Y-126888214D01*
X201063838Y-126888211D01*
X201001054Y-126653900D01*
X200908224Y-126429788D01*
X200786936Y-126219711D01*
X200639265Y-126027262D01*
X200639260Y-126027256D01*
X200467743Y-125855739D01*
X200467736Y-125855733D01*
X200275293Y-125708067D01*
X200275292Y-125708066D01*
X200275289Y-125708064D01*
X200065212Y-125586776D01*
X200065205Y-125586773D01*
X199841104Y-125493947D01*
X199606785Y-125431161D01*
X199366289Y-125399500D01*
X199366288Y-125399500D01*
X199123712Y-125399500D01*
X199123711Y-125399500D01*
X198883214Y-125431161D01*
X198648895Y-125493947D01*
X198424794Y-125586773D01*
X198424785Y-125586777D01*
X198214706Y-125708067D01*
X198022263Y-125855733D01*
X198022256Y-125855739D01*
X197850739Y-126027256D01*
X197850733Y-126027263D01*
X197703067Y-126219706D01*
X197581777Y-126429785D01*
X197581773Y-126429794D01*
X197488947Y-126653895D01*
X197426161Y-126888214D01*
X197394500Y-127128711D01*
X193500500Y-127128711D01*
X193500500Y-127118880D01*
X193466270Y-126858884D01*
X193398398Y-126605581D01*
X193325581Y-126429785D01*
X193298046Y-126363309D01*
X193298041Y-126363299D01*
X193166924Y-126136196D01*
X193007281Y-125928148D01*
X193007274Y-125928140D01*
X192821860Y-125742726D01*
X192821851Y-125742718D01*
X192613803Y-125583075D01*
X192386700Y-125451958D01*
X192386690Y-125451953D01*
X192144428Y-125351605D01*
X192144421Y-125351603D01*
X192144419Y-125351602D01*
X191891116Y-125283730D01*
X191833339Y-125276123D01*
X191631127Y-125249500D01*
X191631120Y-125249500D01*
X191368880Y-125249500D01*
X191368872Y-125249500D01*
X191137772Y-125279926D01*
X191108884Y-125283730D01*
X190975765Y-125319399D01*
X190855581Y-125351602D01*
X190855571Y-125351605D01*
X190613309Y-125451953D01*
X190613299Y-125451958D01*
X190386196Y-125583075D01*
X190178148Y-125742718D01*
X189992718Y-125928148D01*
X189833075Y-126136196D01*
X189701958Y-126363299D01*
X189701953Y-126363309D01*
X189601605Y-126605571D01*
X189601602Y-126605581D01*
X189533730Y-126858885D01*
X189499500Y-127118872D01*
X188250500Y-127118872D01*
X188250500Y-114168962D01*
X189337000Y-114168962D01*
X189337000Y-115176017D01*
X189337001Y-115176026D01*
X189343328Y-115234891D01*
X189384415Y-115345046D01*
X189392997Y-115368054D01*
X189478168Y-115481830D01*
X189478170Y-115481832D01*
X189486410Y-115488000D01*
X189569900Y-115550500D01*
X189574810Y-115554175D01*
X189616682Y-115610108D01*
X189624500Y-115653442D01*
X189624500Y-115749308D01*
X189648712Y-115839672D01*
X189655200Y-115863885D01*
X189655200Y-115863886D01*
X189655201Y-115863887D01*
X189714511Y-115966614D01*
X189714513Y-115966616D01*
X189853676Y-116105779D01*
X189885769Y-116161365D01*
X189909515Y-116249983D01*
X189909517Y-116249988D01*
X189981988Y-116375511D01*
X189981990Y-116375513D01*
X189981991Y-116375515D01*
X190084485Y-116478009D01*
X190084486Y-116478010D01*
X190084488Y-116478011D01*
X190210011Y-116550482D01*
X190210012Y-116550482D01*
X190210015Y-116550484D01*
X190350025Y-116588000D01*
X190350028Y-116588000D01*
X190494972Y-116588000D01*
X190494975Y-116588000D01*
X190634985Y-116550484D01*
X190760515Y-116478009D01*
X190863009Y-116375515D01*
X190935484Y-116249985D01*
X190973000Y-116109975D01*
X190973000Y-115965025D01*
X190935484Y-115825015D01*
X190921330Y-115800500D01*
X190863011Y-115699488D01*
X190863006Y-115699482D01*
X190760517Y-115596993D01*
X190760515Y-115596991D01*
X190760512Y-115596989D01*
X190760508Y-115596986D01*
X190759385Y-115596338D01*
X190758626Y-115595542D01*
X190754066Y-115592043D01*
X190754611Y-115591331D01*
X190711173Y-115545768D01*
X190697954Y-115477160D01*
X190722124Y-115414645D01*
X190757003Y-115368054D01*
X190806671Y-115234891D01*
X190810907Y-115195489D01*
X190812999Y-115176037D01*
X190812999Y-115176026D01*
X190813000Y-115176021D01*
X190812999Y-114168980D01*
X190812997Y-114168962D01*
X191212000Y-114168962D01*
X191212000Y-115176017D01*
X191212001Y-115176026D01*
X191218328Y-115234891D01*
X191259415Y-115345046D01*
X191267997Y-115368054D01*
X191353169Y-115481831D01*
X191466946Y-115567003D01*
X191600109Y-115616671D01*
X191658979Y-115623000D01*
X192241020Y-115622999D01*
X192299891Y-115616671D01*
X192433054Y-115567003D01*
X192546831Y-115481831D01*
X192632003Y-115368054D01*
X192681671Y-115234891D01*
X192681793Y-115233747D01*
X192682136Y-115232920D01*
X192683455Y-115227341D01*
X192684358Y-115227554D01*
X192708529Y-115169197D01*
X192765919Y-115129347D01*
X192805083Y-115123000D01*
X193677763Y-115123000D01*
X193744802Y-115142685D01*
X193790557Y-115195489D01*
X193793945Y-115203667D01*
X193803702Y-115229828D01*
X193803706Y-115229835D01*
X193889952Y-115345044D01*
X193889955Y-115345047D01*
X194005164Y-115431293D01*
X194005171Y-115431297D01*
X194050118Y-115448061D01*
X194140017Y-115481591D01*
X194199627Y-115488000D01*
X194820372Y-115487999D01*
X194879983Y-115481591D01*
X195014831Y-115431296D01*
X195130046Y-115345046D01*
X195216296Y-115229831D01*
X195266591Y-115094983D01*
X195273000Y-115035373D01*
X195272999Y-114039628D01*
X195266591Y-113980017D01*
X195265445Y-113976945D01*
X195216297Y-113845171D01*
X195216293Y-113845164D01*
X195130047Y-113729955D01*
X195130044Y-113729952D01*
X195014835Y-113643706D01*
X195014828Y-113643702D01*
X194879986Y-113593410D01*
X194879985Y-113593409D01*
X194879983Y-113593409D01*
X194820373Y-113587000D01*
X194820363Y-113587000D01*
X194199629Y-113587000D01*
X194199623Y-113587001D01*
X194140016Y-113593408D01*
X194005171Y-113643702D01*
X194005164Y-113643706D01*
X193889955Y-113729952D01*
X193889952Y-113729955D01*
X193803706Y-113845164D01*
X193803702Y-113845171D01*
X193753408Y-113980017D01*
X193747001Y-114039616D01*
X193747001Y-114039623D01*
X193747000Y-114039635D01*
X193747000Y-114098000D01*
X193727315Y-114165039D01*
X193674511Y-114210794D01*
X193623000Y-114222000D01*
X192805084Y-114222000D01*
X192738045Y-114202315D01*
X192692290Y-114149511D01*
X192683546Y-114117638D01*
X192683456Y-114117660D01*
X192682859Y-114115136D01*
X192681794Y-114111252D01*
X192681671Y-114110108D01*
X192655383Y-114039629D01*
X192632003Y-113976946D01*
X192546831Y-113863169D01*
X192470853Y-113806293D01*
X192433056Y-113777998D01*
X192433054Y-113777997D01*
X192299891Y-113728329D01*
X192299889Y-113728328D01*
X192299887Y-113728328D01*
X192241029Y-113722000D01*
X191658982Y-113722000D01*
X191658973Y-113722001D01*
X191600108Y-113728328D01*
X191466945Y-113777997D01*
X191353169Y-113863169D01*
X191267998Y-113976943D01*
X191244622Y-114039616D01*
X191222846Y-114098000D01*
X191218328Y-114110112D01*
X191212000Y-114168962D01*
X190812997Y-114168962D01*
X190806671Y-114110109D01*
X190803648Y-114102005D01*
X190780383Y-114039629D01*
X190757003Y-113976946D01*
X190671831Y-113863169D01*
X190595853Y-113806293D01*
X190558056Y-113777998D01*
X190558054Y-113777997D01*
X190424891Y-113728329D01*
X190424889Y-113728328D01*
X190424887Y-113728328D01*
X190366029Y-113722000D01*
X189783982Y-113722000D01*
X189783973Y-113722001D01*
X189725108Y-113728328D01*
X189591945Y-113777997D01*
X189478169Y-113863169D01*
X189392998Y-113976943D01*
X189369622Y-114039616D01*
X189347846Y-114098000D01*
X189343328Y-114110112D01*
X189337000Y-114168962D01*
X188250500Y-114168962D01*
X188250500Y-111018570D01*
X188270185Y-110951531D01*
X188322989Y-110905776D01*
X188392147Y-110895832D01*
X188455703Y-110924857D01*
X188462181Y-110930889D01*
X188538425Y-111007133D01*
X188538430Y-111007137D01*
X188652120Y-111089737D01*
X188702441Y-111126297D01*
X188811831Y-111182034D01*
X188883079Y-111218337D01*
X188883082Y-111218338D01*
X188914100Y-111228416D01*
X189075893Y-111280985D01*
X189276132Y-111312700D01*
X189276133Y-111312700D01*
X189478867Y-111312700D01*
X189478868Y-111312700D01*
X189679107Y-111280985D01*
X189871920Y-111218337D01*
X190052559Y-111126297D01*
X190216576Y-111007132D01*
X190359932Y-110863776D01*
X190479097Y-110699759D01*
X190571137Y-110519120D01*
X190633785Y-110326307D01*
X190665500Y-110126068D01*
X190665500Y-109923332D01*
X190633785Y-109723093D01*
X190597235Y-109610602D01*
X190571138Y-109530282D01*
X190571137Y-109530279D01*
X190521292Y-109432454D01*
X190479097Y-109349641D01*
X190421571Y-109270463D01*
X190359937Y-109185630D01*
X190359933Y-109185625D01*
X190216574Y-109042266D01*
X190216569Y-109042262D01*
X190052562Y-108923105D01*
X190052561Y-108923104D01*
X190052559Y-108923103D01*
X189958342Y-108875097D01*
X189871920Y-108831062D01*
X189871917Y-108831061D01*
X189679108Y-108768415D01*
X189578987Y-108752557D01*
X189478868Y-108736700D01*
X189276132Y-108736700D01*
X189209385Y-108747271D01*
X189075891Y-108768415D01*
X188883082Y-108831061D01*
X188883079Y-108831062D01*
X188702437Y-108923105D01*
X188538430Y-109042262D01*
X188538425Y-109042266D01*
X188462181Y-109118511D01*
X188400858Y-109151996D01*
X188331166Y-109147012D01*
X188275233Y-109105140D01*
X188250816Y-109039676D01*
X188250500Y-109030830D01*
X188250500Y-108520000D01*
X190742138Y-108520000D01*
X191601814Y-108520000D01*
X191597420Y-108524394D01*
X191544759Y-108615606D01*
X191517500Y-108717339D01*
X191517500Y-108822661D01*
X191544759Y-108924394D01*
X191597420Y-109015606D01*
X191601814Y-109020000D01*
X190742138Y-109020000D01*
X190747048Y-109051002D01*
X190805414Y-109230637D01*
X190891170Y-109398940D01*
X191002185Y-109551741D01*
X191002189Y-109551746D01*
X191135753Y-109685310D01*
X191135758Y-109685314D01*
X191288559Y-109796329D01*
X191456862Y-109882085D01*
X191636497Y-109940451D01*
X191667500Y-109945362D01*
X191667500Y-109085686D01*
X191671894Y-109090080D01*
X191763106Y-109142741D01*
X191864839Y-109170000D01*
X191970161Y-109170000D01*
X192071894Y-109142741D01*
X192163106Y-109090080D01*
X192167500Y-109085686D01*
X192167500Y-109945361D01*
X192198502Y-109940451D01*
X192378137Y-109882085D01*
X192546440Y-109796329D01*
X192699241Y-109685314D01*
X192699246Y-109685310D01*
X192832810Y-109551746D01*
X192832814Y-109551741D01*
X192943829Y-109398940D01*
X193029585Y-109230637D01*
X193087951Y-109051002D01*
X193092862Y-109020000D01*
X192233186Y-109020000D01*
X192237580Y-109015606D01*
X192290241Y-108924394D01*
X192317500Y-108822661D01*
X192317500Y-108717339D01*
X192290241Y-108615606D01*
X192237580Y-108524394D01*
X192233186Y-108520000D01*
X193092862Y-108520000D01*
X193087951Y-108488997D01*
X193029585Y-108309362D01*
X192943829Y-108141059D01*
X192832814Y-107988258D01*
X192832810Y-107988253D01*
X192699246Y-107854689D01*
X192699241Y-107854685D01*
X192546440Y-107743670D01*
X192378135Y-107657913D01*
X192198504Y-107599549D01*
X192198495Y-107599547D01*
X192167500Y-107594637D01*
X192167500Y-108454314D01*
X192163106Y-108449920D01*
X192071894Y-108397259D01*
X191970161Y-108370000D01*
X191864839Y-108370000D01*
X191763106Y-108397259D01*
X191671894Y-108449920D01*
X191667500Y-108454314D01*
X191667500Y-107594637D01*
X191667499Y-107594637D01*
X191636504Y-107599547D01*
X191636495Y-107599549D01*
X191456864Y-107657913D01*
X191288559Y-107743670D01*
X191135758Y-107854685D01*
X191135753Y-107854689D01*
X191002189Y-107988253D01*
X191002185Y-107988258D01*
X190891170Y-108141059D01*
X190805414Y-108309362D01*
X190747048Y-108488997D01*
X190742138Y-108520000D01*
X188250500Y-108520000D01*
X188250500Y-107348151D01*
X194909500Y-107348151D01*
X194909500Y-107621848D01*
X194909501Y-107621865D01*
X194943429Y-107879578D01*
X194945226Y-107893223D01*
X195001846Y-108104529D01*
X195016068Y-108157606D01*
X195120809Y-108410473D01*
X195120813Y-108410483D01*
X195257665Y-108647519D01*
X195424288Y-108864666D01*
X195424294Y-108864673D01*
X195617826Y-109058205D01*
X195617833Y-109058211D01*
X195834980Y-109224834D01*
X196072016Y-109361686D01*
X196072017Y-109361686D01*
X196072020Y-109361688D01*
X196324894Y-109466432D01*
X196589277Y-109537274D01*
X196860645Y-109573000D01*
X196860652Y-109573000D01*
X197134348Y-109573000D01*
X197134355Y-109573000D01*
X197405723Y-109537274D01*
X197670106Y-109466432D01*
X197922980Y-109361688D01*
X198160020Y-109224834D01*
X198377168Y-109058210D01*
X198570710Y-108864668D01*
X198737334Y-108647520D01*
X198874188Y-108410480D01*
X198978932Y-108157606D01*
X199049774Y-107893223D01*
X199085500Y-107621855D01*
X199085500Y-107348145D01*
X199049774Y-107076777D01*
X198978932Y-106812394D01*
X198874188Y-106559520D01*
X198873414Y-106558180D01*
X198737334Y-106322480D01*
X198570711Y-106105333D01*
X198570705Y-106105326D01*
X198377173Y-105911794D01*
X198377166Y-105911788D01*
X198160019Y-105745165D01*
X197922983Y-105608313D01*
X197922973Y-105608309D01*
X197670106Y-105503568D01*
X197405723Y-105432726D01*
X197405722Y-105432725D01*
X197405719Y-105432725D01*
X197134365Y-105397001D01*
X197134360Y-105397000D01*
X197134355Y-105397000D01*
X196860645Y-105397000D01*
X196860639Y-105397000D01*
X196860634Y-105397001D01*
X196589280Y-105432725D01*
X196324893Y-105503568D01*
X196072026Y-105608309D01*
X196072016Y-105608313D01*
X195834980Y-105745165D01*
X195617833Y-105911788D01*
X195617826Y-105911794D01*
X195424294Y-106105326D01*
X195424288Y-106105333D01*
X195257665Y-106322480D01*
X195120813Y-106559516D01*
X195120809Y-106559526D01*
X195016068Y-106812393D01*
X194945225Y-107076780D01*
X194909501Y-107348134D01*
X194909500Y-107348151D01*
X188250500Y-107348151D01*
X188250500Y-105938870D01*
X188270185Y-105871831D01*
X188322989Y-105826076D01*
X188392147Y-105816132D01*
X188455703Y-105845157D01*
X188462181Y-105851189D01*
X188538425Y-105927433D01*
X188538430Y-105927437D01*
X188647172Y-106006442D01*
X188702441Y-106046597D01*
X188817703Y-106105326D01*
X188883079Y-106138637D01*
X188883082Y-106138638D01*
X188979486Y-106169961D01*
X189075893Y-106201285D01*
X189276132Y-106233000D01*
X189276133Y-106233000D01*
X189478867Y-106233000D01*
X189478868Y-106233000D01*
X189679107Y-106201285D01*
X189871920Y-106138637D01*
X189876352Y-106136379D01*
X190967000Y-106136379D01*
X190967000Y-106323620D01*
X191003525Y-106507243D01*
X191003527Y-106507251D01*
X191075176Y-106680228D01*
X191075181Y-106680237D01*
X191179197Y-106835907D01*
X191179200Y-106835911D01*
X191311588Y-106968299D01*
X191311592Y-106968302D01*
X191467262Y-107072318D01*
X191467271Y-107072323D01*
X191505382Y-107088109D01*
X191640249Y-107143973D01*
X191823879Y-107180499D01*
X191823883Y-107180500D01*
X191823884Y-107180500D01*
X192011117Y-107180500D01*
X192011118Y-107180499D01*
X192194751Y-107143973D01*
X192367731Y-107072322D01*
X192523408Y-106968302D01*
X192655802Y-106835908D01*
X192759822Y-106680231D01*
X192831473Y-106507251D01*
X192868000Y-106323616D01*
X192868000Y-106136384D01*
X192831473Y-105952749D01*
X192764078Y-105790043D01*
X192759823Y-105779771D01*
X192759818Y-105779762D01*
X192655802Y-105624092D01*
X192655799Y-105624088D01*
X192523411Y-105491700D01*
X192523407Y-105491697D01*
X192423109Y-105424679D01*
X192418018Y-105418588D01*
X192410797Y-105415290D01*
X192395931Y-105392159D01*
X192378304Y-105371066D01*
X192376352Y-105361692D01*
X192373023Y-105356512D01*
X192368000Y-105321577D01*
X192368000Y-105157964D01*
X192387685Y-105090925D01*
X192404314Y-105070288D01*
X194987785Y-102486816D01*
X195049106Y-102453333D01*
X195075455Y-102450499D01*
X195647872Y-102450499D01*
X195707483Y-102444091D01*
X195842331Y-102393796D01*
X195957546Y-102307546D01*
X196043796Y-102192331D01*
X196094091Y-102057483D01*
X196100500Y-101997873D01*
X196100499Y-101374462D01*
X196106737Y-101353217D01*
X196108317Y-101331130D01*
X196116388Y-101320347D01*
X196120183Y-101307425D01*
X196136919Y-101292923D01*
X196150189Y-101275197D01*
X196162807Y-101270490D01*
X196172987Y-101261670D01*
X196194905Y-101258518D01*
X196215653Y-101250780D01*
X196228813Y-101253642D01*
X196242146Y-101251726D01*
X196262289Y-101260925D01*
X196283926Y-101265632D01*
X196301651Y-101278900D01*
X196305702Y-101280751D01*
X196312180Y-101286783D01*
X196363181Y-101337784D01*
X196396666Y-101399107D01*
X196399500Y-101425465D01*
X196399500Y-101997870D01*
X196399501Y-101997876D01*
X196405908Y-102057483D01*
X196456202Y-102192328D01*
X196456206Y-102192335D01*
X196542452Y-102307544D01*
X196542455Y-102307547D01*
X196657664Y-102393793D01*
X196657671Y-102393797D01*
X196702618Y-102410561D01*
X196792517Y-102444091D01*
X196852127Y-102450500D01*
X197472872Y-102450499D01*
X197532483Y-102444091D01*
X197667331Y-102393796D01*
X197782546Y-102307546D01*
X197868796Y-102192331D01*
X197919091Y-102057483D01*
X197925500Y-101997873D01*
X197925499Y-101002128D01*
X197919649Y-100947709D01*
X197919091Y-100942516D01*
X197868797Y-100807671D01*
X197868793Y-100807664D01*
X197782547Y-100692455D01*
X197782544Y-100692452D01*
X197667335Y-100606206D01*
X197667328Y-100606202D01*
X197532486Y-100555910D01*
X197532485Y-100555909D01*
X197532483Y-100555909D01*
X197472873Y-100549500D01*
X197472864Y-100549500D01*
X196900465Y-100549500D01*
X196871024Y-100540855D01*
X196841038Y-100534332D01*
X196836022Y-100530577D01*
X196833426Y-100529815D01*
X196812784Y-100513181D01*
X196799319Y-100499716D01*
X196765834Y-100438393D01*
X196763000Y-100412035D01*
X196763000Y-98674499D01*
X196782685Y-98607460D01*
X196835489Y-98561705D01*
X196887000Y-98550499D01*
X196931517Y-98550499D01*
X196931518Y-98550499D01*
X197025304Y-98535646D01*
X197039273Y-98528528D01*
X197107938Y-98515632D01*
X197172679Y-98541907D01*
X197212937Y-98599012D01*
X197215768Y-98665039D01*
X197215880Y-98665057D01*
X197215793Y-98665605D01*
X197215931Y-98668818D01*
X197214481Y-98673888D01*
X197199500Y-98768475D01*
X197199500Y-99131517D01*
X197208537Y-99188574D01*
X197214354Y-99225304D01*
X197271950Y-99338342D01*
X197271952Y-99338344D01*
X197271954Y-99338347D01*
X197361652Y-99428045D01*
X197361654Y-99428046D01*
X197361658Y-99428050D01*
X197456495Y-99476372D01*
X197474698Y-99485647D01*
X197568475Y-99500499D01*
X197568481Y-99500500D01*
X198806518Y-99500499D01*
X198900304Y-99485646D01*
X199013342Y-99428050D01*
X199013347Y-99428045D01*
X199018671Y-99424179D01*
X199084478Y-99400702D01*
X199091552Y-99400500D01*
X199849535Y-99400500D01*
X199916574Y-99420185D01*
X199937216Y-99436819D01*
X202613181Y-102112784D01*
X202646666Y-102174107D01*
X202649500Y-102200465D01*
X202649500Y-103445760D01*
X202659426Y-103513891D01*
X202710803Y-103618985D01*
X202793514Y-103701696D01*
X202793515Y-103701696D01*
X202793517Y-103701698D01*
X202898607Y-103753073D01*
X202932673Y-103758036D01*
X202966739Y-103763000D01*
X202966740Y-103763000D01*
X203233261Y-103763000D01*
X203255971Y-103759691D01*
X203301393Y-103753073D01*
X203370541Y-103719268D01*
X203439413Y-103707510D01*
X203479458Y-103719268D01*
X203548607Y-103753073D01*
X203582673Y-103758036D01*
X203616739Y-103763000D01*
X203616740Y-103763000D01*
X203883261Y-103763000D01*
X203905971Y-103759691D01*
X203951393Y-103753073D01*
X204020541Y-103719268D01*
X204089413Y-103707510D01*
X204129458Y-103719268D01*
X204198607Y-103753073D01*
X204232673Y-103758036D01*
X204266739Y-103763000D01*
X204266740Y-103763000D01*
X204533261Y-103763000D01*
X204555971Y-103759691D01*
X204601393Y-103753073D01*
X204670541Y-103719268D01*
X204739413Y-103707510D01*
X204779458Y-103719268D01*
X204848607Y-103753073D01*
X204882673Y-103758036D01*
X204916739Y-103763000D01*
X204916740Y-103763000D01*
X205183261Y-103763000D01*
X205205971Y-103759691D01*
X205251393Y-103753073D01*
X205320541Y-103719268D01*
X205389413Y-103707510D01*
X205429458Y-103719268D01*
X205498607Y-103753073D01*
X205532673Y-103758036D01*
X205566739Y-103763000D01*
X205566740Y-103763000D01*
X205833261Y-103763000D01*
X205855971Y-103759691D01*
X205901393Y-103753073D01*
X205970541Y-103719268D01*
X206039413Y-103707510D01*
X206079458Y-103719268D01*
X206148607Y-103753073D01*
X206182673Y-103758036D01*
X206216739Y-103763000D01*
X206216740Y-103763000D01*
X206483261Y-103763000D01*
X206505971Y-103759691D01*
X206551393Y-103753073D01*
X206620541Y-103719268D01*
X206689413Y-103707510D01*
X206729458Y-103719268D01*
X206798607Y-103753073D01*
X206832673Y-103758036D01*
X206866739Y-103763000D01*
X206866740Y-103763000D01*
X207133261Y-103763000D01*
X207155971Y-103759691D01*
X207201393Y-103753073D01*
X207270541Y-103719268D01*
X207339413Y-103707510D01*
X207379458Y-103719268D01*
X207448607Y-103753073D01*
X207482673Y-103758036D01*
X207516739Y-103763000D01*
X207516740Y-103763000D01*
X207783261Y-103763000D01*
X207805971Y-103759691D01*
X207851393Y-103753073D01*
X207920541Y-103719268D01*
X207989413Y-103707510D01*
X208029458Y-103719268D01*
X208098607Y-103753073D01*
X208132673Y-103758036D01*
X208166739Y-103763000D01*
X208166740Y-103763000D01*
X208433261Y-103763000D01*
X208455971Y-103759691D01*
X208501393Y-103753073D01*
X208570541Y-103719268D01*
X208639413Y-103707510D01*
X208679458Y-103719268D01*
X208748607Y-103753073D01*
X208782673Y-103758036D01*
X208816739Y-103763000D01*
X208816740Y-103763000D01*
X209083261Y-103763000D01*
X209105971Y-103759691D01*
X209151393Y-103753073D01*
X209256483Y-103701698D01*
X209339198Y-103618983D01*
X209390573Y-103513893D01*
X209400500Y-103445760D01*
X209400500Y-102104240D01*
X209400500Y-101037965D01*
X209420185Y-100970926D01*
X209436819Y-100950284D01*
X216150285Y-94236819D01*
X216211608Y-94203334D01*
X216237966Y-94200500D01*
X257599308Y-94200500D01*
X257599309Y-94200500D01*
X257689673Y-94176286D01*
X257713887Y-94169799D01*
X257816614Y-94110489D01*
X258665285Y-93261816D01*
X258726606Y-93228333D01*
X258752954Y-93225499D01*
X259337872Y-93225499D01*
X259397483Y-93219091D01*
X259532331Y-93168796D01*
X259647546Y-93082546D01*
X259733796Y-92967331D01*
X259784091Y-92832483D01*
X259790500Y-92772873D01*
X259790499Y-91727135D01*
X260189500Y-91727135D01*
X260189500Y-92772870D01*
X260189501Y-92772876D01*
X260195908Y-92832483D01*
X260246202Y-92967328D01*
X260246206Y-92967335D01*
X260332452Y-93082544D01*
X260332455Y-93082547D01*
X260447664Y-93168793D01*
X260447671Y-93168797D01*
X260492618Y-93185561D01*
X260582517Y-93219091D01*
X260642127Y-93225500D01*
X261237872Y-93225499D01*
X261297483Y-93219091D01*
X261432331Y-93168796D01*
X261547546Y-93082546D01*
X261633796Y-92967331D01*
X261684091Y-92832483D01*
X261690500Y-92772873D01*
X261690499Y-91727128D01*
X261684091Y-91667517D01*
X261674944Y-91642993D01*
X261633797Y-91532671D01*
X261633793Y-91532664D01*
X261547547Y-91417455D01*
X261440188Y-91337085D01*
X261398318Y-91281151D01*
X261390500Y-91237819D01*
X261390500Y-90640578D01*
X261410185Y-90573539D01*
X261416127Y-90565088D01*
X261416753Y-90564270D01*
X261416759Y-90564265D01*
X261489234Y-90438735D01*
X261512979Y-90350114D01*
X261520995Y-90336230D01*
X261523921Y-90322782D01*
X261545066Y-90294535D01*
X261627786Y-90211815D01*
X261689108Y-90178333D01*
X261715465Y-90175499D01*
X262287871Y-90175499D01*
X262287872Y-90175499D01*
X262347483Y-90169091D01*
X262482331Y-90118796D01*
X262597546Y-90032546D01*
X262683796Y-89917331D01*
X262734091Y-89782483D01*
X262740500Y-89722873D01*
X262740499Y-89102128D01*
X262734609Y-89047335D01*
X262734091Y-89042516D01*
X262683797Y-88907671D01*
X262683793Y-88907664D01*
X262597547Y-88792455D01*
X262597544Y-88792452D01*
X262482335Y-88706206D01*
X262482328Y-88706202D01*
X262347482Y-88655908D01*
X262347483Y-88655908D01*
X262287883Y-88649501D01*
X262287881Y-88649500D01*
X262287873Y-88649500D01*
X262287864Y-88649500D01*
X261292129Y-88649500D01*
X261292123Y-88649501D01*
X261232516Y-88655908D01*
X261097671Y-88706202D01*
X261097664Y-88706206D01*
X260982455Y-88792452D01*
X260982452Y-88792455D01*
X260896206Y-88907664D01*
X260896202Y-88907671D01*
X260845908Y-89042517D01*
X260841605Y-89082544D01*
X260839501Y-89102123D01*
X260839500Y-89102135D01*
X260839500Y-89599041D01*
X260819815Y-89666080D01*
X260770551Y-89708766D01*
X260770803Y-89709202D01*
X260768545Y-89710505D01*
X260767011Y-89711835D01*
X260763884Y-89713196D01*
X260638238Y-89785738D01*
X260638232Y-89785743D01*
X260535743Y-89888232D01*
X260535738Y-89888238D01*
X260463267Y-90013761D01*
X260463266Y-90013765D01*
X260425750Y-90153775D01*
X260425750Y-90298725D01*
X260461941Y-90433789D01*
X260463267Y-90438737D01*
X260472886Y-90455397D01*
X260489500Y-90517399D01*
X260489500Y-91237819D01*
X260469815Y-91304858D01*
X260439812Y-91337085D01*
X260332452Y-91417455D01*
X260246206Y-91532664D01*
X260246202Y-91532671D01*
X260195908Y-91667517D01*
X260189501Y-91727116D01*
X260189501Y-91727123D01*
X260189500Y-91727135D01*
X259790499Y-91727135D01*
X259790499Y-91727128D01*
X259784091Y-91667517D01*
X259774944Y-91642993D01*
X259733797Y-91532671D01*
X259733793Y-91532664D01*
X259647547Y-91417455D01*
X259647544Y-91417452D01*
X259532335Y-91331206D01*
X259532328Y-91331202D01*
X259397486Y-91280910D01*
X259397485Y-91280909D01*
X259397483Y-91280909D01*
X259337873Y-91274500D01*
X259337864Y-91274500D01*
X258864500Y-91274500D01*
X258797461Y-91254815D01*
X258751706Y-91202011D01*
X258740500Y-91150500D01*
X258740500Y-90291976D01*
X258760185Y-90224937D01*
X258812989Y-90179182D01*
X258840135Y-90171736D01*
X258839932Y-90170876D01*
X258847479Y-90169092D01*
X258847481Y-90169091D01*
X258847483Y-90169091D01*
X258982331Y-90118796D01*
X259097546Y-90032546D01*
X259183796Y-89917331D01*
X259234091Y-89782483D01*
X259240500Y-89722873D01*
X259240499Y-89102128D01*
X259234609Y-89047335D01*
X259234091Y-89042516D01*
X259183797Y-88907671D01*
X259183793Y-88907664D01*
X259097547Y-88792455D01*
X259097544Y-88792452D01*
X258982335Y-88706206D01*
X258982328Y-88706202D01*
X258847482Y-88655908D01*
X258847483Y-88655908D01*
X258787883Y-88649501D01*
X258787881Y-88649500D01*
X258787873Y-88649500D01*
X258787864Y-88649500D01*
X257792129Y-88649500D01*
X257792123Y-88649501D01*
X257732516Y-88655908D01*
X257597671Y-88706202D01*
X257597664Y-88706206D01*
X257482455Y-88792452D01*
X257482452Y-88792455D01*
X257396206Y-88907664D01*
X257396202Y-88907671D01*
X257345910Y-89042513D01*
X257345909Y-89042517D01*
X257339500Y-89102127D01*
X257339500Y-89102134D01*
X257339500Y-89102135D01*
X257339500Y-89722870D01*
X257339501Y-89722876D01*
X257345908Y-89782483D01*
X257396202Y-89917328D01*
X257396206Y-89917335D01*
X257482452Y-90032544D01*
X257482455Y-90032547D01*
X257597664Y-90118793D01*
X257597671Y-90118797D01*
X257732517Y-90169091D01*
X257740062Y-90170874D01*
X257739523Y-90173151D01*
X257793287Y-90195408D01*
X257833147Y-90252793D01*
X257839500Y-90291975D01*
X257839500Y-91559309D01*
X257856421Y-91622459D01*
X257856804Y-91623887D01*
X257856804Y-91623889D01*
X257870199Y-91673884D01*
X257876960Y-91685594D01*
X257929511Y-91776614D01*
X257929513Y-91776616D01*
X258253181Y-92100284D01*
X258267884Y-92127211D01*
X258284477Y-92153030D01*
X258285368Y-92159230D01*
X258286666Y-92161607D01*
X258289500Y-92187965D01*
X258289500Y-92312034D01*
X258269815Y-92379073D01*
X258253181Y-92399715D01*
X257389716Y-93263181D01*
X257328393Y-93296666D01*
X257302035Y-93299500D01*
X253429954Y-93299500D01*
X253362915Y-93279815D01*
X253317160Y-93227011D01*
X253307216Y-93157853D01*
X253336241Y-93094297D01*
X253342273Y-93087819D01*
X253347542Y-93082548D01*
X253347546Y-93082546D01*
X253433796Y-92967331D01*
X253484091Y-92832483D01*
X253490500Y-92772873D01*
X253490499Y-91727128D01*
X253484091Y-91667517D01*
X253474944Y-91642993D01*
X253433797Y-91532671D01*
X253433793Y-91532664D01*
X253347547Y-91417455D01*
X253240188Y-91337085D01*
X253198318Y-91281151D01*
X253190500Y-91237819D01*
X253190500Y-90603935D01*
X253207112Y-90541936D01*
X253252984Y-90462485D01*
X253290455Y-90322639D01*
X253298471Y-90308755D01*
X253301397Y-90295309D01*
X253322548Y-90267055D01*
X253377785Y-90211818D01*
X253439108Y-90178333D01*
X253465466Y-90175499D01*
X254037871Y-90175499D01*
X254037872Y-90175499D01*
X254097483Y-90169091D01*
X254232331Y-90118796D01*
X254347546Y-90032546D01*
X254433796Y-89917331D01*
X254484091Y-89782483D01*
X254490500Y-89722873D01*
X254490499Y-89102128D01*
X254484609Y-89047335D01*
X254484091Y-89042516D01*
X254433797Y-88907671D01*
X254433793Y-88907664D01*
X254347547Y-88792455D01*
X254347544Y-88792452D01*
X254232335Y-88706206D01*
X254232328Y-88706202D01*
X254097482Y-88655908D01*
X254097483Y-88655908D01*
X254037883Y-88649501D01*
X254037881Y-88649500D01*
X254037873Y-88649500D01*
X254037864Y-88649500D01*
X253042129Y-88649500D01*
X253042123Y-88649501D01*
X252982516Y-88655908D01*
X252847671Y-88706202D01*
X252847664Y-88706206D01*
X252732455Y-88792452D01*
X252732452Y-88792455D01*
X252646206Y-88907664D01*
X252646202Y-88907671D01*
X252595908Y-89042517D01*
X252591605Y-89082544D01*
X252589501Y-89102123D01*
X252589500Y-89102135D01*
X252589500Y-89629637D01*
X252569815Y-89696676D01*
X252527501Y-89737024D01*
X252401985Y-89809491D01*
X252401982Y-89809493D01*
X252299493Y-89911982D01*
X252299488Y-89911988D01*
X252227017Y-90037511D01*
X252224564Y-90046666D01*
X252189500Y-90177525D01*
X252189500Y-90322475D01*
X252227016Y-90462485D01*
X252272887Y-90541936D01*
X252289500Y-90603935D01*
X252289500Y-91237819D01*
X252269815Y-91304858D01*
X252239812Y-91337085D01*
X252132452Y-91417455D01*
X252046206Y-91532664D01*
X252046202Y-91532671D01*
X251995908Y-91667517D01*
X251989501Y-91727116D01*
X251989501Y-91727123D01*
X251989500Y-91727135D01*
X251989500Y-92772870D01*
X251989501Y-92772876D01*
X251995908Y-92832483D01*
X252046202Y-92967328D01*
X252046206Y-92967335D01*
X252132452Y-93082544D01*
X252137727Y-93087819D01*
X252171212Y-93149142D01*
X252166228Y-93218834D01*
X252124356Y-93274767D01*
X252058892Y-93299184D01*
X252050046Y-93299500D01*
X251529954Y-93299500D01*
X251462915Y-93279815D01*
X251417160Y-93227011D01*
X251407216Y-93157853D01*
X251436241Y-93094297D01*
X251442273Y-93087819D01*
X251447542Y-93082548D01*
X251447546Y-93082546D01*
X251533796Y-92967331D01*
X251584091Y-92832483D01*
X251590500Y-92772873D01*
X251590499Y-91727128D01*
X251584091Y-91667517D01*
X251574944Y-91642993D01*
X251533797Y-91532671D01*
X251533793Y-91532664D01*
X251447547Y-91417455D01*
X251340188Y-91337085D01*
X251298318Y-91281151D01*
X251290500Y-91237819D01*
X251290500Y-90153193D01*
X251290500Y-90153191D01*
X251259799Y-90038614D01*
X251259799Y-90038613D01*
X251259799Y-90038612D01*
X251200492Y-89935889D01*
X251200488Y-89935884D01*
X251026818Y-89762214D01*
X250993333Y-89700891D01*
X250990499Y-89674541D01*
X250990499Y-89102128D01*
X250984609Y-89047335D01*
X250984091Y-89042516D01*
X250933797Y-88907671D01*
X250933793Y-88907664D01*
X250847547Y-88792455D01*
X250847544Y-88792452D01*
X250732335Y-88706206D01*
X250732328Y-88706202D01*
X250597482Y-88655908D01*
X250597483Y-88655908D01*
X250537883Y-88649501D01*
X250537881Y-88649500D01*
X250537873Y-88649500D01*
X250537864Y-88649500D01*
X249542129Y-88649500D01*
X249542123Y-88649501D01*
X249482516Y-88655908D01*
X249347671Y-88706202D01*
X249347664Y-88706206D01*
X249232455Y-88792452D01*
X249232452Y-88792455D01*
X249146206Y-88907664D01*
X249146202Y-88907671D01*
X249095910Y-89042513D01*
X249095909Y-89042517D01*
X249089500Y-89102127D01*
X249089500Y-89102134D01*
X249089500Y-89102135D01*
X249089500Y-89722870D01*
X249089501Y-89722876D01*
X249095908Y-89782483D01*
X249146202Y-89917328D01*
X249146206Y-89917335D01*
X249232452Y-90032544D01*
X249232455Y-90032547D01*
X249347664Y-90118793D01*
X249347671Y-90118797D01*
X249389701Y-90134473D01*
X249482517Y-90169091D01*
X249542127Y-90175500D01*
X250114533Y-90175499D01*
X250143979Y-90184145D01*
X250173960Y-90190667D01*
X250178973Y-90194420D01*
X250181572Y-90195183D01*
X250202209Y-90211813D01*
X250353182Y-90362785D01*
X250386666Y-90424107D01*
X250389500Y-90450465D01*
X250389500Y-91237819D01*
X250369815Y-91304858D01*
X250339812Y-91337085D01*
X250232452Y-91417455D01*
X250146206Y-91532664D01*
X250146202Y-91532671D01*
X250095908Y-91667517D01*
X250089501Y-91727116D01*
X250089501Y-91727123D01*
X250089500Y-91727135D01*
X250089500Y-91925500D01*
X250069815Y-91992539D01*
X250017011Y-92038294D01*
X249965500Y-92049500D01*
X240306965Y-92049500D01*
X240239926Y-92029815D01*
X240194171Y-91977011D01*
X240184227Y-91907853D01*
X240213252Y-91844297D01*
X240219284Y-91837819D01*
X240842697Y-91214406D01*
X242715285Y-89341816D01*
X242776606Y-89308333D01*
X242802954Y-89305499D01*
X243387872Y-89305499D01*
X243447483Y-89299091D01*
X243582331Y-89248796D01*
X243697546Y-89162546D01*
X243783796Y-89047331D01*
X243834091Y-88912483D01*
X243840500Y-88852873D01*
X243840499Y-87807128D01*
X243834091Y-87747517D01*
X243826486Y-87727128D01*
X243783797Y-87612671D01*
X243783793Y-87612664D01*
X243697547Y-87497455D01*
X243590188Y-87417085D01*
X243548318Y-87361151D01*
X243540500Y-87317819D01*
X243540500Y-82570693D01*
X243540500Y-82570691D01*
X243509799Y-82456114D01*
X243509799Y-82456113D01*
X243450490Y-82353386D01*
X243421811Y-82324707D01*
X243414278Y-82312591D01*
X243408597Y-82292119D01*
X243398417Y-82273475D01*
X243397842Y-82253357D01*
X243395597Y-82245265D01*
X243397441Y-82239314D01*
X243397110Y-82227723D01*
X243410500Y-82143185D01*
X243410500Y-81516815D01*
X243410500Y-81516809D01*
X243709500Y-81516809D01*
X243709500Y-82143190D01*
X243737089Y-82317384D01*
X243791593Y-82485127D01*
X243855351Y-82610258D01*
X243871662Y-82642270D01*
X243975330Y-82784957D01*
X244100043Y-82909670D01*
X244242730Y-83013338D01*
X244399877Y-83093408D01*
X244453819Y-83110935D01*
X244511493Y-83150370D01*
X244538692Y-83214728D01*
X244539500Y-83228865D01*
X244539500Y-87317819D01*
X244519815Y-87384858D01*
X244489812Y-87417085D01*
X244382452Y-87497455D01*
X244296206Y-87612664D01*
X244296202Y-87612671D01*
X244245908Y-87747517D01*
X244239501Y-87807116D01*
X244239501Y-87807123D01*
X244239500Y-87807135D01*
X244239500Y-88852870D01*
X244239501Y-88852876D01*
X244245908Y-88912483D01*
X244296202Y-89047328D01*
X244296206Y-89047335D01*
X244382452Y-89162544D01*
X244382455Y-89162547D01*
X244497664Y-89248793D01*
X244497671Y-89248797D01*
X244532583Y-89261818D01*
X244632517Y-89299091D01*
X244692127Y-89305500D01*
X245287872Y-89305499D01*
X245347483Y-89299091D01*
X245482331Y-89248796D01*
X245597546Y-89162546D01*
X245683796Y-89047331D01*
X245734091Y-88912483D01*
X245740500Y-88852873D01*
X245740499Y-87807128D01*
X245734091Y-87747517D01*
X245726486Y-87727128D01*
X245683797Y-87612671D01*
X245683793Y-87612664D01*
X245597547Y-87497455D01*
X245490188Y-87417085D01*
X245487451Y-87413429D01*
X245483297Y-87411532D01*
X245466705Y-87385714D01*
X245448318Y-87361151D01*
X245447302Y-87355523D01*
X245445523Y-87352754D01*
X245440500Y-87317819D01*
X245440500Y-87277127D01*
X249089500Y-87277127D01*
X249089500Y-87277134D01*
X249089500Y-87277135D01*
X249089500Y-87897870D01*
X249089501Y-87897876D01*
X249095908Y-87957483D01*
X249146202Y-88092328D01*
X249146206Y-88092335D01*
X249232452Y-88207544D01*
X249232455Y-88207547D01*
X249347664Y-88293793D01*
X249347671Y-88293797D01*
X249482517Y-88344091D01*
X249482516Y-88344091D01*
X249489444Y-88344835D01*
X249542127Y-88350500D01*
X250537872Y-88350499D01*
X250597483Y-88344091D01*
X250732331Y-88293796D01*
X250847546Y-88207546D01*
X250877408Y-88167655D01*
X250937272Y-88087689D01*
X250993206Y-88045818D01*
X251036538Y-88038000D01*
X252543462Y-88038000D01*
X252610501Y-88057685D01*
X252642728Y-88087689D01*
X252732452Y-88207544D01*
X252732455Y-88207547D01*
X252847664Y-88293793D01*
X252847671Y-88293797D01*
X252982517Y-88344091D01*
X252982516Y-88344091D01*
X252989444Y-88344835D01*
X253042127Y-88350500D01*
X254037872Y-88350499D01*
X254097483Y-88344091D01*
X254232331Y-88293796D01*
X254347546Y-88207546D01*
X254433796Y-88092331D01*
X254484091Y-87957483D01*
X254490500Y-87897873D01*
X254490499Y-87277128D01*
X254490499Y-87277127D01*
X257339500Y-87277127D01*
X257339500Y-87277134D01*
X257339500Y-87277135D01*
X257339500Y-87897870D01*
X257339501Y-87897876D01*
X257345908Y-87957483D01*
X257396202Y-88092328D01*
X257396206Y-88092335D01*
X257482452Y-88207544D01*
X257482455Y-88207547D01*
X257597664Y-88293793D01*
X257597671Y-88293797D01*
X257732517Y-88344091D01*
X257732516Y-88344091D01*
X257739444Y-88344835D01*
X257792127Y-88350500D01*
X258787872Y-88350499D01*
X258847483Y-88344091D01*
X258982331Y-88293796D01*
X259097546Y-88207546D01*
X259127408Y-88167655D01*
X259187272Y-88087689D01*
X259243206Y-88045818D01*
X259286538Y-88038000D01*
X260793462Y-88038000D01*
X260860501Y-88057685D01*
X260892728Y-88087689D01*
X260982452Y-88207544D01*
X260982455Y-88207547D01*
X261097664Y-88293793D01*
X261097671Y-88293797D01*
X261232517Y-88344091D01*
X261232516Y-88344091D01*
X261239444Y-88344835D01*
X261292127Y-88350500D01*
X262287872Y-88350499D01*
X262347483Y-88344091D01*
X262482331Y-88293796D01*
X262597546Y-88207546D01*
X262683796Y-88092331D01*
X262734091Y-87957483D01*
X262740500Y-87897873D01*
X262740499Y-87277128D01*
X262734091Y-87217517D01*
X262719604Y-87178676D01*
X262683797Y-87082671D01*
X262683793Y-87082664D01*
X262597547Y-86967455D01*
X262597544Y-86967452D01*
X262482335Y-86881206D01*
X262482328Y-86881202D01*
X262347482Y-86830908D01*
X262347483Y-86830908D01*
X262287883Y-86824501D01*
X262287881Y-86824500D01*
X262287873Y-86824500D01*
X262287864Y-86824500D01*
X261292129Y-86824500D01*
X261292123Y-86824501D01*
X261232516Y-86830908D01*
X261097671Y-86881202D01*
X261097664Y-86881206D01*
X260982455Y-86967452D01*
X260982452Y-86967455D01*
X260892728Y-87087311D01*
X260836794Y-87129182D01*
X260793462Y-87137000D01*
X259286538Y-87137000D01*
X259219499Y-87117315D01*
X259187272Y-87087311D01*
X259097547Y-86967455D01*
X259097544Y-86967452D01*
X259013147Y-86904272D01*
X258971276Y-86848338D01*
X258966292Y-86778647D01*
X258999774Y-86717329D01*
X259150490Y-86566614D01*
X259209799Y-86463887D01*
X259233552Y-86375238D01*
X259240500Y-86349309D01*
X259240500Y-83219499D01*
X259260185Y-83152460D01*
X259312989Y-83106705D01*
X259364500Y-83095499D01*
X259457871Y-83095499D01*
X259457872Y-83095499D01*
X259517483Y-83089091D01*
X259652331Y-83038796D01*
X259767546Y-82952546D01*
X259853796Y-82837331D01*
X259904091Y-82702483D01*
X259904663Y-82697153D01*
X259931399Y-82632604D01*
X259988791Y-82592754D01*
X260058616Y-82590258D01*
X260118706Y-82625909D01*
X260138437Y-82654111D01*
X260158269Y-82693034D01*
X260285025Y-82867496D01*
X260285025Y-82867497D01*
X260437502Y-83019974D01*
X260611963Y-83146728D01*
X260804098Y-83244627D01*
X261009190Y-83311266D01*
X261080000Y-83322481D01*
X261080000Y-82292709D01*
X261100339Y-82304452D01*
X261251667Y-82345000D01*
X261408333Y-82345000D01*
X261559661Y-82304452D01*
X261580000Y-82292709D01*
X261580000Y-83322480D01*
X261650809Y-83311266D01*
X261855901Y-83244627D01*
X262048036Y-83146728D01*
X262222496Y-83019974D01*
X262222497Y-83019974D01*
X262374974Y-82867497D01*
X262374974Y-82867496D01*
X262501728Y-82693036D01*
X262599627Y-82500901D01*
X262666265Y-82295809D01*
X262700000Y-82082820D01*
X262700000Y-82000000D01*
X261872709Y-82000000D01*
X261884452Y-81979661D01*
X261925000Y-81828333D01*
X261925000Y-81671667D01*
X261884452Y-81520339D01*
X261872709Y-81500000D01*
X262700000Y-81500000D01*
X262700000Y-81417179D01*
X262666265Y-81204190D01*
X262599627Y-80999098D01*
X262501728Y-80806963D01*
X262374974Y-80632503D01*
X262374974Y-80632502D01*
X262222497Y-80480025D01*
X262048036Y-80353271D01*
X261855899Y-80255372D01*
X261650805Y-80188733D01*
X261580000Y-80177518D01*
X261580000Y-81207290D01*
X261559661Y-81195548D01*
X261408333Y-81155000D01*
X261251667Y-81155000D01*
X261100339Y-81195548D01*
X261080000Y-81207290D01*
X261080000Y-80177518D01*
X261079999Y-80177518D01*
X261009194Y-80188733D01*
X260804100Y-80255372D01*
X260611963Y-80353271D01*
X260437503Y-80480025D01*
X260437502Y-80480025D01*
X260285025Y-80632502D01*
X260285025Y-80632503D01*
X260158269Y-80806966D01*
X260138436Y-80845889D01*
X260090461Y-80896683D01*
X260022639Y-80913477D01*
X259956505Y-80890938D01*
X259913055Y-80836222D01*
X259904663Y-80802837D01*
X259904091Y-80797517D01*
X259853797Y-80662671D01*
X259853793Y-80662664D01*
X259767547Y-80547455D01*
X259767544Y-80547452D01*
X259652335Y-80461206D01*
X259652328Y-80461202D01*
X259517482Y-80410908D01*
X259517483Y-80410908D01*
X259457883Y-80404501D01*
X259457881Y-80404500D01*
X259457873Y-80404500D01*
X259457864Y-80404500D01*
X258122129Y-80404500D01*
X258122123Y-80404501D01*
X258062516Y-80410908D01*
X257927671Y-80461202D01*
X257927664Y-80461206D01*
X257812455Y-80547452D01*
X257812452Y-80547455D01*
X257726206Y-80662664D01*
X257726202Y-80662671D01*
X257675908Y-80797517D01*
X257669501Y-80857116D01*
X257669500Y-80857135D01*
X257669500Y-82642870D01*
X257669501Y-82642876D01*
X257675908Y-82702483D01*
X257726202Y-82837328D01*
X257726206Y-82837335D01*
X257812452Y-82952544D01*
X257812455Y-82952547D01*
X257927664Y-83038793D01*
X257927671Y-83038797D01*
X257929835Y-83039604D01*
X258062517Y-83089091D01*
X258122127Y-83095500D01*
X258215500Y-83095499D01*
X258282538Y-83115183D01*
X258328294Y-83167986D01*
X258339500Y-83219499D01*
X258339500Y-86052034D01*
X258319815Y-86119073D01*
X258303181Y-86139715D01*
X257929513Y-86513383D01*
X257929509Y-86513389D01*
X257870201Y-86616112D01*
X257870200Y-86616117D01*
X257837397Y-86738541D01*
X257834315Y-86737715D01*
X257812105Y-86787907D01*
X257753776Y-86826371D01*
X257738189Y-86829567D01*
X257732520Y-86830907D01*
X257597671Y-86881202D01*
X257597664Y-86881206D01*
X257482455Y-86967452D01*
X257482452Y-86967455D01*
X257396206Y-87082664D01*
X257396202Y-87082671D01*
X257345910Y-87217513D01*
X257345909Y-87217517D01*
X257339500Y-87277127D01*
X254490499Y-87277127D01*
X254484091Y-87217517D01*
X254469604Y-87178676D01*
X254433797Y-87082671D01*
X254433793Y-87082664D01*
X254347547Y-86967455D01*
X254347544Y-86967452D01*
X254232335Y-86881206D01*
X254232328Y-86881202D01*
X254097482Y-86830908D01*
X254097483Y-86830908D01*
X254037883Y-86824501D01*
X254037881Y-86824500D01*
X254037873Y-86824500D01*
X254037864Y-86824500D01*
X253042129Y-86824500D01*
X253042123Y-86824501D01*
X252982516Y-86830908D01*
X252847671Y-86881202D01*
X252847664Y-86881206D01*
X252732455Y-86967452D01*
X252732452Y-86967455D01*
X252642728Y-87087311D01*
X252586794Y-87129182D01*
X252543462Y-87137000D01*
X251036538Y-87137000D01*
X250969499Y-87117315D01*
X250937272Y-87087311D01*
X250847547Y-86967455D01*
X250847544Y-86967452D01*
X250732335Y-86881206D01*
X250732328Y-86881202D01*
X250597482Y-86830908D01*
X250589938Y-86829126D01*
X250590474Y-86826853D01*
X250536688Y-86804571D01*
X250496843Y-86747177D01*
X250490500Y-86708024D01*
X250490500Y-83239499D01*
X250510185Y-83172460D01*
X250562989Y-83126705D01*
X250614500Y-83115499D01*
X251187871Y-83115499D01*
X251187872Y-83115499D01*
X251247483Y-83109091D01*
X251382331Y-83058796D01*
X251497546Y-82972546D01*
X251583796Y-82857331D01*
X251634091Y-82722483D01*
X251634663Y-82717153D01*
X251661399Y-82652604D01*
X251718791Y-82612754D01*
X251788616Y-82610258D01*
X251848706Y-82645909D01*
X251868437Y-82674111D01*
X251888269Y-82713034D01*
X252015025Y-82887496D01*
X252015025Y-82887497D01*
X252167502Y-83039974D01*
X252341963Y-83166728D01*
X252534098Y-83264627D01*
X252739190Y-83331266D01*
X252810000Y-83342481D01*
X252810000Y-82312709D01*
X252830339Y-82324452D01*
X252981667Y-82365000D01*
X253138333Y-82365000D01*
X253289661Y-82324452D01*
X253310000Y-82312709D01*
X253310000Y-83342480D01*
X253380809Y-83331266D01*
X253585901Y-83264627D01*
X253778036Y-83166728D01*
X253952496Y-83039974D01*
X253952497Y-83039974D01*
X254104974Y-82887497D01*
X254104974Y-82887496D01*
X254231728Y-82713036D01*
X254329627Y-82520901D01*
X254396265Y-82315809D01*
X254430000Y-82102820D01*
X254430000Y-82020000D01*
X253602709Y-82020000D01*
X253614452Y-81999661D01*
X253655000Y-81848333D01*
X253655000Y-81691667D01*
X253614452Y-81540339D01*
X253602709Y-81520000D01*
X254430000Y-81520000D01*
X254430000Y-81437179D01*
X254396265Y-81224190D01*
X254329627Y-81019098D01*
X254231728Y-80826963D01*
X254104974Y-80652503D01*
X254104974Y-80652502D01*
X253952497Y-80500025D01*
X253778036Y-80373271D01*
X253585899Y-80275372D01*
X253380805Y-80208733D01*
X253310000Y-80197518D01*
X253310000Y-81227290D01*
X253289661Y-81215548D01*
X253138333Y-81175000D01*
X252981667Y-81175000D01*
X252830339Y-81215548D01*
X252810000Y-81227290D01*
X252810000Y-80197518D01*
X252809999Y-80197518D01*
X252739194Y-80208733D01*
X252534100Y-80275372D01*
X252341963Y-80373271D01*
X252167503Y-80500025D01*
X252167502Y-80500025D01*
X252015025Y-80652502D01*
X252015025Y-80652503D01*
X251888269Y-80826966D01*
X251868436Y-80865889D01*
X251820461Y-80916683D01*
X251752639Y-80933477D01*
X251686505Y-80910938D01*
X251643055Y-80856222D01*
X251634663Y-80822837D01*
X251634091Y-80817517D01*
X251583797Y-80682671D01*
X251583793Y-80682664D01*
X251497547Y-80567455D01*
X251497544Y-80567452D01*
X251382335Y-80481206D01*
X251382328Y-80481202D01*
X251247482Y-80430908D01*
X251247483Y-80430908D01*
X251187883Y-80424501D01*
X251187881Y-80424500D01*
X251187873Y-80424500D01*
X251187864Y-80424500D01*
X249852129Y-80424500D01*
X249852123Y-80424501D01*
X249792516Y-80430908D01*
X249657671Y-80481202D01*
X249657664Y-80481206D01*
X249542455Y-80567452D01*
X249542452Y-80567455D01*
X249456206Y-80682664D01*
X249456202Y-80682671D01*
X249405908Y-80817517D01*
X249399501Y-80877116D01*
X249399500Y-80877135D01*
X249399500Y-82662870D01*
X249399501Y-82662876D01*
X249405908Y-82722483D01*
X249456202Y-82857328D01*
X249456203Y-82857329D01*
X249456204Y-82857331D01*
X249513100Y-82933334D01*
X249542456Y-82972549D01*
X249548725Y-82978818D01*
X249547157Y-82980385D01*
X249581677Y-83026488D01*
X249589500Y-83069834D01*
X249589500Y-86708023D01*
X249569815Y-86775062D01*
X249517011Y-86820817D01*
X249489865Y-86828266D01*
X249490068Y-86829124D01*
X249482520Y-86830907D01*
X249347671Y-86881202D01*
X249347664Y-86881206D01*
X249232455Y-86967452D01*
X249232452Y-86967455D01*
X249146206Y-87082664D01*
X249146202Y-87082671D01*
X249095910Y-87217513D01*
X249095909Y-87217517D01*
X249089500Y-87277127D01*
X245440500Y-87277127D01*
X245440500Y-83059641D01*
X245460185Y-82992602D01*
X245491616Y-82959322D01*
X245499853Y-82953338D01*
X245553827Y-82914124D01*
X245559953Y-82909673D01*
X245559953Y-82909672D01*
X245559957Y-82909670D01*
X245684670Y-82784957D01*
X245788338Y-82642270D01*
X245868408Y-82485123D01*
X245922910Y-82317384D01*
X245927563Y-82288006D01*
X245950500Y-82143190D01*
X245950500Y-81516809D01*
X245922910Y-81342615D01*
X245868406Y-81174872D01*
X245788337Y-81017729D01*
X245787546Y-81016640D01*
X245684670Y-80875043D01*
X245559957Y-80750330D01*
X245417270Y-80646662D01*
X245260127Y-80566593D01*
X245092384Y-80512089D01*
X244918190Y-80484500D01*
X244918185Y-80484500D01*
X244741815Y-80484500D01*
X244741810Y-80484500D01*
X244567615Y-80512089D01*
X244399872Y-80566593D01*
X244242729Y-80646662D01*
X244100040Y-80750332D01*
X243975332Y-80875040D01*
X243871662Y-81017729D01*
X243791593Y-81174872D01*
X243737089Y-81342615D01*
X243709500Y-81516809D01*
X243410500Y-81516809D01*
X243382910Y-81342615D01*
X243328406Y-81174872D01*
X243248337Y-81017729D01*
X243247546Y-81016640D01*
X243144670Y-80875043D01*
X243019957Y-80750330D01*
X242877270Y-80646662D01*
X242720127Y-80566593D01*
X242552384Y-80512089D01*
X242378190Y-80484500D01*
X242378185Y-80484500D01*
X242201815Y-80484500D01*
X242201810Y-80484500D01*
X242027615Y-80512089D01*
X241859872Y-80566593D01*
X241702729Y-80646662D01*
X241560040Y-80750332D01*
X241435332Y-80875040D01*
X241435325Y-80875049D01*
X241344104Y-81000602D01*
X241288774Y-81043268D01*
X241219161Y-81049246D01*
X241157366Y-81016640D01*
X241123009Y-80955801D01*
X241120529Y-80938141D01*
X241120320Y-80938163D01*
X241109505Y-80832302D01*
X241054358Y-80665880D01*
X241054356Y-80665875D01*
X240962315Y-80516654D01*
X240838345Y-80392684D01*
X240689124Y-80300643D01*
X240689119Y-80300641D01*
X240522697Y-80245494D01*
X240522690Y-80245493D01*
X240419986Y-80235000D01*
X240000000Y-80235000D01*
X240000000Y-81287290D01*
X239979661Y-81275548D01*
X239828333Y-81235000D01*
X239671667Y-81235000D01*
X239520339Y-81275548D01*
X239500000Y-81287290D01*
X239500000Y-80235000D01*
X239080028Y-80235000D01*
X239080012Y-80235001D01*
X238977302Y-80245494D01*
X238810880Y-80300641D01*
X238810875Y-80300643D01*
X238661654Y-80392684D01*
X238537684Y-80516654D01*
X238445643Y-80665875D01*
X238445641Y-80665880D01*
X238390494Y-80832302D01*
X238390493Y-80832309D01*
X238380000Y-80935013D01*
X238380000Y-81580000D01*
X239207291Y-81580000D01*
X239195548Y-81600339D01*
X239155000Y-81751667D01*
X239155000Y-81908333D01*
X239195548Y-82059661D01*
X239207291Y-82080000D01*
X238380001Y-82080000D01*
X238380001Y-82724986D01*
X238390494Y-82827697D01*
X238445641Y-82994119D01*
X238445643Y-82994124D01*
X238537684Y-83143345D01*
X238661654Y-83267315D01*
X238810875Y-83359356D01*
X238810880Y-83359358D01*
X238977302Y-83414505D01*
X238977309Y-83414506D01*
X239080019Y-83424999D01*
X239499999Y-83424999D01*
X239500000Y-83424998D01*
X239500000Y-82372709D01*
X239520339Y-82384452D01*
X239671667Y-82425000D01*
X239828333Y-82425000D01*
X239979661Y-82384452D01*
X240000000Y-82372709D01*
X240000000Y-83424999D01*
X240419972Y-83424999D01*
X240419986Y-83424998D01*
X240522697Y-83414505D01*
X240689119Y-83359358D01*
X240689124Y-83359356D01*
X240838345Y-83267315D01*
X240962315Y-83143345D01*
X241054356Y-82994124D01*
X241054358Y-82994119D01*
X241109505Y-82827697D01*
X241109506Y-82827690D01*
X241120321Y-82721838D01*
X241121371Y-82721945D01*
X241142989Y-82660065D01*
X241198035Y-82617034D01*
X241267607Y-82610593D01*
X241329617Y-82642789D01*
X241344106Y-82659398D01*
X241435330Y-82784957D01*
X241560043Y-82909670D01*
X241702730Y-83013338D01*
X241776975Y-83051167D01*
X241859872Y-83093406D01*
X241859874Y-83093406D01*
X241859877Y-83093408D01*
X241926893Y-83115183D01*
X242027615Y-83147910D01*
X242201810Y-83175500D01*
X242201815Y-83175500D01*
X242378190Y-83175500D01*
X242496102Y-83156824D01*
X242565395Y-83165778D01*
X242618847Y-83210774D01*
X242639487Y-83277526D01*
X242639500Y-83279297D01*
X242639500Y-87317819D01*
X242619815Y-87384858D01*
X242589812Y-87417085D01*
X242482452Y-87497455D01*
X242396206Y-87612664D01*
X242396202Y-87612671D01*
X242345908Y-87747517D01*
X242339501Y-87807116D01*
X242339501Y-87807123D01*
X242339500Y-87807135D01*
X242339500Y-88392034D01*
X242319815Y-88459073D01*
X242303181Y-88479715D01*
X239567716Y-91215181D01*
X239506393Y-91248666D01*
X239480035Y-91251500D01*
X229814965Y-91251500D01*
X229747926Y-91231815D01*
X229702171Y-91179011D01*
X229692227Y-91109853D01*
X229721252Y-91046297D01*
X229727284Y-91039819D01*
X230163168Y-90603935D01*
X231505285Y-89261816D01*
X231566606Y-89228333D01*
X231592954Y-89225499D01*
X232177872Y-89225499D01*
X232237483Y-89219091D01*
X232372331Y-89168796D01*
X232487546Y-89082546D01*
X232573796Y-88967331D01*
X232624091Y-88832483D01*
X232630500Y-88772873D01*
X232630499Y-87727128D01*
X232624091Y-87667517D01*
X232573796Y-87532669D01*
X232573795Y-87532668D01*
X232573793Y-87532664D01*
X232487547Y-87417455D01*
X232380188Y-87337085D01*
X232338318Y-87281151D01*
X232330500Y-87237819D01*
X232330500Y-82840489D01*
X232350185Y-82773450D01*
X232366819Y-82752808D01*
X232371937Y-82747690D01*
X232394670Y-82724957D01*
X232498338Y-82582270D01*
X232578408Y-82425123D01*
X232632910Y-82257384D01*
X232640342Y-82210460D01*
X232660500Y-82083190D01*
X232660500Y-81456809D01*
X232959500Y-81456809D01*
X232959500Y-82083190D01*
X232987089Y-82257384D01*
X233041593Y-82425127D01*
X233121662Y-82582270D01*
X233225330Y-82724957D01*
X233225331Y-82724958D01*
X233225332Y-82724959D01*
X233293181Y-82792808D01*
X233326666Y-82854131D01*
X233329500Y-82880489D01*
X233329500Y-87237819D01*
X233309815Y-87304858D01*
X233279812Y-87337085D01*
X233172452Y-87417455D01*
X233086206Y-87532664D01*
X233086202Y-87532671D01*
X233035908Y-87667517D01*
X233029501Y-87727116D01*
X233029501Y-87727123D01*
X233029500Y-87727135D01*
X233029500Y-88772870D01*
X233029501Y-88772876D01*
X233035908Y-88832483D01*
X233086202Y-88967328D01*
X233086206Y-88967335D01*
X233172452Y-89082544D01*
X233172455Y-89082547D01*
X233287664Y-89168793D01*
X233287671Y-89168797D01*
X233332618Y-89185561D01*
X233422517Y-89219091D01*
X233482127Y-89225500D01*
X234077872Y-89225499D01*
X234137483Y-89219091D01*
X234272331Y-89168796D01*
X234387546Y-89082546D01*
X234473796Y-88967331D01*
X234524091Y-88832483D01*
X234530500Y-88772873D01*
X234530499Y-87727128D01*
X234524091Y-87667517D01*
X234473796Y-87532669D01*
X234473795Y-87532668D01*
X234473793Y-87532664D01*
X234387547Y-87417455D01*
X234280188Y-87337085D01*
X234238318Y-87281151D01*
X234230500Y-87237819D01*
X234230500Y-83211536D01*
X234250185Y-83144497D01*
X234302989Y-83098742D01*
X234335101Y-83089063D01*
X234342384Y-83087910D01*
X234510123Y-83033408D01*
X234667270Y-82953338D01*
X234809957Y-82849670D01*
X234934670Y-82724957D01*
X235038338Y-82582270D01*
X235118408Y-82425123D01*
X235172910Y-82257384D01*
X235180342Y-82210460D01*
X235200500Y-82083190D01*
X235200500Y-81456809D01*
X235172910Y-81282615D01*
X235118406Y-81114872D01*
X235053842Y-80988159D01*
X235053841Y-80988157D01*
X235038339Y-80957731D01*
X234979777Y-80877128D01*
X234934670Y-80815043D01*
X234809957Y-80690330D01*
X234667270Y-80586662D01*
X234629572Y-80567454D01*
X234510127Y-80506593D01*
X234342384Y-80452089D01*
X234168190Y-80424500D01*
X234168185Y-80424500D01*
X233991815Y-80424500D01*
X233991810Y-80424500D01*
X233817615Y-80452089D01*
X233649872Y-80506593D01*
X233492729Y-80586662D01*
X233350040Y-80690332D01*
X233225332Y-80815040D01*
X233121662Y-80957729D01*
X233041593Y-81114872D01*
X232987089Y-81282615D01*
X232959500Y-81456809D01*
X232660500Y-81456809D01*
X232632910Y-81282615D01*
X232578406Y-81114872D01*
X232511350Y-80983268D01*
X232498338Y-80957730D01*
X232394670Y-80815043D01*
X232269957Y-80690330D01*
X232127270Y-80586662D01*
X232089572Y-80567454D01*
X231970127Y-80506593D01*
X231802384Y-80452089D01*
X231628190Y-80424500D01*
X231628185Y-80424500D01*
X231451815Y-80424500D01*
X231451810Y-80424500D01*
X231277615Y-80452089D01*
X231109872Y-80506593D01*
X230952729Y-80586662D01*
X230810040Y-80690332D01*
X230685332Y-80815040D01*
X230685325Y-80815049D01*
X230594104Y-80940602D01*
X230538774Y-80983268D01*
X230469161Y-80989246D01*
X230407366Y-80956640D01*
X230373009Y-80895801D01*
X230370529Y-80878141D01*
X230370320Y-80878163D01*
X230359505Y-80772302D01*
X230304358Y-80605880D01*
X230304356Y-80605875D01*
X230212315Y-80456654D01*
X230088345Y-80332684D01*
X229939124Y-80240643D01*
X229939119Y-80240641D01*
X229772697Y-80185494D01*
X229772690Y-80185493D01*
X229669986Y-80175000D01*
X229250000Y-80175000D01*
X229250000Y-81227290D01*
X229229661Y-81215548D01*
X229078333Y-81175000D01*
X228921667Y-81175000D01*
X228770339Y-81215548D01*
X228750000Y-81227290D01*
X228750000Y-80175000D01*
X228330028Y-80175000D01*
X228330012Y-80175001D01*
X228227302Y-80185494D01*
X228060880Y-80240641D01*
X228060875Y-80240643D01*
X227911654Y-80332684D01*
X227787684Y-80456654D01*
X227695643Y-80605875D01*
X227695641Y-80605880D01*
X227640494Y-80772302D01*
X227640493Y-80772309D01*
X227630000Y-80875013D01*
X227630000Y-81520000D01*
X228457291Y-81520000D01*
X228445548Y-81540339D01*
X228405000Y-81691667D01*
X228405000Y-81848333D01*
X228445548Y-81999661D01*
X228457291Y-82020000D01*
X227630001Y-82020000D01*
X227630001Y-82664986D01*
X227640494Y-82767697D01*
X227695641Y-82934119D01*
X227695643Y-82934124D01*
X227787684Y-83083345D01*
X227911654Y-83207315D01*
X228060875Y-83299356D01*
X228060880Y-83299358D01*
X228227302Y-83354505D01*
X228227309Y-83354506D01*
X228330019Y-83364999D01*
X228749999Y-83364999D01*
X228750000Y-83364998D01*
X228750000Y-82312709D01*
X228770339Y-82324452D01*
X228921667Y-82365000D01*
X229078333Y-82365000D01*
X229229661Y-82324452D01*
X229250000Y-82312709D01*
X229250000Y-83364999D01*
X229669972Y-83364999D01*
X229669986Y-83364998D01*
X229772697Y-83354505D01*
X229939119Y-83299358D01*
X229939124Y-83299356D01*
X230088345Y-83207315D01*
X230212315Y-83083345D01*
X230304356Y-82934124D01*
X230304358Y-82934119D01*
X230359505Y-82767697D01*
X230359506Y-82767690D01*
X230370321Y-82661838D01*
X230371371Y-82661945D01*
X230392989Y-82600065D01*
X230448035Y-82557034D01*
X230517607Y-82550593D01*
X230579617Y-82582789D01*
X230594106Y-82599398D01*
X230685330Y-82724957D01*
X230810043Y-82849670D01*
X230952730Y-82953338D01*
X230990428Y-82972546D01*
X231109872Y-83033406D01*
X231109874Y-83033406D01*
X231109877Y-83033408D01*
X231202013Y-83063345D01*
X231277609Y-83087908D01*
X231277610Y-83087908D01*
X231277616Y-83087910D01*
X231324899Y-83095398D01*
X231388031Y-83125326D01*
X231424963Y-83184637D01*
X231429500Y-83217871D01*
X231429500Y-87237819D01*
X231409815Y-87304858D01*
X231379812Y-87337085D01*
X231272452Y-87417455D01*
X231186206Y-87532664D01*
X231186202Y-87532671D01*
X231135908Y-87667517D01*
X231129501Y-87727116D01*
X231129501Y-87727123D01*
X231129500Y-87727135D01*
X231129500Y-88312034D01*
X231109815Y-88379073D01*
X231093181Y-88399715D01*
X228878716Y-90614181D01*
X228817393Y-90647666D01*
X228791035Y-90650500D01*
X220125965Y-90650500D01*
X220058926Y-90630815D01*
X220013171Y-90578011D01*
X220003227Y-90508853D01*
X220032252Y-90445297D01*
X220038284Y-90438819D01*
X220324536Y-90152567D01*
X221215285Y-89261816D01*
X221276606Y-89228333D01*
X221302954Y-89225499D01*
X221887872Y-89225499D01*
X221947483Y-89219091D01*
X222082331Y-89168796D01*
X222197546Y-89082546D01*
X222283796Y-88967331D01*
X222334091Y-88832483D01*
X222340500Y-88772873D01*
X222340499Y-87727128D01*
X222334091Y-87667517D01*
X222283796Y-87532669D01*
X222283795Y-87532668D01*
X222283793Y-87532664D01*
X222197547Y-87417455D01*
X222090188Y-87337085D01*
X222048318Y-87281151D01*
X222040500Y-87237819D01*
X222040500Y-82490692D01*
X222036900Y-82477258D01*
X222016286Y-82400326D01*
X222009799Y-82376113D01*
X221950490Y-82273386D01*
X221920417Y-82243313D01*
X221912280Y-82229263D01*
X221907691Y-82210460D01*
X221898417Y-82193475D01*
X221897736Y-82169666D01*
X221895716Y-82161385D01*
X221897363Y-82156602D01*
X221897110Y-82147723D01*
X221910500Y-82063185D01*
X221910500Y-81436815D01*
X221910500Y-81436809D01*
X222209500Y-81436809D01*
X222209500Y-82063190D01*
X222237089Y-82237384D01*
X222291593Y-82405127D01*
X222355522Y-82530593D01*
X222371662Y-82562270D01*
X222475330Y-82704957D01*
X222600043Y-82829670D01*
X222742730Y-82933338D01*
X222811795Y-82968528D01*
X222862590Y-83016501D01*
X222879500Y-83079012D01*
X222879500Y-87380128D01*
X222859815Y-87447167D01*
X222854767Y-87454439D01*
X222796204Y-87532669D01*
X222796202Y-87532671D01*
X222745908Y-87667517D01*
X222739501Y-87727116D01*
X222739501Y-87727123D01*
X222739500Y-87727135D01*
X222739500Y-88772870D01*
X222739501Y-88772876D01*
X222745908Y-88832483D01*
X222796202Y-88967328D01*
X222796206Y-88967335D01*
X222882452Y-89082544D01*
X222882455Y-89082547D01*
X222997664Y-89168793D01*
X222997671Y-89168797D01*
X223042618Y-89185561D01*
X223132517Y-89219091D01*
X223192127Y-89225500D01*
X223787872Y-89225499D01*
X223847483Y-89219091D01*
X223982331Y-89168796D01*
X224097546Y-89082546D01*
X224183796Y-88967331D01*
X224234091Y-88832483D01*
X224240500Y-88772873D01*
X224240499Y-87727128D01*
X224234091Y-87667517D01*
X224183796Y-87532669D01*
X224183795Y-87532668D01*
X224183793Y-87532664D01*
X224097547Y-87417455D01*
X224097544Y-87417452D01*
X223982335Y-87331206D01*
X223982328Y-87331202D01*
X223861167Y-87286012D01*
X223805233Y-87244141D01*
X223780816Y-87178676D01*
X223780500Y-87169830D01*
X223780500Y-83079012D01*
X223800185Y-83011973D01*
X223848204Y-82968528D01*
X223917270Y-82933338D01*
X224059957Y-82829670D01*
X224184670Y-82704957D01*
X224288338Y-82562270D01*
X224368408Y-82405123D01*
X224422910Y-82237384D01*
X224428910Y-82199500D01*
X224450500Y-82063190D01*
X224450500Y-81436809D01*
X224422910Y-81262615D01*
X224368406Y-81094872D01*
X224288338Y-80937730D01*
X224288337Y-80937729D01*
X224184670Y-80795043D01*
X224059957Y-80670330D01*
X223917270Y-80566662D01*
X223879572Y-80547454D01*
X223760127Y-80486593D01*
X223592384Y-80432089D01*
X223418190Y-80404500D01*
X223418185Y-80404500D01*
X223241815Y-80404500D01*
X223241810Y-80404500D01*
X223067615Y-80432089D01*
X222899872Y-80486593D01*
X222742729Y-80566662D01*
X222600040Y-80670332D01*
X222475332Y-80795040D01*
X222371662Y-80937729D01*
X222291593Y-81094872D01*
X222237089Y-81262615D01*
X222209500Y-81436809D01*
X221910500Y-81436809D01*
X221882910Y-81262615D01*
X221828406Y-81094872D01*
X221779606Y-80999098D01*
X221748338Y-80937730D01*
X221644670Y-80795043D01*
X221519957Y-80670330D01*
X221377270Y-80566662D01*
X221339572Y-80547454D01*
X221220127Y-80486593D01*
X221052384Y-80432089D01*
X220878190Y-80404500D01*
X220878185Y-80404500D01*
X220701815Y-80404500D01*
X220701810Y-80404500D01*
X220527615Y-80432089D01*
X220359872Y-80486593D01*
X220202729Y-80566662D01*
X220060040Y-80670332D01*
X219935332Y-80795040D01*
X219935325Y-80795049D01*
X219844104Y-80920602D01*
X219788774Y-80963268D01*
X219719161Y-80969246D01*
X219657366Y-80936640D01*
X219623009Y-80875801D01*
X219620529Y-80858141D01*
X219620320Y-80858163D01*
X219609505Y-80752302D01*
X219554358Y-80585880D01*
X219554356Y-80585875D01*
X219462315Y-80436654D01*
X219338345Y-80312684D01*
X219189124Y-80220643D01*
X219189119Y-80220641D01*
X219022697Y-80165494D01*
X219022690Y-80165493D01*
X218919986Y-80155000D01*
X218500000Y-80155000D01*
X218500000Y-81207290D01*
X218479661Y-81195548D01*
X218328333Y-81155000D01*
X218171667Y-81155000D01*
X218020339Y-81195548D01*
X218000000Y-81207290D01*
X218000000Y-80155000D01*
X217580028Y-80155000D01*
X217580012Y-80155001D01*
X217477302Y-80165494D01*
X217310880Y-80220641D01*
X217310875Y-80220643D01*
X217161654Y-80312684D01*
X217037684Y-80436654D01*
X216945643Y-80585875D01*
X216945641Y-80585880D01*
X216890494Y-80752302D01*
X216890493Y-80752309D01*
X216880000Y-80855013D01*
X216880000Y-81500000D01*
X217707291Y-81500000D01*
X217695548Y-81520339D01*
X217655000Y-81671667D01*
X217655000Y-81828333D01*
X217695548Y-81979661D01*
X217707291Y-82000000D01*
X216880001Y-82000000D01*
X216880001Y-82644986D01*
X216890494Y-82747697D01*
X216945641Y-82914119D01*
X216945643Y-82914124D01*
X217037684Y-83063345D01*
X217161654Y-83187315D01*
X217310875Y-83279356D01*
X217310880Y-83279358D01*
X217477302Y-83334505D01*
X217477309Y-83334506D01*
X217580019Y-83344999D01*
X217999999Y-83344999D01*
X218000000Y-83344998D01*
X218000000Y-82292709D01*
X218020339Y-82304452D01*
X218171667Y-82345000D01*
X218328333Y-82345000D01*
X218479661Y-82304452D01*
X218500000Y-82292709D01*
X218500000Y-83344999D01*
X218919972Y-83344999D01*
X218919986Y-83344998D01*
X219022697Y-83334505D01*
X219189119Y-83279358D01*
X219189124Y-83279356D01*
X219338345Y-83187315D01*
X219462315Y-83063345D01*
X219554356Y-82914124D01*
X219554358Y-82914119D01*
X219609505Y-82747697D01*
X219609506Y-82747690D01*
X219620321Y-82641838D01*
X219621371Y-82641945D01*
X219642989Y-82580065D01*
X219698035Y-82537034D01*
X219767607Y-82530593D01*
X219829617Y-82562789D01*
X219844106Y-82579398D01*
X219935330Y-82704957D01*
X220060043Y-82829670D01*
X220202730Y-82933338D01*
X220253727Y-82959322D01*
X220359872Y-83013406D01*
X220359874Y-83013406D01*
X220359877Y-83013408D01*
X220438004Y-83038793D01*
X220527615Y-83067910D01*
X220701810Y-83095500D01*
X220701815Y-83095500D01*
X220878190Y-83095500D01*
X220996102Y-83076824D01*
X221065395Y-83085778D01*
X221118847Y-83130774D01*
X221139487Y-83197526D01*
X221139500Y-83199297D01*
X221139500Y-87237819D01*
X221119815Y-87304858D01*
X221089812Y-87337085D01*
X220982452Y-87417455D01*
X220896206Y-87532664D01*
X220896202Y-87532671D01*
X220845908Y-87667517D01*
X220839501Y-87727116D01*
X220839501Y-87727123D01*
X220839500Y-87727135D01*
X220839500Y-88312034D01*
X220819815Y-88379073D01*
X220803181Y-88399715D01*
X219189716Y-90013181D01*
X219128393Y-90046666D01*
X219102035Y-90049500D01*
X215440691Y-90049500D01*
X215357978Y-90071662D01*
X215357978Y-90071663D01*
X215326113Y-90080201D01*
X215326112Y-90080201D01*
X215326110Y-90080202D01*
X215223386Y-90139511D01*
X215223383Y-90139513D01*
X213278821Y-92084075D01*
X213217498Y-92117560D01*
X213147806Y-92112576D01*
X213091873Y-92070704D01*
X213067456Y-92005240D01*
X213073209Y-91958076D01*
X213115526Y-91827835D01*
X213150000Y-91610181D01*
X213150000Y-91389818D01*
X213115526Y-91172164D01*
X213047432Y-90962589D01*
X212947388Y-90766243D01*
X212901066Y-90702485D01*
X212901065Y-90702485D01*
X212232962Y-91370590D01*
X212215925Y-91307007D01*
X212150099Y-91192993D01*
X212057007Y-91099901D01*
X211942993Y-91034075D01*
X211879407Y-91017037D01*
X212547513Y-90348932D01*
X212483756Y-90302611D01*
X212287410Y-90202567D01*
X212077835Y-90134473D01*
X211860181Y-90100000D01*
X211639819Y-90100000D01*
X211422164Y-90134473D01*
X211212589Y-90202567D01*
X211016233Y-90302616D01*
X210952485Y-90348931D01*
X210952485Y-90348932D01*
X211620590Y-91017037D01*
X211557007Y-91034075D01*
X211442993Y-91099901D01*
X211349901Y-91192993D01*
X211284075Y-91307007D01*
X211267037Y-91370590D01*
X210598932Y-90702485D01*
X210598931Y-90702485D01*
X210552616Y-90766233D01*
X210470475Y-90927444D01*
X210422500Y-90978240D01*
X210354679Y-90995035D01*
X210288544Y-90972497D01*
X210249505Y-90927444D01*
X210246984Y-90922497D01*
X210233996Y-90897006D01*
X210138992Y-90766243D01*
X210127558Y-90750505D01*
X210127554Y-90750500D01*
X209999499Y-90622445D01*
X209999494Y-90622441D01*
X209852995Y-90516004D01*
X209834688Y-90506676D01*
X209834687Y-90506676D01*
X209691639Y-90433788D01*
X209691636Y-90433787D01*
X209519410Y-90377829D01*
X209340551Y-90349500D01*
X209340546Y-90349500D01*
X209159454Y-90349500D01*
X209159449Y-90349500D01*
X208980589Y-90377829D01*
X208808363Y-90433787D01*
X208808360Y-90433788D01*
X208647002Y-90516006D01*
X208500505Y-90622441D01*
X208500500Y-90622445D01*
X208372445Y-90750500D01*
X208372441Y-90750505D01*
X208266006Y-90897002D01*
X208183788Y-91058360D01*
X208183787Y-91058363D01*
X208127829Y-91230589D01*
X208122473Y-91264406D01*
X208092543Y-91327540D01*
X208033232Y-91364471D01*
X207963369Y-91363473D01*
X207905137Y-91324863D01*
X207877527Y-91264406D01*
X207875034Y-91248666D01*
X207872171Y-91230591D01*
X207836942Y-91122164D01*
X207816212Y-91058363D01*
X207816211Y-91058360D01*
X207767412Y-90962589D01*
X207733996Y-90897006D01*
X207638992Y-90766243D01*
X207627558Y-90750505D01*
X207627554Y-90750500D01*
X207499499Y-90622445D01*
X207499494Y-90622441D01*
X207352997Y-90516006D01*
X207352996Y-90516005D01*
X207352994Y-90516004D01*
X207290523Y-90484173D01*
X207191639Y-90433788D01*
X207191636Y-90433787D01*
X207019410Y-90377829D01*
X206840551Y-90349500D01*
X206840546Y-90349500D01*
X206659454Y-90349500D01*
X206659449Y-90349500D01*
X206480589Y-90377829D01*
X206308363Y-90433787D01*
X206308360Y-90433788D01*
X206147002Y-90516006D01*
X206000505Y-90622441D01*
X206000500Y-90622445D01*
X205872445Y-90750500D01*
X205872441Y-90750505D01*
X205766006Y-90897002D01*
X205683788Y-91058360D01*
X205683787Y-91058363D01*
X205627829Y-91230589D01*
X205599500Y-91409448D01*
X205599500Y-91590551D01*
X205627829Y-91769410D01*
X205683787Y-91941636D01*
X205683788Y-91941639D01*
X205727538Y-92027501D01*
X205764623Y-92100284D01*
X205766006Y-92102997D01*
X205872441Y-92249494D01*
X205872445Y-92249499D01*
X206000500Y-92377554D01*
X206000505Y-92377558D01*
X206147001Y-92483993D01*
X206147003Y-92483994D01*
X206147006Y-92483996D01*
X206231795Y-92527198D01*
X206282591Y-92575173D01*
X206299500Y-92637683D01*
X206299500Y-93025249D01*
X206279815Y-93092288D01*
X206249812Y-93124515D01*
X206192457Y-93167451D01*
X206192451Y-93167457D01*
X206106206Y-93282664D01*
X206106202Y-93282671D01*
X206055908Y-93417517D01*
X206049512Y-93477011D01*
X206049501Y-93477123D01*
X206049500Y-93477135D01*
X206049500Y-94522870D01*
X206049501Y-94522876D01*
X206055908Y-94582483D01*
X206106202Y-94717328D01*
X206106206Y-94717335D01*
X206192452Y-94832544D01*
X206192455Y-94832547D01*
X206307664Y-94918793D01*
X206307671Y-94918797D01*
X206349497Y-94934397D01*
X206442517Y-94969091D01*
X206502127Y-94975500D01*
X207097872Y-94975499D01*
X207157483Y-94969091D01*
X207292331Y-94918796D01*
X207407546Y-94832546D01*
X207493796Y-94717331D01*
X207544091Y-94582483D01*
X207550500Y-94522873D01*
X207550499Y-93477128D01*
X207544091Y-93417517D01*
X207499614Y-93298269D01*
X207493797Y-93282671D01*
X207493793Y-93282664D01*
X207407547Y-93167455D01*
X207407544Y-93167452D01*
X207292335Y-93081206D01*
X207292332Y-93081205D01*
X207292331Y-93081204D01*
X207281161Y-93077038D01*
X207225231Y-93035166D01*
X207200816Y-92969701D01*
X207200500Y-92960858D01*
X207200500Y-92637683D01*
X207220185Y-92570644D01*
X207268204Y-92527198D01*
X207352994Y-92483996D01*
X207499501Y-92377553D01*
X207627553Y-92249501D01*
X207733996Y-92102994D01*
X207816211Y-91941639D01*
X207872171Y-91769409D01*
X207877527Y-91735594D01*
X207907456Y-91672459D01*
X207966768Y-91635528D01*
X208036630Y-91636526D01*
X208094863Y-91675136D01*
X208122473Y-91735594D01*
X208127829Y-91769410D01*
X208183787Y-91941636D01*
X208183790Y-91941644D01*
X208235984Y-92044077D01*
X208249500Y-92100373D01*
X208249500Y-92987819D01*
X208229815Y-93054858D01*
X208199812Y-93087085D01*
X208092452Y-93167455D01*
X208006206Y-93282664D01*
X208006202Y-93282671D01*
X207955908Y-93417517D01*
X207949512Y-93477011D01*
X207949501Y-93477123D01*
X207949500Y-93477135D01*
X207949500Y-94522870D01*
X207949501Y-94522876D01*
X207955908Y-94582483D01*
X208006202Y-94717328D01*
X208006204Y-94717331D01*
X208078535Y-94813953D01*
X208102952Y-94879417D01*
X208088100Y-94947690D01*
X208066949Y-94975945D01*
X205339513Y-97703383D01*
X205339509Y-97703389D01*
X205280201Y-97806112D01*
X205280200Y-97806117D01*
X205249500Y-97920691D01*
X205249500Y-100174298D01*
X205229815Y-100241337D01*
X205177011Y-100287092D01*
X205107853Y-100297036D01*
X205044297Y-100268011D01*
X205037819Y-100261979D01*
X198415353Y-93639513D01*
X198415351Y-93639511D01*
X198363987Y-93609856D01*
X198312625Y-93580201D01*
X198300517Y-93576957D01*
X198288410Y-93573713D01*
X198288407Y-93573712D01*
X198250215Y-93563478D01*
X198198046Y-93549500D01*
X198198045Y-93549500D01*
X195319664Y-93549500D01*
X195252625Y-93529815D01*
X195206870Y-93477011D01*
X195196374Y-93438754D01*
X195196170Y-93436857D01*
X195194091Y-93417517D01*
X195149956Y-93299184D01*
X195143797Y-93282671D01*
X195143793Y-93282664D01*
X195057547Y-93167455D01*
X194950188Y-93087085D01*
X194908318Y-93031151D01*
X194900500Y-92987819D01*
X194900500Y-92724500D01*
X194920185Y-92657461D01*
X194972989Y-92611706D01*
X195024500Y-92600500D01*
X195090551Y-92600500D01*
X195177259Y-92586765D01*
X195269409Y-92572171D01*
X195441639Y-92516211D01*
X195602994Y-92433996D01*
X195749501Y-92327553D01*
X195877553Y-92199501D01*
X195983996Y-92052994D01*
X195999505Y-92022555D01*
X196047479Y-91971760D01*
X196115300Y-91954964D01*
X196181435Y-91977501D01*
X196220475Y-92022555D01*
X196302611Y-92183756D01*
X196348932Y-92247513D01*
X197017037Y-91579408D01*
X197034075Y-91642993D01*
X197099901Y-91757007D01*
X197192993Y-91850099D01*
X197307007Y-91915925D01*
X197370590Y-91932962D01*
X196702485Y-92601065D01*
X196702485Y-92601066D01*
X196766243Y-92647388D01*
X196962589Y-92747432D01*
X197172164Y-92815526D01*
X197389819Y-92850000D01*
X197610181Y-92850000D01*
X197827835Y-92815526D01*
X198037410Y-92747432D01*
X198233760Y-92647386D01*
X198297513Y-92601066D01*
X198297514Y-92601066D01*
X197629409Y-91932962D01*
X197692993Y-91915925D01*
X197807007Y-91850099D01*
X197900099Y-91757007D01*
X197965925Y-91642993D01*
X197982962Y-91579410D01*
X198651066Y-92247514D01*
X198651066Y-92247513D01*
X198697386Y-92183760D01*
X198797432Y-91987410D01*
X198865526Y-91777835D01*
X198900000Y-91560181D01*
X198900000Y-91339818D01*
X198865526Y-91122164D01*
X198797432Y-90912589D01*
X198697388Y-90716243D01*
X198651066Y-90652485D01*
X198651065Y-90652485D01*
X197982962Y-91320589D01*
X197965925Y-91257007D01*
X197900099Y-91142993D01*
X197807007Y-91049901D01*
X197692993Y-90984075D01*
X197629407Y-90967037D01*
X198297513Y-90298932D01*
X198233756Y-90252611D01*
X198037410Y-90152567D01*
X197827835Y-90084473D01*
X197610181Y-90050000D01*
X197389819Y-90050000D01*
X197172164Y-90084473D01*
X196962589Y-90152567D01*
X196766233Y-90252616D01*
X196702485Y-90298931D01*
X196702485Y-90298932D01*
X197370590Y-90967037D01*
X197307007Y-90984075D01*
X197192993Y-91049901D01*
X197099901Y-91142993D01*
X197034075Y-91257007D01*
X197017037Y-91320590D01*
X196348932Y-90652485D01*
X196348931Y-90652485D01*
X196302616Y-90716233D01*
X196220475Y-90877444D01*
X196172500Y-90928240D01*
X196104679Y-90945035D01*
X196038544Y-90922497D01*
X195999505Y-90877444D01*
X195983996Y-90847006D01*
X195925319Y-90766243D01*
X195877558Y-90700505D01*
X195877554Y-90700500D01*
X195749499Y-90572445D01*
X195749494Y-90572441D01*
X195602995Y-90466004D01*
X195584688Y-90456676D01*
X195584687Y-90456676D01*
X195441639Y-90383788D01*
X195441636Y-90383787D01*
X195269410Y-90327829D01*
X195090551Y-90299500D01*
X195090546Y-90299500D01*
X194909454Y-90299500D01*
X194909449Y-90299500D01*
X194730589Y-90327829D01*
X194558363Y-90383787D01*
X194558360Y-90383788D01*
X194397002Y-90466006D01*
X194250505Y-90572441D01*
X194250500Y-90572445D01*
X194122445Y-90700500D01*
X194122441Y-90700505D01*
X194016006Y-90847002D01*
X193933788Y-91008360D01*
X193933787Y-91008363D01*
X193877829Y-91180589D01*
X193872473Y-91214406D01*
X193842543Y-91277540D01*
X193783232Y-91314471D01*
X193713369Y-91313473D01*
X193655137Y-91274863D01*
X193627527Y-91214406D01*
X193626083Y-91205291D01*
X193622171Y-91180591D01*
X193594191Y-91094476D01*
X193566212Y-91008363D01*
X193566211Y-91008360D01*
X193509470Y-90897002D01*
X193483996Y-90847006D01*
X193425319Y-90766243D01*
X193377558Y-90700505D01*
X193377554Y-90700500D01*
X193249499Y-90572445D01*
X193249494Y-90572441D01*
X193102997Y-90466006D01*
X193102996Y-90466005D01*
X193102994Y-90466004D01*
X193039765Y-90433787D01*
X192941639Y-90383788D01*
X192941636Y-90383787D01*
X192769410Y-90327829D01*
X192590551Y-90299500D01*
X192590546Y-90299500D01*
X192409454Y-90299500D01*
X192409449Y-90299500D01*
X192230589Y-90327829D01*
X192058363Y-90383787D01*
X192058360Y-90383788D01*
X191897002Y-90466006D01*
X191750505Y-90572441D01*
X191750500Y-90572445D01*
X191622445Y-90700500D01*
X191622441Y-90700505D01*
X191516006Y-90847002D01*
X191433788Y-91008360D01*
X191433787Y-91008363D01*
X191377829Y-91180589D01*
X191349500Y-91359448D01*
X191349500Y-91540551D01*
X191377829Y-91719410D01*
X191433787Y-91891636D01*
X191433788Y-91891639D01*
X191471640Y-91965925D01*
X191500494Y-92022555D01*
X191516006Y-92052997D01*
X191622441Y-92199494D01*
X191622445Y-92199499D01*
X191750500Y-92327554D01*
X191750505Y-92327558D01*
X191897001Y-92433993D01*
X191897003Y-92433994D01*
X191897006Y-92433996D01*
X192031796Y-92502675D01*
X192082591Y-92550648D01*
X192099500Y-92613159D01*
X192099500Y-92987819D01*
X192079815Y-93054858D01*
X192049812Y-93087085D01*
X191942452Y-93167455D01*
X191856206Y-93282664D01*
X191856202Y-93282671D01*
X191805908Y-93417517D01*
X191799512Y-93477011D01*
X191799501Y-93477123D01*
X191799500Y-93477135D01*
X191799500Y-94522870D01*
X191799501Y-94522876D01*
X191805908Y-94582483D01*
X191856202Y-94717328D01*
X191856206Y-94717335D01*
X191942452Y-94832544D01*
X191942455Y-94832547D01*
X192057664Y-94918793D01*
X192057671Y-94918797D01*
X192099497Y-94934397D01*
X192192517Y-94969091D01*
X192252127Y-94975500D01*
X192847872Y-94975499D01*
X192907483Y-94969091D01*
X193042331Y-94918796D01*
X193157546Y-94832546D01*
X193243796Y-94717331D01*
X193294091Y-94582483D01*
X193300500Y-94522873D01*
X193300499Y-93477128D01*
X193294091Y-93417517D01*
X193249614Y-93298269D01*
X193243797Y-93282671D01*
X193243793Y-93282664D01*
X193157547Y-93167455D01*
X193050188Y-93087085D01*
X193008318Y-93031151D01*
X193000500Y-92987819D01*
X193000500Y-92562206D01*
X193020185Y-92495167D01*
X193068205Y-92451721D01*
X193102994Y-92433996D01*
X193249501Y-92327553D01*
X193377553Y-92199501D01*
X193483996Y-92052994D01*
X193566211Y-91891639D01*
X193622171Y-91719409D01*
X193627527Y-91685594D01*
X193657456Y-91622459D01*
X193716768Y-91585528D01*
X193786630Y-91586526D01*
X193844863Y-91625136D01*
X193872473Y-91685594D01*
X193877829Y-91719410D01*
X193933787Y-91891636D01*
X193933790Y-91891644D01*
X193985984Y-91994077D01*
X193999500Y-92050373D01*
X193999500Y-92987819D01*
X193979815Y-93054858D01*
X193949812Y-93087085D01*
X193842452Y-93167455D01*
X193756206Y-93282664D01*
X193756202Y-93282671D01*
X193705908Y-93417517D01*
X193699512Y-93477011D01*
X193699501Y-93477123D01*
X193699500Y-93477135D01*
X193699500Y-94522870D01*
X193699501Y-94522876D01*
X193705908Y-94582483D01*
X193756202Y-94717328D01*
X193756206Y-94717335D01*
X193842452Y-94832544D01*
X193842455Y-94832547D01*
X193957664Y-94918793D01*
X193957671Y-94918797D01*
X193999497Y-94934397D01*
X194092517Y-94969091D01*
X194152127Y-94975500D01*
X194747872Y-94975499D01*
X194807483Y-94969091D01*
X194942331Y-94918796D01*
X195057546Y-94832546D01*
X195143796Y-94717331D01*
X195194091Y-94582483D01*
X195196375Y-94561243D01*
X195223114Y-94496692D01*
X195280507Y-94456845D01*
X195319664Y-94450500D01*
X197900772Y-94450500D01*
X197967811Y-94470185D01*
X197988453Y-94486819D01*
X203242298Y-99740664D01*
X203275783Y-99801987D01*
X203270799Y-99871679D01*
X203240936Y-99917368D01*
X203229912Y-99928056D01*
X203196953Y-99947086D01*
X203094459Y-100049580D01*
X203081583Y-100071880D01*
X203069165Y-100083922D01*
X203052936Y-100092461D01*
X203039664Y-100105116D01*
X203022658Y-100108393D01*
X203007333Y-100116457D01*
X202989063Y-100114866D01*
X202971056Y-100118337D01*
X202950759Y-100114675D01*
X202847475Y-100087000D01*
X202702525Y-100087000D01*
X202591860Y-100116653D01*
X202562511Y-100124517D01*
X202436988Y-100196988D01*
X202436982Y-100196993D01*
X202334493Y-100299482D01*
X202334491Y-100299485D01*
X202319975Y-100324627D01*
X202269406Y-100372841D01*
X202200799Y-100386062D01*
X202135935Y-100360093D01*
X202124908Y-100350305D01*
X200364116Y-98589513D01*
X200364114Y-98589511D01*
X200303380Y-98554446D01*
X200261388Y-98530201D01*
X200249280Y-98526957D01*
X200237173Y-98523713D01*
X200237170Y-98523712D01*
X200198978Y-98513478D01*
X200146809Y-98499500D01*
X200146808Y-98499500D01*
X199091552Y-98499500D01*
X199024513Y-98479815D01*
X199018671Y-98475821D01*
X199013346Y-98471953D01*
X199013343Y-98471951D01*
X199013342Y-98471950D01*
X198937481Y-98433297D01*
X198900301Y-98414352D01*
X198806524Y-98399500D01*
X197568482Y-98399500D01*
X197474696Y-98414354D01*
X197460724Y-98421473D01*
X197392055Y-98434367D01*
X197327315Y-98408088D01*
X197287060Y-98350981D01*
X197284232Y-98284960D01*
X197284120Y-98284943D01*
X197284207Y-98284389D01*
X197284070Y-98281175D01*
X197285519Y-98276105D01*
X197285646Y-98275302D01*
X197300500Y-98181519D01*
X197300499Y-97818482D01*
X197285646Y-97724696D01*
X197285645Y-97724694D01*
X197284119Y-97715057D01*
X197286142Y-97714736D01*
X197284506Y-97657494D01*
X197320584Y-97597660D01*
X197383284Y-97566830D01*
X197452698Y-97574792D01*
X197460708Y-97578519D01*
X197474696Y-97585646D01*
X197474698Y-97585646D01*
X197474700Y-97585647D01*
X197474698Y-97585647D01*
X197568475Y-97600499D01*
X197568481Y-97600500D01*
X198806518Y-97600499D01*
X198900304Y-97585646D01*
X199013342Y-97528050D01*
X199103050Y-97438342D01*
X199160646Y-97325304D01*
X199160646Y-97325302D01*
X199160647Y-97325301D01*
X199175499Y-97231524D01*
X199175500Y-97231519D01*
X199175499Y-96868482D01*
X199160646Y-96774696D01*
X199103050Y-96661658D01*
X199103046Y-96661654D01*
X199103045Y-96661652D01*
X199013347Y-96571954D01*
X199013344Y-96571952D01*
X199013342Y-96571950D01*
X198936517Y-96532805D01*
X198900301Y-96514352D01*
X198806524Y-96499500D01*
X197568482Y-96499500D01*
X197487519Y-96512323D01*
X197474696Y-96514354D01*
X197361658Y-96571950D01*
X197361657Y-96571950D01*
X197361653Y-96571953D01*
X197356329Y-96575821D01*
X197290522Y-96599298D01*
X197283448Y-96599500D01*
X196791436Y-96599500D01*
X196729436Y-96582887D01*
X196649985Y-96537016D01*
X196509975Y-96499500D01*
X196365025Y-96499500D01*
X196236493Y-96533940D01*
X196225011Y-96537017D01*
X196099488Y-96609488D01*
X196099482Y-96609493D01*
X195996993Y-96711982D01*
X195996988Y-96711988D01*
X195924517Y-96837511D01*
X195924516Y-96837515D01*
X195887000Y-96977525D01*
X195887000Y-97122475D01*
X195916219Y-97231519D01*
X195924517Y-97262489D01*
X195924518Y-97262492D01*
X195925103Y-97263504D01*
X195925336Y-97264465D01*
X195927628Y-97269999D01*
X195926765Y-97270356D01*
X195941573Y-97331405D01*
X195918719Y-97397431D01*
X195863796Y-97440619D01*
X195817715Y-97449500D01*
X195693482Y-97449500D01*
X195612519Y-97462323D01*
X195599696Y-97464354D01*
X195486658Y-97521950D01*
X195486657Y-97521951D01*
X195486652Y-97521954D01*
X195396954Y-97611652D01*
X195396951Y-97611657D01*
X195339352Y-97724698D01*
X195324500Y-97818475D01*
X195324500Y-98181517D01*
X195328433Y-98206348D01*
X195339354Y-98275304D01*
X195396950Y-98388342D01*
X195396952Y-98388344D01*
X195396954Y-98388347D01*
X195486652Y-98478045D01*
X195486654Y-98478046D01*
X195486658Y-98478050D01*
X195589010Y-98530201D01*
X195599698Y-98535647D01*
X195693475Y-98550499D01*
X195693481Y-98550500D01*
X195737999Y-98550499D01*
X195805037Y-98570182D01*
X195850793Y-98622985D01*
X195862000Y-98674499D01*
X195862000Y-100435705D01*
X195842315Y-100502744D01*
X195789511Y-100548499D01*
X195720353Y-100558443D01*
X195709489Y-100556383D01*
X195707488Y-100555910D01*
X195707484Y-100555909D01*
X195707483Y-100555909D01*
X195647873Y-100549500D01*
X195647863Y-100549500D01*
X195027129Y-100549500D01*
X195027123Y-100549501D01*
X194967516Y-100555908D01*
X194832671Y-100606202D01*
X194832664Y-100606206D01*
X194717455Y-100692452D01*
X194717452Y-100692455D01*
X194631206Y-100807664D01*
X194631202Y-100807671D01*
X194580908Y-100942517D01*
X194574501Y-101002116D01*
X194574501Y-101002123D01*
X194574500Y-101002135D01*
X194574500Y-101574534D01*
X194554815Y-101641573D01*
X194538181Y-101662215D01*
X191557013Y-104643383D01*
X191557011Y-104643386D01*
X191497700Y-104746113D01*
X191491591Y-104768910D01*
X191491592Y-104768911D01*
X191467000Y-104860691D01*
X191467000Y-105321577D01*
X191447315Y-105388616D01*
X191411891Y-105424679D01*
X191311592Y-105491697D01*
X191311588Y-105491700D01*
X191179200Y-105624088D01*
X191179197Y-105624092D01*
X191075181Y-105779762D01*
X191075176Y-105779771D01*
X191003527Y-105952748D01*
X191003525Y-105952756D01*
X190967000Y-106136379D01*
X189876352Y-106136379D01*
X190052559Y-106046597D01*
X190075440Y-106029972D01*
X190075442Y-106029972D01*
X190200833Y-105938870D01*
X190216576Y-105927432D01*
X190359932Y-105784076D01*
X190479097Y-105620059D01*
X190571137Y-105439420D01*
X190633785Y-105246607D01*
X190665500Y-105046368D01*
X190665500Y-104843632D01*
X190633785Y-104643393D01*
X190602461Y-104546986D01*
X190571138Y-104450582D01*
X190571137Y-104450579D01*
X190524733Y-104359507D01*
X190479097Y-104269941D01*
X190463872Y-104248986D01*
X190359937Y-104105930D01*
X190359933Y-104105925D01*
X190216574Y-103962566D01*
X190216569Y-103962562D01*
X190052562Y-103843405D01*
X190052561Y-103843404D01*
X190052559Y-103843403D01*
X189994686Y-103813915D01*
X189871920Y-103751362D01*
X189871917Y-103751361D01*
X189679108Y-103688715D01*
X189578987Y-103672857D01*
X189478868Y-103657000D01*
X189276132Y-103657000D01*
X189209385Y-103667571D01*
X189075891Y-103688715D01*
X188883082Y-103751361D01*
X188883079Y-103751362D01*
X188702437Y-103843405D01*
X188538430Y-103962562D01*
X188538425Y-103962566D01*
X188462181Y-104038811D01*
X188400858Y-104072296D01*
X188331166Y-104067312D01*
X188275233Y-104025440D01*
X188250816Y-103959976D01*
X188250500Y-103951130D01*
X188250500Y-99084296D01*
X188799500Y-99084296D01*
X188799500Y-99415703D01*
X188836601Y-99744991D01*
X188836603Y-99745003D01*
X188836604Y-99745006D01*
X188838549Y-99753526D01*
X188910346Y-100068093D01*
X188910349Y-100068101D01*
X189019799Y-100380890D01*
X189163582Y-100679458D01*
X189183665Y-100711420D01*
X189339896Y-100960060D01*
X189546516Y-101219153D01*
X189780847Y-101453484D01*
X190039940Y-101660104D01*
X190320539Y-101836416D01*
X190619113Y-101980202D01*
X190793859Y-102041348D01*
X190931898Y-102089650D01*
X190931906Y-102089653D01*
X190931909Y-102089653D01*
X190931910Y-102089654D01*
X191254994Y-102163396D01*
X191255003Y-102163397D01*
X191255008Y-102163398D01*
X191474533Y-102188132D01*
X191584297Y-102200499D01*
X191584300Y-102200500D01*
X191584303Y-102200500D01*
X191915700Y-102200500D01*
X191915701Y-102200499D01*
X192083996Y-102181537D01*
X192244991Y-102163398D01*
X192244994Y-102163397D01*
X192245006Y-102163396D01*
X192568090Y-102089654D01*
X192880887Y-101980202D01*
X193179461Y-101836416D01*
X193460060Y-101660104D01*
X193719153Y-101453484D01*
X193953484Y-101219153D01*
X194160104Y-100960060D01*
X194336416Y-100679461D01*
X194480202Y-100380887D01*
X194589654Y-100068090D01*
X194663396Y-99745006D01*
X194663886Y-99740664D01*
X194689666Y-99511849D01*
X194700500Y-99415697D01*
X194700500Y-99084303D01*
X194678553Y-98889513D01*
X194663398Y-98755008D01*
X194663397Y-98755003D01*
X194663396Y-98754994D01*
X194589654Y-98431910D01*
X194480202Y-98119113D01*
X194336416Y-97820539D01*
X194160104Y-97539940D01*
X193953484Y-97280847D01*
X193719153Y-97046516D01*
X193460060Y-96839896D01*
X193179461Y-96663584D01*
X193179458Y-96663582D01*
X192880890Y-96519799D01*
X192568101Y-96410349D01*
X192568093Y-96410346D01*
X192325777Y-96355039D01*
X192245006Y-96336604D01*
X192245003Y-96336603D01*
X192244991Y-96336601D01*
X191915703Y-96299500D01*
X191915697Y-96299500D01*
X191584303Y-96299500D01*
X191584296Y-96299500D01*
X191255008Y-96336601D01*
X191254994Y-96336604D01*
X190931906Y-96410346D01*
X190931898Y-96410349D01*
X190619109Y-96519799D01*
X190320541Y-96663582D01*
X190039941Y-96839895D01*
X189780847Y-97046515D01*
X189546515Y-97280847D01*
X189339895Y-97539941D01*
X189163582Y-97820541D01*
X189019799Y-98119109D01*
X188910349Y-98431898D01*
X188910346Y-98431906D01*
X188836604Y-98754994D01*
X188836601Y-98755008D01*
X188799500Y-99084296D01*
X188250500Y-99084296D01*
X188250500Y-85282036D01*
X188270185Y-85214997D01*
X188322989Y-85169242D01*
X188392147Y-85159298D01*
X188455703Y-85188323D01*
X188489061Y-85234583D01*
X188577254Y-85447500D01*
X188577258Y-85447510D01*
X188724761Y-85702993D01*
X188904352Y-85937040D01*
X188904358Y-85937047D01*
X189112952Y-86145641D01*
X189112959Y-86145647D01*
X189347006Y-86325238D01*
X189602489Y-86472741D01*
X189602490Y-86472741D01*
X189602493Y-86472743D01*
X189875048Y-86585639D01*
X190160007Y-86661993D01*
X190452494Y-86700500D01*
X190452501Y-86700500D01*
X190747499Y-86700500D01*
X190747506Y-86700500D01*
X191039993Y-86661993D01*
X191324952Y-86585639D01*
X191597507Y-86472743D01*
X191852994Y-86325238D01*
X192087042Y-86145646D01*
X192295646Y-85937042D01*
X192475238Y-85702994D01*
X192622743Y-85447507D01*
X192735639Y-85174952D01*
X192811993Y-84889993D01*
X192850500Y-84597506D01*
X192850500Y-84302494D01*
X192850499Y-84302486D01*
X197149500Y-84302486D01*
X197149500Y-84597513D01*
X197181571Y-84841113D01*
X197188007Y-84889993D01*
X197201405Y-84939995D01*
X197264361Y-85174951D01*
X197264364Y-85174961D01*
X197377254Y-85447500D01*
X197377258Y-85447510D01*
X197524761Y-85702993D01*
X197704352Y-85937040D01*
X197704358Y-85937047D01*
X197912952Y-86145641D01*
X197912959Y-86145647D01*
X198147006Y-86325238D01*
X198402489Y-86472741D01*
X198402490Y-86472741D01*
X198402493Y-86472743D01*
X198675048Y-86585639D01*
X198960007Y-86661993D01*
X199252494Y-86700500D01*
X199252501Y-86700500D01*
X199547499Y-86700500D01*
X199547506Y-86700500D01*
X199839993Y-86661993D01*
X200124952Y-86585639D01*
X200397507Y-86472743D01*
X200652994Y-86325238D01*
X200887042Y-86145646D01*
X201095646Y-85937042D01*
X201275238Y-85702994D01*
X201422743Y-85447507D01*
X201535639Y-85174952D01*
X201611993Y-84889993D01*
X201650500Y-84597506D01*
X201650500Y-84352486D01*
X202599500Y-84352486D01*
X202599500Y-84647513D01*
X202631423Y-84889984D01*
X202638007Y-84939993D01*
X202711694Y-85214997D01*
X202714361Y-85224951D01*
X202714364Y-85224961D01*
X202827254Y-85497500D01*
X202827258Y-85497510D01*
X202974761Y-85752993D01*
X203154352Y-85987040D01*
X203154358Y-85987047D01*
X203362952Y-86195641D01*
X203362959Y-86195647D01*
X203597006Y-86375238D01*
X203852489Y-86522741D01*
X203852490Y-86522741D01*
X203852493Y-86522743D01*
X204125048Y-86635639D01*
X204410007Y-86711993D01*
X204702494Y-86750500D01*
X204702501Y-86750500D01*
X204997499Y-86750500D01*
X204997506Y-86750500D01*
X205289993Y-86711993D01*
X205574952Y-86635639D01*
X205847507Y-86522743D01*
X206102994Y-86375238D01*
X206337042Y-86195646D01*
X206545646Y-85987042D01*
X206725238Y-85752994D01*
X206872743Y-85497507D01*
X206985639Y-85224952D01*
X207061993Y-84939993D01*
X207100500Y-84647506D01*
X207100500Y-84352494D01*
X207100499Y-84352486D01*
X211399500Y-84352486D01*
X211399500Y-84647513D01*
X211431423Y-84889984D01*
X211438007Y-84939993D01*
X211511694Y-85214997D01*
X211514361Y-85224951D01*
X211514364Y-85224961D01*
X211627254Y-85497500D01*
X211627258Y-85497510D01*
X211774761Y-85752993D01*
X211954352Y-85987040D01*
X211954358Y-85987047D01*
X212162952Y-86195641D01*
X212162959Y-86195647D01*
X212397006Y-86375238D01*
X212652489Y-86522741D01*
X212652490Y-86522741D01*
X212652493Y-86522743D01*
X212925048Y-86635639D01*
X213210007Y-86711993D01*
X213502494Y-86750500D01*
X213502501Y-86750500D01*
X213797499Y-86750500D01*
X213797506Y-86750500D01*
X214089993Y-86711993D01*
X214374952Y-86635639D01*
X214647507Y-86522743D01*
X214902994Y-86375238D01*
X215137042Y-86195646D01*
X215345646Y-85987042D01*
X215525238Y-85752994D01*
X215672743Y-85497507D01*
X215785639Y-85224952D01*
X215861993Y-84939993D01*
X215900500Y-84647506D01*
X215900500Y-84352494D01*
X215861993Y-84060007D01*
X215785639Y-83775048D01*
X215672743Y-83502493D01*
X215643873Y-83452489D01*
X215525238Y-83247006D01*
X215345647Y-83012959D01*
X215345641Y-83012952D01*
X215137047Y-82804358D01*
X215137040Y-82804352D01*
X214902993Y-82624761D01*
X214647510Y-82477258D01*
X214647500Y-82477254D01*
X214374961Y-82364364D01*
X214374954Y-82364362D01*
X214374952Y-82364361D01*
X214089993Y-82288007D01*
X214041113Y-82281571D01*
X213797513Y-82249500D01*
X213797506Y-82249500D01*
X213502494Y-82249500D01*
X213502486Y-82249500D01*
X213224085Y-82286153D01*
X213210007Y-82288007D01*
X212997305Y-82345000D01*
X212925048Y-82364361D01*
X212925038Y-82364364D01*
X212652499Y-82477254D01*
X212652489Y-82477258D01*
X212397006Y-82624761D01*
X212162959Y-82804352D01*
X212162952Y-82804358D01*
X211954358Y-83012952D01*
X211954352Y-83012959D01*
X211774761Y-83247006D01*
X211627258Y-83502489D01*
X211627254Y-83502499D01*
X211514364Y-83775038D01*
X211514361Y-83775048D01*
X211451405Y-84010007D01*
X211438008Y-84060004D01*
X211438006Y-84060015D01*
X211399500Y-84352486D01*
X207100499Y-84352486D01*
X207061993Y-84060007D01*
X206985639Y-83775048D01*
X206872743Y-83502493D01*
X206843873Y-83452489D01*
X206725238Y-83247006D01*
X206545647Y-83012959D01*
X206545641Y-83012952D01*
X206337047Y-82804358D01*
X206337040Y-82804352D01*
X206102993Y-82624761D01*
X205847510Y-82477258D01*
X205847500Y-82477254D01*
X205574961Y-82364364D01*
X205574954Y-82364362D01*
X205574952Y-82364361D01*
X205289993Y-82288007D01*
X205241113Y-82281571D01*
X204997513Y-82249500D01*
X204997506Y-82249500D01*
X204702494Y-82249500D01*
X204702486Y-82249500D01*
X204424085Y-82286153D01*
X204410007Y-82288007D01*
X204197305Y-82345000D01*
X204125048Y-82364361D01*
X204125038Y-82364364D01*
X203852499Y-82477254D01*
X203852489Y-82477258D01*
X203597006Y-82624761D01*
X203362959Y-82804352D01*
X203362952Y-82804358D01*
X203154358Y-83012952D01*
X203154352Y-83012959D01*
X202974761Y-83247006D01*
X202827258Y-83502489D01*
X202827254Y-83502499D01*
X202714364Y-83775038D01*
X202714361Y-83775048D01*
X202651405Y-84010007D01*
X202638008Y-84060004D01*
X202638006Y-84060015D01*
X202599500Y-84352486D01*
X201650500Y-84352486D01*
X201650500Y-84302494D01*
X201611993Y-84010007D01*
X201535639Y-83725048D01*
X201422743Y-83452493D01*
X201406869Y-83424999D01*
X201275238Y-83197006D01*
X201095647Y-82962959D01*
X201095641Y-82962952D01*
X200887047Y-82754358D01*
X200887040Y-82754352D01*
X200652993Y-82574761D01*
X200397510Y-82427258D01*
X200397500Y-82427254D01*
X200124961Y-82314364D01*
X200124954Y-82314362D01*
X200124952Y-82314361D01*
X199839993Y-82238007D01*
X199791113Y-82231571D01*
X199547513Y-82199500D01*
X199547506Y-82199500D01*
X199252494Y-82199500D01*
X199252486Y-82199500D01*
X198974085Y-82236153D01*
X198960007Y-82238007D01*
X198712029Y-82304452D01*
X198675048Y-82314361D01*
X198675038Y-82314364D01*
X198402499Y-82427254D01*
X198402489Y-82427258D01*
X198147006Y-82574761D01*
X197912959Y-82754352D01*
X197912952Y-82754358D01*
X197704358Y-82962952D01*
X197704352Y-82962959D01*
X197524761Y-83197006D01*
X197377258Y-83452489D01*
X197377254Y-83452499D01*
X197264364Y-83725038D01*
X197264361Y-83725048D01*
X197188008Y-84010004D01*
X197188006Y-84010015D01*
X197149500Y-84302486D01*
X192850499Y-84302486D01*
X192811993Y-84010007D01*
X192735639Y-83725048D01*
X192622743Y-83452493D01*
X192606869Y-83424999D01*
X192475238Y-83197006D01*
X192295647Y-82962959D01*
X192295641Y-82962952D01*
X192087047Y-82754358D01*
X192087040Y-82754352D01*
X191852993Y-82574761D01*
X191597510Y-82427258D01*
X191597500Y-82427254D01*
X191324961Y-82314364D01*
X191324954Y-82314362D01*
X191324952Y-82314361D01*
X191039993Y-82238007D01*
X190991113Y-82231571D01*
X190747513Y-82199500D01*
X190747506Y-82199500D01*
X190452494Y-82199500D01*
X190452486Y-82199500D01*
X190174085Y-82236153D01*
X190160007Y-82238007D01*
X189912029Y-82304452D01*
X189875048Y-82314361D01*
X189875038Y-82314364D01*
X189602499Y-82427254D01*
X189602489Y-82427258D01*
X189347006Y-82574761D01*
X189112959Y-82754352D01*
X189112952Y-82754358D01*
X188904358Y-82962952D01*
X188904352Y-82962959D01*
X188724761Y-83197006D01*
X188577258Y-83452489D01*
X188577253Y-83452499D01*
X188489061Y-83665416D01*
X188445220Y-83719819D01*
X188378926Y-83741884D01*
X188311226Y-83724605D01*
X188263616Y-83673467D01*
X188250500Y-83617963D01*
X188250500Y-79006961D01*
X188251280Y-78993077D01*
X188251280Y-78993076D01*
X188261460Y-78902729D01*
X188267635Y-78875670D01*
X188295353Y-78796456D01*
X188307396Y-78771450D01*
X188352046Y-78700389D01*
X188369351Y-78678690D01*
X188428690Y-78619351D01*
X188450389Y-78602046D01*
X188521450Y-78557396D01*
X188546456Y-78545353D01*
X188625670Y-78517635D01*
X188652733Y-78511459D01*
X188715419Y-78504396D01*
X188743079Y-78501280D01*
X188756962Y-78500500D01*
X188815892Y-78500500D01*
X265934108Y-78500500D01*
X265993038Y-78500500D01*
X266006922Y-78501280D01*
G37*
%TD.AperFunction*%
%TD*%
%TA.AperFunction,Conductor*%
%TO.N,Net-(D1-A)*%
G36*
X250727764Y-108990318D02*
G01*
X250825017Y-109026591D01*
X250825016Y-109026591D01*
X250831944Y-109027335D01*
X250884627Y-109033000D01*
X251930372Y-109032999D01*
X251989983Y-109026591D01*
X252087236Y-108990317D01*
X252130569Y-108982500D01*
X252628121Y-108982500D01*
X252657500Y-108982500D01*
X252657500Y-111482500D01*
X247665626Y-111482500D01*
X247649441Y-111481439D01*
X247636417Y-111479724D01*
X247544275Y-111467593D01*
X247513008Y-111459215D01*
X247422581Y-111421759D01*
X247394548Y-111405574D01*
X247316898Y-111345991D01*
X247294008Y-111323101D01*
X247234425Y-111245451D01*
X247218240Y-111217418D01*
X247180784Y-111126991D01*
X247172406Y-111095723D01*
X247158561Y-110990559D01*
X247157500Y-110974374D01*
X247157500Y-109490625D01*
X247158561Y-109474440D01*
X247172406Y-109369276D01*
X247180784Y-109338008D01*
X247218240Y-109247581D01*
X247234423Y-109219550D01*
X247294013Y-109141892D01*
X247316892Y-109119013D01*
X247394550Y-109059423D01*
X247422579Y-109043240D01*
X247513009Y-109005783D01*
X247544275Y-108997406D01*
X247649441Y-108983561D01*
X247665626Y-108982500D01*
X250684431Y-108982500D01*
X250727764Y-108990318D01*
G37*
%TD.AperFunction*%
%TD*%
%TA.AperFunction,Conductor*%
%TO.N,GND*%
G36*
X244165559Y-107321061D02*
G01*
X244270723Y-107334906D01*
X244301991Y-107343284D01*
X244392418Y-107380740D01*
X244420452Y-107396925D01*
X244498102Y-107456509D01*
X244520991Y-107479398D01*
X244580574Y-107557048D01*
X244596759Y-107585081D01*
X244634215Y-107675508D01*
X244642593Y-107706775D01*
X244656439Y-107811939D01*
X244657500Y-107828125D01*
X244657500Y-108820000D01*
X244895435Y-108820000D01*
X244951728Y-108833514D01*
X245013084Y-108864777D01*
X245019698Y-108868147D01*
X245113475Y-108882999D01*
X245113481Y-108883000D01*
X246201518Y-108882999D01*
X246295304Y-108868146D01*
X246295305Y-108868145D01*
X246304943Y-108866619D01*
X246305426Y-108869673D01*
X246315161Y-108869394D01*
X246340756Y-108864777D01*
X246354426Y-108868266D01*
X246359002Y-108868135D01*
X246374954Y-108873506D01*
X246392420Y-108880741D01*
X246420452Y-108896925D01*
X246498102Y-108956509D01*
X246520991Y-108979398D01*
X246580574Y-109057048D01*
X246596759Y-109085081D01*
X246634215Y-109175508D01*
X246642593Y-109206775D01*
X246655369Y-109303814D01*
X246655369Y-109336186D01*
X246642593Y-109433224D01*
X246634215Y-109464491D01*
X246596759Y-109554918D01*
X246580574Y-109582951D01*
X246520991Y-109660601D01*
X246498102Y-109683490D01*
X246468781Y-109705989D01*
X246403612Y-109731184D01*
X246337000Y-109718099D01*
X246295301Y-109696852D01*
X246201524Y-109682000D01*
X246201519Y-109682000D01*
X246145770Y-109682000D01*
X246078731Y-109662315D01*
X246076880Y-109661103D01*
X246012990Y-109618413D01*
X245876416Y-109561843D01*
X245876406Y-109561840D01*
X245731419Y-109533000D01*
X245731417Y-109533000D01*
X245583582Y-109533000D01*
X245583580Y-109533000D01*
X245438592Y-109561840D01*
X245438586Y-109561842D01*
X245302008Y-109618414D01*
X245302003Y-109618417D01*
X245238116Y-109661104D01*
X245171438Y-109681980D01*
X245169229Y-109682000D01*
X245113483Y-109682000D01*
X245034550Y-109694501D01*
X245019696Y-109696854D01*
X244906658Y-109754450D01*
X244906657Y-109754451D01*
X244906652Y-109754454D01*
X244877926Y-109783181D01*
X244816603Y-109816666D01*
X244790245Y-109819500D01*
X241411828Y-109819500D01*
X241395643Y-109818439D01*
X241381924Y-109816632D01*
X241294275Y-109805093D01*
X241263008Y-109796715D01*
X241172581Y-109759259D01*
X241144548Y-109743074D01*
X241066898Y-109683491D01*
X241044008Y-109660601D01*
X240984425Y-109582951D01*
X240968240Y-109554918D01*
X240930784Y-109464491D01*
X240922406Y-109433223D01*
X240908561Y-109328059D01*
X240907500Y-109311874D01*
X240907500Y-107828125D01*
X240908561Y-107811940D01*
X240922406Y-107706776D01*
X240922406Y-107706775D01*
X240930784Y-107675508D01*
X240968240Y-107585081D01*
X240984423Y-107557050D01*
X241044013Y-107479392D01*
X241066892Y-107456513D01*
X241144550Y-107396923D01*
X241172579Y-107380740D01*
X241263009Y-107343283D01*
X241294275Y-107334906D01*
X241399441Y-107321061D01*
X241415626Y-107320000D01*
X244149374Y-107320000D01*
X244165559Y-107321061D01*
G37*
%TD.AperFunction*%
%TD*%
M02*
