%TF.GenerationSoftware,KiCad,Pcbnew,9.0.0*%
%TF.CreationDate,2025-03-25T21:18:25-04:00*%
%TF.ProjectId,interrupter,696e7465-7272-4757-9074-65722e6b6963,rev?*%
%TF.SameCoordinates,Original*%
%TF.FileFunction,Copper,L2,Bot*%
%TF.FilePolarity,Positive*%
%FSLAX46Y46*%
G04 Gerber Fmt 4.6, Leading zero omitted, Abs format (unit mm)*
G04 Created by KiCad (PCBNEW 9.0.0) date 2025-03-25 21:18:25*
%MOMM*%
%LPD*%
G01*
G04 APERTURE LIST*
G04 Aperture macros list*
%AMRoundRect*
0 Rectangle with rounded corners*
0 $1 Rounding radius*
0 $2 $3 $4 $5 $6 $7 $8 $9 X,Y pos of 4 corners*
0 Add a 4 corners polygon primitive as box body*
4,1,4,$2,$3,$4,$5,$6,$7,$8,$9,$2,$3,0*
0 Add four circle primitives for the rounded corners*
1,1,$1+$1,$2,$3*
1,1,$1+$1,$4,$5*
1,1,$1+$1,$6,$7*
1,1,$1+$1,$8,$9*
0 Add four rect primitives between the rounded corners*
20,1,$1+$1,$2,$3,$4,$5,0*
20,1,$1+$1,$4,$5,$6,$7,0*
20,1,$1+$1,$6,$7,$8,$9,0*
20,1,$1+$1,$8,$9,$2,$3,0*%
G04 Aperture macros list end*
%TA.AperFunction,ComponentPad*%
%ADD10C,0.800000*%
%TD*%
%TA.AperFunction,ComponentPad*%
%ADD11C,5.400000*%
%TD*%
%TA.AperFunction,ComponentPad*%
%ADD12RoundRect,0.250000X-0.620000X-0.845000X0.620000X-0.845000X0.620000X0.845000X-0.620000X0.845000X0*%
%TD*%
%TA.AperFunction,ComponentPad*%
%ADD13O,1.740000X2.190000*%
%TD*%
%TA.AperFunction,ComponentPad*%
%ADD14R,3.500000X3.500000*%
%TD*%
%TA.AperFunction,ComponentPad*%
%ADD15C,3.500000*%
%TD*%
%TA.AperFunction,ComponentPad*%
%ADD16R,1.700000X1.700000*%
%TD*%
%TA.AperFunction,ComponentPad*%
%ADD17O,1.700000X1.700000*%
%TD*%
%TA.AperFunction,WasherPad*%
%ADD18C,4.000000*%
%TD*%
%TA.AperFunction,ComponentPad*%
%ADD19C,1.800000*%
%TD*%
%TA.AperFunction,HeatsinkPad*%
%ADD20O,1.700000X1.100000*%
%TD*%
%TA.AperFunction,ComponentPad*%
%ADD21C,1.400000*%
%TD*%
%TA.AperFunction,ViaPad*%
%ADD22C,0.600000*%
%TD*%
%TA.AperFunction,Conductor*%
%ADD23C,0.400000*%
%TD*%
%TA.AperFunction,Conductor*%
%ADD24C,1.000000*%
%TD*%
G04 APERTURE END LIST*
D10*
%TO.P,H1,1,1*%
%TO.N,unconnected-(H1-Pad1)_4*%
X244225000Y-99250000D03*
%TO.N,unconnected-(H1-Pad1)_1*%
X244818109Y-97818109D03*
%TO.N,unconnected-(H1-Pad1)_7*%
X244818109Y-100681891D03*
%TO.N,unconnected-(H1-Pad1)_2*%
X246250000Y-97225000D03*
D11*
%TO.N,unconnected-(H1-Pad1)_3*%
X246250000Y-99250000D03*
D10*
%TO.N,unconnected-(H1-Pad1)_5*%
X246250000Y-101275000D03*
%TO.N,unconnected-(H1-Pad1)_8*%
X247681891Y-97818109D03*
%TO.N,unconnected-(H1-Pad1)_6*%
X247681891Y-100681891D03*
%TO.N,unconnected-(H1-Pad1)*%
X248275000Y-99250000D03*
%TD*%
D12*
%TO.P,J7,1,Pin_1*%
%TO.N,+3.3V*%
X229000000Y-81770000D03*
D13*
%TO.P,J7,2,Pin_2*%
%TO.N,E_BPS*%
X231540000Y-81770000D03*
%TO.P,J7,3,Pin_3*%
%TO.N,GND*%
X234080000Y-81770000D03*
%TD*%
D12*
%TO.P,J2,1,Pin_1*%
%TO.N,Net-(J2-Pin_1)*%
X250520000Y-81770000D03*
D13*
%TO.P,J2,2,Pin_2*%
%TO.N,+3.3V*%
X253060000Y-81770000D03*
%TD*%
D14*
%TO.P,BT1,1,+*%
%TO.N,Net-(BT1-+)*%
X263500000Y-127250000D03*
D15*
%TO.P,BT1,2,-*%
%TO.N,GND*%
X191500000Y-127250000D03*
%TD*%
D16*
%TO.P,J4,1,Pin_1*%
%TO.N,CLK*%
X220750000Y-107750000D03*
D17*
%TO.P,J4,2,Pin_2*%
%TO.N,DIO*%
X218210000Y-107750000D03*
%TO.P,J4,3,Pin_3*%
%TO.N,NRST*%
X220750000Y-105210000D03*
%TO.P,J4,4,Pin_4*%
%TO.N,GND*%
X218210000Y-105210000D03*
%TO.P,J4,5,Pin_5*%
%TO.N,+BATT*%
X220750000Y-102670000D03*
%TO.P,J4,6,Pin_6*%
%TO.N,+3.3V*%
X218210000Y-102670000D03*
%TO.P,J4,7,Pin_7*%
%TO.N,TX2*%
X220750000Y-100130000D03*
%TO.P,J4,8,Pin_8*%
%TO.N,RX2*%
X218210000Y-100130000D03*
%TD*%
D10*
%TO.P,H2,1,1*%
%TO.N,unconnected-(H2-Pad1)_1*%
X189725000Y-99250000D03*
%TO.N,unconnected-(H2-Pad1)*%
X190318109Y-97818109D03*
%TO.N,unconnected-(H2-Pad1)_5*%
X190318109Y-100681891D03*
%TO.N,unconnected-(H2-Pad1)_4*%
X191750000Y-97225000D03*
D11*
%TO.N,unconnected-(H2-Pad1)_7*%
X191750000Y-99250000D03*
D10*
%TO.N,unconnected-(H2-Pad1)_2*%
X191750000Y-101275000D03*
%TO.N,unconnected-(H2-Pad1)_8*%
X193181891Y-97818109D03*
%TO.N,unconnected-(H2-Pad1)_6*%
X193181891Y-100681891D03*
%TO.N,unconnected-(H2-Pad1)_3*%
X193775000Y-99250000D03*
%TD*%
D18*
%TO.P,RV2,*%
%TO.N,*%
X190600000Y-84450000D03*
X199400000Y-84450000D03*
D19*
%TO.P,RV2,1,1*%
%TO.N,+3.3V*%
X197500000Y-91450000D03*
%TO.P,RV2,2,2*%
%TO.N,I_DTC*%
X195000000Y-91450000D03*
%TO.P,RV2,3,3*%
%TO.N,GND*%
X192500000Y-91450000D03*
%TD*%
D12*
%TO.P,J3,1,Pin_1*%
%TO.N,Net-(J3-Pin_1)*%
X258790000Y-81750000D03*
D13*
%TO.P,J3,2,Pin_2*%
%TO.N,+3.3V*%
X261330000Y-81750000D03*
%TD*%
D12*
%TO.P,J8,1,Pin_1*%
%TO.N,+3.3V*%
X239750000Y-81830000D03*
D13*
%TO.P,J8,2,Pin_2*%
%TO.N,E_OT*%
X242290000Y-81830000D03*
%TO.P,J8,3,Pin_3*%
%TO.N,GND*%
X244830000Y-81830000D03*
%TD*%
D12*
%TO.P,J6,1,Pin_1*%
%TO.N,+3.3V*%
X218250000Y-81750000D03*
D13*
%TO.P,J6,2,Pin_2*%
%TO.N,E_VMAX*%
X220790000Y-81750000D03*
%TO.P,J6,3,Pin_3*%
%TO.N,GND*%
X223330000Y-81750000D03*
%TD*%
D20*
%TO.P,J5,S1,SHIELD*%
%TO.N,unconnected-(J5-SHIELD-PadS1)_1*%
X260607500Y-110320000D03*
%TO.N,unconnected-(J5-SHIELD-PadS1)*%
X264407500Y-110320000D03*
%TO.N,unconnected-(J5-SHIELD-PadS1)_2*%
X260607500Y-101680000D03*
%TO.N,unconnected-(J5-SHIELD-PadS1)_3*%
X264407500Y-101680000D03*
%TD*%
D18*
%TO.P,RV1,*%
%TO.N,*%
X204850000Y-84500000D03*
X213650000Y-84500000D03*
D19*
%TO.P,RV1,1,1*%
%TO.N,+3.3V*%
X211750000Y-91500000D03*
%TO.P,RV1,2,2*%
%TO.N,I_OCD*%
X209250000Y-91500000D03*
%TO.P,RV1,3,3*%
%TO.N,GND*%
X206750000Y-91500000D03*
%TD*%
D12*
%TO.P,J1,1,Pin_1*%
%TO.N,+BATT*%
X234750000Y-110750000D03*
D13*
%TO.P,J1,2,Pin_2*%
%TO.N,Net-(BT1-+)*%
X237290000Y-110750000D03*
%TD*%
D21*
%TO.P,U3,1,K*%
%TO.N,Net-(U3-K)*%
X191917500Y-106230000D03*
%TO.P,U3,2,A*%
%TO.N,+3.3V*%
X191917500Y-108770000D03*
%TD*%
D22*
%TO.N,GND*%
X243250000Y-109250000D03*
X243250000Y-108500000D03*
X233000000Y-100050000D03*
X252740000Y-90250000D03*
X260976250Y-90226250D03*
X259250000Y-103250000D03*
X244000000Y-108500000D03*
X259250000Y-108750000D03*
X231500000Y-100050000D03*
X202500000Y-115000000D03*
X196437500Y-97050000D03*
X232250000Y-100050000D03*
X244000000Y-107750000D03*
X242500000Y-107750000D03*
X244000000Y-109250000D03*
X243250000Y-107750000D03*
X232298259Y-103761382D03*
X254745000Y-105750000D03*
X232250000Y-107500000D03*
X241750000Y-107750000D03*
X190422500Y-116037500D03*
X206043750Y-111456250D03*
X251407500Y-106750000D03*
%TO.N,CLK*%
X202775000Y-100637500D03*
%TO.N,NRST*%
X206525000Y-110387500D03*
%TO.N,+3.3V*%
X214750000Y-104000000D03*
%TO.N,BAT_LED*%
X252000000Y-115250000D03*
X248000000Y-115250000D03*
%TO.N,DIO*%
X203534968Y-100387595D03*
%TD*%
D23*
%TO.N,CLK*%
X202775000Y-100637500D02*
X202775000Y-104237442D01*
X207538558Y-109001000D02*
X219499000Y-109001000D01*
X219499000Y-109001000D02*
X220750000Y-107750000D01*
X202775000Y-104237442D02*
X207538558Y-109001000D01*
%TO.N,NRST*%
X206525000Y-110387500D02*
X220614500Y-110387500D01*
X220614500Y-110387500D02*
X222001000Y-109001000D01*
X222001000Y-109001000D02*
X222001000Y-106461000D01*
X222001000Y-106461000D02*
X220750000Y-105210000D01*
D24*
%TO.N,+3.3V*%
X218130000Y-102750000D02*
X218210000Y-102670000D01*
X216000000Y-102750000D02*
X218130000Y-102750000D01*
X214750000Y-104000000D02*
X216000000Y-102750000D01*
D23*
%TO.N,BAT_LED*%
X248000000Y-115250000D02*
X252000000Y-115250000D01*
%TO.N,DIO*%
X203534968Y-100387595D02*
X203534968Y-104147468D01*
X217560000Y-108400000D02*
X218210000Y-107750000D01*
X207787500Y-108400000D02*
X217560000Y-108400000D01*
X203534968Y-104147468D02*
X207787500Y-108400000D01*
%TD*%
%TA.AperFunction,Conductor*%
%TO.N,GND*%
G36*
X266006922Y-78501280D02*
G01*
X266097266Y-78511459D01*
X266124331Y-78517636D01*
X266203540Y-78545352D01*
X266228553Y-78557398D01*
X266299606Y-78602043D01*
X266321313Y-78619355D01*
X266380644Y-78678686D01*
X266397957Y-78700395D01*
X266442600Y-78771444D01*
X266454648Y-78796462D01*
X266482362Y-78875666D01*
X266488540Y-78902735D01*
X266498720Y-78993076D01*
X266499500Y-79006961D01*
X266499500Y-137993038D01*
X266498720Y-138006922D01*
X266498720Y-138006923D01*
X266488540Y-138097264D01*
X266482362Y-138124333D01*
X266454648Y-138203537D01*
X266442600Y-138228555D01*
X266397957Y-138299604D01*
X266380644Y-138321313D01*
X266321313Y-138380644D01*
X266299604Y-138397957D01*
X266228555Y-138442600D01*
X266203537Y-138454648D01*
X266124333Y-138482362D01*
X266097264Y-138488540D01*
X266017075Y-138497576D01*
X266006921Y-138498720D01*
X265993038Y-138499500D01*
X188756962Y-138499500D01*
X188743078Y-138498720D01*
X188730553Y-138497308D01*
X188652735Y-138488540D01*
X188625666Y-138482362D01*
X188546462Y-138454648D01*
X188521444Y-138442600D01*
X188450395Y-138397957D01*
X188428686Y-138380644D01*
X188369355Y-138321313D01*
X188352042Y-138299604D01*
X188307399Y-138228555D01*
X188295351Y-138203537D01*
X188267637Y-138124333D01*
X188261459Y-138097263D01*
X188251280Y-138006922D01*
X188250500Y-137993038D01*
X188250500Y-127118905D01*
X189500000Y-127118905D01*
X189500000Y-127381094D01*
X189534220Y-127641009D01*
X189534222Y-127641020D01*
X189602075Y-127894255D01*
X189702404Y-128136471D01*
X189702409Y-128136482D01*
X189833488Y-128363516D01*
X189833494Y-128363524D01*
X189920080Y-128476365D01*
X190637425Y-127759019D01*
X190723249Y-127887463D01*
X190862537Y-128026751D01*
X190990978Y-128112573D01*
X190273633Y-128829917D01*
X190273633Y-128829918D01*
X190386475Y-128916505D01*
X190386483Y-128916511D01*
X190613517Y-129047590D01*
X190613528Y-129047595D01*
X190855744Y-129147924D01*
X191108979Y-129215777D01*
X191108990Y-129215779D01*
X191368905Y-129249999D01*
X191368920Y-129250000D01*
X191631080Y-129250000D01*
X191631094Y-129249999D01*
X191891009Y-129215779D01*
X191891020Y-129215777D01*
X192144255Y-129147924D01*
X192386471Y-129047595D01*
X192386482Y-129047590D01*
X192613516Y-128916511D01*
X192613534Y-128916499D01*
X192726365Y-128829919D01*
X192726365Y-128829917D01*
X192009020Y-128112573D01*
X192137463Y-128026751D01*
X192276751Y-127887463D01*
X192362573Y-127759021D01*
X193079917Y-128476365D01*
X193079919Y-128476365D01*
X193166499Y-128363534D01*
X193166511Y-128363516D01*
X193297590Y-128136482D01*
X193297595Y-128136471D01*
X193397924Y-127894255D01*
X193465777Y-127641020D01*
X193465779Y-127641009D01*
X193499999Y-127381094D01*
X193500000Y-127381080D01*
X193500000Y-127128711D01*
X197394500Y-127128711D01*
X197394500Y-127371288D01*
X197425077Y-127603553D01*
X197426162Y-127611789D01*
X197456143Y-127723678D01*
X197488947Y-127846104D01*
X197506079Y-127887463D01*
X197581776Y-128070212D01*
X197703064Y-128280289D01*
X197703066Y-128280292D01*
X197703067Y-128280293D01*
X197850733Y-128472736D01*
X197850739Y-128472743D01*
X198022256Y-128644260D01*
X198022262Y-128644265D01*
X198214711Y-128791936D01*
X198424788Y-128913224D01*
X198648900Y-129006054D01*
X198883211Y-129068838D01*
X199063586Y-129092584D01*
X199123711Y-129100500D01*
X199123712Y-129100500D01*
X199366289Y-129100500D01*
X199414388Y-129094167D01*
X199606789Y-129068838D01*
X199841100Y-129006054D01*
X200065212Y-128913224D01*
X200275289Y-128791936D01*
X200467738Y-128644265D01*
X200639265Y-128472738D01*
X200786936Y-128280289D01*
X200908224Y-128070212D01*
X201001054Y-127846100D01*
X201063838Y-127611789D01*
X201095500Y-127371288D01*
X201095500Y-127128712D01*
X201095500Y-127128711D01*
X253004500Y-127128711D01*
X253004500Y-127371288D01*
X253035077Y-127603553D01*
X253036162Y-127611789D01*
X253066143Y-127723678D01*
X253098947Y-127846104D01*
X253116079Y-127887463D01*
X253191776Y-128070212D01*
X253313064Y-128280289D01*
X253313066Y-128280292D01*
X253313067Y-128280293D01*
X253460733Y-128472736D01*
X253460739Y-128472743D01*
X253632256Y-128644260D01*
X253632262Y-128644265D01*
X253824711Y-128791936D01*
X254034788Y-128913224D01*
X254258900Y-129006054D01*
X254493211Y-129068838D01*
X254673586Y-129092584D01*
X254733711Y-129100500D01*
X254733712Y-129100500D01*
X254976289Y-129100500D01*
X255024388Y-129094167D01*
X255216789Y-129068838D01*
X255451100Y-129006054D01*
X255675212Y-128913224D01*
X255885289Y-128791936D01*
X256077738Y-128644265D01*
X256249265Y-128472738D01*
X256396936Y-128280289D01*
X256518224Y-128070212D01*
X256611054Y-127846100D01*
X256673838Y-127611789D01*
X256705500Y-127371288D01*
X256705500Y-127128712D01*
X256673838Y-126888211D01*
X256611054Y-126653900D01*
X256518224Y-126429788D01*
X256396936Y-126219711D01*
X256249265Y-126027262D01*
X256249260Y-126027256D01*
X256077743Y-125855739D01*
X256077736Y-125855733D01*
X255885293Y-125708067D01*
X255885292Y-125708066D01*
X255885289Y-125708064D01*
X255675212Y-125586776D01*
X255675205Y-125586772D01*
X255668016Y-125583795D01*
X255451104Y-125493947D01*
X255381591Y-125475321D01*
X261499500Y-125475321D01*
X261499500Y-129024678D01*
X261514032Y-129097735D01*
X261514033Y-129097739D01*
X261514034Y-129097740D01*
X261569399Y-129180601D01*
X261622045Y-129215777D01*
X261652260Y-129235966D01*
X261652264Y-129235967D01*
X261725321Y-129250499D01*
X261725324Y-129250500D01*
X261725326Y-129250500D01*
X265274676Y-129250500D01*
X265274677Y-129250499D01*
X265347740Y-129235966D01*
X265430601Y-129180601D01*
X265485966Y-129097740D01*
X265500500Y-129024674D01*
X265500500Y-125475326D01*
X265500500Y-125475323D01*
X265500499Y-125475321D01*
X265485967Y-125402264D01*
X265485966Y-125402260D01*
X265484122Y-125399500D01*
X265430601Y-125319399D01*
X265347740Y-125264034D01*
X265347739Y-125264033D01*
X265347735Y-125264032D01*
X265274677Y-125249500D01*
X265274674Y-125249500D01*
X261725326Y-125249500D01*
X261725323Y-125249500D01*
X261652264Y-125264032D01*
X261652260Y-125264033D01*
X261569399Y-125319399D01*
X261514033Y-125402260D01*
X261514032Y-125402264D01*
X261499500Y-125475321D01*
X255381591Y-125475321D01*
X255296083Y-125452409D01*
X255216789Y-125431162D01*
X255216788Y-125431161D01*
X255216785Y-125431161D01*
X254976289Y-125399500D01*
X254976288Y-125399500D01*
X254733712Y-125399500D01*
X254733711Y-125399500D01*
X254493214Y-125431161D01*
X254258895Y-125493947D01*
X254034794Y-125586773D01*
X254034785Y-125586777D01*
X253824706Y-125708067D01*
X253632263Y-125855733D01*
X253632256Y-125855739D01*
X253460739Y-126027256D01*
X253460733Y-126027263D01*
X253313067Y-126219706D01*
X253191777Y-126429785D01*
X253191773Y-126429794D01*
X253098947Y-126653895D01*
X253036161Y-126888214D01*
X253004500Y-127128711D01*
X201095500Y-127128711D01*
X201063838Y-126888211D01*
X201001054Y-126653900D01*
X200908224Y-126429788D01*
X200786936Y-126219711D01*
X200639265Y-126027262D01*
X200639260Y-126027256D01*
X200467743Y-125855739D01*
X200467736Y-125855733D01*
X200275293Y-125708067D01*
X200275292Y-125708066D01*
X200275289Y-125708064D01*
X200065212Y-125586776D01*
X200065205Y-125586773D01*
X199841104Y-125493947D01*
X199686083Y-125452409D01*
X199606789Y-125431162D01*
X199606788Y-125431161D01*
X199606785Y-125431161D01*
X199366289Y-125399500D01*
X199366288Y-125399500D01*
X199123712Y-125399500D01*
X199123711Y-125399500D01*
X198883214Y-125431161D01*
X198648895Y-125493947D01*
X198424794Y-125586773D01*
X198424785Y-125586777D01*
X198214706Y-125708067D01*
X198022263Y-125855733D01*
X198022256Y-125855739D01*
X197850739Y-126027256D01*
X197850733Y-126027263D01*
X197703067Y-126219706D01*
X197581777Y-126429785D01*
X197581773Y-126429794D01*
X197488947Y-126653895D01*
X197426161Y-126888214D01*
X197394500Y-127128711D01*
X193500000Y-127128711D01*
X193500000Y-127118919D01*
X193499999Y-127118905D01*
X193465779Y-126858990D01*
X193465777Y-126858979D01*
X193397924Y-126605744D01*
X193297595Y-126363528D01*
X193297590Y-126363517D01*
X193166511Y-126136483D01*
X193166505Y-126136475D01*
X193079918Y-126023633D01*
X193079917Y-126023633D01*
X192362572Y-126740977D01*
X192276751Y-126612537D01*
X192137463Y-126473249D01*
X192009019Y-126387425D01*
X192726365Y-125670080D01*
X192613524Y-125583494D01*
X192613516Y-125583488D01*
X192386482Y-125452409D01*
X192386471Y-125452404D01*
X192144255Y-125352075D01*
X191891020Y-125284222D01*
X191891009Y-125284220D01*
X191631094Y-125250000D01*
X191368905Y-125250000D01*
X191108990Y-125284220D01*
X191108979Y-125284222D01*
X190855744Y-125352075D01*
X190613528Y-125452404D01*
X190613517Y-125452409D01*
X190386471Y-125583496D01*
X190273633Y-125670079D01*
X190273633Y-125670080D01*
X190990979Y-126387426D01*
X190862537Y-126473249D01*
X190723249Y-126612537D01*
X190637426Y-126740979D01*
X189920080Y-126023633D01*
X189920079Y-126023633D01*
X189833496Y-126136471D01*
X189702409Y-126363517D01*
X189702404Y-126363528D01*
X189602075Y-126605744D01*
X189534222Y-126858979D01*
X189534220Y-126858990D01*
X189500000Y-127118905D01*
X188250500Y-127118905D01*
X188250500Y-115177525D01*
X247449500Y-115177525D01*
X247449500Y-115322475D01*
X247487016Y-115462485D01*
X247487017Y-115462488D01*
X247559488Y-115588011D01*
X247559490Y-115588013D01*
X247559491Y-115588015D01*
X247661985Y-115690509D01*
X247661986Y-115690510D01*
X247661988Y-115690511D01*
X247787511Y-115762982D01*
X247787512Y-115762982D01*
X247787515Y-115762984D01*
X247927525Y-115800500D01*
X247927528Y-115800500D01*
X248072472Y-115800500D01*
X248072475Y-115800500D01*
X248212485Y-115762984D01*
X248291936Y-115717112D01*
X248353936Y-115700500D01*
X251646064Y-115700500D01*
X251708063Y-115717112D01*
X251787515Y-115762984D01*
X251927525Y-115800500D01*
X251927528Y-115800500D01*
X252072472Y-115800500D01*
X252072475Y-115800500D01*
X252212485Y-115762984D01*
X252338015Y-115690509D01*
X252440509Y-115588015D01*
X252512984Y-115462485D01*
X252550500Y-115322475D01*
X252550500Y-115177525D01*
X252512984Y-115037515D01*
X252440509Y-114911985D01*
X252338015Y-114809491D01*
X252338013Y-114809490D01*
X252338011Y-114809488D01*
X252212488Y-114737017D01*
X252212489Y-114737017D01*
X252201006Y-114733940D01*
X252072475Y-114699500D01*
X251927525Y-114699500D01*
X251787515Y-114737016D01*
X251708063Y-114782887D01*
X251646064Y-114799500D01*
X248353936Y-114799500D01*
X248291936Y-114782887D01*
X248212485Y-114737016D01*
X248072475Y-114699500D01*
X247927525Y-114699500D01*
X247798993Y-114733940D01*
X247787511Y-114737017D01*
X247661988Y-114809488D01*
X247661982Y-114809493D01*
X247559493Y-114911982D01*
X247559488Y-114911988D01*
X247487017Y-115037511D01*
X247487016Y-115037515D01*
X247449500Y-115177525D01*
X188250500Y-115177525D01*
X188250500Y-114500000D01*
X200500000Y-114500000D01*
X204500000Y-114500000D01*
X204500000Y-111500000D01*
X200500000Y-111500000D01*
X200500000Y-114500000D01*
X188250500Y-114500000D01*
X188250500Y-111018570D01*
X188270185Y-110951531D01*
X188322989Y-110905776D01*
X188392147Y-110895832D01*
X188455703Y-110924857D01*
X188462181Y-110930889D01*
X188538425Y-111007133D01*
X188538430Y-111007137D01*
X188652120Y-111089737D01*
X188702441Y-111126297D01*
X188820526Y-111186464D01*
X188883079Y-111218337D01*
X188883082Y-111218338D01*
X188941701Y-111237384D01*
X189075893Y-111280985D01*
X189276132Y-111312700D01*
X189276133Y-111312700D01*
X189478867Y-111312700D01*
X189478868Y-111312700D01*
X189679107Y-111280985D01*
X189871920Y-111218337D01*
X190052559Y-111126297D01*
X190216576Y-111007132D01*
X190359932Y-110863776D01*
X190479097Y-110699759D01*
X190571137Y-110519120D01*
X190633785Y-110326307D01*
X190665500Y-110126068D01*
X190665500Y-109923332D01*
X190633785Y-109723093D01*
X190597235Y-109610602D01*
X190571138Y-109530282D01*
X190571137Y-109530279D01*
X190530996Y-109451499D01*
X190479097Y-109349641D01*
X190426768Y-109277616D01*
X190359937Y-109185630D01*
X190359933Y-109185625D01*
X190216574Y-109042266D01*
X190216569Y-109042262D01*
X190052562Y-108923105D01*
X190052561Y-108923104D01*
X190052559Y-108923103D01*
X189981348Y-108886819D01*
X189871920Y-108831062D01*
X189871917Y-108831061D01*
X189740072Y-108788223D01*
X189740071Y-108788222D01*
X189679109Y-108768415D01*
X189679110Y-108768415D01*
X189528927Y-108744628D01*
X189478868Y-108736700D01*
X189276132Y-108736700D01*
X189209385Y-108747271D01*
X189075891Y-108768415D01*
X188883082Y-108831061D01*
X188883079Y-108831062D01*
X188702437Y-108923105D01*
X188538430Y-109042262D01*
X188538425Y-109042266D01*
X188462181Y-109118511D01*
X188400858Y-109151996D01*
X188331166Y-109147012D01*
X188275233Y-109105140D01*
X188250816Y-109039676D01*
X188250500Y-109030830D01*
X188250500Y-108676379D01*
X190967000Y-108676379D01*
X190967000Y-108863620D01*
X191003525Y-109047243D01*
X191003527Y-109047251D01*
X191075176Y-109220228D01*
X191075181Y-109220237D01*
X191179197Y-109375907D01*
X191179200Y-109375911D01*
X191311588Y-109508299D01*
X191311592Y-109508302D01*
X191467262Y-109612318D01*
X191467268Y-109612321D01*
X191467269Y-109612322D01*
X191640249Y-109683973D01*
X191823879Y-109720499D01*
X191823883Y-109720500D01*
X191823884Y-109720500D01*
X192011117Y-109720500D01*
X192011118Y-109720499D01*
X192194751Y-109683973D01*
X192367731Y-109612322D01*
X192523408Y-109508302D01*
X192655802Y-109375908D01*
X192759822Y-109220231D01*
X192831473Y-109047251D01*
X192868000Y-108863616D01*
X192868000Y-108676384D01*
X192831473Y-108492749D01*
X192773842Y-108353615D01*
X192759823Y-108319771D01*
X192759818Y-108319762D01*
X192655802Y-108164092D01*
X192655799Y-108164088D01*
X192523411Y-108031700D01*
X192523407Y-108031697D01*
X192367737Y-107927681D01*
X192367728Y-107927676D01*
X192194751Y-107856027D01*
X192194743Y-107856025D01*
X192011120Y-107819500D01*
X192011116Y-107819500D01*
X191823884Y-107819500D01*
X191823879Y-107819500D01*
X191640256Y-107856025D01*
X191640248Y-107856027D01*
X191467271Y-107927676D01*
X191467262Y-107927681D01*
X191311592Y-108031697D01*
X191311588Y-108031700D01*
X191179200Y-108164088D01*
X191179197Y-108164092D01*
X191075181Y-108319762D01*
X191075176Y-108319771D01*
X191003527Y-108492748D01*
X191003525Y-108492756D01*
X190967000Y-108676379D01*
X188250500Y-108676379D01*
X188250500Y-107348151D01*
X194909500Y-107348151D01*
X194909500Y-107621848D01*
X194909501Y-107621865D01*
X194945225Y-107893219D01*
X195016068Y-108157606D01*
X195120809Y-108410473D01*
X195120813Y-108410483D01*
X195257665Y-108647519D01*
X195424288Y-108864666D01*
X195424294Y-108864673D01*
X195617826Y-109058205D01*
X195617833Y-109058211D01*
X195834980Y-109224834D01*
X196072016Y-109361686D01*
X196072017Y-109361686D01*
X196072020Y-109361688D01*
X196324894Y-109466432D01*
X196589277Y-109537274D01*
X196860645Y-109573000D01*
X196860652Y-109573000D01*
X197134348Y-109573000D01*
X197134355Y-109573000D01*
X197405723Y-109537274D01*
X197670106Y-109466432D01*
X197922980Y-109361688D01*
X198160020Y-109224834D01*
X198377168Y-109058210D01*
X198570710Y-108864668D01*
X198737334Y-108647520D01*
X198874188Y-108410480D01*
X198978932Y-108157606D01*
X199049774Y-107893223D01*
X199085500Y-107621855D01*
X199085500Y-107348145D01*
X199049774Y-107076777D01*
X198978932Y-106812394D01*
X198874188Y-106559520D01*
X198873414Y-106558180D01*
X198737334Y-106322480D01*
X198570711Y-106105333D01*
X198570705Y-106105326D01*
X198377173Y-105911794D01*
X198377166Y-105911788D01*
X198160019Y-105745165D01*
X197922983Y-105608313D01*
X197922973Y-105608309D01*
X197670106Y-105503568D01*
X197405723Y-105432726D01*
X197405722Y-105432725D01*
X197405719Y-105432725D01*
X197134365Y-105397001D01*
X197134360Y-105397000D01*
X197134355Y-105397000D01*
X196860645Y-105397000D01*
X196860639Y-105397000D01*
X196860634Y-105397001D01*
X196589280Y-105432725D01*
X196324893Y-105503568D01*
X196072026Y-105608309D01*
X196072016Y-105608313D01*
X195834980Y-105745165D01*
X195617833Y-105911788D01*
X195617826Y-105911794D01*
X195424294Y-106105326D01*
X195424288Y-106105333D01*
X195257665Y-106322480D01*
X195120813Y-106559516D01*
X195120809Y-106559526D01*
X195016068Y-106812393D01*
X194945225Y-107076780D01*
X194909501Y-107348134D01*
X194909500Y-107348151D01*
X188250500Y-107348151D01*
X188250500Y-105938870D01*
X188270185Y-105871831D01*
X188322989Y-105826076D01*
X188392147Y-105816132D01*
X188455703Y-105845157D01*
X188462181Y-105851189D01*
X188538425Y-105927433D01*
X188538430Y-105927437D01*
X188679559Y-106029972D01*
X188702441Y-106046597D01*
X188817703Y-106105326D01*
X188883079Y-106138637D01*
X188883082Y-106138638D01*
X188979486Y-106169961D01*
X189075893Y-106201285D01*
X189276132Y-106233000D01*
X189276133Y-106233000D01*
X189478867Y-106233000D01*
X189478868Y-106233000D01*
X189679107Y-106201285D01*
X189871920Y-106138637D01*
X189876352Y-106136379D01*
X190967000Y-106136379D01*
X190967000Y-106323620D01*
X191003525Y-106507243D01*
X191003527Y-106507251D01*
X191075176Y-106680228D01*
X191075181Y-106680237D01*
X191179197Y-106835907D01*
X191179200Y-106835911D01*
X191311588Y-106968299D01*
X191311592Y-106968302D01*
X191467262Y-107072318D01*
X191467271Y-107072323D01*
X191506456Y-107088554D01*
X191640249Y-107143973D01*
X191823879Y-107180499D01*
X191823883Y-107180500D01*
X191823884Y-107180500D01*
X192011117Y-107180500D01*
X192011118Y-107180499D01*
X192194751Y-107143973D01*
X192367731Y-107072322D01*
X192523408Y-106968302D01*
X192655802Y-106835908D01*
X192759822Y-106680231D01*
X192831473Y-106507251D01*
X192868000Y-106323616D01*
X192868000Y-106136384D01*
X192831473Y-105952749D01*
X192774884Y-105816132D01*
X192759823Y-105779771D01*
X192759818Y-105779762D01*
X192655802Y-105624092D01*
X192655799Y-105624088D01*
X192523411Y-105491700D01*
X192523407Y-105491697D01*
X192367737Y-105387681D01*
X192367728Y-105387676D01*
X192194751Y-105316027D01*
X192194743Y-105316025D01*
X192011120Y-105279500D01*
X192011116Y-105279500D01*
X191823884Y-105279500D01*
X191823879Y-105279500D01*
X191640256Y-105316025D01*
X191640248Y-105316027D01*
X191467271Y-105387676D01*
X191467262Y-105387681D01*
X191311592Y-105491697D01*
X191311588Y-105491700D01*
X191179200Y-105624088D01*
X191179197Y-105624092D01*
X191075181Y-105779762D01*
X191075176Y-105779771D01*
X191003527Y-105952748D01*
X191003525Y-105952756D01*
X190967000Y-106136379D01*
X189876352Y-106136379D01*
X190052559Y-106046597D01*
X190075440Y-106029972D01*
X190075442Y-106029972D01*
X190216569Y-105927437D01*
X190216567Y-105927437D01*
X190216576Y-105927432D01*
X190359932Y-105784076D01*
X190479097Y-105620059D01*
X190571137Y-105439420D01*
X190633785Y-105246607D01*
X190665500Y-105046368D01*
X190665500Y-104843632D01*
X190633785Y-104643393D01*
X190585049Y-104493397D01*
X190571138Y-104450582D01*
X190571137Y-104450579D01*
X190522686Y-104355490D01*
X190479097Y-104269941D01*
X190421109Y-104190127D01*
X190359937Y-104105930D01*
X190359933Y-104105925D01*
X190216574Y-103962566D01*
X190216569Y-103962562D01*
X190052562Y-103843405D01*
X190052561Y-103843404D01*
X190052559Y-103843403D01*
X189994686Y-103813915D01*
X189871920Y-103751362D01*
X189871917Y-103751361D01*
X189679108Y-103688715D01*
X189578987Y-103672857D01*
X189478868Y-103657000D01*
X189276132Y-103657000D01*
X189209385Y-103667571D01*
X189075891Y-103688715D01*
X188883082Y-103751361D01*
X188883079Y-103751362D01*
X188702437Y-103843405D01*
X188538430Y-103962562D01*
X188538425Y-103962566D01*
X188462181Y-104038811D01*
X188400858Y-104072296D01*
X188331166Y-104067312D01*
X188275233Y-104025440D01*
X188250816Y-103959976D01*
X188250500Y-103951130D01*
X188250500Y-99084296D01*
X188799500Y-99084296D01*
X188799500Y-99415703D01*
X188836601Y-99744991D01*
X188836604Y-99745005D01*
X188910346Y-100068093D01*
X188910349Y-100068101D01*
X189019799Y-100380890D01*
X189163582Y-100679458D01*
X189218125Y-100766263D01*
X189339896Y-100960060D01*
X189546516Y-101219153D01*
X189780847Y-101453484D01*
X190039940Y-101660104D01*
X190320539Y-101836416D01*
X190619113Y-101980202D01*
X190756690Y-102028342D01*
X190931898Y-102089650D01*
X190931906Y-102089653D01*
X190931909Y-102089653D01*
X190931910Y-102089654D01*
X191254994Y-102163396D01*
X191255003Y-102163397D01*
X191255008Y-102163398D01*
X191474533Y-102188132D01*
X191584297Y-102200499D01*
X191584300Y-102200500D01*
X191584303Y-102200500D01*
X191915700Y-102200500D01*
X191915701Y-102200499D01*
X192083996Y-102181537D01*
X192244991Y-102163398D01*
X192244994Y-102163397D01*
X192245006Y-102163396D01*
X192568090Y-102089654D01*
X192880887Y-101980202D01*
X193179461Y-101836416D01*
X193460060Y-101660104D01*
X193719153Y-101453484D01*
X193953484Y-101219153D01*
X194160104Y-100960060D01*
X194336416Y-100679461D01*
X194391526Y-100565025D01*
X202224500Y-100565025D01*
X202224500Y-100709975D01*
X202262016Y-100849985D01*
X202307887Y-100929436D01*
X202324500Y-100991435D01*
X202324500Y-104296750D01*
X202348712Y-104387114D01*
X202355200Y-104411327D01*
X202355200Y-104411328D01*
X202355201Y-104411329D01*
X202414511Y-104514056D01*
X207261944Y-109361489D01*
X207286919Y-109375908D01*
X207286918Y-109375908D01*
X207286921Y-109375909D01*
X207364666Y-109420796D01*
X207364667Y-109420797D01*
X207364669Y-109420797D01*
X207364672Y-109420799D01*
X207479249Y-109451500D01*
X207479252Y-109451500D01*
X219558308Y-109451500D01*
X219558309Y-109451500D01*
X219648673Y-109427286D01*
X219672887Y-109420799D01*
X219775614Y-109361489D01*
X220250284Y-108886819D01*
X220311607Y-108853334D01*
X220337965Y-108850500D01*
X221215035Y-108850500D01*
X221282074Y-108870185D01*
X221327829Y-108922989D01*
X221337773Y-108992147D01*
X221308748Y-109055703D01*
X221302716Y-109062181D01*
X220464216Y-109900681D01*
X220402893Y-109934166D01*
X220376535Y-109937000D01*
X206878936Y-109937000D01*
X206816936Y-109920387D01*
X206737485Y-109874516D01*
X206597475Y-109837000D01*
X206452525Y-109837000D01*
X206323993Y-109871440D01*
X206312511Y-109874517D01*
X206186988Y-109946988D01*
X206186982Y-109946993D01*
X206084493Y-110049482D01*
X206084488Y-110049488D01*
X206012017Y-110175011D01*
X206012016Y-110175015D01*
X205974500Y-110315025D01*
X205974500Y-110459975D01*
X205999561Y-110553501D01*
X206012017Y-110599988D01*
X206084488Y-110725511D01*
X206084490Y-110725513D01*
X206084491Y-110725515D01*
X206186985Y-110828009D01*
X206186986Y-110828010D01*
X206186988Y-110828011D01*
X206312511Y-110900482D01*
X206312512Y-110900482D01*
X206312515Y-110900484D01*
X206452525Y-110938000D01*
X206452528Y-110938000D01*
X206597472Y-110938000D01*
X206597475Y-110938000D01*
X206737485Y-110900484D01*
X206816936Y-110854612D01*
X206878936Y-110838000D01*
X220673808Y-110838000D01*
X220673809Y-110838000D01*
X220764173Y-110813786D01*
X220788387Y-110807299D01*
X220891114Y-110747989D01*
X221781968Y-109857135D01*
X233629500Y-109857135D01*
X233629500Y-111642870D01*
X233629501Y-111642876D01*
X233635908Y-111702483D01*
X233686202Y-111837328D01*
X233686206Y-111837335D01*
X233772452Y-111952544D01*
X233772455Y-111952547D01*
X233887664Y-112038793D01*
X233887671Y-112038797D01*
X234022517Y-112089091D01*
X234022516Y-112089091D01*
X234029444Y-112089835D01*
X234082127Y-112095500D01*
X235417872Y-112095499D01*
X235477483Y-112089091D01*
X235612331Y-112038796D01*
X235727546Y-111952546D01*
X235813796Y-111837331D01*
X235864091Y-111702483D01*
X235870500Y-111642873D01*
X235870499Y-110436809D01*
X236169500Y-110436809D01*
X236169500Y-111063190D01*
X236197089Y-111237384D01*
X236251593Y-111405127D01*
X236299934Y-111500000D01*
X236331662Y-111562270D01*
X236435330Y-111704957D01*
X236560043Y-111829670D01*
X236702730Y-111933338D01*
X236740428Y-111952546D01*
X236859872Y-112013406D01*
X236859874Y-112013406D01*
X236859877Y-112013408D01*
X236938004Y-112038793D01*
X237027615Y-112067910D01*
X237201810Y-112095500D01*
X237201815Y-112095500D01*
X237378190Y-112095500D01*
X237552384Y-112067910D01*
X237720123Y-112013408D01*
X237877270Y-111933338D01*
X238019957Y-111829670D01*
X238144670Y-111704957D01*
X238248338Y-111562270D01*
X238328408Y-111405123D01*
X238382910Y-111237384D01*
X238385927Y-111218337D01*
X238410500Y-111063190D01*
X238410500Y-110436809D01*
X238382911Y-110262622D01*
X238382910Y-110262621D01*
X238382910Y-110262616D01*
X238375936Y-110241153D01*
X259507000Y-110241153D01*
X259507000Y-110398846D01*
X259537761Y-110553489D01*
X259537764Y-110553501D01*
X259598102Y-110699172D01*
X259598109Y-110699185D01*
X259685710Y-110830288D01*
X259685713Y-110830292D01*
X259797207Y-110941786D01*
X259797211Y-110941789D01*
X259928314Y-111029390D01*
X259928327Y-111029397D01*
X260009900Y-111063185D01*
X260074003Y-111089737D01*
X260228653Y-111120499D01*
X260228656Y-111120500D01*
X260228658Y-111120500D01*
X260986344Y-111120500D01*
X260986345Y-111120499D01*
X261140997Y-111089737D01*
X261286679Y-111029394D01*
X261417789Y-110941789D01*
X261529289Y-110830289D01*
X261616894Y-110699179D01*
X261677237Y-110553497D01*
X261708000Y-110398842D01*
X261708000Y-110241158D01*
X261708000Y-110241155D01*
X261707999Y-110241153D01*
X263307000Y-110241153D01*
X263307000Y-110398846D01*
X263337761Y-110553489D01*
X263337764Y-110553501D01*
X263398102Y-110699172D01*
X263398109Y-110699185D01*
X263485710Y-110830288D01*
X263485713Y-110830292D01*
X263597207Y-110941786D01*
X263597211Y-110941789D01*
X263728314Y-111029390D01*
X263728327Y-111029397D01*
X263809900Y-111063185D01*
X263874003Y-111089737D01*
X264028653Y-111120499D01*
X264028656Y-111120500D01*
X264028658Y-111120500D01*
X264786344Y-111120500D01*
X264786345Y-111120499D01*
X264940997Y-111089737D01*
X265086679Y-111029394D01*
X265217789Y-110941789D01*
X265329289Y-110830289D01*
X265416894Y-110699179D01*
X265477237Y-110553497D01*
X265508000Y-110398842D01*
X265508000Y-110241158D01*
X265508000Y-110241155D01*
X265507999Y-110241153D01*
X265485107Y-110126067D01*
X265477237Y-110086503D01*
X265419450Y-109946991D01*
X265416897Y-109940827D01*
X265416890Y-109940814D01*
X265329289Y-109809711D01*
X265329286Y-109809707D01*
X265217792Y-109698213D01*
X265217788Y-109698210D01*
X265086685Y-109610609D01*
X265086672Y-109610602D01*
X264941001Y-109550264D01*
X264940989Y-109550261D01*
X264786345Y-109519500D01*
X264786342Y-109519500D01*
X264028658Y-109519500D01*
X264028655Y-109519500D01*
X263874010Y-109550261D01*
X263873998Y-109550264D01*
X263728327Y-109610602D01*
X263728314Y-109610609D01*
X263597211Y-109698210D01*
X263597207Y-109698213D01*
X263485713Y-109809707D01*
X263485710Y-109809711D01*
X263398109Y-109940814D01*
X263398102Y-109940827D01*
X263337764Y-110086498D01*
X263337761Y-110086510D01*
X263307000Y-110241153D01*
X261707999Y-110241153D01*
X261685107Y-110126067D01*
X261677237Y-110086503D01*
X261619450Y-109946991D01*
X261616897Y-109940827D01*
X261616890Y-109940814D01*
X261529289Y-109809711D01*
X261529286Y-109809707D01*
X261417792Y-109698213D01*
X261417788Y-109698210D01*
X261286685Y-109610609D01*
X261286672Y-109610602D01*
X261141001Y-109550264D01*
X261140989Y-109550261D01*
X260986345Y-109519500D01*
X260986342Y-109519500D01*
X260228658Y-109519500D01*
X260228655Y-109519500D01*
X260074010Y-109550261D01*
X260073998Y-109550264D01*
X259928327Y-109610602D01*
X259928314Y-109610609D01*
X259797211Y-109698210D01*
X259797207Y-109698213D01*
X259685713Y-109809707D01*
X259685710Y-109809711D01*
X259598109Y-109940814D01*
X259598102Y-109940827D01*
X259537764Y-110086498D01*
X259537761Y-110086510D01*
X259507000Y-110241153D01*
X238375936Y-110241153D01*
X238328408Y-110094877D01*
X238328406Y-110094874D01*
X238328406Y-110094872D01*
X238273564Y-109987239D01*
X238248338Y-109937730D01*
X238144670Y-109795043D01*
X238019957Y-109670330D01*
X237877270Y-109566662D01*
X237839572Y-109547454D01*
X237720127Y-109486593D01*
X237552384Y-109432089D01*
X237378190Y-109404500D01*
X237378185Y-109404500D01*
X237201815Y-109404500D01*
X237201810Y-109404500D01*
X237027615Y-109432089D01*
X236859872Y-109486593D01*
X236702729Y-109566662D01*
X236560040Y-109670332D01*
X236435332Y-109795040D01*
X236331662Y-109937729D01*
X236251593Y-110094872D01*
X236197089Y-110262615D01*
X236169500Y-110436809D01*
X235870499Y-110436809D01*
X235870499Y-109857128D01*
X235864091Y-109797517D01*
X235863901Y-109797008D01*
X235813797Y-109662671D01*
X235813793Y-109662664D01*
X235727547Y-109547455D01*
X235727544Y-109547452D01*
X235612335Y-109461206D01*
X235612328Y-109461202D01*
X235477482Y-109410908D01*
X235477483Y-109410908D01*
X235417883Y-109404501D01*
X235417881Y-109404500D01*
X235417873Y-109404500D01*
X235417864Y-109404500D01*
X234082129Y-109404500D01*
X234082123Y-109404501D01*
X234022516Y-109410908D01*
X233887671Y-109461202D01*
X233887664Y-109461206D01*
X233772455Y-109547452D01*
X233772452Y-109547455D01*
X233686206Y-109662664D01*
X233686202Y-109662671D01*
X233635908Y-109797517D01*
X233631664Y-109837000D01*
X233629501Y-109857123D01*
X233629500Y-109857135D01*
X221781968Y-109857135D01*
X222361489Y-109277614D01*
X222420799Y-109174887D01*
X222427285Y-109150675D01*
X222427286Y-109150675D01*
X222427286Y-109150671D01*
X222451500Y-109060309D01*
X222451500Y-106401691D01*
X222425834Y-106305905D01*
X222420800Y-106287117D01*
X222420799Y-106287114D01*
X222420799Y-106287113D01*
X222361489Y-106184386D01*
X221833333Y-105656230D01*
X221799848Y-105594907D01*
X221803083Y-105530231D01*
X221823402Y-105467701D01*
X221850500Y-105296611D01*
X221850500Y-105123389D01*
X221823402Y-104952299D01*
X221769873Y-104787555D01*
X221691232Y-104633212D01*
X221589414Y-104493072D01*
X221466928Y-104370586D01*
X221326788Y-104268768D01*
X221172445Y-104190127D01*
X221007701Y-104136598D01*
X221007699Y-104136597D01*
X221007698Y-104136597D01*
X220876271Y-104115781D01*
X220836611Y-104109500D01*
X220663389Y-104109500D01*
X220623728Y-104115781D01*
X220492302Y-104136597D01*
X220327552Y-104190128D01*
X220173211Y-104268768D01*
X220102977Y-104319797D01*
X220033072Y-104370586D01*
X220033070Y-104370588D01*
X220033069Y-104370588D01*
X219910588Y-104493069D01*
X219910588Y-104493070D01*
X219910586Y-104493072D01*
X219895339Y-104514058D01*
X219808768Y-104633211D01*
X219730128Y-104787552D01*
X219676597Y-104952302D01*
X219649500Y-105123389D01*
X219649500Y-105296610D01*
X219676597Y-105467697D01*
X219676597Y-105467699D01*
X219676598Y-105467701D01*
X219730127Y-105632445D01*
X219808768Y-105786788D01*
X219910586Y-105926928D01*
X220033072Y-106049414D01*
X220173212Y-106151232D01*
X220327555Y-106229873D01*
X220492299Y-106283402D01*
X220663389Y-106310500D01*
X220663390Y-106310500D01*
X220836610Y-106310500D01*
X220836611Y-106310500D01*
X221007701Y-106283402D01*
X221070231Y-106263083D01*
X221140070Y-106261087D01*
X221196230Y-106293333D01*
X221340716Y-106437819D01*
X221374201Y-106499142D01*
X221369217Y-106568834D01*
X221327345Y-106624767D01*
X221261881Y-106649184D01*
X221253035Y-106649500D01*
X219875323Y-106649500D01*
X219802264Y-106664032D01*
X219802260Y-106664033D01*
X219719399Y-106719399D01*
X219664033Y-106802260D01*
X219664032Y-106802264D01*
X219649500Y-106875321D01*
X219649500Y-108162035D01*
X219629815Y-108229074D01*
X219613181Y-108249716D01*
X219348716Y-108514181D01*
X219321788Y-108528884D01*
X219295970Y-108545477D01*
X219289769Y-108546368D01*
X219287393Y-108547666D01*
X219261035Y-108550500D01*
X219232060Y-108550500D01*
X219165021Y-108530815D01*
X219119266Y-108478011D01*
X219109322Y-108408853D01*
X219131741Y-108353615D01*
X219132252Y-108352910D01*
X219151232Y-108326788D01*
X219229873Y-108172445D01*
X219283402Y-108007701D01*
X219310500Y-107836611D01*
X219310500Y-107663389D01*
X219283402Y-107492299D01*
X219229873Y-107327555D01*
X219151232Y-107173212D01*
X219049414Y-107033072D01*
X218926928Y-106910586D01*
X218786788Y-106808768D01*
X218632445Y-106730127D01*
X218467701Y-106676598D01*
X218467699Y-106676597D01*
X218467698Y-106676597D01*
X218336271Y-106655781D01*
X218296611Y-106649500D01*
X218123389Y-106649500D01*
X218083728Y-106655781D01*
X217952302Y-106676597D01*
X217787552Y-106730128D01*
X217633211Y-106808768D01*
X217553256Y-106866859D01*
X217493072Y-106910586D01*
X217493070Y-106910588D01*
X217493069Y-106910588D01*
X217370588Y-107033069D01*
X217370588Y-107033070D01*
X217370586Y-107033072D01*
X217338830Y-107076780D01*
X217268768Y-107173211D01*
X217190128Y-107327552D01*
X217136597Y-107492302D01*
X217109500Y-107663389D01*
X217109500Y-107825500D01*
X217089815Y-107892539D01*
X217037011Y-107938294D01*
X216985500Y-107949500D01*
X208025465Y-107949500D01*
X207958426Y-107929815D01*
X207937784Y-107913181D01*
X204984602Y-104959999D01*
X217135884Y-104959999D01*
X217135885Y-104960000D01*
X217776988Y-104960000D01*
X217744075Y-105017007D01*
X217710000Y-105144174D01*
X217710000Y-105275826D01*
X217744075Y-105402993D01*
X217776988Y-105460000D01*
X217135885Y-105460000D01*
X217137085Y-105467584D01*
X217190591Y-105632255D01*
X217269195Y-105786524D01*
X217370967Y-105926602D01*
X217493397Y-106049032D01*
X217633475Y-106150804D01*
X217787744Y-106229408D01*
X217952415Y-106282914D01*
X217952414Y-106282914D01*
X217959999Y-106284115D01*
X217960000Y-106284114D01*
X217960000Y-105643012D01*
X218017007Y-105675925D01*
X218144174Y-105710000D01*
X218275826Y-105710000D01*
X218402993Y-105675925D01*
X218460000Y-105643012D01*
X218460000Y-106284115D01*
X218467584Y-106282914D01*
X218632255Y-106229408D01*
X218786524Y-106150804D01*
X218926602Y-106049032D01*
X219049032Y-105926602D01*
X219150804Y-105786524D01*
X219229408Y-105632255D01*
X219282914Y-105467584D01*
X219284115Y-105460000D01*
X218643012Y-105460000D01*
X218675925Y-105402993D01*
X218710000Y-105275826D01*
X218710000Y-105144174D01*
X218675925Y-105017007D01*
X218643012Y-104960000D01*
X219284115Y-104960000D01*
X219284115Y-104959999D01*
X219282914Y-104952415D01*
X219229408Y-104787744D01*
X219150804Y-104633475D01*
X219049032Y-104493397D01*
X218926602Y-104370967D01*
X218786524Y-104269195D01*
X218632257Y-104190591D01*
X218467589Y-104137087D01*
X218467581Y-104137085D01*
X218460000Y-104135884D01*
X218460000Y-104776988D01*
X218402993Y-104744075D01*
X218275826Y-104710000D01*
X218144174Y-104710000D01*
X218017007Y-104744075D01*
X217960000Y-104776988D01*
X217960000Y-104135884D01*
X217959999Y-104135884D01*
X217952418Y-104137085D01*
X217952410Y-104137087D01*
X217787742Y-104190591D01*
X217633475Y-104269195D01*
X217493397Y-104370967D01*
X217370967Y-104493397D01*
X217269195Y-104633475D01*
X217190591Y-104787744D01*
X217137085Y-104952415D01*
X217135884Y-104959999D01*
X204984602Y-104959999D01*
X204098522Y-104073919D01*
X213999499Y-104073919D01*
X214028340Y-104218906D01*
X214028342Y-104218912D01*
X214084916Y-104355494D01*
X214167048Y-104478416D01*
X214167052Y-104478420D01*
X214167052Y-104478421D01*
X214271578Y-104582947D01*
X214271581Y-104582949D01*
X214271584Y-104582952D01*
X214394506Y-104665084D01*
X214531088Y-104721658D01*
X214531092Y-104721658D01*
X214531093Y-104721659D01*
X214676080Y-104750500D01*
X214676083Y-104750500D01*
X214823919Y-104750500D01*
X214921461Y-104731096D01*
X214968912Y-104721658D01*
X215105494Y-104665084D01*
X215228416Y-104582952D01*
X216274549Y-103536819D01*
X216335872Y-103503334D01*
X216362230Y-103500500D01*
X217440513Y-103500500D01*
X217507552Y-103520185D01*
X217513387Y-103524174D01*
X217633212Y-103611232D01*
X217787555Y-103689873D01*
X217952299Y-103743402D01*
X218123389Y-103770500D01*
X218123390Y-103770500D01*
X218296610Y-103770500D01*
X218296611Y-103770500D01*
X218467701Y-103743402D01*
X218632445Y-103689873D01*
X218786788Y-103611232D01*
X218926928Y-103509414D01*
X219049414Y-103386928D01*
X219151232Y-103246788D01*
X219229873Y-103092445D01*
X219283402Y-102927701D01*
X219310500Y-102756611D01*
X219310500Y-102583389D01*
X219649500Y-102583389D01*
X219649500Y-102756611D01*
X219676598Y-102927701D01*
X219730127Y-103092445D01*
X219808768Y-103246788D01*
X219910586Y-103386928D01*
X220033072Y-103509414D01*
X220173212Y-103611232D01*
X220327555Y-103689873D01*
X220492299Y-103743402D01*
X220663389Y-103770500D01*
X220663390Y-103770500D01*
X220836610Y-103770500D01*
X220836611Y-103770500D01*
X221007701Y-103743402D01*
X221172445Y-103689873D01*
X221326788Y-103611232D01*
X221466928Y-103509414D01*
X221589414Y-103386928D01*
X221691232Y-103246788D01*
X221769873Y-103092445D01*
X221823402Y-102927701D01*
X221850500Y-102756611D01*
X221850500Y-102583389D01*
X221823402Y-102412299D01*
X221769873Y-102247555D01*
X221691232Y-102093212D01*
X221589414Y-101953072D01*
X221466928Y-101830586D01*
X221326788Y-101728768D01*
X221172445Y-101650127D01*
X221007701Y-101596598D01*
X221007699Y-101596597D01*
X221007698Y-101596597D01*
X220876271Y-101575781D01*
X220836611Y-101569500D01*
X220663389Y-101569500D01*
X220623728Y-101575781D01*
X220492302Y-101596597D01*
X220327552Y-101650128D01*
X220173211Y-101728768D01*
X220131816Y-101758844D01*
X220033072Y-101830586D01*
X220033070Y-101830588D01*
X220033069Y-101830588D01*
X219910588Y-101953069D01*
X219910588Y-101953070D01*
X219910586Y-101953072D01*
X219890875Y-101980202D01*
X219808768Y-102093211D01*
X219730128Y-102247552D01*
X219676597Y-102412302D01*
X219670668Y-102449737D01*
X219649500Y-102583389D01*
X219310500Y-102583389D01*
X219283402Y-102412299D01*
X219229873Y-102247555D01*
X219151232Y-102093212D01*
X219049414Y-101953072D01*
X218926928Y-101830586D01*
X218786788Y-101728768D01*
X218632445Y-101650127D01*
X218467701Y-101596598D01*
X218467699Y-101596597D01*
X218467698Y-101596597D01*
X218336271Y-101575781D01*
X218296611Y-101569500D01*
X218123389Y-101569500D01*
X218083728Y-101575781D01*
X217952302Y-101596597D01*
X217787552Y-101650128D01*
X217633211Y-101728768D01*
X217591816Y-101758844D01*
X217493072Y-101830586D01*
X217493070Y-101830588D01*
X217493069Y-101830588D01*
X217370591Y-101953066D01*
X217368056Y-101956035D01*
X217309547Y-101994226D01*
X217273768Y-101999500D01*
X215926080Y-101999500D01*
X215781092Y-102028340D01*
X215781086Y-102028342D01*
X215644508Y-102084914D01*
X215644496Y-102084921D01*
X215595269Y-102117813D01*
X215521588Y-102167044D01*
X215521580Y-102167050D01*
X214167052Y-103521578D01*
X214167052Y-103521579D01*
X214167049Y-103521582D01*
X214167048Y-103521584D01*
X214156869Y-103536819D01*
X214084918Y-103644502D01*
X214084914Y-103644509D01*
X214028342Y-103781087D01*
X214028340Y-103781093D01*
X213999500Y-103926080D01*
X213999500Y-103926083D01*
X213999500Y-104073917D01*
X213999500Y-104073919D01*
X213999499Y-104073919D01*
X204098522Y-104073919D01*
X204021787Y-103997184D01*
X203988302Y-103935861D01*
X203985468Y-103909503D01*
X203985468Y-100741530D01*
X204002080Y-100679531D01*
X204047952Y-100600080D01*
X204085468Y-100460070D01*
X204085468Y-100315120D01*
X204047952Y-100175110D01*
X204018741Y-100124516D01*
X204004887Y-100100519D01*
X204004886Y-100100518D01*
X203975477Y-100049580D01*
X203969286Y-100043389D01*
X217109500Y-100043389D01*
X217109500Y-100216610D01*
X217135518Y-100380887D01*
X217136598Y-100387701D01*
X217190127Y-100552445D01*
X217268768Y-100706788D01*
X217370586Y-100846928D01*
X217493072Y-100969414D01*
X217633212Y-101071232D01*
X217787555Y-101149873D01*
X217952299Y-101203402D01*
X218123389Y-101230500D01*
X218123390Y-101230500D01*
X218296610Y-101230500D01*
X218296611Y-101230500D01*
X218467701Y-101203402D01*
X218632445Y-101149873D01*
X218786788Y-101071232D01*
X218926928Y-100969414D01*
X219049414Y-100846928D01*
X219151232Y-100706788D01*
X219229873Y-100552445D01*
X219283402Y-100387701D01*
X219310500Y-100216611D01*
X219310500Y-100043389D01*
X219649500Y-100043389D01*
X219649500Y-100216610D01*
X219675518Y-100380887D01*
X219676598Y-100387701D01*
X219730127Y-100552445D01*
X219808768Y-100706788D01*
X219910586Y-100846928D01*
X220033072Y-100969414D01*
X220173212Y-101071232D01*
X220327555Y-101149873D01*
X220492299Y-101203402D01*
X220663389Y-101230500D01*
X220663390Y-101230500D01*
X220836610Y-101230500D01*
X220836611Y-101230500D01*
X221007701Y-101203402D01*
X221172445Y-101149873D01*
X221326788Y-101071232D01*
X221466928Y-100969414D01*
X221589414Y-100846928D01*
X221691232Y-100706788D01*
X221769873Y-100552445D01*
X221823402Y-100387701D01*
X221850500Y-100216611D01*
X221850500Y-100043389D01*
X221823402Y-99872299D01*
X221769873Y-99707555D01*
X221691232Y-99553212D01*
X221589414Y-99413072D01*
X221466928Y-99290586D01*
X221326788Y-99188768D01*
X221172445Y-99110127D01*
X221092946Y-99084296D01*
X243299500Y-99084296D01*
X243299500Y-99415703D01*
X243336601Y-99744991D01*
X243336604Y-99745005D01*
X243410346Y-100068093D01*
X243410349Y-100068101D01*
X243519799Y-100380890D01*
X243663582Y-100679458D01*
X243718125Y-100766263D01*
X243839896Y-100960060D01*
X244046516Y-101219153D01*
X244280847Y-101453484D01*
X244539940Y-101660104D01*
X244820539Y-101836416D01*
X245119113Y-101980202D01*
X245256690Y-102028342D01*
X245431898Y-102089650D01*
X245431906Y-102089653D01*
X245431909Y-102089653D01*
X245431910Y-102089654D01*
X245754994Y-102163396D01*
X245755003Y-102163397D01*
X245755008Y-102163398D01*
X245974533Y-102188132D01*
X246084297Y-102200499D01*
X246084300Y-102200500D01*
X246084303Y-102200500D01*
X246415700Y-102200500D01*
X246415701Y-102200499D01*
X246583996Y-102181537D01*
X246744991Y-102163398D01*
X246744994Y-102163397D01*
X246745006Y-102163396D01*
X247068090Y-102089654D01*
X247380887Y-101980202D01*
X247679461Y-101836416D01*
X247960060Y-101660104D01*
X248033982Y-101601153D01*
X259507000Y-101601153D01*
X259507000Y-101758846D01*
X259537761Y-101913489D01*
X259537764Y-101913501D01*
X259598102Y-102059172D01*
X259598109Y-102059185D01*
X259685710Y-102190288D01*
X259685713Y-102190292D01*
X259797207Y-102301786D01*
X259797211Y-102301789D01*
X259928314Y-102389390D01*
X259928327Y-102389397D01*
X260073998Y-102449735D01*
X260074003Y-102449737D01*
X260228653Y-102480499D01*
X260228656Y-102480500D01*
X260228658Y-102480500D01*
X260986344Y-102480500D01*
X260986345Y-102480499D01*
X261140997Y-102449737D01*
X261286679Y-102389394D01*
X261417789Y-102301789D01*
X261529289Y-102190289D01*
X261616894Y-102059179D01*
X261677237Y-101913497D01*
X261708000Y-101758842D01*
X261708000Y-101601158D01*
X261708000Y-101601155D01*
X261707999Y-101601153D01*
X263307000Y-101601153D01*
X263307000Y-101758846D01*
X263337761Y-101913489D01*
X263337764Y-101913501D01*
X263398102Y-102059172D01*
X263398109Y-102059185D01*
X263485710Y-102190288D01*
X263485713Y-102190292D01*
X263597207Y-102301786D01*
X263597211Y-102301789D01*
X263728314Y-102389390D01*
X263728327Y-102389397D01*
X263873998Y-102449735D01*
X263874003Y-102449737D01*
X264028653Y-102480499D01*
X264028656Y-102480500D01*
X264028658Y-102480500D01*
X264786344Y-102480500D01*
X264786345Y-102480499D01*
X264940997Y-102449737D01*
X265086679Y-102389394D01*
X265217789Y-102301789D01*
X265329289Y-102190289D01*
X265416894Y-102059179D01*
X265477237Y-101913497D01*
X265508000Y-101758842D01*
X265508000Y-101601158D01*
X265508000Y-101601155D01*
X265507999Y-101601153D01*
X265487504Y-101498119D01*
X265477237Y-101446503D01*
X265477235Y-101446498D01*
X265416897Y-101300827D01*
X265416890Y-101300814D01*
X265329289Y-101169711D01*
X265329286Y-101169707D01*
X265217792Y-101058213D01*
X265217788Y-101058210D01*
X265086685Y-100970609D01*
X265086672Y-100970602D01*
X264941001Y-100910264D01*
X264940989Y-100910261D01*
X264786345Y-100879500D01*
X264786342Y-100879500D01*
X264028658Y-100879500D01*
X264028655Y-100879500D01*
X263874010Y-100910261D01*
X263873998Y-100910264D01*
X263728327Y-100970602D01*
X263728314Y-100970609D01*
X263597211Y-101058210D01*
X263597207Y-101058213D01*
X263485713Y-101169707D01*
X263485710Y-101169711D01*
X263398109Y-101300814D01*
X263398102Y-101300827D01*
X263337764Y-101446498D01*
X263337761Y-101446510D01*
X263307000Y-101601153D01*
X261707999Y-101601153D01*
X261687504Y-101498119D01*
X261677237Y-101446503D01*
X261677235Y-101446498D01*
X261616897Y-101300827D01*
X261616890Y-101300814D01*
X261529289Y-101169711D01*
X261529286Y-101169707D01*
X261417792Y-101058213D01*
X261417788Y-101058210D01*
X261286685Y-100970609D01*
X261286672Y-100970602D01*
X261141001Y-100910264D01*
X261140989Y-100910261D01*
X260986345Y-100879500D01*
X260986342Y-100879500D01*
X260228658Y-100879500D01*
X260228655Y-100879500D01*
X260074010Y-100910261D01*
X260073998Y-100910264D01*
X259928327Y-100970602D01*
X259928314Y-100970609D01*
X259797211Y-101058210D01*
X259797207Y-101058213D01*
X259685713Y-101169707D01*
X259685710Y-101169711D01*
X259598109Y-101300814D01*
X259598102Y-101300827D01*
X259537764Y-101446498D01*
X259537761Y-101446510D01*
X259507000Y-101601153D01*
X248033982Y-101601153D01*
X248219153Y-101453484D01*
X248453484Y-101219153D01*
X248660104Y-100960060D01*
X248836416Y-100679461D01*
X248980202Y-100380887D01*
X249089654Y-100068090D01*
X249163396Y-99745006D01*
X249200500Y-99415697D01*
X249200500Y-99084303D01*
X249163396Y-98754994D01*
X249089654Y-98431910D01*
X248980202Y-98119113D01*
X248836416Y-97820539D01*
X248660104Y-97539940D01*
X248453484Y-97280847D01*
X248219153Y-97046516D01*
X247960060Y-96839896D01*
X247679461Y-96663584D01*
X247679458Y-96663582D01*
X247380890Y-96519799D01*
X247068101Y-96410349D01*
X247068093Y-96410346D01*
X246825777Y-96355039D01*
X246745006Y-96336604D01*
X246745003Y-96336603D01*
X246744991Y-96336601D01*
X246415703Y-96299500D01*
X246415697Y-96299500D01*
X246084303Y-96299500D01*
X246084296Y-96299500D01*
X245755008Y-96336601D01*
X245754994Y-96336604D01*
X245431906Y-96410346D01*
X245431898Y-96410349D01*
X245119109Y-96519799D01*
X244820541Y-96663582D01*
X244539941Y-96839895D01*
X244280847Y-97046515D01*
X244046515Y-97280847D01*
X243839895Y-97539941D01*
X243663582Y-97820541D01*
X243519799Y-98119109D01*
X243410349Y-98431898D01*
X243410346Y-98431906D01*
X243336604Y-98754994D01*
X243336601Y-98755008D01*
X243299500Y-99084296D01*
X221092946Y-99084296D01*
X221007701Y-99056598D01*
X221007699Y-99056597D01*
X221007698Y-99056597D01*
X220876271Y-99035781D01*
X220836611Y-99029500D01*
X220663389Y-99029500D01*
X220623728Y-99035781D01*
X220492302Y-99056597D01*
X220327552Y-99110128D01*
X220173211Y-99188768D01*
X220093256Y-99246859D01*
X220033072Y-99290586D01*
X220033070Y-99290588D01*
X220033069Y-99290588D01*
X219910588Y-99413069D01*
X219910588Y-99413070D01*
X219910586Y-99413072D01*
X219866859Y-99473256D01*
X219808768Y-99553211D01*
X219730128Y-99707552D01*
X219676597Y-99872302D01*
X219649500Y-100043389D01*
X219310500Y-100043389D01*
X219283402Y-99872299D01*
X219229873Y-99707555D01*
X219151232Y-99553212D01*
X219049414Y-99413072D01*
X218926928Y-99290586D01*
X218786788Y-99188768D01*
X218632445Y-99110127D01*
X218467701Y-99056598D01*
X218467699Y-99056597D01*
X218467698Y-99056597D01*
X218336271Y-99035781D01*
X218296611Y-99029500D01*
X218123389Y-99029500D01*
X218083728Y-99035781D01*
X217952302Y-99056597D01*
X217787552Y-99110128D01*
X217633211Y-99188768D01*
X217553256Y-99246859D01*
X217493072Y-99290586D01*
X217493070Y-99290588D01*
X217493069Y-99290588D01*
X217370588Y-99413069D01*
X217370588Y-99413070D01*
X217370586Y-99413072D01*
X217326859Y-99473256D01*
X217268768Y-99553211D01*
X217190128Y-99707552D01*
X217136597Y-99872302D01*
X217109500Y-100043389D01*
X203969286Y-100043389D01*
X203872983Y-99947086D01*
X203872981Y-99947085D01*
X203872979Y-99947083D01*
X203747456Y-99874612D01*
X203747457Y-99874612D01*
X203735974Y-99871535D01*
X203607443Y-99837095D01*
X203462493Y-99837095D01*
X203333961Y-99871535D01*
X203322479Y-99874612D01*
X203196956Y-99947083D01*
X203196950Y-99947088D01*
X203094461Y-100049577D01*
X203094456Y-100049583D01*
X203090232Y-100056901D01*
X203039664Y-100105116D01*
X202971056Y-100118337D01*
X202950759Y-100114675D01*
X202847475Y-100087000D01*
X202702525Y-100087000D01*
X202585575Y-100118337D01*
X202562511Y-100124517D01*
X202436988Y-100196988D01*
X202436982Y-100196993D01*
X202334493Y-100299482D01*
X202334488Y-100299488D01*
X202262017Y-100425011D01*
X202262016Y-100425015D01*
X202224500Y-100565025D01*
X194391526Y-100565025D01*
X194480202Y-100380887D01*
X194589654Y-100068090D01*
X194663396Y-99745006D01*
X194700500Y-99415697D01*
X194700500Y-99084303D01*
X194663396Y-98754994D01*
X194589654Y-98431910D01*
X194480202Y-98119113D01*
X194336416Y-97820539D01*
X194160104Y-97539940D01*
X193953484Y-97280847D01*
X193719153Y-97046516D01*
X193460060Y-96839896D01*
X193179461Y-96663584D01*
X193179458Y-96663582D01*
X192880890Y-96519799D01*
X192568101Y-96410349D01*
X192568093Y-96410346D01*
X192325777Y-96355039D01*
X192245006Y-96336604D01*
X192245003Y-96336603D01*
X192244991Y-96336601D01*
X191915703Y-96299500D01*
X191915697Y-96299500D01*
X191584303Y-96299500D01*
X191584296Y-96299500D01*
X191255008Y-96336601D01*
X191254994Y-96336604D01*
X190931906Y-96410346D01*
X190931898Y-96410349D01*
X190619109Y-96519799D01*
X190320541Y-96663582D01*
X190039941Y-96839895D01*
X189780847Y-97046515D01*
X189546515Y-97280847D01*
X189339895Y-97539941D01*
X189163582Y-97820541D01*
X189019799Y-98119109D01*
X188910349Y-98431898D01*
X188910346Y-98431906D01*
X188836604Y-98754994D01*
X188836601Y-98755008D01*
X188799500Y-99084296D01*
X188250500Y-99084296D01*
X188250500Y-91359493D01*
X191350000Y-91359493D01*
X191350000Y-91540506D01*
X191378317Y-91719293D01*
X191434251Y-91891444D01*
X191434252Y-91891447D01*
X191516431Y-92052730D01*
X191527913Y-92068532D01*
X191527913Y-92068533D01*
X192017037Y-91579409D01*
X192034075Y-91642993D01*
X192099901Y-91757007D01*
X192192993Y-91850099D01*
X192307007Y-91915925D01*
X192370590Y-91932962D01*
X191881466Y-92422085D01*
X191881466Y-92422086D01*
X191897267Y-92433566D01*
X191897275Y-92433571D01*
X192058552Y-92515747D01*
X192058555Y-92515748D01*
X192230706Y-92571682D01*
X192409494Y-92600000D01*
X192590506Y-92600000D01*
X192769293Y-92571682D01*
X192941444Y-92515748D01*
X192941452Y-92515745D01*
X193102730Y-92433568D01*
X193118532Y-92422085D01*
X193118533Y-92422085D01*
X192629410Y-91932962D01*
X192692993Y-91915925D01*
X192807007Y-91850099D01*
X192900099Y-91757007D01*
X192965925Y-91642993D01*
X192982962Y-91579409D01*
X193472085Y-92068532D01*
X193483568Y-92052730D01*
X193565745Y-91891452D01*
X193565748Y-91891444D01*
X193621681Y-91719296D01*
X193627272Y-91683997D01*
X193657201Y-91620861D01*
X193716511Y-91583929D01*
X193786374Y-91584925D01*
X193844607Y-91623534D01*
X193872219Y-91683992D01*
X193877829Y-91719411D01*
X193933787Y-91891636D01*
X193933788Y-91891639D01*
X193971640Y-91965925D01*
X194015869Y-92052730D01*
X194016006Y-92052997D01*
X194122441Y-92199494D01*
X194122445Y-92199499D01*
X194250500Y-92327554D01*
X194250505Y-92327558D01*
X194319325Y-92377558D01*
X194397006Y-92433996D01*
X194494292Y-92483566D01*
X194558360Y-92516211D01*
X194558363Y-92516212D01*
X194644476Y-92544191D01*
X194730591Y-92572171D01*
X194813429Y-92585291D01*
X194909449Y-92600500D01*
X194909454Y-92600500D01*
X195090551Y-92600500D01*
X195177259Y-92586765D01*
X195269409Y-92572171D01*
X195441639Y-92516211D01*
X195602994Y-92433996D01*
X195749501Y-92327553D01*
X195877553Y-92199501D01*
X195983996Y-92052994D01*
X196066211Y-91891639D01*
X196122171Y-91719409D01*
X196127527Y-91685594D01*
X196157456Y-91622459D01*
X196216768Y-91585528D01*
X196286630Y-91586526D01*
X196344863Y-91625136D01*
X196372473Y-91685594D01*
X196377829Y-91719410D01*
X196433787Y-91891636D01*
X196433788Y-91891639D01*
X196471640Y-91965925D01*
X196515869Y-92052730D01*
X196516006Y-92052997D01*
X196622441Y-92199494D01*
X196622445Y-92199499D01*
X196750500Y-92327554D01*
X196750505Y-92327558D01*
X196819325Y-92377558D01*
X196897006Y-92433996D01*
X196994292Y-92483566D01*
X197058360Y-92516211D01*
X197058363Y-92516212D01*
X197144476Y-92544191D01*
X197230591Y-92572171D01*
X197313429Y-92585291D01*
X197409449Y-92600500D01*
X197409454Y-92600500D01*
X197590551Y-92600500D01*
X197677259Y-92586765D01*
X197769409Y-92572171D01*
X197941639Y-92516211D01*
X198102994Y-92433996D01*
X198249501Y-92327553D01*
X198377553Y-92199501D01*
X198483996Y-92052994D01*
X198566211Y-91891639D01*
X198622171Y-91719409D01*
X198643629Y-91583929D01*
X198650500Y-91540551D01*
X198650500Y-91409493D01*
X205600000Y-91409493D01*
X205600000Y-91590506D01*
X205628317Y-91769293D01*
X205684251Y-91941444D01*
X205684252Y-91941447D01*
X205766431Y-92102730D01*
X205777913Y-92118532D01*
X205777913Y-92118533D01*
X206267037Y-91629409D01*
X206284075Y-91692993D01*
X206349901Y-91807007D01*
X206442993Y-91900099D01*
X206557007Y-91965925D01*
X206620590Y-91982962D01*
X206131466Y-92472085D01*
X206131466Y-92472086D01*
X206147267Y-92483566D01*
X206147275Y-92483571D01*
X206308552Y-92565747D01*
X206308555Y-92565748D01*
X206480706Y-92621682D01*
X206659494Y-92650000D01*
X206840506Y-92650000D01*
X207019293Y-92621682D01*
X207191444Y-92565748D01*
X207191452Y-92565745D01*
X207352730Y-92483568D01*
X207368532Y-92472085D01*
X207368533Y-92472085D01*
X206879410Y-91982962D01*
X206942993Y-91965925D01*
X207057007Y-91900099D01*
X207150099Y-91807007D01*
X207215925Y-91692993D01*
X207232962Y-91629409D01*
X207722085Y-92118532D01*
X207733568Y-92102730D01*
X207815745Y-91941452D01*
X207815748Y-91941444D01*
X207871681Y-91769296D01*
X207877272Y-91733997D01*
X207907201Y-91670861D01*
X207966511Y-91633929D01*
X208036374Y-91634925D01*
X208094607Y-91673534D01*
X208122219Y-91733992D01*
X208127829Y-91769411D01*
X208183787Y-91941636D01*
X208183788Y-91941639D01*
X208239664Y-92051300D01*
X208265869Y-92102730D01*
X208266006Y-92102997D01*
X208372441Y-92249494D01*
X208372445Y-92249499D01*
X208500500Y-92377554D01*
X208500505Y-92377558D01*
X208628287Y-92470396D01*
X208647006Y-92483996D01*
X208752484Y-92537740D01*
X208808360Y-92566211D01*
X208808363Y-92566212D01*
X208894476Y-92594191D01*
X208980591Y-92622171D01*
X209063429Y-92635291D01*
X209159449Y-92650500D01*
X209159454Y-92650500D01*
X209340551Y-92650500D01*
X209427259Y-92636765D01*
X209519409Y-92622171D01*
X209691639Y-92566211D01*
X209852994Y-92483996D01*
X209999501Y-92377553D01*
X210127553Y-92249501D01*
X210233996Y-92102994D01*
X210316211Y-91941639D01*
X210372171Y-91769409D01*
X210377527Y-91735594D01*
X210407456Y-91672459D01*
X210466768Y-91635528D01*
X210536630Y-91636526D01*
X210594863Y-91675136D01*
X210622473Y-91735594D01*
X210627829Y-91769410D01*
X210683787Y-91941636D01*
X210683788Y-91941639D01*
X210739664Y-92051300D01*
X210765869Y-92102730D01*
X210766006Y-92102997D01*
X210872441Y-92249494D01*
X210872445Y-92249499D01*
X211000500Y-92377554D01*
X211000505Y-92377558D01*
X211128287Y-92470396D01*
X211147006Y-92483996D01*
X211252484Y-92537740D01*
X211308360Y-92566211D01*
X211308363Y-92566212D01*
X211394476Y-92594191D01*
X211480591Y-92622171D01*
X211563429Y-92635291D01*
X211659449Y-92650500D01*
X211659454Y-92650500D01*
X211840551Y-92650500D01*
X211927259Y-92636765D01*
X212019409Y-92622171D01*
X212191639Y-92566211D01*
X212352994Y-92483996D01*
X212499501Y-92377553D01*
X212627553Y-92249501D01*
X212733996Y-92102994D01*
X212816211Y-91941639D01*
X212872171Y-91769409D01*
X212887779Y-91670861D01*
X212900500Y-91590551D01*
X212900500Y-91409448D01*
X212884019Y-91305397D01*
X212872171Y-91230591D01*
X212829708Y-91099901D01*
X212816212Y-91058363D01*
X212816211Y-91058360D01*
X212778360Y-90984075D01*
X212733996Y-90897006D01*
X212686379Y-90831466D01*
X212627558Y-90750505D01*
X212627554Y-90750500D01*
X212499499Y-90622445D01*
X212499494Y-90622441D01*
X212352997Y-90516006D01*
X212352996Y-90516005D01*
X212352994Y-90516004D01*
X212278235Y-90477912D01*
X212191639Y-90433788D01*
X212191636Y-90433787D01*
X212019410Y-90377829D01*
X211840551Y-90349500D01*
X211840546Y-90349500D01*
X211659454Y-90349500D01*
X211659449Y-90349500D01*
X211480589Y-90377829D01*
X211308363Y-90433787D01*
X211308360Y-90433788D01*
X211147002Y-90516006D01*
X211000505Y-90622441D01*
X211000500Y-90622445D01*
X210872445Y-90750500D01*
X210872441Y-90750505D01*
X210766006Y-90897002D01*
X210683788Y-91058360D01*
X210683787Y-91058363D01*
X210627829Y-91230589D01*
X210622473Y-91264406D01*
X210592543Y-91327540D01*
X210533232Y-91364471D01*
X210463369Y-91363473D01*
X210405137Y-91324863D01*
X210377527Y-91264406D01*
X210372189Y-91230706D01*
X210372171Y-91230591D01*
X210329708Y-91099901D01*
X210316212Y-91058363D01*
X210316211Y-91058360D01*
X210278360Y-90984075D01*
X210233996Y-90897006D01*
X210186379Y-90831466D01*
X210127558Y-90750505D01*
X210127554Y-90750500D01*
X209999499Y-90622445D01*
X209999494Y-90622441D01*
X209852997Y-90516006D01*
X209852996Y-90516005D01*
X209852994Y-90516004D01*
X209778235Y-90477912D01*
X209691639Y-90433788D01*
X209691636Y-90433787D01*
X209519410Y-90377829D01*
X209340551Y-90349500D01*
X209340546Y-90349500D01*
X209159454Y-90349500D01*
X209159449Y-90349500D01*
X208980589Y-90377829D01*
X208808363Y-90433787D01*
X208808360Y-90433788D01*
X208647002Y-90516006D01*
X208500505Y-90622441D01*
X208500500Y-90622445D01*
X208372445Y-90750500D01*
X208372441Y-90750505D01*
X208266006Y-90897002D01*
X208183788Y-91058360D01*
X208183787Y-91058363D01*
X208127829Y-91230588D01*
X208122219Y-91266007D01*
X208092288Y-91329141D01*
X208032976Y-91366072D01*
X207963113Y-91365072D01*
X207904881Y-91326461D01*
X207877272Y-91266003D01*
X207871681Y-91230702D01*
X207815748Y-91058555D01*
X207815747Y-91058552D01*
X207733571Y-90897275D01*
X207733566Y-90897267D01*
X207722085Y-90881466D01*
X207232962Y-91370589D01*
X207215925Y-91307007D01*
X207150099Y-91192993D01*
X207057007Y-91099901D01*
X206942993Y-91034075D01*
X206879409Y-91017037D01*
X207368533Y-90527913D01*
X207352730Y-90516431D01*
X207191447Y-90434252D01*
X207191444Y-90434251D01*
X207019293Y-90378317D01*
X206840506Y-90350000D01*
X206659494Y-90350000D01*
X206480706Y-90378317D01*
X206308555Y-90434251D01*
X206308547Y-90434254D01*
X206147269Y-90516432D01*
X206131466Y-90527912D01*
X206131466Y-90527913D01*
X206620591Y-91017037D01*
X206557007Y-91034075D01*
X206442993Y-91099901D01*
X206349901Y-91192993D01*
X206284075Y-91307007D01*
X206267037Y-91370590D01*
X205777912Y-90881466D01*
X205766432Y-90897269D01*
X205684254Y-91058547D01*
X205684251Y-91058555D01*
X205628317Y-91230706D01*
X205600000Y-91409493D01*
X198650500Y-91409493D01*
X198650500Y-91359448D01*
X198630090Y-91230589D01*
X198622171Y-91180591D01*
X198582517Y-91058547D01*
X198566212Y-91008363D01*
X198566211Y-91008360D01*
X198501554Y-90881466D01*
X198483996Y-90847006D01*
X198470396Y-90828287D01*
X198377558Y-90700505D01*
X198377554Y-90700500D01*
X198249499Y-90572445D01*
X198249494Y-90572441D01*
X198102997Y-90466006D01*
X198102996Y-90466005D01*
X198102994Y-90466004D01*
X198039765Y-90433787D01*
X197941639Y-90383788D01*
X197941636Y-90383787D01*
X197769410Y-90327829D01*
X197590551Y-90299500D01*
X197590546Y-90299500D01*
X197409454Y-90299500D01*
X197409449Y-90299500D01*
X197230589Y-90327829D01*
X197058363Y-90383787D01*
X197058360Y-90383788D01*
X196897002Y-90466006D01*
X196750505Y-90572441D01*
X196750500Y-90572445D01*
X196622445Y-90700500D01*
X196622441Y-90700505D01*
X196516006Y-90847002D01*
X196433788Y-91008360D01*
X196433787Y-91008363D01*
X196377829Y-91180589D01*
X196372473Y-91214406D01*
X196342543Y-91277540D01*
X196283232Y-91314471D01*
X196213369Y-91313473D01*
X196155137Y-91274863D01*
X196127527Y-91214406D01*
X196122189Y-91180706D01*
X196122171Y-91180591D01*
X196082517Y-91058547D01*
X196066212Y-91008363D01*
X196066211Y-91008360D01*
X196001554Y-90881466D01*
X195983996Y-90847006D01*
X195970396Y-90828287D01*
X195877558Y-90700505D01*
X195877554Y-90700500D01*
X195749499Y-90572445D01*
X195749494Y-90572441D01*
X195602997Y-90466006D01*
X195602996Y-90466005D01*
X195602994Y-90466004D01*
X195539765Y-90433787D01*
X195441639Y-90383788D01*
X195441636Y-90383787D01*
X195269410Y-90327829D01*
X195090551Y-90299500D01*
X195090546Y-90299500D01*
X194909454Y-90299500D01*
X194909449Y-90299500D01*
X194730589Y-90327829D01*
X194558363Y-90383787D01*
X194558360Y-90383788D01*
X194397002Y-90466006D01*
X194250505Y-90572441D01*
X194250500Y-90572445D01*
X194122445Y-90700500D01*
X194122441Y-90700505D01*
X194016006Y-90847002D01*
X193933788Y-91008360D01*
X193933787Y-91008363D01*
X193877829Y-91180588D01*
X193872219Y-91216007D01*
X193842288Y-91279141D01*
X193782976Y-91316072D01*
X193713113Y-91315072D01*
X193654881Y-91276461D01*
X193627272Y-91216003D01*
X193621681Y-91180702D01*
X193565748Y-91008555D01*
X193565747Y-91008552D01*
X193483571Y-90847275D01*
X193483566Y-90847267D01*
X193472085Y-90831466D01*
X192982962Y-91320589D01*
X192965925Y-91257007D01*
X192900099Y-91142993D01*
X192807007Y-91049901D01*
X192692993Y-90984075D01*
X192629409Y-90967037D01*
X193118533Y-90477913D01*
X193102730Y-90466431D01*
X192941447Y-90384252D01*
X192941444Y-90384251D01*
X192769293Y-90328317D01*
X192590506Y-90300000D01*
X192409494Y-90300000D01*
X192230706Y-90328317D01*
X192058555Y-90384251D01*
X192058547Y-90384254D01*
X191897269Y-90466432D01*
X191881466Y-90477912D01*
X191881466Y-90477913D01*
X192370591Y-90967037D01*
X192307007Y-90984075D01*
X192192993Y-91049901D01*
X192099901Y-91142993D01*
X192034075Y-91257007D01*
X192017037Y-91320590D01*
X191527913Y-90831466D01*
X191527912Y-90831466D01*
X191516432Y-90847269D01*
X191434254Y-91008547D01*
X191434251Y-91008555D01*
X191378317Y-91180706D01*
X191350000Y-91359493D01*
X188250500Y-91359493D01*
X188250500Y-85282036D01*
X188270185Y-85214997D01*
X188322989Y-85169242D01*
X188392147Y-85159298D01*
X188455703Y-85188323D01*
X188489061Y-85234583D01*
X188577254Y-85447500D01*
X188577258Y-85447510D01*
X188724761Y-85702993D01*
X188904352Y-85937040D01*
X188904358Y-85937047D01*
X189112952Y-86145641D01*
X189112959Y-86145647D01*
X189347006Y-86325238D01*
X189602489Y-86472741D01*
X189602490Y-86472741D01*
X189602493Y-86472743D01*
X189875048Y-86585639D01*
X190160007Y-86661993D01*
X190452494Y-86700500D01*
X190452501Y-86700500D01*
X190747499Y-86700500D01*
X190747506Y-86700500D01*
X191039993Y-86661993D01*
X191324952Y-86585639D01*
X191597507Y-86472743D01*
X191852994Y-86325238D01*
X192087042Y-86145646D01*
X192295646Y-85937042D01*
X192475238Y-85702994D01*
X192622743Y-85447507D01*
X192735639Y-85174952D01*
X192811993Y-84889993D01*
X192850500Y-84597506D01*
X192850500Y-84302494D01*
X192850499Y-84302486D01*
X197149500Y-84302486D01*
X197149500Y-84597513D01*
X197181571Y-84841113D01*
X197188007Y-84889993D01*
X197201405Y-84939995D01*
X197264361Y-85174951D01*
X197264364Y-85174961D01*
X197377254Y-85447500D01*
X197377258Y-85447510D01*
X197524761Y-85702993D01*
X197704352Y-85937040D01*
X197704358Y-85937047D01*
X197912952Y-86145641D01*
X197912959Y-86145647D01*
X198147006Y-86325238D01*
X198402489Y-86472741D01*
X198402490Y-86472741D01*
X198402493Y-86472743D01*
X198675048Y-86585639D01*
X198960007Y-86661993D01*
X199252494Y-86700500D01*
X199252501Y-86700500D01*
X199547499Y-86700500D01*
X199547506Y-86700500D01*
X199839993Y-86661993D01*
X200124952Y-86585639D01*
X200397507Y-86472743D01*
X200652994Y-86325238D01*
X200887042Y-86145646D01*
X201095646Y-85937042D01*
X201275238Y-85702994D01*
X201422743Y-85447507D01*
X201535639Y-85174952D01*
X201611993Y-84889993D01*
X201650500Y-84597506D01*
X201650500Y-84352486D01*
X202599500Y-84352486D01*
X202599500Y-84647513D01*
X202631423Y-84889984D01*
X202638007Y-84939993D01*
X202711694Y-85214997D01*
X202714361Y-85224951D01*
X202714364Y-85224961D01*
X202827254Y-85497500D01*
X202827258Y-85497510D01*
X202974761Y-85752993D01*
X203154352Y-85987040D01*
X203154358Y-85987047D01*
X203362952Y-86195641D01*
X203362959Y-86195647D01*
X203597006Y-86375238D01*
X203852489Y-86522741D01*
X203852490Y-86522741D01*
X203852493Y-86522743D01*
X204125048Y-86635639D01*
X204410007Y-86711993D01*
X204702494Y-86750500D01*
X204702501Y-86750500D01*
X204997499Y-86750500D01*
X204997506Y-86750500D01*
X205289993Y-86711993D01*
X205574952Y-86635639D01*
X205847507Y-86522743D01*
X206102994Y-86375238D01*
X206337042Y-86195646D01*
X206545646Y-85987042D01*
X206725238Y-85752994D01*
X206872743Y-85497507D01*
X206985639Y-85224952D01*
X207061993Y-84939993D01*
X207100500Y-84647506D01*
X207100500Y-84352494D01*
X207100499Y-84352486D01*
X211399500Y-84352486D01*
X211399500Y-84647513D01*
X211431423Y-84889984D01*
X211438007Y-84939993D01*
X211511694Y-85214997D01*
X211514361Y-85224951D01*
X211514364Y-85224961D01*
X211627254Y-85497500D01*
X211627258Y-85497510D01*
X211774761Y-85752993D01*
X211954352Y-85987040D01*
X211954358Y-85987047D01*
X212162952Y-86195641D01*
X212162959Y-86195647D01*
X212397006Y-86375238D01*
X212652489Y-86522741D01*
X212652490Y-86522741D01*
X212652493Y-86522743D01*
X212925048Y-86635639D01*
X213210007Y-86711993D01*
X213502494Y-86750500D01*
X213502501Y-86750500D01*
X213797499Y-86750500D01*
X213797506Y-86750500D01*
X214089993Y-86711993D01*
X214374952Y-86635639D01*
X214647507Y-86522743D01*
X214902994Y-86375238D01*
X215137042Y-86195646D01*
X215345646Y-85987042D01*
X215525238Y-85752994D01*
X215672743Y-85497507D01*
X215785639Y-85224952D01*
X215861993Y-84939993D01*
X215900500Y-84647506D01*
X215900500Y-84352494D01*
X215861993Y-84060007D01*
X215785639Y-83775048D01*
X215672743Y-83502493D01*
X215643873Y-83452489D01*
X215525238Y-83247006D01*
X215345647Y-83012959D01*
X215345641Y-83012952D01*
X215137047Y-82804358D01*
X215137040Y-82804352D01*
X214902993Y-82624761D01*
X214647510Y-82477258D01*
X214647500Y-82477254D01*
X214374961Y-82364364D01*
X214374954Y-82364362D01*
X214374952Y-82364361D01*
X214089993Y-82288007D01*
X214041113Y-82281571D01*
X213797513Y-82249500D01*
X213797506Y-82249500D01*
X213502494Y-82249500D01*
X213502486Y-82249500D01*
X213224085Y-82286153D01*
X213210007Y-82288007D01*
X212997305Y-82345000D01*
X212925048Y-82364361D01*
X212925038Y-82364364D01*
X212652499Y-82477254D01*
X212652489Y-82477258D01*
X212397006Y-82624761D01*
X212162959Y-82804352D01*
X212162952Y-82804358D01*
X211954358Y-83012952D01*
X211954352Y-83012959D01*
X211774761Y-83247006D01*
X211627258Y-83502489D01*
X211627254Y-83502499D01*
X211514364Y-83775038D01*
X211514361Y-83775048D01*
X211451405Y-84010007D01*
X211438008Y-84060004D01*
X211438006Y-84060015D01*
X211399500Y-84352486D01*
X207100499Y-84352486D01*
X207061993Y-84060007D01*
X206985639Y-83775048D01*
X206872743Y-83502493D01*
X206843873Y-83452489D01*
X206725238Y-83247006D01*
X206545647Y-83012959D01*
X206545641Y-83012952D01*
X206337047Y-82804358D01*
X206337040Y-82804352D01*
X206102993Y-82624761D01*
X205847510Y-82477258D01*
X205847500Y-82477254D01*
X205574961Y-82364364D01*
X205574954Y-82364362D01*
X205574952Y-82364361D01*
X205289993Y-82288007D01*
X205241113Y-82281571D01*
X204997513Y-82249500D01*
X204997506Y-82249500D01*
X204702494Y-82249500D01*
X204702486Y-82249500D01*
X204424085Y-82286153D01*
X204410007Y-82288007D01*
X204197305Y-82345000D01*
X204125048Y-82364361D01*
X204125038Y-82364364D01*
X203852499Y-82477254D01*
X203852489Y-82477258D01*
X203597006Y-82624761D01*
X203362959Y-82804352D01*
X203362952Y-82804358D01*
X203154358Y-83012952D01*
X203154352Y-83012959D01*
X202974761Y-83247006D01*
X202827258Y-83502489D01*
X202827254Y-83502499D01*
X202714364Y-83775038D01*
X202714361Y-83775048D01*
X202651405Y-84010007D01*
X202638008Y-84060004D01*
X202638006Y-84060015D01*
X202599500Y-84352486D01*
X201650500Y-84352486D01*
X201650500Y-84302494D01*
X201611993Y-84010007D01*
X201535639Y-83725048D01*
X201422743Y-83452493D01*
X201275238Y-83197006D01*
X201212695Y-83115499D01*
X201095647Y-82962959D01*
X201095641Y-82962952D01*
X200887047Y-82754358D01*
X200887040Y-82754352D01*
X200652993Y-82574761D01*
X200397510Y-82427258D01*
X200397500Y-82427254D01*
X200124961Y-82314364D01*
X200124954Y-82314362D01*
X200124952Y-82314361D01*
X199839993Y-82238007D01*
X199791113Y-82231571D01*
X199547513Y-82199500D01*
X199547506Y-82199500D01*
X199252494Y-82199500D01*
X199252486Y-82199500D01*
X198974085Y-82236153D01*
X198960007Y-82238007D01*
X198712029Y-82304452D01*
X198675048Y-82314361D01*
X198675038Y-82314364D01*
X198402499Y-82427254D01*
X198402489Y-82427258D01*
X198147006Y-82574761D01*
X197912959Y-82754352D01*
X197912952Y-82754358D01*
X197704358Y-82962952D01*
X197704352Y-82962959D01*
X197524761Y-83197006D01*
X197377258Y-83452489D01*
X197377254Y-83452499D01*
X197264364Y-83725038D01*
X197264361Y-83725048D01*
X197188008Y-84010004D01*
X197188006Y-84010015D01*
X197149500Y-84302486D01*
X192850499Y-84302486D01*
X192811993Y-84010007D01*
X192735639Y-83725048D01*
X192622743Y-83452493D01*
X192475238Y-83197006D01*
X192412695Y-83115499D01*
X192295647Y-82962959D01*
X192295641Y-82962952D01*
X192087047Y-82754358D01*
X192087040Y-82754352D01*
X191852993Y-82574761D01*
X191597510Y-82427258D01*
X191597500Y-82427254D01*
X191324961Y-82314364D01*
X191324954Y-82314362D01*
X191324952Y-82314361D01*
X191039993Y-82238007D01*
X190991113Y-82231571D01*
X190747513Y-82199500D01*
X190747506Y-82199500D01*
X190452494Y-82199500D01*
X190452486Y-82199500D01*
X190174085Y-82236153D01*
X190160007Y-82238007D01*
X189912029Y-82304452D01*
X189875048Y-82314361D01*
X189875038Y-82314364D01*
X189602499Y-82427254D01*
X189602489Y-82427258D01*
X189347006Y-82574761D01*
X189112959Y-82754352D01*
X189112952Y-82754358D01*
X188904358Y-82962952D01*
X188904352Y-82962959D01*
X188724761Y-83197006D01*
X188577258Y-83452489D01*
X188577253Y-83452499D01*
X188489061Y-83665416D01*
X188445220Y-83719819D01*
X188378926Y-83741884D01*
X188311226Y-83724605D01*
X188263616Y-83673467D01*
X188250500Y-83617963D01*
X188250500Y-80857135D01*
X217129500Y-80857135D01*
X217129500Y-82642870D01*
X217129501Y-82642876D01*
X217135908Y-82702483D01*
X217186202Y-82837328D01*
X217186206Y-82837335D01*
X217272452Y-82952544D01*
X217272455Y-82952547D01*
X217387664Y-83038793D01*
X217387671Y-83038797D01*
X217522517Y-83089091D01*
X217522516Y-83089091D01*
X217525056Y-83089364D01*
X217582127Y-83095500D01*
X218917872Y-83095499D01*
X218977483Y-83089091D01*
X219112331Y-83038796D01*
X219227546Y-82952546D01*
X219313796Y-82837331D01*
X219364091Y-82702483D01*
X219370500Y-82642873D01*
X219370499Y-81436809D01*
X219669500Y-81436809D01*
X219669500Y-82063190D01*
X219697089Y-82237384D01*
X219751593Y-82405127D01*
X219831529Y-82562008D01*
X219831662Y-82562270D01*
X219935330Y-82704957D01*
X220060043Y-82829670D01*
X220202730Y-82933338D01*
X220260851Y-82962952D01*
X220359872Y-83013406D01*
X220359874Y-83013406D01*
X220359877Y-83013408D01*
X220438004Y-83038793D01*
X220527615Y-83067910D01*
X220701810Y-83095500D01*
X220701815Y-83095500D01*
X220878190Y-83095500D01*
X221052384Y-83067910D01*
X221053886Y-83067422D01*
X221220123Y-83013408D01*
X221377270Y-82933338D01*
X221519957Y-82829670D01*
X221644670Y-82704957D01*
X221748338Y-82562270D01*
X221828408Y-82405123D01*
X221882910Y-82237384D01*
X221888910Y-82199500D01*
X221910500Y-82063190D01*
X221910500Y-81436848D01*
X222210000Y-81436848D01*
X222210000Y-81500000D01*
X222787291Y-81500000D01*
X222775548Y-81520339D01*
X222735000Y-81671667D01*
X222735000Y-81828333D01*
X222775548Y-81979661D01*
X222787291Y-82000000D01*
X222210000Y-82000000D01*
X222210000Y-82063151D01*
X222237577Y-82237263D01*
X222292057Y-82404933D01*
X222372090Y-82562008D01*
X222475714Y-82704632D01*
X222475714Y-82704633D01*
X222600366Y-82829285D01*
X222742991Y-82932909D01*
X222900064Y-83012942D01*
X223067735Y-83067422D01*
X223080000Y-83069364D01*
X223080000Y-82292709D01*
X223100339Y-82304452D01*
X223251667Y-82345000D01*
X223408333Y-82345000D01*
X223559661Y-82304452D01*
X223580000Y-82292709D01*
X223580000Y-83069363D01*
X223592263Y-83067422D01*
X223592265Y-83067422D01*
X223759935Y-83012942D01*
X223917008Y-82932909D01*
X224059632Y-82829285D01*
X224059633Y-82829285D01*
X224184285Y-82704633D01*
X224184285Y-82704632D01*
X224287909Y-82562008D01*
X224367942Y-82404933D01*
X224422422Y-82237263D01*
X224450000Y-82063151D01*
X224450000Y-82000000D01*
X223872709Y-82000000D01*
X223884452Y-81979661D01*
X223925000Y-81828333D01*
X223925000Y-81671667D01*
X223884452Y-81520339D01*
X223872709Y-81500000D01*
X224450000Y-81500000D01*
X224450000Y-81436848D01*
X224422422Y-81262736D01*
X224367942Y-81095066D01*
X224287909Y-80937991D01*
X224243694Y-80877135D01*
X227879500Y-80877135D01*
X227879500Y-82662870D01*
X227879501Y-82662876D01*
X227885908Y-82722483D01*
X227936202Y-82857328D01*
X227936206Y-82857335D01*
X228022452Y-82972544D01*
X228022455Y-82972547D01*
X228137664Y-83058793D01*
X228137671Y-83058797D01*
X228272517Y-83109091D01*
X228272516Y-83109091D01*
X228279444Y-83109835D01*
X228332127Y-83115500D01*
X229667872Y-83115499D01*
X229727483Y-83109091D01*
X229862331Y-83058796D01*
X229977546Y-82972546D01*
X230063796Y-82857331D01*
X230114091Y-82722483D01*
X230120500Y-82662873D01*
X230120499Y-81456809D01*
X230419500Y-81456809D01*
X230419500Y-82083190D01*
X230447089Y-82257384D01*
X230501593Y-82425127D01*
X230581529Y-82582008D01*
X230581662Y-82582270D01*
X230685330Y-82724957D01*
X230810043Y-82849670D01*
X230952730Y-82953338D01*
X230990428Y-82972546D01*
X231109872Y-83033406D01*
X231109874Y-83033406D01*
X231109877Y-83033408D01*
X231126463Y-83038797D01*
X231277615Y-83087910D01*
X231451810Y-83115500D01*
X231451815Y-83115500D01*
X231628190Y-83115500D01*
X231802384Y-83087910D01*
X231863937Y-83067910D01*
X231970123Y-83033408D01*
X232127270Y-82953338D01*
X232269957Y-82849670D01*
X232394670Y-82724957D01*
X232498338Y-82582270D01*
X232578408Y-82425123D01*
X232632910Y-82257384D01*
X232642737Y-82195338D01*
X232660500Y-82083190D01*
X232660500Y-81456848D01*
X232960000Y-81456848D01*
X232960000Y-81520000D01*
X233537291Y-81520000D01*
X233525548Y-81540339D01*
X233485000Y-81691667D01*
X233485000Y-81848333D01*
X233525548Y-81999661D01*
X233537291Y-82020000D01*
X232960000Y-82020000D01*
X232960000Y-82083151D01*
X232987577Y-82257263D01*
X233042057Y-82424933D01*
X233122090Y-82582008D01*
X233225714Y-82724632D01*
X233225714Y-82724633D01*
X233350366Y-82849285D01*
X233492991Y-82952909D01*
X233650064Y-83032942D01*
X233817735Y-83087422D01*
X233830000Y-83089364D01*
X233830000Y-82312709D01*
X233850339Y-82324452D01*
X234001667Y-82365000D01*
X234158333Y-82365000D01*
X234309661Y-82324452D01*
X234330000Y-82312709D01*
X234330000Y-83089363D01*
X234342263Y-83087422D01*
X234342265Y-83087422D01*
X234509935Y-83032942D01*
X234667008Y-82952909D01*
X234809632Y-82849285D01*
X234809633Y-82849285D01*
X234934285Y-82724633D01*
X234934285Y-82724632D01*
X235037909Y-82582008D01*
X235117942Y-82424933D01*
X235172422Y-82257263D01*
X235200000Y-82083151D01*
X235200000Y-82020000D01*
X234622709Y-82020000D01*
X234634452Y-81999661D01*
X234675000Y-81848333D01*
X234675000Y-81691667D01*
X234634452Y-81540339D01*
X234622709Y-81520000D01*
X235200000Y-81520000D01*
X235200000Y-81456848D01*
X235172422Y-81282736D01*
X235117942Y-81115066D01*
X235054270Y-80990101D01*
X235054269Y-80990099D01*
X235037911Y-80957993D01*
X235022756Y-80937135D01*
X238629500Y-80937135D01*
X238629500Y-82722870D01*
X238629501Y-82722876D01*
X238635908Y-82782483D01*
X238686202Y-82917328D01*
X238686206Y-82917335D01*
X238772452Y-83032544D01*
X238772455Y-83032547D01*
X238887664Y-83118793D01*
X238887671Y-83118797D01*
X239022517Y-83169091D01*
X239022516Y-83169091D01*
X239029444Y-83169835D01*
X239082127Y-83175500D01*
X240417872Y-83175499D01*
X240477483Y-83169091D01*
X240612331Y-83118796D01*
X240727546Y-83032546D01*
X240813796Y-82917331D01*
X240864091Y-82782483D01*
X240870500Y-82722873D01*
X240870499Y-81516809D01*
X241169500Y-81516809D01*
X241169500Y-82143190D01*
X241197089Y-82317384D01*
X241251593Y-82485127D01*
X241322741Y-82624761D01*
X241331662Y-82642270D01*
X241435330Y-82784957D01*
X241560043Y-82909670D01*
X241702730Y-83013338D01*
X241776975Y-83051167D01*
X241859872Y-83093406D01*
X241859874Y-83093406D01*
X241859877Y-83093408D01*
X241927863Y-83115498D01*
X242027615Y-83147910D01*
X242201810Y-83175500D01*
X242201815Y-83175500D01*
X242378190Y-83175500D01*
X242552384Y-83147910D01*
X242553886Y-83147422D01*
X242720123Y-83093408D01*
X242877270Y-83013338D01*
X243019957Y-82909670D01*
X243144670Y-82784957D01*
X243248338Y-82642270D01*
X243328408Y-82485123D01*
X243382910Y-82317384D01*
X243393662Y-82249500D01*
X243410500Y-82143190D01*
X243410500Y-81516848D01*
X243710000Y-81516848D01*
X243710000Y-81580000D01*
X244287291Y-81580000D01*
X244275548Y-81600339D01*
X244235000Y-81751667D01*
X244235000Y-81908333D01*
X244275548Y-82059661D01*
X244287291Y-82080000D01*
X243710000Y-82080000D01*
X243710000Y-82143151D01*
X243737577Y-82317263D01*
X243792057Y-82484933D01*
X243872090Y-82642008D01*
X243975714Y-82784632D01*
X243975714Y-82784633D01*
X244100366Y-82909285D01*
X244242991Y-83012909D01*
X244400064Y-83092942D01*
X244567735Y-83147422D01*
X244580000Y-83149364D01*
X244580000Y-82372709D01*
X244600339Y-82384452D01*
X244751667Y-82425000D01*
X244908333Y-82425000D01*
X245059661Y-82384452D01*
X245080000Y-82372709D01*
X245080000Y-83149363D01*
X245092263Y-83147422D01*
X245092265Y-83147422D01*
X245259935Y-83092942D01*
X245417008Y-83012909D01*
X245559632Y-82909285D01*
X245559633Y-82909285D01*
X245684285Y-82784633D01*
X245684285Y-82784632D01*
X245787909Y-82642008D01*
X245867942Y-82484933D01*
X245922422Y-82317263D01*
X245950000Y-82143151D01*
X245950000Y-82080000D01*
X245372709Y-82080000D01*
X245384452Y-82059661D01*
X245425000Y-81908333D01*
X245425000Y-81751667D01*
X245384452Y-81600339D01*
X245372709Y-81580000D01*
X245950000Y-81580000D01*
X245950000Y-81516848D01*
X245922422Y-81342736D01*
X245867942Y-81175066D01*
X245787909Y-81017991D01*
X245736107Y-80946692D01*
X245685570Y-80877135D01*
X249399500Y-80877135D01*
X249399500Y-82662870D01*
X249399501Y-82662876D01*
X249405908Y-82722483D01*
X249456202Y-82857328D01*
X249456206Y-82857335D01*
X249542452Y-82972544D01*
X249542455Y-82972547D01*
X249657664Y-83058793D01*
X249657671Y-83058797D01*
X249792517Y-83109091D01*
X249792516Y-83109091D01*
X249799444Y-83109835D01*
X249852127Y-83115500D01*
X251187872Y-83115499D01*
X251247483Y-83109091D01*
X251382331Y-83058796D01*
X251497546Y-82972546D01*
X251583796Y-82857331D01*
X251634091Y-82722483D01*
X251640500Y-82662873D01*
X251640499Y-81456809D01*
X251939500Y-81456809D01*
X251939500Y-82083190D01*
X251967089Y-82257384D01*
X252021593Y-82425127D01*
X252101529Y-82582008D01*
X252101662Y-82582270D01*
X252205330Y-82724957D01*
X252330043Y-82849670D01*
X252472730Y-82953338D01*
X252510428Y-82972546D01*
X252629872Y-83033406D01*
X252629874Y-83033406D01*
X252629877Y-83033408D01*
X252646463Y-83038797D01*
X252797615Y-83087910D01*
X252971810Y-83115500D01*
X252971815Y-83115500D01*
X253148190Y-83115500D01*
X253322384Y-83087910D01*
X253383937Y-83067910D01*
X253490123Y-83033408D01*
X253647270Y-82953338D01*
X253789957Y-82849670D01*
X253914670Y-82724957D01*
X254018338Y-82582270D01*
X254098408Y-82425123D01*
X254152910Y-82257384D01*
X254162737Y-82195338D01*
X254180500Y-82083190D01*
X254180500Y-81456809D01*
X254152910Y-81282615D01*
X254098406Y-81114872D01*
X254018335Y-80957725D01*
X253995788Y-80926692D01*
X253995787Y-80926691D01*
X253945251Y-80857135D01*
X257669500Y-80857135D01*
X257669500Y-82642870D01*
X257669501Y-82642876D01*
X257675908Y-82702483D01*
X257726202Y-82837328D01*
X257726206Y-82837335D01*
X257812452Y-82952544D01*
X257812455Y-82952547D01*
X257927664Y-83038793D01*
X257927671Y-83038797D01*
X258062517Y-83089091D01*
X258062516Y-83089091D01*
X258065056Y-83089364D01*
X258122127Y-83095500D01*
X259457872Y-83095499D01*
X259517483Y-83089091D01*
X259652331Y-83038796D01*
X259767546Y-82952546D01*
X259853796Y-82837331D01*
X259904091Y-82702483D01*
X259910500Y-82642873D01*
X259910499Y-81436809D01*
X260209500Y-81436809D01*
X260209500Y-82063190D01*
X260237089Y-82237384D01*
X260291593Y-82405127D01*
X260371529Y-82562008D01*
X260371662Y-82562270D01*
X260475330Y-82704957D01*
X260600043Y-82829670D01*
X260742730Y-82933338D01*
X260800851Y-82962952D01*
X260899872Y-83013406D01*
X260899874Y-83013406D01*
X260899877Y-83013408D01*
X260978004Y-83038793D01*
X261067615Y-83067910D01*
X261241810Y-83095500D01*
X261241815Y-83095500D01*
X261418190Y-83095500D01*
X261592384Y-83067910D01*
X261593886Y-83067422D01*
X261760123Y-83013408D01*
X261917270Y-82933338D01*
X262059957Y-82829670D01*
X262184670Y-82704957D01*
X262288338Y-82562270D01*
X262368408Y-82405123D01*
X262422910Y-82237384D01*
X262428910Y-82199500D01*
X262450500Y-82063190D01*
X262450500Y-81436809D01*
X262422910Y-81262615D01*
X262368406Y-81094872D01*
X262292904Y-80946692D01*
X262288338Y-80937730D01*
X262184670Y-80795043D01*
X262059957Y-80670330D01*
X261917270Y-80566662D01*
X261879572Y-80547454D01*
X261760127Y-80486593D01*
X261592384Y-80432089D01*
X261418190Y-80404500D01*
X261418185Y-80404500D01*
X261241815Y-80404500D01*
X261241810Y-80404500D01*
X261067615Y-80432089D01*
X260899872Y-80486593D01*
X260742729Y-80566662D01*
X260600040Y-80670332D01*
X260475332Y-80795040D01*
X260371662Y-80937729D01*
X260291593Y-81094872D01*
X260237089Y-81262615D01*
X260209500Y-81436809D01*
X259910499Y-81436809D01*
X259910499Y-80857128D01*
X259904091Y-80797517D01*
X259903168Y-80795043D01*
X259853797Y-80662671D01*
X259853793Y-80662664D01*
X259767547Y-80547455D01*
X259767544Y-80547452D01*
X259652335Y-80461206D01*
X259652328Y-80461202D01*
X259517482Y-80410908D01*
X259517483Y-80410908D01*
X259457883Y-80404501D01*
X259457881Y-80404500D01*
X259457873Y-80404500D01*
X259457864Y-80404500D01*
X258122129Y-80404500D01*
X258122123Y-80404501D01*
X258062516Y-80410908D01*
X257927671Y-80461202D01*
X257927664Y-80461206D01*
X257812455Y-80547452D01*
X257812452Y-80547455D01*
X257726206Y-80662664D01*
X257726202Y-80662671D01*
X257675908Y-80797517D01*
X257669501Y-80857116D01*
X257669501Y-80857123D01*
X257669500Y-80857135D01*
X253945251Y-80857135D01*
X253914905Y-80815367D01*
X253914670Y-80815043D01*
X253789957Y-80690330D01*
X253647270Y-80586662D01*
X253609572Y-80567454D01*
X253490127Y-80506593D01*
X253322384Y-80452089D01*
X253148190Y-80424500D01*
X253148185Y-80424500D01*
X252971815Y-80424500D01*
X252971810Y-80424500D01*
X252797615Y-80452089D01*
X252629872Y-80506593D01*
X252472729Y-80586662D01*
X252330040Y-80690332D01*
X252205332Y-80815040D01*
X252101662Y-80957729D01*
X252021593Y-81114872D01*
X251967089Y-81282615D01*
X251939500Y-81456809D01*
X251640499Y-81456809D01*
X251640499Y-80877128D01*
X251634091Y-80817517D01*
X251633169Y-80815046D01*
X251583797Y-80682671D01*
X251583793Y-80682664D01*
X251497547Y-80567455D01*
X251497544Y-80567452D01*
X251382335Y-80481206D01*
X251382328Y-80481202D01*
X251247482Y-80430908D01*
X251247483Y-80430908D01*
X251187883Y-80424501D01*
X251187881Y-80424500D01*
X251187873Y-80424500D01*
X251187864Y-80424500D01*
X249852129Y-80424500D01*
X249852123Y-80424501D01*
X249792516Y-80430908D01*
X249657671Y-80481202D01*
X249657664Y-80481206D01*
X249542455Y-80567452D01*
X249542452Y-80567455D01*
X249456206Y-80682664D01*
X249456202Y-80682671D01*
X249405908Y-80817517D01*
X249401650Y-80857127D01*
X249399501Y-80877123D01*
X249399500Y-80877135D01*
X245685570Y-80877135D01*
X245684285Y-80875367D01*
X245684285Y-80875366D01*
X245559633Y-80750714D01*
X245417008Y-80647090D01*
X245259933Y-80567057D01*
X245092263Y-80512577D01*
X245080000Y-80510634D01*
X245080000Y-81287290D01*
X245059661Y-81275548D01*
X244908333Y-81235000D01*
X244751667Y-81235000D01*
X244600339Y-81275548D01*
X244580000Y-81287290D01*
X244580000Y-80510635D01*
X244579999Y-80510634D01*
X244567736Y-80512577D01*
X244400066Y-80567057D01*
X244242991Y-80647090D01*
X244100367Y-80750714D01*
X244100366Y-80750714D01*
X243975714Y-80875366D01*
X243975714Y-80875367D01*
X243872090Y-81017991D01*
X243792057Y-81175066D01*
X243737577Y-81342736D01*
X243710000Y-81516848D01*
X243410500Y-81516848D01*
X243410500Y-81516809D01*
X243382910Y-81342615D01*
X243328406Y-81174872D01*
X243286167Y-81091975D01*
X243248338Y-81017730D01*
X243144670Y-80875043D01*
X243019957Y-80750330D01*
X242877270Y-80646662D01*
X242839572Y-80627454D01*
X242720127Y-80566593D01*
X242552384Y-80512089D01*
X242378190Y-80484500D01*
X242378185Y-80484500D01*
X242201815Y-80484500D01*
X242201810Y-80484500D01*
X242027615Y-80512089D01*
X241859872Y-80566593D01*
X241702729Y-80646662D01*
X241560040Y-80750332D01*
X241435332Y-80875040D01*
X241331662Y-81017729D01*
X241251593Y-81174872D01*
X241197089Y-81342615D01*
X241169500Y-81516809D01*
X240870499Y-81516809D01*
X240870499Y-80937128D01*
X240864091Y-80877517D01*
X240863946Y-80877129D01*
X240813797Y-80742671D01*
X240813793Y-80742664D01*
X240727547Y-80627455D01*
X240727544Y-80627452D01*
X240612335Y-80541206D01*
X240612328Y-80541202D01*
X240477482Y-80490908D01*
X240477483Y-80490908D01*
X240417883Y-80484501D01*
X240417881Y-80484500D01*
X240417873Y-80484500D01*
X240417864Y-80484500D01*
X239082129Y-80484500D01*
X239082123Y-80484501D01*
X239022516Y-80490908D01*
X238887671Y-80541202D01*
X238887664Y-80541206D01*
X238772455Y-80627452D01*
X238772452Y-80627455D01*
X238686206Y-80742664D01*
X238686202Y-80742671D01*
X238635908Y-80877517D01*
X238630622Y-80926691D01*
X238629501Y-80937123D01*
X238629500Y-80937135D01*
X235022756Y-80937135D01*
X234934285Y-80815367D01*
X234934285Y-80815366D01*
X234809633Y-80690714D01*
X234667008Y-80587090D01*
X234509933Y-80507057D01*
X234342263Y-80452577D01*
X234330000Y-80450634D01*
X234330000Y-81227290D01*
X234309661Y-81215548D01*
X234158333Y-81175000D01*
X234001667Y-81175000D01*
X233850339Y-81215548D01*
X233830000Y-81227290D01*
X233830000Y-80450635D01*
X233829999Y-80450634D01*
X233817736Y-80452577D01*
X233650066Y-80507057D01*
X233492991Y-80587090D01*
X233350367Y-80690714D01*
X233350366Y-80690714D01*
X233225714Y-80815366D01*
X233225714Y-80815367D01*
X233122090Y-80957991D01*
X233042057Y-81115066D01*
X232987577Y-81282736D01*
X232960000Y-81456848D01*
X232660500Y-81456848D01*
X232660500Y-81456809D01*
X232632910Y-81282615D01*
X232578406Y-81114872D01*
X232528909Y-81017729D01*
X232498338Y-80957730D01*
X232394670Y-80815043D01*
X232269957Y-80690330D01*
X232127270Y-80586662D01*
X232089572Y-80567454D01*
X231970127Y-80506593D01*
X231802384Y-80452089D01*
X231628190Y-80424500D01*
X231628185Y-80424500D01*
X231451815Y-80424500D01*
X231451810Y-80424500D01*
X231277615Y-80452089D01*
X231109872Y-80506593D01*
X230952729Y-80586662D01*
X230810040Y-80690332D01*
X230685332Y-80815040D01*
X230581662Y-80957729D01*
X230501593Y-81114872D01*
X230447089Y-81282615D01*
X230419500Y-81456809D01*
X230120499Y-81456809D01*
X230120499Y-80877128D01*
X230114091Y-80817517D01*
X230113169Y-80815046D01*
X230063797Y-80682671D01*
X230063793Y-80682664D01*
X229977547Y-80567455D01*
X229977544Y-80567452D01*
X229862335Y-80481206D01*
X229862328Y-80481202D01*
X229727482Y-80430908D01*
X229727483Y-80430908D01*
X229667883Y-80424501D01*
X229667881Y-80424500D01*
X229667873Y-80424500D01*
X229667864Y-80424500D01*
X228332129Y-80424500D01*
X228332123Y-80424501D01*
X228272516Y-80430908D01*
X228137671Y-80481202D01*
X228137664Y-80481206D01*
X228022455Y-80567452D01*
X228022452Y-80567455D01*
X227936206Y-80682664D01*
X227936202Y-80682671D01*
X227885908Y-80817517D01*
X227881650Y-80857127D01*
X227879501Y-80877123D01*
X227879500Y-80877135D01*
X224243694Y-80877135D01*
X224184285Y-80795367D01*
X224184285Y-80795366D01*
X224059633Y-80670714D01*
X223917008Y-80567090D01*
X223759933Y-80487057D01*
X223592263Y-80432577D01*
X223580000Y-80430634D01*
X223580000Y-81207290D01*
X223559661Y-81195548D01*
X223408333Y-81155000D01*
X223251667Y-81155000D01*
X223100339Y-81195548D01*
X223080000Y-81207290D01*
X223080000Y-80430635D01*
X223079999Y-80430634D01*
X223067736Y-80432577D01*
X222900066Y-80487057D01*
X222742991Y-80567090D01*
X222600367Y-80670714D01*
X222600366Y-80670714D01*
X222475714Y-80795366D01*
X222475714Y-80795367D01*
X222372090Y-80937991D01*
X222292057Y-81095066D01*
X222237577Y-81262736D01*
X222210000Y-81436848D01*
X221910500Y-81436848D01*
X221910500Y-81436809D01*
X221882910Y-81262615D01*
X221828406Y-81094872D01*
X221752904Y-80946692D01*
X221748338Y-80937730D01*
X221644670Y-80795043D01*
X221519957Y-80670330D01*
X221377270Y-80566662D01*
X221339572Y-80547454D01*
X221220127Y-80486593D01*
X221052384Y-80432089D01*
X220878190Y-80404500D01*
X220878185Y-80404500D01*
X220701815Y-80404500D01*
X220701810Y-80404500D01*
X220527615Y-80432089D01*
X220359872Y-80486593D01*
X220202729Y-80566662D01*
X220060040Y-80670332D01*
X219935332Y-80795040D01*
X219831662Y-80937729D01*
X219751593Y-81094872D01*
X219697089Y-81262615D01*
X219669500Y-81436809D01*
X219370499Y-81436809D01*
X219370499Y-80857128D01*
X219364091Y-80797517D01*
X219363168Y-80795043D01*
X219313797Y-80662671D01*
X219313793Y-80662664D01*
X219227547Y-80547455D01*
X219227544Y-80547452D01*
X219112335Y-80461206D01*
X219112328Y-80461202D01*
X218977482Y-80410908D01*
X218977483Y-80410908D01*
X218917883Y-80404501D01*
X218917881Y-80404500D01*
X218917873Y-80404500D01*
X218917864Y-80404500D01*
X217582129Y-80404500D01*
X217582123Y-80404501D01*
X217522516Y-80410908D01*
X217387671Y-80461202D01*
X217387664Y-80461206D01*
X217272455Y-80547452D01*
X217272452Y-80547455D01*
X217186206Y-80662664D01*
X217186202Y-80662671D01*
X217135908Y-80797517D01*
X217129501Y-80857116D01*
X217129501Y-80857123D01*
X217129500Y-80857135D01*
X188250500Y-80857135D01*
X188250500Y-79006961D01*
X188251280Y-78993077D01*
X188251280Y-78993076D01*
X188261460Y-78902729D01*
X188267635Y-78875670D01*
X188295353Y-78796456D01*
X188307396Y-78771450D01*
X188352046Y-78700389D01*
X188369351Y-78678690D01*
X188428690Y-78619351D01*
X188450389Y-78602046D01*
X188521450Y-78557396D01*
X188546456Y-78545353D01*
X188625670Y-78517635D01*
X188652733Y-78511459D01*
X188715419Y-78504396D01*
X188743079Y-78501280D01*
X188756962Y-78500500D01*
X188815892Y-78500500D01*
X265934108Y-78500500D01*
X265993038Y-78500500D01*
X266006922Y-78501280D01*
G37*
%TD.AperFunction*%
%TD*%
M02*
