%TF.GenerationSoftware,KiCad,Pcbnew,9.0.0*%
%TF.CreationDate,2025-03-25T21:18:25-04:00*%
%TF.ProjectId,interrupter,696e7465-7272-4757-9074-65722e6b6963,rev?*%
%TF.SameCoordinates,Original*%
%TF.FileFunction,Legend,Top*%
%TF.FilePolarity,Positive*%
%FSLAX46Y46*%
G04 Gerber Fmt 4.6, Leading zero omitted, Abs format (unit mm)*
G04 Created by KiCad (PCBNEW 9.0.0) date 2025-03-25 21:18:25*
%MOMM*%
%LPD*%
G01*
G04 APERTURE LIST*
%ADD10C,0.100000*%
%ADD11C,0.500000*%
%ADD12C,0.200000*%
%ADD13C,0.150000*%
%ADD14C,0.120000*%
G04 APERTURE END LIST*
D10*
X216911027Y-85622419D02*
X217244360Y-86622419D01*
X217244360Y-86622419D02*
X217577693Y-85622419D01*
X217911027Y-86622419D02*
X217911027Y-85622419D01*
X217911027Y-85622419D02*
X218244360Y-86336704D01*
X218244360Y-86336704D02*
X218577693Y-85622419D01*
X218577693Y-85622419D02*
X218577693Y-86622419D01*
X219006265Y-86336704D02*
X219482455Y-86336704D01*
X218911027Y-86622419D02*
X219244360Y-85622419D01*
X219244360Y-85622419D02*
X219577693Y-86622419D01*
X219815789Y-85622419D02*
X220482455Y-86622419D01*
X220482455Y-85622419D02*
X219815789Y-86622419D01*
X214077693Y-104670038D02*
X213982455Y-104622419D01*
X213982455Y-104622419D02*
X213839598Y-104622419D01*
X213839598Y-104622419D02*
X213696741Y-104670038D01*
X213696741Y-104670038D02*
X213601503Y-104765276D01*
X213601503Y-104765276D02*
X213553884Y-104860514D01*
X213553884Y-104860514D02*
X213506265Y-105050990D01*
X213506265Y-105050990D02*
X213506265Y-105193847D01*
X213506265Y-105193847D02*
X213553884Y-105384323D01*
X213553884Y-105384323D02*
X213601503Y-105479561D01*
X213601503Y-105479561D02*
X213696741Y-105574800D01*
X213696741Y-105574800D02*
X213839598Y-105622419D01*
X213839598Y-105622419D02*
X213934836Y-105622419D01*
X213934836Y-105622419D02*
X214077693Y-105574800D01*
X214077693Y-105574800D02*
X214125312Y-105527180D01*
X214125312Y-105527180D02*
X214125312Y-105193847D01*
X214125312Y-105193847D02*
X213934836Y-105193847D01*
X214553884Y-105622419D02*
X214553884Y-104622419D01*
X214553884Y-104622419D02*
X215125312Y-105622419D01*
X215125312Y-105622419D02*
X215125312Y-104622419D01*
X215601503Y-105622419D02*
X215601503Y-104622419D01*
X215601503Y-104622419D02*
X215839598Y-104622419D01*
X215839598Y-104622419D02*
X215982455Y-104670038D01*
X215982455Y-104670038D02*
X216077693Y-104765276D01*
X216077693Y-104765276D02*
X216125312Y-104860514D01*
X216125312Y-104860514D02*
X216172931Y-105050990D01*
X216172931Y-105050990D02*
X216172931Y-105193847D01*
X216172931Y-105193847D02*
X216125312Y-105384323D01*
X216125312Y-105384323D02*
X216077693Y-105479561D01*
X216077693Y-105479561D02*
X215982455Y-105574800D01*
X215982455Y-105574800D02*
X215839598Y-105622419D01*
X215839598Y-105622419D02*
X215601503Y-105622419D01*
D11*
X248614661Y-113889238D02*
X249186089Y-114079714D01*
X249186089Y-114079714D02*
X249376566Y-114270190D01*
X249376566Y-114270190D02*
X249567042Y-114651142D01*
X249567042Y-114651142D02*
X249567042Y-115222571D01*
X249567042Y-115222571D02*
X249376566Y-115603523D01*
X249376566Y-115603523D02*
X249186089Y-115794000D01*
X249186089Y-115794000D02*
X248805137Y-115984476D01*
X248805137Y-115984476D02*
X247281327Y-115984476D01*
X247281327Y-115984476D02*
X247281327Y-111984476D01*
X247281327Y-111984476D02*
X248614661Y-111984476D01*
X248614661Y-111984476D02*
X248995613Y-112174952D01*
X248995613Y-112174952D02*
X249186089Y-112365428D01*
X249186089Y-112365428D02*
X249376566Y-112746380D01*
X249376566Y-112746380D02*
X249376566Y-113127333D01*
X249376566Y-113127333D02*
X249186089Y-113508285D01*
X249186089Y-113508285D02*
X248995613Y-113698761D01*
X248995613Y-113698761D02*
X248614661Y-113889238D01*
X248614661Y-113889238D02*
X247281327Y-113889238D01*
X251281327Y-114460666D02*
X254328947Y-114460666D01*
X252805137Y-115984476D02*
X252805137Y-112936857D01*
D10*
X222661027Y-99372419D02*
X223232455Y-99372419D01*
X222946741Y-100372419D02*
X222946741Y-99372419D01*
X223470551Y-99372419D02*
X224137217Y-100372419D01*
X224137217Y-99372419D02*
X223470551Y-100372419D01*
X223375312Y-108192180D02*
X223327693Y-108239800D01*
X223327693Y-108239800D02*
X223184836Y-108287419D01*
X223184836Y-108287419D02*
X223089598Y-108287419D01*
X223089598Y-108287419D02*
X222946741Y-108239800D01*
X222946741Y-108239800D02*
X222851503Y-108144561D01*
X222851503Y-108144561D02*
X222803884Y-108049323D01*
X222803884Y-108049323D02*
X222756265Y-107858847D01*
X222756265Y-107858847D02*
X222756265Y-107715990D01*
X222756265Y-107715990D02*
X222803884Y-107525514D01*
X222803884Y-107525514D02*
X222851503Y-107430276D01*
X222851503Y-107430276D02*
X222946741Y-107335038D01*
X222946741Y-107335038D02*
X223089598Y-107287419D01*
X223089598Y-107287419D02*
X223184836Y-107287419D01*
X223184836Y-107287419D02*
X223327693Y-107335038D01*
X223327693Y-107335038D02*
X223375312Y-107382657D01*
X224280074Y-108287419D02*
X223803884Y-108287419D01*
X223803884Y-108287419D02*
X223803884Y-107287419D01*
X224613408Y-108287419D02*
X224613408Y-107287419D01*
X225184836Y-108287419D02*
X224756265Y-107715990D01*
X225184836Y-107287419D02*
X224613408Y-107858847D01*
X228137217Y-86098609D02*
X228280074Y-86146228D01*
X228280074Y-86146228D02*
X228327693Y-86193847D01*
X228327693Y-86193847D02*
X228375312Y-86289085D01*
X228375312Y-86289085D02*
X228375312Y-86431942D01*
X228375312Y-86431942D02*
X228327693Y-86527180D01*
X228327693Y-86527180D02*
X228280074Y-86574800D01*
X228280074Y-86574800D02*
X228184836Y-86622419D01*
X228184836Y-86622419D02*
X227803884Y-86622419D01*
X227803884Y-86622419D02*
X227803884Y-85622419D01*
X227803884Y-85622419D02*
X228137217Y-85622419D01*
X228137217Y-85622419D02*
X228232455Y-85670038D01*
X228232455Y-85670038D02*
X228280074Y-85717657D01*
X228280074Y-85717657D02*
X228327693Y-85812895D01*
X228327693Y-85812895D02*
X228327693Y-85908133D01*
X228327693Y-85908133D02*
X228280074Y-86003371D01*
X228280074Y-86003371D02*
X228232455Y-86050990D01*
X228232455Y-86050990D02*
X228137217Y-86098609D01*
X228137217Y-86098609D02*
X227803884Y-86098609D01*
X228803884Y-86622419D02*
X228803884Y-85622419D01*
X228803884Y-85622419D02*
X229184836Y-85622419D01*
X229184836Y-85622419D02*
X229280074Y-85670038D01*
X229280074Y-85670038D02*
X229327693Y-85717657D01*
X229327693Y-85717657D02*
X229375312Y-85812895D01*
X229375312Y-85812895D02*
X229375312Y-85955752D01*
X229375312Y-85955752D02*
X229327693Y-86050990D01*
X229327693Y-86050990D02*
X229280074Y-86098609D01*
X229280074Y-86098609D02*
X229184836Y-86146228D01*
X229184836Y-86146228D02*
X228803884Y-86146228D01*
X229756265Y-86574800D02*
X229899122Y-86622419D01*
X229899122Y-86622419D02*
X230137217Y-86622419D01*
X230137217Y-86622419D02*
X230232455Y-86574800D01*
X230232455Y-86574800D02*
X230280074Y-86527180D01*
X230280074Y-86527180D02*
X230327693Y-86431942D01*
X230327693Y-86431942D02*
X230327693Y-86336704D01*
X230327693Y-86336704D02*
X230280074Y-86241466D01*
X230280074Y-86241466D02*
X230232455Y-86193847D01*
X230232455Y-86193847D02*
X230137217Y-86146228D01*
X230137217Y-86146228D02*
X229946741Y-86098609D01*
X229946741Y-86098609D02*
X229851503Y-86050990D01*
X229851503Y-86050990D02*
X229803884Y-86003371D01*
X229803884Y-86003371D02*
X229756265Y-85908133D01*
X229756265Y-85908133D02*
X229756265Y-85812895D01*
X229756265Y-85812895D02*
X229803884Y-85717657D01*
X229803884Y-85717657D02*
X229851503Y-85670038D01*
X229851503Y-85670038D02*
X229946741Y-85622419D01*
X229946741Y-85622419D02*
X230184836Y-85622419D01*
X230184836Y-85622419D02*
X230327693Y-85670038D01*
D12*
X198357768Y-115482933D02*
X199881578Y-115482933D01*
D10*
X214053884Y-108122419D02*
X214053884Y-107122419D01*
X214053884Y-107122419D02*
X214291979Y-107122419D01*
X214291979Y-107122419D02*
X214434836Y-107170038D01*
X214434836Y-107170038D02*
X214530074Y-107265276D01*
X214530074Y-107265276D02*
X214577693Y-107360514D01*
X214577693Y-107360514D02*
X214625312Y-107550990D01*
X214625312Y-107550990D02*
X214625312Y-107693847D01*
X214625312Y-107693847D02*
X214577693Y-107884323D01*
X214577693Y-107884323D02*
X214530074Y-107979561D01*
X214530074Y-107979561D02*
X214434836Y-108074800D01*
X214434836Y-108074800D02*
X214291979Y-108122419D01*
X214291979Y-108122419D02*
X214053884Y-108122419D01*
X215053884Y-108122419D02*
X215053884Y-107122419D01*
X215720550Y-107122419D02*
X215911026Y-107122419D01*
X215911026Y-107122419D02*
X216006264Y-107170038D01*
X216006264Y-107170038D02*
X216101502Y-107265276D01*
X216101502Y-107265276D02*
X216149121Y-107455752D01*
X216149121Y-107455752D02*
X216149121Y-107789085D01*
X216149121Y-107789085D02*
X216101502Y-107979561D01*
X216101502Y-107979561D02*
X216006264Y-108074800D01*
X216006264Y-108074800D02*
X215911026Y-108122419D01*
X215911026Y-108122419D02*
X215720550Y-108122419D01*
X215720550Y-108122419D02*
X215625312Y-108074800D01*
X215625312Y-108074800D02*
X215530074Y-107979561D01*
X215530074Y-107979561D02*
X215482455Y-107789085D01*
X215482455Y-107789085D02*
X215482455Y-107455752D01*
X215482455Y-107455752D02*
X215530074Y-107265276D01*
X215530074Y-107265276D02*
X215625312Y-107170038D01*
X215625312Y-107170038D02*
X215720550Y-107122419D01*
X238744360Y-85622419D02*
X238934836Y-85622419D01*
X238934836Y-85622419D02*
X239030074Y-85670038D01*
X239030074Y-85670038D02*
X239125312Y-85765276D01*
X239125312Y-85765276D02*
X239172931Y-85955752D01*
X239172931Y-85955752D02*
X239172931Y-86289085D01*
X239172931Y-86289085D02*
X239125312Y-86479561D01*
X239125312Y-86479561D02*
X239030074Y-86574800D01*
X239030074Y-86574800D02*
X238934836Y-86622419D01*
X238934836Y-86622419D02*
X238744360Y-86622419D01*
X238744360Y-86622419D02*
X238649122Y-86574800D01*
X238649122Y-86574800D02*
X238553884Y-86479561D01*
X238553884Y-86479561D02*
X238506265Y-86289085D01*
X238506265Y-86289085D02*
X238506265Y-85955752D01*
X238506265Y-85955752D02*
X238553884Y-85765276D01*
X238553884Y-85765276D02*
X238649122Y-85670038D01*
X238649122Y-85670038D02*
X238744360Y-85622419D01*
X239458646Y-85622419D02*
X240030074Y-85622419D01*
X239744360Y-86622419D02*
X239744360Y-85622419D01*
D11*
X212114661Y-113639238D02*
X212686089Y-113829714D01*
X212686089Y-113829714D02*
X212876566Y-114020190D01*
X212876566Y-114020190D02*
X213067042Y-114401142D01*
X213067042Y-114401142D02*
X213067042Y-114972571D01*
X213067042Y-114972571D02*
X212876566Y-115353523D01*
X212876566Y-115353523D02*
X212686089Y-115544000D01*
X212686089Y-115544000D02*
X212305137Y-115734476D01*
X212305137Y-115734476D02*
X210781327Y-115734476D01*
X210781327Y-115734476D02*
X210781327Y-111734476D01*
X210781327Y-111734476D02*
X212114661Y-111734476D01*
X212114661Y-111734476D02*
X212495613Y-111924952D01*
X212495613Y-111924952D02*
X212686089Y-112115428D01*
X212686089Y-112115428D02*
X212876566Y-112496380D01*
X212876566Y-112496380D02*
X212876566Y-112877333D01*
X212876566Y-112877333D02*
X212686089Y-113258285D01*
X212686089Y-113258285D02*
X212495613Y-113448761D01*
X212495613Y-113448761D02*
X212114661Y-113639238D01*
X212114661Y-113639238D02*
X210781327Y-113639238D01*
X214781327Y-114210666D02*
X217828947Y-114210666D01*
D10*
X213708646Y-102122419D02*
X214327693Y-102122419D01*
X214327693Y-102122419D02*
X213994360Y-102503371D01*
X213994360Y-102503371D02*
X214137217Y-102503371D01*
X214137217Y-102503371D02*
X214232455Y-102550990D01*
X214232455Y-102550990D02*
X214280074Y-102598609D01*
X214280074Y-102598609D02*
X214327693Y-102693847D01*
X214327693Y-102693847D02*
X214327693Y-102931942D01*
X214327693Y-102931942D02*
X214280074Y-103027180D01*
X214280074Y-103027180D02*
X214232455Y-103074800D01*
X214232455Y-103074800D02*
X214137217Y-103122419D01*
X214137217Y-103122419D02*
X213851503Y-103122419D01*
X213851503Y-103122419D02*
X213756265Y-103074800D01*
X213756265Y-103074800D02*
X213708646Y-103027180D01*
X214613408Y-102122419D02*
X214946741Y-103122419D01*
X214946741Y-103122419D02*
X215280074Y-102122419D01*
X215518170Y-102122419D02*
X216137217Y-102122419D01*
X216137217Y-102122419D02*
X215803884Y-102503371D01*
X215803884Y-102503371D02*
X215946741Y-102503371D01*
X215946741Y-102503371D02*
X216041979Y-102550990D01*
X216041979Y-102550990D02*
X216089598Y-102598609D01*
X216089598Y-102598609D02*
X216137217Y-102693847D01*
X216137217Y-102693847D02*
X216137217Y-102931942D01*
X216137217Y-102931942D02*
X216089598Y-103027180D01*
X216089598Y-103027180D02*
X216041979Y-103074800D01*
X216041979Y-103074800D02*
X215946741Y-103122419D01*
X215946741Y-103122419D02*
X215661027Y-103122419D01*
X215661027Y-103122419D02*
X215565789Y-103074800D01*
X215565789Y-103074800D02*
X215518170Y-103027180D01*
X259137217Y-116098609D02*
X259280074Y-116146228D01*
X259280074Y-116146228D02*
X259327693Y-116193847D01*
X259327693Y-116193847D02*
X259375312Y-116289085D01*
X259375312Y-116289085D02*
X259375312Y-116431942D01*
X259375312Y-116431942D02*
X259327693Y-116527180D01*
X259327693Y-116527180D02*
X259280074Y-116574800D01*
X259280074Y-116574800D02*
X259184836Y-116622419D01*
X259184836Y-116622419D02*
X258803884Y-116622419D01*
X258803884Y-116622419D02*
X258803884Y-115622419D01*
X258803884Y-115622419D02*
X259137217Y-115622419D01*
X259137217Y-115622419D02*
X259232455Y-115670038D01*
X259232455Y-115670038D02*
X259280074Y-115717657D01*
X259280074Y-115717657D02*
X259327693Y-115812895D01*
X259327693Y-115812895D02*
X259327693Y-115908133D01*
X259327693Y-115908133D02*
X259280074Y-116003371D01*
X259280074Y-116003371D02*
X259232455Y-116050990D01*
X259232455Y-116050990D02*
X259137217Y-116098609D01*
X259137217Y-116098609D02*
X258803884Y-116098609D01*
X259756265Y-116336704D02*
X260232455Y-116336704D01*
X259661027Y-116622419D02*
X259994360Y-115622419D01*
X259994360Y-115622419D02*
X260327693Y-116622419D01*
X260518170Y-115622419D02*
X261089598Y-115622419D01*
X260803884Y-116622419D02*
X260803884Y-115622419D01*
X261280075Y-115622419D02*
X261851503Y-115622419D01*
X261565789Y-116622419D02*
X261565789Y-115622419D01*
X263470551Y-115670038D02*
X263375313Y-115622419D01*
X263375313Y-115622419D02*
X263232456Y-115622419D01*
X263232456Y-115622419D02*
X263089599Y-115670038D01*
X263089599Y-115670038D02*
X262994361Y-115765276D01*
X262994361Y-115765276D02*
X262946742Y-115860514D01*
X262946742Y-115860514D02*
X262899123Y-116050990D01*
X262899123Y-116050990D02*
X262899123Y-116193847D01*
X262899123Y-116193847D02*
X262946742Y-116384323D01*
X262946742Y-116384323D02*
X262994361Y-116479561D01*
X262994361Y-116479561D02*
X263089599Y-116574800D01*
X263089599Y-116574800D02*
X263232456Y-116622419D01*
X263232456Y-116622419D02*
X263327694Y-116622419D01*
X263327694Y-116622419D02*
X263470551Y-116574800D01*
X263470551Y-116574800D02*
X263518170Y-116527180D01*
X263518170Y-116527180D02*
X263518170Y-116193847D01*
X263518170Y-116193847D02*
X263327694Y-116193847D01*
X264137218Y-115622419D02*
X264327694Y-115622419D01*
X264327694Y-115622419D02*
X264422932Y-115670038D01*
X264422932Y-115670038D02*
X264518170Y-115765276D01*
X264518170Y-115765276D02*
X264565789Y-115955752D01*
X264565789Y-115955752D02*
X264565789Y-116289085D01*
X264565789Y-116289085D02*
X264518170Y-116479561D01*
X264518170Y-116479561D02*
X264422932Y-116574800D01*
X264422932Y-116574800D02*
X264327694Y-116622419D01*
X264327694Y-116622419D02*
X264137218Y-116622419D01*
X264137218Y-116622419D02*
X264041980Y-116574800D01*
X264041980Y-116574800D02*
X263946742Y-116479561D01*
X263946742Y-116479561D02*
X263899123Y-116289085D01*
X263899123Y-116289085D02*
X263899123Y-115955752D01*
X263899123Y-115955752D02*
X263946742Y-115765276D01*
X263946742Y-115765276D02*
X264041980Y-115670038D01*
X264041980Y-115670038D02*
X264137218Y-115622419D01*
X265184837Y-115622419D02*
X265375313Y-115622419D01*
X265375313Y-115622419D02*
X265470551Y-115670038D01*
X265470551Y-115670038D02*
X265565789Y-115765276D01*
X265565789Y-115765276D02*
X265613408Y-115955752D01*
X265613408Y-115955752D02*
X265613408Y-116289085D01*
X265613408Y-116289085D02*
X265565789Y-116479561D01*
X265565789Y-116479561D02*
X265470551Y-116574800D01*
X265470551Y-116574800D02*
X265375313Y-116622419D01*
X265375313Y-116622419D02*
X265184837Y-116622419D01*
X265184837Y-116622419D02*
X265089599Y-116574800D01*
X265089599Y-116574800D02*
X264994361Y-116479561D01*
X264994361Y-116479561D02*
X264946742Y-116289085D01*
X264946742Y-116289085D02*
X264946742Y-115955752D01*
X264946742Y-115955752D02*
X264994361Y-115765276D01*
X264994361Y-115765276D02*
X265089599Y-115670038D01*
X265089599Y-115670038D02*
X265184837Y-115622419D01*
X266041980Y-116622419D02*
X266041980Y-115622419D01*
X266041980Y-115622419D02*
X266280075Y-115622419D01*
X266280075Y-115622419D02*
X266422932Y-115670038D01*
X266422932Y-115670038D02*
X266518170Y-115765276D01*
X266518170Y-115765276D02*
X266565789Y-115860514D01*
X266565789Y-115860514D02*
X266613408Y-116050990D01*
X266613408Y-116050990D02*
X266613408Y-116193847D01*
X266613408Y-116193847D02*
X266565789Y-116384323D01*
X266565789Y-116384323D02*
X266518170Y-116479561D01*
X266518170Y-116479561D02*
X266422932Y-116574800D01*
X266422932Y-116574800D02*
X266280075Y-116622419D01*
X266280075Y-116622419D02*
X266041980Y-116622419D01*
X222803884Y-105622419D02*
X222803884Y-104622419D01*
X222803884Y-104622419D02*
X223375312Y-105622419D01*
X223375312Y-105622419D02*
X223375312Y-104622419D01*
X224422931Y-105622419D02*
X224089598Y-105146228D01*
X223851503Y-105622419D02*
X223851503Y-104622419D01*
X223851503Y-104622419D02*
X224232455Y-104622419D01*
X224232455Y-104622419D02*
X224327693Y-104670038D01*
X224327693Y-104670038D02*
X224375312Y-104717657D01*
X224375312Y-104717657D02*
X224422931Y-104812895D01*
X224422931Y-104812895D02*
X224422931Y-104955752D01*
X224422931Y-104955752D02*
X224375312Y-105050990D01*
X224375312Y-105050990D02*
X224327693Y-105098609D01*
X224327693Y-105098609D02*
X224232455Y-105146228D01*
X224232455Y-105146228D02*
X223851503Y-105146228D01*
X224803884Y-105574800D02*
X224946741Y-105622419D01*
X224946741Y-105622419D02*
X225184836Y-105622419D01*
X225184836Y-105622419D02*
X225280074Y-105574800D01*
X225280074Y-105574800D02*
X225327693Y-105527180D01*
X225327693Y-105527180D02*
X225375312Y-105431942D01*
X225375312Y-105431942D02*
X225375312Y-105336704D01*
X225375312Y-105336704D02*
X225327693Y-105241466D01*
X225327693Y-105241466D02*
X225280074Y-105193847D01*
X225280074Y-105193847D02*
X225184836Y-105146228D01*
X225184836Y-105146228D02*
X224994360Y-105098609D01*
X224994360Y-105098609D02*
X224899122Y-105050990D01*
X224899122Y-105050990D02*
X224851503Y-105003371D01*
X224851503Y-105003371D02*
X224803884Y-104908133D01*
X224803884Y-104908133D02*
X224803884Y-104812895D01*
X224803884Y-104812895D02*
X224851503Y-104717657D01*
X224851503Y-104717657D02*
X224899122Y-104670038D01*
X224899122Y-104670038D02*
X224994360Y-104622419D01*
X224994360Y-104622419D02*
X225232455Y-104622419D01*
X225232455Y-104622419D02*
X225375312Y-104670038D01*
X225661027Y-104622419D02*
X226232455Y-104622419D01*
X225946741Y-105622419D02*
X225946741Y-104622419D01*
X257387217Y-96098609D02*
X257530074Y-96146228D01*
X257530074Y-96146228D02*
X257577693Y-96193847D01*
X257577693Y-96193847D02*
X257625312Y-96289085D01*
X257625312Y-96289085D02*
X257625312Y-96431942D01*
X257625312Y-96431942D02*
X257577693Y-96527180D01*
X257577693Y-96527180D02*
X257530074Y-96574800D01*
X257530074Y-96574800D02*
X257434836Y-96622419D01*
X257434836Y-96622419D02*
X257053884Y-96622419D01*
X257053884Y-96622419D02*
X257053884Y-95622419D01*
X257053884Y-95622419D02*
X257387217Y-95622419D01*
X257387217Y-95622419D02*
X257482455Y-95670038D01*
X257482455Y-95670038D02*
X257530074Y-95717657D01*
X257530074Y-95717657D02*
X257577693Y-95812895D01*
X257577693Y-95812895D02*
X257577693Y-95908133D01*
X257577693Y-95908133D02*
X257530074Y-96003371D01*
X257530074Y-96003371D02*
X257482455Y-96050990D01*
X257482455Y-96050990D02*
X257387217Y-96098609D01*
X257387217Y-96098609D02*
X257053884Y-96098609D01*
X258006265Y-96336704D02*
X258482455Y-96336704D01*
X257911027Y-96622419D02*
X258244360Y-95622419D01*
X258244360Y-95622419D02*
X258577693Y-96622419D01*
X258768170Y-95622419D02*
X259339598Y-95622419D01*
X259053884Y-96622419D02*
X259053884Y-95622419D01*
X259530075Y-95622419D02*
X260101503Y-95622419D01*
X259815789Y-96622419D02*
X259815789Y-95622419D01*
X261768170Y-96527180D02*
X261720551Y-96574800D01*
X261720551Y-96574800D02*
X261577694Y-96622419D01*
X261577694Y-96622419D02*
X261482456Y-96622419D01*
X261482456Y-96622419D02*
X261339599Y-96574800D01*
X261339599Y-96574800D02*
X261244361Y-96479561D01*
X261244361Y-96479561D02*
X261196742Y-96384323D01*
X261196742Y-96384323D02*
X261149123Y-96193847D01*
X261149123Y-96193847D02*
X261149123Y-96050990D01*
X261149123Y-96050990D02*
X261196742Y-95860514D01*
X261196742Y-95860514D02*
X261244361Y-95765276D01*
X261244361Y-95765276D02*
X261339599Y-95670038D01*
X261339599Y-95670038D02*
X261482456Y-95622419D01*
X261482456Y-95622419D02*
X261577694Y-95622419D01*
X261577694Y-95622419D02*
X261720551Y-95670038D01*
X261720551Y-95670038D02*
X261768170Y-95717657D01*
X262196742Y-96622419D02*
X262196742Y-95622419D01*
X262196742Y-96098609D02*
X262768170Y-96098609D01*
X262768170Y-96622419D02*
X262768170Y-95622419D01*
X263196742Y-96336704D02*
X263672932Y-96336704D01*
X263101504Y-96622419D02*
X263434837Y-95622419D01*
X263434837Y-95622419D02*
X263768170Y-96622419D01*
X264672932Y-96622419D02*
X264339599Y-96146228D01*
X264101504Y-96622419D02*
X264101504Y-95622419D01*
X264101504Y-95622419D02*
X264482456Y-95622419D01*
X264482456Y-95622419D02*
X264577694Y-95670038D01*
X264577694Y-95670038D02*
X264625313Y-95717657D01*
X264625313Y-95717657D02*
X264672932Y-95812895D01*
X264672932Y-95812895D02*
X264672932Y-95955752D01*
X264672932Y-95955752D02*
X264625313Y-96050990D01*
X264625313Y-96050990D02*
X264577694Y-96098609D01*
X264577694Y-96098609D02*
X264482456Y-96146228D01*
X264482456Y-96146228D02*
X264101504Y-96146228D01*
X265625313Y-95670038D02*
X265530075Y-95622419D01*
X265530075Y-95622419D02*
X265387218Y-95622419D01*
X265387218Y-95622419D02*
X265244361Y-95670038D01*
X265244361Y-95670038D02*
X265149123Y-95765276D01*
X265149123Y-95765276D02*
X265101504Y-95860514D01*
X265101504Y-95860514D02*
X265053885Y-96050990D01*
X265053885Y-96050990D02*
X265053885Y-96193847D01*
X265053885Y-96193847D02*
X265101504Y-96384323D01*
X265101504Y-96384323D02*
X265149123Y-96479561D01*
X265149123Y-96479561D02*
X265244361Y-96574800D01*
X265244361Y-96574800D02*
X265387218Y-96622419D01*
X265387218Y-96622419D02*
X265482456Y-96622419D01*
X265482456Y-96622419D02*
X265625313Y-96574800D01*
X265625313Y-96574800D02*
X265672932Y-96527180D01*
X265672932Y-96527180D02*
X265672932Y-96193847D01*
X265672932Y-96193847D02*
X265482456Y-96193847D01*
X266101504Y-96098609D02*
X266434837Y-96098609D01*
X266577694Y-96622419D02*
X266101504Y-96622419D01*
X266101504Y-96622419D02*
X266101504Y-95622419D01*
X266101504Y-95622419D02*
X266577694Y-95622419D01*
X210744360Y-93122419D02*
X210934836Y-93122419D01*
X210934836Y-93122419D02*
X211030074Y-93170038D01*
X211030074Y-93170038D02*
X211125312Y-93265276D01*
X211125312Y-93265276D02*
X211172931Y-93455752D01*
X211172931Y-93455752D02*
X211172931Y-93789085D01*
X211172931Y-93789085D02*
X211125312Y-93979561D01*
X211125312Y-93979561D02*
X211030074Y-94074800D01*
X211030074Y-94074800D02*
X210934836Y-94122419D01*
X210934836Y-94122419D02*
X210744360Y-94122419D01*
X210744360Y-94122419D02*
X210649122Y-94074800D01*
X210649122Y-94074800D02*
X210553884Y-93979561D01*
X210553884Y-93979561D02*
X210506265Y-93789085D01*
X210506265Y-93789085D02*
X210506265Y-93455752D01*
X210506265Y-93455752D02*
X210553884Y-93265276D01*
X210553884Y-93265276D02*
X210649122Y-93170038D01*
X210649122Y-93170038D02*
X210744360Y-93122419D01*
X212172931Y-94027180D02*
X212125312Y-94074800D01*
X212125312Y-94074800D02*
X211982455Y-94122419D01*
X211982455Y-94122419D02*
X211887217Y-94122419D01*
X211887217Y-94122419D02*
X211744360Y-94074800D01*
X211744360Y-94074800D02*
X211649122Y-93979561D01*
X211649122Y-93979561D02*
X211601503Y-93884323D01*
X211601503Y-93884323D02*
X211553884Y-93693847D01*
X211553884Y-93693847D02*
X211553884Y-93550990D01*
X211553884Y-93550990D02*
X211601503Y-93360514D01*
X211601503Y-93360514D02*
X211649122Y-93265276D01*
X211649122Y-93265276D02*
X211744360Y-93170038D01*
X211744360Y-93170038D02*
X211887217Y-93122419D01*
X211887217Y-93122419D02*
X211982455Y-93122419D01*
X211982455Y-93122419D02*
X212125312Y-93170038D01*
X212125312Y-93170038D02*
X212172931Y-93217657D01*
X212601503Y-94122419D02*
X212601503Y-93122419D01*
X212601503Y-93122419D02*
X212839598Y-93122419D01*
X212839598Y-93122419D02*
X212982455Y-93170038D01*
X212982455Y-93170038D02*
X213077693Y-93265276D01*
X213077693Y-93265276D02*
X213125312Y-93360514D01*
X213125312Y-93360514D02*
X213172931Y-93550990D01*
X213172931Y-93550990D02*
X213172931Y-93693847D01*
X213172931Y-93693847D02*
X213125312Y-93884323D01*
X213125312Y-93884323D02*
X213077693Y-93979561D01*
X213077693Y-93979561D02*
X212982455Y-94074800D01*
X212982455Y-94074800D02*
X212839598Y-94122419D01*
X212839598Y-94122419D02*
X212601503Y-94122419D01*
X233553884Y-115372419D02*
X233553884Y-114372419D01*
X233553884Y-114372419D02*
X233934836Y-114372419D01*
X233934836Y-114372419D02*
X234030074Y-114420038D01*
X234030074Y-114420038D02*
X234077693Y-114467657D01*
X234077693Y-114467657D02*
X234125312Y-114562895D01*
X234125312Y-114562895D02*
X234125312Y-114705752D01*
X234125312Y-114705752D02*
X234077693Y-114800990D01*
X234077693Y-114800990D02*
X234030074Y-114848609D01*
X234030074Y-114848609D02*
X233934836Y-114896228D01*
X233934836Y-114896228D02*
X233553884Y-114896228D01*
X234458646Y-114372419D02*
X234696741Y-115372419D01*
X234696741Y-115372419D02*
X234887217Y-114658133D01*
X234887217Y-114658133D02*
X235077693Y-115372419D01*
X235077693Y-115372419D02*
X235315789Y-114372419D01*
X236268169Y-115372419D02*
X235934836Y-114896228D01*
X235696741Y-115372419D02*
X235696741Y-114372419D01*
X235696741Y-114372419D02*
X236077693Y-114372419D01*
X236077693Y-114372419D02*
X236172931Y-114420038D01*
X236172931Y-114420038D02*
X236220550Y-114467657D01*
X236220550Y-114467657D02*
X236268169Y-114562895D01*
X236268169Y-114562895D02*
X236268169Y-114705752D01*
X236268169Y-114705752D02*
X236220550Y-114800990D01*
X236220550Y-114800990D02*
X236172931Y-114848609D01*
X236172931Y-114848609D02*
X236077693Y-114896228D01*
X236077693Y-114896228D02*
X235696741Y-114896228D01*
X237411027Y-115324800D02*
X237553884Y-115372419D01*
X237553884Y-115372419D02*
X237791979Y-115372419D01*
X237791979Y-115372419D02*
X237887217Y-115324800D01*
X237887217Y-115324800D02*
X237934836Y-115277180D01*
X237934836Y-115277180D02*
X237982455Y-115181942D01*
X237982455Y-115181942D02*
X237982455Y-115086704D01*
X237982455Y-115086704D02*
X237934836Y-114991466D01*
X237934836Y-114991466D02*
X237887217Y-114943847D01*
X237887217Y-114943847D02*
X237791979Y-114896228D01*
X237791979Y-114896228D02*
X237601503Y-114848609D01*
X237601503Y-114848609D02*
X237506265Y-114800990D01*
X237506265Y-114800990D02*
X237458646Y-114753371D01*
X237458646Y-114753371D02*
X237411027Y-114658133D01*
X237411027Y-114658133D02*
X237411027Y-114562895D01*
X237411027Y-114562895D02*
X237458646Y-114467657D01*
X237458646Y-114467657D02*
X237506265Y-114420038D01*
X237506265Y-114420038D02*
X237601503Y-114372419D01*
X237601503Y-114372419D02*
X237839598Y-114372419D01*
X237839598Y-114372419D02*
X237982455Y-114420038D01*
X238315789Y-114372419D02*
X238553884Y-115372419D01*
X238553884Y-115372419D02*
X238744360Y-114658133D01*
X238744360Y-114658133D02*
X238934836Y-115372419D01*
X238934836Y-115372419D02*
X239172932Y-114372419D01*
X215125312Y-100372419D02*
X214791979Y-99896228D01*
X214553884Y-100372419D02*
X214553884Y-99372419D01*
X214553884Y-99372419D02*
X214934836Y-99372419D01*
X214934836Y-99372419D02*
X215030074Y-99420038D01*
X215030074Y-99420038D02*
X215077693Y-99467657D01*
X215077693Y-99467657D02*
X215125312Y-99562895D01*
X215125312Y-99562895D02*
X215125312Y-99705752D01*
X215125312Y-99705752D02*
X215077693Y-99800990D01*
X215077693Y-99800990D02*
X215030074Y-99848609D01*
X215030074Y-99848609D02*
X214934836Y-99896228D01*
X214934836Y-99896228D02*
X214553884Y-99896228D01*
X215458646Y-99372419D02*
X216125312Y-100372419D01*
X216125312Y-99372419D02*
X215458646Y-100372419D01*
X223137217Y-102598609D02*
X223280074Y-102646228D01*
X223280074Y-102646228D02*
X223327693Y-102693847D01*
X223327693Y-102693847D02*
X223375312Y-102789085D01*
X223375312Y-102789085D02*
X223375312Y-102931942D01*
X223375312Y-102931942D02*
X223327693Y-103027180D01*
X223327693Y-103027180D02*
X223280074Y-103074800D01*
X223280074Y-103074800D02*
X223184836Y-103122419D01*
X223184836Y-103122419D02*
X222803884Y-103122419D01*
X222803884Y-103122419D02*
X222803884Y-102122419D01*
X222803884Y-102122419D02*
X223137217Y-102122419D01*
X223137217Y-102122419D02*
X223232455Y-102170038D01*
X223232455Y-102170038D02*
X223280074Y-102217657D01*
X223280074Y-102217657D02*
X223327693Y-102312895D01*
X223327693Y-102312895D02*
X223327693Y-102408133D01*
X223327693Y-102408133D02*
X223280074Y-102503371D01*
X223280074Y-102503371D02*
X223232455Y-102550990D01*
X223232455Y-102550990D02*
X223137217Y-102598609D01*
X223137217Y-102598609D02*
X222803884Y-102598609D01*
X223756265Y-102836704D02*
X224232455Y-102836704D01*
X223661027Y-103122419D02*
X223994360Y-102122419D01*
X223994360Y-102122419D02*
X224327693Y-103122419D01*
X224518170Y-102122419D02*
X225089598Y-102122419D01*
X224803884Y-103122419D02*
X224803884Y-102122419D01*
X225280075Y-102122419D02*
X225851503Y-102122419D01*
X225565789Y-103122419D02*
X225565789Y-102122419D01*
X249637217Y-86098609D02*
X249303884Y-86098609D01*
X249303884Y-86622419D02*
X249303884Y-85622419D01*
X249303884Y-85622419D02*
X249780074Y-85622419D01*
X250161027Y-86622419D02*
X250161027Y-85622419D01*
X251208645Y-86622419D02*
X250875312Y-86146228D01*
X250637217Y-86622419D02*
X250637217Y-85622419D01*
X250637217Y-85622419D02*
X251018169Y-85622419D01*
X251018169Y-85622419D02*
X251113407Y-85670038D01*
X251113407Y-85670038D02*
X251161026Y-85717657D01*
X251161026Y-85717657D02*
X251208645Y-85812895D01*
X251208645Y-85812895D02*
X251208645Y-85955752D01*
X251208645Y-85955752D02*
X251161026Y-86050990D01*
X251161026Y-86050990D02*
X251113407Y-86098609D01*
X251113407Y-86098609D02*
X251018169Y-86146228D01*
X251018169Y-86146228D02*
X250637217Y-86146228D01*
X251637217Y-86098609D02*
X251970550Y-86098609D01*
X252113407Y-86622419D02*
X251637217Y-86622419D01*
X251637217Y-86622419D02*
X251637217Y-85622419D01*
X251637217Y-85622419D02*
X252113407Y-85622419D01*
X257553884Y-86622419D02*
X257553884Y-85622419D01*
X257553884Y-85622419D02*
X257887217Y-86336704D01*
X257887217Y-86336704D02*
X258220550Y-85622419D01*
X258220550Y-85622419D02*
X258220550Y-86622419D01*
X258887217Y-85622419D02*
X259077693Y-85622419D01*
X259077693Y-85622419D02*
X259172931Y-85670038D01*
X259172931Y-85670038D02*
X259268169Y-85765276D01*
X259268169Y-85765276D02*
X259315788Y-85955752D01*
X259315788Y-85955752D02*
X259315788Y-86289085D01*
X259315788Y-86289085D02*
X259268169Y-86479561D01*
X259268169Y-86479561D02*
X259172931Y-86574800D01*
X259172931Y-86574800D02*
X259077693Y-86622419D01*
X259077693Y-86622419D02*
X258887217Y-86622419D01*
X258887217Y-86622419D02*
X258791979Y-86574800D01*
X258791979Y-86574800D02*
X258696741Y-86479561D01*
X258696741Y-86479561D02*
X258649122Y-86289085D01*
X258649122Y-86289085D02*
X258649122Y-85955752D01*
X258649122Y-85955752D02*
X258696741Y-85765276D01*
X258696741Y-85765276D02*
X258791979Y-85670038D01*
X258791979Y-85670038D02*
X258887217Y-85622419D01*
X259744360Y-86622419D02*
X259744360Y-85622419D01*
X259744360Y-85622419D02*
X259982455Y-85622419D01*
X259982455Y-85622419D02*
X260125312Y-85670038D01*
X260125312Y-85670038D02*
X260220550Y-85765276D01*
X260220550Y-85765276D02*
X260268169Y-85860514D01*
X260268169Y-85860514D02*
X260315788Y-86050990D01*
X260315788Y-86050990D02*
X260315788Y-86193847D01*
X260315788Y-86193847D02*
X260268169Y-86384323D01*
X260268169Y-86384323D02*
X260220550Y-86479561D01*
X260220550Y-86479561D02*
X260125312Y-86574800D01*
X260125312Y-86574800D02*
X259982455Y-86622419D01*
X259982455Y-86622419D02*
X259744360Y-86622419D01*
X260744360Y-86098609D02*
X261077693Y-86098609D01*
X261220550Y-86622419D02*
X260744360Y-86622419D01*
X260744360Y-86622419D02*
X260744360Y-85622419D01*
X260744360Y-85622419D02*
X261220550Y-85622419D01*
X196303884Y-93872419D02*
X196303884Y-92872419D01*
X196303884Y-92872419D02*
X196541979Y-92872419D01*
X196541979Y-92872419D02*
X196684836Y-92920038D01*
X196684836Y-92920038D02*
X196780074Y-93015276D01*
X196780074Y-93015276D02*
X196827693Y-93110514D01*
X196827693Y-93110514D02*
X196875312Y-93300990D01*
X196875312Y-93300990D02*
X196875312Y-93443847D01*
X196875312Y-93443847D02*
X196827693Y-93634323D01*
X196827693Y-93634323D02*
X196780074Y-93729561D01*
X196780074Y-93729561D02*
X196684836Y-93824800D01*
X196684836Y-93824800D02*
X196541979Y-93872419D01*
X196541979Y-93872419D02*
X196303884Y-93872419D01*
X197161027Y-92872419D02*
X197732455Y-92872419D01*
X197446741Y-93872419D02*
X197446741Y-92872419D01*
X198637217Y-93777180D02*
X198589598Y-93824800D01*
X198589598Y-93824800D02*
X198446741Y-93872419D01*
X198446741Y-93872419D02*
X198351503Y-93872419D01*
X198351503Y-93872419D02*
X198208646Y-93824800D01*
X198208646Y-93824800D02*
X198113408Y-93729561D01*
X198113408Y-93729561D02*
X198065789Y-93634323D01*
X198065789Y-93634323D02*
X198018170Y-93443847D01*
X198018170Y-93443847D02*
X198018170Y-93300990D01*
X198018170Y-93300990D02*
X198065789Y-93110514D01*
X198065789Y-93110514D02*
X198113408Y-93015276D01*
X198113408Y-93015276D02*
X198208646Y-92920038D01*
X198208646Y-92920038D02*
X198351503Y-92872419D01*
X198351503Y-92872419D02*
X198446741Y-92872419D01*
X198446741Y-92872419D02*
X198589598Y-92920038D01*
X198589598Y-92920038D02*
X198637217Y-92967657D01*
D13*
X255704819Y-88666666D02*
X255228628Y-88999999D01*
X255704819Y-89238094D02*
X254704819Y-89238094D01*
X254704819Y-89238094D02*
X254704819Y-88857142D01*
X254704819Y-88857142D02*
X254752438Y-88761904D01*
X254752438Y-88761904D02*
X254800057Y-88714285D01*
X254800057Y-88714285D02*
X254895295Y-88666666D01*
X254895295Y-88666666D02*
X255038152Y-88666666D01*
X255038152Y-88666666D02*
X255133390Y-88714285D01*
X255133390Y-88714285D02*
X255181009Y-88761904D01*
X255181009Y-88761904D02*
X255228628Y-88857142D01*
X255228628Y-88857142D02*
X255228628Y-89238094D01*
X255133390Y-88095237D02*
X255085771Y-88190475D01*
X255085771Y-88190475D02*
X255038152Y-88238094D01*
X255038152Y-88238094D02*
X254942914Y-88285713D01*
X254942914Y-88285713D02*
X254895295Y-88285713D01*
X254895295Y-88285713D02*
X254800057Y-88238094D01*
X254800057Y-88238094D02*
X254752438Y-88190475D01*
X254752438Y-88190475D02*
X254704819Y-88095237D01*
X254704819Y-88095237D02*
X254704819Y-87904761D01*
X254704819Y-87904761D02*
X254752438Y-87809523D01*
X254752438Y-87809523D02*
X254800057Y-87761904D01*
X254800057Y-87761904D02*
X254895295Y-87714285D01*
X254895295Y-87714285D02*
X254942914Y-87714285D01*
X254942914Y-87714285D02*
X255038152Y-87761904D01*
X255038152Y-87761904D02*
X255085771Y-87809523D01*
X255085771Y-87809523D02*
X255133390Y-87904761D01*
X255133390Y-87904761D02*
X255133390Y-88095237D01*
X255133390Y-88095237D02*
X255181009Y-88190475D01*
X255181009Y-88190475D02*
X255228628Y-88238094D01*
X255228628Y-88238094D02*
X255323866Y-88285713D01*
X255323866Y-88285713D02*
X255514342Y-88285713D01*
X255514342Y-88285713D02*
X255609580Y-88238094D01*
X255609580Y-88238094D02*
X255657200Y-88190475D01*
X255657200Y-88190475D02*
X255704819Y-88095237D01*
X255704819Y-88095237D02*
X255704819Y-87904761D01*
X255704819Y-87904761D02*
X255657200Y-87809523D01*
X255657200Y-87809523D02*
X255609580Y-87761904D01*
X255609580Y-87761904D02*
X255514342Y-87714285D01*
X255514342Y-87714285D02*
X255323866Y-87714285D01*
X255323866Y-87714285D02*
X255228628Y-87761904D01*
X255228628Y-87761904D02*
X255181009Y-87809523D01*
X255181009Y-87809523D02*
X255133390Y-87904761D01*
X250087080Y-109399166D02*
X250134700Y-109446785D01*
X250134700Y-109446785D02*
X250182319Y-109589642D01*
X250182319Y-109589642D02*
X250182319Y-109684880D01*
X250182319Y-109684880D02*
X250134700Y-109827737D01*
X250134700Y-109827737D02*
X250039461Y-109922975D01*
X250039461Y-109922975D02*
X249944223Y-109970594D01*
X249944223Y-109970594D02*
X249753747Y-110018213D01*
X249753747Y-110018213D02*
X249610890Y-110018213D01*
X249610890Y-110018213D02*
X249420414Y-109970594D01*
X249420414Y-109970594D02*
X249325176Y-109922975D01*
X249325176Y-109922975D02*
X249229938Y-109827737D01*
X249229938Y-109827737D02*
X249182319Y-109684880D01*
X249182319Y-109684880D02*
X249182319Y-109589642D01*
X249182319Y-109589642D02*
X249229938Y-109446785D01*
X249229938Y-109446785D02*
X249277557Y-109399166D01*
X249277557Y-109018213D02*
X249229938Y-108970594D01*
X249229938Y-108970594D02*
X249182319Y-108875356D01*
X249182319Y-108875356D02*
X249182319Y-108637261D01*
X249182319Y-108637261D02*
X249229938Y-108542023D01*
X249229938Y-108542023D02*
X249277557Y-108494404D01*
X249277557Y-108494404D02*
X249372795Y-108446785D01*
X249372795Y-108446785D02*
X249468033Y-108446785D01*
X249468033Y-108446785D02*
X249610890Y-108494404D01*
X249610890Y-108494404D02*
X250182319Y-109065832D01*
X250182319Y-109065832D02*
X250182319Y-108446785D01*
X206358333Y-111567080D02*
X206310714Y-111614700D01*
X206310714Y-111614700D02*
X206167857Y-111662319D01*
X206167857Y-111662319D02*
X206072619Y-111662319D01*
X206072619Y-111662319D02*
X205929762Y-111614700D01*
X205929762Y-111614700D02*
X205834524Y-111519461D01*
X205834524Y-111519461D02*
X205786905Y-111424223D01*
X205786905Y-111424223D02*
X205739286Y-111233747D01*
X205739286Y-111233747D02*
X205739286Y-111090890D01*
X205739286Y-111090890D02*
X205786905Y-110900414D01*
X205786905Y-110900414D02*
X205834524Y-110805176D01*
X205834524Y-110805176D02*
X205929762Y-110709938D01*
X205929762Y-110709938D02*
X206072619Y-110662319D01*
X206072619Y-110662319D02*
X206167857Y-110662319D01*
X206167857Y-110662319D02*
X206310714Y-110709938D01*
X206310714Y-110709938D02*
X206358333Y-110757557D01*
X207215476Y-110995652D02*
X207215476Y-111662319D01*
X206977381Y-110614700D02*
X206739286Y-111328985D01*
X206739286Y-111328985D02*
X207358333Y-111328985D01*
X252144819Y-88666666D02*
X251668628Y-88999999D01*
X252144819Y-89238094D02*
X251144819Y-89238094D01*
X251144819Y-89238094D02*
X251144819Y-88857142D01*
X251144819Y-88857142D02*
X251192438Y-88761904D01*
X251192438Y-88761904D02*
X251240057Y-88714285D01*
X251240057Y-88714285D02*
X251335295Y-88666666D01*
X251335295Y-88666666D02*
X251478152Y-88666666D01*
X251478152Y-88666666D02*
X251573390Y-88714285D01*
X251573390Y-88714285D02*
X251621009Y-88761904D01*
X251621009Y-88761904D02*
X251668628Y-88857142D01*
X251668628Y-88857142D02*
X251668628Y-89238094D01*
X252144819Y-88190475D02*
X252144819Y-87999999D01*
X252144819Y-87999999D02*
X252097200Y-87904761D01*
X252097200Y-87904761D02*
X252049580Y-87857142D01*
X252049580Y-87857142D02*
X251906723Y-87761904D01*
X251906723Y-87761904D02*
X251716247Y-87714285D01*
X251716247Y-87714285D02*
X251335295Y-87714285D01*
X251335295Y-87714285D02*
X251240057Y-87761904D01*
X251240057Y-87761904D02*
X251192438Y-87809523D01*
X251192438Y-87809523D02*
X251144819Y-87904761D01*
X251144819Y-87904761D02*
X251144819Y-88095237D01*
X251144819Y-88095237D02*
X251192438Y-88190475D01*
X251192438Y-88190475D02*
X251240057Y-88238094D01*
X251240057Y-88238094D02*
X251335295Y-88285713D01*
X251335295Y-88285713D02*
X251573390Y-88285713D01*
X251573390Y-88285713D02*
X251668628Y-88238094D01*
X251668628Y-88238094D02*
X251716247Y-88190475D01*
X251716247Y-88190475D02*
X251763866Y-88095237D01*
X251763866Y-88095237D02*
X251763866Y-87904761D01*
X251763866Y-87904761D02*
X251716247Y-87809523D01*
X251716247Y-87809523D02*
X251668628Y-87761904D01*
X251668628Y-87761904D02*
X251573390Y-87714285D01*
X243357142Y-90359580D02*
X243309523Y-90407200D01*
X243309523Y-90407200D02*
X243166666Y-90454819D01*
X243166666Y-90454819D02*
X243071428Y-90454819D01*
X243071428Y-90454819D02*
X242928571Y-90407200D01*
X242928571Y-90407200D02*
X242833333Y-90311961D01*
X242833333Y-90311961D02*
X242785714Y-90216723D01*
X242785714Y-90216723D02*
X242738095Y-90026247D01*
X242738095Y-90026247D02*
X242738095Y-89883390D01*
X242738095Y-89883390D02*
X242785714Y-89692914D01*
X242785714Y-89692914D02*
X242833333Y-89597676D01*
X242833333Y-89597676D02*
X242928571Y-89502438D01*
X242928571Y-89502438D02*
X243071428Y-89454819D01*
X243071428Y-89454819D02*
X243166666Y-89454819D01*
X243166666Y-89454819D02*
X243309523Y-89502438D01*
X243309523Y-89502438D02*
X243357142Y-89550057D01*
X244309523Y-90454819D02*
X243738095Y-90454819D01*
X244023809Y-90454819D02*
X244023809Y-89454819D01*
X244023809Y-89454819D02*
X243928571Y-89597676D01*
X243928571Y-89597676D02*
X243833333Y-89692914D01*
X243833333Y-89692914D02*
X243738095Y-89740533D01*
X244928571Y-89454819D02*
X245023809Y-89454819D01*
X245023809Y-89454819D02*
X245119047Y-89502438D01*
X245119047Y-89502438D02*
X245166666Y-89550057D01*
X245166666Y-89550057D02*
X245214285Y-89645295D01*
X245214285Y-89645295D02*
X245261904Y-89835771D01*
X245261904Y-89835771D02*
X245261904Y-90073866D01*
X245261904Y-90073866D02*
X245214285Y-90264342D01*
X245214285Y-90264342D02*
X245166666Y-90359580D01*
X245166666Y-90359580D02*
X245119047Y-90407200D01*
X245119047Y-90407200D02*
X245023809Y-90454819D01*
X245023809Y-90454819D02*
X244928571Y-90454819D01*
X244928571Y-90454819D02*
X244833333Y-90407200D01*
X244833333Y-90407200D02*
X244785714Y-90359580D01*
X244785714Y-90359580D02*
X244738095Y-90264342D01*
X244738095Y-90264342D02*
X244690476Y-90073866D01*
X244690476Y-90073866D02*
X244690476Y-89835771D01*
X244690476Y-89835771D02*
X244738095Y-89645295D01*
X244738095Y-89645295D02*
X244785714Y-89550057D01*
X244785714Y-89550057D02*
X244833333Y-89502438D01*
X244833333Y-89502438D02*
X244928571Y-89454819D01*
X260134642Y-114899819D02*
X259801309Y-114423628D01*
X259563214Y-114899819D02*
X259563214Y-113899819D01*
X259563214Y-113899819D02*
X259944166Y-113899819D01*
X259944166Y-113899819D02*
X260039404Y-113947438D01*
X260039404Y-113947438D02*
X260087023Y-113995057D01*
X260087023Y-113995057D02*
X260134642Y-114090295D01*
X260134642Y-114090295D02*
X260134642Y-114233152D01*
X260134642Y-114233152D02*
X260087023Y-114328390D01*
X260087023Y-114328390D02*
X260039404Y-114376009D01*
X260039404Y-114376009D02*
X259944166Y-114423628D01*
X259944166Y-114423628D02*
X259563214Y-114423628D01*
X261087023Y-114899819D02*
X260515595Y-114899819D01*
X260801309Y-114899819D02*
X260801309Y-113899819D01*
X260801309Y-113899819D02*
X260706071Y-114042676D01*
X260706071Y-114042676D02*
X260610833Y-114137914D01*
X260610833Y-114137914D02*
X260515595Y-114185533D01*
X261467976Y-113995057D02*
X261515595Y-113947438D01*
X261515595Y-113947438D02*
X261610833Y-113899819D01*
X261610833Y-113899819D02*
X261848928Y-113899819D01*
X261848928Y-113899819D02*
X261944166Y-113947438D01*
X261944166Y-113947438D02*
X261991785Y-113995057D01*
X261991785Y-113995057D02*
X262039404Y-114090295D01*
X262039404Y-114090295D02*
X262039404Y-114185533D01*
X262039404Y-114185533D02*
X261991785Y-114328390D01*
X261991785Y-114328390D02*
X261420357Y-114899819D01*
X261420357Y-114899819D02*
X262039404Y-114899819D01*
X250240833Y-107087319D02*
X249907500Y-106611128D01*
X249669405Y-107087319D02*
X249669405Y-106087319D01*
X249669405Y-106087319D02*
X250050357Y-106087319D01*
X250050357Y-106087319D02*
X250145595Y-106134938D01*
X250145595Y-106134938D02*
X250193214Y-106182557D01*
X250193214Y-106182557D02*
X250240833Y-106277795D01*
X250240833Y-106277795D02*
X250240833Y-106420652D01*
X250240833Y-106420652D02*
X250193214Y-106515890D01*
X250193214Y-106515890D02*
X250145595Y-106563509D01*
X250145595Y-106563509D02*
X250050357Y-106611128D01*
X250050357Y-106611128D02*
X249669405Y-106611128D01*
X250574167Y-106087319D02*
X251193214Y-106087319D01*
X251193214Y-106087319D02*
X250859881Y-106468271D01*
X250859881Y-106468271D02*
X251002738Y-106468271D01*
X251002738Y-106468271D02*
X251097976Y-106515890D01*
X251097976Y-106515890D02*
X251145595Y-106563509D01*
X251145595Y-106563509D02*
X251193214Y-106658747D01*
X251193214Y-106658747D02*
X251193214Y-106896842D01*
X251193214Y-106896842D02*
X251145595Y-106992080D01*
X251145595Y-106992080D02*
X251097976Y-107039700D01*
X251097976Y-107039700D02*
X251002738Y-107087319D01*
X251002738Y-107087319D02*
X250717024Y-107087319D01*
X250717024Y-107087319D02*
X250621786Y-107039700D01*
X250621786Y-107039700D02*
X250574167Y-106992080D01*
X255490833Y-103204819D02*
X255157500Y-102728628D01*
X254919405Y-103204819D02*
X254919405Y-102204819D01*
X254919405Y-102204819D02*
X255300357Y-102204819D01*
X255300357Y-102204819D02*
X255395595Y-102252438D01*
X255395595Y-102252438D02*
X255443214Y-102300057D01*
X255443214Y-102300057D02*
X255490833Y-102395295D01*
X255490833Y-102395295D02*
X255490833Y-102538152D01*
X255490833Y-102538152D02*
X255443214Y-102633390D01*
X255443214Y-102633390D02*
X255395595Y-102681009D01*
X255395595Y-102681009D02*
X255300357Y-102728628D01*
X255300357Y-102728628D02*
X254919405Y-102728628D01*
X256347976Y-102538152D02*
X256347976Y-103204819D01*
X256109881Y-102157200D02*
X255871786Y-102871485D01*
X255871786Y-102871485D02*
X256490833Y-102871485D01*
X192857142Y-96039580D02*
X192809523Y-96087200D01*
X192809523Y-96087200D02*
X192666666Y-96134819D01*
X192666666Y-96134819D02*
X192571428Y-96134819D01*
X192571428Y-96134819D02*
X192428571Y-96087200D01*
X192428571Y-96087200D02*
X192333333Y-95991961D01*
X192333333Y-95991961D02*
X192285714Y-95896723D01*
X192285714Y-95896723D02*
X192238095Y-95706247D01*
X192238095Y-95706247D02*
X192238095Y-95563390D01*
X192238095Y-95563390D02*
X192285714Y-95372914D01*
X192285714Y-95372914D02*
X192333333Y-95277676D01*
X192333333Y-95277676D02*
X192428571Y-95182438D01*
X192428571Y-95182438D02*
X192571428Y-95134819D01*
X192571428Y-95134819D02*
X192666666Y-95134819D01*
X192666666Y-95134819D02*
X192809523Y-95182438D01*
X192809523Y-95182438D02*
X192857142Y-95230057D01*
X193809523Y-96134819D02*
X193238095Y-96134819D01*
X193523809Y-96134819D02*
X193523809Y-95134819D01*
X193523809Y-95134819D02*
X193428571Y-95277676D01*
X193428571Y-95277676D02*
X193333333Y-95372914D01*
X193333333Y-95372914D02*
X193238095Y-95420533D01*
X194190476Y-95230057D02*
X194238095Y-95182438D01*
X194238095Y-95182438D02*
X194333333Y-95134819D01*
X194333333Y-95134819D02*
X194571428Y-95134819D01*
X194571428Y-95134819D02*
X194666666Y-95182438D01*
X194666666Y-95182438D02*
X194714285Y-95230057D01*
X194714285Y-95230057D02*
X194761904Y-95325295D01*
X194761904Y-95325295D02*
X194761904Y-95420533D01*
X194761904Y-95420533D02*
X194714285Y-95563390D01*
X194714285Y-95563390D02*
X194142857Y-96134819D01*
X194142857Y-96134819D02*
X194761904Y-96134819D01*
X196083333Y-100304819D02*
X195750000Y-99828628D01*
X195511905Y-100304819D02*
X195511905Y-99304819D01*
X195511905Y-99304819D02*
X195892857Y-99304819D01*
X195892857Y-99304819D02*
X195988095Y-99352438D01*
X195988095Y-99352438D02*
X196035714Y-99400057D01*
X196035714Y-99400057D02*
X196083333Y-99495295D01*
X196083333Y-99495295D02*
X196083333Y-99638152D01*
X196083333Y-99638152D02*
X196035714Y-99733390D01*
X196035714Y-99733390D02*
X195988095Y-99781009D01*
X195988095Y-99781009D02*
X195892857Y-99828628D01*
X195892857Y-99828628D02*
X195511905Y-99828628D01*
X197035714Y-100304819D02*
X196464286Y-100304819D01*
X196750000Y-100304819D02*
X196750000Y-99304819D01*
X196750000Y-99304819D02*
X196654762Y-99447676D01*
X196654762Y-99447676D02*
X196559524Y-99542914D01*
X196559524Y-99542914D02*
X196464286Y-99590533D01*
X232663333Y-90359580D02*
X232615714Y-90407200D01*
X232615714Y-90407200D02*
X232472857Y-90454819D01*
X232472857Y-90454819D02*
X232377619Y-90454819D01*
X232377619Y-90454819D02*
X232234762Y-90407200D01*
X232234762Y-90407200D02*
X232139524Y-90311961D01*
X232139524Y-90311961D02*
X232091905Y-90216723D01*
X232091905Y-90216723D02*
X232044286Y-90026247D01*
X232044286Y-90026247D02*
X232044286Y-89883390D01*
X232044286Y-89883390D02*
X232091905Y-89692914D01*
X232091905Y-89692914D02*
X232139524Y-89597676D01*
X232139524Y-89597676D02*
X232234762Y-89502438D01*
X232234762Y-89502438D02*
X232377619Y-89454819D01*
X232377619Y-89454819D02*
X232472857Y-89454819D01*
X232472857Y-89454819D02*
X232615714Y-89502438D01*
X232615714Y-89502438D02*
X232663333Y-89550057D01*
X233139524Y-90454819D02*
X233330000Y-90454819D01*
X233330000Y-90454819D02*
X233425238Y-90407200D01*
X233425238Y-90407200D02*
X233472857Y-90359580D01*
X233472857Y-90359580D02*
X233568095Y-90216723D01*
X233568095Y-90216723D02*
X233615714Y-90026247D01*
X233615714Y-90026247D02*
X233615714Y-89645295D01*
X233615714Y-89645295D02*
X233568095Y-89550057D01*
X233568095Y-89550057D02*
X233520476Y-89502438D01*
X233520476Y-89502438D02*
X233425238Y-89454819D01*
X233425238Y-89454819D02*
X233234762Y-89454819D01*
X233234762Y-89454819D02*
X233139524Y-89502438D01*
X233139524Y-89502438D02*
X233091905Y-89550057D01*
X233091905Y-89550057D02*
X233044286Y-89645295D01*
X233044286Y-89645295D02*
X233044286Y-89883390D01*
X233044286Y-89883390D02*
X233091905Y-89978628D01*
X233091905Y-89978628D02*
X233139524Y-90026247D01*
X233139524Y-90026247D02*
X233234762Y-90073866D01*
X233234762Y-90073866D02*
X233425238Y-90073866D01*
X233425238Y-90073866D02*
X233520476Y-90026247D01*
X233520476Y-90026247D02*
X233568095Y-89978628D01*
X233568095Y-89978628D02*
X233615714Y-89883390D01*
X245488095Y-96004819D02*
X245488095Y-95004819D01*
X245488095Y-95481009D02*
X246059523Y-95481009D01*
X246059523Y-96004819D02*
X246059523Y-95004819D01*
X247059523Y-96004819D02*
X246488095Y-96004819D01*
X246773809Y-96004819D02*
X246773809Y-95004819D01*
X246773809Y-95004819D02*
X246678571Y-95147676D01*
X246678571Y-95147676D02*
X246583333Y-95242914D01*
X246583333Y-95242914D02*
X246488095Y-95290533D01*
X236204819Y-80833333D02*
X236919104Y-80833333D01*
X236919104Y-80833333D02*
X237061961Y-80880952D01*
X237061961Y-80880952D02*
X237157200Y-80976190D01*
X237157200Y-80976190D02*
X237204819Y-81119047D01*
X237204819Y-81119047D02*
X237204819Y-81214285D01*
X236204819Y-80452380D02*
X236204819Y-79785714D01*
X236204819Y-79785714D02*
X237204819Y-80214285D01*
X229704819Y-108416666D02*
X229228628Y-108749999D01*
X229704819Y-108988094D02*
X228704819Y-108988094D01*
X228704819Y-108988094D02*
X228704819Y-108607142D01*
X228704819Y-108607142D02*
X228752438Y-108511904D01*
X228752438Y-108511904D02*
X228800057Y-108464285D01*
X228800057Y-108464285D02*
X228895295Y-108416666D01*
X228895295Y-108416666D02*
X229038152Y-108416666D01*
X229038152Y-108416666D02*
X229133390Y-108464285D01*
X229133390Y-108464285D02*
X229181009Y-108511904D01*
X229181009Y-108511904D02*
X229228628Y-108607142D01*
X229228628Y-108607142D02*
X229228628Y-108988094D01*
X228704819Y-108083332D02*
X228704819Y-107416666D01*
X228704819Y-107416666D02*
X229704819Y-107845237D01*
X255204819Y-80833333D02*
X255919104Y-80833333D01*
X255919104Y-80833333D02*
X256061961Y-80880952D01*
X256061961Y-80880952D02*
X256157200Y-80976190D01*
X256157200Y-80976190D02*
X256204819Y-81119047D01*
X256204819Y-81119047D02*
X256204819Y-81214285D01*
X255300057Y-80404761D02*
X255252438Y-80357142D01*
X255252438Y-80357142D02*
X255204819Y-80261904D01*
X255204819Y-80261904D02*
X255204819Y-80023809D01*
X255204819Y-80023809D02*
X255252438Y-79928571D01*
X255252438Y-79928571D02*
X255300057Y-79880952D01*
X255300057Y-79880952D02*
X255395295Y-79833333D01*
X255395295Y-79833333D02*
X255490533Y-79833333D01*
X255490533Y-79833333D02*
X255633390Y-79880952D01*
X255633390Y-79880952D02*
X256204819Y-80452380D01*
X256204819Y-80452380D02*
X256204819Y-79833333D01*
X246033095Y-106337319D02*
X246033095Y-107146842D01*
X246033095Y-107146842D02*
X246080714Y-107242080D01*
X246080714Y-107242080D02*
X246128333Y-107289700D01*
X246128333Y-107289700D02*
X246223571Y-107337319D01*
X246223571Y-107337319D02*
X246414047Y-107337319D01*
X246414047Y-107337319D02*
X246509285Y-107289700D01*
X246509285Y-107289700D02*
X246556904Y-107242080D01*
X246556904Y-107242080D02*
X246604523Y-107146842D01*
X246604523Y-107146842D02*
X246604523Y-106337319D01*
X247509285Y-106670652D02*
X247509285Y-107337319D01*
X247271190Y-106289700D02*
X247033095Y-107003985D01*
X247033095Y-107003985D02*
X247652142Y-107003985D01*
X194779642Y-113342319D02*
X194446309Y-112866128D01*
X194208214Y-113342319D02*
X194208214Y-112342319D01*
X194208214Y-112342319D02*
X194589166Y-112342319D01*
X194589166Y-112342319D02*
X194684404Y-112389938D01*
X194684404Y-112389938D02*
X194732023Y-112437557D01*
X194732023Y-112437557D02*
X194779642Y-112532795D01*
X194779642Y-112532795D02*
X194779642Y-112675652D01*
X194779642Y-112675652D02*
X194732023Y-112770890D01*
X194732023Y-112770890D02*
X194684404Y-112818509D01*
X194684404Y-112818509D02*
X194589166Y-112866128D01*
X194589166Y-112866128D02*
X194208214Y-112866128D01*
X195732023Y-113342319D02*
X195160595Y-113342319D01*
X195446309Y-113342319D02*
X195446309Y-112342319D01*
X195446309Y-112342319D02*
X195351071Y-112485176D01*
X195351071Y-112485176D02*
X195255833Y-112580414D01*
X195255833Y-112580414D02*
X195160595Y-112628033D01*
X196065357Y-112342319D02*
X196684404Y-112342319D01*
X196684404Y-112342319D02*
X196351071Y-112723271D01*
X196351071Y-112723271D02*
X196493928Y-112723271D01*
X196493928Y-112723271D02*
X196589166Y-112770890D01*
X196589166Y-112770890D02*
X196636785Y-112818509D01*
X196636785Y-112818509D02*
X196684404Y-112913747D01*
X196684404Y-112913747D02*
X196684404Y-113151842D01*
X196684404Y-113151842D02*
X196636785Y-113247080D01*
X196636785Y-113247080D02*
X196589166Y-113294700D01*
X196589166Y-113294700D02*
X196493928Y-113342319D01*
X196493928Y-113342319D02*
X196208214Y-113342319D01*
X196208214Y-113342319D02*
X196112976Y-113294700D01*
X196112976Y-113294700D02*
X196065357Y-113247080D01*
X226714285Y-126181009D02*
X226857142Y-126228628D01*
X226857142Y-126228628D02*
X226904761Y-126276247D01*
X226904761Y-126276247D02*
X226952380Y-126371485D01*
X226952380Y-126371485D02*
X226952380Y-126514342D01*
X226952380Y-126514342D02*
X226904761Y-126609580D01*
X226904761Y-126609580D02*
X226857142Y-126657200D01*
X226857142Y-126657200D02*
X226761904Y-126704819D01*
X226761904Y-126704819D02*
X226380952Y-126704819D01*
X226380952Y-126704819D02*
X226380952Y-125704819D01*
X226380952Y-125704819D02*
X226714285Y-125704819D01*
X226714285Y-125704819D02*
X226809523Y-125752438D01*
X226809523Y-125752438D02*
X226857142Y-125800057D01*
X226857142Y-125800057D02*
X226904761Y-125895295D01*
X226904761Y-125895295D02*
X226904761Y-125990533D01*
X226904761Y-125990533D02*
X226857142Y-126085771D01*
X226857142Y-126085771D02*
X226809523Y-126133390D01*
X226809523Y-126133390D02*
X226714285Y-126181009D01*
X226714285Y-126181009D02*
X226380952Y-126181009D01*
X227238095Y-125704819D02*
X227809523Y-125704819D01*
X227523809Y-126704819D02*
X227523809Y-125704819D01*
X228666666Y-126704819D02*
X228095238Y-126704819D01*
X228380952Y-126704819D02*
X228380952Y-125704819D01*
X228380952Y-125704819D02*
X228285714Y-125847676D01*
X228285714Y-125847676D02*
X228190476Y-125942914D01*
X228190476Y-125942914D02*
X228095238Y-125990533D01*
X219146666Y-109534819D02*
X219146666Y-110249104D01*
X219146666Y-110249104D02*
X219099047Y-110391961D01*
X219099047Y-110391961D02*
X219003809Y-110487200D01*
X219003809Y-110487200D02*
X218860952Y-110534819D01*
X218860952Y-110534819D02*
X218765714Y-110534819D01*
X220051428Y-109868152D02*
X220051428Y-110534819D01*
X219813333Y-109487200D02*
X219575238Y-110201485D01*
X219575238Y-110201485D02*
X220194285Y-110201485D01*
X255490833Y-109174819D02*
X255157500Y-108698628D01*
X254919405Y-109174819D02*
X254919405Y-108174819D01*
X254919405Y-108174819D02*
X255300357Y-108174819D01*
X255300357Y-108174819D02*
X255395595Y-108222438D01*
X255395595Y-108222438D02*
X255443214Y-108270057D01*
X255443214Y-108270057D02*
X255490833Y-108365295D01*
X255490833Y-108365295D02*
X255490833Y-108508152D01*
X255490833Y-108508152D02*
X255443214Y-108603390D01*
X255443214Y-108603390D02*
X255395595Y-108651009D01*
X255395595Y-108651009D02*
X255300357Y-108698628D01*
X255300357Y-108698628D02*
X254919405Y-108698628D01*
X256395595Y-108174819D02*
X255919405Y-108174819D01*
X255919405Y-108174819D02*
X255871786Y-108651009D01*
X255871786Y-108651009D02*
X255919405Y-108603390D01*
X255919405Y-108603390D02*
X256014643Y-108555771D01*
X256014643Y-108555771D02*
X256252738Y-108555771D01*
X256252738Y-108555771D02*
X256347976Y-108603390D01*
X256347976Y-108603390D02*
X256395595Y-108651009D01*
X256395595Y-108651009D02*
X256443214Y-108746247D01*
X256443214Y-108746247D02*
X256443214Y-108984342D01*
X256443214Y-108984342D02*
X256395595Y-109079580D01*
X256395595Y-109079580D02*
X256347976Y-109127200D01*
X256347976Y-109127200D02*
X256252738Y-109174819D01*
X256252738Y-109174819D02*
X256014643Y-109174819D01*
X256014643Y-109174819D02*
X255919405Y-109127200D01*
X255919405Y-109127200D02*
X255871786Y-109079580D01*
X259823333Y-94359580D02*
X259775714Y-94407200D01*
X259775714Y-94407200D02*
X259632857Y-94454819D01*
X259632857Y-94454819D02*
X259537619Y-94454819D01*
X259537619Y-94454819D02*
X259394762Y-94407200D01*
X259394762Y-94407200D02*
X259299524Y-94311961D01*
X259299524Y-94311961D02*
X259251905Y-94216723D01*
X259251905Y-94216723D02*
X259204286Y-94026247D01*
X259204286Y-94026247D02*
X259204286Y-93883390D01*
X259204286Y-93883390D02*
X259251905Y-93692914D01*
X259251905Y-93692914D02*
X259299524Y-93597676D01*
X259299524Y-93597676D02*
X259394762Y-93502438D01*
X259394762Y-93502438D02*
X259537619Y-93454819D01*
X259537619Y-93454819D02*
X259632857Y-93454819D01*
X259632857Y-93454819D02*
X259775714Y-93502438D01*
X259775714Y-93502438D02*
X259823333Y-93550057D01*
X260156667Y-93454819D02*
X260823333Y-93454819D01*
X260823333Y-93454819D02*
X260394762Y-94454819D01*
X229429580Y-101166666D02*
X229477200Y-101214285D01*
X229477200Y-101214285D02*
X229524819Y-101357142D01*
X229524819Y-101357142D02*
X229524819Y-101452380D01*
X229524819Y-101452380D02*
X229477200Y-101595237D01*
X229477200Y-101595237D02*
X229381961Y-101690475D01*
X229381961Y-101690475D02*
X229286723Y-101738094D01*
X229286723Y-101738094D02*
X229096247Y-101785713D01*
X229096247Y-101785713D02*
X228953390Y-101785713D01*
X228953390Y-101785713D02*
X228762914Y-101738094D01*
X228762914Y-101738094D02*
X228667676Y-101690475D01*
X228667676Y-101690475D02*
X228572438Y-101595237D01*
X228572438Y-101595237D02*
X228524819Y-101452380D01*
X228524819Y-101452380D02*
X228524819Y-101357142D01*
X228524819Y-101357142D02*
X228572438Y-101214285D01*
X228572438Y-101214285D02*
X228620057Y-101166666D01*
X228524819Y-100833332D02*
X228524819Y-100214285D01*
X228524819Y-100214285D02*
X228905771Y-100547618D01*
X228905771Y-100547618D02*
X228905771Y-100404761D01*
X228905771Y-100404761D02*
X228953390Y-100309523D01*
X228953390Y-100309523D02*
X229001009Y-100261904D01*
X229001009Y-100261904D02*
X229096247Y-100214285D01*
X229096247Y-100214285D02*
X229334342Y-100214285D01*
X229334342Y-100214285D02*
X229429580Y-100261904D01*
X229429580Y-100261904D02*
X229477200Y-100309523D01*
X229477200Y-100309523D02*
X229524819Y-100404761D01*
X229524819Y-100404761D02*
X229524819Y-100690475D01*
X229524819Y-100690475D02*
X229477200Y-100785713D01*
X229477200Y-100785713D02*
X229429580Y-100833332D01*
X229704819Y-112166666D02*
X229228628Y-112499999D01*
X229704819Y-112738094D02*
X228704819Y-112738094D01*
X228704819Y-112738094D02*
X228704819Y-112357142D01*
X228704819Y-112357142D02*
X228752438Y-112261904D01*
X228752438Y-112261904D02*
X228800057Y-112214285D01*
X228800057Y-112214285D02*
X228895295Y-112166666D01*
X228895295Y-112166666D02*
X229038152Y-112166666D01*
X229038152Y-112166666D02*
X229133390Y-112214285D01*
X229133390Y-112214285D02*
X229181009Y-112261904D01*
X229181009Y-112261904D02*
X229228628Y-112357142D01*
X229228628Y-112357142D02*
X229228628Y-112738094D01*
X228704819Y-111309523D02*
X228704819Y-111499999D01*
X228704819Y-111499999D02*
X228752438Y-111595237D01*
X228752438Y-111595237D02*
X228800057Y-111642856D01*
X228800057Y-111642856D02*
X228942914Y-111738094D01*
X228942914Y-111738094D02*
X229133390Y-111785713D01*
X229133390Y-111785713D02*
X229514342Y-111785713D01*
X229514342Y-111785713D02*
X229609580Y-111738094D01*
X229609580Y-111738094D02*
X229657200Y-111690475D01*
X229657200Y-111690475D02*
X229704819Y-111595237D01*
X229704819Y-111595237D02*
X229704819Y-111404761D01*
X229704819Y-111404761D02*
X229657200Y-111309523D01*
X229657200Y-111309523D02*
X229609580Y-111261904D01*
X229609580Y-111261904D02*
X229514342Y-111214285D01*
X229514342Y-111214285D02*
X229276247Y-111214285D01*
X229276247Y-111214285D02*
X229181009Y-111261904D01*
X229181009Y-111261904D02*
X229133390Y-111309523D01*
X229133390Y-111309523D02*
X229085771Y-111404761D01*
X229085771Y-111404761D02*
X229085771Y-111595237D01*
X229085771Y-111595237D02*
X229133390Y-111690475D01*
X229133390Y-111690475D02*
X229181009Y-111738094D01*
X229181009Y-111738094D02*
X229276247Y-111785713D01*
X189738095Y-96004819D02*
X189738095Y-95004819D01*
X189738095Y-95481009D02*
X190309523Y-95481009D01*
X190309523Y-96004819D02*
X190309523Y-95004819D01*
X190738095Y-95100057D02*
X190785714Y-95052438D01*
X190785714Y-95052438D02*
X190880952Y-95004819D01*
X190880952Y-95004819D02*
X191119047Y-95004819D01*
X191119047Y-95004819D02*
X191214285Y-95052438D01*
X191214285Y-95052438D02*
X191261904Y-95100057D01*
X191261904Y-95100057D02*
X191309523Y-95195295D01*
X191309523Y-95195295D02*
X191309523Y-95290533D01*
X191309523Y-95290533D02*
X191261904Y-95433390D01*
X191261904Y-95433390D02*
X190690476Y-96004819D01*
X190690476Y-96004819D02*
X191309523Y-96004819D01*
X260394819Y-89142857D02*
X259918628Y-89476190D01*
X260394819Y-89714285D02*
X259394819Y-89714285D01*
X259394819Y-89714285D02*
X259394819Y-89333333D01*
X259394819Y-89333333D02*
X259442438Y-89238095D01*
X259442438Y-89238095D02*
X259490057Y-89190476D01*
X259490057Y-89190476D02*
X259585295Y-89142857D01*
X259585295Y-89142857D02*
X259728152Y-89142857D01*
X259728152Y-89142857D02*
X259823390Y-89190476D01*
X259823390Y-89190476D02*
X259871009Y-89238095D01*
X259871009Y-89238095D02*
X259918628Y-89333333D01*
X259918628Y-89333333D02*
X259918628Y-89714285D01*
X260394819Y-88190476D02*
X260394819Y-88761904D01*
X260394819Y-88476190D02*
X259394819Y-88476190D01*
X259394819Y-88476190D02*
X259537676Y-88571428D01*
X259537676Y-88571428D02*
X259632914Y-88666666D01*
X259632914Y-88666666D02*
X259680533Y-88761904D01*
X260394819Y-87238095D02*
X260394819Y-87809523D01*
X260394819Y-87523809D02*
X259394819Y-87523809D01*
X259394819Y-87523809D02*
X259537676Y-87619047D01*
X259537676Y-87619047D02*
X259632914Y-87714285D01*
X259632914Y-87714285D02*
X259680533Y-87809523D01*
X264261905Y-98054819D02*
X264261905Y-97054819D01*
X264261905Y-97054819D02*
X264500000Y-97054819D01*
X264500000Y-97054819D02*
X264642857Y-97102438D01*
X264642857Y-97102438D02*
X264738095Y-97197676D01*
X264738095Y-97197676D02*
X264785714Y-97292914D01*
X264785714Y-97292914D02*
X264833333Y-97483390D01*
X264833333Y-97483390D02*
X264833333Y-97626247D01*
X264833333Y-97626247D02*
X264785714Y-97816723D01*
X264785714Y-97816723D02*
X264738095Y-97911961D01*
X264738095Y-97911961D02*
X264642857Y-98007200D01*
X264642857Y-98007200D02*
X264500000Y-98054819D01*
X264500000Y-98054819D02*
X264261905Y-98054819D01*
X265785714Y-98054819D02*
X265214286Y-98054819D01*
X265500000Y-98054819D02*
X265500000Y-97054819D01*
X265500000Y-97054819D02*
X265404762Y-97197676D01*
X265404762Y-97197676D02*
X265309524Y-97292914D01*
X265309524Y-97292914D02*
X265214286Y-97340533D01*
X251583333Y-94359580D02*
X251535714Y-94407200D01*
X251535714Y-94407200D02*
X251392857Y-94454819D01*
X251392857Y-94454819D02*
X251297619Y-94454819D01*
X251297619Y-94454819D02*
X251154762Y-94407200D01*
X251154762Y-94407200D02*
X251059524Y-94311961D01*
X251059524Y-94311961D02*
X251011905Y-94216723D01*
X251011905Y-94216723D02*
X250964286Y-94026247D01*
X250964286Y-94026247D02*
X250964286Y-93883390D01*
X250964286Y-93883390D02*
X251011905Y-93692914D01*
X251011905Y-93692914D02*
X251059524Y-93597676D01*
X251059524Y-93597676D02*
X251154762Y-93502438D01*
X251154762Y-93502438D02*
X251297619Y-93454819D01*
X251297619Y-93454819D02*
X251392857Y-93454819D01*
X251392857Y-93454819D02*
X251535714Y-93502438D01*
X251535714Y-93502438D02*
X251583333Y-93550057D01*
X252440476Y-93454819D02*
X252250000Y-93454819D01*
X252250000Y-93454819D02*
X252154762Y-93502438D01*
X252154762Y-93502438D02*
X252107143Y-93550057D01*
X252107143Y-93550057D02*
X252011905Y-93692914D01*
X252011905Y-93692914D02*
X251964286Y-93883390D01*
X251964286Y-93883390D02*
X251964286Y-94264342D01*
X251964286Y-94264342D02*
X252011905Y-94359580D01*
X252011905Y-94359580D02*
X252059524Y-94407200D01*
X252059524Y-94407200D02*
X252154762Y-94454819D01*
X252154762Y-94454819D02*
X252345238Y-94454819D01*
X252345238Y-94454819D02*
X252440476Y-94407200D01*
X252440476Y-94407200D02*
X252488095Y-94359580D01*
X252488095Y-94359580D02*
X252535714Y-94264342D01*
X252535714Y-94264342D02*
X252535714Y-94026247D01*
X252535714Y-94026247D02*
X252488095Y-93931009D01*
X252488095Y-93931009D02*
X252440476Y-93883390D01*
X252440476Y-93883390D02*
X252345238Y-93835771D01*
X252345238Y-93835771D02*
X252154762Y-93835771D01*
X252154762Y-93835771D02*
X252059524Y-93883390D01*
X252059524Y-93883390D02*
X252011905Y-93931009D01*
X252011905Y-93931009D02*
X251964286Y-94026247D01*
X199654761Y-92204819D02*
X199321428Y-91728628D01*
X199083333Y-92204819D02*
X199083333Y-91204819D01*
X199083333Y-91204819D02*
X199464285Y-91204819D01*
X199464285Y-91204819D02*
X199559523Y-91252438D01*
X199559523Y-91252438D02*
X199607142Y-91300057D01*
X199607142Y-91300057D02*
X199654761Y-91395295D01*
X199654761Y-91395295D02*
X199654761Y-91538152D01*
X199654761Y-91538152D02*
X199607142Y-91633390D01*
X199607142Y-91633390D02*
X199559523Y-91681009D01*
X199559523Y-91681009D02*
X199464285Y-91728628D01*
X199464285Y-91728628D02*
X199083333Y-91728628D01*
X199940476Y-91204819D02*
X200273809Y-92204819D01*
X200273809Y-92204819D02*
X200607142Y-91204819D01*
X200892857Y-91300057D02*
X200940476Y-91252438D01*
X200940476Y-91252438D02*
X201035714Y-91204819D01*
X201035714Y-91204819D02*
X201273809Y-91204819D01*
X201273809Y-91204819D02*
X201369047Y-91252438D01*
X201369047Y-91252438D02*
X201416666Y-91300057D01*
X201416666Y-91300057D02*
X201464285Y-91395295D01*
X201464285Y-91395295D02*
X201464285Y-91490533D01*
X201464285Y-91490533D02*
X201416666Y-91633390D01*
X201416666Y-91633390D02*
X200845238Y-92204819D01*
X200845238Y-92204819D02*
X201464285Y-92204819D01*
X201279819Y-106399404D02*
X202089342Y-106399404D01*
X202089342Y-106399404D02*
X202184580Y-106351785D01*
X202184580Y-106351785D02*
X202232200Y-106304166D01*
X202232200Y-106304166D02*
X202279819Y-106208928D01*
X202279819Y-106208928D02*
X202279819Y-106018452D01*
X202279819Y-106018452D02*
X202232200Y-105923214D01*
X202232200Y-105923214D02*
X202184580Y-105875595D01*
X202184580Y-105875595D02*
X202089342Y-105827976D01*
X202089342Y-105827976D02*
X201279819Y-105827976D01*
X201375057Y-105399404D02*
X201327438Y-105351785D01*
X201327438Y-105351785D02*
X201279819Y-105256547D01*
X201279819Y-105256547D02*
X201279819Y-105018452D01*
X201279819Y-105018452D02*
X201327438Y-104923214D01*
X201327438Y-104923214D02*
X201375057Y-104875595D01*
X201375057Y-104875595D02*
X201470295Y-104827976D01*
X201470295Y-104827976D02*
X201565533Y-104827976D01*
X201565533Y-104827976D02*
X201708390Y-104875595D01*
X201708390Y-104875595D02*
X202279819Y-105447023D01*
X202279819Y-105447023D02*
X202279819Y-104827976D01*
X260583333Y-97954819D02*
X260250000Y-97478628D01*
X260011905Y-97954819D02*
X260011905Y-96954819D01*
X260011905Y-96954819D02*
X260392857Y-96954819D01*
X260392857Y-96954819D02*
X260488095Y-97002438D01*
X260488095Y-97002438D02*
X260535714Y-97050057D01*
X260535714Y-97050057D02*
X260583333Y-97145295D01*
X260583333Y-97145295D02*
X260583333Y-97288152D01*
X260583333Y-97288152D02*
X260535714Y-97383390D01*
X260535714Y-97383390D02*
X260488095Y-97431009D01*
X260488095Y-97431009D02*
X260392857Y-97478628D01*
X260392857Y-97478628D02*
X260011905Y-97478628D01*
X260964286Y-97050057D02*
X261011905Y-97002438D01*
X261011905Y-97002438D02*
X261107143Y-96954819D01*
X261107143Y-96954819D02*
X261345238Y-96954819D01*
X261345238Y-96954819D02*
X261440476Y-97002438D01*
X261440476Y-97002438D02*
X261488095Y-97050057D01*
X261488095Y-97050057D02*
X261535714Y-97145295D01*
X261535714Y-97145295D02*
X261535714Y-97240533D01*
X261535714Y-97240533D02*
X261488095Y-97383390D01*
X261488095Y-97383390D02*
X260916667Y-97954819D01*
X260916667Y-97954819D02*
X261535714Y-97954819D01*
X207107142Y-96039580D02*
X207059523Y-96087200D01*
X207059523Y-96087200D02*
X206916666Y-96134819D01*
X206916666Y-96134819D02*
X206821428Y-96134819D01*
X206821428Y-96134819D02*
X206678571Y-96087200D01*
X206678571Y-96087200D02*
X206583333Y-95991961D01*
X206583333Y-95991961D02*
X206535714Y-95896723D01*
X206535714Y-95896723D02*
X206488095Y-95706247D01*
X206488095Y-95706247D02*
X206488095Y-95563390D01*
X206488095Y-95563390D02*
X206535714Y-95372914D01*
X206535714Y-95372914D02*
X206583333Y-95277676D01*
X206583333Y-95277676D02*
X206678571Y-95182438D01*
X206678571Y-95182438D02*
X206821428Y-95134819D01*
X206821428Y-95134819D02*
X206916666Y-95134819D01*
X206916666Y-95134819D02*
X207059523Y-95182438D01*
X207059523Y-95182438D02*
X207107142Y-95230057D01*
X208059523Y-96134819D02*
X207488095Y-96134819D01*
X207773809Y-96134819D02*
X207773809Y-95134819D01*
X207773809Y-95134819D02*
X207678571Y-95277676D01*
X207678571Y-95277676D02*
X207583333Y-95372914D01*
X207583333Y-95372914D02*
X207488095Y-95420533D01*
X209011904Y-96134819D02*
X208440476Y-96134819D01*
X208726190Y-96134819D02*
X208726190Y-95134819D01*
X208726190Y-95134819D02*
X208630952Y-95277676D01*
X208630952Y-95277676D02*
X208535714Y-95372914D01*
X208535714Y-95372914D02*
X208440476Y-95420533D01*
X197154761Y-96050057D02*
X197059523Y-96002438D01*
X197059523Y-96002438D02*
X196964285Y-95907200D01*
X196964285Y-95907200D02*
X196821428Y-95764342D01*
X196821428Y-95764342D02*
X196726190Y-95716723D01*
X196726190Y-95716723D02*
X196630952Y-95716723D01*
X196678571Y-95954819D02*
X196583333Y-95907200D01*
X196583333Y-95907200D02*
X196488095Y-95811961D01*
X196488095Y-95811961D02*
X196440476Y-95621485D01*
X196440476Y-95621485D02*
X196440476Y-95288152D01*
X196440476Y-95288152D02*
X196488095Y-95097676D01*
X196488095Y-95097676D02*
X196583333Y-95002438D01*
X196583333Y-95002438D02*
X196678571Y-94954819D01*
X196678571Y-94954819D02*
X196869047Y-94954819D01*
X196869047Y-94954819D02*
X196964285Y-95002438D01*
X196964285Y-95002438D02*
X197059523Y-95097676D01*
X197059523Y-95097676D02*
X197107142Y-95288152D01*
X197107142Y-95288152D02*
X197107142Y-95621485D01*
X197107142Y-95621485D02*
X197059523Y-95811961D01*
X197059523Y-95811961D02*
X196964285Y-95907200D01*
X196964285Y-95907200D02*
X196869047Y-95954819D01*
X196869047Y-95954819D02*
X196678571Y-95954819D01*
X198059523Y-95954819D02*
X197488095Y-95954819D01*
X197773809Y-95954819D02*
X197773809Y-94954819D01*
X197773809Y-94954819D02*
X197678571Y-95097676D01*
X197678571Y-95097676D02*
X197583333Y-95192914D01*
X197583333Y-95192914D02*
X197488095Y-95240533D01*
X263704819Y-80833333D02*
X264419104Y-80833333D01*
X264419104Y-80833333D02*
X264561961Y-80880952D01*
X264561961Y-80880952D02*
X264657200Y-80976190D01*
X264657200Y-80976190D02*
X264704819Y-81119047D01*
X264704819Y-81119047D02*
X264704819Y-81214285D01*
X263704819Y-80452380D02*
X263704819Y-79833333D01*
X263704819Y-79833333D02*
X264085771Y-80166666D01*
X264085771Y-80166666D02*
X264085771Y-80023809D01*
X264085771Y-80023809D02*
X264133390Y-79928571D01*
X264133390Y-79928571D02*
X264181009Y-79880952D01*
X264181009Y-79880952D02*
X264276247Y-79833333D01*
X264276247Y-79833333D02*
X264514342Y-79833333D01*
X264514342Y-79833333D02*
X264609580Y-79880952D01*
X264609580Y-79880952D02*
X264657200Y-79928571D01*
X264657200Y-79928571D02*
X264704819Y-80023809D01*
X264704819Y-80023809D02*
X264704819Y-80309523D01*
X264704819Y-80309523D02*
X264657200Y-80404761D01*
X264657200Y-80404761D02*
X264609580Y-80452380D01*
X246954819Y-80833333D02*
X247669104Y-80833333D01*
X247669104Y-80833333D02*
X247811961Y-80880952D01*
X247811961Y-80880952D02*
X247907200Y-80976190D01*
X247907200Y-80976190D02*
X247954819Y-81119047D01*
X247954819Y-81119047D02*
X247954819Y-81214285D01*
X247383390Y-80214285D02*
X247335771Y-80309523D01*
X247335771Y-80309523D02*
X247288152Y-80357142D01*
X247288152Y-80357142D02*
X247192914Y-80404761D01*
X247192914Y-80404761D02*
X247145295Y-80404761D01*
X247145295Y-80404761D02*
X247050057Y-80357142D01*
X247050057Y-80357142D02*
X247002438Y-80309523D01*
X247002438Y-80309523D02*
X246954819Y-80214285D01*
X246954819Y-80214285D02*
X246954819Y-80023809D01*
X246954819Y-80023809D02*
X247002438Y-79928571D01*
X247002438Y-79928571D02*
X247050057Y-79880952D01*
X247050057Y-79880952D02*
X247145295Y-79833333D01*
X247145295Y-79833333D02*
X247192914Y-79833333D01*
X247192914Y-79833333D02*
X247288152Y-79880952D01*
X247288152Y-79880952D02*
X247335771Y-79928571D01*
X247335771Y-79928571D02*
X247383390Y-80023809D01*
X247383390Y-80023809D02*
X247383390Y-80214285D01*
X247383390Y-80214285D02*
X247431009Y-80309523D01*
X247431009Y-80309523D02*
X247478628Y-80357142D01*
X247478628Y-80357142D02*
X247573866Y-80404761D01*
X247573866Y-80404761D02*
X247764342Y-80404761D01*
X247764342Y-80404761D02*
X247859580Y-80357142D01*
X247859580Y-80357142D02*
X247907200Y-80309523D01*
X247907200Y-80309523D02*
X247954819Y-80214285D01*
X247954819Y-80214285D02*
X247954819Y-80023809D01*
X247954819Y-80023809D02*
X247907200Y-79928571D01*
X247907200Y-79928571D02*
X247859580Y-79880952D01*
X247859580Y-79880952D02*
X247764342Y-79833333D01*
X247764342Y-79833333D02*
X247573866Y-79833333D01*
X247573866Y-79833333D02*
X247478628Y-79880952D01*
X247478628Y-79880952D02*
X247431009Y-79928571D01*
X247431009Y-79928571D02*
X247383390Y-80023809D01*
X225454819Y-80583333D02*
X226169104Y-80583333D01*
X226169104Y-80583333D02*
X226311961Y-80630952D01*
X226311961Y-80630952D02*
X226407200Y-80726190D01*
X226407200Y-80726190D02*
X226454819Y-80869047D01*
X226454819Y-80869047D02*
X226454819Y-80964285D01*
X225454819Y-79678571D02*
X225454819Y-79869047D01*
X225454819Y-79869047D02*
X225502438Y-79964285D01*
X225502438Y-79964285D02*
X225550057Y-80011904D01*
X225550057Y-80011904D02*
X225692914Y-80107142D01*
X225692914Y-80107142D02*
X225883390Y-80154761D01*
X225883390Y-80154761D02*
X226264342Y-80154761D01*
X226264342Y-80154761D02*
X226359580Y-80107142D01*
X226359580Y-80107142D02*
X226407200Y-80059523D01*
X226407200Y-80059523D02*
X226454819Y-79964285D01*
X226454819Y-79964285D02*
X226454819Y-79773809D01*
X226454819Y-79773809D02*
X226407200Y-79678571D01*
X226407200Y-79678571D02*
X226359580Y-79630952D01*
X226359580Y-79630952D02*
X226264342Y-79583333D01*
X226264342Y-79583333D02*
X226026247Y-79583333D01*
X226026247Y-79583333D02*
X225931009Y-79630952D01*
X225931009Y-79630952D02*
X225883390Y-79678571D01*
X225883390Y-79678571D02*
X225835771Y-79773809D01*
X225835771Y-79773809D02*
X225835771Y-79964285D01*
X225835771Y-79964285D02*
X225883390Y-80059523D01*
X225883390Y-80059523D02*
X225931009Y-80107142D01*
X225931009Y-80107142D02*
X226026247Y-80154761D01*
X257962319Y-106333333D02*
X258676604Y-106333333D01*
X258676604Y-106333333D02*
X258819461Y-106380952D01*
X258819461Y-106380952D02*
X258914700Y-106476190D01*
X258914700Y-106476190D02*
X258962319Y-106619047D01*
X258962319Y-106619047D02*
X258962319Y-106714285D01*
X257962319Y-105380952D02*
X257962319Y-105857142D01*
X257962319Y-105857142D02*
X258438509Y-105904761D01*
X258438509Y-105904761D02*
X258390890Y-105857142D01*
X258390890Y-105857142D02*
X258343271Y-105761904D01*
X258343271Y-105761904D02*
X258343271Y-105523809D01*
X258343271Y-105523809D02*
X258390890Y-105428571D01*
X258390890Y-105428571D02*
X258438509Y-105380952D01*
X258438509Y-105380952D02*
X258533747Y-105333333D01*
X258533747Y-105333333D02*
X258771842Y-105333333D01*
X258771842Y-105333333D02*
X258867080Y-105380952D01*
X258867080Y-105380952D02*
X258914700Y-105428571D01*
X258914700Y-105428571D02*
X258962319Y-105523809D01*
X258962319Y-105523809D02*
X258962319Y-105761904D01*
X258962319Y-105761904D02*
X258914700Y-105857142D01*
X258914700Y-105857142D02*
X258867080Y-105904761D01*
X203654761Y-92204819D02*
X203321428Y-91728628D01*
X203083333Y-92204819D02*
X203083333Y-91204819D01*
X203083333Y-91204819D02*
X203464285Y-91204819D01*
X203464285Y-91204819D02*
X203559523Y-91252438D01*
X203559523Y-91252438D02*
X203607142Y-91300057D01*
X203607142Y-91300057D02*
X203654761Y-91395295D01*
X203654761Y-91395295D02*
X203654761Y-91538152D01*
X203654761Y-91538152D02*
X203607142Y-91633390D01*
X203607142Y-91633390D02*
X203559523Y-91681009D01*
X203559523Y-91681009D02*
X203464285Y-91728628D01*
X203464285Y-91728628D02*
X203083333Y-91728628D01*
X203940476Y-91204819D02*
X204273809Y-92204819D01*
X204273809Y-92204819D02*
X204607142Y-91204819D01*
X205464285Y-92204819D02*
X204892857Y-92204819D01*
X205178571Y-92204819D02*
X205178571Y-91204819D01*
X205178571Y-91204819D02*
X205083333Y-91347676D01*
X205083333Y-91347676D02*
X204988095Y-91442914D01*
X204988095Y-91442914D02*
X204892857Y-91490533D01*
X229429580Y-104916666D02*
X229477200Y-104964285D01*
X229477200Y-104964285D02*
X229524819Y-105107142D01*
X229524819Y-105107142D02*
X229524819Y-105202380D01*
X229524819Y-105202380D02*
X229477200Y-105345237D01*
X229477200Y-105345237D02*
X229381961Y-105440475D01*
X229381961Y-105440475D02*
X229286723Y-105488094D01*
X229286723Y-105488094D02*
X229096247Y-105535713D01*
X229096247Y-105535713D02*
X228953390Y-105535713D01*
X228953390Y-105535713D02*
X228762914Y-105488094D01*
X228762914Y-105488094D02*
X228667676Y-105440475D01*
X228667676Y-105440475D02*
X228572438Y-105345237D01*
X228572438Y-105345237D02*
X228524819Y-105202380D01*
X228524819Y-105202380D02*
X228524819Y-105107142D01*
X228524819Y-105107142D02*
X228572438Y-104964285D01*
X228572438Y-104964285D02*
X228620057Y-104916666D01*
X228524819Y-104011904D02*
X228524819Y-104488094D01*
X228524819Y-104488094D02*
X229001009Y-104535713D01*
X229001009Y-104535713D02*
X228953390Y-104488094D01*
X228953390Y-104488094D02*
X228905771Y-104392856D01*
X228905771Y-104392856D02*
X228905771Y-104154761D01*
X228905771Y-104154761D02*
X228953390Y-104059523D01*
X228953390Y-104059523D02*
X229001009Y-104011904D01*
X229001009Y-104011904D02*
X229096247Y-103964285D01*
X229096247Y-103964285D02*
X229334342Y-103964285D01*
X229334342Y-103964285D02*
X229429580Y-104011904D01*
X229429580Y-104011904D02*
X229477200Y-104059523D01*
X229477200Y-104059523D02*
X229524819Y-104154761D01*
X229524819Y-104154761D02*
X229524819Y-104392856D01*
X229524819Y-104392856D02*
X229477200Y-104488094D01*
X229477200Y-104488094D02*
X229429580Y-104535713D01*
X263954819Y-89369921D02*
X263478628Y-89703254D01*
X263954819Y-89941349D02*
X262954819Y-89941349D01*
X262954819Y-89941349D02*
X262954819Y-89560397D01*
X262954819Y-89560397D02*
X263002438Y-89465159D01*
X263002438Y-89465159D02*
X263050057Y-89417540D01*
X263050057Y-89417540D02*
X263145295Y-89369921D01*
X263145295Y-89369921D02*
X263288152Y-89369921D01*
X263288152Y-89369921D02*
X263383390Y-89417540D01*
X263383390Y-89417540D02*
X263431009Y-89465159D01*
X263431009Y-89465159D02*
X263478628Y-89560397D01*
X263478628Y-89560397D02*
X263478628Y-89941349D01*
X263954819Y-88417540D02*
X263954819Y-88988968D01*
X263954819Y-88703254D02*
X262954819Y-88703254D01*
X262954819Y-88703254D02*
X263097676Y-88798492D01*
X263097676Y-88798492D02*
X263192914Y-88893730D01*
X263192914Y-88893730D02*
X263240533Y-88988968D01*
X262954819Y-87798492D02*
X262954819Y-87703254D01*
X262954819Y-87703254D02*
X263002438Y-87608016D01*
X263002438Y-87608016D02*
X263050057Y-87560397D01*
X263050057Y-87560397D02*
X263145295Y-87512778D01*
X263145295Y-87512778D02*
X263335771Y-87465159D01*
X263335771Y-87465159D02*
X263573866Y-87465159D01*
X263573866Y-87465159D02*
X263764342Y-87512778D01*
X263764342Y-87512778D02*
X263859580Y-87560397D01*
X263859580Y-87560397D02*
X263907200Y-87608016D01*
X263907200Y-87608016D02*
X263954819Y-87703254D01*
X263954819Y-87703254D02*
X263954819Y-87798492D01*
X263954819Y-87798492D02*
X263907200Y-87893730D01*
X263907200Y-87893730D02*
X263859580Y-87941349D01*
X263859580Y-87941349D02*
X263764342Y-87988968D01*
X263764342Y-87988968D02*
X263573866Y-88036587D01*
X263573866Y-88036587D02*
X263335771Y-88036587D01*
X263335771Y-88036587D02*
X263145295Y-87988968D01*
X263145295Y-87988968D02*
X263050057Y-87941349D01*
X263050057Y-87941349D02*
X263002438Y-87893730D01*
X263002438Y-87893730D02*
X262954819Y-87798492D01*
X235686666Y-106084819D02*
X235686666Y-106799104D01*
X235686666Y-106799104D02*
X235639047Y-106941961D01*
X235639047Y-106941961D02*
X235543809Y-107037200D01*
X235543809Y-107037200D02*
X235400952Y-107084819D01*
X235400952Y-107084819D02*
X235305714Y-107084819D01*
X236686666Y-107084819D02*
X236115238Y-107084819D01*
X236400952Y-107084819D02*
X236400952Y-106084819D01*
X236400952Y-106084819D02*
X236305714Y-106227676D01*
X236305714Y-106227676D02*
X236210476Y-106322914D01*
X236210476Y-106322914D02*
X236115238Y-106370533D01*
X236488095Y-97204819D02*
X236488095Y-98014342D01*
X236488095Y-98014342D02*
X236535714Y-98109580D01*
X236535714Y-98109580D02*
X236583333Y-98157200D01*
X236583333Y-98157200D02*
X236678571Y-98204819D01*
X236678571Y-98204819D02*
X236869047Y-98204819D01*
X236869047Y-98204819D02*
X236964285Y-98157200D01*
X236964285Y-98157200D02*
X237011904Y-98109580D01*
X237011904Y-98109580D02*
X237059523Y-98014342D01*
X237059523Y-98014342D02*
X237059523Y-97204819D01*
X238059523Y-98204819D02*
X237488095Y-98204819D01*
X237773809Y-98204819D02*
X237773809Y-97204819D01*
X237773809Y-97204819D02*
X237678571Y-97347676D01*
X237678571Y-97347676D02*
X237583333Y-97442914D01*
X237583333Y-97442914D02*
X237488095Y-97490533D01*
X190274405Y-113477319D02*
X190274405Y-112477319D01*
X190274405Y-112477319D02*
X190512500Y-112477319D01*
X190512500Y-112477319D02*
X190655357Y-112524938D01*
X190655357Y-112524938D02*
X190750595Y-112620176D01*
X190750595Y-112620176D02*
X190798214Y-112715414D01*
X190798214Y-112715414D02*
X190845833Y-112905890D01*
X190845833Y-112905890D02*
X190845833Y-113048747D01*
X190845833Y-113048747D02*
X190798214Y-113239223D01*
X190798214Y-113239223D02*
X190750595Y-113334461D01*
X190750595Y-113334461D02*
X190655357Y-113429700D01*
X190655357Y-113429700D02*
X190512500Y-113477319D01*
X190512500Y-113477319D02*
X190274405Y-113477319D01*
X191179167Y-112477319D02*
X191798214Y-112477319D01*
X191798214Y-112477319D02*
X191464881Y-112858271D01*
X191464881Y-112858271D02*
X191607738Y-112858271D01*
X191607738Y-112858271D02*
X191702976Y-112905890D01*
X191702976Y-112905890D02*
X191750595Y-112953509D01*
X191750595Y-112953509D02*
X191798214Y-113048747D01*
X191798214Y-113048747D02*
X191798214Y-113286842D01*
X191798214Y-113286842D02*
X191750595Y-113382080D01*
X191750595Y-113382080D02*
X191702976Y-113429700D01*
X191702976Y-113429700D02*
X191607738Y-113477319D01*
X191607738Y-113477319D02*
X191322024Y-113477319D01*
X191322024Y-113477319D02*
X191226786Y-113429700D01*
X191226786Y-113429700D02*
X191179167Y-113382080D01*
X240837080Y-109786666D02*
X240884700Y-109834285D01*
X240884700Y-109834285D02*
X240932319Y-109977142D01*
X240932319Y-109977142D02*
X240932319Y-110072380D01*
X240932319Y-110072380D02*
X240884700Y-110215237D01*
X240884700Y-110215237D02*
X240789461Y-110310475D01*
X240789461Y-110310475D02*
X240694223Y-110358094D01*
X240694223Y-110358094D02*
X240503747Y-110405713D01*
X240503747Y-110405713D02*
X240360890Y-110405713D01*
X240360890Y-110405713D02*
X240170414Y-110358094D01*
X240170414Y-110358094D02*
X240075176Y-110310475D01*
X240075176Y-110310475D02*
X239979938Y-110215237D01*
X239979938Y-110215237D02*
X239932319Y-110072380D01*
X239932319Y-110072380D02*
X239932319Y-109977142D01*
X239932319Y-109977142D02*
X239979938Y-109834285D01*
X239979938Y-109834285D02*
X240027557Y-109786666D01*
X240932319Y-108834285D02*
X240932319Y-109405713D01*
X240932319Y-109119999D02*
X239932319Y-109119999D01*
X239932319Y-109119999D02*
X240075176Y-109215237D01*
X240075176Y-109215237D02*
X240170414Y-109310475D01*
X240170414Y-109310475D02*
X240218033Y-109405713D01*
X264261905Y-114854819D02*
X264261905Y-113854819D01*
X264261905Y-113854819D02*
X264500000Y-113854819D01*
X264500000Y-113854819D02*
X264642857Y-113902438D01*
X264642857Y-113902438D02*
X264738095Y-113997676D01*
X264738095Y-113997676D02*
X264785714Y-114092914D01*
X264785714Y-114092914D02*
X264833333Y-114283390D01*
X264833333Y-114283390D02*
X264833333Y-114426247D01*
X264833333Y-114426247D02*
X264785714Y-114616723D01*
X264785714Y-114616723D02*
X264738095Y-114711961D01*
X264738095Y-114711961D02*
X264642857Y-114807200D01*
X264642857Y-114807200D02*
X264500000Y-114854819D01*
X264500000Y-114854819D02*
X264261905Y-114854819D01*
X265214286Y-113950057D02*
X265261905Y-113902438D01*
X265261905Y-113902438D02*
X265357143Y-113854819D01*
X265357143Y-113854819D02*
X265595238Y-113854819D01*
X265595238Y-113854819D02*
X265690476Y-113902438D01*
X265690476Y-113902438D02*
X265738095Y-113950057D01*
X265738095Y-113950057D02*
X265785714Y-114045295D01*
X265785714Y-114045295D02*
X265785714Y-114140533D01*
X265785714Y-114140533D02*
X265738095Y-114283390D01*
X265738095Y-114283390D02*
X265166667Y-114854819D01*
X265166667Y-114854819D02*
X265785714Y-114854819D01*
X222333333Y-90359580D02*
X222285714Y-90407200D01*
X222285714Y-90407200D02*
X222142857Y-90454819D01*
X222142857Y-90454819D02*
X222047619Y-90454819D01*
X222047619Y-90454819D02*
X221904762Y-90407200D01*
X221904762Y-90407200D02*
X221809524Y-90311961D01*
X221809524Y-90311961D02*
X221761905Y-90216723D01*
X221761905Y-90216723D02*
X221714286Y-90026247D01*
X221714286Y-90026247D02*
X221714286Y-89883390D01*
X221714286Y-89883390D02*
X221761905Y-89692914D01*
X221761905Y-89692914D02*
X221809524Y-89597676D01*
X221809524Y-89597676D02*
X221904762Y-89502438D01*
X221904762Y-89502438D02*
X222047619Y-89454819D01*
X222047619Y-89454819D02*
X222142857Y-89454819D01*
X222142857Y-89454819D02*
X222285714Y-89502438D01*
X222285714Y-89502438D02*
X222333333Y-89550057D01*
X222904762Y-89883390D02*
X222809524Y-89835771D01*
X222809524Y-89835771D02*
X222761905Y-89788152D01*
X222761905Y-89788152D02*
X222714286Y-89692914D01*
X222714286Y-89692914D02*
X222714286Y-89645295D01*
X222714286Y-89645295D02*
X222761905Y-89550057D01*
X222761905Y-89550057D02*
X222809524Y-89502438D01*
X222809524Y-89502438D02*
X222904762Y-89454819D01*
X222904762Y-89454819D02*
X223095238Y-89454819D01*
X223095238Y-89454819D02*
X223190476Y-89502438D01*
X223190476Y-89502438D02*
X223238095Y-89550057D01*
X223238095Y-89550057D02*
X223285714Y-89645295D01*
X223285714Y-89645295D02*
X223285714Y-89692914D01*
X223285714Y-89692914D02*
X223238095Y-89788152D01*
X223238095Y-89788152D02*
X223190476Y-89835771D01*
X223190476Y-89835771D02*
X223095238Y-89883390D01*
X223095238Y-89883390D02*
X222904762Y-89883390D01*
X222904762Y-89883390D02*
X222809524Y-89931009D01*
X222809524Y-89931009D02*
X222761905Y-89978628D01*
X222761905Y-89978628D02*
X222714286Y-90073866D01*
X222714286Y-90073866D02*
X222714286Y-90264342D01*
X222714286Y-90264342D02*
X222761905Y-90359580D01*
X222761905Y-90359580D02*
X222809524Y-90407200D01*
X222809524Y-90407200D02*
X222904762Y-90454819D01*
X222904762Y-90454819D02*
X223095238Y-90454819D01*
X223095238Y-90454819D02*
X223190476Y-90407200D01*
X223190476Y-90407200D02*
X223238095Y-90359580D01*
X223238095Y-90359580D02*
X223285714Y-90264342D01*
X223285714Y-90264342D02*
X223285714Y-90073866D01*
X223285714Y-90073866D02*
X223238095Y-89978628D01*
X223238095Y-89978628D02*
X223190476Y-89931009D01*
X223190476Y-89931009D02*
X223095238Y-89883390D01*
D10*
X200457419Y-110011904D02*
X201266942Y-110011904D01*
X201266942Y-110011904D02*
X201362180Y-109964285D01*
X201362180Y-109964285D02*
X201409800Y-109916666D01*
X201409800Y-109916666D02*
X201457419Y-109821428D01*
X201457419Y-109821428D02*
X201457419Y-109630952D01*
X201457419Y-109630952D02*
X201409800Y-109535714D01*
X201409800Y-109535714D02*
X201362180Y-109488095D01*
X201362180Y-109488095D02*
X201266942Y-109440476D01*
X201266942Y-109440476D02*
X200457419Y-109440476D01*
X200457419Y-109059523D02*
X200457419Y-108440476D01*
X200457419Y-108440476D02*
X200838371Y-108773809D01*
X200838371Y-108773809D02*
X200838371Y-108630952D01*
X200838371Y-108630952D02*
X200885990Y-108535714D01*
X200885990Y-108535714D02*
X200933609Y-108488095D01*
X200933609Y-108488095D02*
X201028847Y-108440476D01*
X201028847Y-108440476D02*
X201266942Y-108440476D01*
X201266942Y-108440476D02*
X201362180Y-108488095D01*
X201362180Y-108488095D02*
X201409800Y-108535714D01*
X201409800Y-108535714D02*
X201457419Y-108630952D01*
X201457419Y-108630952D02*
X201457419Y-108916666D01*
X201457419Y-108916666D02*
X201409800Y-109011904D01*
X201409800Y-109011904D02*
X201362180Y-109059523D01*
D14*
%TO.C,Y1*%
X200525000Y-111687500D02*
X200525000Y-113687500D01*
X200525000Y-113687500D02*
X200525000Y-114087500D01*
X200725000Y-111687500D02*
X201725000Y-111687500D01*
X200725000Y-113687500D02*
X200725000Y-111687500D01*
X200725000Y-113687500D02*
X200725000Y-114087500D01*
X201725000Y-114087500D02*
X200725000Y-114087500D01*
X201725000Y-114087500D02*
X201725000Y-114487500D01*
X203525000Y-111687500D02*
X204325000Y-111687500D01*
X204325000Y-111687500D02*
X204325000Y-113687500D01*
X204325000Y-113687500D02*
X204325000Y-114087500D01*
X204325000Y-114087500D02*
X203525000Y-114087500D01*
%TO.C,R8*%
X252805000Y-88727064D02*
X252805000Y-88272936D01*
X254275000Y-88727064D02*
X254275000Y-88272936D01*
%TO.C,C2*%
X250672500Y-109493752D02*
X250672500Y-108971248D01*
X252142500Y-109493752D02*
X252142500Y-108971248D01*
%TO.C,C4*%
X206263748Y-112152500D02*
X206786252Y-112152500D01*
X206263748Y-113622500D02*
X206786252Y-113622500D01*
%TO.C,R9*%
X249305000Y-88272936D02*
X249305000Y-88727064D01*
X250775000Y-88272936D02*
X250775000Y-88727064D01*
%TO.C,C10*%
X243778748Y-87595000D02*
X244301252Y-87595000D01*
X243778748Y-89065000D02*
X244301252Y-89065000D01*
%TO.C,R12*%
X261004564Y-112060000D02*
X260550436Y-112060000D01*
X261004564Y-113530000D02*
X260550436Y-113530000D01*
%TO.C,R3*%
X250634564Y-104247500D02*
X250180436Y-104247500D01*
X250634564Y-105717500D02*
X250180436Y-105717500D01*
%TO.C,R4*%
X255884564Y-103835000D02*
X255430436Y-103835000D01*
X255884564Y-105305000D02*
X255430436Y-105305000D01*
%TO.C,C12*%
X193761252Y-93265000D02*
X193238748Y-93265000D01*
X193761252Y-94735000D02*
X193238748Y-94735000D01*
%TO.C,R1*%
X196022936Y-100765000D02*
X196477064Y-100765000D01*
X196022936Y-102235000D02*
X196477064Y-102235000D01*
%TO.C,C9*%
X232568748Y-87515000D02*
X233091252Y-87515000D01*
X232568748Y-88985000D02*
X233091252Y-88985000D01*
%TO.C,J7*%
X227330000Y-79770000D02*
X227330000Y-83770000D01*
X227620000Y-78740000D02*
X227620000Y-84760000D01*
X227620000Y-84760000D02*
X235460000Y-84760000D01*
X228200000Y-78740000D02*
X228200000Y-79340000D01*
X228200000Y-79340000D02*
X229800000Y-79340000D01*
X229000000Y-83760000D02*
X229250000Y-83230000D01*
X229000000Y-83760000D02*
X234080000Y-83760000D01*
X229000000Y-84760000D02*
X229000000Y-83760000D01*
X229250000Y-83230000D02*
X233830000Y-83230000D01*
X229250000Y-84760000D02*
X229250000Y-83760000D01*
X229800000Y-79340000D02*
X229800000Y-78740000D01*
X230740000Y-78740000D02*
X230740000Y-79340000D01*
X230740000Y-79340000D02*
X232340000Y-79340000D01*
X232340000Y-79340000D02*
X232340000Y-78740000D01*
X233280000Y-78740000D02*
X233280000Y-79340000D01*
X233280000Y-79340000D02*
X234880000Y-79340000D01*
X233830000Y-83230000D02*
X234080000Y-83760000D01*
X233830000Y-84760000D02*
X233830000Y-83760000D01*
X234080000Y-83760000D02*
X234080000Y-84760000D01*
X234880000Y-79340000D02*
X234880000Y-78740000D01*
X235460000Y-78740000D02*
X227620000Y-78740000D01*
X235460000Y-84760000D02*
X235460000Y-78740000D01*
%TO.C,R7*%
X230015000Y-108272936D02*
X230015000Y-108727064D01*
X231485000Y-108272936D02*
X231485000Y-108727064D01*
%TO.C,J2*%
X248850000Y-79770000D02*
X248850000Y-83770000D01*
X249140000Y-78740000D02*
X249140000Y-84760000D01*
X249140000Y-84760000D02*
X254440000Y-84760000D01*
X249720000Y-78740000D02*
X249720000Y-79340000D01*
X249720000Y-79340000D02*
X251320000Y-79340000D01*
X250520000Y-83760000D02*
X250770000Y-83230000D01*
X250520000Y-83760000D02*
X253060000Y-83760000D01*
X250520000Y-84760000D02*
X250520000Y-83760000D01*
X250770000Y-83230000D02*
X252810000Y-83230000D01*
X250770000Y-84760000D02*
X250770000Y-83760000D01*
X251320000Y-79340000D02*
X251320000Y-78740000D01*
X252260000Y-78740000D02*
X252260000Y-79340000D01*
X252260000Y-79340000D02*
X253860000Y-79340000D01*
X252810000Y-83230000D02*
X253060000Y-83760000D01*
X252810000Y-84760000D02*
X252810000Y-83760000D01*
X253060000Y-83760000D02*
X253060000Y-84760000D01*
X253860000Y-79340000D02*
X253860000Y-78740000D01*
X254440000Y-78740000D02*
X249140000Y-78740000D01*
X254440000Y-84760000D02*
X254440000Y-78740000D01*
%TO.C,U4*%
X246795000Y-107722500D02*
X245995000Y-107722500D01*
X246795000Y-107722500D02*
X247595000Y-107722500D01*
X246795000Y-110842500D02*
X245995000Y-110842500D01*
X246795000Y-110842500D02*
X247595000Y-110842500D01*
X245495000Y-107772500D02*
X245255000Y-107442500D01*
X245735000Y-107442500D01*
X245495000Y-107772500D01*
G36*
X245495000Y-107772500D02*
G01*
X245255000Y-107442500D01*
X245735000Y-107442500D01*
X245495000Y-107772500D01*
G37*
%TO.C,R13*%
X195195436Y-113802500D02*
X195649564Y-113802500D01*
X195195436Y-115272500D02*
X195649564Y-115272500D01*
%TO.C,BT1*%
X188500000Y-117200000D02*
X266500000Y-117200000D01*
X188500000Y-137300000D02*
X188500000Y-117200000D01*
X266500000Y-117200000D02*
X266500000Y-137300000D01*
X266500000Y-137300000D02*
X188500000Y-137300000D01*
%TO.C,J4*%
X216880000Y-109080000D02*
X216880000Y-98800000D01*
X219480000Y-106480000D02*
X219480000Y-109080000D01*
X219480000Y-109080000D02*
X216880000Y-109080000D01*
X222080000Y-98800000D02*
X216880000Y-98800000D01*
X222080000Y-106480000D02*
X219480000Y-106480000D01*
X222080000Y-106480000D02*
X222080000Y-98800000D01*
X222080000Y-107750000D02*
X222080000Y-109080000D01*
X222080000Y-109080000D02*
X220750000Y-109080000D01*
%TO.C,R5*%
X255884564Y-106335000D02*
X255430436Y-106335000D01*
X255884564Y-107805000D02*
X255430436Y-107805000D01*
%TO.C,C7*%
X259728748Y-91515000D02*
X260251252Y-91515000D01*
X259728748Y-92985000D02*
X260251252Y-92985000D01*
%TO.C,C3*%
X230015000Y-101261252D02*
X230015000Y-100738748D01*
X231485000Y-101261252D02*
X231485000Y-100738748D01*
%TO.C,R6*%
X230015000Y-112022936D02*
X230015000Y-112477064D01*
X231485000Y-112022936D02*
X231485000Y-112477064D01*
%TO.C,R11*%
X257555000Y-88272936D02*
X257555000Y-88727064D01*
X259025000Y-88272936D02*
X259025000Y-88727064D01*
%TO.C,D1*%
X263315000Y-98290000D02*
X263315000Y-100210000D01*
X263315000Y-100210000D02*
X266000000Y-100210000D01*
X266000000Y-98290000D02*
X263315000Y-98290000D01*
%TO.C,C6*%
X251528748Y-91515000D02*
X252051252Y-91515000D01*
X251528748Y-92985000D02*
X252051252Y-92985000D01*
%TO.C,RV2*%
X190030000Y-78330000D02*
X199970000Y-78330000D01*
X190030000Y-82195000D02*
X190030000Y-78330000D01*
X190030000Y-90570000D02*
X190030000Y-86705000D01*
X190030000Y-90570000D02*
X191629000Y-90570000D01*
X193371000Y-90570000D02*
X194130000Y-90570000D01*
X195871000Y-90570000D02*
X196630000Y-90570000D01*
X198370000Y-90570000D02*
X199970000Y-90570000D01*
X199970000Y-82195000D02*
X199970000Y-78330000D01*
X199970000Y-90570000D02*
X199970000Y-86705000D01*
%TO.C,U2*%
X202640000Y-105637500D02*
X202640000Y-103437500D01*
X202640000Y-105637500D02*
X202640000Y-107837500D01*
X209410000Y-105637500D02*
X209410000Y-103437500D01*
X209410000Y-105637500D02*
X209410000Y-107837500D01*
X203340000Y-109827500D02*
X202860000Y-109827500D01*
X203100000Y-109497500D01*
X203340000Y-109827500D01*
G36*
X203340000Y-109827500D02*
G01*
X202860000Y-109827500D01*
X203100000Y-109497500D01*
X203340000Y-109827500D01*
G37*
%TO.C,R2*%
X260977064Y-98515000D02*
X260522936Y-98515000D01*
X260977064Y-99985000D02*
X260522936Y-99985000D01*
%TO.C,C11*%
X208011252Y-93265000D02*
X207488748Y-93265000D01*
X208011252Y-94735000D02*
X207488748Y-94735000D01*
%TO.C,Q1*%
X197250000Y-96440000D02*
X196600000Y-96440000D01*
X197250000Y-96440000D02*
X197900000Y-96440000D01*
X197250000Y-99560000D02*
X196600000Y-99560000D01*
X197250000Y-99560000D02*
X197900000Y-99560000D01*
X198652500Y-99840000D02*
X198172500Y-99840000D01*
X198412500Y-99510000D01*
X198652500Y-99840000D01*
G36*
X198652500Y-99840000D02*
G01*
X198172500Y-99840000D01*
X198412500Y-99510000D01*
X198652500Y-99840000D01*
G37*
%TO.C,J3*%
X257120000Y-79750000D02*
X257120000Y-83750000D01*
X257410000Y-78720000D02*
X257410000Y-84740000D01*
X257410000Y-84740000D02*
X262710000Y-84740000D01*
X257990000Y-78720000D02*
X257990000Y-79320000D01*
X257990000Y-79320000D02*
X259590000Y-79320000D01*
X258790000Y-83740000D02*
X259040000Y-83210000D01*
X258790000Y-83740000D02*
X261330000Y-83740000D01*
X258790000Y-84740000D02*
X258790000Y-83740000D01*
X259040000Y-83210000D02*
X261080000Y-83210000D01*
X259040000Y-84740000D02*
X259040000Y-83740000D01*
X259590000Y-79320000D02*
X259590000Y-78720000D01*
X260530000Y-78720000D02*
X260530000Y-79320000D01*
X260530000Y-79320000D02*
X262130000Y-79320000D01*
X261080000Y-83210000D02*
X261330000Y-83740000D01*
X261080000Y-84740000D02*
X261080000Y-83740000D01*
X261330000Y-83740000D02*
X261330000Y-84740000D01*
X262130000Y-79320000D02*
X262130000Y-78720000D01*
X262710000Y-78720000D02*
X257410000Y-78720000D01*
X262710000Y-84740000D02*
X262710000Y-78720000D01*
%TO.C,J8*%
X238080000Y-79830000D02*
X238080000Y-83830000D01*
X238370000Y-78800000D02*
X238370000Y-84820000D01*
X238370000Y-84820000D02*
X246210000Y-84820000D01*
X238950000Y-78800000D02*
X238950000Y-79400000D01*
X238950000Y-79400000D02*
X240550000Y-79400000D01*
X239750000Y-83820000D02*
X240000000Y-83290000D01*
X239750000Y-83820000D02*
X244830000Y-83820000D01*
X239750000Y-84820000D02*
X239750000Y-83820000D01*
X240000000Y-83290000D02*
X244580000Y-83290000D01*
X240000000Y-84820000D02*
X240000000Y-83820000D01*
X240550000Y-79400000D02*
X240550000Y-78800000D01*
X241490000Y-78800000D02*
X241490000Y-79400000D01*
X241490000Y-79400000D02*
X243090000Y-79400000D01*
X243090000Y-79400000D02*
X243090000Y-78800000D01*
X244030000Y-78800000D02*
X244030000Y-79400000D01*
X244030000Y-79400000D02*
X245630000Y-79400000D01*
X244580000Y-83290000D02*
X244830000Y-83820000D01*
X244580000Y-84820000D02*
X244580000Y-83820000D01*
X244830000Y-83820000D02*
X244830000Y-84820000D01*
X245630000Y-79400000D02*
X245630000Y-78800000D01*
X246210000Y-78800000D02*
X238370000Y-78800000D01*
X246210000Y-84820000D02*
X246210000Y-78800000D01*
%TO.C,J6*%
X216580000Y-79750000D02*
X216580000Y-83750000D01*
X216870000Y-78720000D02*
X216870000Y-84740000D01*
X216870000Y-84740000D02*
X224710000Y-84740000D01*
X217450000Y-78720000D02*
X217450000Y-79320000D01*
X217450000Y-79320000D02*
X219050000Y-79320000D01*
X218250000Y-83740000D02*
X218500000Y-83210000D01*
X218250000Y-83740000D02*
X223330000Y-83740000D01*
X218250000Y-84740000D02*
X218250000Y-83740000D01*
X218500000Y-83210000D02*
X223080000Y-83210000D01*
X218500000Y-84740000D02*
X218500000Y-83740000D01*
X219050000Y-79320000D02*
X219050000Y-78720000D01*
X219990000Y-78720000D02*
X219990000Y-79320000D01*
X219990000Y-79320000D02*
X221590000Y-79320000D01*
X221590000Y-79320000D02*
X221590000Y-78720000D01*
X222530000Y-78720000D02*
X222530000Y-79320000D01*
X222530000Y-79320000D02*
X224130000Y-79320000D01*
X223080000Y-83210000D02*
X223330000Y-83740000D01*
X223080000Y-84740000D02*
X223080000Y-83740000D01*
X223330000Y-83740000D02*
X223330000Y-84740000D01*
X224130000Y-79320000D02*
X224130000Y-78720000D01*
X224710000Y-78720000D02*
X216870000Y-78720000D01*
X224710000Y-84740000D02*
X224710000Y-78720000D01*
%TO.C,J5*%
X263357500Y-101330000D02*
X261657500Y-101330000D01*
X263357500Y-110670000D02*
X261657500Y-110670000D01*
%TO.C,RV1*%
X204280000Y-78380000D02*
X214220000Y-78380000D01*
X204280000Y-82245000D02*
X204280000Y-78380000D01*
X204280000Y-90620000D02*
X204280000Y-86755000D01*
X204280000Y-90620000D02*
X205879000Y-90620000D01*
X207621000Y-90620000D02*
X208380000Y-90620000D01*
X210121000Y-90620000D02*
X210880000Y-90620000D01*
X212620000Y-90620000D02*
X214220000Y-90620000D01*
X214220000Y-82245000D02*
X214220000Y-78380000D01*
X214220000Y-90620000D02*
X214220000Y-86755000D01*
%TO.C,C5*%
X230015000Y-105011252D02*
X230015000Y-104488748D01*
X231485000Y-105011252D02*
X231485000Y-104488748D01*
%TO.C,R10*%
X261055000Y-88727064D02*
X261055000Y-88272936D01*
X262525000Y-88727064D02*
X262525000Y-88272936D01*
%TO.C,J1*%
X233080000Y-108750000D02*
X233080000Y-112750000D01*
X233370000Y-107720000D02*
X233370000Y-113740000D01*
X233370000Y-113740000D02*
X238670000Y-113740000D01*
X233950000Y-107720000D02*
X233950000Y-108320000D01*
X233950000Y-108320000D02*
X235550000Y-108320000D01*
X234750000Y-112740000D02*
X235000000Y-112210000D01*
X234750000Y-112740000D02*
X237290000Y-112740000D01*
X234750000Y-113740000D02*
X234750000Y-112740000D01*
X235000000Y-112210000D02*
X237040000Y-112210000D01*
X235000000Y-113740000D02*
X235000000Y-112740000D01*
X235550000Y-108320000D02*
X235550000Y-107720000D01*
X236490000Y-107720000D02*
X236490000Y-108320000D01*
X236490000Y-108320000D02*
X238090000Y-108320000D01*
X237040000Y-112210000D02*
X237290000Y-112740000D01*
X237040000Y-113740000D02*
X237040000Y-112740000D01*
X237290000Y-112740000D02*
X237290000Y-113740000D01*
X238090000Y-108320000D02*
X238090000Y-107720000D01*
X238670000Y-107720000D02*
X233370000Y-107720000D01*
X238670000Y-113740000D02*
X238670000Y-107720000D01*
%TO.C,U1*%
X235400000Y-98840000D02*
X239160000Y-98840000D01*
X235400000Y-105660000D02*
X239160000Y-105660000D01*
X239160000Y-98840000D02*
X239160000Y-100100000D01*
X239160000Y-105660000D02*
X239160000Y-104400000D01*
X234120000Y-98940000D02*
X233880000Y-98610000D01*
X234360000Y-98610000D01*
X234120000Y-98940000D01*
G36*
X234120000Y-98940000D02*
G01*
X233880000Y-98610000D01*
X234360000Y-98610000D01*
X234120000Y-98940000D01*
G37*
%TO.C,D3*%
X189327500Y-113712500D02*
X189327500Y-115632500D01*
X189327500Y-115632500D02*
X192012500Y-115632500D01*
X192012500Y-113712500D02*
X189327500Y-113712500D01*
%TO.C,C1*%
X241422500Y-109881252D02*
X241422500Y-109358748D01*
X242892500Y-109881252D02*
X242892500Y-109358748D01*
%TO.C,D2*%
X264000000Y-113710000D02*
X266685000Y-113710000D01*
X266685000Y-111790000D02*
X264000000Y-111790000D01*
X266685000Y-113710000D02*
X266685000Y-111790000D01*
%TO.C,C8*%
X222278748Y-87515000D02*
X222801252Y-87515000D01*
X222278748Y-88985000D02*
X222801252Y-88985000D01*
D10*
%TO.C,U3*%
X188432500Y-103492500D02*
X188432500Y-111492500D01*
X188432500Y-103492500D02*
X194682500Y-103492500D01*
X188432500Y-111492500D02*
X194682500Y-111492500D01*
X199767500Y-104992500D02*
X194682500Y-103492500D01*
X199767500Y-104992500D02*
X199767500Y-109992500D01*
X199767500Y-109992500D02*
X194682500Y-111492500D01*
%TD*%
M02*
